0 On ch=1 n=49 v=27
85 Off ch=1 n=56 v=0
85 On ch=1 n=61 v=38
170 Off ch=1 n=61 v=0
170 On ch=1 n=64 v=42
256 Off ch=1 n=64 v=0
256 On ch=1 n=56 v=40
341 Off ch=1 n=56 v=0
341 On ch=1 n=61 v=44
426 Off ch=1 n=61 v=0
426 On ch=1 n=64 v=44
512 Off ch=1 n=64 v=0
512 On ch=1 n=56 v=39
597 Off ch=1 n=56 v=0
597 On ch=1 n=61 v=44
682 Off ch=1 n=61 v=0
682 On ch=1 n=64 v=43
768 Off ch=1 n=64 v=0
768 On ch=1 n=56 v=39
853 Off ch=1 n=56 v=0
853 On ch=1 n=61 v=43
938 Off ch=1 n=61 v=0
938 On ch=1 n=64 v=43
938 Par ch=1 c=64 v=0
1024 Off ch=1 n=64 v=0
1024 On ch=1 n=56 v=41
1024 Par ch=1 c=64 v=127
1024 On ch=1 n=35 v=29
1024 On ch=1 n=47 v=29
1034 Off ch=1 n=37 v=0
1034 Off ch=1 n=49 v=0
1109 Off ch=1 n=56 v=0
1109 On ch=1 n=61 v=45
1194 Off ch=1 n=61 v=0
1194 On ch=1 n=64 v=42
1280 Off ch=1 n=64 v=0
1280 On ch=1 n=56 v=40
1365 Off ch=1 n=56 v=0
1365 On ch=1 n=61 v=45
1450 Off ch=1 n=61 v=0
1450 On ch=1 n=64 v=42
1536 Off ch=1 n=64 v=0
1536 On ch=1 n=56 v=41
1621 Off ch=1 n=56 v=0
1621 On ch=1 n=61 v=44
1706 Off ch=1 n=61 v=0
1706 On ch=1 n=64 v=41
1792 Off ch=1 n=64 v=0
1792 On ch=1 n=56 v=39
1877 Off ch=1 n=56 v=0
1877 On ch=1 n=61 v=44
1961 Par ch=1 c=64 v=0
1962 Off ch=1 n=61 v=0
1962 On ch=1 n=64 v=42
2048 Off ch=1 n=64 v=0
2048 On ch=1 n=57 v=38
2048 Par ch=1 c=64 v=127
2048 On ch=1 n=33 v=29
2048 On ch=1 n=45 v=29
2067 Off ch=1 n=35 v=0
2067 Off ch=1 n=47 v=0
2133 Off ch=1 n=57 v=0
2133 On ch=1 n=61 v=43
2218 Off ch=1 n=61 v=0
2218 On ch=1 n=64 v=44
2304 Off ch=1 n=64 v=0
2304 On ch=1 n=57 v=39
2389 Off ch=1 n=57 v=0
2389 On ch=1 n=61 v=43
2474 Off ch=1 n=61 v=0
2474 On ch=1 n=64 v=42
2474 Par ch=1 c=64 v=0
2554 Off ch=1 n=64 v=0
2560 On ch=1 n=57 v=39
2560 Par ch=1 c=64 v=127
2560 On ch=1 n=30 v=30
2560 On ch=1 n=42 v=30
2569 Off ch=1 n=33 v=0
2569 Off ch=1 n=45 v=0
2645 Off ch=1 n=57 v=0
2645 On ch=1 n=62 v=45
2730 Off ch=1 n=62 v=0
2730 On ch=1 n=66 v=43
2816 Off ch=1 n=66 v=0
2816 On ch=1 n=57 v=39
2901 Off ch=1 n=57 v=0
2901 On ch=1 n=62 v=42
2986 Off ch=1 n=62 v=0
2986 On ch=1 n=66 v=44
2986 Par ch=1 c=64 v=0
3066 Off ch=1 n=66 v=0
3072 On ch=1 n=56 v=38
3072 Par ch=1 c=64 v=127
3072 On ch=1 n=32 v=30
3072 On ch=1 n=44 v=30
3081 Off ch=1 n=30 v=0
3081 Off ch=1 n=42 v=0
3157 Off ch=1 n=56 v=0
3157 On ch=1 n=60 v=42
3242 Off ch=1 n=60 v=0
3242 On ch=1 n=66 v=45
3242 Par ch=1 c=64 v=0
3328 Off ch=1 n=66 v=0
3328 On ch=1 n=56 v=38
3328 Par ch=1 c=64 v=127
3413 Off ch=1 n=56 v=0
3413 On ch=1 n=61 v=41
3498 Off ch=1 n=61 v=0
3498 On ch=1 n=64 v=42
3498 Par ch=1 c=64 v=0
3583 Off ch=1 n=32 v=0
3583 Off ch=1 n=44 v=0
3584 Off ch=1 n=64 v=0
3584 On ch=1 n=56 v=38
3584 Par ch=1 c=64 v=127
3584 On ch=1 n=32 v=30
3584 On ch=1 n=44 v=30
3669 Off ch=1 n=56 v=0
3669 On ch=1 n=61 v=41
3754 Off ch=1 n=61 v=0
3754 On ch=1 n=63 v=43
3754 Par ch=1 c=64 v=0
3840 Off ch=1 n=63 v=0
3840 On ch=1 n=54 v=41
3840 Par ch=1 c=64 v=127
3925 Off ch=1 n=54 v=0
3925 On ch=1 n=60 v=42
4010 Off ch=1 n=60 v=0
4010 On ch=1 n=63 v=41
4010 Par ch=1 c=64 v=0
4090 Off ch=1 n=63 v=0
4095 Off ch=1 n=44 v=0
4096 On ch=1 n=52 v=33
4096 Par ch=1 c=64 v=127
4096 On ch=1 n=37 v=31
4096 On ch=1 n=44 v=31
4096 On ch=1 n=49 v=31
4105 Off ch=1 n=32 v=0
4181 Off ch=1 n=52 v=0
4181 On ch=1 n=56 v=35
4266 Off ch=1 n=56 v=0
4266 On ch=1 n=61 v=42
4346 Off ch=1 n=61 v=0
4352 On ch=1 n=56 v=37
4437 Off ch=1 n=56 v=0
4437 On ch=1 n=61 v=35
4522 Off ch=1 n=61 v=0
4522 On ch=1 n=64 v=37
4602 Off ch=1 n=64 v=0
4608 On ch=1 n=56 v=35
4693 Off ch=1 n=56 v=0
4693 On ch=1 n=61 v=38
4778 Off ch=1 n=61 v=0
4778 On ch=1 n=64 v=36
4858 Off ch=1 n=64 v=0
4864 On ch=1 n=68 v=44
4864 On ch=1 n=56 v=46
4949 Off ch=1 n=56 v=0
4949 On ch=1 n=61 v=52
5034 Off ch=1 n=61 v=0
5034 On ch=1 n=64 v=49
5034 Par ch=1 c=64 v=0
5055 Off ch=1 n=68 v=0
5056 On ch=1 n=68 v=48
5067 Off ch=1 n=37 v=0
5067 Off ch=1 n=44 v=0
5067 Off ch=1 n=49 v=0
5119 Off ch=1 n=68 v=0
5120 Off ch=1 n=64 v=0
5120 On ch=1 n=68 v=49
5120 On ch=1 n=56 v=46
5120 Par ch=1 c=64 v=127
5120 On ch=1 n=36 v=32
5120 On ch=1 n=44 v=32
5120 On ch=1 n=48 v=32
5199 Off ch=1 n=56 v=0
5205 On ch=1 n=63 v=51
5290 Off ch=1 n=63 v=0
5290 On ch=1 n=66 v=51
5376 Off ch=1 n=66 v=0
5376 On ch=1 n=56 v=49
5461 Off ch=1 n=56 v=0
5461 On ch=1 n=63 v=54
5546 Off ch=1 n=63 v=0
5546 On ch=1 n=66 v=50
5632 Off ch=1 n=66 v=0
5632 On ch=1 n=56 v=45
5717 Off ch=1 n=56 v=0
5717 On ch=1 n=63 v=54
5802 Off ch=1 n=63 v=0
5802 On ch=1 n=66 v=51
5848 Off ch=1 n=68 v=0
5888 Off ch=1 n=66 v=0
5888 On ch=1 n=68 v=47
5888 On ch=1 n=56 v=44
5973 Off ch=1 n=56 v=0
5973 On ch=1 n=63 v=54
6058 Off ch=1 n=63 v=0
6058 On ch=1 n=66 v=50
6058 Par ch=1 c=64 v=0
6079 Off ch=1 n=68 v=0
6080 On ch=1 n=68 v=47
6143 Off ch=1 n=68 v=0
6144 Off ch=1 n=66 v=0
6144 On ch=1 n=68 v=50
6144 On ch=1 n=56 v=46
6144 Par ch=1 c=64 v=127
6144 On ch=1 n=37 v=31
6144 On ch=1 n=49 v=31
6154 Off ch=1 n=36 v=0
6154 Off ch=1 n=44 v=0
6154 Off ch=1 n=48 v=0
6229 Off ch=1 n=56 v=0
6229 On ch=1 n=61 v=52
6314 Off ch=1 n=61 v=0
6314 On ch=1 n=64 v=52
6400 Off ch=1 n=64 v=0
6400 On ch=1 n=56 v=45
6485 Off ch=1 n=56 v=0
6485 On ch=1 n=61 v=48
6570 Off ch=1 n=61 v=0
6570 On ch=1 n=64 v=51
6570 Par ch=1 c=64 v=0
6656 Off ch=1 n=64 v=0
6656 On ch=1 n=69 v=52
6656 On ch=1 n=57 v=46
6656 Par ch=1 c=64 v=127
6656 On ch=1 n=30 v=29
6656 On ch=1 n=42 v=29
6661 Off ch=1 n=37 v=0
6661 Off ch=1 n=49 v=0
6665 Off ch=1 n=68 v=0
6741 Off ch=1 n=57 v=0
6741 On ch=1 n=61 v=50
6826 Off ch=1 n=61 v=0
6826 On ch=1 n=66 v=51
6912 Off ch=1 n=66 v=0
6912 On ch=1 n=57 v=46
6997 Off ch=1 n=57 v=0
6997 On ch=1 n=61 v=52
7082 Off ch=1 n=61 v=0
7082 On ch=1 n=66 v=53
7082 Par ch=1 c=64 v=0
7168 Off ch=1 n=66 v=0
7168 On ch=1 n=68 v=46
7168 On ch=1 n=56 v=44
7168 Par ch=1 c=64 v=127
7168 On ch=1 n=35 v=31
7168 On ch=1 n=47 v=31
7173 Off ch=1 n=30 v=0
7173 Off ch=1 n=42 v=0
7177 Off ch=1 n=69 v=0
7253 Off ch=1 n=56 v=0
7253 On ch=1 n=59 v=47
7338 Off ch=1 n=59 v=0
7338 On ch=1 n=64 v=49
7424 Off ch=1 n=64 v=0
7424 On ch=1 n=56 v=47
7509 Off ch=1 n=56 v=0
7509 On ch=1 n=59 v=48
7594 Off ch=1 n=59 v=0
7594 On ch=1 n=64 v=52
7594 Par ch=1 c=64 v=0
7680 Off ch=1 n=64 v=0
7680 On ch=1 n=66 v=45
7680 On ch=1 n=57 v=46
7680 Par ch=1 c=64 v=127
7680 On ch=1 n=35 v=31
7680 On ch=1 n=47 v=31
7685 Off ch=1 n=35 v=0
7685 Off ch=1 n=47 v=0
7689 Off ch=1 n=68 v=0
7765 Off ch=1 n=57 v=0
7765 On ch=1 n=59 v=50
7850 Off ch=1 n=59 v=0
7850 On ch=1 n=63 v=50
7936 Off ch=1 n=63 v=0
7936 On ch=1 n=71 v=51
7936 On ch=1 n=57 v=46
7940 Off ch=1 n=66 v=0
8021 Off ch=1 n=57 v=0
8021 On ch=1 n=59 v=49
8106 Off ch=1 n=59 v=0
8106 On ch=1 n=63 v=53
8106 Par ch=1 c=64 v=0
8192 Off ch=1 n=63 v=0
8192 On ch=1 n=64 v=47
8192 On ch=1 n=56 v=45
8192 Par ch=1 c=64 v=127
8192 On ch=1 n=40 v=33
8192 On ch=1 n=52 v=33
8196 Off ch=1 n=71 v=0
8197 Off ch=1 n=35 v=0
8197 Off ch=1 n=47 v=0
8271 Off ch=1 n=56 v=0
8277 On ch=1 n=59 v=47
8362 Off ch=1 n=59 v=0
8362 On ch=1 n=64 v=49
8434 Off ch=1 n=64 v=0
8448 Off ch=1 n=64 v=0
8448 On ch=1 n=56 v=45
8533 Off ch=1 n=56 v=0
8533 On ch=1 n=59 v=46
8618 Off ch=1 n=59 v=0
8618 On ch=1 n=64 v=45
8704 Off ch=1 n=64 v=0
8704 On ch=1 n=56 v=40
8789 Off ch=1 n=56 v=0
8789 On ch=1 n=59 v=41
8874 Off ch=1 n=59 v=0
8874 On ch=1 n=64 v=41
8960 Off ch=1 n=64 v=0
8960 On ch=1 n=56 v=37
9045 Off ch=1 n=56 v=0
9045 On ch=1 n=59 v=39
9130 Off ch=1 n=59 v=0
9130 On ch=1 n=64 v=38
9130 Par ch=1 c=64 v=0
9216 Off ch=1 n=64 v=0
9216 On ch=1 n=55 v=35
9216 Par ch=1 c=64 v=127
9216 On ch=1 n=40 v=29
9216 On ch=1 n=52 v=29
9226 Off ch=1 n=40 v=0
9226 Off ch=1 n=52 v=0
9301 Off ch=1 n=55 v=0
9301 On ch=1 n=59 v=35
9386 Off ch=1 n=59 v=0
9386 On ch=1 n=64 v=37
9472 Off ch=1 n=64 v=0
9472 On ch=1 n=55 v=31
9557 Off ch=1 n=55 v=0
9557 On ch=1 n=59 v=37
9642 Off ch=1 n=59 v=0
9642 On ch=1 n=64 v=38
9728 Off ch=1 n=64 v=0
9728 On ch=1 n=55 v=35
9813 Off ch=1 n=55 v=0
9813 On ch=1 n=59 v=35
9898 Off ch=1 n=59 v=0
9898 On ch=1 n=64 v=36
9984 Off ch=1 n=64 v=0
9984 On ch=1 n=67 v=43
9984 On ch=1 n=55 v=49
10069 Off ch=1 n=55 v=0
10069 On ch=1 n=59 v=50
10154 Off ch=1 n=59 v=0
10154 On ch=1 n=64 v=50
10154 Par ch=1 c=64 v=0
10175 Off ch=1 n=67 v=0
10176 On ch=1 n=67 v=60
10239 Off ch=1 n=67 v=0
10240 Off ch=1 n=64 v=0
10240 On ch=1 n=67 v=65
10240 On ch=1 n=55 v=49
10240 Par ch=1 c=64 v=127
10240 On ch=1 n=38 v=30
10240 On ch=1 n=50 v=30
10250 Off ch=1 n=40 v=0
10250 Off ch=1 n=52 v=0
10319 Off ch=1 n=55 v=0
10325 On ch=1 n=59 v=36
10410 Off ch=1 n=59 v=0
10410 On ch=1 n=65 v=39
10496 Off ch=1 n=65 v=0
10496 On ch=1 n=55 v=34
10581 Off ch=1 n=55 v=0
10581 On ch=1 n=59 v=37
10666 Off ch=1 n=59 v=0
10666 On ch=1 n=65 v=40
10752 Off ch=1 n=65 v=0
10752 On ch=1 n=55 v=33
10837 Off ch=1 n=55 v=0
10837 On ch=1 n=59 v=38
10922 Off ch=1 n=59 v=0
10922 On ch=1 n=65 v=37
10968 Off ch=1 n=67 v=0
11008 Off ch=1 n=65 v=0
11008 On ch=1 n=67 v=48
11008 On ch=1 n=55 v=46
11093 Off ch=1 n=55 v=0
11093 On ch=1 n=59 v=49
11178 Off ch=1 n=59 v=0
11178 On ch=1 n=65 v=55
11178 Par ch=1 c=64 v=0
11199 Off ch=1 n=67 v=0
11200 On ch=1 n=67 v=48
11263 Off ch=1 n=67 v=0
11264 Off ch=1 n=65 v=0
11264 On ch=1 n=67 v=48
11264 On ch=1 n=55 v=44
11264 Par ch=1 c=64 v=127
11264 On ch=1 n=36 v=31
11264 On ch=1 n=48 v=31
11274 Off ch=1 n=38 v=0
11274 Off ch=1 n=50 v=0
11349 Off ch=1 n=55 v=0
11349 On ch=1 n=60 v=50
11434 Off ch=1 n=60 v=0
11434 On ch=1 n=64 v=52
11434 Par ch=1 c=64 v=0
11520 Off ch=1 n=64 v=0
11520 On ch=1 n=55 v=44
11520 Par ch=1 c=64 v=127
11520 On ch=1 n=35 v=38
11520 On ch=1 n=47 v=38
11522 Off ch=1 n=36 v=0
11522 Off ch=1 n=48 v=0
11605 Off ch=1 n=55 v=0
11605 On ch=1 n=59 v=50
11690 Off ch=1 n=59 v=0
11690 On ch=1 n=64 v=51
11690 Par ch=1 c=64 v=0
11776 Off ch=1 n=64 v=0
11776 On ch=1 n=55 v=46
11776 Par ch=1 c=64 v=127
11776 On ch=1 n=34 v=49
11776 On ch=1 n=46 v=49
11778 Off ch=1 n=35 v=0
11778 Off ch=1 n=47 v=0
11861 Off ch=1 n=55 v=0
11861 On ch=1 n=61 v=51
11946 Off ch=1 n=61 v=0
11946 On ch=1 n=64 v=52
11946 Par ch=1 c=64 v=0
12032 Off ch=1 n=64 v=0
12032 On ch=1 n=66 v=46
12032 On ch=1 n=54 v=45
12032 Par ch=1 c=64 v=127
12046 Off ch=1 n=67 v=0
12117 Off ch=1 n=54 v=0
12117 On ch=1 n=61 v=52
12202 Off ch=1 n=61 v=0
12202 On ch=1 n=64 v=51
12202 Par ch=1 c=64 v=0
12287 Off ch=1 n=66 v=0
12288 Off ch=1 n=64 v=0
12288 On ch=1 n=66 v=47
12288 On ch=1 n=54 v=46
12288 Par ch=1 c=64 v=127
12288 On ch=1 n=35 v=50
12288 On ch=1 n=47 v=50
12293 Off ch=1 n=34 v=0
12293 Off ch=1 n=46 v=0
12373 Off ch=1 n=54 v=0
12373 On ch=1 n=59 v=50
12458 Off ch=1 n=59 v=0
12458 On ch=1 n=62 v=50
12544 Off ch=1 n=62 v=0
12544 On ch=1 n=54 v=46
12629 Off ch=1 n=54 v=0
12629 On ch=1 n=59 v=50
12714 Off ch=1 n=59 v=0
12714 On ch=1 n=62 v=51
12714 Par ch=1 c=64 v=0
12800 Off ch=1 n=62 v=0
12800 On ch=1 n=67 v=49
12800 On ch=1 n=55 v=48
12800 Par ch=1 c=64 v=127
12800 On ch=1 n=40 v=46
12805 Off ch=1 n=35 v=0
12805 Off ch=1 n=47 v=0
12809 Off ch=1 n=66 v=0
12885 Off ch=1 n=55 v=0
12885 On ch=1 n=59 v=47
12970 Off ch=1 n=59 v=0
12970 On ch=1 n=61 v=51
13056 Off ch=1 n=61 v=0
13056 On ch=1 n=64 v=44
13056 On ch=1 n=52 v=45
13056 On ch=1 n=43 v=46
13058 Off ch=1 n=40 v=0
13060 Off ch=1 n=67 v=0
13141 Off ch=1 n=52 v=0
13141 On ch=1 n=59 v=50
13226 Off ch=1 n=59 v=0
13226 On ch=1 n=61 v=50
13226 Par ch=1 c=64 v=0
13312 Off ch=1 n=61 v=0
13312 On ch=1 n=66 v=47
13312 On ch=1 n=54 v=48
13312 Par ch=1 c=64 v=127
13312 On ch=1 n=42 v=47
13314 Off ch=1 n=43 v=0
13316 Off ch=1 n=64 v=0
13397 Off ch=1 n=54 v=0
13397 On ch=1 n=59 v=49
13482 Off ch=1 n=59 v=0
13482 On ch=1 n=62 v=51
13568 Off ch=1 n=62 v=0
13568 On ch=1 n=54 v=47
13653 Off ch=1 n=54 v=0
13653 On ch=1 n=59 v=50
13738 Off ch=1 n=59 v=0
13738 On ch=1 n=62 v=51
13738 Par ch=1 c=64 v=0
13823 Off ch=1 n=66 v=0
13824 Off ch=1 n=62 v=0
13824 On ch=1 n=66 v=47
13824 On ch=1 n=54 v=47
13824 Par ch=1 c=64 v=127
13824 On ch=1 n=30 v=47
13824 On ch=1 n=42 v=47
13829 Off ch=1 n=42 v=0
13909 Off ch=1 n=54 v=0
13909 On ch=1 n=58 v=51
13994 Off ch=1 n=58 v=0
13994 On ch=1 n=61 v=49
14080 Off ch=1 n=61 v=0
14080 On ch=1 n=54 v=48
14165 Off ch=1 n=54 v=0
14165 On ch=1 n=58 v=51
14250 Off ch=1 n=58 v=0
14250 On ch=1 n=61 v=49
14250 Par ch=1 c=64 v=0
14336 Off ch=1 n=61 v=0
14336 On ch=1 n=59 v=44
14336 Par ch=1 c=64 v=127
14336 On ch=1 n=35 v=49
14336 On ch=1 n=47 v=49
14341 Off ch=1 n=30 v=0
14341 Off ch=1 n=42 v=0
14345 Off ch=1 n=66 v=0
14421 On ch=1 n=62 v=49
14506 Off ch=1 n=62 v=0
14506 On ch=1 n=66 v=50
14576 Off ch=1 n=59 v=0
14592 Off ch=1 n=66 v=0
14592 On ch=1 n=59 v=45
14677 Off ch=1 n=59 v=0
14677 On ch=1 n=62 v=52
14762 Off ch=1 n=62 v=0
14762 On ch=1 n=66 v=55
14848 Off ch=1 n=66 v=0
14848 On ch=1 n=59 v=48
14848 Par ch=1 c=64 v=0
14848 Par ch=1 c=64 v=127
14933 Off ch=1 n=59 v=0
14933 On ch=1 n=63 v=51
15018 Off ch=1 n=63 v=0
15018 On ch=1 n=66 v=57
15104 Off ch=1 n=66 v=0
15104 On ch=1 n=71 v=48
15104 On ch=1 n=59 v=51
15189 Off ch=1 n=59 v=0
15189 On ch=1 n=63 v=55
15274 Off ch=1 n=63 v=0
15274 On ch=1 n=66 v=56
15274 Par ch=1 c=64 v=0
15360 Off ch=1 n=66 v=0
15360 On ch=1 n=72 v=47
15360 On ch=1 n=59 v=52
15360 Par ch=1 c=64 v=127
15364 Off ch=1 n=71 v=0
15445 Off ch=1 n=59 v=0
15445 On ch=1 n=64 v=56
15530 Off ch=1 n=64 v=0
15530 On ch=1 n=67 v=55
15530 Par ch=1 c=64 v=0
15616 Off ch=1 n=67 v=0
15616 On ch=1 n=59 v=50
15616 Par ch=1 c=64 v=127
15616 On ch=1 n=40 v=59
15616 On ch=1 n=52 v=59
15618 Off ch=1 n=35 v=0
15618 Off ch=1 n=47 v=0
15701 Off ch=1 n=59 v=0
15701 On ch=1 n=64 v=58
15786 Off ch=1 n=64 v=0
15786 On ch=1 n=67 v=55
15786 Par ch=1 c=64 v=0
15872 Off ch=1 n=67 v=0
15872 On ch=1 n=59 v=51
15872 Par ch=1 c=64 v=127
15872 On ch=1 n=43 v=49
15872 On ch=1 n=55 v=49
15876 Off ch=1 n=40 v=0
15876 Off ch=1 n=52 v=0
15957 Off ch=1 n=59 v=0
15957 On ch=1 n=64 v=57
16042 Off ch=1 n=64 v=0
16042 On ch=1 n=67 v=57
16042 Par ch=1 c=64 v=0
16128 Off ch=1 n=67 v=0
16128 On ch=1 n=70 v=53
16128 On ch=1 n=59 v=50
16128 Par ch=1 c=64 v=127
16128 On ch=1 n=40 v=43
16128 On ch=1 n=52 v=43
16132 Off ch=1 n=43 v=0
16132 Off ch=1 n=55 v=0
16142 Off ch=1 n=72 v=0
16213 Off ch=1 n=59 v=0
16213 On ch=1 n=64 v=57
16298 Off ch=1 n=64 v=0
16298 On ch=1 n=67 v=52
16298 Par ch=1 c=64 v=0
16370 Off ch=1 n=40 v=0
16370 Off ch=1 n=52 v=0
16384 Off ch=1 n=67 v=0
16384 On ch=1 n=71 v=54
16384 On ch=1 n=59 v=47
16384 Par ch=1 c=64 v=127
16384 On ch=1 n=35 v=35
16384 On ch=1 n=47 v=35
16388 Off ch=1 n=70 v=0
16463 Off ch=1 n=59 v=0
16469 On ch=1 n=63 v=44
16554 Off ch=1 n=63 v=0
16554 On ch=1 n=66 v=44
16640 Off ch=1 n=66 v=0
16640 On ch=1 n=59 v=44
16725 Off ch=1 n=59 v=0
16725 On ch=1 n=63 v=46
16810 Off ch=1 n=63 v=0
16810 On ch=1 n=66 v=45
16896 Off ch=1 n=66 v=0
16896 On ch=1 n=59 v=42
16981 Off ch=1 n=59 v=0
16981 On ch=1 n=63 v=46
17066 Off ch=1 n=63 v=0
17066 On ch=1 n=66 v=50
17112 Off ch=1 n=71 v=0
17152 Off ch=1 n=66 v=0
17152 On ch=1 n=71 v=59
17152 On ch=1 n=59 v=47
17237 Off ch=1 n=59 v=0
17237 On ch=1 n=63 v=49
17322 Off ch=1 n=63 v=0
17322 On ch=1 n=66 v=52
17322 Par ch=1 c=64 v=0
17408 Off ch=1 n=66 v=0
17408 On ch=1 n=72 v=61
17408 On ch=1 n=59 v=47
17408 Par ch=1 c=64 v=127
17412 Off ch=1 n=71 v=0
17493 Off ch=1 n=59 v=0
17493 On ch=1 n=64 v=50
17578 Off ch=1 n=64 v=0
17578 On ch=1 n=67 v=51
17578 Par ch=1 c=64 v=0
17664 Off ch=1 n=67 v=0
17664 On ch=1 n=59 v=46
17664 Par ch=1 c=64 v=127
17664 On ch=1 n=40 v=43
17664 On ch=1 n=52 v=43
17666 Off ch=1 n=35 v=0
17666 Off ch=1 n=47 v=0
17749 Off ch=1 n=59 v=0
17749 On ch=1 n=64 v=51
17834 Off ch=1 n=64 v=0
17834 On ch=1 n=67 v=50
17834 Par ch=1 c=64 v=0
17920 Off ch=1 n=67 v=0
17920 On ch=1 n=59 v=45
17920 Par ch=1 c=64 v=127
17920 On ch=1 n=43 v=48
17920 On ch=1 n=55 v=48
17924 Off ch=1 n=40 v=0
17924 Off ch=1 n=52 v=0
18005 Off ch=1 n=59 v=0
18005 On ch=1 n=64 v=48
18090 Off ch=1 n=64 v=0
18090 On ch=1 n=67 v=52
18090 Par ch=1 c=64 v=0
18176 Off ch=1 n=67 v=0
18176 On ch=1 n=70 v=57
18176 On ch=1 n=59 v=46
18176 Par ch=1 c=64 v=127
18176 On ch=1 n=40 v=37
18176 On ch=1 n=52 v=37
18180 Off ch=1 n=43 v=0
18180 Off ch=1 n=55 v=0
18190 Off ch=1 n=72 v=0
18261 Off ch=1 n=59 v=0
18261 On ch=1 n=64 v=53
18346 Off ch=1 n=64 v=0
18346 On ch=1 n=67 v=50
18346 Par ch=1 c=64 v=0
18418 Off ch=1 n=40 v=0
18418 Off ch=1 n=52 v=0
18432 Off ch=1 n=67 v=0
18432 On ch=1 n=71 v=58
18432 On ch=1 n=59 v=44
18432 Par ch=1 c=64 v=127
18432 On ch=1 n=35 v=46
18432 On ch=1 n=47 v=46
18436 Off ch=1 n=70 v=0
18511 Off ch=1 n=59 v=0
18517 On ch=1 n=63 v=51
18602 Off ch=1 n=63 v=0
18602 On ch=1 n=66 v=50
18688 Off ch=1 n=66 v=0
18688 On ch=1 n=59 v=46
18773 Off ch=1 n=59 v=0
18773 On ch=1 n=63 v=52
18858 Off ch=1 n=63 v=0
18858 On ch=1 n=66 v=50
18858 Par ch=1 c=64 v=0
18917 Off ch=1 n=71 v=0
18944 Off ch=1 n=66 v=0
18944 On ch=1 n=71 v=58
18944 On ch=1 n=59 v=46
18944 Par ch=1 c=64 v=127
18944 On ch=1 n=32 v=47
18944 On ch=1 n=44 v=47
18949 Off ch=1 n=35 v=0
18949 Off ch=1 n=47 v=0
19029 Off ch=1 n=59 v=0
19029 On ch=1 n=62 v=52
19114 Off ch=1 n=62 v=0
19114 On ch=1 n=65 v=48
19200 Off ch=1 n=65 v=0
19200 On ch=1 n=59 v=46
19285 Off ch=1 n=59 v=0
19285 On ch=1 n=62 v=50
19370 Off ch=1 n=62 v=0
19370 On ch=1 n=65 v=49
19370 Par ch=1 c=64 v=0
19455 Off ch=1 n=71 v=0
19456 Off ch=1 n=65 v=0
19456 On ch=1 n=71 v=58
19456 On ch=1 n=59 v=46
19456 Par ch=1 c=64 v=127
19456 On ch=1 n=29 v=48
19456 On ch=1 n=41 v=48
19461 Off ch=1 n=32 v=0
19461 Off ch=1 n=44 v=0
19541 Off ch=1 n=59 v=0
19541 On ch=1 n=61 v=49
19626 Off ch=1 n=61 v=0
19626 On ch=1 n=68 v=53
19712 Off ch=1 n=68 v=0
19712 On ch=1 n=59 v=47
19797 Off ch=1 n=59 v=0
19797 On ch=1 n=61 v=50
19882 Off ch=1 n=61 v=0
19882 On ch=1 n=68 v=51
19882 Par ch=1 c=64 v=0
19968 Off ch=1 n=68 v=0
19968 On ch=1 n=69 v=56
19968 On ch=1 n=57 v=45
19968 Par ch=1 c=64 v=127
19968 On ch=1 n=30 v=48
19968 On ch=1 n=42 v=48
19973 Off ch=1 n=29 v=0
19973 Off ch=1 n=41 v=0
19977 Off ch=1 n=71 v=0
20053 Off ch=1 n=57 v=0
20053 On ch=1 n=61 v=52
20138 Off ch=1 n=61 v=0
20138 On ch=1 n=66 v=50
20224 Off ch=1 n=66 v=0
20224 On ch=1 n=57 v=47
20309 Off ch=1 n=57 v=0
20309 On ch=1 n=61 v=50
20394 Off ch=1 n=61 v=0
20394 On ch=1 n=66 v=51
20394 Par ch=1 c=64 v=0
20480 Off ch=1 n=66 v=0
20480 On ch=1 n=67 v=57
20480 Par ch=1 c=64 v=127
20480 On ch=1 n=55 v=50
20480 On ch=1 n=35 v=49
20480 On ch=1 n=47 v=49
20485 Off ch=1 n=30 v=0
20485 Off ch=1 n=42 v=0
20489 Off ch=1 n=69 v=0
20565 Off ch=1 n=55 v=0
20565 On ch=1 n=59 v=50
20650 Off ch=1 n=59 v=0
20650 On ch=1 n=62 v=51
20736 Off ch=1 n=62 v=0
20736 On ch=1 n=55 v=48
20821 Off ch=1 n=55 v=0
20821 On ch=1 n=59 v=49
20906 Par ch=1 c=64 v=0
20906 Off ch=1 n=59 v=0
20906 On ch=1 n=62 v=49
20992 On ch=1 n=66 v=55
20992 Off ch=1 n=62 v=0
20992 Par ch=1 c=64 v=127
20992 On ch=1 n=54 v=45
20992 On ch=1 n=36 v=51
20992 On ch=1 n=48 v=51
20997 Off ch=1 n=35 v=0
20997 Off ch=1 n=47 v=0
21001 Off ch=1 n=67 v=0
21077 Off ch=1 n=54 v=0
21077 On ch=1 n=57 v=50
21162 Off ch=1 n=57 v=0
21162 On ch=1 n=63 v=51
21248 Off ch=1 n=63 v=0
21248 On ch=1 n=54 v=45
21333 Off ch=1 n=54 v=0
21333 On ch=1 n=57 v=46
21418 Par ch=1 c=64 v=0
21418 Off ch=1 n=57 v=0
21418 On ch=1 n=63 v=52
21504 On ch=1 n=61 v=52
21504 On ch=1 n=49 v=46
21504 Off ch=1 n=63 v=0
21504 Par ch=1 c=64 v=127
21504 On ch=1 n=37 v=43
21509 Off ch=1 n=36 v=0
21509 Off ch=1 n=48 v=0
21513 Off ch=1 n=66 v=0
21589 Off ch=1 n=49 v=0
21589 On ch=1 n=54 v=45
21674 Off ch=1 n=54 v=0
21674 On ch=1 n=57 v=46
21760 Off ch=1 n=57 v=0
21760 On ch=1 n=49 v=40
21845 Off ch=1 n=49 v=0
21845 On ch=1 n=54 v=44
21930 Off ch=1 n=54 v=0
21930 On ch=1 n=57 v=44
21930 Par ch=1 c=64 v=0
22015 Off ch=1 n=61 v=0
22016 Off ch=1 n=57 v=0
22016 On ch=1 n=61 v=53
22016 On ch=1 n=49 v=43
22016 Par ch=1 c=64 v=127
22016 On ch=1 n=37 v=43
22021 Off ch=1 n=37 v=0
22101 Off ch=1 n=49 v=0
22101 On ch=1 n=54 v=45
22186 Off ch=1 n=54 v=0
22186 On ch=1 n=56 v=45
22271 Off ch=1 n=61 v=0
22272 Off ch=1 n=56 v=0
22272 On ch=1 n=61 v=50
22272 On ch=1 n=49 v=41
22357 Off ch=1 n=49 v=0
22357 On ch=1 n=53 v=45
22442 Off ch=1 n=53 v=0
22442 On ch=1 n=56 v=44
22442 Par ch=1 c=64 v=0
22528 Off ch=1 n=56 v=0
22528 On ch=1 n=54 v=49
22528 On ch=1 n=30 v=34
22528 On ch=1 n=37 v=34
22528 On ch=1 n=42 v=34
22532 Off ch=1 n=61 v=0
22533 Off ch=1 n=37 v=0
22613 On ch=1 n=57 v=44
22613 Par ch=1 c=64 v=127
22698 Off ch=1 n=57 v=0
22698 On ch=1 n=61 v=45
22770 Off ch=1 n=54 v=0
22784 Off ch=1 n=61 v=0
22784 On ch=1 n=57 v=44
22869 Off ch=1 n=57 v=0
22869 On ch=1 n=61 v=46
22954 Off ch=1 n=61 v=0
22954 On ch=1 n=66 v=48
23040 Off ch=1 n=66 v=0
23040 On ch=1 n=61 v=43
23125 Off ch=1 n=61 v=0
23125 On ch=1 n=66 v=47
23210 Off ch=1 n=66 v=0
23210 On ch=1 n=69 v=46
23296 Off ch=1 n=69 v=0
23296 On ch=1 n=73 v=47
23296 On ch=1 n=61 v=39
23381 Off ch=1 n=61 v=0
23381 On ch=1 n=66 v=46
23466 Off ch=1 n=66 v=0
23466 On ch=1 n=69 v=43
23487 Off ch=1 n=73 v=0
23488 On ch=1 n=73 v=52
23488 Par ch=1 c=64 v=0
23551 Off ch=1 n=73 v=0
23552 Off ch=1 n=69 v=0
23552 On ch=1 n=73 v=51
23552 On ch=1 n=61 v=41
23552 Par ch=1 c=64 v=127
23552 On ch=1 n=41 v=44
23552 On ch=1 n=49 v=44
23552 On ch=1 n=53 v=44
23562 Off ch=1 n=30 v=0
23562 Off ch=1 n=37 v=0
23562 Off ch=1 n=42 v=0
23631 Off ch=1 n=61 v=0
23637 On ch=1 n=68 v=47
23722 Off ch=1 n=68 v=0
23722 On ch=1 n=71 v=47
23808 Off ch=1 n=71 v=0
23808 On ch=1 n=61 v=39
23893 Off ch=1 n=61 v=0
23893 On ch=1 n=68 v=48
23978 Off ch=1 n=68 v=0
23978 On ch=1 n=71 v=45
24064 Off ch=1 n=71 v=0
24064 On ch=1 n=61 v=38
24149 Off ch=1 n=61 v=0
24149 On ch=1 n=68 v=47
24234 Off ch=1 n=68 v=0
24234 On ch=1 n=71 v=44
24280 Off ch=1 n=73 v=0
24320 Off ch=1 n=71 v=0
24320 On ch=1 n=73 v=54
24320 On ch=1 n=61 v=38
24405 Off ch=1 n=61 v=0
24405 On ch=1 n=68 v=44
24490 Off ch=1 n=68 v=0
24490 On ch=1 n=71 v=44
24511 Off ch=1 n=73 v=0
24512 On ch=1 n=73 v=51
24512 Par ch=1 c=64 v=0
24575 Off ch=1 n=73 v=0
24576 Off ch=1 n=71 v=0
24576 On ch=1 n=73 v=52
24576 On ch=1 n=61 v=37
24576 Par ch=1 c=64 v=127
24576 On ch=1 n=42 v=35
24576 On ch=1 n=54 v=35
24586 Off ch=1 n=41 v=0
24586 Off ch=1 n=49 v=0
24586 Off ch=1 n=53 v=0
24661 Off ch=1 n=61 v=0
24661 On ch=1 n=66 v=52
24746 Off ch=1 n=66 v=0
24746 On ch=1 n=69 v=49
24832 Off ch=1 n=69 v=0
24832 On ch=1 n=61 v=41
24917 Off ch=1 n=61 v=0
24917 On ch=1 n=66 v=49
25002 Off ch=1 n=66 v=0
25002 On ch=1 n=69 v=50
25088 Off ch=1 n=69 v=0
25088 On ch=1 n=72 v=80
25088 On ch=1 n=60 v=43
25088 Par ch=1 c=64 v=0
25088 Par ch=1 c=64 v=127
25088 On ch=1 n=39 v=41
25088 On ch=1 n=51 v=41
25093 Off ch=1 n=42 v=0
25093 Off ch=1 n=54 v=0
25097 Off ch=1 n=73 v=0
25173 Off ch=1 n=60 v=0
25173 On ch=1 n=66 v=49
25258 Off ch=1 n=66 v=0
25258 On ch=1 n=69 v=50
25258 Par ch=1 c=64 v=0
25344 Off ch=1 n=69 v=0
25344 On ch=1 n=73 v=82
25344 On ch=1 n=61 v=41
25344 Par ch=1 c=64 v=127
25344 On ch=1 n=37 v=43
25344 On ch=1 n=49 v=43
25346 Off ch=1 n=39 v=0
25346 Off ch=1 n=51 v=0
25348 Off ch=1 n=72 v=0
25429 Off ch=1 n=61 v=0
25429 On ch=1 n=66 v=51
25514 Off ch=1 n=66 v=0
25514 On ch=1 n=69 v=51
25514 Par ch=1 c=64 v=0
25600 Off ch=1 n=69 v=0
25600 On ch=1 n=75 v=89
25600 On ch=1 n=63 v=46
25600 Par ch=1 c=64 v=127
25600 On ch=1 n=36 v=48
25600 On ch=1 n=44 v=48
25600 On ch=1 n=48 v=48
25602 Off ch=1 n=37 v=0
25602 Off ch=1 n=49 v=0
25604 Off ch=1 n=73 v=0
25679 Off ch=1 n=63 v=0
25685 On ch=1 n=66 v=48
25770 Off ch=1 n=66 v=0
25770 On ch=1 n=68 v=49
25856 Off ch=1 n=68 v=0
25856 On ch=1 n=63 v=43
25941 Off ch=1 n=63 v=0
25941 On ch=1 n=66 v=50
26026 Off ch=1 n=66 v=0
26026 On ch=1 n=68 v=48
26112 Off ch=1 n=68 v=0
26112 On ch=1 n=63 v=45
26197 Off ch=1 n=63 v=0
26197 On ch=1 n=66 v=48
26282 Off ch=1 n=66 v=0
26282 On ch=1 n=68 v=48
26328 Off ch=1 n=75 v=0
26368 Off ch=1 n=68 v=0
26368 On ch=1 n=75 v=97
26368 On ch=1 n=63 v=46
26368 On ch=1 n=36 v=49
26368 On ch=1 n=44 v=49
26368 On ch=1 n=48 v=49
26375 Off ch=1 n=36 v=0
26375 Off ch=1 n=44 v=0
26375 Off ch=1 n=48 v=0
26453 Off ch=1 n=63 v=0
26453 On ch=1 n=66 v=50
26538 Off ch=1 n=66 v=0
26538 On ch=1 n=68 v=47
26538 Par ch=1 c=64 v=0
26624 Off ch=1 n=68 v=0
26624 On ch=1 n=76 v=99
26624 On ch=1 n=64 v=45
26624 Par ch=1 c=64 v=127
26624 On ch=1 n=37 v=47
26624 On ch=1 n=44 v=47
26624 On ch=1 n=49 v=47
26626 Off ch=1 n=36 v=0
26626 Off ch=1 n=44 v=0
26626 Off ch=1 n=48 v=0
26628 Off ch=1 n=75 v=0
26709 Off ch=1 n=64 v=0
26709 On ch=1 n=68 v=51
26794 Off ch=1 n=68 v=0
26794 On ch=1 n=73 v=49
26880 Off ch=1 n=73 v=0
26880 On ch=1 n=64 v=43
26965 Off ch=1 n=64 v=0
26965 On ch=1 n=68 v=48
27050 Off ch=1 n=68 v=0
27050 On ch=1 n=73 v=50
27136 Off ch=1 n=73 v=0
27136 On ch=1 n=75 v=93
27136 On ch=1 n=63 v=39
27136 Par ch=1 c=64 v=0
27136 Par ch=1 c=64 v=127
27136 On ch=1 n=30 v=45
27136 On ch=1 n=42 v=45
27141 Off ch=1 n=37 v=0
27141 Off ch=1 n=44 v=0
27141 Off ch=1 n=49 v=0
27145 Off ch=1 n=76 v=0
27221 Off ch=1 n=63 v=0
27221 On ch=1 n=66 v=43
27306 Off ch=1 n=66 v=0
27306 On ch=1 n=69 v=46
27306 Par ch=1 c=64 v=0
27392 Off ch=1 n=69 v=0
27392 On ch=1 n=73 v=62
27392 On ch=1 n=61 v=41
27392 Par ch=1 c=64 v=127
27392 On ch=1 n=31 v=51
27392 On ch=1 n=43 v=51
27394 Off ch=1 n=30 v=0
27394 Off ch=1 n=42 v=0
27396 Off ch=1 n=75 v=0
27477 Off ch=1 n=61 v=0
27477 On ch=1 n=64 v=46
27562 Off ch=1 n=64 v=0
27562 On ch=1 n=70 v=48
27562 Par ch=1 c=64 v=0
27648 Off ch=1 n=70 v=0
27648 On ch=1 n=72 v=59
27648 Par ch=1 c=64 v=127
27648 On ch=1 n=32 v=50
27648 On ch=1 n=44 v=50
27650 Off ch=1 n=31 v=0
27650 Off ch=1 n=43 v=0
27652 Off ch=1 n=73 v=0
27733 On ch=1 n=60 v=37
27768 Off ch=1 n=72 v=0
27818 Off ch=1 n=60 v=0
27818 On ch=1 n=63 v=49
27904 Off ch=1 n=63 v=0
27904 On ch=1 n=68 v=60
27989 On ch=1 n=60 v=54
28074 Off ch=1 n=60 v=0
28074 On ch=1 n=63 v=66
28074 Par ch=1 c=64 v=0
28160 Off ch=1 n=63 v=0
28160 On ch=1 n=69 v=61
28160 Par ch=1 c=64 v=127
28164 Off ch=1 n=68 v=0
28245 On ch=1 n=60 v=56
28330 Off ch=1 n=60 v=0
28330 On ch=1 n=63 v=57
28330 Par ch=1 c=64 v=0
28330 Par ch=1 c=64 v=127
28416 Off ch=1 n=63 v=0
28416 On ch=1 n=66 v=63
28420 Off ch=1 n=69 v=0
28501 On ch=1 n=60 v=44
28586 Off ch=1 n=60 v=0
28586 On ch=1 n=63 v=51
28586 Par ch=1 c=64 v=0
28658 Off ch=1 n=66 v=0
28672 Off ch=1 n=63 v=0
28672 Par ch=1 c=64 v=127
28672 On ch=1 n=32 v=48
28672 On ch=1 n=44 v=48
28682 Off ch=1 n=32 v=0
28682 Off ch=1 n=44 v=0
28757 On ch=1 n=60 v=43
28842 Off ch=1 n=60 v=0
28842 On ch=1 n=63 v=53
28928 Off ch=1 n=63 v=0
28928 On ch=1 n=56 v=61
29013 On ch=1 n=60 v=64
29098 Off ch=1 n=60 v=0
29098 On ch=1 n=63 v=64
29184 Off ch=1 n=63 v=0
29184 On ch=1 n=57 v=62
29184 Par ch=1 c=64 v=0
29184 Par ch=1 c=64 v=127
29188 Off ch=1 n=56 v=0
29269 On ch=1 n=60 v=62
29354 Off ch=1 n=60 v=0
29354 On ch=1 n=63 v=57
29354 Par ch=1 c=64 v=0
29440 Off ch=1 n=63 v=0
29440 On ch=1 n=54 v=63
29440 Par ch=1 c=64 v=127
29444 Off ch=1 n=57 v=0
29525 On ch=1 n=60 v=52
29610 Off ch=1 n=60 v=0
29610 On ch=1 n=63 v=47
29682 Off ch=1 n=54 v=0
29695 Par ch=1 c=64 v=0
29696 Off ch=1 n=63 v=0
29696 On ch=1 n=52 v=44
29696 Off ch=1 n=32 v=0
29696 Off ch=1 n=44 v=0
29696 Par ch=1 c=64 v=127
29696 On ch=1 n=32 v=50
29696 On ch=1 n=44 v=50
29781 Off ch=1 n=52 v=0
29781 On ch=1 n=64 v=55
29866 Off ch=1 n=64 v=0
29866 On ch=1 n=68 v=56
29952 Off ch=1 n=68 v=0
29952 On ch=1 n=73 v=73
30037 On ch=1 n=64 v=53
30122 Off ch=1 n=64 v=0
30122 On ch=1 n=68 v=65
30208 Off ch=1 n=68 v=0
30208 On ch=1 n=76 v=80
30212 Off ch=1 n=73 v=0
30293 On ch=1 n=64 v=54
30378 Off ch=1 n=64 v=0
30378 On ch=1 n=68 v=63
30464 Off ch=1 n=68 v=0
30464 On ch=1 n=73 v=62
30468 Off ch=1 n=76 v=0
30549 On ch=1 n=64 v=46
30634 Off ch=1 n=64 v=0
30634 On ch=1 n=68 v=51
30634 Par ch=1 c=64 v=0
30706 Off ch=1 n=73 v=0
30720 Off ch=1 n=68 v=0
30720 Off ch=1 n=32 v=0
30720 Off ch=1 n=44 v=0
30720 Par ch=1 c=64 v=127
30720 On ch=1 n=32 v=49
30720 On ch=1 n=44 v=49
30805 On ch=1 n=52 v=45
30890 Off ch=1 n=52 v=0
30890 On ch=1 n=56 v=49
30976 Off ch=1 n=56 v=0
30976 On ch=1 n=61 v=55
31061 On ch=1 n=52 v=45
31146 Off ch=1 n=52 v=0
31146 On ch=1 n=56 v=49
31232 Off ch=1 n=56 v=0
31232 On ch=1 n=64 v=56
31232 Par ch=1 c=64 v=0
31232 Par ch=1 c=64 v=127
31236 Off ch=1 n=61 v=0
31317 On ch=1 n=52 v=62
31402 Off ch=1 n=52 v=0
31402 On ch=1 n=56 v=66
31488 Off ch=1 n=56 v=0
31488 On ch=1 n=61 v=63
31492 Off ch=1 n=64 v=0
31573 On ch=1 n=52 v=60
31658 Off ch=1 n=52 v=0
31658 On ch=1 n=56 v=62
31658 Par ch=1 c=64 v=0
31730 Off ch=1 n=61 v=0
31744 Off ch=1 n=56 v=0
31744 On ch=1 n=51 v=48
31744 Par ch=1 c=64 v=127
31744 On ch=1 n=32 v=50
31744 On ch=1 n=44 v=50
31754 Off ch=1 n=32 v=0
31754 Off ch=1 n=44 v=0
31829 Off ch=1 n=51 v=0
31829 On ch=1 n=57 v=48
31914 Off ch=1 n=57 v=0
31914 On ch=1 n=54 v=48
32000 Off ch=1 n=54 v=0
32000 On ch=1 n=60 v=51
32085 Off ch=1 n=60 v=0
32085 On ch=1 n=57 v=49
32170 Off ch=1 n=57 v=0
32170 On ch=1 n=63 v=50
32256 Off ch=1 n=63 v=0
32256 On ch=1 n=60 v=46
32341 Off ch=1 n=60 v=0
32341 On ch=1 n=66 v=51
32426 Off ch=1 n=66 v=0
32426 On ch=1 n=63 v=47
32512 Off ch=1 n=63 v=0
32512 On ch=1 n=69 v=53
32597 Off ch=1 n=69 v=0
32597 On ch=1 n=66 v=48
32682 Off ch=1 n=66 v=0
32682 On ch=1 n=72 v=49
32682 Par ch=1 c=64 v=0
32768 Off ch=1 n=72 v=0
32768 On ch=1 n=52 v=47
32768 Par ch=1 c=64 v=127
32768 On ch=1 n=32 v=48
32768 On ch=1 n=44 v=48
32778 Off ch=1 n=32 v=0
32778 Off ch=1 n=44 v=0
32853 Off ch=1 n=52 v=0
32853 On ch=1 n=61 v=55
32938 Off ch=1 n=61 v=0
32938 On ch=1 n=56 v=45
33024 Off ch=1 n=56 v=0
33024 On ch=1 n=64 v=56
33109 Off ch=1 n=64 v=0
33109 On ch=1 n=61 v=45
33194 Off ch=1 n=61 v=0
33194 On ch=1 n=68 v=56
33280 Off ch=1 n=68 v=0
33280 On ch=1 n=64 v=46
33365 Off ch=1 n=64 v=0
33365 On ch=1 n=73 v=53
33450 Off ch=1 n=73 v=0
33450 On ch=1 n=68 v=46
33536 Off ch=1 n=68 v=0
33536 On ch=1 n=76 v=53
33621 Off ch=1 n=76 v=0
33621 On ch=1 n=73 v=46
33706 Off ch=1 n=73 v=0
33706 On ch=1 n=68 v=44
33706 Par ch=1 c=64 v=0
33792 Off ch=1 n=68 v=0
33792 On ch=1 n=61 v=44
33792 Par ch=1 c=64 v=127
33792 On ch=1 n=32 v=46
33792 On ch=1 n=44 v=46
33802 Off ch=1 n=32 v=0
33802 Off ch=1 n=44 v=0
33877 Off ch=1 n=61 v=0
33877 On ch=1 n=67 v=52
33962 Off ch=1 n=67 v=0
33962 On ch=1 n=64 v=49
34048 Off ch=1 n=64 v=0
34048 On ch=1 n=70 v=53
34133 Off ch=1 n=70 v=0
34133 On ch=1 n=67 v=46
34218 Off ch=1 n=67 v=0
34218 On ch=1 n=73 v=52
34304 Off ch=1 n=73 v=0
34304 On ch=1 n=70 v=47
34389 Off ch=1 n=70 v=0
34389 On ch=1 n=76 v=54
34474 Off ch=1 n=76 v=0
34474 On ch=1 n=73 v=47
34560 Off ch=1 n=73 v=0
34560 On ch=1 n=79 v=52
34645 Off ch=1 n=79 v=0
34645 On ch=1 n=76 v=47
34730 Off ch=1 n=76 v=0
34730 On ch=1 n=82 v=52
34730 Par ch=1 c=64 v=0
34816 Off ch=1 n=82 v=0
34816 On ch=1 n=66 v=42
34816 Par ch=1 c=64 v=127
34816 On ch=1 n=32 v=47
34816 On ch=1 n=44 v=47
34826 Off ch=1 n=32 v=0
34826 Off ch=1 n=44 v=0
34901 Off ch=1 n=66 v=0
34901 On ch=1 n=72 v=52
34986 Off ch=1 n=72 v=0
34986 On ch=1 n=69 v=48
35072 Off ch=1 n=69 v=0
35072 On ch=1 n=75 v=51
35157 Off ch=1 n=75 v=0
35157 On ch=1 n=72 v=48
35242 Off ch=1 n=72 v=0
35242 On ch=1 n=78 v=53
35328 Off ch=1 n=78 v=0
35328 On ch=1 n=75 v=44
35413 Off ch=1 n=75 v=0
35413 On ch=1 n=81 v=54
35498 Off ch=1 n=81 v=0
35498 On ch=1 n=78 v=47
35584 Off ch=1 n=78 v=0
35584 On ch=1 n=84 v=53
35669 Off ch=1 n=84 v=0
35669 On ch=1 n=81 v=45
35754 Off ch=1 n=81 v=0
35754 On ch=1 n=87 v=50
35754 Par ch=1 c=64 v=0
35840 Off ch=1 n=87 v=0
35840 On ch=1 n=84 v=46
35840 Par ch=1 c=64 v=127
35925 Off ch=1 n=84 v=0
35925 On ch=1 n=78 v=45
36010 Off ch=1 n=78 v=0
36010 On ch=1 n=81 v=48
36096 Off ch=1 n=81 v=0
36096 On ch=1 n=75 v=44
36181 Off ch=1 n=75 v=0
36181 On ch=1 n=78 v=50
36266 Off ch=1 n=78 v=0
36266 On ch=1 n=72 v=45
36352 Off ch=1 n=72 v=0
36352 On ch=1 n=75 v=51
36437 Off ch=1 n=75 v=0
36437 On ch=1 n=69 v=43
36522 Off ch=1 n=69 v=0
36522 On ch=1 n=72 v=48
36608 Off ch=1 n=72 v=0
36608 On ch=1 n=66 v=44
36693 Off ch=1 n=66 v=0
36693 On ch=1 n=69 v=50
36778 Off ch=1 n=69 v=0
36778 On ch=1 n=63 v=43
36778 Par ch=1 c=64 v=0
36864 Off ch=1 n=63 v=0
36864 On ch=1 n=66 v=51
36864 Par ch=1 c=64 v=127
36949 Off ch=1 n=66 v=0
36949 On ch=1 n=60 v=41
37034 Off ch=1 n=60 v=0
37034 On ch=1 n=63 v=49
37120 Off ch=1 n=63 v=0
37120 On ch=1 n=57 v=45
37205 Off ch=1 n=57 v=0
37205 On ch=1 n=60 v=50
37290 Off ch=1 n=60 v=0
37290 On ch=1 n=54 v=45
37290 Par ch=1 c=64 v=0
37376 Off ch=1 n=54 v=0
37376 On ch=1 n=57 v=48
37376 Par ch=1 c=64 v=127
37461 Off ch=1 n=57 v=0
37461 On ch=1 n=51 v=48
37546 On ch=1 n=54 v=49
37546 Par ch=1 c=64 v=0
37632 Off ch=1 n=54 v=0
37632 On ch=1 n=49 v=48
37632 Par ch=1 c=64 v=127
37634 Off ch=1 n=51 v=0
37717 On ch=1 n=54 v=49
37802 Off ch=1 n=54 v=0
37802 On ch=1 n=57 v=47
37802 Par ch=1 c=64 v=0
37888 Off ch=1 n=57 v=0
37888 On ch=1 n=48 v=45
37888 Par ch=1 c=64 v=127
37888 On ch=1 n=32 v=48
37888 On ch=1 n=44 v=48
37892 Off ch=1 n=49 v=0
37898 Off ch=1 n=32 v=0
37898 Off ch=1 n=44 v=0
37973 On ch=1 n=54 v=47
38058 Off ch=1 n=54 v=0
38058 On ch=1 n=56 v=45
38144 Off ch=1 n=56 v=0
38144 On ch=1 n=57 v=43
38229 Off ch=1 n=57 v=0
38229 On ch=1 n=56 v=45
38314 Off ch=1 n=56 v=0
38314 On ch=1 n=54 v=45
38314 Par ch=1 c=64 v=0
38373 Off ch=1 n=48 v=0
38400 Off ch=1 n=54 v=0
38400 On ch=1 n=51 v=47
38400 Par ch=1 c=64 v=127
38485 On ch=1 n=54 v=47
38570 Off ch=1 n=54 v=0
38570 On ch=1 n=57 v=48
38570 Par ch=1 c=64 v=0
38656 Off ch=1 n=57 v=0
38656 On ch=1 n=49 v=44
38656 Par ch=1 c=64 v=127
38660 Off ch=1 n=51 v=0
38741 On ch=1 n=54 v=50
38826 Off ch=1 n=54 v=0
38826 On ch=1 n=57 v=51
38826 Par ch=1 c=64 v=0
38912 Off ch=1 n=57 v=0
38912 On ch=1 n=48 v=48
38912 Par ch=1 c=64 v=127
38912 On ch=1 n=32 v=50
38912 On ch=1 n=44 v=50
38916 Off ch=1 n=49 v=0
38922 Off ch=1 n=32 v=0
38922 Off ch=1 n=44 v=0
38997 On ch=1 n=54 v=50
39082 Off ch=1 n=54 v=0
39082 On ch=1 n=56 v=48
39168 Off ch=1 n=56 v=0
39168 On ch=1 n=57 v=47
39253 Off ch=1 n=57 v=0
39253 On ch=1 n=56 v=49
39338 Off ch=1 n=56 v=0
39338 On ch=1 n=54 v=46
39338 Par ch=1 c=64 v=0
39397 Off ch=1 n=48 v=0
39424 Off ch=1 n=54 v=0
39424 On ch=1 n=50 v=48
39424 Par ch=1 c=64 v=127
39509 On ch=1 n=54 v=49
39594 Off ch=1 n=54 v=0
39594 On ch=1 n=57 v=50
39594 Par ch=1 c=64 v=0
39594 Par ch=1 c=64 v=127
39680 Off ch=1 n=57 v=0
39680 On ch=1 n=49 v=48
39684 Off ch=1 n=50 v=0
39764 Par ch=1 c=64 v=0
39765 On ch=1 n=54 v=51
39850 Off ch=1 n=54 v=0
39850 On ch=1 n=57 v=50
39936 Off ch=1 n=57 v=0
39936 On ch=1 n=48 v=48
39936 Par ch=1 c=64 v=127
39936 On ch=1 n=32 v=53
39936 On ch=1 n=44 v=53
39940 Off ch=1 n=49 v=0
39946 Off ch=1 n=32 v=0
39946 Off ch=1 n=44 v=0
40021 On ch=1 n=54 v=50
40106 Off ch=1 n=54 v=0
40106 On ch=1 n=56 v=51
40192 Off ch=1 n=56 v=0
40192 On ch=1 n=57 v=48
40277 Off ch=1 n=57 v=0
40277 On ch=1 n=56 v=46
40362 Off ch=1 n=56 v=0
40362 On ch=1 n=54 v=48
40362 Par ch=1 c=64 v=0
40448 Off ch=1 n=54 v=0
40448 On ch=1 n=49 v=49
40448 Par ch=1 c=64 v=127
40448 On ch=1 n=33 v=49
40448 On ch=1 n=45 v=49
40453 Off ch=1 n=32 v=0
40453 Off ch=1 n=44 v=0
40457 Off ch=1 n=48 v=0
40533 Off ch=1 n=49 v=0
40533 On ch=1 n=52 v=47
40618 Off ch=1 n=52 v=0
40618 On ch=1 n=61 v=53
40704 Off ch=1 n=61 v=0
40704 On ch=1 n=49 v=47
40789 Off ch=1 n=49 v=0
40789 On ch=1 n=52 v=49
40874 Off ch=1 n=52 v=0
40874 On ch=1 n=61 v=54
40874 Par ch=1 c=64 v=0
40960 Off ch=1 n=61 v=0
40960 On ch=1 n=51 v=46
40960 Par ch=1 c=64 v=127
40960 On ch=1 n=30 v=46
40960 On ch=1 n=42 v=46
40965 Off ch=1 n=33 v=0
40965 Off ch=1 n=45 v=0
41045 Off ch=1 n=51 v=0
41045 On ch=1 n=57 v=50
41130 Off ch=1 n=57 v=0
41130 On ch=1 n=61 v=51
41216 Off ch=1 n=61 v=0
41216 On ch=1 n=51 v=45
41301 Off ch=1 n=51 v=0
41301 On ch=1 n=57 v=50
41386 Off ch=1 n=57 v=0
41386 On ch=1 n=61 v=51
41386 Par ch=1 c=64 v=0
41472 Off ch=1 n=61 v=0
41472 On ch=1 n=51 v=47
41472 Par ch=1 c=64 v=127
41472 On ch=1 n=32 v=46
41472 On ch=1 n=44 v=46
41477 Off ch=1 n=30 v=0
41477 Off ch=1 n=42 v=0
41557 Off ch=1 n=51 v=0
41557 On ch=1 n=56 v=49
41642 Off ch=1 n=56 v=0
41642 On ch=1 n=60 v=50
41728 Off ch=1 n=60 v=0
41728 On ch=1 n=51 v=46
41813 Off ch=1 n=51 v=0
41813 On ch=1 n=54 v=48
41898 Off ch=1 n=54 v=0
41898 On ch=1 n=60 v=52
41898 Par ch=1 c=64 v=0
41984 Off ch=1 n=60 v=0
41984 On ch=1 n=52 v=42
41984 Par ch=1 c=64 v=127
41984 On ch=1 n=37 v=36
41984 On ch=1 n=44 v=36
41984 On ch=1 n=49 v=36
41989 Off ch=1 n=32 v=0
41989 Off ch=1 n=44 v=0
42069 Off ch=1 n=52 v=0
42069 On ch=1 n=56 v=45
42154 Off ch=1 n=56 v=0
42154 On ch=1 n=61 v=45
42240 Off ch=1 n=61 v=0
42240 On ch=1 n=56 v=42
42325 Off ch=1 n=56 v=0
42325 On ch=1 n=61 v=48
42410 Off ch=1 n=61 v=0
42410 On ch=1 n=64 v=46
42496 Off ch=1 n=64 v=0
42496 On ch=1 n=56 v=41
42581 Off ch=1 n=56 v=0
42581 On ch=1 n=61 v=49
42666 Off ch=1 n=61 v=0
42666 On ch=1 n=64 v=44
42746 Off ch=1 n=64 v=0
42752 On ch=1 n=68 v=59
42752 On ch=1 n=56 v=39
42837 Off ch=1 n=56 v=0
42837 On ch=1 n=61 v=46
42922 Off ch=1 n=61 v=0
42922 On ch=1 n=64 v=42
42922 Par ch=1 c=64 v=0
42943 Off ch=1 n=68 v=0
42944 On ch=1 n=68 v=54
43007 Off ch=1 n=68 v=0
43008 Off ch=1 n=64 v=0
43008 On ch=1 n=68 v=51
43008 On ch=1 n=56 v=40
43008 Par ch=1 c=64 v=127
43008 On ch=1 n=36 v=34
43008 On ch=1 n=44 v=34
43008 On ch=1 n=48 v=34
43018 Off ch=1 n=37 v=0
43018 Off ch=1 n=44 v=0
43018 Off ch=1 n=49 v=0
43087 Off ch=1 n=56 v=0
43093 On ch=1 n=63 v=45
43178 Off ch=1 n=63 v=0
43178 On ch=1 n=66 v=46
43264 Off ch=1 n=66 v=0
43264 On ch=1 n=56 v=39
43349 Off ch=1 n=56 v=0
43349 On ch=1 n=63 v=49
43434 Off ch=1 n=63 v=0
43434 On ch=1 n=66 v=47
43520 Off ch=1 n=66 v=0
43520 On ch=1 n=56 v=40
43605 Off ch=1 n=56 v=0
43605 On ch=1 n=63 v=49
43690 Off ch=1 n=63 v=0
43690 On ch=1 n=66 v=46
43736 Off ch=1 n=68 v=0
43776 Off ch=1 n=66 v=0
43776 On ch=1 n=68 v=52
43776 On ch=1 n=56 v=41
43861 Off ch=1 n=56 v=0
43861 On ch=1 n=63 v=47
43946 Off ch=1 n=63 v=0
43946 On ch=1 n=66 v=47
43946 Par ch=1 c=64 v=0
43967 Off ch=1 n=68 v=0
43968 On ch=1 n=68 v=54
44031 Off ch=1 n=68 v=0
44032 Off ch=1 n=66 v=0
44032 On ch=1 n=68 v=51
44032 On ch=1 n=56 v=39
44032 Par ch=1 c=64 v=127
44032 On ch=1 n=37 v=34
44032 On ch=1 n=49 v=34
44042 Off ch=1 n=36 v=0
44042 Off ch=1 n=44 v=0
44042 Off ch=1 n=48 v=0
44117 Off ch=1 n=56 v=0
44117 On ch=1 n=61 v=44
44202 Off ch=1 n=61 v=0
44202 On ch=1 n=64 v=46
44288 Off ch=1 n=64 v=0
44288 On ch=1 n=56 v=43
44373 Off ch=1 n=56 v=0
44373 On ch=1 n=61 v=46
44458 Off ch=1 n=61 v=0
44458 On ch=1 n=64 v=46
44458 Par ch=1 c=64 v=0
44544 Off ch=1 n=64 v=0
44544 On ch=1 n=69 v=51
44544 On ch=1 n=57 v=42
44544 On ch=1 n=30 v=34
44544 On ch=1 n=42 v=34
44549 Off ch=1 n=37 v=0
44549 Off ch=1 n=49 v=0
44553 Off ch=1 n=68 v=0
44629 Off ch=1 n=57 v=0
44629 On ch=1 n=61 v=45
44629 Par ch=1 c=64 v=127
44714 Off ch=1 n=61 v=0
44714 On ch=1 n=66 v=45
44800 Off ch=1 n=66 v=0
44800 On ch=1 n=57 v=41
44885 Off ch=1 n=57 v=0
44885 On ch=1 n=61 v=45
44970 Off ch=1 n=61 v=0
44970 On ch=1 n=66 v=44
45055 Par ch=1 c=64 v=0
45056 Off ch=1 n=66 v=0
45056 On ch=1 n=68 v=51
45056 On ch=1 n=56 v=40
45056 Par ch=1 c=64 v=127
45056 On ch=1 n=35 v=37
45056 On ch=1 n=47 v=37
45061 Off ch=1 n=30 v=0
45061 Off ch=1 n=42 v=0
45065 Off ch=1 n=69 v=0
45141 Off ch=1 n=56 v=0
45141 On ch=1 n=59 v=45
45226 Off ch=1 n=59 v=0
45226 On ch=1 n=64 v=45
45312 Off ch=1 n=64 v=0
45312 On ch=1 n=56 v=41
45397 Off ch=1 n=56 v=0
45397 On ch=1 n=59 v=45
45482 Off ch=1 n=59 v=0
45482 On ch=1 n=64 v=45
45482 Par ch=1 c=64 v=0
45568 Off ch=1 n=64 v=0
45568 On ch=1 n=66 v=48
45568 On ch=1 n=57 v=41
45568 Par ch=1 c=64 v=127
45568 On ch=1 n=35 v=38
45568 On ch=1 n=47 v=38
45573 Off ch=1 n=35 v=0
45573 Off ch=1 n=47 v=0
45577 Off ch=1 n=68 v=0
45653 Off ch=1 n=57 v=0
45653 On ch=1 n=59 v=44
45738 Off ch=1 n=59 v=0
45738 On ch=1 n=63 v=46
45824 Off ch=1 n=63 v=0
45824 On ch=1 n=71 v=56
45824 On ch=1 n=57 v=41
45828 Off ch=1 n=66 v=0
45909 Off ch=1 n=57 v=0
45909 On ch=1 n=59 v=45
45994 Off ch=1 n=59 v=0
45994 On ch=1 n=63 v=44
45994 Par ch=1 c=64 v=0
46080 Off ch=1 n=63 v=0
46080 On ch=1 n=64 v=51
46080 On ch=1 n=56 v=42
46080 Par ch=1 c=64 v=127
46080 On ch=1 n=40 v=37
46080 On ch=1 n=52 v=37
46084 Off ch=1 n=71 v=0
46085 Off ch=1 n=35 v=0
46085 Off ch=1 n=47 v=0
46159 Off ch=1 n=56 v=0
46165 On ch=1 n=59 v=45
46250 Off ch=1 n=59 v=0
46250 On ch=1 n=64 v=46
46322 Off ch=1 n=64 v=0
46336 Off ch=1 n=64 v=0
46336 On ch=1 n=59 v=41
46421 Off ch=1 n=59 v=0
46421 On ch=1 n=64 v=47
46506 Off ch=1 n=64 v=0
46506 On ch=1 n=68 v=48
46592 Off ch=1 n=68 v=0
46592 On ch=1 n=59 v=43
46677 Off ch=1 n=59 v=0
46677 On ch=1 n=64 v=45
46762 Off ch=1 n=64 v=0
46762 On ch=1 n=68 v=45
46848 Off ch=1 n=68 v=0
46848 On ch=1 n=71 v=46
46848 On ch=1 n=59 v=41
46933 Off ch=1 n=59 v=0
46933 On ch=1 n=64 v=47
46955 Par ch=1 c=64 v=0
47018 Off ch=1 n=64 v=0
47018 On ch=1 n=68 v=47
47039 Off ch=1 n=71 v=0
47040 On ch=1 n=71 v=53
47103 Off ch=1 n=71 v=0
47104 Off ch=1 n=68 v=0
47104 On ch=1 n=71 v=54
47104 On ch=1 n=59 v=41
47104 Par ch=1 c=64 v=127
47104 On ch=1 n=39 v=37
47104 On ch=1 n=51 v=37
47114 Off ch=1 n=40 v=0
47114 Off ch=1 n=52 v=0
47183 Off ch=1 n=59 v=0
47189 On ch=1 n=66 v=47
47274 Off ch=1 n=66 v=0
47274 On ch=1 n=69 v=46
47360 Off ch=1 n=69 v=0
47360 On ch=1 n=59 v=43
47445 Off ch=1 n=59 v=0
47445 On ch=1 n=66 v=46
47530 Off ch=1 n=66 v=0
47530 On ch=1 n=69 v=45
47616 Off ch=1 n=69 v=0
47616 On ch=1 n=59 v=42
47701 Off ch=1 n=59 v=0
47701 On ch=1 n=66 v=45
47786 Off ch=1 n=66 v=0
47786 On ch=1 n=69 v=45
47832 Off ch=1 n=71 v=0
47872 Off ch=1 n=69 v=0
47872 On ch=1 n=71 v=54
47872 On ch=1 n=59 v=40
47957 Off ch=1 n=59 v=0
47957 On ch=1 n=66 v=46
47979 Par ch=1 c=64 v=0
48042 Off ch=1 n=66 v=0
48042 On ch=1 n=69 v=43
48063 Off ch=1 n=71 v=0
48064 On ch=1 n=71 v=53
48127 Off ch=1 n=71 v=0
48128 Off ch=1 n=69 v=0
48128 On ch=1 n=71 v=51
48128 On ch=1 n=59 v=40
48128 Par ch=1 c=64 v=127
48128 On ch=1 n=40 v=36
48128 On ch=1 n=52 v=36
48138 Off ch=1 n=39 v=0
48138 Off ch=1 n=51 v=0
48213 Off ch=1 n=59 v=0
48213 On ch=1 n=64 v=44
48298 Off ch=1 n=64 v=0
48298 On ch=1 n=68 v=44
48384 Off ch=1 n=68 v=0
48384 On ch=1 n=59 v=42
48469 Off ch=1 n=59 v=0
48469 On ch=1 n=64 v=44
48554 Off ch=1 n=64 v=0
48554 On ch=1 n=68 v=46
48554 Par ch=1 c=64 v=0
48640 Off ch=1 n=68 v=0
48640 On ch=1 n=72 v=60
48640 On ch=1 n=60 v=38
48640 Par ch=1 c=64 v=127
48640 On ch=1 n=39 v=38
48640 On ch=1 n=51 v=38
48645 Off ch=1 n=40 v=0
48645 Off ch=1 n=52 v=0
48649 Off ch=1 n=71 v=0
48725 Off ch=1 n=60 v=0
48725 On ch=1 n=66 v=49
48810 Off ch=1 n=66 v=0
48810 On ch=1 n=68 v=49
48810 Par ch=1 c=64 v=0
48896 Off ch=1 n=68 v=0
48896 On ch=1 n=73 v=61
48896 On ch=1 n=61 v=43
48896 Par ch=1 c=64 v=127
48896 On ch=1 n=37 v=35
48896 On ch=1 n=49 v=35
48898 Off ch=1 n=39 v=0
48898 Off ch=1 n=51 v=0
48900 Off ch=1 n=72 v=0
48981 Off ch=1 n=61 v=0
48981 On ch=1 n=64 v=47
49066 Off ch=1 n=64 v=0
49066 On ch=1 n=68 v=50
49066 Par ch=1 c=64 v=0
49152 Off ch=1 n=68 v=0
49152 On ch=1 n=75 v=60
49152 On ch=1 n=63 v=44
49152 Par ch=1 c=64 v=127
49152 On ch=1 n=36 v=37
49152 On ch=1 n=44 v=37
49152 On ch=1 n=48 v=37
49154 Off ch=1 n=37 v=0
49154 Off ch=1 n=49 v=0
49156 Off ch=1 n=73 v=0
49237 Off ch=1 n=63 v=0
49237 On ch=1 n=66 v=47
49322 Off ch=1 n=66 v=0
49322 On ch=1 n=68 v=48
49408 Off ch=1 n=68 v=0
49408 On ch=1 n=63 v=45
49493 Off ch=1 n=63 v=0
49493 On ch=1 n=66 v=48
49578 Off ch=1 n=66 v=0
49578 On ch=1 n=68 v=50
49578 Par ch=1 c=64 v=0
49664 Off ch=1 n=68 v=0
49664 On ch=1 n=76 v=61
49664 On ch=1 n=64 v=44
49664 On ch=1 n=37 v=32
49664 On ch=1 n=44 v=32
49664 On ch=1 n=49 v=32
49669 Off ch=1 n=36 v=0
49669 Off ch=1 n=44 v=0
49669 Off ch=1 n=48 v=0
49673 Off ch=1 n=75 v=0
49749 Off ch=1 n=64 v=0
49749 On ch=1 n=68 v=48
49749 Par ch=1 c=64 v=127
49834 Off ch=1 n=68 v=0
49834 On ch=1 n=73 v=51
49920 Off ch=1 n=73 v=0
49920 On ch=1 n=64 v=46
50005 Off ch=1 n=64 v=0
50005 On ch=1 n=68 v=49
50090 Off ch=1 n=68 v=0
50090 On ch=1 n=73 v=51
50090 Par ch=1 c=64 v=0
50176 Off ch=1 n=73 v=0
50176 On ch=1 n=74 v=55
50176 On ch=1 n=62 v=42
50176 On ch=1 n=30 v=31
50176 On ch=1 n=42 v=31
50181 Off ch=1 n=37 v=0
50181 Off ch=1 n=44 v=0
50181 Off ch=1 n=49 v=0
50185 Off ch=1 n=76 v=0
50261 Off ch=1 n=62 v=0
50261 On ch=1 n=66 v=52
50261 Par ch=1 c=64 v=127
50346 Off ch=1 n=66 v=0
50346 On ch=1 n=69 v=49
50432 Off ch=1 n=69 v=0
50432 On ch=1 n=62 v=44
50517 Off ch=1 n=62 v=0
50517 On ch=1 n=66 v=50
50602 Off ch=1 n=66 v=0
50602 On ch=1 n=69 v=50
50602 Par ch=1 c=64 v=0
50688 Off ch=1 n=69 v=0
50688 On ch=1 n=72 v=54
50688 On ch=1 n=60 v=42
50688 Par ch=1 c=64 v=127
50688 On ch=1 n=32 v=36
50688 On ch=1 n=44 v=36
50693 Off ch=1 n=30 v=0
50693 Off ch=1 n=42 v=0
50697 Off ch=1 n=74 v=0
50773 Off ch=1 n=60 v=0
50773 On ch=1 n=66 v=51
50858 Off ch=1 n=66 v=0
50858 On ch=1 n=68 v=49
50944 Off ch=1 n=68 v=0
50944 On ch=1 n=60 v=43
51029 Off ch=1 n=60 v=0
51029 On ch=1 n=66 v=49
51114 Off ch=1 n=66 v=0
51114 On ch=1 n=68 v=50
51114 Par ch=1 c=64 v=0
51200 Off ch=1 n=68 v=0
51200 On ch=1 n=73 v=60
51200 On ch=1 n=61 v=45
51200 Par ch=1 c=64 v=127
51200 On ch=1 n=37 v=36
51200 On ch=1 n=49 v=36
51205 Off ch=1 n=32 v=0
51205 Off ch=1 n=44 v=0
51209 Off ch=1 n=72 v=0
51279 Off ch=1 n=61 v=0
51285 On ch=1 n=64 v=50
51370 Off ch=1 n=64 v=0
51370 On ch=1 n=68 v=52
51456 Off ch=1 n=68 v=0
51456 On ch=1 n=61 v=44
51541 Off ch=1 n=61 v=0
51541 On ch=1 n=64 v=48
51626 Off ch=1 n=64 v=0
51626 On ch=1 n=68 v=50
51626 Par ch=1 c=64 v=0
51712 Off ch=1 n=68 v=0
51712 On ch=1 n=61 v=45
51712 Par ch=1 c=64 v=127
51797 Off ch=1 n=61 v=0
51797 On ch=1 n=65 v=49
51882 Off ch=1 n=65 v=0
51882 On ch=1 n=68 v=48
51928 Off ch=1 n=73 v=0
51968 Off ch=1 n=68 v=0
51968 On ch=1 n=73 v=58
51968 On ch=1 n=61 v=41
52053 Off ch=1 n=61 v=0
52053 On ch=1 n=65 v=50
52138 Off ch=1 n=65 v=0
52138 On ch=1 n=68 v=50
52138 Par ch=1 c=64 v=0
52224 Off ch=1 n=68 v=0
52224 On ch=1 n=74 v=60
52224 On ch=1 n=61 v=42
52224 Par ch=1 c=64 v=127
52228 Off ch=1 n=73 v=0
52309 Off ch=1 n=61 v=0
52309 On ch=1 n=66 v=49
52394 Off ch=1 n=66 v=0
52394 On ch=1 n=69 v=50
52394 Par ch=1 c=64 v=0
52480 Off ch=1 n=69 v=0
52480 On ch=1 n=61 v=42
52480 Par ch=1 c=64 v=127
52480 On ch=1 n=42 v=38
52480 On ch=1 n=54 v=38
52482 Off ch=1 n=37 v=0
52482 Off ch=1 n=49 v=0
52565 Off ch=1 n=61 v=0
52565 On ch=1 n=66 v=51
52650 Off ch=1 n=66 v=0
52650 On ch=1 n=69 v=46
52650 Par ch=1 c=64 v=0
52736 Off ch=1 n=69 v=0
52736 On ch=1 n=61 v=44
52736 Par ch=1 c=64 v=127
52736 On ch=1 n=45 v=37
52736 On ch=1 n=57 v=37
52740 Off ch=1 n=42 v=0
52740 Off ch=1 n=54 v=0
52821 Off ch=1 n=61 v=0
52821 On ch=1 n=66 v=50
52906 Off ch=1 n=66 v=0
52906 On ch=1 n=69 v=51
52906 Par ch=1 c=64 v=0
52992 Off ch=1 n=69 v=0
52992 On ch=1 n=72 v=57
52992 On ch=1 n=61 v=41
52992 Par ch=1 c=64 v=127
52992 On ch=1 n=42 v=34
52992 On ch=1 n=54 v=34
52996 Off ch=1 n=45 v=0
52996 Off ch=1 n=57 v=0
53006 Off ch=1 n=74 v=0
53077 Off ch=1 n=61 v=0
53077 On ch=1 n=66 v=50
53162 Off ch=1 n=66 v=0
53162 On ch=1 n=69 v=47
53162 Par ch=1 c=64 v=0
53234 Off ch=1 n=42 v=0
53234 Off ch=1 n=54 v=0
53248 Off ch=1 n=69 v=0
53248 On ch=1 n=73 v=60
53248 On ch=1 n=61 v=43
53248 Par ch=1 c=64 v=127
53248 On ch=1 n=37 v=47
53248 On ch=1 n=49 v=47
53252 Off ch=1 n=72 v=0
53327 Off ch=1 n=61 v=0
53333 On ch=1 n=65 v=46
53418 Off ch=1 n=65 v=0
53418 On ch=1 n=68 v=46
53504 Off ch=1 n=68 v=0
53504 On ch=1 n=61 v=38
53589 Off ch=1 n=61 v=0
53589 On ch=1 n=65 v=44
53674 Off ch=1 n=65 v=0
53674 On ch=1 n=68 v=44
53760 Off ch=1 n=68 v=0
53760 On ch=1 n=61 v=38
53845 Off ch=1 n=61 v=0
53845 On ch=1 n=65 v=44
53930 Off ch=1 n=65 v=0
53930 On ch=1 n=68 v=43
53976 Off ch=1 n=73 v=0
54016 Off ch=1 n=68 v=0
54016 On ch=1 n=73 v=68
54016 On ch=1 n=61 v=39
54101 Off ch=1 n=61 v=0
54101 On ch=1 n=65 v=43
54186 Off ch=1 n=65 v=0
54186 On ch=1 n=68 v=42
54271 Par ch=1 c=64 v=0
54272 Off ch=1 n=68 v=0
54272 On ch=1 n=74 v=70
54272 On ch=1 n=61 v=43
54272 Par ch=1 c=64 v=127
54276 Off ch=1 n=73 v=0
54357 Off ch=1 n=61 v=0
54357 On ch=1 n=66 v=50
54442 Off ch=1 n=66 v=0
54442 On ch=1 n=69 v=51
54442 Par ch=1 c=64 v=0
54528 Off ch=1 n=69 v=0
54528 On ch=1 n=61 v=43
54528 Par ch=1 c=64 v=127
54528 On ch=1 n=42 v=48
54528 On ch=1 n=54 v=48
54530 Off ch=1 n=37 v=0
54530 Off ch=1 n=49 v=0
54613 Off ch=1 n=61 v=0
54613 On ch=1 n=66 v=50
54698 Off ch=1 n=66 v=0
54698 On ch=1 n=69 v=48
54698 Par ch=1 c=64 v=0
54784 Off ch=1 n=69 v=0
54784 On ch=1 n=61 v=42
54784 Par ch=1 c=64 v=127
54784 On ch=1 n=45 v=51
54784 On ch=1 n=57 v=51
54788 Off ch=1 n=42 v=0
54788 Off ch=1 n=54 v=0
54869 Off ch=1 n=61 v=0
54869 On ch=1 n=66 v=47
54954 Off ch=1 n=66 v=0
54954 On ch=1 n=69 v=51
54954 Par ch=1 c=64 v=0
55040 Off ch=1 n=69 v=0
55040 On ch=1 n=72 v=61
55040 On ch=1 n=61 v=42
55040 Par ch=1 c=64 v=127
55040 On ch=1 n=42 v=48
55040 On ch=1 n=54 v=48
55044 Off ch=1 n=45 v=0
55044 Off ch=1 n=57 v=0
55054 Off ch=1 n=74 v=0
55125 Off ch=1 n=61 v=0
55125 On ch=1 n=66 v=51
55210 Off ch=1 n=66 v=0
55210 On ch=1 n=69 v=49
55210 Par ch=1 c=64 v=0
55282 Off ch=1 n=42 v=0
55282 Off ch=1 n=54 v=0
55296 Off ch=1 n=69 v=0
55296 On ch=1 n=73 v=65
55296 On ch=1 n=61 v=42
55296 Par ch=1 c=64 v=127
55296 On ch=1 n=37 v=47
55296 On ch=1 n=49 v=47
55300 Off ch=1 n=72 v=0
55375 Off ch=1 n=61 v=0
55381 On ch=1 n=65 v=48
55466 Off ch=1 n=65 v=0
55466 On ch=1 n=68 v=48
55552 Off ch=1 n=68 v=0
55552 On ch=1 n=61 v=41
55637 Off ch=1 n=61 v=0
55637 On ch=1 n=65 v=49
55722 Off ch=1 n=65 v=0
55722 On ch=1 n=68 v=50
55722 Par ch=1 c=64 v=0
55781 Off ch=1 n=73 v=0
55808 Off ch=1 n=68 v=0
55808 On ch=1 n=73 v=63
55808 On ch=1 n=61 v=42
55808 On ch=1 n=30 v=44
55808 On ch=1 n=42 v=44
55813 Off ch=1 n=37 v=0
55813 Off ch=1 n=49 v=0
55893 Off ch=1 n=61 v=0
55893 On ch=1 n=66 v=47
55893 Par ch=1 c=64 v=127
55978 Off ch=1 n=66 v=0
55978 On ch=1 n=69 v=48
56064 Off ch=1 n=69 v=0
56064 On ch=1 n=61 v=44
56149 Off ch=1 n=61 v=0
56149 On ch=1 n=66 v=48
56234 Off ch=1 n=66 v=0
56234 On ch=1 n=69 v=50
56234 Par ch=1 c=64 v=0
56320 Off ch=1 n=69 v=0
56320 On ch=1 n=71 v=62
56320 On ch=1 n=59 v=44
56320 Par ch=1 c=64 v=127
56320 On ch=1 n=39 v=51
56320 On ch=1 n=51 v=51
56325 Off ch=1 n=30 v=0
56325 Off ch=1 n=42 v=0
56329 Off ch=1 n=73 v=0
56399 Off ch=1 n=59 v=0
56405 On ch=1 n=66 v=51
56490 Off ch=1 n=66 v=0
56490 On ch=1 n=69 v=47
56576 Off ch=1 n=69 v=0
56576 On ch=1 n=59 v=44
56661 Off ch=1 n=59 v=0
56661 On ch=1 n=66 v=50
56746 Off ch=1 n=66 v=0
56746 On ch=1 n=69 v=49
56832 Off ch=1 n=69 v=0
56832 On ch=1 n=59 v=44
56917 Off ch=1 n=59 v=0
56917 On ch=1 n=66 v=51
57002 Off ch=1 n=66 v=0
57002 On ch=1 n=69 v=49
57002 Par ch=1 c=64 v=0
57048 Off ch=1 n=71 v=0
57088 Off ch=1 n=69 v=0
57088 On ch=1 n=71 v=62
57088 On ch=1 n=59 v=47
57088 Par ch=1 c=64 v=127
57088 On ch=1 n=40 v=52
57088 On ch=1 n=52 v=52
57095 Off ch=1 n=39 v=0
57095 Off ch=1 n=51 v=0
57173 Off ch=1 n=59 v=0
57173 On ch=1 n=64 v=49
57258 Off ch=1 n=64 v=0
57258 On ch=1 n=68 v=49
57258 Par ch=1 c=64 v=0
57344 Off ch=1 n=68 v=0
57344 On ch=1 n=69 v=61
57344 On ch=1 n=57 v=45
57344 Par ch=1 c=64 v=127
57344 On ch=1 n=37 v=47
57344 On ch=1 n=49 v=47
57346 Off ch=1 n=40 v=0
57346 Off ch=1 n=52 v=0
57348 Off ch=1 n=71 v=0
57423 Off ch=1 n=57 v=0
57429 On ch=1 n=64 v=50
57514 Off ch=1 n=64 v=0
57514 On ch=1 n=68 v=50
57514 Par ch=1 c=64 v=0
57586 Off ch=1 n=69 v=0
57600 Off ch=1 n=68 v=0
57600 On ch=1 n=69 v=62
57600 On ch=1 n=57 v=43
57600 Par ch=1 c=64 v=127
57600 On ch=1 n=39 v=47
57600 On ch=1 n=51 v=47
57602 Off ch=1 n=37 v=0
57602 Off ch=1 n=49 v=0
57685 Off ch=1 n=57 v=0
57685 On ch=1 n=63 v=52
57770 Off ch=1 n=63 v=0
57770 On ch=1 n=66 v=50
57770 Par ch=1 c=64 v=0
57856 Off ch=1 n=66 v=0
57856 On ch=1 n=68 v=61
57856 On ch=1 n=56 v=45
57856 Par ch=1 c=64 v=127
57856 On ch=1 n=36 v=48
57856 On ch=1 n=48 v=48
57858 Off ch=1 n=39 v=0
57858 Off ch=1 n=51 v=0
57860 Off ch=1 n=69 v=0
57935 Off ch=1 n=56 v=0
57941 On ch=1 n=63 v=51
58026 Off ch=1 n=63 v=0
58026 On ch=1 n=66 v=48
58026 Par ch=1 c=64 v=0
58098 Off ch=1 n=68 v=0
58112 Off ch=1 n=66 v=0
58112 On ch=1 n=68 v=62
58112 On ch=1 n=56 v=45
58112 Par ch=1 c=64 v=127
58112 On ch=1 n=37 v=49
58112 On ch=1 n=49 v=49
58114 Off ch=1 n=36 v=0
58114 Off ch=1 n=48 v=0
58197 Off ch=1 n=56 v=0
58197 On ch=1 n=61 v=50
58282 Off ch=1 n=61 v=0
58282 On ch=1 n=64 v=51
58282 Par ch=1 c=64 v=0
58368 Off ch=1 n=64 v=0
58368 On ch=1 n=66 v=63
58368 On ch=1 n=54 v=44
58368 Par ch=1 c=64 v=127
58368 On ch=1 n=33 v=50
58368 On ch=1 n=45 v=50
58370 Off ch=1 n=37 v=0
58370 Off ch=1 n=49 v=0
58372 Off ch=1 n=68 v=0
58453 Off ch=1 n=54 v=0
58453 On ch=1 n=61 v=56
58538 Off ch=1 n=61 v=0
58538 On ch=1 n=63 v=56
58624 Off ch=1 n=63 v=0
58624 On ch=1 n=54 v=41
58709 Off ch=1 n=54 v=0
58709 On ch=1 n=61 v=50
58794 Off ch=1 n=61 v=0
58794 On ch=1 n=63 v=47
58794 Par ch=1 c=64 v=0
58880 Off ch=1 n=63 v=0
58880 On ch=1 n=68 v=73
58880 On ch=1 n=56 v=44
58880 Par ch=1 c=64 v=127
58880 On ch=1 n=32 v=44
58880 On ch=1 n=44 v=44
58885 Off ch=1 n=33 v=0
58885 Off ch=1 n=45 v=0
58889 Off ch=1 n=66 v=0
58965 Off ch=1 n=56 v=0
58965 On ch=1 n=61 v=50
59050 Off ch=1 n=61 v=0
59050 On ch=1 n=63 v=49
59050 Par ch=1 c=64 v=0
59136 Off ch=1 n=63 v=0
59136 On ch=1 n=69 v=65
59136 On ch=1 n=57 v=47
59136 Par ch=1 c=64 v=127
59136 On ch=1 n=30 v=43
59136 On ch=1 n=42 v=43
59138 Off ch=1 n=32 v=0
59138 Off ch=1 n=44 v=0
59140 Off ch=1 n=68 v=0
59221 Off ch=1 n=57 v=0
59221 On ch=1 n=61 v=51
59306 Off ch=1 n=61 v=0
59306 On ch=1 n=63 v=48
59306 Par ch=1 c=64 v=0
59392 Off ch=1 n=63 v=0
59392 On ch=1 n=68 v=63
59392 On ch=1 n=56 v=61
59392 Par ch=1 c=64 v=127
59392 On ch=1 n=32 v=44
59392 On ch=1 n=44 v=44
59394 Off ch=1 n=30 v=0
59394 Off ch=1 n=42 v=0
59396 Off ch=1 n=69 v=0
59477 Off ch=1 n=56 v=0
59477 On ch=1 n=61 v=60
59562 Off ch=1 n=61 v=0
59562 On ch=1 n=64 v=62
59648 Off ch=1 n=64 v=0
59648 On ch=1 n=56 v=54
59733 Off ch=1 n=56 v=0
59733 On ch=1 n=61 v=60
59818 Off ch=1 n=61 v=0
59818 On ch=1 n=64 v=60
59818 Par ch=1 c=64 v=0
59903 Off ch=1 n=68 v=0
59904 Off ch=1 n=64 v=0
59904 On ch=1 n=68 v=68
59904 On ch=1 n=54 v=56
59904 Par ch=1 c=64 v=127
59904 On ch=1 n=32 v=45
59904 On ch=1 n=44 v=45
59909 Off ch=1 n=32 v=0
59909 Off ch=1 n=44 v=0
59989 Off ch=1 n=54 v=0
59989 On ch=1 n=60 v=61
60074 Off ch=1 n=60 v=0
60074 On ch=1 n=63 v=53
60160 Off ch=1 n=63 v=0
60160 On ch=1 n=54 v=46
60245 Off ch=1 n=54 v=0
60245 On ch=1 n=60 v=55
60330 Off ch=1 n=60 v=0
60330 On ch=1 n=63 v=53
60330 Par ch=1 c=64 v=0
60416 Off ch=1 n=63 v=0
60416 On ch=1 n=61 v=62
60416 On ch=1 n=52 v=48
60416 Par ch=1 c=64 v=127
60416 On ch=1 n=44 v=44
60416 On ch=1 n=37 v=46
60421 Off ch=1 n=32 v=0
60421 Off ch=1 n=44 v=0
60425 Off ch=1 n=68 v=0
60495 Off ch=1 n=52 v=0
60501 On ch=1 n=56 v=50
60586 Off ch=1 n=56 v=0
60586 On ch=1 n=61 v=55
60658 Off ch=1 n=61 v=0
60672 Off ch=1 n=61 v=0
60672 On ch=1 n=56 v=34
60757 Off ch=1 n=56 v=0
60757 On ch=1 n=61 v=37
60842 Off ch=1 n=61 v=0
60842 On ch=1 n=64 v=38
60928 Off ch=1 n=64 v=0
60928 On ch=1 n=56 v=34
61013 Off ch=1 n=56 v=0
61013 On ch=1 n=61 v=38
61098 Off ch=1 n=61 v=0
61098 On ch=1 n=64 v=38
61184 Off ch=1 n=64 v=0
61184 On ch=1 n=56 v=33
61184 On ch=1 n=44 v=47
61191 Off ch=1 n=44 v=0
61269 Off ch=1 n=56 v=0
61269 On ch=1 n=61 v=36
61354 Off ch=1 n=61 v=0
61354 On ch=1 n=64 v=38
61364 Off ch=1 n=44 v=0
61376 Par ch=1 c=64 v=0
61376 On ch=1 n=44 v=55
61440 Off ch=1 n=64 v=0
61440 On ch=1 n=56 v=34
61440 Off ch=1 n=44 v=0
61440 Par ch=1 c=64 v=127
61440 On ch=1 n=44 v=49
61440 On ch=1 n=36 v=50
61450 Off ch=1 n=37 v=0
61525 Off ch=1 n=56 v=0
61525 On ch=1 n=63 v=38
61610 Off ch=1 n=63 v=0
61610 On ch=1 n=66 v=36
61696 Off ch=1 n=66 v=0
61696 On ch=1 n=56 v=33
61781 Off ch=1 n=56 v=0
61781 On ch=1 n=63 v=41
61866 Off ch=1 n=63 v=0
61866 On ch=1 n=66 v=38
61952 Off ch=1 n=66 v=0
61952 On ch=1 n=56 v=33
62037 Off ch=1 n=56 v=0
62037 On ch=1 n=63 v=38
62122 Off ch=1 n=63 v=0
62122 On ch=1 n=66 v=39
62208 Off ch=1 n=66 v=0
62208 On ch=1 n=56 v=33
62208 On ch=1 n=44 v=49
62215 Off ch=1 n=44 v=0
62293 Off ch=1 n=56 v=0
62293 On ch=1 n=63 v=37
62378 Off ch=1 n=63 v=0
62378 On ch=1 n=66 v=37
62388 Off ch=1 n=44 v=0
62400 Par ch=1 c=64 v=0
62400 On ch=1 n=44 v=54
62464 Off ch=1 n=66 v=0
62464 On ch=1 n=56 v=33
62464 Off ch=1 n=44 v=0
62464 Par ch=1 c=64 v=127
62464 On ch=1 n=44 v=47
62464 On ch=1 n=37 v=52
62474 Off ch=1 n=36 v=0
62549 Off ch=1 n=56 v=0
62549 On ch=1 n=64 v=40
62634 Off ch=1 n=64 v=0
62634 On ch=1 n=61 v=39
62720 Off ch=1 n=61 v=0
62720 On ch=1 n=68 v=48
62805 Off ch=1 n=68 v=0
62805 On ch=1 n=64 v=42
62890 Off ch=1 n=64 v=0
62890 On ch=1 n=73 v=51
62976 Off ch=1 n=73 v=0
62976 On ch=1 n=68 v=49
63061 Off ch=1 n=68 v=0
63061 On ch=1 n=76 v=58
63146 Off ch=1 n=76 v=0
63146 On ch=1 n=73 v=55
63232 Off ch=1 n=73 v=0
63232 On ch=1 n=80 v=63
63232 On ch=1 n=44 v=47
63239 Off ch=1 n=44 v=0
63317 Off ch=1 n=80 v=0
63317 On ch=1 n=76 v=54
63402 Off ch=1 n=76 v=0
63402 On ch=1 n=73 v=61
63412 Off ch=1 n=44 v=0
63424 Par ch=1 c=64 v=0
63424 On ch=1 n=44 v=55
63488 Off ch=1 n=73 v=0
63488 On ch=1 n=72 v=59
63488 Off ch=1 n=44 v=0
63488 Par ch=1 c=64 v=127
63488 On ch=1 n=44 v=47
63488 On ch=1 n=32 v=48
63498 Off ch=1 n=37 v=0
63573 Off ch=1 n=72 v=0
63573 On ch=1 n=75 v=65
63658 Off ch=1 n=75 v=0
63658 On ch=1 n=69 v=55
63744 Off ch=1 n=69 v=0
63744 On ch=1 n=72 v=63
63829 Off ch=1 n=72 v=0
63829 On ch=1 n=66 v=54
63914 Off ch=1 n=66 v=0
63914 On ch=1 n=69 v=59
64000 Off ch=1 n=69 v=0
64000 On ch=1 n=63 v=57
64085 Off ch=1 n=63 v=0
64085 On ch=1 n=66 v=55
64170 Off ch=1 n=66 v=0
64170 On ch=1 n=57 v=47
64170 Par ch=1 c=64 v=0
64256 On ch=1 n=60 v=45
64256 Par ch=1 c=64 v=127
64256 On ch=1 n=44 v=48
64263 Off ch=1 n=44 v=0
64341 Off ch=1 n=57 v=0
64341 On ch=1 n=56 v=51
64426 Off ch=1 n=56 v=0
64426 On ch=1 n=54 v=49
64426 Par ch=1 c=64 v=0
64436 Off ch=1 n=44 v=0
64448 On ch=1 n=44 v=54
64512 Off ch=1 n=54 v=0
64512 On ch=1 n=52 v=47
64512 On ch=1 n=61 v=47
64512 Off ch=1 n=44 v=0
64512 Par ch=1 c=64 v=127
64512 On ch=1 n=44 v=47
64512 On ch=1 n=37 v=50
64514 Off ch=1 n=60 v=0
64522 Off ch=1 n=32 v=0
64597 Off ch=1 n=52 v=0
64597 Off ch=1 n=61 v=0
64597 On ch=1 n=64 v=52
64682 Off ch=1 n=64 v=0
64682 On ch=1 n=61 v=51
64768 Off ch=1 n=61 v=0
64768 On ch=1 n=68 v=55
64853 Off ch=1 n=68 v=0
64853 On ch=1 n=64 v=50
64938 Off ch=1 n=64 v=0
64938 On ch=1 n=73 v=59
65024 Off ch=1 n=73 v=0
65024 On ch=1 n=68 v=54
65109 Off ch=1 n=68 v=0
65109 On ch=1 n=76 v=63
65194 Off ch=1 n=76 v=0
65194 On ch=1 n=73 v=57
65280 Off ch=1 n=73 v=0
65280 On ch=1 n=80 v=65
65280 On ch=1 n=44 v=46
65287 Off ch=1 n=44 v=0
65365 Off ch=1 n=80 v=0
65365 On ch=1 n=76 v=59
65450 Off ch=1 n=76 v=0
65450 On ch=1 n=73 v=62
65465 Off ch=1 n=44 v=0
65472 Par ch=1 c=64 v=0
65472 On ch=1 n=44 v=54
65536 Off ch=1 n=73 v=0
65536 On ch=1 n=72 v=62
65536 Off ch=1 n=44 v=0
65536 Par ch=1 c=64 v=127
65536 On ch=1 n=44 v=48
65536 On ch=1 n=32 v=45
65546 Off ch=1 n=37 v=0
65621 Off ch=1 n=72 v=0
65621 On ch=1 n=75 v=64
65706 Off ch=1 n=75 v=0
65706 On ch=1 n=69 v=58
65792 Off ch=1 n=69 v=0
65792 On ch=1 n=72 v=62
65877 Off ch=1 n=72 v=0
65877 On ch=1 n=66 v=56
65962 Off ch=1 n=66 v=0
65962 On ch=1 n=69 v=59
66048 Off ch=1 n=69 v=0
66048 On ch=1 n=63 v=63
66133 Off ch=1 n=63 v=0
66133 On ch=1 n=66 v=58
66218 Off ch=1 n=66 v=0
66218 On ch=1 n=57 v=50
66218 Par ch=1 c=64 v=0
66304 On ch=1 n=60 v=45
66304 Par ch=1 c=64 v=127
66304 On ch=1 n=44 v=46
66311 Off ch=1 n=44 v=0
66389 Off ch=1 n=57 v=0
66389 On ch=1 n=56 v=47
66474 Off ch=1 n=56 v=0
66474 On ch=1 n=54 v=47
66474 Par ch=1 c=64 v=0
66489 Off ch=1 n=44 v=0
66496 On ch=1 n=44 v=53
66560 Off ch=1 n=54 v=0
66560 On ch=1 n=52 v=49
66560 On ch=1 n=61 v=49
66560 Off ch=1 n=44 v=0
66560 Par ch=1 c=64 v=127
66560 On ch=1 n=44 v=44
66560 On ch=1 n=37 v=45
66562 Off ch=1 n=60 v=0
66570 Off ch=1 n=32 v=0
66645 Off ch=1 n=52 v=0
66645 Off ch=1 n=61 v=0
66645 On ch=1 n=56 v=48
66730 Off ch=1 n=56 v=0
66730 On ch=1 n=61 v=52
66816 Off ch=1 n=61 v=0
66816 On ch=1 n=64 v=49
66901 Off ch=1 n=64 v=0
66901 On ch=1 n=61 v=45
66986 Off ch=1 n=61 v=0
66986 On ch=1 n=56 v=46
67072 Off ch=1 n=56 v=0
67072 On ch=1 n=49 v=44
67077 Off ch=1 n=44 v=0
67157 On ch=1 n=52 v=43
67242 Off ch=1 n=52 v=0
67242 On ch=1 n=56 v=49
67328 Off ch=1 n=56 v=0
67328 On ch=1 n=61 v=53
67413 Off ch=1 n=61 v=0
67413 On ch=1 n=56 v=47
67498 Off ch=1 n=56 v=0
67498 On ch=1 n=52 v=49
67584 Off ch=1 n=52 v=0
67584 On ch=1 n=44 v=43
67589 Off ch=1 n=49 v=0
67669 On ch=1 n=49 v=42
67754 Off ch=1 n=49 v=0
67754 On ch=1 n=52 v=49
67840 Off ch=1 n=52 v=0
67840 On ch=1 n=56 v=49
67925 Off ch=1 n=56 v=0
67925 On ch=1 n=52 v=44
68010 Off ch=1 n=52 v=0
68010 On ch=1 n=49 v=47
68096 Off ch=1 n=49 v=0
68096 On ch=1 n=44 v=47
68101 Off ch=1 n=44 v=0
68181 Off ch=1 n=44 v=0
68181 On ch=1 n=49 v=49
68266 Off ch=1 n=49 v=0
68266 On ch=1 n=44 v=44
68352 Off ch=1 n=44 v=0
68352 On ch=1 n=40 v=45
68437 Off ch=1 n=40 v=0
68437 On ch=1 n=44 v=48
68522 Off ch=1 n=44 v=0
68522 On ch=1 n=40 v=47
68608 Off ch=1 n=40 v=0
68608 On ch=1 n=37 v=35
68618 Off ch=1 n=37 v=0
69120 On ch=1 n=52 v=38
69120 On ch=1 n=56 v=38
69120 On ch=1 n=61 v=38
69120 On ch=1 n=37 v=33
69120 On ch=1 n=44 v=33
69120 On ch=1 n=49 v=33
69125 Off ch=1 n=37 v=0
69632 On ch=1 n=52 v=39
69632 On ch=1 n=56 v=39
69632 On ch=1 n=61 v=39
69632 On ch=1 n=37 v=33
69632 On ch=1 n=44 v=33
69632 On ch=1 n=49 v=33
69637 Off ch=1 n=52 v=0
69637 Off ch=1 n=56 v=0
69637 Off ch=1 n=61 v=0
69637 Off ch=1 n=37 v=0
69637 Off ch=1 n=44 v=0
69637 Off ch=1 n=49 v=0
70646 Par ch=1 c=64 v=0
71168 Off ch=1 n=52 v=0
71168 Off ch=1 n=56 v=0
71168 Off ch=1 n=61 v=0
71168 Off ch=1 n=37 v=0
71168 Off ch=1 n=44 v=0
71168 Off ch=1 n=49 v=0