0 On ch=1 n=52 v=43
17 On ch=1 n=59 v=43
34 On ch=1 n=68 v=43
128 On ch=1 n=80 v=53
130 Off ch=1 n=83 v=0
256 On ch=1 n=78 v=60
258 Off ch=1 n=80 v=0
384 On ch=1 n=76 v=59
386 Off ch=1 n=78 v=0
512 On ch=1 n=78 v=65
514 Off ch=1 n=76 v=0
640 On ch=1 n=80 v=68
642 Off ch=1 n=78 v=0
761 Off ch=1 n=80 v=0
768 On ch=1 n=83 v=64
768 Off ch=1 n=52 v=0
768 Off ch=1 n=59 v=0
768 Off ch=1 n=68 v=0
768 On ch=1 n=52 v=53
785 On ch=1 n=59 v=53
802 On ch=1 n=68 v=53
836 On ch=1 n=80 v=80
865 Off ch=1 n=83 v=0
866 Off ch=1 n=80 v=0
866 On ch=1 n=81 v=80
896 On ch=1 n=80 v=59
896 Off ch=1 n=81 v=0
1019 Off ch=1 n=80 v=0
1024 On ch=1 n=78 v=60
1152 On ch=1 n=76 v=57
1154 Off ch=1 n=78 v=0
1280 On ch=1 n=78 v=63
1282 Off ch=1 n=76 v=0
1344 On ch=1 n=80 v=66
1345 Off ch=1 n=78 v=0
1408 On ch=1 n=78 v=59
1409 Off ch=1 n=80 v=0
1472 On ch=1 n=80 v=61
1473 Off ch=1 n=78 v=0
1492 Off ch=1 n=80 v=0
1496 On ch=1 n=80 v=80
1526 Off ch=1 n=80 v=0
1526 On ch=1 n=81 v=80
1536 Off ch=1 n=52 v=0
1536 Off ch=1 n=59 v=0
1536 Off ch=1 n=68 v=0
1536 On ch=1 n=52 v=51
1553 On ch=1 n=59 v=51
1556 On ch=1 n=83 v=61
1556 Off ch=1 n=81 v=0
1570 On ch=1 n=68 v=51
1664 Off ch=1 n=83 v=0
1664 On ch=1 n=80 v=61
1792 On ch=1 n=83 v=70
1794 Off ch=1 n=80 v=0
1920 On ch=1 n=85 v=74
1920 On ch=1 n=73 v=54
1920 Off ch=1 n=52 v=0
1920 Off ch=1 n=59 v=0
1920 Off ch=1 n=68 v=0
1920 On ch=1 n=49 v=49
1922 Off ch=1 n=83 v=0
1937 On ch=1 n=56 v=49
1954 On ch=1 n=64 v=49
2048 On ch=1 n=80 v=67
2052 Off ch=1 n=85 v=0
2176 On ch=1 n=85 v=75
2180 Off ch=1 n=80 v=0
2304 On ch=1 n=83 v=59
2304 On ch=1 n=71 v=53
2304 Off ch=1 n=49 v=0
2304 Off ch=1 n=56 v=0
2304 Off ch=1 n=64 v=0
2304 On ch=1 n=52 v=54
2308 Off ch=1 n=85 v=0
2318 Off ch=1 n=73 v=0
2321 On ch=1 n=59 v=54
2338 On ch=1 n=68 v=54
2432 On ch=1 n=80 v=59
2436 Off ch=1 n=83 v=0
2560 On ch=1 n=78 v=58
2564 Off ch=1 n=80 v=0
2688 On ch=1 n=76 v=60
2688 On ch=1 n=59 v=45
2692 Off ch=1 n=78 v=0
2816 On ch=1 n=56 v=44
2818 Off ch=1 n=59 v=0
2881 Off ch=1 n=71 v=0
2918 Off ch=1 n=76 v=0
2944 Off ch=1 n=52 v=0
2944 Off ch=1 n=59 v=0
2944 Off ch=1 n=68 v=0
2944 On ch=1 n=54 v=49
2946 Off ch=1 n=56 v=0
3042 On ch=1 n=56 v=44
3062 On ch=1 n=64 v=44
3065 Off ch=1 n=54 v=0
3072 On ch=1 n=40 v=44
3072 On ch=1 n=47 v=44
3072 On ch=1 n=52 v=44
3082 On ch=1 n=71 v=55
3200 On ch=1 n=68 v=51
3212 Off ch=1 n=71 v=0
3328 On ch=1 n=66 v=61
3330 Off ch=1 n=68 v=0
3456 On ch=1 n=64 v=60
3458 Off ch=1 n=66 v=0
3584 On ch=1 n=66 v=63
3586 Off ch=1 n=64 v=0
3712 On ch=1 n=68 v=65
3714 Off ch=1 n=66 v=0
3771 Off ch=1 n=56 v=0
3791 Off ch=1 n=64 v=0
3810 On ch=1 n=56 v=52
3830 On ch=1 n=64 v=52
3833 Off ch=1 n=68 v=0
3840 Off ch=1 n=40 v=0
3840 Off ch=1 n=47 v=0
3840 Off ch=1 n=52 v=0
3840 On ch=1 n=40 v=47
3840 On ch=1 n=47 v=47
3840 On ch=1 n=52 v=47
3850 On ch=1 n=71 v=66
3908 On ch=1 n=68 v=80
3938 Off ch=1 n=68 v=0
3938 On ch=1 n=69 v=80
3949 Off ch=1 n=71 v=0
3968 On ch=1 n=68 v=60
3968 Off ch=1 n=69 v=0
4091 Off ch=1 n=68 v=0
4096 On ch=1 n=66 v=59
4224 On ch=1 n=64 v=59
4226 Off ch=1 n=66 v=0
4352 On ch=1 n=66 v=64
4354 Off ch=1 n=64 v=0
4416 On ch=1 n=68 v=67
4417 Off ch=1 n=66 v=0
4480 On ch=1 n=66 v=59
4481 Off ch=1 n=68 v=0
4539 Off ch=1 n=56 v=0
4544 On ch=1 n=68 v=60
4545 Off ch=1 n=66 v=0
4559 Off ch=1 n=64 v=0
4564 Off ch=1 n=68 v=0
4578 On ch=1 n=68 v=62
4593 On ch=1 n=69 v=62
4608 On ch=1 n=71 v=62
4608 Off ch=1 n=68 v=0
4608 Off ch=1 n=69 v=0
4608 On ch=1 n=64 v=51
4608 Off ch=1 n=40 v=0
4608 Off ch=1 n=47 v=0
4608 Off ch=1 n=52 v=0
4608 On ch=1 n=40 v=54
4625 On ch=1 n=47 v=54
4642 On ch=1 n=56 v=54
4731 Off ch=1 n=71 v=0
4736 On ch=1 n=68 v=61
4864 On ch=1 n=71 v=70
4866 Off ch=1 n=68 v=0
4972 Off ch=1 n=64 v=0
4992 On ch=1 n=73 v=68
4992 On ch=1 n=64 v=55
4992 Off ch=1 n=40 v=0
4992 Off ch=1 n=47 v=0
4992 Off ch=1 n=56 v=0
4992 On ch=1 n=49 v=54
4992 On ch=1 n=56 v=54
4992 On ch=1 n=61 v=54
4994 Off ch=1 n=71 v=0
5120 On ch=1 n=68 v=67
5122 Off ch=1 n=73 v=0
5248 On ch=1 n=73 v=71
5250 Off ch=1 n=68 v=0
5376 On ch=1 n=75 v=75
5376 On ch=1 n=63 v=60
5376 Off ch=1 n=49 v=0
5376 Off ch=1 n=56 v=0
5376 Off ch=1 n=61 v=0
5376 On ch=1 n=44 v=50
5378 Off ch=1 n=73 v=0
5383 Off ch=1 n=64 v=0
5393 On ch=1 n=51 v=50
5410 On ch=1 n=60 v=50
5504 On ch=1 n=72 v=64
5506 Off ch=1 n=75 v=0
5632 On ch=1 n=70 v=61
5634 Off ch=1 n=72 v=0
5760 On ch=1 n=68 v=59
5760 Off ch=1 n=44 v=0
5760 Off ch=1 n=51 v=0
5760 Off ch=1 n=60 v=0
5760 On ch=1 n=63 v=53
5762 Off ch=1 n=70 v=0
5888 On ch=1 n=60 v=51
5890 Off ch=1 n=63 v=0
5984 Off ch=1 n=63 v=0
6003 Off ch=1 n=68 v=0
6016 On ch=1 n=58 v=51
6018 Off ch=1 n=60 v=0
6137 Off ch=1 n=58 v=0
6144 On ch=1 n=87 v=63
6144 On ch=1 n=56 v=57
6161 On ch=1 n=63 v=57
6178 On ch=1 n=72 v=57
6272 On ch=1 n=84 v=57
6274 Off ch=1 n=87 v=0
6400 On ch=1 n=82 v=70
6402 Off ch=1 n=84 v=0
6528 On ch=1 n=80 v=66
6530 Off ch=1 n=82 v=0
6656 On ch=1 n=82 v=73
6658 Off ch=1 n=80 v=0
6784 On ch=1 n=84 v=74
6786 Off ch=1 n=82 v=0
6905 Off ch=1 n=84 v=0
6912 On ch=1 n=87 v=75
6912 Off ch=1 n=56 v=0
6912 Off ch=1 n=63 v=0
6912 Off ch=1 n=72 v=0
6912 On ch=1 n=56 v=52
6929 On ch=1 n=63 v=52
6946 On ch=1 n=72 v=52
6980 On ch=1 n=84 v=80
7007 Off ch=1 n=87 v=0
7010 Off ch=1 n=84 v=0
7010 On ch=1 n=85 v=80
7040 On ch=1 n=84 v=72
7040 Off ch=1 n=85 v=0
7163 Off ch=1 n=84 v=0
7168 On ch=1 n=82 v=68
7296 On ch=1 n=80 v=65
7298 Off ch=1 n=82 v=0
7424 On ch=1 n=82 v=74
7426 Off ch=1 n=80 v=0
7488 On ch=1 n=84 v=76
7489 Off ch=1 n=82 v=0
7552 On ch=1 n=82 v=68
7553 Off ch=1 n=84 v=0
7616 On ch=1 n=84 v=70
7617 Off ch=1 n=82 v=0
7636 Off ch=1 n=84 v=0
7640 On ch=1 n=84 v=80
7670 Off ch=1 n=84 v=0
7670 On ch=1 n=85 v=80
7680 Off ch=1 n=56 v=0
7680 Off ch=1 n=63 v=0
7680 Off ch=1 n=72 v=0
7680 On ch=1 n=56 v=50
7697 On ch=1 n=63 v=50
7700 On ch=1 n=87 v=71
7700 Off ch=1 n=85 v=0
7714 On ch=1 n=72 v=50
7808 Off ch=1 n=87 v=0
7808 On ch=1 n=84 v=74
7936 On ch=1 n=87 v=82
7938 Off ch=1 n=84 v=0
8064 On ch=1 n=88 v=82
8064 On ch=1 n=76 v=63
8064 Off ch=1 n=56 v=0
8064 Off ch=1 n=63 v=0
8064 Off ch=1 n=72 v=0
8064 On ch=1 n=52 v=49
8066 Off ch=1 n=87 v=0
8081 On ch=1 n=60 v=49
8098 On ch=1 n=68 v=49
8192 On ch=1 n=84 v=80
8194 Off ch=1 n=88 v=0
8320 On ch=1 n=88 v=82
8322 Off ch=1 n=84 v=0
8448 On ch=1 n=87 v=71
8448 On ch=1 n=75 v=63
8448 Off ch=1 n=52 v=0
8448 Off ch=1 n=60 v=0
8448 Off ch=1 n=68 v=0
8448 On ch=1 n=56 v=53
8450 Off ch=1 n=88 v=0
8455 Off ch=1 n=76 v=0
8465 On ch=1 n=63 v=53
8482 On ch=1 n=72 v=53
8576 On ch=1 n=84 v=68
8580 Off ch=1 n=87 v=0
8704 On ch=1 n=82 v=64
8708 Off ch=1 n=84 v=0
8832 Off ch=1 n=75 v=0
8832 On ch=1 n=80 v=69
8832 On ch=1 n=75 v=61
8832 On ch=1 n=63 v=56
8836 Off ch=1 n=82 v=0
8960 On ch=1 n=60 v=54
8962 Off ch=1 n=63 v=0
9062 Off ch=1 n=80 v=0
9062 Off ch=1 n=75 v=0
9088 Off ch=1 n=56 v=0
9088 Off ch=1 n=63 v=0
9088 Off ch=1 n=72 v=0
9088 On ch=1 n=58 v=52
9090 Off ch=1 n=60 v=0
9186 On ch=1 n=60 v=56
9206 On ch=1 n=68 v=56
9209 Off ch=1 n=58 v=0
9216 On ch=1 n=44 v=45
9216 On ch=1 n=51 v=45
9216 On ch=1 n=56 v=45
9226 On ch=1 n=75 v=66
9344 On ch=1 n=72 v=66
9356 Off ch=1 n=75 v=0
9472 On ch=1 n=70 v=68
9474 Off ch=1 n=72 v=0
9600 On ch=1 n=68 v=67
9602 Off ch=1 n=70 v=0
9728 On ch=1 n=70 v=74
9730 Off ch=1 n=68 v=0
9856 On ch=1 n=72 v=75
9858 Off ch=1 n=70 v=0
9915 Off ch=1 n=60 v=0
9935 Off ch=1 n=68 v=0
9954 On ch=1 n=60 v=61
9974 On ch=1 n=68 v=61
9977 Off ch=1 n=72 v=0
9984 Off ch=1 n=44 v=0
9984 Off ch=1 n=51 v=0
9984 Off ch=1 n=56 v=0
9984 On ch=1 n=44 v=51
9984 On ch=1 n=51 v=51
9984 On ch=1 n=56 v=51
9994 On ch=1 n=75 v=73
10052 On ch=1 n=72 v=80
10082 Off ch=1 n=72 v=0
10082 On ch=1 n=73 v=80
10093 Off ch=1 n=75 v=0
10112 On ch=1 n=72 v=69
10112 Off ch=1 n=73 v=0
10235 Off ch=1 n=72 v=0
10240 On ch=1 n=70 v=70
10368 On ch=1 n=68 v=70
10370 Off ch=1 n=70 v=0
10496 On ch=1 n=70 v=74
10498 Off ch=1 n=68 v=0
10560 On ch=1 n=72 v=76
10561 Off ch=1 n=70 v=0
10624 On ch=1 n=70 v=70
10625 Off ch=1 n=72 v=0
10683 Off ch=1 n=60 v=0
10688 On ch=1 n=72 v=72
10689 Off ch=1 n=70 v=0
10703 Off ch=1 n=68 v=0
10712 On ch=1 n=72 v=80
10723 Off ch=1 n=72 v=0
10742 Off ch=1 n=72 v=0
10742 On ch=1 n=73 v=80
10752 On ch=1 n=68 v=62
10752 Off ch=1 n=44 v=0
10752 Off ch=1 n=51 v=0
10752 Off ch=1 n=56 v=0
10752 On ch=1 n=44 v=56
10769 On ch=1 n=51 v=56
10772 On ch=1 n=75 v=71
10772 Off ch=1 n=73 v=0
10786 On ch=1 n=60 v=56
10880 Off ch=1 n=75 v=0
10880 On ch=1 n=72 v=68
11008 On ch=1 n=75 v=80
11010 Off ch=1 n=72 v=0
11116 Off ch=1 n=68 v=0
11136 On ch=1 n=76 v=78
11136 On ch=1 n=64 v=66
11136 On ch=1 n=68 v=66
11136 Off ch=1 n=44 v=0
11136 Off ch=1 n=51 v=0
11136 Off ch=1 n=60 v=0
11136 On ch=1 n=49 v=52
11136 On ch=1 n=56 v=52
11136 On ch=1 n=61 v=52
11138 Off ch=1 n=75 v=0
11264 On ch=1 n=73 v=77
11266 Off ch=1 n=76 v=0
11392 On ch=1 n=76 v=83
11394 Off ch=1 n=73 v=0
11520 On ch=1 n=78 v=85
11520 On ch=1 n=66 v=76
11520 On ch=1 n=71 v=76
11520 Off ch=1 n=49 v=0
11520 Off ch=1 n=56 v=0
11520 Off ch=1 n=61 v=0
11520 On ch=1 n=47 v=52
11522 Off ch=1 n=76 v=0
11527 Off ch=1 n=64 v=0
11527 Off ch=1 n=68 v=0
11537 On ch=1 n=54 v=52
11554 On ch=1 n=63 v=52
11648 On ch=1 n=75 v=80
11652 Off ch=1 n=78 v=0
11776 On ch=1 n=73 v=82
11780 Off ch=1 n=75 v=0
11890 Off ch=1 n=66 v=0
11890 Off ch=1 n=71 v=0
11904 On ch=1 n=71 v=78
11904 Off ch=1 n=47 v=0
11904 Off ch=1 n=54 v=0
11904 Off ch=1 n=63 v=0
11904 On ch=1 n=66 v=52
11908 Off ch=1 n=73 v=0
12032 On ch=1 n=63 v=50
12034 Off ch=1 n=66 v=0
12134 Off ch=1 n=71 v=0
12160 On ch=1 n=61 v=48
12162 Off ch=1 n=63 v=0
12281 Off ch=1 n=61 v=0
12288 On ch=1 n=90 v=74
12288 On ch=1 n=78 v=67
12288 On ch=1 n=59 v=59
12305 On ch=1 n=66 v=59
12322 On ch=1 n=75 v=59
12416 On ch=1 n=87 v=72
12418 Off ch=1 n=90 v=0
12544 On ch=1 n=85 v=81
12546 Off ch=1 n=87 v=0
12672 On ch=1 n=83 v=79
12674 Off ch=1 n=85 v=0
12800 On ch=1 n=85 v=87
12802 Off ch=1 n=83 v=0
12864 On ch=1 n=87 v=90
12865 Off ch=1 n=85 v=0
12928 On ch=1 n=85 v=82
12929 Off ch=1 n=87 v=0
12992 On ch=1 n=87 v=85
12993 Off ch=1 n=85 v=0
13017 Off ch=1 n=78 v=0
13052 Off ch=1 n=87 v=0
13056 On ch=1 n=78 v=74
13056 On ch=1 n=66 v=63
13056 On ch=1 n=71 v=63
13056 Off ch=1 n=59 v=0
13056 Off ch=1 n=66 v=0
13056 Off ch=1 n=75 v=0
13056 On ch=1 n=47 v=44
13073 On ch=1 n=54 v=44
13090 On ch=1 n=63 v=44
13184 On ch=1 n=75 v=70
13186 Off ch=1 n=78 v=0
13312 On ch=1 n=73 v=78
13314 Off ch=1 n=75 v=0
13440 On ch=1 n=71 v=76
13442 Off ch=1 n=73 v=0
13568 On ch=1 n=73 v=88
13570 Off ch=1 n=71 v=0
13632 On ch=1 n=75 v=89
13633 Off ch=1 n=73 v=0
13696 On ch=1 n=73 v=80
13697 Off ch=1 n=75 v=0
13760 On ch=1 n=75 v=83
13761 Off ch=1 n=73 v=0
13785 Off ch=1 n=66 v=0
13785 Off ch=1 n=71 v=0
13820 Off ch=1 n=75 v=0
13824 On ch=1 n=90 v=97
13824 On ch=1 n=78 v=76
13824 Off ch=1 n=47 v=0
13824 Off ch=1 n=54 v=0
13824 Off ch=1 n=63 v=0
13824 Par ch=1 c=64 v=127
13824 On ch=1 n=59 v=57
13841 On ch=1 n=66 v=57
13858 On ch=1 n=75 v=57
13952 On ch=1 n=87 v=84
13954 Off ch=1 n=90 v=0
14080 On ch=1 n=83 v=81
14082 Off ch=1 n=87 v=0
14188 Off ch=1 n=78 v=0
14201 Off ch=1 n=83 v=0
14208 On ch=1 n=78 v=83
14208 On ch=1 n=66 v=65
14208 On ch=1 n=71 v=65
14208 Off ch=1 n=59 v=0
14208 Off ch=1 n=66 v=0
14208 Off ch=1 n=75 v=0
14208 On ch=1 n=47 v=46
14225 On ch=1 n=54 v=46
14242 On ch=1 n=63 v=46
14336 On ch=1 n=75 v=85
14338 Off ch=1 n=78 v=0
14464 On ch=1 n=71 v=83
14464 Par ch=1 c=64 v=0
14466 Off ch=1 n=75 v=0
14572 Off ch=1 n=66 v=0
14572 Off ch=1 n=71 v=0
14585 Off ch=1 n=71 v=0
14592 On ch=1 n=90 v=99
14592 On ch=1 n=78 v=76
14592 Off ch=1 n=47 v=0
14592 Off ch=1 n=54 v=0
14592 Off ch=1 n=63 v=0
14592 Par ch=1 c=64 v=127
14592 On ch=1 n=59 v=81
14609 On ch=1 n=69 v=81
14626 On ch=1 n=75 v=81
14720 On ch=1 n=87 v=91
14722 Off ch=1 n=90 v=0
14848 On ch=1 n=83 v=90
14850 Off ch=1 n=87 v=0
14956 Off ch=1 n=78 v=0
14969 Off ch=1 n=83 v=0
14976 On ch=1 n=78 v=87
14976 On ch=1 n=66 v=66
14976 On ch=1 n=71 v=66
14976 Off ch=1 n=59 v=0
14976 Off ch=1 n=69 v=0
14976 Off ch=1 n=75 v=0
14976 On ch=1 n=47 v=63
14993 On ch=1 n=57 v=63
15010 On ch=1 n=63 v=63
15104 On ch=1 n=75 v=92
15106 Off ch=1 n=78 v=0
15232 On ch=1 n=71 v=94
15232 Par ch=1 c=64 v=0
15234 Off ch=1 n=75 v=0
15340 Off ch=1 n=66 v=0
15340 Off ch=1 n=71 v=0
15353 Off ch=1 n=71 v=0
15360 On ch=1 n=71 v=92
15360 On ch=1 n=76 v=92
15360 On ch=1 n=83 v=92
15360 Off ch=1 n=47 v=0
15360 Off ch=1 n=57 v=0
15360 Off ch=1 n=63 v=0
15360 Par ch=1 c=64 v=127
15360 On ch=1 n=40 v=68
15377 On ch=1 n=47 v=68
15394 On ch=1 n=56 v=68
15488 On ch=1 n=68 v=90
15488 On ch=1 n=80 v=90
15490 Off ch=1 n=71 v=0
15490 Off ch=1 n=76 v=0
15490 Off ch=1 n=83 v=0
15616 On ch=1 n=66 v=81
15616 On ch=1 n=78 v=81
15618 Off ch=1 n=68 v=0
15618 Off ch=1 n=80 v=0
15744 On ch=1 n=64 v=78
15744 On ch=1 n=76 v=78
15746 Off ch=1 n=66 v=0
15746 Off ch=1 n=78 v=0
15872 On ch=1 n=66 v=89
15872 On ch=1 n=78 v=89
15874 Off ch=1 n=64 v=0
15874 Off ch=1 n=76 v=0
16000 On ch=1 n=68 v=91
16000 On ch=1 n=80 v=91
16000 Par ch=1 c=64 v=0
16002 Off ch=1 n=66 v=0
16002 Off ch=1 n=78 v=0
16121 Off ch=1 n=68 v=0
16121 Off ch=1 n=80 v=0
16128 On ch=1 n=71 v=87
16128 On ch=1 n=76 v=87
16128 On ch=1 n=83 v=87
16128 Off ch=1 n=40 v=0
16128 Off ch=1 n=47 v=0
16128 Off ch=1 n=56 v=0
16128 Par ch=1 c=64 v=127
16128 On ch=1 n=40 v=70
16145 On ch=1 n=47 v=70
16162 On ch=1 n=56 v=70
16196 On ch=1 n=80 v=84
16226 Off ch=1 n=80 v=0
16226 On ch=1 n=81 v=84
16227 Off ch=1 n=71 v=0
16227 Off ch=1 n=76 v=0
16227 Off ch=1 n=83 v=0
16256 On ch=1 n=68 v=84
16256 On ch=1 n=80 v=84
16256 Off ch=1 n=81 v=0
16379 Off ch=1 n=68 v=0
16379 Off ch=1 n=80 v=0
16384 On ch=1 n=66 v=84
16384 On ch=1 n=78 v=84
16512 On ch=1 n=64 v=79
16512 On ch=1 n=76 v=79
16514 Off ch=1 n=66 v=0
16514 Off ch=1 n=78 v=0
16640 On ch=1 n=66 v=88
16640 On ch=1 n=78 v=88
16642 Off ch=1 n=64 v=0
16642 Off ch=1 n=76 v=0
16704 On ch=1 n=68 v=89
16704 On ch=1 n=80 v=89
16705 Off ch=1 n=66 v=0
16705 Off ch=1 n=78 v=0
16768 On ch=1 n=66 v=84
16768 On ch=1 n=78 v=84
16768 Par ch=1 c=64 v=0
16769 Off ch=1 n=68 v=0
16769 Off ch=1 n=80 v=0
16832 On ch=1 n=68 v=86
16832 On ch=1 n=80 v=86
16833 Off ch=1 n=66 v=0
16833 Off ch=1 n=78 v=0
16856 On ch=1 n=80 v=87
16861 Off ch=1 n=68 v=0
16861 Off ch=1 n=80 v=0
16886 Off ch=1 n=80 v=0
16886 On ch=1 n=81 v=87
16896 On ch=1 n=71 v=83
16896 Off ch=1 n=40 v=0
16896 Off ch=1 n=47 v=0
16896 Off ch=1 n=56 v=0
16896 On ch=1 n=40 v=73
16913 On ch=1 n=47 v=73
16916 On ch=1 n=83 v=87
16916 Off ch=1 n=81 v=0
16930 On ch=1 n=56 v=73
17024 On ch=1 n=80 v=80
17039 Off ch=1 n=83 v=0
17152 On ch=1 n=83 v=84
17154 Off ch=1 n=80 v=0
17241 Off ch=1 n=71 v=0
17273 Off ch=1 n=83 v=0
17280 On ch=1 n=85 v=86
17280 On ch=1 n=73 v=89
17280 On ch=1 n=76 v=89
17280 Off ch=1 n=40 v=0
17280 Off ch=1 n=47 v=0
17280 Off ch=1 n=56 v=0
17280 On ch=1 n=40 v=71
17297 On ch=1 n=49 v=71
17314 On ch=1 n=56 v=71
17408 On ch=1 n=80 v=80
17410 Off ch=1 n=85 v=0
17536 On ch=1 n=85 v=88
17538 Off ch=1 n=80 v=0
17644 Off ch=1 n=73 v=0
17644 Off ch=1 n=76 v=0
17657 Off ch=1 n=85 v=0
17664 On ch=1 n=85 v=85
17664 On ch=1 n=73 v=85
17664 On ch=1 n=76 v=85
17664 Off ch=1 n=40 v=0
17664 Off ch=1 n=49 v=0
17664 Off ch=1 n=56 v=0
17664 On ch=1 n=42 v=76
17681 On ch=1 n=49 v=76
17698 On ch=1 n=57 v=76
17792 On ch=1 n=81 v=80
17794 Off ch=1 n=85 v=0
17920 On ch=1 n=80 v=79
17922 Off ch=1 n=81 v=0
18048 On ch=1 n=78 v=76
18048 Off ch=1 n=42 v=0
18048 Off ch=1 n=49 v=0
18048 Off ch=1 n=57 v=0
18048 On ch=1 n=49 v=84
18048 On ch=1 n=61 v=84
18050 Off ch=1 n=80 v=0
18176 On ch=1 n=45 v=83
18176 On ch=1 n=57 v=83
18178 Off ch=1 n=49 v=0
18178 Off ch=1 n=61 v=0
18272 Off ch=1 n=73 v=0
18272 Off ch=1 n=76 v=0
18291 Off ch=1 n=78 v=0
18304 On ch=1 n=44 v=85
18304 On ch=1 n=56 v=85
18306 Off ch=1 n=45 v=0
18306 Off ch=1 n=57 v=0
18425 Off ch=1 n=44 v=0
18425 Off ch=1 n=56 v=0
18432 On ch=1 n=73 v=76
18432 On ch=1 n=76 v=76
18432 On ch=1 n=85 v=76
18432 Par ch=1 c=64 v=127
18432 On ch=1 n=42 v=73
18449 On ch=1 n=49 v=73
18466 On ch=1 n=52 v=73
18483 On ch=1 n=57 v=73
18560 On ch=1 n=69 v=71
18560 On ch=1 n=81 v=71
18562 Off ch=1 n=73 v=0
18562 Off ch=1 n=76 v=0
18562 Off ch=1 n=85 v=0
18688 On ch=1 n=68 v=83
18688 On ch=1 n=80 v=83
18690 Off ch=1 n=69 v=0
18690 Off ch=1 n=81 v=0
18816 On ch=1 n=66 v=81
18816 On ch=1 n=78 v=81
18818 Off ch=1 n=68 v=0
18818 Off ch=1 n=80 v=0
18944 On ch=1 n=68 v=84
18944 On ch=1 n=80 v=84
18944 Par ch=1 c=64 v=0
18946 Off ch=1 n=66 v=0
18946 Off ch=1 n=78 v=0
19072 On ch=1 n=69 v=87
19072 On ch=1 n=81 v=87
19074 Off ch=1 n=68 v=0
19074 Off ch=1 n=80 v=0
19193 Off ch=1 n=69 v=0
19193 Off ch=1 n=81 v=0
19200 On ch=1 n=73 v=89
19200 On ch=1 n=76 v=89
19200 On ch=1 n=85 v=89
19200 Off ch=1 n=42 v=0
19200 Off ch=1 n=49 v=0
19200 Off ch=1 n=52 v=0
19200 Off ch=1 n=57 v=0
19200 Par ch=1 c=64 v=127
19200 On ch=1 n=42 v=70
19217 On ch=1 n=49 v=70
19234 On ch=1 n=52 v=70
19251 On ch=1 n=57 v=70
19268 On ch=1 n=81 v=82
19298 Off ch=1 n=73 v=0
19298 Off ch=1 n=76 v=0
19298 Off ch=1 n=85 v=0
19298 Off ch=1 n=81 v=0
19298 On ch=1 n=83 v=82
19328 On ch=1 n=69 v=82
19328 On ch=1 n=81 v=82
19328 Off ch=1 n=83 v=0
19451 Off ch=1 n=69 v=0
19451 Off ch=1 n=81 v=0
19456 On ch=1 n=68 v=81
19456 On ch=1 n=80 v=81
19584 On ch=1 n=66 v=78
19584 On ch=1 n=78 v=78
19586 Off ch=1 n=68 v=0
19586 Off ch=1 n=80 v=0
19712 On ch=1 n=68 v=86
19712 On ch=1 n=80 v=86
19712 Par ch=1 c=64 v=0
19714 Off ch=1 n=66 v=0
19714 Off ch=1 n=78 v=0
19776 On ch=1 n=69 v=88
19776 On ch=1 n=81 v=88
19777 Off ch=1 n=68 v=0
19777 Off ch=1 n=80 v=0
19840 On ch=1 n=68 v=82
19840 On ch=1 n=80 v=82
19841 Off ch=1 n=69 v=0
19841 Off ch=1 n=81 v=0
19904 On ch=1 n=69 v=88
19904 On ch=1 n=81 v=88
19905 Off ch=1 n=68 v=0
19905 Off ch=1 n=80 v=0
19928 On ch=1 n=81 v=101
19936 Off ch=1 n=69 v=0
19936 Off ch=1 n=81 v=0
19958 Off ch=1 n=81 v=0
19958 On ch=1 n=83 v=101
19968 On ch=1 n=76 v=76
19968 Off ch=1 n=42 v=0
19968 Off ch=1 n=49 v=0
19968 Off ch=1 n=52 v=0
19968 Off ch=1 n=57 v=0
19968 Par ch=1 c=64 v=127
19968 On ch=1 n=42 v=72
19985 On ch=1 n=49 v=72
19988 On ch=1 n=85 v=101
19988 Off ch=1 n=83 v=0
20002 On ch=1 n=52 v=72
20019 On ch=1 n=57 v=72
20096 On ch=1 n=81 v=92
20106 Off ch=1 n=85 v=0
20224 On ch=1 n=85 v=98
20224 Par ch=1 c=64 v=0
20228 Off ch=1 n=81 v=0
20278 Off ch=1 n=76 v=0
20338 Off ch=1 n=85 v=0
20352 On ch=1 n=87 v=102
20352 On ch=1 n=75 v=86
20352 On ch=1 n=78 v=86
20352 Off ch=1 n=42 v=0
20352 Off ch=1 n=49 v=0
20352 Off ch=1 n=52 v=0
20352 Off ch=1 n=57 v=0
20352 Par ch=1 c=64 v=127
20352 On ch=1 n=42 v=84
20369 On ch=1 n=51 v=84
20386 On ch=1 n=57 v=84
20480 On ch=1 n=81 v=93
20482 Off ch=1 n=87 v=0
20608 On ch=1 n=87 v=109
20608 Par ch=1 c=64 v=0
20610 Off ch=1 n=81 v=0
20697 Off ch=1 n=87 v=0
20716 Off ch=1 n=75 v=0
20716 Off ch=1 n=78 v=0
20716 On ch=1 n=87 v=99
20736 Off ch=1 n=87 v=0
20736 On ch=1 n=88 v=99
20736 On ch=1 n=78 v=86
20736 Off ch=1 n=42 v=0
20736 Off ch=1 n=51 v=0
20736 Off ch=1 n=57 v=0
20736 Par ch=1 c=64 v=127
20736 On ch=1 n=44 v=85
20753 On ch=1 n=51 v=85
20756 On ch=1 n=87 v=99
20756 Off ch=1 n=88 v=0
20770 On ch=1 n=54 v=85
20787 On ch=1 n=59 v=85
20864 On ch=1 n=83 v=100
20881 Off ch=1 n=87 v=0
20992 On ch=1 n=87 v=111
20992 Par ch=1 c=64 v=0
20996 Off ch=1 n=83 v=0
21063 Off ch=1 n=78 v=0
21106 Off ch=1 n=87 v=0
21120 On ch=1 n=88 v=108
21120 On ch=1 n=76 v=97
21120 On ch=1 n=80 v=97
21120 Off ch=1 n=44 v=0
21120 Off ch=1 n=51 v=0
21120 Off ch=1 n=54 v=0
21120 Off ch=1 n=59 v=0
21120 Par ch=1 c=64 v=127
21120 On ch=1 n=44 v=85
21137 On ch=1 n=52 v=85
21154 On ch=1 n=59 v=85
21248 On ch=1 n=83 v=100
21250 Off ch=1 n=88 v=0
21376 On ch=1 n=88 v=111
21376 Par ch=1 c=64 v=0
21378 Off ch=1 n=83 v=0
21465 Off ch=1 n=88 v=0
21484 Off ch=1 n=76 v=0
21484 Off ch=1 n=80 v=0
21484 On ch=1 n=88 v=104
21504 Off ch=1 n=88 v=0
21504 On ch=1 n=90 v=104
21504 On ch=1 n=80 v=90
21504 Off ch=1 n=44 v=0
21504 Off ch=1 n=52 v=0
21504 Off ch=1 n=59 v=0
21504 Par ch=1 c=64 v=127
21504 On ch=1 n=45 v=95
21521 On ch=1 n=52 v=95
21524 On ch=1 n=88 v=104
21524 Off ch=1 n=90 v=0
21538 On ch=1 n=56 v=95
21555 On ch=1 n=61 v=95
21632 On ch=1 n=85 v=103
21649 Off ch=1 n=88 v=0
21760 On ch=1 n=88 v=112
21760 Par ch=1 c=64 v=0
21764 Off ch=1 n=85 v=0
21831 Off ch=1 n=80 v=0
21874 Off ch=1 n=88 v=0
21888 On ch=1 n=90 v=113
21888 On ch=1 n=78 v=101
21888 On ch=1 n=81 v=101
21888 Off ch=1 n=45 v=0
21888 Off ch=1 n=52 v=0
21888 Off ch=1 n=56 v=0
21888 Off ch=1 n=61 v=0
21888 Par ch=1 c=64 v=127
21888 On ch=1 n=45 v=93
21905 On ch=1 n=54 v=93
21922 On ch=1 n=61 v=94
22016 On ch=1 n=85 v=103
22018 Off ch=1 n=90 v=0
22144 On ch=1 n=90 v=118
22144 Par ch=1 c=64 v=0
22146 Off ch=1 n=85 v=0
22252 Off ch=1 n=78 v=0
22252 Off ch=1 n=81 v=0
22265 Off ch=1 n=90 v=0
22272 On ch=1 n=80 v=117
22272 On ch=1 n=92 v=117
22272 Off ch=1 n=45 v=0
22272 Off ch=1 n=54 v=0
22272 Off ch=1 n=61 v=0
22272 Par ch=1 c=64 v=127
22272 On ch=1 n=44 v=97
22289 On ch=1 n=51 v=97
22306 On ch=1 n=60 v=97
22336 On ch=1 n=87 v=109
22337 Off ch=1 n=80 v=0
22337 Off ch=1 n=92 v=0
22400 On ch=1 n=84 v=104
22401 Off ch=1 n=87 v=0
22464 On ch=1 n=80 v=99
22465 Off ch=1 n=84 v=0
22528 On ch=1 n=84 v=121
22528 Par ch=1 c=64 v=0
22529 Off ch=1 n=80 v=0
22592 On ch=1 n=87 v=126
22593 Off ch=1 n=84 v=0
22652 Off ch=1 n=87 v=0
22656 On ch=1 n=87 v=114
22656 On ch=1 n=80 v=95
22656 Off ch=1 n=44 v=0
22656 Off ch=1 n=51 v=0
22656 Off ch=1 n=60 v=0
22720 On ch=1 n=84 v=106
22720 On ch=1 n=75 v=92
22722 Off ch=1 n=87 v=0
22722 Off ch=1 n=80 v=0
22777 Off ch=1 n=75 v=0
22781 Off ch=1 n=84 v=0
22784 On ch=1 n=80 v=102
22848 On ch=1 n=75 v=99
22849 Off ch=1 n=80 v=0
22912 On ch=1 n=80 v=110
22913 Off ch=1 n=75 v=0
22976 On ch=1 n=84 v=108
22977 Off ch=1 n=80 v=0
23036 Off ch=1 n=84 v=0
23040 On ch=1 n=84 v=98
23040 On ch=1 n=75 v=80
23104 On ch=1 n=80 v=91
23104 On ch=1 n=72 v=84
23106 Off ch=1 n=84 v=0
23106 Off ch=1 n=75 v=0
23161 Off ch=1 n=72 v=0
23165 Off ch=1 n=80 v=0
23168 On ch=1 n=75 v=86
23232 On ch=1 n=72 v=87
23233 Off ch=1 n=75 v=0
23296 On ch=1 n=75 v=92
23297 Off ch=1 n=72 v=0
23360 On ch=1 n=80 v=92
23361 Off ch=1 n=75 v=0
23420 Off ch=1 n=80 v=0
23424 On ch=1 n=80 v=84
23424 On ch=1 n=72 v=71
23488 On ch=1 n=75 v=74
23488 On ch=1 n=68 v=74
23490 Off ch=1 n=80 v=0
23490 Off ch=1 n=72 v=0
23545 Off ch=1 n=68 v=0
23549 Off ch=1 n=75 v=0
23552 On ch=1 n=72 v=74
23616 On ch=1 n=68 v=74
23617 Off ch=1 n=72 v=0
23680 On ch=1 n=72 v=77
23681 Off ch=1 n=68 v=0
23744 On ch=1 n=75 v=71
23745 Off ch=1 n=72 v=0
23804 Off ch=1 n=75 v=0
23808 On ch=1 n=68 v=63
23808 On ch=1 n=57 v=63
23808 On ch=1 n=61 v=63
23936 On ch=1 n=80 v=57
23936 On ch=1 n=85 v=57
24064 On ch=1 n=73 v=49
24068 Off ch=1 n=80 v=0
24068 Off ch=1 n=85 v=0
24187 Off ch=1 n=73 v=0
24192 On ch=1 n=66 v=61
24199 Off ch=1 n=68 v=0
24320 On ch=1 n=78 v=54
24320 On ch=1 n=85 v=54
24448 On ch=1 n=73 v=47
24452 Off ch=1 n=78 v=0
24452 Off ch=1 n=85 v=0
24571 Off ch=1 n=73 v=0
24576 On ch=1 n=64 v=71
24583 Off ch=1 n=66 v=0
24704 On ch=1 n=76 v=52
24704 On ch=1 n=85 v=52
24832 On ch=1 n=73 v=52
24836 Off ch=1 n=76 v=0
24836 Off ch=1 n=85 v=0
24946 Off ch=1 n=73 v=0
24960 On ch=1 n=66 v=86
24967 Off ch=1 n=64 v=0
25088 On ch=1 n=78 v=61
25088 On ch=1 n=85 v=61
25216 On ch=1 n=73 v=60
25218 Off ch=1 n=78 v=0
25218 Off ch=1 n=85 v=0
25324 Off ch=1 n=66 v=0
25337 Off ch=1 n=73 v=0
25344 On ch=1 n=80 v=113
25344 On ch=1 n=92 v=113
25344 Off ch=1 n=57 v=0
25344 Off ch=1 n=61 v=0
25344 Par ch=1 c=64 v=127
25344 On ch=1 n=44 v=95
25361 On ch=1 n=51 v=95
25378 On ch=1 n=60 v=95
25408 On ch=1 n=87 v=106
25409 Off ch=1 n=80 v=0
25409 Off ch=1 n=92 v=0
25472 On ch=1 n=84 v=98
25473 Off ch=1 n=87 v=0
25536 On ch=1 n=80 v=87
25537 Off ch=1 n=84 v=0
25600 On ch=1 n=84 v=83
25600 Par ch=1 c=64 v=0
25601 Off ch=1 n=80 v=0
25664 On ch=1 n=87 v=73
25665 Off ch=1 n=84 v=0
25724 Off ch=1 n=87 v=0
25728 On ch=1 n=64 v=67
25728 Off ch=1 n=44 v=0
25728 Off ch=1 n=51 v=0
25728 Off ch=1 n=60 v=0
25728 On ch=1 n=57 v=61
25728 On ch=1 n=61 v=61
25856 On ch=1 n=76 v=62
25856 On ch=1 n=85 v=62
25984 Off ch=1 n=64 v=0
25984 On ch=1 n=73 v=72
25984 On ch=1 n=66 v=88
25986 Off ch=1 n=76 v=0
25986 Off ch=1 n=85 v=0
26105 Off ch=1 n=73 v=0
26105 Off ch=1 n=66 v=0
26112 On ch=1 n=80 v=114
26112 On ch=1 n=92 v=114
26112 Off ch=1 n=57 v=0
26112 Off ch=1 n=61 v=0
26112 Par ch=1 c=64 v=127
26112 On ch=1 n=44 v=96
26129 On ch=1 n=51 v=96
26146 On ch=1 n=60 v=96
26176 On ch=1 n=87 v=107
26177 Off ch=1 n=80 v=0
26177 Off ch=1 n=92 v=0
26240 On ch=1 n=84 v=99
26241 Off ch=1 n=87 v=0
26304 On ch=1 n=80 v=86
26305 Off ch=1 n=84 v=0
26368 On ch=1 n=84 v=87
26368 Par ch=1 c=64 v=0
26369 Off ch=1 n=80 v=0
26432 On ch=1 n=87 v=75
26433 Off ch=1 n=84 v=0
26492 Off ch=1 n=87 v=0
26496 On ch=1 n=64 v=70
26496 Off ch=1 n=44 v=0
26496 Off ch=1 n=51 v=0
26496 Off ch=1 n=60 v=0
26496 On ch=1 n=57 v=61
26496 On ch=1 n=61 v=61
26624 On ch=1 n=76 v=65
26624 On ch=1 n=85 v=65
26752 Off ch=1 n=64 v=0
26752 On ch=1 n=73 v=72
26752 On ch=1 n=66 v=85
26754 Off ch=1 n=76 v=0
26754 Off ch=1 n=85 v=0
26873 Off ch=1 n=73 v=0
26873 Off ch=1 n=66 v=0
26880 On ch=1 n=72 v=69
26880 Off ch=1 n=57 v=0
26880 Off ch=1 n=61 v=0
26880 On ch=1 n=44 v=70
26897 On ch=1 n=51 v=70
26914 On ch=1 n=60 v=70
26944 On ch=1 n=68 v=65
26945 Off ch=1 n=72 v=0
27008 On ch=1 n=63 v=67
27009 Off ch=1 n=68 v=0
27072 On ch=1 n=68 v=71
27073 Off ch=1 n=63 v=0
27136 On ch=1 n=72 v=78
27137 Off ch=1 n=68 v=0
27200 On ch=1 n=75 v=81
27201 Off ch=1 n=72 v=0
27260 Off ch=1 n=75 v=0
27264 On ch=1 n=75 v=71
27328 On ch=1 n=72 v=67
27329 Off ch=1 n=75 v=0
27392 On ch=1 n=68 v=64
27393 Off ch=1 n=72 v=0
27456 On ch=1 n=72 v=74
27457 Off ch=1 n=68 v=0
27520 On ch=1 n=75 v=76
27521 Off ch=1 n=72 v=0
27584 On ch=1 n=80 v=77
27585 Off ch=1 n=75 v=0
27644 Off ch=1 n=80 v=0
27648 On ch=1 n=80 v=76
27712 On ch=1 n=75 v=74
27713 Off ch=1 n=80 v=0
27776 On ch=1 n=72 v=77
27777 Off ch=1 n=75 v=0
27840 On ch=1 n=75 v=91
27841 Off ch=1 n=72 v=0
27904 On ch=1 n=80 v=88
27905 Off ch=1 n=75 v=0
27968 On ch=1 n=84 v=94
27969 Off ch=1 n=80 v=0
28028 Off ch=1 n=84 v=0
28032 On ch=1 n=84 v=94
28032 On ch=1 n=76 v=96
28032 Off ch=1 n=44 v=0
28032 Off ch=1 n=51 v=0
28032 Off ch=1 n=60 v=0
28032 On ch=1 n=43 v=82
28049 On ch=1 n=48 v=82
28066 On ch=1 n=52 v=82
28083 On ch=1 n=58 v=82
28096 On ch=1 n=79 v=94
28097 Off ch=1 n=84 v=0
28160 On ch=1 n=76 v=93
28161 Off ch=1 n=79 v=0
28224 On ch=1 n=79 v=106
28225 Off ch=1 n=76 v=0
28288 On ch=1 n=84 v=109
28289 Off ch=1 n=79 v=0
28352 On ch=1 n=88 v=115
28353 Off ch=1 n=84 v=0
28396 Off ch=1 n=76 v=0
28412 Off ch=1 n=88 v=0
28416 On ch=1 n=77 v=117
28416 On ch=1 n=89 v=117
28416 Off ch=1 n=43 v=0
28416 Off ch=1 n=48 v=0
28416 Off ch=1 n=52 v=0
28416 Off ch=1 n=58 v=0
28416 Par ch=1 c=64 v=127
28416 On ch=1 n=41 v=100
28433 On ch=1 n=48 v=100
28450 On ch=1 n=57 v=100
28480 On ch=1 n=84 v=110
28481 Off ch=1 n=77 v=0
28481 Off ch=1 n=89 v=0
28544 On ch=1 n=81 v=108
28545 Off ch=1 n=84 v=0
28608 On ch=1 n=77 v=102
28609 Off ch=1 n=81 v=0
28672 On ch=1 n=81 v=119
28673 Off ch=1 n=77 v=0
28736 On ch=1 n=84 v=116
28736 Par ch=1 c=64 v=0
28737 Off ch=1 n=81 v=0
28796 Off ch=1 n=84 v=0
28800 On ch=1 n=84 v=110
28800 On ch=1 n=77 v=102
28800 Off ch=1 n=41 v=0
28800 Off ch=1 n=48 v=0
28800 Off ch=1 n=57 v=0
28864 On ch=1 n=81 v=102
28864 On ch=1 n=72 v=94
28865 Off ch=1 n=84 v=0
28865 Off ch=1 n=77 v=0
28924 Off ch=1 n=81 v=0
28924 Off ch=1 n=72 v=0
28928 On ch=1 n=77 v=100
28992 Off ch=1 n=77 v=0
28992 On ch=1 n=72 v=97
29056 Off ch=1 n=72 v=0
29056 On ch=1 n=77 v=107
29120 Off ch=1 n=77 v=0
29120 On ch=1 n=81 v=102
29184 Off ch=1 n=81 v=0
29184 On ch=1 n=81 v=97
29184 On ch=1 n=72 v=75
29248 On ch=1 n=77 v=89
29248 On ch=1 n=69 v=72
29250 Off ch=1 n=81 v=0
29250 Off ch=1 n=72 v=0
29305 Off ch=1 n=69 v=0
29309 Off ch=1 n=77 v=0
29312 On ch=1 n=72 v=84
29376 On ch=1 n=69 v=83
29377 Off ch=1 n=72 v=0
29440 On ch=1 n=72 v=90
29441 Off ch=1 n=69 v=0
29504 On ch=1 n=77 v=90
29505 Off ch=1 n=72 v=0
29564 Off ch=1 n=77 v=0
29568 On ch=1 n=77 v=83
29568 On ch=1 n=69 v=64
29632 On ch=1 n=72 v=73
29632 On ch=1 n=65 v=61
29634 Off ch=1 n=77 v=0
29634 Off ch=1 n=69 v=0
29689 Off ch=1 n=65 v=0
29693 Off ch=1 n=72 v=0
29696 On ch=1 n=69 v=76
29760 On ch=1 n=65 v=69
29761 Off ch=1 n=69 v=0
29824 On ch=1 n=69 v=74
29825 Off ch=1 n=65 v=0
29888 On ch=1 n=72 v=78
29889 Off ch=1 n=69 v=0
29948 Off ch=1 n=72 v=0
29952 On ch=1 n=65 v=63
29952 On ch=1 n=54 v=64
29952 On ch=1 n=58 v=64
30080 On ch=1 n=77 v=54
30080 On ch=1 n=82 v=54
30208 On ch=1 n=70 v=49
30212 Off ch=1 n=77 v=0
30212 Off ch=1 n=82 v=0
30331 Off ch=1 n=70 v=0
30336 On ch=1 n=63 v=61
30343 Off ch=1 n=65 v=0
30464 On ch=1 n=75 v=54
30464 On ch=1 n=82 v=54
30592 On ch=1 n=70 v=48
30596 Off ch=1 n=75 v=0
30596 Off ch=1 n=82 v=0
30715 Off ch=1 n=70 v=0
30720 On ch=1 n=61 v=74
30727 Off ch=1 n=63 v=0
30848 On ch=1 n=73 v=56
30848 On ch=1 n=82 v=56
30976 On ch=1 n=70 v=54
30980 Off ch=1 n=73 v=0
30980 Off ch=1 n=82 v=0
31090 Off ch=1 n=70 v=0
31104 On ch=1 n=63 v=84
31111 Off ch=1 n=61 v=0
31232 On ch=1 n=75 v=59
31232 On ch=1 n=82 v=59
31360 On ch=1 n=70 v=64
31362 Off ch=1 n=75 v=0
31362 Off ch=1 n=82 v=0
31468 Off ch=1 n=63 v=0
31481 Off ch=1 n=70 v=0
31488 On ch=1 n=77 v=111
31488 On ch=1 n=89 v=111
31488 Off ch=1 n=54 v=0
31488 Off ch=1 n=58 v=0
31488 Par ch=1 c=64 v=127
31488 On ch=1 n=41 v=97
31505 On ch=1 n=48 v=97
31522 On ch=1 n=57 v=97
31552 On ch=1 n=84 v=106
31553 Off ch=1 n=77 v=0
31553 Off ch=1 n=89 v=0
31616 On ch=1 n=81 v=100
31617 Off ch=1 n=84 v=0
31680 On ch=1 n=77 v=89
31681 Off ch=1 n=81 v=0
31744 On ch=1 n=81 v=85
31745 Off ch=1 n=77 v=0
31808 On ch=1 n=84 v=76
31808 Par ch=1 c=64 v=0
31809 Off ch=1 n=81 v=0
31868 Off ch=1 n=84 v=0
31872 On ch=1 n=61 v=68
31872 Off ch=1 n=41 v=0
31872 Off ch=1 n=48 v=0
31872 Off ch=1 n=57 v=0
31872 On ch=1 n=54 v=61
31872 On ch=1 n=58 v=61
32000 On ch=1 n=73 v=63
32000 On ch=1 n=82 v=63
32128 Off ch=1 n=61 v=0
32128 On ch=1 n=70 v=72
32128 On ch=1 n=63 v=89
32130 Off ch=1 n=73 v=0
32130 Off ch=1 n=82 v=0
32249 Off ch=1 n=70 v=0
32249 Off ch=1 n=63 v=0
32256 On ch=1 n=77 v=110
32256 On ch=1 n=89 v=110
32256 Off ch=1 n=54 v=0
32256 Off ch=1 n=58 v=0
32256 Par ch=1 c=64 v=127
32256 On ch=1 n=41 v=97
32273 On ch=1 n=48 v=97
32290 On ch=1 n=57 v=97
32320 On ch=1 n=84 v=107
32321 Off ch=1 n=77 v=0
32321 Off ch=1 n=89 v=0
32384 On ch=1 n=81 v=99
32385 Off ch=1 n=84 v=0
32448 On ch=1 n=77 v=87
32449 Off ch=1 n=81 v=0
32512 On ch=1 n=81 v=87
32513 Off ch=1 n=77 v=0
32576 On ch=1 n=84 v=74
32576 Par ch=1 c=64 v=0
32577 Off ch=1 n=81 v=0
32636 Off ch=1 n=84 v=0
32640 On ch=1 n=61 v=72
32640 Off ch=1 n=41 v=0
32640 Off ch=1 n=48 v=0
32640 Off ch=1 n=57 v=0
32640 On ch=1 n=54 v=63
32640 On ch=1 n=58 v=63
32768 On ch=1 n=73 v=65
32768 On ch=1 n=82 v=65
32896 Off ch=1 n=61 v=0
32896 On ch=1 n=70 v=72
32896 On ch=1 n=63 v=87
32898 Off ch=1 n=73 v=0
32898 Off ch=1 n=82 v=0
33017 Off ch=1 n=70 v=0
33017 Off ch=1 n=63 v=0
33024 On ch=1 n=69 v=68
33024 Off ch=1 n=54 v=0
33024 Off ch=1 n=58 v=0
33024 On ch=1 n=41 v=71
33041 On ch=1 n=48 v=71
33058 On ch=1 n=57 v=71
33088 On ch=1 n=65 v=63
33089 Off ch=1 n=69 v=0
33152 On ch=1 n=60 v=65
33153 Off ch=1 n=65 v=0
33216 On ch=1 n=65 v=69
33217 Off ch=1 n=60 v=0
33280 On ch=1 n=69 v=73
33281 Off ch=1 n=65 v=0
33344 On ch=1 n=72 v=77
33345 Off ch=1 n=69 v=0
33404 Off ch=1 n=72 v=0
33408 On ch=1 n=72 v=70
33472 On ch=1 n=69 v=66
33473 Off ch=1 n=72 v=0
33536 On ch=1 n=65 v=67
33537 Off ch=1 n=69 v=0
33600 On ch=1 n=69 v=74
33601 Off ch=1 n=65 v=0
33664 On ch=1 n=72 v=75
33665 Off ch=1 n=69 v=0
33728 On ch=1 n=77 v=77
33729 Off ch=1 n=72 v=0
33788 Off ch=1 n=77 v=0
33792 On ch=1 n=77 v=77
33856 On ch=1 n=72 v=77
33858 Off ch=1 n=77 v=0
33920 On ch=1 n=69 v=74
33922 Off ch=1 n=72 v=0
33984 On ch=1 n=72 v=88
33986 Off ch=1 n=69 v=0
34048 On ch=1 n=77 v=87
34050 Off ch=1 n=72 v=0
34112 On ch=1 n=81 v=95
34114 Off ch=1 n=77 v=0
34169 Off ch=1 n=81 v=0
34176 On ch=1 n=81 v=93
34176 On ch=1 n=73 v=94
34176 Off ch=1 n=41 v=0
34176 Off ch=1 n=48 v=0
34176 Off ch=1 n=57 v=0
34176 On ch=1 n=40 v=70
34193 On ch=1 n=45 v=70
34210 On ch=1 n=49 v=70
34227 On ch=1 n=55 v=70
34240 On ch=1 n=76 v=91
34241 Off ch=1 n=81 v=0
34304 On ch=1 n=73 v=86
34305 Off ch=1 n=76 v=0
34368 On ch=1 n=76 v=103
34369 Off ch=1 n=73 v=0
34432 On ch=1 n=81 v=110
34433 Off ch=1 n=76 v=0
34496 On ch=1 n=85 v=104
34497 Off ch=1 n=81 v=0
34540 Off ch=1 n=73 v=0
34556 Off ch=1 n=85 v=0
34560 On ch=1 n=74 v=116
34560 On ch=1 n=86 v=116
34560 Off ch=1 n=40 v=0
34560 Off ch=1 n=45 v=0
34560 Off ch=1 n=49 v=0
34560 Off ch=1 n=55 v=0
34560 Par ch=1 c=64 v=127
34560 On ch=1 n=38 v=70
34577 On ch=1 n=45 v=70
34594 On ch=1 n=54 v=70
34624 On ch=1 n=81 v=111
34625 Off ch=1 n=74 v=0
34625 Off ch=1 n=86 v=0
34688 On ch=1 n=78 v=107
34689 Off ch=1 n=81 v=0
34752 On ch=1 n=74 v=109
34753 Off ch=1 n=78 v=0
34816 On ch=1 n=78 v=119
34817 Off ch=1 n=74 v=0
34880 On ch=1 n=81 v=112
34880 Par ch=1 c=64 v=0
34881 Off ch=1 n=78 v=0
34940 Off ch=1 n=81 v=0
34944 On ch=1 n=86 v=114
34944 On ch=1 n=78 v=107
34944 Off ch=1 n=38 v=0
34944 Off ch=1 n=45 v=0
34944 Off ch=1 n=54 v=0
35008 On ch=1 n=81 v=95
35008 On ch=1 n=74 v=102
35009 Off ch=1 n=86 v=0
35009 Off ch=1 n=78 v=0
35068 Off ch=1 n=81 v=0
35068 Off ch=1 n=74 v=0
35072 On ch=1 n=78 v=95
35136 Off ch=1 n=78 v=0
35136 On ch=1 n=74 v=92
35200 Off ch=1 n=74 v=0
35200 On ch=1 n=78 v=99
35264 Off ch=1 n=78 v=0
35264 On ch=1 n=81 v=93
35328 Off ch=1 n=81 v=0
35328 On ch=1 n=86 v=92
35328 On ch=1 n=78 v=73
35392 On ch=1 n=81 v=80
35392 On ch=1 n=74 v=68
35394 Off ch=1 n=86 v=0
35394 Off ch=1 n=78 v=0
35449 Off ch=1 n=74 v=0
35453 Off ch=1 n=81 v=0
35456 On ch=1 n=78 v=77
35520 On ch=1 n=74 v=72
35521 Off ch=1 n=78 v=0
35584 On ch=1 n=78 v=79
35585 Off ch=1 n=74 v=0
35648 On ch=1 n=81 v=75
35649 Off ch=1 n=78 v=0
35708 Off ch=1 n=81 v=0
35712 On ch=1 n=86 v=74
35712 On ch=1 n=78 v=64
35776 On ch=1 n=81 v=64
35776 On ch=1 n=74 v=59
35778 Off ch=1 n=86 v=0
35778 Off ch=1 n=78 v=0
35833 Off ch=1 n=74 v=0
35837 Off ch=1 n=81 v=0
35840 On ch=1 n=78 v=62
35904 On ch=1 n=74 v=57
35905 Off ch=1 n=78 v=0
35968 On ch=1 n=78 v=60
35969 Off ch=1 n=74 v=0
36032 On ch=1 n=81 v=63
36033 Off ch=1 n=78 v=0
36092 Off ch=1 n=81 v=0
36096 On ch=1 n=78 v=63
36096 On ch=1 n=86 v=63
36096 On ch=1 n=62 v=66
36096 On ch=1 n=66 v=66
36096 On ch=1 n=69 v=66
36160 On ch=1 n=81 v=60
36161 Off ch=1 n=78 v=0
36161 Off ch=1 n=86 v=0
36224 On ch=1 n=78 v=58
36225 Off ch=1 n=81 v=0
36288 On ch=1 n=74 v=56
36289 Off ch=1 n=78 v=0
36352 On ch=1 n=78 v=64
36353 Off ch=1 n=74 v=0
36416 On ch=1 n=81 v=67
36417 Off ch=1 n=78 v=0
36476 Off ch=1 n=81 v=0
36480 On ch=1 n=78 v=65
36480 On ch=1 n=86 v=65
36544 On ch=1 n=81 v=63
36545 Off ch=1 n=78 v=0
36545 Off ch=1 n=86 v=0
36608 On ch=1 n=78 v=59
36609 Off ch=1 n=81 v=0
36672 On ch=1 n=74 v=56
36673 Off ch=1 n=78 v=0
36736 On ch=1 n=78 v=63
36737 Off ch=1 n=74 v=0
36800 On ch=1 n=81 v=64
36801 Off ch=1 n=78 v=0
36860 Off ch=1 n=81 v=0
36864 On ch=1 n=77 v=63
36864 On ch=1 n=85 v=63
36864 On ch=1 n=61 v=65
36864 On ch=1 n=65 v=65
36894 Off ch=1 n=62 v=0
36894 Off ch=1 n=66 v=0
36928 On ch=1 n=81 v=58
36929 Off ch=1 n=77 v=0
36929 Off ch=1 n=85 v=0
36992 On ch=1 n=77 v=56
36993 Off ch=1 n=81 v=0
37056 On ch=1 n=73 v=56
37057 Off ch=1 n=77 v=0
37120 On ch=1 n=77 v=62
37121 Off ch=1 n=73 v=0
37184 On ch=1 n=81 v=61
37185 Off ch=1 n=77 v=0
37244 Off ch=1 n=81 v=0
37248 On ch=1 n=77 v=57
37248 On ch=1 n=85 v=57
37312 On ch=1 n=81 v=54
37313 Off ch=1 n=77 v=0
37313 Off ch=1 n=85 v=0
37376 On ch=1 n=77 v=53
37377 Off ch=1 n=81 v=0
37440 On ch=1 n=73 v=49
37441 Off ch=1 n=77 v=0
37504 On ch=1 n=77 v=54
37505 Off ch=1 n=73 v=0
37556 Off ch=1 n=61 v=0
37556 Off ch=1 n=65 v=0
37568 On ch=1 n=81 v=57
37569 Off ch=1 n=77 v=0
37610 On ch=1 n=36 v=63
37628 Off ch=1 n=81 v=0
37632 On ch=1 n=77 v=52
37632 On ch=1 n=84 v=52
37632 On ch=1 n=60 v=53
37632 On ch=1 n=48 v=61
37632 Off ch=1 n=36 v=0
37693 Off ch=1 n=69 v=0
37696 On ch=1 n=81 v=51
37697 Off ch=1 n=77 v=0
37697 Off ch=1 n=84 v=0
37755 Off ch=1 n=60 v=0
37760 On ch=1 n=77 v=50
37760 On ch=1 n=57 v=61
37761 Off ch=1 n=81 v=0
37824 On ch=1 n=72 v=46
37825 Off ch=1 n=77 v=0
37888 On ch=1 n=77 v=54
37888 On ch=1 n=55 v=61
37889 Off ch=1 n=72 v=0
37890 Off ch=1 n=57 v=0
37952 On ch=1 n=81 v=56
37953 Off ch=1 n=77 v=0
38012 Off ch=1 n=81 v=0
38016 On ch=1 n=77 v=55
38016 On ch=1 n=84 v=55
38016 On ch=1 n=53 v=61
38018 Off ch=1 n=55 v=0
38080 On ch=1 n=81 v=52
38081 Off ch=1 n=77 v=0
38081 Off ch=1 n=84 v=0
38144 On ch=1 n=77 v=50
38144 On ch=1 n=55 v=61
38145 Off ch=1 n=81 v=0
38146 Off ch=1 n=53 v=0
38208 On ch=1 n=72 v=47
38209 Off ch=1 n=77 v=0
38272 On ch=1 n=77 v=53
38272 On ch=1 n=57 v=62
38273 Off ch=1 n=72 v=0
38274 Off ch=1 n=55 v=0
38336 On ch=1 n=81 v=55
38337 Off ch=1 n=77 v=0
38396 Off ch=1 n=81 v=0
38400 On ch=1 n=77 v=51
38400 On ch=1 n=84 v=51
38400 On ch=1 n=60 v=62
38402 Off ch=1 n=57 v=0
38464 On ch=1 n=81 v=49
38465 Off ch=1 n=77 v=0
38465 Off ch=1 n=84 v=0
38528 On ch=1 n=77 v=48
38528 On ch=1 n=57 v=60
38529 Off ch=1 n=81 v=0
38530 Off ch=1 n=60 v=0
38592 On ch=1 n=72 v=46
38593 Off ch=1 n=77 v=0
38656 On ch=1 n=77 v=54
38656 On ch=1 n=55 v=58
38657 Off ch=1 n=72 v=0
38658 Off ch=1 n=57 v=0
38720 On ch=1 n=81 v=55
38721 Off ch=1 n=77 v=0
38780 Off ch=1 n=81 v=0
38784 On ch=1 n=77 v=50
38784 On ch=1 n=84 v=50
38784 On ch=1 n=53 v=60
38786 Off ch=1 n=55 v=0
38848 On ch=1 n=81 v=49
38849 Off ch=1 n=77 v=0
38849 Off ch=1 n=84 v=0
38912 On ch=1 n=77 v=49
38912 On ch=1 n=55 v=61
38913 Off ch=1 n=81 v=0
38914 Off ch=1 n=53 v=0
38976 On ch=1 n=72 v=46
38976 On ch=1 n=57 v=63
38977 Off ch=1 n=77 v=0
38977 Off ch=1 n=55 v=0
39018 Off ch=1 n=48 v=0
39040 On ch=1 n=77 v=54
39040 On ch=1 n=55 v=60
39041 Off ch=1 n=72 v=0
39041 Off ch=1 n=57 v=0
39104 On ch=1 n=81 v=56
39104 On ch=1 n=57 v=62
39105 Off ch=1 n=77 v=0
39105 Off ch=1 n=55 v=0
39164 Off ch=1 n=81 v=0
39164 Off ch=1 n=57 v=0
39168 On ch=1 n=77 v=55
39168 On ch=1 n=84 v=55
39168 On ch=1 n=60 v=65
39168 On ch=1 n=48 v=65
39168 On ch=1 n=53 v=65
39168 On ch=1 n=57 v=65
39232 On ch=1 n=81 v=50
39233 Off ch=1 n=77 v=0
39233 Off ch=1 n=84 v=0
39296 On ch=1 n=77 v=50
39296 On ch=1 n=57 v=63
39297 Off ch=1 n=81 v=0
39298 Off ch=1 n=60 v=0
39360 On ch=1 n=72 v=53
39361 Off ch=1 n=77 v=0
39424 On ch=1 n=77 v=61
39424 On ch=1 n=60 v=72
39425 Off ch=1 n=72 v=0
39426 Off ch=1 n=57 v=0
39488 On ch=1 n=81 v=66
39489 Off ch=1 n=77 v=0
39548 Off ch=1 n=81 v=0
39552 On ch=1 n=77 v=64
39552 On ch=1 n=86 v=64
39552 Off ch=1 n=53 v=0
39552 Off ch=1 n=57 v=0
39552 On ch=1 n=62 v=76
39552 On ch=1 n=45 v=72
39554 Off ch=1 n=60 v=0
39559 Off ch=1 n=48 v=0
39569 On ch=1 n=53 v=72
39586 On ch=1 n=57 v=72
39616 On ch=1 n=81 v=55
39617 Off ch=1 n=77 v=0
39617 Off ch=1 n=86 v=0
39680 On ch=1 n=77 v=51
39680 On ch=1 n=57 v=67
39681 Off ch=1 n=81 v=0
39682 Off ch=1 n=62 v=0
39744 On ch=1 n=74 v=49
39745 Off ch=1 n=77 v=0
39808 On ch=1 n=77 v=51
39808 On ch=1 n=62 v=66
39809 Off ch=1 n=74 v=0
39810 Off ch=1 n=57 v=0
39872 On ch=1 n=81 v=55
39873 Off ch=1 n=77 v=0
39916 Off ch=1 n=45 v=0
39917 Off ch=1 n=53 v=0
39918 Off ch=1 n=57 v=0
39929 Off ch=1 n=62 v=0
39932 Off ch=1 n=81 v=0
39936 On ch=1 n=77 v=53
39936 On ch=1 n=84 v=53
39936 On ch=1 n=60 v=60
39936 On ch=1 n=48 v=61
39936 On ch=1 n=53 v=61
39936 On ch=1 n=57 v=61
40000 On ch=1 n=81 v=49
40001 Off ch=1 n=77 v=0
40001 Off ch=1 n=84 v=0
40064 On ch=1 n=77 v=50
40065 Off ch=1 n=81 v=0
40128 On ch=1 n=72 v=48
40129 Off ch=1 n=77 v=0
40192 On ch=1 n=77 v=53
40193 Off ch=1 n=72 v=0
40256 On ch=1 n=81 v=55
40257 Off ch=1 n=77 v=0
40316 Off ch=1 n=81 v=0
40320 On ch=1 n=77 v=52
40320 On ch=1 n=84 v=52
40384 On ch=1 n=81 v=52
40385 Off ch=1 n=77 v=0
40385 Off ch=1 n=84 v=0
40448 On ch=1 n=77 v=46
40448 Off ch=1 n=60 v=0
40448 Off ch=1 n=48 v=0
40448 Off ch=1 n=53 v=0
40448 Off ch=1 n=57 v=0
40449 Off ch=1 n=81 v=0
40512 On ch=1 n=72 v=43
40513 Off ch=1 n=77 v=0
40576 On ch=1 n=77 v=54
40577 Off ch=1 n=72 v=0
40640 On ch=1 n=81 v=58
40641 Off ch=1 n=77 v=0
40700 Off ch=1 n=81 v=0
40704 On ch=1 n=77 v=64
40704 On ch=1 n=84 v=64
40704 On ch=1 n=60 v=56
40704 On ch=1 n=65 v=56
40704 On ch=1 n=69 v=56
40768 On ch=1 n=81 v=64
40769 Off ch=1 n=77 v=0
40769 Off ch=1 n=84 v=0
40832 On ch=1 n=77 v=56
40833 Off ch=1 n=81 v=0
40896 On ch=1 n=72 v=53
40897 Off ch=1 n=77 v=0
40960 On ch=1 n=77 v=65
40961 Off ch=1 n=72 v=0
41024 On ch=1 n=81 v=67
41025 Off ch=1 n=77 v=0
41084 Off ch=1 n=81 v=0
41088 On ch=1 n=77 v=63
41088 On ch=1 n=84 v=63
41152 On ch=1 n=81 v=60
41153 Off ch=1 n=77 v=0
41153 Off ch=1 n=84 v=0
41216 On ch=1 n=77 v=59
41217 Off ch=1 n=81 v=0
41280 On ch=1 n=72 v=55
41281 Off ch=1 n=77 v=0
41344 On ch=1 n=77 v=65
41345 Off ch=1 n=72 v=0
41408 On ch=1 n=81 v=66
41409 Off ch=1 n=77 v=0
41468 Off ch=1 n=81 v=0
41472 On ch=1 n=76 v=66
41472 On ch=1 n=84 v=66
41472 On ch=1 n=64 v=53
41472 On ch=1 n=68 v=53
41487 Off ch=1 n=65 v=0
41487 Off ch=1 n=69 v=0
41536 On ch=1 n=80 v=61
41537 Off ch=1 n=76 v=0
41537 Off ch=1 n=84 v=0
41600 On ch=1 n=76 v=56
41601 Off ch=1 n=80 v=0
41664 On ch=1 n=72 v=56
41665 Off ch=1 n=76 v=0
41728 On ch=1 n=76 v=60
41729 Off ch=1 n=72 v=0
41792 On ch=1 n=80 v=59
41793 Off ch=1 n=76 v=0
41852 Off ch=1 n=80 v=0
41856 On ch=1 n=76 v=61
41856 On ch=1 n=84 v=61
41920 On ch=1 n=80 v=52
41921 Off ch=1 n=76 v=0
41921 Off ch=1 n=84 v=0
41984 On ch=1 n=76 v=52
41985 Off ch=1 n=80 v=0
42048 On ch=1 n=72 v=49
42049 Off ch=1 n=76 v=0
42112 On ch=1 n=76 v=57
42113 Off ch=1 n=72 v=0
42176 On ch=1 n=80 v=52
42177 Off ch=1 n=76 v=0
42201 Off ch=1 n=64 v=0
42201 Off ch=1 n=68 v=0
42219 On ch=1 n=35 v=67
42236 Off ch=1 n=80 v=0
42240 On ch=1 n=76 v=54
42240 On ch=1 n=83 v=54
42240 On ch=1 n=59 v=58
42240 On ch=1 n=47 v=61
42240 Off ch=1 n=35 v=0
42270 Off ch=1 n=60 v=0
42304 On ch=1 n=80 v=54
42305 Off ch=1 n=76 v=0
42305 Off ch=1 n=83 v=0
42363 Off ch=1 n=59 v=0
42368 On ch=1 n=76 v=50
42368 On ch=1 n=56 v=59
42369 Off ch=1 n=80 v=0
42432 On ch=1 n=71 v=47
42433 Off ch=1 n=76 v=0
42496 On ch=1 n=76 v=51
42496 On ch=1 n=54 v=57
42497 Off ch=1 n=71 v=0
42498 Off ch=1 n=56 v=0
42560 On ch=1 n=80 v=55
42561 Off ch=1 n=76 v=0
42620 Off ch=1 n=80 v=0
42624 On ch=1 n=76 v=52
42624 On ch=1 n=83 v=52
42624 On ch=1 n=52 v=63
42626 Off ch=1 n=54 v=0
42688 On ch=1 n=80 v=50
42689 Off ch=1 n=76 v=0
42689 Off ch=1 n=83 v=0
42752 On ch=1 n=76 v=47
42752 On ch=1 n=54 v=66
42753 Off ch=1 n=80 v=0
42754 Off ch=1 n=52 v=0
42816 On ch=1 n=71 v=44
42817 Off ch=1 n=76 v=0
42880 On ch=1 n=76 v=57
42880 On ch=1 n=56 v=62
42881 Off ch=1 n=71 v=0
42882 Off ch=1 n=54 v=0
42944 On ch=1 n=80 v=58
42945 Off ch=1 n=76 v=0
43004 Off ch=1 n=80 v=0
43008 On ch=1 n=76 v=51
43008 On ch=1 n=83 v=51
43008 On ch=1 n=59 v=62
43010 Off ch=1 n=56 v=0
43072 On ch=1 n=80 v=47
43073 Off ch=1 n=76 v=0
43073 Off ch=1 n=83 v=0
43136 On ch=1 n=76 v=47
43136 On ch=1 n=56 v=59
43137 Off ch=1 n=80 v=0
43138 Off ch=1 n=59 v=0
43200 On ch=1 n=71 v=44
43201 Off ch=1 n=76 v=0
43264 On ch=1 n=76 v=52
43264 On ch=1 n=54 v=60
43265 Off ch=1 n=71 v=0
43266 Off ch=1 n=56 v=0
43328 On ch=1 n=80 v=55
43329 Off ch=1 n=76 v=0
43388 Off ch=1 n=80 v=0
43392 On ch=1 n=76 v=51
43392 On ch=1 n=83 v=51
43392 On ch=1 n=52 v=59
43394 Off ch=1 n=54 v=0
43456 On ch=1 n=80 v=50
43457 Off ch=1 n=76 v=0
43457 Off ch=1 n=83 v=0
43520 On ch=1 n=76 v=49
43520 On ch=1 n=54 v=60
43521 Off ch=1 n=80 v=0
43522 Off ch=1 n=52 v=0
43584 On ch=1 n=71 v=45
43584 On ch=1 n=56 v=62
43585 Off ch=1 n=76 v=0
43585 Off ch=1 n=54 v=0
43626 Off ch=1 n=47 v=0
43648 On ch=1 n=76 v=55
43648 On ch=1 n=54 v=60
43649 Off ch=1 n=71 v=0
43649 Off ch=1 n=56 v=0
43712 On ch=1 n=80 v=56
43712 On ch=1 n=56 v=63
43713 Off ch=1 n=76 v=0
43713 Off ch=1 n=54 v=0
43772 Off ch=1 n=80 v=0
43772 Off ch=1 n=56 v=0
43776 On ch=1 n=76 v=53
43776 On ch=1 n=83 v=53
43776 On ch=1 n=59 v=64
43776 On ch=1 n=47 v=66
43776 On ch=1 n=52 v=66
43776 On ch=1 n=56 v=66
43840 On ch=1 n=80 v=50
43841 Off ch=1 n=76 v=0
43841 Off ch=1 n=83 v=0
43904 On ch=1 n=76 v=51
43904 On ch=1 n=56 v=63
43905 Off ch=1 n=80 v=0
43906 Off ch=1 n=59 v=0
43968 On ch=1 n=71 v=51
43969 Off ch=1 n=76 v=0
44032 On ch=1 n=76 v=60
44032 On ch=1 n=59 v=70
44033 Off ch=1 n=71 v=0
44034 Off ch=1 n=56 v=0
44096 On ch=1 n=80 v=65
44097 Off ch=1 n=76 v=0
44156 Off ch=1 n=80 v=0
44160 On ch=1 n=76 v=65
44160 On ch=1 n=85 v=65
44160 Off ch=1 n=52 v=0
44160 Off ch=1 n=56 v=0
44160 On ch=1 n=61 v=74
44160 On ch=1 n=44 v=73
44162 Off ch=1 n=59 v=0
44167 Off ch=1 n=47 v=0
44177 On ch=1 n=52 v=73
44194 On ch=1 n=56 v=73
44224 On ch=1 n=80 v=56
44225 Off ch=1 n=76 v=0
44225 Off ch=1 n=85 v=0
44288 On ch=1 n=76 v=50
44288 On ch=1 n=56 v=66
44289 Off ch=1 n=80 v=0
44290 Off ch=1 n=61 v=0
44352 On ch=1 n=73 v=49
44353 Off ch=1 n=76 v=0
44416 On ch=1 n=76 v=49
44416 On ch=1 n=61 v=65
44417 Off ch=1 n=73 v=0
44418 Off ch=1 n=56 v=0
44480 On ch=1 n=80 v=53
44481 Off ch=1 n=76 v=0
44524 Off ch=1 n=44 v=0
44525 Off ch=1 n=52 v=0
44526 Off ch=1 n=56 v=0
44537 Off ch=1 n=61 v=0
44540 Off ch=1 n=80 v=0
44544 On ch=1 n=76 v=54
44544 On ch=1 n=83 v=54
44544 On ch=1 n=59 v=58
44544 On ch=1 n=47 v=62
44544 On ch=1 n=52 v=62
44544 On ch=1 n=56 v=62
44608 On ch=1 n=80 v=55
44609 Off ch=1 n=76 v=0
44609 Off ch=1 n=83 v=0
44672 On ch=1 n=76 v=47
44673 Off ch=1 n=80 v=0
44736 On ch=1 n=71 v=43
44737 Off ch=1 n=76 v=0
44800 On ch=1 n=76 v=53
44801 Off ch=1 n=71 v=0
44864 On ch=1 n=80 v=55
44865 Off ch=1 n=76 v=0
44924 Off ch=1 n=80 v=0
44928 On ch=1 n=76 v=53
44928 On ch=1 n=83 v=53
44992 On ch=1 n=80 v=52
44993 Off ch=1 n=76 v=0
44993 Off ch=1 n=83 v=0
45056 On ch=1 n=76 v=48
45056 Off ch=1 n=59 v=0
45056 Off ch=1 n=47 v=0
45056 Off ch=1 n=52 v=0
45056 Off ch=1 n=56 v=0
45057 Off ch=1 n=80 v=0
45120 On ch=1 n=71 v=46
45121 Off ch=1 n=76 v=0
45184 On ch=1 n=76 v=53
45185 Off ch=1 n=71 v=0
45248 On ch=1 n=80 v=57
45249 Off ch=1 n=76 v=0
45308 Off ch=1 n=80 v=0
45312 On ch=1 n=76 v=55
45312 On ch=1 n=85 v=55
45312 On ch=1 n=61 v=58
45312 On ch=1 n=44 v=55
45329 On ch=1 n=52 v=55
45346 On ch=1 n=56 v=55
45376 On ch=1 n=80 v=53
45377 Off ch=1 n=76 v=0
45377 Off ch=1 n=85 v=0
45440 On ch=1 n=76 v=47
45440 On ch=1 n=56 v=57
45441 Off ch=1 n=80 v=0
45442 Off ch=1 n=61 v=0
45504 On ch=1 n=73 v=50
45505 Off ch=1 n=76 v=0
45568 On ch=1 n=76 v=48
45568 On ch=1 n=61 v=62
45569 Off ch=1 n=73 v=0
45570 Off ch=1 n=56 v=0
45632 On ch=1 n=80 v=50
45633 Off ch=1 n=76 v=0
45676 Off ch=1 n=44 v=0
45677 Off ch=1 n=52 v=0
45678 Off ch=1 n=56 v=0
45689 Off ch=1 n=61 v=0
45692 Off ch=1 n=80 v=0
45696 On ch=1 n=76 v=51
45696 On ch=1 n=83 v=51
45696 On ch=1 n=59 v=60
45696 On ch=1 n=47 v=59
45696 On ch=1 n=52 v=59
45696 On ch=1 n=56 v=59
45760 On ch=1 n=80 v=43
45761 Off ch=1 n=76 v=0
45761 Off ch=1 n=83 v=0
45824 On ch=1 n=76 v=40
45825 Off ch=1 n=80 v=0
45888 On ch=1 n=71 v=35
45889 Off ch=1 n=76 v=0
45952 On ch=1 n=76 v=47
45952 Off ch=1 n=59 v=0
45952 Off ch=1 n=47 v=0
45952 Off ch=1 n=52 v=0
45952 Off ch=1 n=56 v=0
45953 Off ch=1 n=71 v=0
46016 On ch=1 n=80 v=48
46017 Off ch=1 n=76 v=0
46076 Off ch=1 n=80 v=0
46080 On ch=1 n=76 v=45
46080 On ch=1 n=85 v=45
46080 On ch=1 n=61 v=54
46080 On ch=1 n=44 v=57
46097 On ch=1 n=52 v=57
46114 On ch=1 n=56 v=57
46144 On ch=1 n=80 v=44
46145 Off ch=1 n=76 v=0
46145 Off ch=1 n=85 v=0
46208 On ch=1 n=76 v=43
46208 On ch=1 n=56 v=53
46209 Off ch=1 n=80 v=0
46210 Off ch=1 n=61 v=0
46272 On ch=1 n=73 v=41
46273 Off ch=1 n=76 v=0
46336 On ch=1 n=76 v=43
46336 On ch=1 n=61 v=66
46337 Off ch=1 n=73 v=0
46338 Off ch=1 n=56 v=0
46400 On ch=1 n=80 v=45
46401 Off ch=1 n=76 v=0
46444 Off ch=1 n=44 v=0
46445 Off ch=1 n=52 v=0
46446 Off ch=1 n=56 v=0
46457 Off ch=1 n=61 v=0
46460 Off ch=1 n=80 v=0
46464 On ch=1 n=76 v=43
46464 On ch=1 n=83 v=43
46464 On ch=1 n=59 v=61
46464 On ch=1 n=47 v=59
46464 On ch=1 n=52 v=59
46464 On ch=1 n=56 v=59
46528 On ch=1 n=80 v=41
46529 Off ch=1 n=76 v=0
46529 Off ch=1 n=83 v=0
46592 On ch=1 n=76 v=41
46593 Off ch=1 n=80 v=0
46656 On ch=1 n=71 v=39
46657 Off ch=1 n=76 v=0
46720 On ch=1 n=76 v=46
46720 Off ch=1 n=59 v=0
46720 Off ch=1 n=47 v=0
46720 Off ch=1 n=52 v=0
46720 Off ch=1 n=56 v=0
46721 Off ch=1 n=71 v=0
46784 On ch=1 n=80 v=47
46785 Off ch=1 n=76 v=0
46844 Off ch=1 n=80 v=0
46848 On ch=1 n=76 v=47
46848 On ch=1 n=85 v=47
46848 On ch=1 n=61 v=56
46848 On ch=1 n=44 v=56
46848 On ch=1 n=52 v=56
46848 On ch=1 n=56 v=56
46912 On ch=1 n=80 v=44
46913 Off ch=1 n=76 v=0
46913 Off ch=1 n=85 v=0
46976 On ch=1 n=76 v=43
46977 Off ch=1 n=80 v=0
47040 On ch=1 n=73 v=39
47041 Off ch=1 n=76 v=0
47104 On ch=1 n=76 v=45
47105 Off ch=1 n=73 v=0
47168 On ch=1 n=80 v=47
47169 Off ch=1 n=76 v=0
47228 Off ch=1 n=80 v=0
47232 On ch=1 n=76 v=45
47232 On ch=1 n=85 v=45
47296 On ch=1 n=80 v=42
47297 Off ch=1 n=76 v=0
47297 Off ch=1 n=85 v=0
47360 On ch=1 n=76 v=41
47361 Off ch=1 n=80 v=0
47424 On ch=1 n=73 v=41
47425 Off ch=1 n=76 v=0
47488 On ch=1 n=76 v=44
47489 Off ch=1 n=73 v=0
47500 Off ch=1 n=44 v=0
47500 Off ch=1 n=52 v=0
47500 Off ch=1 n=56 v=0
47552 On ch=1 n=80 v=48
47553 Off ch=1 n=76 v=0
47612 Off ch=1 n=80 v=0
47616 On ch=1 n=56 v=51
47631 Off ch=1 n=61 v=0
48000 On ch=1 n=61 v=63
48007 Off ch=1 n=56 v=0
48364 Off ch=1 n=61 v=0
48384 On ch=1 n=71 v=47
48384 On ch=1 n=64 v=43
48384 On ch=1 n=47 v=51
48384 On ch=1 n=56 v=51
48384 On ch=1 n=59 v=51
48512 On ch=1 n=68 v=44
48514 Off ch=1 n=71 v=0
48640 On ch=1 n=66 v=48
48642 Off ch=1 n=68 v=0
48768 Off ch=1 n=64 v=0
48768 On ch=1 n=64 v=47
48768 On ch=1 n=49 v=52
48768 On ch=1 n=57 v=52
48770 Off ch=1 n=66 v=0
48775 Off ch=1 n=47 v=0
48775 Off ch=1 n=56 v=0
48775 Off ch=1 n=59 v=0
48896 On ch=1 n=66 v=51
49024 On ch=1 n=68 v=54
49026 Off ch=1 n=66 v=0
49152 Off ch=1 n=64 v=0
49152 On ch=1 n=71 v=49
49152 On ch=1 n=64 v=50
49152 On ch=1 n=47 v=51
49152 On ch=1 n=56 v=51
49154 Off ch=1 n=68 v=0
49159 Off ch=1 n=49 v=0
49159 Off ch=1 n=57 v=0
49280 On ch=1 n=68 v=46
49282 Off ch=1 n=71 v=0
49408 On ch=1 n=66 v=48
49410 Off ch=1 n=68 v=0
49536 Off ch=1 n=64 v=0
49536 On ch=1 n=64 v=47
49536 On ch=1 n=45 v=52
49538 Off ch=1 n=66 v=0
49543 Off ch=1 n=47 v=0
49543 Off ch=1 n=56 v=0
49553 On ch=1 n=52 v=51
49570 On ch=1 n=61 v=51
49664 On ch=1 n=66 v=52
49724 Off ch=1 n=66 v=0
49728 On ch=1 n=68 v=55
49792 Off ch=1 n=68 v=0
49792 On ch=1 n=66 v=52
49856 Off ch=1 n=66 v=0
49856 On ch=1 n=68 v=52
49900 Off ch=1 n=64 v=0
49900 Off ch=1 n=45 v=0
49901 Off ch=1 n=52 v=0
49902 Off ch=1 n=61 v=0
49920 Off ch=1 n=68 v=0
49920 On ch=1 n=71 v=53
49920 On ch=1 n=64 v=50
49920 On ch=1 n=47 v=50
49920 On ch=1 n=52 v=50
49920 On ch=1 n=44 v=57
50048 On ch=1 n=68 v=50
50050 Off ch=1 n=71 v=0
50176 On ch=1 n=71 v=58
50178 Off ch=1 n=68 v=0
50304 On ch=1 n=73 v=58
50304 Off ch=1 n=44 v=0
50304 On ch=1 n=43 v=62
50306 Off ch=1 n=71 v=0
50432 On ch=1 n=70 v=53
50434 Off ch=1 n=73 v=0
50560 On ch=1 n=73 v=62
50562 Off ch=1 n=70 v=0
50688 On ch=1 n=75 v=61
50688 On ch=1 n=63 v=54
50688 On ch=1 n=69 v=54
50688 Off ch=1 n=47 v=0
50688 Off ch=1 n=52 v=0
50688 Off ch=1 n=43 v=0
50688 On ch=1 n=42 v=53
50690 Off ch=1 n=73 v=0
50703 Off ch=1 n=64 v=0
50704 On ch=1 n=47 v=53
50711 Off ch=1 n=75 v=0
50717 On ch=1 n=76 v=61
50720 On ch=1 n=57 v=53
50740 Off ch=1 n=76 v=0
50746 On ch=1 n=75 v=61
50769 Off ch=1 n=75 v=0
50775 On ch=1 n=76 v=61
50798 Off ch=1 n=76 v=0
50804 On ch=1 n=75 v=61
50827 Off ch=1 n=75 v=0
50832 On ch=1 n=76 v=61
50854 Off ch=1 n=76 v=0
50860 On ch=1 n=75 v=61
50882 Off ch=1 n=75 v=0
50888 On ch=1 n=76 v=61
50910 Off ch=1 n=76 v=0
50916 On ch=1 n=75 v=61
50931 Off ch=1 n=63 v=0
50931 Off ch=1 n=69 v=0
50938 Off ch=1 n=75 v=0
50943 On ch=1 n=76 v=61
50964 Off ch=1 n=76 v=0
50970 On ch=1 n=75 v=61
50991 Off ch=1 n=75 v=0
50997 On ch=1 n=76 v=61
51018 Off ch=1 n=76 v=0
51024 On ch=1 n=75 v=61
51045 Off ch=1 n=75 v=0
51050 On ch=1 n=76 v=61
51070 Off ch=1 n=76 v=0
51076 On ch=1 n=75 v=61
51096 Off ch=1 n=75 v=0
51102 On ch=1 n=76 v=61
51122 Off ch=1 n=76 v=0
51128 On ch=1 n=75 v=61
51148 Off ch=1 n=75 v=0
51154 On ch=1 n=76 v=61
51174 Off ch=1 n=76 v=0
51181 On ch=1 n=75 v=61
51202 Off ch=1 n=75 v=0
51208 On ch=1 n=76 v=61
51229 Off ch=1 n=76 v=0
51235 On ch=1 n=75 v=61
51256 Off ch=1 n=75 v=0
51262 On ch=1 n=76 v=61
51283 Off ch=1 n=76 v=0
51290 On ch=1 n=75 v=61
51312 Off ch=1 n=75 v=0
51318 On ch=1 n=76 v=61
51340 Off ch=1 n=76 v=0
51346 On ch=1 n=75 v=61
51368 Off ch=1 n=75 v=0
51374 On ch=1 n=76 v=61
51387 Off ch=1 n=76 v=0
51396 On ch=1 n=73 v=68
51426 Off ch=1 n=73 v=0
51426 On ch=1 n=75 v=68
51456 On ch=1 n=83 v=61
51456 Off ch=1 n=75 v=0
51456 On ch=1 n=76 v=59
51456 Off ch=1 n=42 v=0
51456 Off ch=1 n=47 v=0
51456 Off ch=1 n=57 v=0
51456 On ch=1 n=40 v=48
51473 On ch=1 n=47 v=48
51480 Off ch=1 n=83 v=0
51486 On ch=1 n=85 v=61
51490 On ch=1 n=56 v=48
51510 Off ch=1 n=85 v=0
51515 On ch=1 n=83 v=61
51538 Off ch=1 n=83 v=0
51543 On ch=1 n=85 v=61
51565 Off ch=1 n=85 v=0
51571 On ch=1 n=83 v=61
51584 Off ch=1 n=40 v=0
51584 Off ch=1 n=47 v=0
51584 Off ch=1 n=56 v=0
51584 On ch=1 n=59 v=58
51584 On ch=1 n=66 v=58
51593 Off ch=1 n=83 v=0
51598 On ch=1 n=85 v=61
51619 Off ch=1 n=85 v=0
51626 On ch=1 n=83 v=61
51648 Off ch=1 n=83 v=0
51654 On ch=1 n=85 v=61
51676 Off ch=1 n=85 v=0
51679 On ch=1 n=82 v=63
51696 On ch=1 n=83 v=63
51699 Off ch=1 n=76 v=0
51712 Off ch=1 n=82 v=0
51712 Off ch=1 n=83 v=0
51712 On ch=1 n=64 v=61
51712 On ch=1 n=68 v=61
51714 Off ch=1 n=59 v=0
51714 Off ch=1 n=66 v=0
51772 Off ch=1 n=64 v=0
51772 Off ch=1 n=68 v=0
51840 On ch=1 n=83 v=56
51840 On ch=1 n=76 v=54
51840 On ch=1 n=64 v=52
51840 On ch=1 n=68 v=52
51864 Off ch=1 n=83 v=0
51870 On ch=1 n=85 v=56
51894 Off ch=1 n=85 v=0
51899 On ch=1 n=83 v=56
51922 Off ch=1 n=83 v=0
51927 On ch=1 n=85 v=56
51949 Off ch=1 n=85 v=0
51955 On ch=1 n=83 v=56
51968 On ch=1 n=59 v=49
51968 On ch=1 n=66 v=49
51970 Off ch=1 n=64 v=0
51970 Off ch=1 n=68 v=0
51977 Off ch=1 n=83 v=0
51982 On ch=1 n=85 v=56
52003 Off ch=1 n=85 v=0
52010 On ch=1 n=83 v=56
52032 Off ch=1 n=83 v=0
52038 On ch=1 n=85 v=56
52060 Off ch=1 n=85 v=0
52066 On ch=1 n=82 v=64
52081 On ch=1 n=83 v=64
52083 Off ch=1 n=76 v=0
52096 Off ch=1 n=82 v=0
52096 Off ch=1 n=83 v=0
52096 On ch=1 n=64 v=51
52096 On ch=1 n=68 v=51
52098 Off ch=1 n=59 v=0
52098 Off ch=1 n=66 v=0
52156 Off ch=1 n=64 v=0
52156 Off ch=1 n=68 v=0
52224 On ch=1 n=83 v=56
52224 On ch=1 n=76 v=58
52224 On ch=1 n=64 v=51
52224 On ch=1 n=68 v=51
52248 Off ch=1 n=83 v=0
52254 On ch=1 n=85 v=56
52278 Off ch=1 n=85 v=0
52283 On ch=1 n=83 v=56
52306 Off ch=1 n=83 v=0
52311 On ch=1 n=85 v=56
52333 Off ch=1 n=85 v=0
52339 On ch=1 n=83 v=56
52352 On ch=1 n=59 v=51
52352 On ch=1 n=66 v=51
52354 Off ch=1 n=64 v=0
52354 Off ch=1 n=68 v=0
52361 Off ch=1 n=83 v=0
52366 On ch=1 n=85 v=56
52387 Off ch=1 n=85 v=0
52394 On ch=1 n=83 v=56
52416 Off ch=1 n=83 v=0
52422 On ch=1 n=85 v=56
52444 Off ch=1 n=85 v=0
52451 On ch=1 n=83 v=56
52452 Off ch=1 n=83 v=0
52452 On ch=1 n=82 v=62
52467 Off ch=1 n=76 v=0
52468 On ch=1 n=83 v=62
52480 Off ch=1 n=82 v=0
52480 Off ch=1 n=83 v=0
52480 On ch=1 n=64 v=55
52480 On ch=1 n=68 v=55
52482 Off ch=1 n=59 v=0
52482 Off ch=1 n=66 v=0
52540 Off ch=1 n=64 v=0
52540 Off ch=1 n=68 v=0
52608 On ch=1 n=83 v=55
52608 On ch=1 n=76 v=57
52608 On ch=1 n=64 v=51
52608 On ch=1 n=68 v=51
52632 Off ch=1 n=83 v=0
52638 On ch=1 n=85 v=55
52662 Off ch=1 n=85 v=0
52667 On ch=1 n=83 v=55
52690 Off ch=1 n=83 v=0
52695 On ch=1 n=85 v=55
52717 Off ch=1 n=85 v=0
52723 On ch=1 n=83 v=55
52736 On ch=1 n=59 v=49
52736 On ch=1 n=66 v=49
52738 Off ch=1 n=64 v=0
52738 Off ch=1 n=68 v=0
52745 Off ch=1 n=83 v=0
52750 On ch=1 n=85 v=55
52771 Off ch=1 n=85 v=0
52778 On ch=1 n=83 v=55
52800 Off ch=1 n=83 v=0
52806 On ch=1 n=85 v=55
52828 Off ch=1 n=85 v=0
52831 On ch=1 n=82 v=63
52848 On ch=1 n=83 v=63
52851 Off ch=1 n=76 v=0
52864 Off ch=1 n=82 v=0
52864 Off ch=1 n=83 v=0
52864 On ch=1 n=64 v=53
52864 On ch=1 n=68 v=53
52866 Off ch=1 n=59 v=0
52866 Off ch=1 n=66 v=0
52924 Off ch=1 n=64 v=0
52924 Off ch=1 n=68 v=0
52992 On ch=1 n=71 v=55
52992 On ch=1 n=64 v=54
52992 On ch=1 n=47 v=48
52992 On ch=1 n=52 v=48
52992 On ch=1 n=44 v=60
53120 On ch=1 n=68 v=53
53122 Off ch=1 n=71 v=0
53248 On ch=1 n=71 v=62
53250 Off ch=1 n=68 v=0
53376 On ch=1 n=73 v=64
53376 Off ch=1 n=44 v=0
53376 On ch=1 n=43 v=63
53378 Off ch=1 n=71 v=0
53504 On ch=1 n=70 v=61
53506 Off ch=1 n=73 v=0
53632 On ch=1 n=73 v=62
53634 Off ch=1 n=70 v=0
53760 On ch=1 n=75 v=61
53760 On ch=1 n=63 v=57
53760 On ch=1 n=69 v=57
53760 Off ch=1 n=47 v=0
53760 Off ch=1 n=52 v=0
53760 Off ch=1 n=43 v=0
53760 On ch=1 n=42 v=50
53762 Off ch=1 n=73 v=0
53775 Off ch=1 n=64 v=0
53776 On ch=1 n=47 v=50
53783 Off ch=1 n=75 v=0
53789 On ch=1 n=76 v=61
53792 On ch=1 n=57 v=50
53812 Off ch=1 n=76 v=0
53818 On ch=1 n=75 v=61
53841 Off ch=1 n=75 v=0
53847 On ch=1 n=76 v=61
53870 Off ch=1 n=76 v=0
53876 On ch=1 n=75 v=61
53899 Off ch=1 n=75 v=0
53904 On ch=1 n=76 v=61
53926 Off ch=1 n=76 v=0
53932 On ch=1 n=75 v=61
53954 Off ch=1 n=75 v=0
53960 On ch=1 n=76 v=61
53982 Off ch=1 n=76 v=0
53988 On ch=1 n=75 v=61
54003 Off ch=1 n=63 v=0
54003 Off ch=1 n=69 v=0
54010 Off ch=1 n=75 v=0
54015 On ch=1 n=76 v=61
54036 Off ch=1 n=76 v=0
54042 On ch=1 n=75 v=61
54063 Off ch=1 n=75 v=0
54069 On ch=1 n=76 v=61
54090 Off ch=1 n=76 v=0
54096 On ch=1 n=75 v=61
54117 Off ch=1 n=75 v=0
54122 On ch=1 n=76 v=61
54142 Off ch=1 n=76 v=0
54148 On ch=1 n=75 v=61
54168 Off ch=1 n=75 v=0
54174 On ch=1 n=76 v=61
54194 Off ch=1 n=76 v=0
54200 On ch=1 n=75 v=61
54220 Off ch=1 n=75 v=0
54226 On ch=1 n=76 v=61
54246 Off ch=1 n=76 v=0
54253 On ch=1 n=75 v=61
54274 Off ch=1 n=75 v=0
54280 On ch=1 n=76 v=61
54301 Off ch=1 n=76 v=0
54307 On ch=1 n=75 v=61
54328 Off ch=1 n=75 v=0
54334 On ch=1 n=76 v=61
54355 Off ch=1 n=76 v=0
54362 On ch=1 n=75 v=61
54384 Off ch=1 n=75 v=0
54390 On ch=1 n=76 v=61
54412 Off ch=1 n=76 v=0
54418 On ch=1 n=75 v=61
54440 Off ch=1 n=75 v=0
54446 On ch=1 n=76 v=61
54459 Off ch=1 n=76 v=0
54468 On ch=1 n=73 v=68
54498 Off ch=1 n=73 v=0
54498 On ch=1 n=75 v=68
54528 On ch=1 n=83 v=61
54528 Off ch=1 n=75 v=0
54528 On ch=1 n=76 v=58
54528 Off ch=1 n=42 v=0
54528 Off ch=1 n=47 v=0
54528 Off ch=1 n=57 v=0
54528 On ch=1 n=40 v=50
54545 On ch=1 n=47 v=50
54552 Off ch=1 n=83 v=0
54558 On ch=1 n=85 v=61
54562 On ch=1 n=56 v=50
54582 Off ch=1 n=85 v=0
54587 On ch=1 n=83 v=61
54610 Off ch=1 n=83 v=0
54615 On ch=1 n=85 v=61
54637 Off ch=1 n=85 v=0
54643 On ch=1 n=83 v=61
54656 Off ch=1 n=40 v=0
54656 Off ch=1 n=47 v=0
54656 Off ch=1 n=56 v=0
54656 On ch=1 n=59 v=57
54656 On ch=1 n=66 v=57
54665 Off ch=1 n=83 v=0
54670 On ch=1 n=85 v=61
54691 Off ch=1 n=85 v=0
54698 On ch=1 n=83 v=61
54720 Off ch=1 n=83 v=0
54726 On ch=1 n=85 v=61
54748 Off ch=1 n=85 v=0
54755 On ch=1 n=83 v=61
54757 Off ch=1 n=83 v=0
54757 On ch=1 n=82 v=62
54771 Off ch=1 n=76 v=0
54772 On ch=1 n=83 v=62
54784 Off ch=1 n=82 v=0
54784 Off ch=1 n=83 v=0
54784 On ch=1 n=64 v=60
54784 On ch=1 n=68 v=60
54786 Off ch=1 n=59 v=0
54786 Off ch=1 n=66 v=0
54844 Off ch=1 n=64 v=0
54844 Off ch=1 n=68 v=0
54912 On ch=1 n=83 v=54
54912 On ch=1 n=76 v=56
54912 On ch=1 n=64 v=50
54912 On ch=1 n=68 v=50
54936 Off ch=1 n=83 v=0
54942 On ch=1 n=85 v=54
54966 Off ch=1 n=85 v=0
54971 On ch=1 n=83 v=54
54994 Off ch=1 n=83 v=0
54999 On ch=1 n=85 v=54
55021 Off ch=1 n=85 v=0
55027 On ch=1 n=83 v=54
55040 On ch=1 n=59 v=49
55040 On ch=1 n=66 v=49
55042 Off ch=1 n=64 v=0
55042 Off ch=1 n=68 v=0
55049 Off ch=1 n=83 v=0
55054 On ch=1 n=85 v=54
55075 Off ch=1 n=85 v=0
55082 On ch=1 n=83 v=54
55104 Off ch=1 n=83 v=0
55110 On ch=1 n=85 v=54
55132 Off ch=1 n=85 v=0
55139 On ch=1 n=83 v=54
55142 Off ch=1 n=83 v=0
55142 On ch=1 n=82 v=64
55155 Off ch=1 n=76 v=0
55160 On ch=1 n=83 v=64
55168 Off ch=1 n=82 v=0
55168 Off ch=1 n=83 v=0
55168 On ch=1 n=64 v=55
55168 On ch=1 n=68 v=55
55170 Off ch=1 n=59 v=0
55170 Off ch=1 n=66 v=0
55228 Off ch=1 n=64 v=0
55228 Off ch=1 n=68 v=0
55296 On ch=1 n=75 v=56
55296 On ch=1 n=63 v=56
55296 On ch=1 n=69 v=56
55296 On ch=1 n=42 v=47
55313 On ch=1 n=47 v=47
55319 Off ch=1 n=75 v=0
55325 On ch=1 n=76 v=56
55330 On ch=1 n=57 v=47
55348 Off ch=1 n=76 v=0
55354 On ch=1 n=75 v=56
55377 Off ch=1 n=75 v=0
55383 On ch=1 n=76 v=56
55406 Off ch=1 n=76 v=0
55412 On ch=1 n=75 v=56
55435 Off ch=1 n=75 v=0
55440 On ch=1 n=76 v=56
55462 Off ch=1 n=76 v=0
55468 On ch=1 n=75 v=56
55490 Off ch=1 n=75 v=0
55496 On ch=1 n=76 v=56
55518 Off ch=1 n=76 v=0
55524 On ch=1 n=75 v=56
55546 Off ch=1 n=75 v=0
55551 On ch=1 n=76 v=56
55552 Off ch=1 n=63 v=0
55552 Off ch=1 n=69 v=0
55572 Off ch=1 n=76 v=0
55578 On ch=1 n=75 v=56
55599 Off ch=1 n=75 v=0
55605 On ch=1 n=76 v=56
55626 Off ch=1 n=76 v=0
55632 On ch=1 n=75 v=56
55653 Off ch=1 n=75 v=0
55658 On ch=1 n=76 v=56
55678 Off ch=1 n=76 v=0
55684 On ch=1 n=75 v=56
55704 Off ch=1 n=75 v=0
55710 On ch=1 n=76 v=56
55730 Off ch=1 n=76 v=0
55736 On ch=1 n=75 v=56
55756 Off ch=1 n=75 v=0
55762 On ch=1 n=76 v=56
55782 Off ch=1 n=76 v=0
55789 On ch=1 n=75 v=56
55810 Off ch=1 n=75 v=0
55816 On ch=1 n=76 v=56
55837 Off ch=1 n=76 v=0
55843 On ch=1 n=75 v=56
55864 Off ch=1 n=75 v=0
55870 On ch=1 n=76 v=56
55891 Off ch=1 n=76 v=0
55898 On ch=1 n=75 v=56
55920 Off ch=1 n=75 v=0
55926 On ch=1 n=76 v=56
55948 Off ch=1 n=76 v=0
55954 On ch=1 n=75 v=56
55976 Off ch=1 n=75 v=0
55982 On ch=1 n=76 v=56
55995 Off ch=1 n=76 v=0
56004 On ch=1 n=73 v=68
56034 Off ch=1 n=73 v=0
56034 On ch=1 n=75 v=68
56064 On ch=1 n=83 v=61
56064 Off ch=1 n=75 v=0
56064 On ch=1 n=76 v=53
56064 Off ch=1 n=42 v=0
56064 Off ch=1 n=47 v=0
56064 Off ch=1 n=57 v=0
56064 On ch=1 n=40 v=48
56081 On ch=1 n=47 v=48
56088 Off ch=1 n=83 v=0
56094 On ch=1 n=85 v=61
56098 On ch=1 n=56 v=48
56118 Off ch=1 n=85 v=0
56123 On ch=1 n=83 v=61
56146 Off ch=1 n=83 v=0
56151 On ch=1 n=85 v=61
56173 Off ch=1 n=85 v=0
56179 On ch=1 n=83 v=61
56192 Off ch=1 n=40 v=0
56192 Off ch=1 n=47 v=0
56192 Off ch=1 n=56 v=0
56192 On ch=1 n=59 v=53
56192 On ch=1 n=66 v=53
56201 Off ch=1 n=83 v=0
56206 On ch=1 n=85 v=61
56227 Off ch=1 n=85 v=0
56234 On ch=1 n=83 v=61
56256 Off ch=1 n=83 v=0
56262 On ch=1 n=85 v=61
56284 Off ch=1 n=85 v=0
56285 On ch=1 n=82 v=62
56301 On ch=1 n=83 v=62
56307 Off ch=1 n=76 v=0
56320 Off ch=1 n=82 v=0
56320 Off ch=1 n=83 v=0
56320 On ch=1 n=64 v=55
56320 On ch=1 n=68 v=55
56322 Off ch=1 n=59 v=0
56322 Off ch=1 n=66 v=0
56380 Off ch=1 n=64 v=0
56380 Off ch=1 n=68 v=0
56448 On ch=1 n=75 v=56
56448 On ch=1 n=63 v=56
56448 On ch=1 n=69 v=56
56448 On ch=1 n=42 v=50
56465 On ch=1 n=47 v=50
56471 Off ch=1 n=75 v=0
56477 On ch=1 n=76 v=56
56482 On ch=1 n=57 v=50
56500 Off ch=1 n=76 v=0
56505 On ch=1 n=75 v=56
56527 Off ch=1 n=75 v=0
56533 On ch=1 n=76 v=56
56555 Off ch=1 n=76 v=0
56560 On ch=1 n=75 v=56
56581 Off ch=1 n=75 v=0
56587 On ch=1 n=76 v=56
56608 Off ch=1 n=76 v=0
56613 On ch=1 n=75 v=56
56633 Off ch=1 n=75 v=0
56639 On ch=1 n=76 v=56
56659 Off ch=1 n=76 v=0
56666 On ch=1 n=75 v=56
56687 Off ch=1 n=75 v=0
56693 On ch=1 n=76 v=56
56704 Off ch=1 n=63 v=0
56704 Off ch=1 n=69 v=0
56704 Off ch=1 n=42 v=0
56704 Off ch=1 n=47 v=0
56704 Off ch=1 n=57 v=0
56714 Off ch=1 n=76 v=0
56721 On ch=1 n=75 v=56
56743 Off ch=1 n=75 v=0
56749 On ch=1 n=76 v=56
56771 Off ch=1 n=76 v=0
56772 On ch=1 n=73 v=67
56802 Off ch=1 n=73 v=0
56802 On ch=1 n=75 v=67
56832 On ch=1 n=83 v=61
56832 Off ch=1 n=75 v=0
56832 On ch=1 n=76 v=56
56832 On ch=1 n=40 v=47
56849 On ch=1 n=47 v=47
56856 Off ch=1 n=83 v=0
56862 On ch=1 n=85 v=61
56866 On ch=1 n=56 v=47
56886 Off ch=1 n=85 v=0
56891 On ch=1 n=83 v=61
56914 Off ch=1 n=83 v=0
56919 On ch=1 n=85 v=61
56941 Off ch=1 n=85 v=0
56947 On ch=1 n=83 v=61
56960 Off ch=1 n=40 v=0
56960 Off ch=1 n=47 v=0
56960 Off ch=1 n=56 v=0
56960 On ch=1 n=59 v=56
56960 On ch=1 n=66 v=56
56969 Off ch=1 n=83 v=0
56974 On ch=1 n=85 v=61
56995 Off ch=1 n=85 v=0
57002 On ch=1 n=83 v=61
57024 Off ch=1 n=83 v=0
57030 On ch=1 n=85 v=61
57052 Off ch=1 n=85 v=0
57059 On ch=1 n=83 v=61
57066 Off ch=1 n=83 v=0
57066 On ch=1 n=82 v=62
57075 Off ch=1 n=76 v=0
57080 On ch=1 n=83 v=62
57088 Off ch=1 n=82 v=0
57088 Off ch=1 n=83 v=0
57088 On ch=1 n=64 v=58
57088 On ch=1 n=68 v=58
57090 Off ch=1 n=59 v=0
57090 Off ch=1 n=66 v=0
57148 Off ch=1 n=64 v=0
57148 Off ch=1 n=68 v=0
57216 On ch=1 n=75 v=57
57216 On ch=1 n=63 v=56
57216 On ch=1 n=69 v=56
57216 On ch=1 n=42 v=49
57230 On ch=1 n=47 v=49
57236 Off ch=1 n=75 v=0
57241 On ch=1 n=76 v=57
57244 On ch=1 n=57 v=49
57261 Off ch=1 n=76 v=0
57265 On ch=1 n=75 v=57
57284 Off ch=1 n=75 v=0
57289 On ch=1 n=76 v=57
57308 Off ch=1 n=76 v=0
57313 On ch=1 n=75 v=57
57332 Off ch=1 n=75 v=0
57336 On ch=1 n=76 v=57
57354 Off ch=1 n=76 v=0
57359 On ch=1 n=75 v=57
57377 Off ch=1 n=75 v=0
57381 On ch=1 n=76 v=57
57398 Off ch=1 n=76 v=0
57403 On ch=1 n=75 v=57
57420 Off ch=1 n=75 v=0
57426 On ch=1 n=76 v=57
57444 Off ch=1 n=76 v=0
57449 On ch=1 n=75 v=57
57467 Off ch=1 n=75 v=0
57472 Off ch=1 n=63 v=0
57472 Off ch=1 n=69 v=0
57472 On ch=1 n=73 v=51
57472 Off ch=1 n=42 v=0
57472 Off ch=1 n=47 v=0
57472 Off ch=1 n=57 v=0
57473 On ch=1 n=76 v=57
57492 Off ch=1 n=76 v=0
57497 On ch=1 n=75 v=57
57515 Off ch=1 n=75 v=0
57536 Off ch=1 n=73 v=0
57536 On ch=1 n=75 v=63
57600 Off ch=1 n=75 v=0
58368 Par ch=1 c=64 v=127
58368 On ch=1 n=54 v=47
58368 On ch=1 n=57 v=47
58368 On ch=1 n=59 v=47
58368 On ch=1 n=63 v=47
58368 On ch=1 n=35 v=54
58368 On ch=1 n=47 v=54
58496 Off ch=1 n=35 v=0
58496 Off ch=1 n=47 v=0
59008 Par ch=1 c=64 v=0
59136 Off ch=1 n=54 v=0
59136 Off ch=1 n=57 v=0
59136 Off ch=1 n=59 v=0
59136 Off ch=1 n=63 v=0
59136 Par ch=1 c=64 v=127
59136 On ch=1 n=54 v=62
59136 On ch=1 n=57 v=62
59136 On ch=1 n=59 v=62
59136 On ch=1 n=63 v=62
59136 On ch=1 n=35 v=52
59136 On ch=1 n=47 v=52
59264 Off ch=1 n=35 v=0
59264 Off ch=1 n=47 v=0
59520 Par ch=1 c=64 v=0
59520 Off ch=1 n=54 v=0
59520 Off ch=1 n=57 v=0
59520 Off ch=1 n=59 v=0
59520 Off ch=1 n=63 v=0
59520 On ch=1 n=54 v=76
59520 On ch=1 n=57 v=76
59520 On ch=1 n=59 v=76
59520 On ch=1 n=64 v=76
59520 On ch=1 n=35 v=66
59520 On ch=1 n=47 v=66
59648 Off ch=1 n=35 v=0
59648 Off ch=1 n=47 v=0
59904 On ch=1 n=83 v=68
59904 Off ch=1 n=54 v=0
59904 Off ch=1 n=57 v=0
59904 Off ch=1 n=59 v=0
59904 Off ch=1 n=64 v=0
59904 On ch=1 n=47 v=57
59904 On ch=1 n=40 v=56
59904 On ch=1 n=56 v=56
60032 On ch=1 n=80 v=65
60034 Off ch=1 n=83 v=0
60160 On ch=1 n=78 v=62
60162 Off ch=1 n=80 v=0
60288 On ch=1 n=76 v=63
60288 Off ch=1 n=47 v=0
60288 On ch=1 n=49 v=62
60290 Off ch=1 n=78 v=0
60416 On ch=1 n=78 v=62
60418 Off ch=1 n=76 v=0
60544 On ch=1 n=80 v=63
60546 Off ch=1 n=78 v=0
60665 Off ch=1 n=80 v=0
60672 On ch=1 n=83 v=64
60672 Off ch=1 n=49 v=0
60672 On ch=1 n=47 v=60
60800 On ch=1 n=80 v=60
60802 Off ch=1 n=83 v=0
60928 On ch=1 n=78 v=60
60930 Off ch=1 n=80 v=0
61056 On ch=1 n=76 v=59
61056 Off ch=1 n=47 v=0
61056 On ch=1 n=49 v=64
61058 Off ch=1 n=78 v=0
61184 On ch=1 n=78 v=62
61186 Off ch=1 n=76 v=0
61248 On ch=1 n=80 v=67
61249 Off ch=1 n=78 v=0
61312 On ch=1 n=78 v=59
61313 Off ch=1 n=80 v=0
61376 On ch=1 n=80 v=63
61377 Off ch=1 n=78 v=0
61436 Off ch=1 n=80 v=0
61440 On ch=1 n=59 v=47
61440 On ch=1 n=64 v=47
61440 On ch=1 n=68 v=47
61440 On ch=1 n=71 v=47
61440 Off ch=1 n=40 v=0
61440 Off ch=1 n=56 v=0
61440 Off ch=1 n=49 v=0
61568 On ch=1 n=56 v=54
61696 On ch=1 n=54 v=71
61698 Off ch=1 n=56 v=0
61824 Off ch=1 n=59 v=0
61824 Off ch=1 n=64 v=0
61824 Off ch=1 n=68 v=0
61824 Off ch=1 n=71 v=0
61824 On ch=1 n=61 v=61
61824 On ch=1 n=64 v=61
61824 On ch=1 n=68 v=61
61824 On ch=1 n=73 v=61
61824 On ch=1 n=52 v=71
61826 Off ch=1 n=54 v=0
61952 On ch=1 n=54 v=71
61954 Off ch=1 n=52 v=0
62080 On ch=1 n=56 v=62
62082 Off ch=1 n=54 v=0
62201 Off ch=1 n=56 v=0
62208 Off ch=1 n=61 v=0
62208 Off ch=1 n=64 v=0
62208 Off ch=1 n=68 v=0
62208 Off ch=1 n=73 v=0
62208 On ch=1 n=59 v=49
62208 On ch=1 n=64 v=49
62208 On ch=1 n=68 v=49
62208 On ch=1 n=71 v=49
62336 Par ch=1 c=64 v=127
62336 On ch=1 n=56 v=53
62464 On ch=1 n=54 v=68
62466 Off ch=1 n=56 v=0
62535 Par ch=1 c=64 v=0
62592 Off ch=1 n=59 v=0
62592 Off ch=1 n=64 v=0
62592 Off ch=1 n=68 v=0
62592 Off ch=1 n=71 v=0
62592 On ch=1 n=61 v=62
62592 On ch=1 n=64 v=62
62592 On ch=1 n=68 v=62
62592 On ch=1 n=73 v=62
62592 On ch=1 n=52 v=71
62594 Off ch=1 n=54 v=0
62720 On ch=1 n=54 v=70
62722 Off ch=1 n=52 v=0
62784 On ch=1 n=56 v=67
62785 Off ch=1 n=54 v=0
62848 On ch=1 n=54 v=60
62849 Off ch=1 n=56 v=0
62912 On ch=1 n=56 v=60
62913 Off ch=1 n=54 v=0
62972 Off ch=1 n=56 v=0
62976 Off ch=1 n=61 v=0
62976 Off ch=1 n=64 v=0
62976 Off ch=1 n=68 v=0
62976 Off ch=1 n=73 v=0
62976 On ch=1 n=71 v=55
62976 On ch=1 n=76 v=55
62976 On ch=1 n=80 v=55
62976 On ch=1 n=83 v=55
62976 Par ch=1 c=64 v=127
62976 On ch=1 n=47 v=56
62991 On ch=1 n=56 v=56
63006 On ch=1 n=59 v=56
63021 On ch=1 n=64 v=56
63621 Par ch=1 c=64 v=0
63744 Off ch=1 n=71 v=0
63744 Off ch=1 n=76 v=0
63744 Off ch=1 n=80 v=0
63744 Off ch=1 n=83 v=0
63744 On ch=1 n=73 v=53
63744 On ch=1 n=76 v=53
63744 On ch=1 n=80 v=53
63744 On ch=1 n=85 v=53
63744 Off ch=1 n=47 v=0
63744 Off ch=1 n=56 v=0
63744 Off ch=1 n=59 v=0
63744 Off ch=1 n=64 v=0
63744 Par ch=1 c=64 v=127
63744 On ch=1 n=44 v=51
63759 On ch=1 n=52 v=51
63774 On ch=1 n=56 v=51
63789 On ch=1 n=61 v=51
64377 Par ch=1 c=64 v=0
64512 Off ch=1 n=73 v=0
64512 Off ch=1 n=76 v=0
64512 Off ch=1 n=80 v=0
64512 Off ch=1 n=85 v=0
64512 Off ch=1 n=44 v=0
64512 Off ch=1 n=52 v=0
64512 Off ch=1 n=56 v=0
64512 Off ch=1 n=61 v=0
64512 Par ch=1 c=64 v=127
64512 On ch=1 n=40 v=52
64527 On ch=1 n=47 v=52
64542 On ch=1 n=52 v=52
64557 On ch=1 n=56 v=52
64572 On ch=1 n=76 v=55
64572 On ch=1 n=59 v=52
64587 On ch=1 n=80 v=55
64587 On ch=1 n=64 v=52
64602 On ch=1 n=83 v=55
64617 On ch=1 n=88 v=55
64896 On ch=1 n=28 v=46
64921 Off ch=1 n=28 v=0
64928 On ch=1 n=40 v=46
64953 Off ch=1 n=40 v=0
64960 On ch=1 n=28 v=46
64985 Off ch=1 n=28 v=0
64992 On ch=1 n=40 v=46
65017 Off ch=1 n=40 v=0
65024 On ch=1 n=28 v=46
65049 Off ch=1 n=28 v=0
65056 On ch=1 n=40 v=46
65081 Off ch=1 n=40 v=0
65088 On ch=1 n=28 v=46
65113 Off ch=1 n=28 v=0
65120 On ch=1 n=40 v=46
65145 Off ch=1 n=40 v=0
65152 On ch=1 n=28 v=46
65177 Off ch=1 n=28 v=0
65184 On ch=1 n=40 v=46
65209 Off ch=1 n=40 v=0
65216 On ch=1 n=28 v=46
65241 Off ch=1 n=28 v=0
65248 On ch=1 n=40 v=46
65273 Off ch=1 n=40 v=0
65280 On ch=1 n=28 v=47
65305 Off ch=1 n=28 v=0
65312 On ch=1 n=40 v=47
65337 Off ch=1 n=40 v=0
65344 On ch=1 n=28 v=47
65369 Off ch=1 n=28 v=0
65376 On ch=1 n=40 v=47
65401 Off ch=1 n=40 v=0
65408 On ch=1 n=28 v=47
65433 Off ch=1 n=28 v=0
65440 On ch=1 n=40 v=47
65465 Off ch=1 n=40 v=0
65472 On ch=1 n=28 v=47
65497 Off ch=1 n=28 v=0
65504 On ch=1 n=40 v=47
65529 Off ch=1 n=40 v=0
65536 On ch=1 n=28 v=47
65561 Off ch=1 n=28 v=0
65568 On ch=1 n=40 v=47
65593 Off ch=1 n=40 v=0
65600 On ch=1 n=28 v=47
65625 Off ch=1 n=28 v=0
65632 On ch=1 n=40 v=47
65657 Off ch=1 n=40 v=0
65664 On ch=1 n=28 v=47
65689 Off ch=1 n=28 v=0
65696 On ch=1 n=40 v=47
65721 Off ch=1 n=40 v=0
65728 On ch=1 n=28 v=47
65753 Off ch=1 n=28 v=0
65760 On ch=1 n=40 v=47
65785 Off ch=1 n=40 v=0
65792 On ch=1 n=28 v=47
65817 Off ch=1 n=28 v=0
65824 On ch=1 n=40 v=47
65849 Off ch=1 n=40 v=0
65856 On ch=1 n=28 v=47
65881 Off ch=1 n=28 v=0
65888 On ch=1 n=40 v=47
65913 Off ch=1 n=40 v=0
65920 On ch=1 n=28 v=47
65945 Off ch=1 n=28 v=0
65952 On ch=1 n=40 v=47
65977 Off ch=1 n=40 v=0
65984 On ch=1 n=28 v=47
66009 Off ch=1 n=28 v=0
66016 On ch=1 n=40 v=47
66041 Off ch=1 n=40 v=0
66048 On ch=1 n=28 v=47
66304 Off ch=1 n=40 v=0
66304 Off ch=1 n=47 v=0
66304 Off ch=1 n=52 v=0
66304 Off ch=1 n=56 v=0
66304 Off ch=1 n=59 v=0
66304 Off ch=1 n=64 v=0
66304 Off ch=1 n=28 v=0
66364 Off ch=1 n=76 v=0
66379 Off ch=1 n=80 v=0
66394 Off ch=1 n=83 v=0
66409 Off ch=1 n=88 v=0
66432 Par ch=1 c=64 v=0