0 On ch=1 n=63 v=69
0 On ch=1 n=67 v=69
0 On ch=1 n=72 v=82
720 On ch=1 n=72 v=0
720 On ch=1 n=67 v=0
720 On ch=1 n=63 v=0
840 On ch=1 n=67 v=70
960 On ch=1 n=67 v=0
960 On ch=1 n=75 v=78
1320 On ch=1 n=75 v=0
1320 On ch=1 n=72 v=70
1440 On ch=1 n=72 v=0
1440 On ch=1 n=79 v=79
1800 On ch=1 n=79 v=0
1800 On ch=1 n=75 v=70
1920 On ch=1 n=75 v=0
1920 On ch=1 n=84 v=79
2280 On ch=1 n=84 v=0
2280 On ch=1 n=79 v=70
2400 On ch=1 n=79 v=0
2400 On ch=1 n=87 v=84
2520 On ch=1 n=87 v=0
2880 On ch=1 n=87 v=84
3000 On ch=1 n=87 v=0
3840 On ch=1 n=67 v=39
3840 On ch=1 n=72 v=46
4080 On ch=1 n=72 v=0
4080 On ch=1 n=67 v=0
4320 On ch=1 n=67 v=42
4320 On ch=1 n=72 v=50
5280 On ch=1 n=72 v=0
5280 On ch=1 n=67 v=0
5280 On ch=1 n=67 v=39
5290 On ch=1 n=71 v=46
5750 On ch=1 n=67 v=0
5760 On ch=1 n=71 v=0
5760 On ch=1 n=68 v=69
5760 On ch=1 n=65 v=69
5760 On ch=1 n=71 v=82
6480 On ch=1 n=71 v=0
6480 On ch=1 n=65 v=0
6480 On ch=1 n=68 v=0
6600 On ch=1 n=71 v=70
6720 On ch=1 n=71 v=0
6720 On ch=1 n=77 v=78
7080 On ch=1 n=77 v=0
7080 On ch=1 n=74 v=70
7200 On ch=1 n=74 v=0
7200 On ch=1 n=83 v=79
7560 On ch=1 n=83 v=0
7560 On ch=1 n=77 v=70
7680 On ch=1 n=77 v=0
7680 On ch=1 n=86 v=79
8040 On ch=1 n=86 v=0
8040 On ch=1 n=83 v=70
8160 On ch=1 n=83 v=0
8160 On ch=1 n=89 v=84
8280 On ch=1 n=89 v=0
8640 On ch=1 n=89 v=84
8760 On ch=1 n=89 v=0
9600 On ch=1 n=71 v=39
9600 On ch=1 n=74 v=46
9840 On ch=1 n=74 v=0
9840 On ch=1 n=71 v=0
10080 On ch=1 n=71 v=42
10080 On ch=1 n=74 v=50
11040 On ch=1 n=74 v=0
11040 On ch=1 n=71 v=0
11040 On ch=1 n=72 v=46
11400 On ch=1 n=72 v=0
11400 On ch=1 n=72 v=45
11460 On ch=1 n=72 v=0
11460 On ch=1 n=75 v=48
11520 On ch=1 n=75 v=0
11520 On ch=1 n=79 v=53
12240 On ch=1 n=79 v=0
12240 On ch=1 n=77 v=41
12480 On ch=1 n=77 v=0
12480 On ch=1 n=75 v=51
12960 On ch=1 n=75 v=0
12960 On ch=1 n=74 v=47
13920 On ch=1 n=74 v=0
13920 On ch=1 n=72 v=39
14280 On ch=1 n=72 v=0
14280 On ch=1 n=67 v=27
14320 On ch=1 n=67 v=0
14320 On ch=1 n=72 v=45
14360 On ch=1 n=72 v=0
14360 On ch=1 n=75 v=48
14400 On ch=1 n=75 v=0
14400 On ch=1 n=79 v=53
15120 On ch=1 n=79 v=0
15120 On ch=1 n=77 v=41
15360 On ch=1 n=77 v=0
15360 On ch=1 n=72 v=43
15360 On ch=1 n=75 v=51
15840 On ch=1 n=75 v=0
15840 On ch=1 n=72 v=0
15840 On ch=1 n=71 v=39
15840 On ch=1 n=74 v=47
16800 On ch=1 n=74 v=0
16800 On ch=1 n=71 v=0
16800 On ch=1 n=72 v=39
17160 On ch=1 n=72 v=0
17160 On ch=1 n=67 v=60
17200 On ch=1 n=67 v=0
17200 On ch=1 n=72 v=63
17240 On ch=1 n=72 v=0
17240 On ch=1 n=75 v=69
17280 On ch=1 n=75 v=0
17280 On ch=1 n=67 v=69
17280 On ch=1 n=79 v=81
18000 On ch=1 n=79 v=0
18000 On ch=1 n=67 v=0
18000 On ch=1 n=77 v=61
18000 On ch=1 n=65 v=51
18240 On ch=1 n=65 v=0
18240 On ch=1 n=77 v=0
18240 On ch=1 n=75 v=73
18240 On ch=1 n=63 v=62
19200 On ch=1 n=63 v=0
19200 On ch=1 n=75 v=0
19200 On ch=1 n=74 v=72
19200 On ch=1 n=62 v=61
19320 On ch=1 n=62 v=0
19320 On ch=1 n=74 v=0
19680 On ch=1 n=72 v=75
19680 On ch=1 n=60 v=63
20640 On ch=1 n=60 v=0
20640 On ch=1 n=72 v=0
20640 On ch=1 n=59 v=63
20640 On ch=1 n=71 v=75
20760 On ch=1 n=71 v=0
20760 On ch=1 n=59 v=0
21120 On ch=1 n=56 v=62
21120 On ch=1 n=68 v=74
22080 On ch=1 n=68 v=0
22080 On ch=1 n=56 v=0
22080 On ch=1 n=55 v=57
22080 On ch=1 n=67 v=67
22320 On ch=1 n=67 v=0
22320 On ch=1 n=55 v=0
23520 On ch=1 n=59 v=42
23680 On ch=1 n=59 v=0
23680 On ch=1 n=62 v=35
23840 On ch=1 n=62 v=0
23840 On ch=1 n=65 v=35
24000 On ch=1 n=65 v=0
24000 On ch=1 n=68 v=43
24160 On ch=1 n=68 v=0
24160 On ch=1 n=67 v=36
24320 On ch=1 n=67 v=0
24320 On ch=1 n=65 v=36
24480 On ch=1 n=65 v=0
24480 On ch=1 n=63 v=43
24600 On ch=1 n=63 v=0
26400 On ch=1 n=53 v=42
26560 On ch=1 n=53 v=0
26560 On ch=1 n=56 v=35
26720 On ch=1 n=56 v=0
26720 On ch=1 n=62 v=35
26880 On ch=1 n=62 v=0
26880 On ch=1 n=65 v=43
27040 On ch=1 n=65 v=0
27040 On ch=1 n=63 v=36
27200 On ch=1 n=63 v=0
27200 On ch=1 n=62 v=36
27360 On ch=1 n=62 v=0
27360 On ch=1 n=60 v=43
27480 On ch=1 n=60 v=0
29280 On ch=1 n=55 v=66
29440 On ch=1 n=55 v=0
29440 On ch=1 n=59 v=69
29600 On ch=1 n=59 v=0
29600 On ch=1 n=62 v=72
29760 On ch=1 n=62 v=0
29760 On ch=1 n=65 v=75
29920 On ch=1 n=65 v=0
29920 On ch=1 n=62 v=67
30080 On ch=1 n=62 v=0
30080 On ch=1 n=59 v=67
30240 On ch=1 n=59 v=0
30240 On ch=1 n=55 v=79
30240 On ch=1 n=51 v=79
30240 On ch=1 n=60 v=94
30960 On ch=1 n=60 v=0
30960 On ch=1 n=51 v=0
30960 On ch=1 n=55 v=0
31080 On ch=1 n=60 v=70
31200 On ch=1 n=60 v=0
31200 On ch=1 n=67 v=78
31560 On ch=1 n=67 v=0
31560 On ch=1 n=63 v=70
31680 On ch=1 n=63 v=0
31680 On ch=1 n=72 v=85
32040 On ch=1 n=72 v=0
32040 On ch=1 n=67 v=72
32160 On ch=1 n=67 v=0
32160 On ch=1 n=75 v=80
32520 On ch=1 n=75 v=0
32520 On ch=1 n=72 v=83
32640 On ch=1 n=72 v=0
32640 On ch=1 n=79 v=96
32640 On ch=1 n=67 v=81
32760 On ch=1 n=67 v=0
32760 On ch=1 n=79 v=0
33120 On ch=1 n=79 v=96
33120 On ch=1 n=67 v=81
33240 On ch=1 n=67 v=0
33240 On ch=1 n=79 v=0
33960 On ch=1 n=59 v=70
34080 On ch=1 n=59 v=0
34080 On ch=1 n=67 v=78
34440 On ch=1 n=67 v=0
34440 On ch=1 n=62 v=70
34560 On ch=1 n=62 v=0
34560 On ch=1 n=71 v=85
34920 On ch=1 n=71 v=0
34920 On ch=1 n=67 v=74
35040 On ch=1 n=67 v=0
35040 On ch=1 n=74 v=86
35400 On ch=1 n=74 v=0
35400 On ch=1 n=71 v=83
35520 On ch=1 n=71 v=0
35520 On ch=1 n=79 v=96
35520 On ch=1 n=67 v=81
35640 On ch=1 n=67 v=0
35640 On ch=1 n=79 v=0
36000 On ch=1 n=79 v=96
36000 On ch=1 n=67 v=81
36120 On ch=1 n=67 v=0
36120 On ch=1 n=79 v=0
36840 On ch=1 n=63 v=70
36960 On ch=1 n=63 v=0
36960 On ch=1 n=67 v=78
37320 On ch=1 n=67 v=0
37320 On ch=1 n=63 v=70
37440 On ch=1 n=63 v=0
37440 On ch=1 n=72 v=85
37800 On ch=1 n=72 v=0
37800 On ch=1 n=67 v=74
37920 On ch=1 n=67 v=0
37920 On ch=1 n=75 v=86
38280 On ch=1 n=75 v=0
38280 On ch=1 n=72 v=83
38400 On ch=1 n=72 v=0
38400 On ch=1 n=79 v=90
38760 On ch=1 n=79 v=0
38760 On ch=1 n=75 v=83
38880 On ch=1 n=75 v=0
38880 On ch=1 n=74 v=96
39000 On ch=1 n=74 v=0
39360 On ch=1 n=89 v=96
39480 On ch=1 n=89 v=0
40320 On ch=1 n=71 v=96
40440 On ch=1 n=71 v=0
40800 On ch=1 n=86 v=96
40920 On ch=1 n=86 v=0
41760 On ch=1 n=72 v=96
41880 On ch=1 n=72 v=0
42240 On ch=1 n=84 v=96
42360 On ch=1 n=84 v=0
46560 On ch=1 n=67 v=50
47040 On ch=1 n=75 v=45
47520 On ch=1 n=75 v=0
47520 On ch=1 n=67 v=0
47520 On ch=1 n=68 v=42
47520 On ch=1 n=75 v=50
48480 On ch=1 n=75 v=0
48480 On ch=1 n=75 v=45
48960 On ch=1 n=68 v=0
48960 On ch=1 n=67 v=42
49440 On ch=1 n=75 v=0
49440 On ch=1 n=77 v=45
49920 On ch=1 n=77 v=0
49920 On ch=1 n=73 v=44
50400 On ch=1 n=67 v=0
50400 On ch=1 n=68 v=42
50880 On ch=1 n=73 v=0
50880 On ch=1 n=71 v=45
51360 On ch=1 n=71 v=0
51360 On ch=1 n=72 v=45
51840 On ch=1 n=72 v=0
51840 On ch=1 n=68 v=0
52320 On ch=1 n=76 v=50
52800 On ch=1 n=84 v=45
53280 On ch=1 n=84 v=0
53280 On ch=1 n=76 v=0
53280 On ch=1 n=77 v=42
53280 On ch=1 n=84 v=50
54240 On ch=1 n=84 v=0
54240 On ch=1 n=84 v=45
54720 On ch=1 n=77 v=0
54720 On ch=1 n=76 v=42
55200 On ch=1 n=84 v=0
55200 On ch=1 n=85 v=45
55680 On ch=1 n=85 v=0
55680 On ch=1 n=82 v=44
56160 On ch=1 n=76 v=0
56160 On ch=1 n=72 v=42
56640 On ch=1 n=82 v=0
56640 On ch=1 n=79 v=45
57120 On ch=1 n=79 v=0
57120 On ch=1 n=80 v=45
57600 On ch=1 n=80 v=0
57600 On ch=1 n=72 v=0
58080 On ch=1 n=72 v=50
58560 On ch=1 n=80 v=45
59040 On ch=1 n=80 v=0
59040 On ch=1 n=72 v=0
59040 On ch=1 n=73 v=42
59040 On ch=1 n=80 v=50
60000 On ch=1 n=80 v=0
60000 On ch=1 n=80 v=45
60480 On ch=1 n=73 v=0
60480 On ch=1 n=72 v=42
60960 On ch=1 n=80 v=0
60960 On ch=1 n=82 v=45
61440 On ch=1 n=82 v=0
61440 On ch=1 n=78 v=44
61920 On ch=1 n=72 v=0
61920 On ch=1 n=68 v=49
62400 On ch=1 n=78 v=0
62400 On ch=1 n=76 v=52
62880 On ch=1 n=76 v=0
62880 On ch=1 n=77 v=52
63360 On ch=1 n=68 v=0
63360 On ch=1 n=69 v=50
63840 On ch=1 n=77 v=0
63840 On ch=1 n=78 v=55
64320 On ch=1 n=78 v=0
64320 On ch=1 n=75 v=50
64800 On ch=1 n=69 v=0
64800 On ch=1 n=65 v=42
65280 On ch=1 n=75 v=0
65280 On ch=1 n=75 v=45
65760 On ch=1 n=75 v=0
65760 On ch=1 n=74 v=45
66240 On ch=1 n=65 v=0
66240 On ch=1 n=66 v=42
66720 On ch=1 n=74 v=0
66720 On ch=1 n=75 v=45
67200 On ch=1 n=75 v=0
67200 On ch=1 n=66 v=0
67200 On ch=1 n=63 v=28
67200 On ch=1 n=66 v=33
67680 On ch=1 n=66 v=0
67680 On ch=1 n=63 v=0
67680 On ch=1 n=62 v=32
67680 On ch=1 n=65 v=38
68160 On ch=1 n=65 v=0
68160 On ch=1 n=62 v=0
69600 On ch=1 n=72 v=38
69840 On ch=1 n=72 v=0
70080 On ch=1 n=72 v=38
70320 On ch=1 n=72 v=0
70560 On ch=1 n=72 v=46
71040 On ch=1 n=72 v=0
71040 On ch=1 n=70 v=38
71520 On ch=1 n=70 v=0
72480 On ch=1 n=68 v=38
72720 On ch=1 n=68 v=0
72960 On ch=1 n=68 v=38
73200 On ch=1 n=68 v=0
73440 On ch=1 n=68 v=43
73920 On ch=1 n=68 v=0
73920 On ch=1 n=67 v=38
74400 On ch=1 n=67 v=0
75120 On ch=1 n=72 v=37
75360 On ch=1 n=72 v=0
75360 On ch=1 n=71 v=38
75600 On ch=1 n=71 v=0
75600 On ch=1 n=72 v=34
75840 On ch=1 n=72 v=0
75840 On ch=1 n=74 v=43
76080 On ch=1 n=74 v=0
76080 On ch=1 n=72 v=38
76320 On ch=1 n=72 v=0
76560 On ch=1 n=70 v=36
76800 On ch=1 n=70 v=0
76800 On ch=1 n=69 v=38
77040 On ch=1 n=69 v=0
77040 On ch=1 n=70 v=36
77280 On ch=1 n=70 v=0
77280 On ch=1 n=72 v=44
77520 On ch=1 n=72 v=0
77520 On ch=1 n=70 v=38
77760 On ch=1 n=70 v=0
78000 On ch=1 n=68 v=36
78240 On ch=1 n=68 v=0
78240 On ch=1 n=67 v=38
78480 On ch=1 n=67 v=0
78480 On ch=1 n=68 v=35
78720 On ch=1 n=68 v=0
78720 On ch=1 n=70 v=44
78960 On ch=1 n=70 v=0
78960 On ch=1 n=68 v=37
79200 On ch=1 n=68 v=0
79200 On ch=1 n=67 v=46
81360 On ch=1 n=67 v=0
81360 On ch=1 n=70 v=56
81600 On ch=1 n=70 v=0
81600 On ch=1 n=75 v=62
82070 On ch=1 n=75 v=0
82080 On ch=1 n=75 v=63
83520 On ch=1 n=75 v=0
83520 On ch=1 n=74 v=57
84000 On ch=1 n=74 v=0
84960 On ch=1 n=70 v=51
86400 On ch=1 n=70 v=0
86400 On ch=1 n=70 v=61
86640 On ch=1 n=70 v=0
86640 On ch=1 n=72 v=57
86720 On ch=1 n=72 v=0
86720 On ch=1 n=70 v=52
86800 On ch=1 n=70 v=0
86800 On ch=1 n=69 v=52
86880 On ch=1 n=69 v=0
86880 On ch=1 n=70 v=61
87120 On ch=1 n=70 v=0
87120 On ch=1 n=77 v=65
87360 On ch=1 n=77 v=0
87360 On ch=1 n=80 v=73
87840 On ch=1 n=80 v=0
87840 On ch=1 n=80 v=74
89280 On ch=1 n=80 v=0
89280 On ch=1 n=79 v=69
89760 On ch=1 n=79 v=0
90720 On ch=1 n=67 v=56
90840 On ch=1 n=67 v=0
90960 On ch=1 n=68 v=58
91080 On ch=1 n=68 v=0
91200 On ch=1 n=70 v=60
91320 On ch=1 n=70 v=0
91440 On ch=1 n=72 v=62
91560 On ch=1 n=72 v=0
91680 On ch=1 n=74 v=64
91800 On ch=1 n=74 v=0
91920 On ch=1 n=75 v=65
92040 On ch=1 n=75 v=0
92160 On ch=1 n=77 v=70
92280 On ch=1 n=77 v=0
92400 On ch=1 n=79 v=73
92520 On ch=1 n=79 v=0
92640 On ch=1 n=80 v=76
92760 On ch=1 n=80 v=0
92880 On ch=1 n=82 v=78
93000 On ch=1 n=82 v=0
93120 On ch=1 n=84 v=81
93240 On ch=1 n=84 v=0
93360 On ch=1 n=86 v=84
93480 On ch=1 n=86 v=0
93600 On ch=1 n=87 v=91
95040 On ch=1 n=87 v=0
95040 On ch=1 n=86 v=71
95520 On ch=1 n=86 v=0
96480 On ch=1 n=58 v=56
96600 On ch=1 n=58 v=0
96720 On ch=1 n=60 v=58
96840 On ch=1 n=60 v=0
96960 On ch=1 n=62 v=60
97080 On ch=1 n=62 v=0
97200 On ch=1 n=63 v=62
97320 On ch=1 n=63 v=0
97440 On ch=1 n=65 v=64
97560 On ch=1 n=65 v=0
97680 On ch=1 n=67 v=65
97800 On ch=1 n=67 v=0
97920 On ch=1 n=68 v=67
98040 On ch=1 n=68 v=0
98160 On ch=1 n=70 v=72
98280 On ch=1 n=70 v=0
98400 On ch=1 n=72 v=74
98520 On ch=1 n=72 v=0
98640 On ch=1 n=74 v=76
98760 On ch=1 n=74 v=0
98880 On ch=1 n=75 v=78
99000 On ch=1 n=75 v=0
99120 On ch=1 n=77 v=80
99240 On ch=1 n=77 v=0
99360 On ch=1 n=79 v=94
100800 On ch=1 n=79 v=0
100800 On ch=1 n=87 v=100
101760 On ch=1 n=87 v=0
101760 On ch=1 n=55 v=77
102240 On ch=1 n=55 v=0
102240 On ch=1 n=56 v=82
103680 On ch=1 n=56 v=0
103680 On ch=1 n=57 v=84
105120 On ch=1 n=57 v=0
105120 On ch=1 n=58 v=84
106560 On ch=1 n=58 v=0
106560 On ch=1 n=56 v=84
106680 On ch=1 n=56 v=0
106680 On ch=1 n=58 v=57
106800 On ch=1 n=58 v=0
106800 On ch=1 n=56 v=61
106880 On ch=1 n=56 v=0
106880 On ch=1 n=58 v=57
106960 On ch=1 n=58 v=0
106960 On ch=1 n=56 v=64
107040 On ch=1 n=56 v=0
107040 On ch=1 n=58 v=56
107120 On ch=1 n=58 v=0
107120 On ch=1 n=56 v=64
107200 On ch=1 n=56 v=0
107200 On ch=1 n=58 v=56
107280 On ch=1 n=58 v=0
107280 On ch=1 n=56 v=64
107360 On ch=1 n=56 v=0
107360 On ch=1 n=58 v=55
107440 On ch=1 n=58 v=0
107440 On ch=1 n=56 v=64
107520 On ch=1 n=56 v=0
107520 On ch=1 n=58 v=54
107640 On ch=1 n=58 v=0
107640 On ch=1 n=56 v=59
107760 On ch=1 n=56 v=0
107760 On ch=1 n=55 v=55
107880 On ch=1 n=55 v=0
107880 On ch=1 n=56 v=57
108000 On ch=1 n=56 v=0
108000 On ch=1 n=55 v=74
108240 On ch=1 n=55 v=0
108240 On ch=1 n=58 v=60
108480 On ch=1 n=58 v=0
108480 On ch=1 n=63 v=68
108720 On ch=1 n=63 v=0
108720 On ch=1 n=58 v=61
108960 On ch=1 n=58 v=0
108960 On ch=1 n=63 v=69
109200 On ch=1 n=63 v=0
109200 On ch=1 n=67 v=63
109440 On ch=1 n=67 v=0
109440 On ch=1 n=70 v=69
109680 On ch=1 n=70 v=0
109680 On ch=1 n=67 v=60
109920 On ch=1 n=67 v=0
109920 On ch=1 n=70 v=69
110160 On ch=1 n=70 v=0
110160 On ch=1 n=75 v=62
110400 On ch=1 n=75 v=0
110400 On ch=1 n=79 v=73
110640 On ch=1 n=79 v=0
110640 On ch=1 n=82 v=65
110880 On ch=1 n=82 v=0
110880 On ch=1 n=87 v=89
111120 On ch=1 n=87 v=0
111840 On ch=1 n=63 v=84
113280 On ch=1 n=63 v=0
113280 On ch=1 n=55 v=81
113760 On ch=1 n=55 v=0
113760 On ch=1 n=56 v=84
114720 On ch=1 n=56 v=0
114720 On ch=1 n=63 v=84
115200 On ch=1 n=63 v=0
115200 On ch=1 n=57 v=92
116160 On ch=1 n=57 v=0
116160 On ch=1 n=63 v=84
116640 On ch=1 n=63 v=0
116640 On ch=1 n=58 v=77
116880 On ch=1 n=58 v=0
116880 On ch=1 n=63 v=59
117120 On ch=1 n=63 v=0
117120 On ch=1 n=62 v=68
117360 On ch=1 n=62 v=0
117360 On ch=1 n=63 v=55
117600 On ch=1 n=63 v=0
117600 On ch=1 n=59 v=65
117840 On ch=1 n=59 v=0
117840 On ch=1 n=63 v=59
118080 On ch=1 n=63 v=0
118080 On ch=1 n=60 v=82
118320 On ch=1 n=60 v=0
118320 On ch=1 n=63 v=62
118560 On ch=1 n=63 v=0
118560 On ch=1 n=62 v=71
118800 On ch=1 n=62 v=0
118800 On ch=1 n=63 v=59
119040 On ch=1 n=63 v=0
119040 On ch=1 n=57 v=66
119280 On ch=1 n=57 v=0
119280 On ch=1 n=63 v=56
119520 On ch=1 n=63 v=0
119520 On ch=1 n=58 v=88
119760 On ch=1 n=58 v=0
119760 On ch=1 n=63 v=58
120000 On ch=1 n=63 v=0
120000 On ch=1 n=61 v=72
120240 On ch=1 n=61 v=0
120240 On ch=1 n=63 v=62
120480 On ch=1 n=63 v=0
120480 On ch=1 n=59 v=72
120720 On ch=1 n=59 v=0
120720 On ch=1 n=63 v=64
120960 On ch=1 n=63 v=0
120960 On ch=1 n=60 v=88
121200 On ch=1 n=60 v=0
121200 On ch=1 n=63 v=65
121440 On ch=1 n=63 v=0
121440 On ch=1 n=62 v=75
121680 On ch=1 n=62 v=0
121680 On ch=1 n=63 v=65
121920 On ch=1 n=63 v=0
121920 On ch=1 n=57 v=80
122160 On ch=1 n=57 v=0
122160 On ch=1 n=63 v=72
122400 On ch=1 n=63 v=0
122400 On ch=1 n=58 v=93
122880 On ch=1 n=58 v=0
123240 On ch=1 n=63 v=81
123360 On ch=1 n=63 v=0
123360 On ch=1 n=70 v=87
123720 On ch=1 n=70 v=0
123720 On ch=1 n=67 v=84
123840 On ch=1 n=67 v=0
123840 On ch=1 n=75 v=93
123960 On ch=1 n=75 v=0
124680 On ch=1 n=63 v=81
124800 On ch=1 n=63 v=0
124800 On ch=1 n=69 v=87
125160 On ch=1 n=69 v=0
125160 On ch=1 n=66 v=84
125280 On ch=1 n=66 v=0
125280 On ch=1 n=75 v=93
125400 On ch=1 n=75 v=0
126120 On ch=1 n=63 v=81
126240 On ch=1 n=63 v=0
126240 On ch=1 n=70 v=87
126600 On ch=1 n=70 v=0
126600 On ch=1 n=67 v=84
126720 On ch=1 n=67 v=0
126720 On ch=1 n=75 v=93
126840 On ch=1 n=75 v=0
127560 On ch=1 n=72 v=81
127680 On ch=1 n=72 v=0
127680 On ch=1 n=78 v=87
128040 On ch=1 n=78 v=0
128040 On ch=1 n=75 v=84
128160 On ch=1 n=75 v=0
128160 On ch=1 n=79 v=95
128880 On ch=1 n=79 v=0
128880 On ch=1 n=75 v=85
129120 On ch=1 n=75 v=0
129120 On ch=1 n=75 v=93
129360 On ch=1 n=75 v=0
129360 On ch=1 n=70 v=79
129540 On ch=1 n=70 v=0
129600 On ch=1 n=70 v=88
129840 On ch=1 n=70 v=0
129840 On ch=1 n=67 v=78
130020 On ch=1 n=67 v=0
130080 On ch=1 n=67 v=85
130320 On ch=1 n=67 v=0
130320 On ch=1 n=63 v=77
130500 On ch=1 n=63 v=0
130560 On ch=1 n=63 v=81
130800 On ch=1 n=63 v=0
130800 On ch=1 n=58 v=77
130980 On ch=1 n=58 v=0
133440 On ch=1 n=58 v=66
133440 On ch=1 n=62 v=78
133920 On ch=1 n=62 v=0
133920 On ch=1 n=58 v=0
133920 On ch=1 n=58 v=70
133920 On ch=1 n=63 v=83
134400 On ch=1 n=63 v=0
134400 On ch=1 n=58 v=0
135840 On ch=1 n=70 v=53
135840 On ch=1 n=65 v=42
135840 On ch=1 n=68 v=42
135840 On ch=1 n=62 v=42
136320 On ch=1 n=62 v=0
136320 On ch=1 n=70 v=0
136320 On ch=1 n=65 v=0
136320 On ch=1 n=68 v=0
136320 On ch=1 n=62 v=38
136320 On ch=1 n=65 v=38
136320 On ch=1 n=68 v=38
136320 On ch=1 n=70 v=48
136800 On ch=1 n=70 v=0
136800 On ch=1 n=62 v=0
136800 On ch=1 n=65 v=0
136800 On ch=1 n=68 v=0
136800 On ch=1 n=63 v=42
136800 On ch=1 n=67 v=42
136800 On ch=1 n=72 v=53
137280 On ch=1 n=72 v=0
137280 On ch=1 n=70 v=49
137760 On ch=1 n=70 v=0
137760 On ch=1 n=67 v=0
137760 On ch=1 n=63 v=0
138720 On ch=1 n=65 v=42
138720 On ch=1 n=68 v=42
138720 On ch=1 n=74 v=53
139200 On ch=1 n=74 v=0
139200 On ch=1 n=68 v=0
139200 On ch=1 n=65 v=0
139200 On ch=1 n=65 v=38
139200 On ch=1 n=68 v=38
139200 On ch=1 n=74 v=48
139680 On ch=1 n=74 v=0
139680 On ch=1 n=68 v=0
139680 On ch=1 n=65 v=0
139680 On ch=1 n=67 v=42
139680 On ch=1 n=70 v=42
139680 On ch=1 n=77 v=53
140160 On ch=1 n=77 v=0
140160 On ch=1 n=75 v=49
140640 On ch=1 n=75 v=0
140640 On ch=1 n=70 v=0
140640 On ch=1 n=67 v=0
141600 On ch=1 n=62 v=42
141600 On ch=1 n=65 v=42
141600 On ch=1 n=68 v=42
141600 On ch=1 n=70 v=53
142080 On ch=1 n=70 v=0
142080 On ch=1 n=62 v=0
142080 On ch=1 n=65 v=0
142080 On ch=1 n=68 v=0
142080 On ch=1 n=70 v=48
142080 On ch=1 n=65 v=38
142080 On ch=1 n=68 v=38
142080 On ch=1 n=62 v=38
142560 On ch=1 n=62 v=0
142560 On ch=1 n=70 v=0
142560 On ch=1 n=65 v=0
142560 On ch=1 n=68 v=0
142560 On ch=1 n=63 v=42
142560 On ch=1 n=67 v=42
142560 On ch=1 n=72 v=53
143040 On ch=1 n=72 v=0
143040 On ch=1 n=70 v=49
143520 On ch=1 n=70 v=0
143520 On ch=1 n=67 v=0
143520 On ch=1 n=63 v=0
144480 On ch=1 n=53 v=42
144480 On ch=1 n=56 v=42
144480 On ch=1 n=62 v=53
144960 On ch=1 n=62 v=0
144960 On ch=1 n=56 v=0
144960 On ch=1 n=53 v=0
144960 On ch=1 n=53 v=38
144960 On ch=1 n=56 v=38
144960 On ch=1 n=62 v=48
145440 On ch=1 n=62 v=0
145440 On ch=1 n=56 v=0
145440 On ch=1 n=53 v=0
145440 On ch=1 n=55 v=42
145440 On ch=1 n=58 v=42
145440 On ch=1 n=65 v=53
145920 On ch=1 n=65 v=0
145920 On ch=1 n=63 v=49
146400 On ch=1 n=63 v=0
146400 On ch=1 n=58 v=0
146400 On ch=1 n=55 v=0
147360 On ch=1 n=53 v=42
147360 On ch=1 n=56 v=42
147360 On ch=1 n=62 v=53
147840 On ch=1 n=62 v=0
147840 On ch=1 n=56 v=0
147840 On ch=1 n=53 v=0
147840 On ch=1 n=53 v=38
147840 On ch=1 n=56 v=38
147840 On ch=1 n=62 v=48
148320 On ch=1 n=62 v=0
148320 On ch=1 n=56 v=0
148320 On ch=1 n=53 v=0
148320 On ch=1 n=56 v=42
148320 On ch=1 n=62 v=42
148320 On ch=1 n=65 v=53
149760 On ch=1 n=65 v=0
149760 On ch=1 n=62 v=0
149760 On ch=1 n=56 v=0
149760 On ch=1 n=58 v=44
149760 On ch=1 n=63 v=49
150240 On ch=1 n=63 v=0
150240 On ch=1 n=58 v=0
151200 On ch=1 n=63 v=69
151200 On ch=1 n=67 v=69
151200 On ch=1 n=72 v=82
151920 On ch=1 n=72 v=0
151920 On ch=1 n=67 v=0
151920 On ch=1 n=63 v=0
152040 On ch=1 n=67 v=70
152160 On ch=1 n=67 v=0
152160 On ch=1 n=75 v=78
152520 On ch=1 n=75 v=0
152520 On ch=1 n=72 v=70
152640 On ch=1 n=72 v=0
152640 On ch=1 n=79 v=79
153000 On ch=1 n=79 v=0
153000 On ch=1 n=75 v=70
153120 On ch=1 n=75 v=0
153120 On ch=1 n=84 v=79
153480 On ch=1 n=84 v=0
153480 On ch=1 n=79 v=70
153600 On ch=1 n=79 v=0
153600 On ch=1 n=87 v=84
153720 On ch=1 n=87 v=0
154080 On ch=1 n=87 v=84
154200 On ch=1 n=87 v=0
155040 On ch=1 n=67 v=39
155040 On ch=1 n=72 v=46
155280 On ch=1 n=72 v=0
155280 On ch=1 n=67 v=0
155520 On ch=1 n=67 v=42
155520 On ch=1 n=72 v=50
156480 On ch=1 n=72 v=0
156480 On ch=1 n=67 v=0
156480 On ch=1 n=67 v=39
156490 On ch=1 n=71 v=46
156950 On ch=1 n=67 v=0
156960 On ch=1 n=71 v=0
156960 On ch=1 n=68 v=69
156960 On ch=1 n=65 v=69
156960 On ch=1 n=71 v=82
157680 On ch=1 n=71 v=0
157680 On ch=1 n=65 v=0
157680 On ch=1 n=68 v=0
157800 On ch=1 n=71 v=70
157920 On ch=1 n=71 v=0
157920 On ch=1 n=77 v=78
158280 On ch=1 n=77 v=0
158280 On ch=1 n=74 v=70
158400 On ch=1 n=74 v=0
158400 On ch=1 n=83 v=79
158760 On ch=1 n=83 v=0
158760 On ch=1 n=77 v=70
158880 On ch=1 n=77 v=0
158880 On ch=1 n=86 v=79
159240 On ch=1 n=86 v=0
159240 On ch=1 n=83 v=70
159360 On ch=1 n=83 v=0
159360 On ch=1 n=89 v=84
159480 On ch=1 n=89 v=0
159840 On ch=1 n=89 v=84
159960 On ch=1 n=89 v=0
160800 On ch=1 n=71 v=39
160800 On ch=1 n=74 v=46
161040 On ch=1 n=74 v=0
161040 On ch=1 n=71 v=0
161280 On ch=1 n=71 v=42
161280 On ch=1 n=74 v=50
162240 On ch=1 n=74 v=0
162240 On ch=1 n=71 v=0
162240 On ch=1 n=72 v=46
162600 On ch=1 n=72 v=0
162600 On ch=1 n=72 v=45
162660 On ch=1 n=72 v=0
162660 On ch=1 n=75 v=48
162720 On ch=1 n=75 v=0
162720 On ch=1 n=79 v=53
163440 On ch=1 n=79 v=0
163440 On ch=1 n=77 v=41
163680 On ch=1 n=77 v=0
163680 On ch=1 n=75 v=51
164160 On ch=1 n=75 v=0
164160 On ch=1 n=74 v=47
165120 On ch=1 n=74 v=0
165120 On ch=1 n=72 v=39
165480 On ch=1 n=72 v=0
165480 On ch=1 n=67 v=27
165520 On ch=1 n=67 v=0
165520 On ch=1 n=72 v=45
165560 On ch=1 n=72 v=0
165560 On ch=1 n=75 v=48
165600 On ch=1 n=75 v=0
165600 On ch=1 n=79 v=53
166320 On ch=1 n=79 v=0
166320 On ch=1 n=77 v=41
166560 On ch=1 n=77 v=0
166560 On ch=1 n=72 v=43
166560 On ch=1 n=75 v=51
167040 On ch=1 n=75 v=0
167040 On ch=1 n=72 v=0
167040 On ch=1 n=71 v=39
167040 On ch=1 n=74 v=47
168000 On ch=1 n=74 v=0
168000 On ch=1 n=71 v=0
168000 On ch=1 n=72 v=39
168360 On ch=1 n=72 v=0
168360 On ch=1 n=67 v=60
168400 On ch=1 n=67 v=0
168400 On ch=1 n=72 v=63
168440 On ch=1 n=72 v=0
168440 On ch=1 n=75 v=69
168480 On ch=1 n=75 v=0
168480 On ch=1 n=67 v=69
168480 On ch=1 n=79 v=81
169200 On ch=1 n=79 v=0
169200 On ch=1 n=67 v=0
169200 On ch=1 n=77 v=61
169200 On ch=1 n=65 v=51
169440 On ch=1 n=65 v=0
169440 On ch=1 n=77 v=0
169440 On ch=1 n=75 v=73
169440 On ch=1 n=63 v=62
170400 On ch=1 n=63 v=0
170400 On ch=1 n=75 v=0
170400 On ch=1 n=74 v=72
170400 On ch=1 n=62 v=61
170520 On ch=1 n=62 v=0
170520 On ch=1 n=74 v=0
170880 On ch=1 n=72 v=75
170880 On ch=1 n=60 v=63
171840 On ch=1 n=60 v=0
171840 On ch=1 n=72 v=0
171840 On ch=1 n=59 v=63
171840 On ch=1 n=71 v=75
171960 On ch=1 n=71 v=0
171960 On ch=1 n=59 v=0
172320 On ch=1 n=56 v=62
172320 On ch=1 n=68 v=74
173280 On ch=1 n=68 v=0
173280 On ch=1 n=56 v=0
173280 On ch=1 n=55 v=58
173280 On ch=1 n=67 v=68
173520 On ch=1 n=67 v=0
173520 On ch=1 n=55 v=0
174720 On ch=1 n=59 v=42
174880 On ch=1 n=59 v=0
174880 On ch=1 n=62 v=35
175040 On ch=1 n=62 v=0
175040 On ch=1 n=65 v=35
175200 On ch=1 n=65 v=0
175200 On ch=1 n=68 v=43
175360 On ch=1 n=68 v=0
175360 On ch=1 n=67 v=36
175520 On ch=1 n=67 v=0
175520 On ch=1 n=65 v=36
175680 On ch=1 n=65 v=0
175680 On ch=1 n=63 v=43
175800 On ch=1 n=63 v=0
177600 On ch=1 n=53 v=42
177760 On ch=1 n=53 v=0
177760 On ch=1 n=56 v=35
177920 On ch=1 n=56 v=0
177920 On ch=1 n=62 v=35
178080 On ch=1 n=62 v=0
178080 On ch=1 n=65 v=43
178240 On ch=1 n=65 v=0
178240 On ch=1 n=63 v=36
178400 On ch=1 n=63 v=0
178400 On ch=1 n=62 v=36
178560 On ch=1 n=62 v=0
178560 On ch=1 n=60 v=43
178680 On ch=1 n=60 v=0
180480 On ch=1 n=55 v=66
180640 On ch=1 n=55 v=0
180640 On ch=1 n=59 v=69
180800 On ch=1 n=59 v=0
180800 On ch=1 n=62 v=72
180960 On ch=1 n=62 v=0
180960 On ch=1 n=65 v=75
181120 On ch=1 n=65 v=0
181120 On ch=1 n=62 v=67
181280 On ch=1 n=62 v=0
181280 On ch=1 n=59 v=67
181440 On ch=1 n=59 v=0
181440 On ch=1 n=55 v=79
181440 On ch=1 n=51 v=79
181440 On ch=1 n=60 v=94
182160 On ch=1 n=60 v=0
182160 On ch=1 n=51 v=0
182160 On ch=1 n=55 v=0
182280 On ch=1 n=60 v=70
182400 On ch=1 n=60 v=0
182400 On ch=1 n=67 v=78
182760 On ch=1 n=67 v=0
182760 On ch=1 n=63 v=70
182880 On ch=1 n=63 v=0
182880 On ch=1 n=72 v=85
183240 On ch=1 n=72 v=0
183240 On ch=1 n=67 v=72
183360 On ch=1 n=67 v=0
183360 On ch=1 n=75 v=80
183720 On ch=1 n=75 v=0
183720 On ch=1 n=72 v=83
183840 On ch=1 n=72 v=0
183840 On ch=1 n=79 v=96
183840 On ch=1 n=67 v=81
183960 On ch=1 n=67 v=0
183960 On ch=1 n=79 v=0
184320 On ch=1 n=79 v=96
184320 On ch=1 n=67 v=81
184440 On ch=1 n=67 v=0
184440 On ch=1 n=79 v=0
185160 On ch=1 n=59 v=70
185280 On ch=1 n=59 v=0
185280 On ch=1 n=67 v=78
185640 On ch=1 n=67 v=0
185640 On ch=1 n=62 v=70
185760 On ch=1 n=62 v=0
185760 On ch=1 n=71 v=85
186120 On ch=1 n=71 v=0
186120 On ch=1 n=67 v=74
186240 On ch=1 n=67 v=0
186240 On ch=1 n=74 v=86
186600 On ch=1 n=74 v=0
186600 On ch=1 n=71 v=83
186720 On ch=1 n=71 v=0
186720 On ch=1 n=79 v=96
186720 On ch=1 n=67 v=81
186840 On ch=1 n=67 v=0
186840 On ch=1 n=79 v=0
187200 On ch=1 n=79 v=96
187200 On ch=1 n=67 v=81
187320 On ch=1 n=67 v=0
187320 On ch=1 n=79 v=0
188040 On ch=1 n=63 v=70
188160 On ch=1 n=63 v=0
188160 On ch=1 n=67 v=78
188520 On ch=1 n=67 v=0
188520 On ch=1 n=63 v=70
188640 On ch=1 n=63 v=0
188640 On ch=1 n=72 v=85
189000 On ch=1 n=72 v=0
189000 On ch=1 n=67 v=74
189120 On ch=1 n=67 v=0
189120 On ch=1 n=75 v=86
189480 On ch=1 n=75 v=0
189480 On ch=1 n=72 v=83
189600 On ch=1 n=72 v=0
189600 On ch=1 n=79 v=90
189960 On ch=1 n=79 v=0
189960 On ch=1 n=75 v=83
190080 On ch=1 n=75 v=0
190080 On ch=1 n=74 v=96
190200 On ch=1 n=74 v=0
190560 On ch=1 n=89 v=96
190680 On ch=1 n=89 v=0
191520 On ch=1 n=71 v=96
191640 On ch=1 n=71 v=0
192000 On ch=1 n=86 v=96
192120 On ch=1 n=86 v=0
192960 On ch=1 n=72 v=96
193080 On ch=1 n=72 v=0
193440 On ch=1 n=84 v=96
193560 On ch=1 n=84 v=0
197760 On ch=1 n=67 v=50
198240 On ch=1 n=75 v=45
198720 On ch=1 n=75 v=0
198720 On ch=1 n=67 v=0
198720 On ch=1 n=68 v=42
198720 On ch=1 n=75 v=50
199680 On ch=1 n=75 v=0
199680 On ch=1 n=75 v=45
200160 On ch=1 n=68 v=0
200160 On ch=1 n=67 v=42
200640 On ch=1 n=75 v=0
200640 On ch=1 n=77 v=45
201120 On ch=1 n=77 v=0
201120 On ch=1 n=73 v=44
201600 On ch=1 n=67 v=0
201600 On ch=1 n=68 v=42
202080 On ch=1 n=73 v=0
202080 On ch=1 n=71 v=45
202560 On ch=1 n=71 v=0
202560 On ch=1 n=72 v=45
203040 On ch=1 n=72 v=0
203040 On ch=1 n=68 v=0
203520 On ch=1 n=76 v=50
204000 On ch=1 n=84 v=45
204480 On ch=1 n=84 v=0
204480 On ch=1 n=76 v=0
204480 On ch=1 n=77 v=42
204480 On ch=1 n=84 v=50
205440 On ch=1 n=84 v=0
205440 On ch=1 n=84 v=45
205920 On ch=1 n=77 v=0
205920 On ch=1 n=76 v=42
206400 On ch=1 n=84 v=0
206400 On ch=1 n=85 v=45
206880 On ch=1 n=85 v=0
206880 On ch=1 n=82 v=44
207360 On ch=1 n=76 v=0
207360 On ch=1 n=72 v=42
207840 On ch=1 n=82 v=0
207840 On ch=1 n=79 v=45
208320 On ch=1 n=79 v=0
208320 On ch=1 n=80 v=45
208800 On ch=1 n=80 v=0
208800 On ch=1 n=72 v=0
209280 On ch=1 n=72 v=50
209760 On ch=1 n=80 v=45
210240 On ch=1 n=80 v=0
210240 On ch=1 n=72 v=0
210240 On ch=1 n=73 v=42
210240 On ch=1 n=80 v=50
211200 On ch=1 n=80 v=0
211200 On ch=1 n=80 v=45
211680 On ch=1 n=73 v=0
211680 On ch=1 n=72 v=42
212160 On ch=1 n=80 v=0
212160 On ch=1 n=82 v=45
212640 On ch=1 n=82 v=0
212640 On ch=1 n=78 v=44
213120 On ch=1 n=72 v=0
213120 On ch=1 n=68 v=49
213600 On ch=1 n=78 v=0
213600 On ch=1 n=76 v=52
214080 On ch=1 n=76 v=0
214080 On ch=1 n=77 v=52
214560 On ch=1 n=68 v=0
214560 On ch=1 n=69 v=50
215040 On ch=1 n=77 v=0
215040 On ch=1 n=78 v=55
215520 On ch=1 n=78 v=0
215520 On ch=1 n=75 v=50
216000 On ch=1 n=69 v=0
216000 On ch=1 n=65 v=42
216480 On ch=1 n=75 v=0
216480 On ch=1 n=75 v=45
216960 On ch=1 n=75 v=0
216960 On ch=1 n=74 v=45
217440 On ch=1 n=65 v=0
217440 On ch=1 n=66 v=42
217920 On ch=1 n=74 v=0
217920 On ch=1 n=75 v=45
218400 On ch=1 n=75 v=0
218400 On ch=1 n=66 v=0
218400 On ch=1 n=63 v=28
218400 On ch=1 n=66 v=33
218880 On ch=1 n=66 v=0
218880 On ch=1 n=63 v=0
218880 On ch=1 n=62 v=32
218880 On ch=1 n=65 v=38
219360 On ch=1 n=65 v=0
219360 On ch=1 n=62 v=0
220800 On ch=1 n=72 v=38
221040 On ch=1 n=72 v=0
221280 On ch=1 n=72 v=38
221520 On ch=1 n=72 v=0
221760 On ch=1 n=72 v=46
222240 On ch=1 n=72 v=0
222240 On ch=1 n=70 v=38
222720 On ch=1 n=70 v=0
223680 On ch=1 n=68 v=38
223920 On ch=1 n=68 v=0
224160 On ch=1 n=68 v=38
224400 On ch=1 n=68 v=0
224640 On ch=1 n=68 v=43
225120 On ch=1 n=68 v=0
225120 On ch=1 n=67 v=38
225600 On ch=1 n=67 v=0
226320 On ch=1 n=72 v=37
226560 On ch=1 n=72 v=0
226560 On ch=1 n=71 v=38
226800 On ch=1 n=71 v=0
226800 On ch=1 n=72 v=34
227040 On ch=1 n=72 v=0
227040 On ch=1 n=74 v=43
227280 On ch=1 n=74 v=0
227280 On ch=1 n=72 v=38
227520 On ch=1 n=72 v=0
227760 On ch=1 n=70 v=36
228000 On ch=1 n=70 v=0
228000 On ch=1 n=69 v=38
228240 On ch=1 n=69 v=0
228240 On ch=1 n=70 v=36
228480 On ch=1 n=70 v=0
228480 On ch=1 n=72 v=44
228720 On ch=1 n=72 v=0
228720 On ch=1 n=70 v=38
228960 On ch=1 n=70 v=0
229200 On ch=1 n=68 v=36
229440 On ch=1 n=68 v=0
229440 On ch=1 n=67 v=38
229680 On ch=1 n=67 v=0
229680 On ch=1 n=68 v=35
229920 On ch=1 n=68 v=0
229920 On ch=1 n=70 v=44
230160 On ch=1 n=70 v=0
230160 On ch=1 n=68 v=37
230400 On ch=1 n=68 v=0
230400 On ch=1 n=67 v=46
232560 On ch=1 n=67 v=0
232560 On ch=1 n=70 v=56
232800 On ch=1 n=70 v=0
232800 On ch=1 n=75 v=62
233270 On ch=1 n=75 v=0
233280 On ch=1 n=75 v=63
234720 On ch=1 n=75 v=0
234720 On ch=1 n=74 v=57
235200 On ch=1 n=74 v=0
236160 On ch=1 n=70 v=51
237600 On ch=1 n=70 v=0
237600 On ch=1 n=70 v=61
237840 On ch=1 n=70 v=0
237840 On ch=1 n=72 v=57
237920 On ch=1 n=72 v=0
237920 On ch=1 n=70 v=52
238000 On ch=1 n=70 v=0
238000 On ch=1 n=69 v=52
238080 On ch=1 n=69 v=0
238080 On ch=1 n=70 v=61
238320 On ch=1 n=70 v=0
238320 On ch=1 n=77 v=65
238560 On ch=1 n=77 v=0
238560 On ch=1 n=80 v=75
239040 On ch=1 n=80 v=0
239040 On ch=1 n=80 v=78
240480 On ch=1 n=80 v=0
240480 On ch=1 n=79 v=69
240960 On ch=1 n=79 v=0
241920 On ch=1 n=67 v=56
242040 On ch=1 n=67 v=0
242160 On ch=1 n=68 v=58
242280 On ch=1 n=68 v=0
242400 On ch=1 n=70 v=60
242520 On ch=1 n=70 v=0
242640 On ch=1 n=72 v=62
242760 On ch=1 n=72 v=0
242880 On ch=1 n=74 v=64
243000 On ch=1 n=74 v=0
243120 On ch=1 n=75 v=65
243240 On ch=1 n=75 v=0
243360 On ch=1 n=77 v=68
243480 On ch=1 n=77 v=0
243600 On ch=1 n=79 v=70
243720 On ch=1 n=79 v=0
243840 On ch=1 n=80 v=73
243960 On ch=1 n=80 v=0
244080 On ch=1 n=82 v=76
244200 On ch=1 n=82 v=0
244320 On ch=1 n=84 v=79
244440 On ch=1 n=84 v=0
244560 On ch=1 n=86 v=81
244680 On ch=1 n=86 v=0
244800 On ch=1 n=87 v=88
246240 On ch=1 n=87 v=0
246240 On ch=1 n=86 v=81
246720 On ch=1 n=86 v=0
247680 On ch=1 n=58 v=56
247800 On ch=1 n=58 v=0
247920 On ch=1 n=60 v=58
248040 On ch=1 n=60 v=0
248160 On ch=1 n=62 v=60
248280 On ch=1 n=62 v=0
248400 On ch=1 n=63 v=62
248520 On ch=1 n=63 v=0
248640 On ch=1 n=65 v=64
248760 On ch=1 n=65 v=0
248880 On ch=1 n=67 v=65
249000 On ch=1 n=67 v=0
249120 On ch=1 n=68 v=67
249240 On ch=1 n=68 v=0
249360 On ch=1 n=70 v=70
249480 On ch=1 n=70 v=0
249600 On ch=1 n=72 v=73
249720 On ch=1 n=72 v=0
249840 On ch=1 n=74 v=76
249960 On ch=1 n=74 v=0
250080 On ch=1 n=75 v=79
250200 On ch=1 n=75 v=0
250320 On ch=1 n=77 v=82
250440 On ch=1 n=77 v=0
250560 On ch=1 n=79 v=89
252000 On ch=1 n=79 v=0
252000 On ch=1 n=87 v=100
252960 On ch=1 n=87 v=0
252960 On ch=1 n=55 v=77
253440 On ch=1 n=55 v=0
253440 On ch=1 n=56 v=82
254880 On ch=1 n=56 v=0
254880 On ch=1 n=57 v=84
256320 On ch=1 n=57 v=0
256320 On ch=1 n=58 v=84
257760 On ch=1 n=58 v=0
257760 On ch=1 n=56 v=84
257880 On ch=1 n=56 v=0
257880 On ch=1 n=58 v=57
258000 On ch=1 n=58 v=0
258000 On ch=1 n=56 v=61
258080 On ch=1 n=56 v=0
258080 On ch=1 n=58 v=57
258160 On ch=1 n=58 v=0
258160 On ch=1 n=56 v=64
258240 On ch=1 n=56 v=0
258240 On ch=1 n=58 v=56
258320 On ch=1 n=58 v=0
258320 On ch=1 n=56 v=64
258400 On ch=1 n=56 v=0
258400 On ch=1 n=58 v=56
258480 On ch=1 n=58 v=0
258480 On ch=1 n=56 v=64
258560 On ch=1 n=56 v=0
258560 On ch=1 n=58 v=55
258640 On ch=1 n=58 v=0
258640 On ch=1 n=56 v=64
258720 On ch=1 n=56 v=0
258720 On ch=1 n=58 v=54
258840 On ch=1 n=58 v=0
258840 On ch=1 n=56 v=59
258960 On ch=1 n=56 v=0
258960 On ch=1 n=55 v=55
259080 On ch=1 n=55 v=0
259080 On ch=1 n=56 v=57
259200 On ch=1 n=56 v=0
259200 On ch=1 n=55 v=74
259440 On ch=1 n=55 v=0
259440 On ch=1 n=58 v=60
259680 On ch=1 n=58 v=0
259680 On ch=1 n=63 v=68
259920 On ch=1 n=63 v=0
259920 On ch=1 n=58 v=61
260160 On ch=1 n=58 v=0
260160 On ch=1 n=63 v=69
260400 On ch=1 n=63 v=0
260400 On ch=1 n=67 v=63
260640 On ch=1 n=67 v=0
260640 On ch=1 n=70 v=69
260880 On ch=1 n=70 v=0
260880 On ch=1 n=67 v=60
261120 On ch=1 n=67 v=0
261120 On ch=1 n=70 v=69
261360 On ch=1 n=70 v=0
261360 On ch=1 n=75 v=62
261600 On ch=1 n=75 v=0
261600 On ch=1 n=79 v=78
261840 On ch=1 n=79 v=0
261840 On ch=1 n=82 v=73
262080 On ch=1 n=82 v=0
262080 On ch=1 n=87 v=89
262320 On ch=1 n=87 v=0
263040 On ch=1 n=63 v=84
264480 On ch=1 n=63 v=0
264480 On ch=1 n=55 v=81
264960 On ch=1 n=55 v=0
264960 On ch=1 n=56 v=84
265920 On ch=1 n=56 v=0
265920 On ch=1 n=63 v=84
266400 On ch=1 n=63 v=0
266400 On ch=1 n=57 v=92
267360 On ch=1 n=57 v=0
267360 On ch=1 n=63 v=84
267840 On ch=1 n=63 v=0
267840 On ch=1 n=58 v=77
268080 On ch=1 n=58 v=0
268080 On ch=1 n=63 v=60
268320 On ch=1 n=63 v=0
268320 On ch=1 n=62 v=69
268560 On ch=1 n=62 v=0
268560 On ch=1 n=63 v=55
268800 On ch=1 n=63 v=0
268800 On ch=1 n=59 v=68
269040 On ch=1 n=59 v=0
269040 On ch=1 n=63 v=61
269280 On ch=1 n=63 v=0
269280 On ch=1 n=60 v=82
269520 On ch=1 n=60 v=0
269520 On ch=1 n=63 v=63
269760 On ch=1 n=63 v=0
269760 On ch=1 n=62 v=70
270000 On ch=1 n=62 v=0
270000 On ch=1 n=63 v=62
270240 On ch=1 n=63 v=0
270240 On ch=1 n=57 v=70
270480 On ch=1 n=57 v=0
270480 On ch=1 n=63 v=61
270720 On ch=1 n=63 v=0
270720 On ch=1 n=58 v=88
270960 On ch=1 n=58 v=0
270960 On ch=1 n=63 v=66
271200 On ch=1 n=63 v=0
271200 On ch=1 n=61 v=75
271440 On ch=1 n=61 v=0
271440 On ch=1 n=63 v=62
271680 On ch=1 n=63 v=0
271680 On ch=1 n=59 v=74
271920 On ch=1 n=59 v=0
271920 On ch=1 n=63 v=65
272160 On ch=1 n=63 v=0
272160 On ch=1 n=60 v=88
272400 On ch=1 n=60 v=0
272400 On ch=1 n=63 v=65
272640 On ch=1 n=63 v=0
272640 On ch=1 n=62 v=71
272880 On ch=1 n=62 v=0
272880 On ch=1 n=63 v=65
273120 On ch=1 n=63 v=0
273120 On ch=1 n=57 v=80
273360 On ch=1 n=57 v=0
273360 On ch=1 n=63 v=72
273600 On ch=1 n=63 v=0
273600 On ch=1 n=58 v=93
274080 On ch=1 n=58 v=0
274440 On ch=1 n=63 v=81
274560 On ch=1 n=63 v=0
274560 On ch=1 n=70 v=87
274920 On ch=1 n=70 v=0
274920 On ch=1 n=67 v=84
275040 On ch=1 n=67 v=0
275040 On ch=1 n=75 v=93
275160 On ch=1 n=75 v=0
275880 On ch=1 n=63 v=81
276000 On ch=1 n=63 v=0
276000 On ch=1 n=69 v=87
276360 On ch=1 n=69 v=0
276360 On ch=1 n=66 v=84
276480 On ch=1 n=66 v=0
276480 On ch=1 n=75 v=93
276600 On ch=1 n=75 v=0
277320 On ch=1 n=63 v=81
277440 On ch=1 n=63 v=0
277440 On ch=1 n=70 v=87
277800 On ch=1 n=70 v=0
277800 On ch=1 n=67 v=84
277920 On ch=1 n=67 v=0
277920 On ch=1 n=75 v=93
278040 On ch=1 n=75 v=0
278760 On ch=1 n=72 v=81
278880 On ch=1 n=72 v=0
278880 On ch=1 n=78 v=87
279240 On ch=1 n=78 v=0
279240 On ch=1 n=75 v=84
279360 On ch=1 n=75 v=0
279360 On ch=1 n=79 v=95
280080 On ch=1 n=79 v=0
280080 On ch=1 n=75 v=85
280320 On ch=1 n=75 v=0
280320 On ch=1 n=75 v=93
280560 On ch=1 n=75 v=0
280560 On ch=1 n=70 v=79
280740 On ch=1 n=70 v=0
280800 On ch=1 n=70 v=88
281040 On ch=1 n=70 v=0
281040 On ch=1 n=67 v=78
281220 On ch=1 n=67 v=0
281280 On ch=1 n=67 v=85
281520 On ch=1 n=67 v=0
281520 On ch=1 n=63 v=77
281700 On ch=1 n=63 v=0
281760 On ch=1 n=63 v=81
282000 On ch=1 n=63 v=0
282000 On ch=1 n=58 v=77
282180 On ch=1 n=58 v=0
284640 On ch=1 n=58 v=66
284640 On ch=1 n=62 v=78
285120 On ch=1 n=62 v=0
285120 On ch=1 n=58 v=0
285120 On ch=1 n=58 v=70
285120 On ch=1 n=63 v=83
285600 On ch=1 n=63 v=0
285600 On ch=1 n=58 v=0
287040 On ch=1 n=70 v=53
287040 On ch=1 n=65 v=42
287040 On ch=1 n=68 v=42
287040 On ch=1 n=62 v=42
287520 On ch=1 n=62 v=0
287520 On ch=1 n=70 v=0
287520 On ch=1 n=65 v=0
287520 On ch=1 n=68 v=0
287520 On ch=1 n=62 v=38
287520 On ch=1 n=65 v=38
287520 On ch=1 n=68 v=38
287520 On ch=1 n=70 v=48
288000 On ch=1 n=70 v=0
288000 On ch=1 n=62 v=0
288000 On ch=1 n=65 v=0
288000 On ch=1 n=68 v=0
288000 On ch=1 n=63 v=42
288000 On ch=1 n=67 v=42
288000 On ch=1 n=72 v=53
288480 On ch=1 n=72 v=0
288480 On ch=1 n=70 v=49
288960 On ch=1 n=70 v=0
288960 On ch=1 n=67 v=0
288960 On ch=1 n=63 v=0
289920 On ch=1 n=65 v=42
289920 On ch=1 n=68 v=42
289920 On ch=1 n=74 v=53
290400 On ch=1 n=74 v=0
290400 On ch=1 n=68 v=0
290400 On ch=1 n=65 v=0
290400 On ch=1 n=65 v=38
290400 On ch=1 n=68 v=38
290400 On ch=1 n=74 v=48
290880 On ch=1 n=74 v=0
290880 On ch=1 n=68 v=0
290880 On ch=1 n=65 v=0
290880 On ch=1 n=67 v=42
290880 On ch=1 n=70 v=42
290880 On ch=1 n=77 v=53
291360 On ch=1 n=77 v=0
291360 On ch=1 n=75 v=49
291840 On ch=1 n=75 v=0
291840 On ch=1 n=70 v=0
291840 On ch=1 n=67 v=0
292800 On ch=1 n=62 v=42
292800 On ch=1 n=65 v=42
292800 On ch=1 n=68 v=42
292800 On ch=1 n=70 v=53
293280 On ch=1 n=70 v=0
293280 On ch=1 n=62 v=0
293280 On ch=1 n=65 v=0
293280 On ch=1 n=68 v=0
293280 On ch=1 n=70 v=48
293280 On ch=1 n=65 v=38
293280 On ch=1 n=68 v=38
293280 On ch=1 n=62 v=38
293760 On ch=1 n=62 v=0
293760 On ch=1 n=70 v=0
293760 On ch=1 n=65 v=0
293760 On ch=1 n=68 v=0
293760 On ch=1 n=63 v=42
293760 On ch=1 n=67 v=42
293760 On ch=1 n=72 v=53
294240 On ch=1 n=72 v=0
294240 On ch=1 n=70 v=49
294720 On ch=1 n=70 v=0
294720 On ch=1 n=67 v=0
294720 On ch=1 n=63 v=0
295680 On ch=1 n=53 v=42
295680 On ch=1 n=56 v=42
295680 On ch=1 n=62 v=53
296160 On ch=1 n=62 v=0
296160 On ch=1 n=56 v=0
296160 On ch=1 n=53 v=0
296160 On ch=1 n=53 v=38
296160 On ch=1 n=56 v=38
296160 On ch=1 n=62 v=48
296640 On ch=1 n=62 v=0
296640 On ch=1 n=56 v=0
296640 On ch=1 n=53 v=0
296640 On ch=1 n=55 v=42
296640 On ch=1 n=58 v=42
296640 On ch=1 n=65 v=53
297120 On ch=1 n=65 v=0
297120 On ch=1 n=63 v=49
297600 On ch=1 n=63 v=0
297600 On ch=1 n=58 v=0
297600 On ch=1 n=55 v=0
298560 On ch=1 n=53 v=42
298560 On ch=1 n=56 v=42
298560 On ch=1 n=62 v=53
299040 On ch=1 n=62 v=0
299040 On ch=1 n=56 v=0
299040 On ch=1 n=53 v=0
299040 On ch=1 n=53 v=38
299040 On ch=1 n=56 v=38
299040 On ch=1 n=62 v=48
299520 On ch=1 n=62 v=0
299520 On ch=1 n=56 v=0
299520 On ch=1 n=53 v=0
299520 On ch=1 n=56 v=42
299520 On ch=1 n=62 v=42
299520 On ch=1 n=65 v=53
300960 On ch=1 n=65 v=0
300960 On ch=1 n=62 v=0
300960 On ch=1 n=56 v=0
300960 On ch=1 n=58 v=44
300960 On ch=1 n=63 v=49
301440 On ch=1 n=63 v=0
301440 On ch=1 n=58 v=0
302400 On ch=1 n=64 v=69
302400 On ch=1 n=67 v=69
302400 On ch=1 n=72 v=82
303120 On ch=1 n=72 v=0
303120 On ch=1 n=67 v=0
303120 On ch=1 n=64 v=0
303240 On ch=1 n=67 v=70
303360 On ch=1 n=67 v=0
303360 On ch=1 n=76 v=78
303720 On ch=1 n=76 v=0
303720 On ch=1 n=72 v=70
303840 On ch=1 n=72 v=0
303840 On ch=1 n=79 v=79
304200 On ch=1 n=79 v=0
304200 On ch=1 n=76 v=70
304320 On ch=1 n=76 v=0
304320 On ch=1 n=84 v=79
304680 On ch=1 n=84 v=0
304680 On ch=1 n=79 v=70
304800 On ch=1 n=79 v=0
304800 On ch=1 n=88 v=84
304920 On ch=1 n=88 v=0
305280 On ch=1 n=88 v=84
305400 On ch=1 n=88 v=0
306240 On ch=1 n=72 v=39
306240 On ch=1 n=76 v=46
306480 On ch=1 n=76 v=0
306480 On ch=1 n=72 v=0
306720 On ch=1 n=72 v=42
306720 On ch=1 n=76 v=50
307680 On ch=1 n=76 v=0
307680 On ch=1 n=72 v=0
307680 On ch=1 n=74 v=46
307680 On ch=1 n=71 v=39
308150 On ch=1 n=71 v=0
308150 On ch=1 n=74 v=0
308160 On ch=1 n=71 v=42
308160 On ch=1 n=74 v=50
308880 On ch=1 n=74 v=0
308880 On ch=1 n=71 v=0
309000 On ch=1 n=71 v=70
309120 On ch=1 n=71 v=0
309120 On ch=1 n=77 v=78
309480 On ch=1 n=77 v=0
309480 On ch=1 n=74 v=70
309600 On ch=1 n=74 v=0
309600 On ch=1 n=83 v=79
309960 On ch=1 n=83 v=0
309960 On ch=1 n=77 v=70
310080 On ch=1 n=77 v=0
310080 On ch=1 n=86 v=79
310440 On ch=1 n=86 v=0
310440 On ch=1 n=83 v=70
310560 On ch=1 n=83 v=0
310560 On ch=1 n=89 v=84
310680 On ch=1 n=89 v=0
311040 On ch=1 n=89 v=84
311160 On ch=1 n=89 v=0
312000 On ch=1 n=74 v=39
312000 On ch=1 n=77 v=46
312240 On ch=1 n=77 v=0
312240 On ch=1 n=74 v=0
312480 On ch=1 n=74 v=42
312480 On ch=1 n=77 v=50
313440 On ch=1 n=77 v=0
313440 On ch=1 n=74 v=0
313440 On ch=1 n=76 v=46
313440 On ch=1 n=73 v=39
313910 On ch=1 n=73 v=0
313910 On ch=1 n=76 v=0
313920 On ch=1 n=73 v=42
313920 On ch=1 n=76 v=50
314640 On ch=1 n=76 v=0
314640 On ch=1 n=73 v=0
314760 On ch=1 n=70 v=70
314880 On ch=1 n=70 v=0
314880 On ch=1 n=76 v=78
315240 On ch=1 n=76 v=0
315240 On ch=1 n=73 v=70
315360 On ch=1 n=73 v=0
315360 On ch=1 n=79 v=84
315720 On ch=1 n=79 v=0
315720 On ch=1 n=76 v=70
315840 On ch=1 n=76 v=0
315840 On ch=1 n=82 v=85
316200 On ch=1 n=82 v=0
316200 On ch=1 n=79 v=70
316320 On ch=1 n=79 v=0
316320 On ch=1 n=85 v=89
316440 On ch=1 n=85 v=0
316800 On ch=1 n=67 v=87
316920 On ch=1 n=67 v=0
317280 On ch=1 n=82 v=86
317400 On ch=1 n=82 v=0
318240 On ch=1 n=64 v=85
318360 On ch=1 n=64 v=0
318720 On ch=1 n=79 v=79
318840 On ch=1 n=79 v=0
319680 On ch=1 n=65 v=42
319680 On ch=1 n=77 v=50
321120 On ch=1 n=77 v=0
321120 On ch=1 n=65 v=0
321120 On ch=1 n=84 v=53
321120 On ch=1 n=72 v=45
322070 On ch=1 n=72 v=0
322070 On ch=1 n=84 v=0
322080 On ch=1 n=84 v=50
322080 On ch=1 n=72 v=42
322550 On ch=1 n=72 v=0
322550 On ch=1 n=84 v=0
322560 On ch=1 n=84 v=54
322560 On ch=1 n=72 v=45
323040 On ch=1 n=72 v=0
323040 On ch=1 n=84 v=0
323040 On ch=1 n=83 v=50
323040 On ch=1 n=71 v=42
323520 On ch=1 n=71 v=0
323520 On ch=1 n=83 v=0
323520 On ch=1 n=85 v=50
323520 On ch=1 n=73 v=42
324000 On ch=1 n=73 v=0
324000 On ch=1 n=85 v=0
324000 On ch=1 n=72 v=42
324000 On ch=1 n=84 v=50
324480 On ch=1 n=84 v=0
324480 On ch=1 n=72 v=0
324480 On ch=1 n=82 v=50
324480 On ch=1 n=70 v=42
324960 On ch=1 n=70 v=0
324960 On ch=1 n=82 v=0
324960 On ch=1 n=79 v=50
324960 On ch=1 n=67 v=42
325440 On ch=1 n=67 v=0
325440 On ch=1 n=79 v=0
325440 On ch=1 n=76 v=56
325440 On ch=1 n=64 v=47
326400 On ch=1 n=64 v=0
326400 On ch=1 n=76 v=0
326400 On ch=1 n=67 v=50
326400 On ch=1 n=79 v=59
326880 On ch=1 n=79 v=0
326880 On ch=1 n=67 v=0
326880 On ch=1 n=84 v=65
326880 On ch=1 n=72 v=55
327840 On ch=1 n=72 v=0
327840 On ch=1 n=84 v=0
327840 On ch=1 n=79 v=59
327840 On ch=1 n=67 v=50
328320 On ch=1 n=67 v=0
328320 On ch=1 n=79 v=0
328320 On ch=1 n=70 v=54
328320 On ch=1 n=82 v=64
329760 On ch=1 n=82 v=0
329760 On ch=1 n=70 v=0
329760 On ch=1 n=80 v=58
329760 On ch=1 n=68 v=49
330240 On ch=1 n=68 v=0
330240 On ch=1 n=80 v=0
330720 On ch=1 n=69 v=48
330720 On ch=1 n=81 v=57
331200 On ch=1 n=81 v=0
331200 On ch=1 n=69 v=0
331200 On ch=1 n=70 v=52
331200 On ch=1 n=82 v=62
332640 On ch=1 n=82 v=0
332640 On ch=1 n=70 v=0
332640 On ch=1 n=89 v=66
332640 On ch=1 n=77 v=56
333590 On ch=1 n=77 v=0
333590 On ch=1 n=89 v=0
333600 On ch=1 n=89 v=62
333600 On ch=1 n=77 v=52
334070 On ch=1 n=77 v=0
334070 On ch=1 n=89 v=0
334080 On ch=1 n=89 v=68
334080 On ch=1 n=77 v=57
334560 On ch=1 n=77 v=0
334560 On ch=1 n=89 v=0
334560 On ch=1 n=88 v=62
334560 On ch=1 n=76 v=52
335040 On ch=1 n=76 v=0
335040 On ch=1 n=88 v=0
335040 On ch=1 n=90 v=62
335040 On ch=1 n=78 v=52
335520 On ch=1 n=78 v=0
335520 On ch=1 n=90 v=0
335520 On ch=1 n=77 v=52
335520 On ch=1 n=89 v=62
336000 On ch=1 n=89 v=0
336000 On ch=1 n=77 v=0
336000 On ch=1 n=87 v=62
336000 On ch=1 n=75 v=52
336480 On ch=1 n=75 v=0
336480 On ch=1 n=87 v=0
336480 On ch=1 n=84 v=62
336480 On ch=1 n=72 v=52
336960 On ch=1 n=72 v=0
336960 On ch=1 n=84 v=0
336960 On ch=1 n=81 v=70
336960 On ch=1 n=69 v=59
337920 On ch=1 n=69 v=0
337920 On ch=1 n=81 v=0
337920 On ch=1 n=72 v=61
337920 On ch=1 n=84 v=73
338400 On ch=1 n=84 v=0
338400 On ch=1 n=72 v=0
338400 On ch=1 n=89 v=81
338400 On ch=1 n=77 v=68
339360 On ch=1 n=77 v=0
339360 On ch=1 n=89 v=0
339360 On ch=1 n=84 v=73
339360 On ch=1 n=72 v=61
339840 On ch=1 n=72 v=0
339840 On ch=1 n=84 v=0
339840 On ch=1 n=75 v=68
339840 On ch=1 n=87 v=80
341280 On ch=1 n=87 v=0
341280 On ch=1 n=75 v=0
341280 On ch=1 n=85 v=72
341280 On ch=1 n=73 v=61
341760 On ch=1 n=73 v=0
341760 On ch=1 n=85 v=0
342240 On ch=1 n=73 v=61
342720 On ch=1 n=73 v=0
342720 On ch=1 n=72 v=67
343680 On ch=1 n=72 v=0
343680 On ch=1 n=75 v=61
343800 On ch=1 n=75 v=0
343800 On ch=1 n=77 v=57
343880 On ch=1 n=77 v=0
343880 On ch=1 n=75 v=61
343960 On ch=1 n=75 v=0
343960 On ch=1 n=74 v=65
344040 On ch=1 n=74 v=0
344040 On ch=1 n=75 v=69
344160 On ch=1 n=75 v=0
344160 On ch=1 n=80 v=74
345120 On ch=1 n=80 v=0
345120 On ch=1 n=75 v=66
345600 On ch=1 n=75 v=0
345600 On ch=1 n=77 v=70
346080 On ch=1 n=77 v=0
346080 On ch=1 n=76 v=61
346560 On ch=1 n=76 v=0
346560 On ch=1 n=78 v=61
347040 On ch=1 n=78 v=0
347040 On ch=1 n=77 v=70
347520 On ch=1 n=77 v=0
347520 On ch=1 n=75 v=61
348000 On ch=1 n=75 v=0
348000 On ch=1 n=72 v=61
348480 On ch=1 n=72 v=0
348480 On ch=1 n=80 v=70
348960 On ch=1 n=80 v=0
348960 On ch=1 n=79 v=61
349440 On ch=1 n=79 v=0
349440 On ch=1 n=82 v=61
349920 On ch=1 n=82 v=0
349920 On ch=1 n=80 v=70
350400 On ch=1 n=80 v=0
350400 On ch=1 n=78 v=61
350880 On ch=1 n=78 v=0
350880 On ch=1 n=75 v=61
351360 On ch=1 n=75 v=0
351360 On ch=1 n=77 v=70
351840 On ch=1 n=77 v=0
351840 On ch=1 n=76 v=61
352320 On ch=1 n=76 v=0
352320 On ch=1 n=78 v=61
352800 On ch=1 n=78 v=0
352800 On ch=1 n=77 v=70
353280 On ch=1 n=77 v=0
353280 On ch=1 n=75 v=61
353760 On ch=1 n=75 v=0
353760 On ch=1 n=72 v=61
354240 On ch=1 n=72 v=0
354240 On ch=1 n=73 v=66
355680 On ch=1 n=73 v=0
355680 On ch=1 n=82 v=71
355680 On ch=1 n=73 v=57
356630 On ch=1 n=73 v=0
356630 On ch=1 n=82 v=0
356640 On ch=1 n=82 v=74
356640 On ch=1 n=73 v=60
357110 On ch=1 n=73 v=0
357110 On ch=1 n=82 v=0
357120 On ch=1 n=82 v=78
357120 On ch=1 n=72 v=63
359520 On ch=1 n=72 v=0
359520 On ch=1 n=82 v=0
359520 On ch=1 n=67 v=61
359520 On ch=1 n=70 v=72
360000 On ch=1 n=70 v=0
360000 On ch=1 n=67 v=0
360000 On ch=1 n=65 v=58
360000 On ch=1 n=68 v=69
361440 On ch=1 n=68 v=0
361440 On ch=1 n=65 v=0
361440 On ch=1 n=80 v=78
361440 On ch=1 n=77 v=62
362390 On ch=1 n=77 v=0
362390 On ch=1 n=80 v=0
362400 On ch=1 n=77 v=66
362400 On ch=1 n=80 v=81
362880 On ch=1 n=80 v=0
362880 On ch=1 n=77 v=0
362880 On ch=1 n=79 v=85
362880 On ch=1 n=77 v=69
365280 On ch=1 n=77 v=0
365280 On ch=1 n=79 v=0
365280 On ch=1 n=62 v=61
365280 On ch=1 n=65 v=72
365760 On ch=1 n=65 v=0
365760 On ch=1 n=62 v=0
365760 On ch=1 n=60 v=58
365760 On ch=1 n=63 v=69
366240 On ch=1 n=63 v=0
366240 On ch=1 n=60 v=0
367200 On ch=1 n=72 v=72
367200 On ch=1 n=84 v=85
367200 On ch=1 n=75 v=72
368150 On ch=1 n=75 v=0
368150 On ch=1 n=84 v=0
368150 On ch=1 n=72 v=0
368160 On ch=1 n=72 v=71
368160 On ch=1 n=75 v=71
368160 On ch=1 n=84 v=84
368630 On ch=1 n=84 v=0
368630 On ch=1 n=75 v=0
368630 On ch=1 n=72 v=0
368640 On ch=1 n=72 v=76
368640 On ch=1 n=84 v=90
368640 On ch=1 n=80 v=76
370080 On ch=1 n=80 v=0
370080 On ch=1 n=84 v=0
370080 On ch=1 n=72 v=0
370080 On ch=1 n=77 v=82
370080 On ch=1 n=89 v=97
370080 On ch=1 n=80 v=82
371030 On ch=1 n=80 v=0
371030 On ch=1 n=89 v=0
371030 On ch=1 n=77 v=0
371040 On ch=1 n=77 v=81
371040 On ch=1 n=80 v=81
371040 On ch=1 n=89 v=96
371510 On ch=1 n=89 v=0
371510 On ch=1 n=80 v=0
371510 On ch=1 n=77 v=0
371520 On ch=1 n=79 v=87
371520 On ch=1 n=77 v=87
371520 On ch=1 n=89 v=103
371520 On ch=1 n=86 v=87
373920 On ch=1 n=86 v=0
373920 On ch=1 n=79 v=0
373920 On ch=1 n=77 v=0
373920 On ch=1 n=89 v=0
373920 On ch=1 n=74 v=67
373920 On ch=1 n=77 v=79
374400 On ch=1 n=77 v=0
374400 On ch=1 n=74 v=0
374400 On ch=1 n=72 v=72
374400 On ch=1 n=75 v=85
375360 On ch=1 n=75 v=0
375360 On ch=1 n=72 v=0
375360 On ch=1 n=67 v=64
375360 On ch=1 n=75 v=76
375840 On ch=1 n=68 v=80
376320 On ch=1 n=75 v=0
376320 On ch=1 n=67 v=0
376320 On ch=1 n=65 v=62
376320 On ch=1 n=74 v=74
376800 On ch=1 n=74 v=0
376800 On ch=1 n=65 v=0
376800 On ch=1 n=68 v=0
376800 On ch=1 n=63 v=60
376800 On ch=1 n=69 v=60
376800 On ch=1 n=72 v=71
377280 On ch=1 n=72 v=0
377280 On ch=1 n=69 v=0
377280 On ch=1 n=63 v=0
377280 On ch=1 n=62 v=64
377280 On ch=1 n=67 v=64
377280 On ch=1 n=71 v=76
377760 On ch=1 n=71 v=0
377760 On ch=1 n=67 v=0
377760 On ch=1 n=62 v=0
378240 On ch=1 n=71 v=48
378240 On ch=1 n=74 v=48
378240 On ch=1 n=79 v=57
378720 On ch=1 n=79 v=0
378720 On ch=1 n=74 v=0
378720 On ch=1 n=71 v=0
378720 On ch=1 n=68 v=51
378720 On ch=1 n=72 v=51
378720 On ch=1 n=77 v=60
379200 On ch=1 n=77 v=0
379200 On ch=1 n=72 v=0
379200 On ch=1 n=68 v=0
379680 On ch=1 n=67 v=47
379680 On ch=1 n=70 v=47
379680 On ch=1 n=75 v=56
380160 On ch=1 n=75 v=0
380160 On ch=1 n=70 v=0
380160 On ch=1 n=67 v=0
380160 On ch=1 n=65 v=51
380160 On ch=1 n=68 v=51
380160 On ch=1 n=74 v=60
380640 On ch=1 n=74 v=0
380640 On ch=1 n=68 v=0
380640 On ch=1 n=65 v=0
381120 On ch=1 n=63 v=48
381120 On ch=1 n=67 v=48
381120 On ch=1 n=72 v=57
381600 On ch=1 n=72 v=0
381600 On ch=1 n=67 v=0
381600 On ch=1 n=63 v=0
381600 On ch=1 n=62 v=51
381600 On ch=1 n=65 v=51
381600 On ch=1 n=71 v=60
382080 On ch=1 n=71 v=0
382080 On ch=1 n=65 v=0
382080 On ch=1 n=62 v=0
382560 On ch=1 n=60 v=45
382560 On ch=1 n=63 v=45
382560 On ch=1 n=68 v=54
383040 On ch=1 n=68 v=0
383040 On ch=1 n=63 v=0
383040 On ch=1 n=60 v=0
383040 On ch=1 n=59 v=51
383040 On ch=1 n=62 v=51
383040 On ch=1 n=67 v=60
383520 On ch=1 n=67 v=0
383520 On ch=1 n=62 v=0
383520 On ch=1 n=59 v=0
384000 On ch=1 n=71 v=43
384000 On ch=1 n=74 v=43
384000 On ch=1 n=79 v=51
384480 On ch=1 n=79 v=0
384480 On ch=1 n=74 v=0
384480 On ch=1 n=71 v=0
384480 On ch=1 n=68 v=45
384480 On ch=1 n=72 v=45
384480 On ch=1 n=77 v=53
384960 On ch=1 n=77 v=0
384960 On ch=1 n=72 v=0
384960 On ch=1 n=68 v=0
385440 On ch=1 n=67 v=40
385440 On ch=1 n=70 v=40
385440 On ch=1 n=75 v=48
385920 On ch=1 n=75 v=0
385920 On ch=1 n=70 v=0
385920 On ch=1 n=67 v=0
385920 On ch=1 n=65 v=43
385920 On ch=1 n=68 v=43
385920 On ch=1 n=74 v=51
386400 On ch=1 n=74 v=0
386400 On ch=1 n=68 v=0
386400 On ch=1 n=65 v=0
386880 On ch=1 n=63 v=39
386880 On ch=1 n=67 v=39
386880 On ch=1 n=72 v=47
387360 On ch=1 n=72 v=0
387360 On ch=1 n=67 v=0
387360 On ch=1 n=63 v=0
387360 On ch=1 n=62 v=41
387360 On ch=1 n=65 v=41
387360 On ch=1 n=71 v=49
387840 On ch=1 n=71 v=0
387840 On ch=1 n=65 v=0
387840 On ch=1 n=62 v=0
388320 On ch=1 n=60 v=35
388320 On ch=1 n=63 v=35
388320 On ch=1 n=68 v=42
388800 On ch=1 n=68 v=0
388800 On ch=1 n=63 v=0
388800 On ch=1 n=60 v=0
388800 On ch=1 n=59 v=39
388800 On ch=1 n=62 v=39
388800 On ch=1 n=67 v=46
389280 On ch=1 n=67 v=0
389280 On ch=1 n=62 v=0
389280 On ch=1 n=59 v=0
389760 On ch=1 n=60 v=34
389760 On ch=1 n=56 v=34
389760 On ch=1 n=65 v=41
390240 On ch=1 n=65 v=0
390240 On ch=1 n=56 v=0
390240 On ch=1 n=60 v=0
390240 On ch=1 n=55 v=36
390240 On ch=1 n=60 v=36
390240 On ch=1 n=63 v=43
390720 On ch=1 n=63 v=0
390720 On ch=1 n=60 v=0
390720 On ch=1 n=55 v=0
391200 On ch=1 n=53 v=32
391200 On ch=1 n=59 v=32
391200 On ch=1 n=62 v=38
391680 On ch=1 n=62 v=0
391680 On ch=1 n=59 v=0
391680 On ch=1 n=53 v=0
391680 On ch=1 n=51 v=69
391680 On ch=1 n=55 v=69
391680 On ch=1 n=60 v=82
392400 On ch=1 n=60 v=0
392400 On ch=1 n=55 v=0
392400 On ch=1 n=51 v=0
392520 On ch=1 n=67 v=70
392640 On ch=1 n=67 v=0
392640 On ch=1 n=75 v=78
393000 On ch=1 n=75 v=0
393000 On ch=1 n=72 v=70
393120 On ch=1 n=72 v=0
393120 On ch=1 n=79 v=79
393480 On ch=1 n=79 v=0
393480 On ch=1 n=75 v=70
393600 On ch=1 n=75 v=0
393600 On ch=1 n=84 v=79
393960 On ch=1 n=84 v=0
393960 On ch=1 n=79 v=70
394080 On ch=1 n=79 v=0
394080 On ch=1 n=87 v=84
394200 On ch=1 n=87 v=0
394560 On ch=1 n=87 v=84
394680 On ch=1 n=87 v=0
395520 On ch=1 n=67 v=39
395520 On ch=1 n=72 v=46
395760 On ch=1 n=72 v=0
395760 On ch=1 n=67 v=0
396000 On ch=1 n=67 v=42
396000 On ch=1 n=72 v=50
396960 On ch=1 n=72 v=0
396960 On ch=1 n=67 v=0
396960 On ch=1 n=67 v=39
396970 On ch=1 n=71 v=46
397430 On ch=1 n=67 v=0
397440 On ch=1 n=71 v=0
397440 On ch=1 n=68 v=69
397440 On ch=1 n=65 v=69
397440 On ch=1 n=71 v=82
398160 On ch=1 n=71 v=0
398160 On ch=1 n=65 v=0
398160 On ch=1 n=68 v=0
398280 On ch=1 n=71 v=70
398400 On ch=1 n=71 v=0
398400 On ch=1 n=77 v=78
398760 On ch=1 n=77 v=0
398760 On ch=1 n=74 v=70
398880 On ch=1 n=74 v=0
398880 On ch=1 n=83 v=79
399240 On ch=1 n=83 v=0
399240 On ch=1 n=77 v=70
399360 On ch=1 n=77 v=0
399360 On ch=1 n=86 v=79
399720 On ch=1 n=86 v=0
399720 On ch=1 n=83 v=70
399840 On ch=1 n=83 v=0
399840 On ch=1 n=89 v=84
399960 On ch=1 n=89 v=0
400320 On ch=1 n=89 v=84
400440 On ch=1 n=89 v=0
401280 On ch=1 n=71 v=39
401280 On ch=1 n=74 v=46
401520 On ch=1 n=74 v=0
401520 On ch=1 n=71 v=0
401760 On ch=1 n=71 v=42
401760 On ch=1 n=74 v=50
402720 On ch=1 n=74 v=0
402720 On ch=1 n=71 v=0
402720 On ch=1 n=72 v=46
403080 On ch=1 n=72 v=0
403080 On ch=1 n=72 v=45
403140 On ch=1 n=72 v=0
403140 On ch=1 n=75 v=48
403200 On ch=1 n=75 v=0
403200 On ch=1 n=79 v=53
403920 On ch=1 n=79 v=0
403920 On ch=1 n=77 v=41
404160 On ch=1 n=77 v=0
404160 On ch=1 n=75 v=51
404640 On ch=1 n=75 v=0
404640 On ch=1 n=74 v=47
405600 On ch=1 n=74 v=0
405600 On ch=1 n=72 v=39
405960 On ch=1 n=72 v=0
405960 On ch=1 n=67 v=27
406000 On ch=1 n=67 v=0
406000 On ch=1 n=72 v=45
406040 On ch=1 n=72 v=0
406040 On ch=1 n=75 v=48
406080 On ch=1 n=75 v=0
406080 On ch=1 n=79 v=53
406800 On ch=1 n=79 v=0
406800 On ch=1 n=77 v=41
407040 On ch=1 n=77 v=0
407040 On ch=1 n=72 v=43
407040 On ch=1 n=75 v=51
407520 On ch=1 n=75 v=0
407520 On ch=1 n=72 v=0
407520 On ch=1 n=71 v=39
407520 On ch=1 n=74 v=47
408480 On ch=1 n=74 v=0
408480 On ch=1 n=71 v=0
408480 On ch=1 n=72 v=39
408840 On ch=1 n=72 v=0
408840 On ch=1 n=67 v=60
408880 On ch=1 n=67 v=0
408880 On ch=1 n=72 v=63
408920 On ch=1 n=72 v=0
408920 On ch=1 n=75 v=69
408960 On ch=1 n=75 v=0
408960 On ch=1 n=67 v=69
408960 On ch=1 n=79 v=81
409680 On ch=1 n=79 v=0
409680 On ch=1 n=67 v=0
409680 On ch=1 n=77 v=61
409680 On ch=1 n=65 v=51
409920 On ch=1 n=65 v=0
409920 On ch=1 n=77 v=0
409920 On ch=1 n=75 v=73
409920 On ch=1 n=63 v=62
410880 On ch=1 n=63 v=0
410880 On ch=1 n=75 v=0
410880 On ch=1 n=74 v=72
410880 On ch=1 n=62 v=61
411000 On ch=1 n=62 v=0
411000 On ch=1 n=74 v=0
411360 On ch=1 n=72 v=75
411360 On ch=1 n=60 v=63
412320 On ch=1 n=60 v=0
412320 On ch=1 n=72 v=0
412320 On ch=1 n=59 v=63
412320 On ch=1 n=71 v=75
412440 On ch=1 n=71 v=0
412440 On ch=1 n=59 v=0
412800 On ch=1 n=56 v=62
412800 On ch=1 n=68 v=74
413760 On ch=1 n=68 v=0
413760 On ch=1 n=56 v=0
413760 On ch=1 n=55 v=57
413760 On ch=1 n=67 v=67
414000 On ch=1 n=67 v=0
414000 On ch=1 n=55 v=0
415200 On ch=1 n=59 v=42
415360 On ch=1 n=59 v=0
415360 On ch=1 n=62 v=35
415520 On ch=1 n=62 v=0
415520 On ch=1 n=65 v=35
415680 On ch=1 n=65 v=0
415680 On ch=1 n=68 v=43
415840 On ch=1 n=68 v=0
415840 On ch=1 n=67 v=36
416000 On ch=1 n=67 v=0
416000 On ch=1 n=65 v=36
416160 On ch=1 n=65 v=0
416160 On ch=1 n=63 v=43
416280 On ch=1 n=63 v=0
418080 On ch=1 n=53 v=42
418240 On ch=1 n=53 v=0
418240 On ch=1 n=56 v=35
418400 On ch=1 n=56 v=0
418400 On ch=1 n=62 v=35
418560 On ch=1 n=62 v=0
418560 On ch=1 n=65 v=43
418720 On ch=1 n=65 v=0
418720 On ch=1 n=63 v=36
418880 On ch=1 n=63 v=0
418880 On ch=1 n=62 v=36
419040 On ch=1 n=62 v=0
419040 On ch=1 n=60 v=43
419160 On ch=1 n=60 v=0
420960 On ch=1 n=55 v=66
421120 On ch=1 n=55 v=0
421120 On ch=1 n=59 v=69
421280 On ch=1 n=59 v=0
421280 On ch=1 n=62 v=72
421440 On ch=1 n=62 v=0
421440 On ch=1 n=65 v=75
421600 On ch=1 n=65 v=0
421600 On ch=1 n=62 v=67
421760 On ch=1 n=62 v=0
421760 On ch=1 n=59 v=71
421920 On ch=1 n=59 v=0
421920 On ch=1 n=60 v=94
422160 On ch=1 n=60 v=0
426720 On ch=1 n=65 v=50
427200 On ch=1 n=73 v=45
427680 On ch=1 n=73 v=0
427680 On ch=1 n=65 v=0
427680 On ch=1 n=66 v=42
427680 On ch=1 n=73 v=50
428640 On ch=1 n=73 v=0
428640 On ch=1 n=73 v=45
429120 On ch=1 n=66 v=0
429120 On ch=1 n=65 v=42
429600 On ch=1 n=73 v=0
429600 On ch=1 n=75 v=45
430080 On ch=1 n=75 v=0
430080 On ch=1 n=71 v=44
430560 On ch=1 n=65 v=0
430560 On ch=1 n=66 v=42
431040 On ch=1 n=71 v=0
431040 On ch=1 n=69 v=45
431520 On ch=1 n=69 v=0
431520 On ch=1 n=70 v=45
432000 On ch=1 n=70 v=0
432000 On ch=1 n=66 v=0
432480 On ch=1 n=77 v=50
432960 On ch=1 n=85 v=45
433440 On ch=1 n=85 v=0
433440 On ch=1 n=77 v=0
433440 On ch=1 n=78 v=42
433440 On ch=1 n=85 v=50
434400 On ch=1 n=85 v=0
434400 On ch=1 n=85 v=45
434880 On ch=1 n=78 v=0
434880 On ch=1 n=77 v=42
435360 On ch=1 n=85 v=0
435360 On ch=1 n=87 v=45
435840 On ch=1 n=87 v=0
435840 On ch=1 n=83 v=44
436320 On ch=1 n=77 v=0
436320 On ch=1 n=78 v=42
436800 On ch=1 n=83 v=0
436800 On ch=1 n=81 v=45
437280 On ch=1 n=81 v=0
437280 On ch=1 n=82 v=45
437760 On ch=1 n=82 v=0
437760 On ch=1 n=78 v=0
438240 On ch=1 n=74 v=50
438720 On ch=1 n=82 v=45
439200 On ch=1 n=82 v=0
439200 On ch=1 n=74 v=0
439200 On ch=1 n=75 v=42
439200 On ch=1 n=82 v=50
440160 On ch=1 n=82 v=0
440160 On ch=1 n=82 v=45
440640 On ch=1 n=75 v=0
440640 On ch=1 n=74 v=42
441120 On ch=1 n=82 v=0
441120 On ch=1 n=83 v=45
441600 On ch=1 n=83 v=0
441600 On ch=1 n=80 v=44
442080 On ch=1 n=74 v=0
442080 On ch=1 n=70 v=49
442560 On ch=1 n=80 v=0
442560 On ch=1 n=77 v=52
443040 On ch=1 n=77 v=0
443040 On ch=1 n=78 v=52
443520 On ch=1 n=70 v=0
443520 On ch=1 n=71 v=50
444000 On ch=1 n=78 v=0
444000 On ch=1 n=80 v=55
444480 On ch=1 n=80 v=0
444480 On ch=1 n=77 v=50
444960 On ch=1 n=71 v=0
444960 On ch=1 n=72 v=42
445440 On ch=1 n=77 v=0
445440 On ch=1 n=77 v=45
445920 On ch=1 n=77 v=0
445920 On ch=1 n=76 v=45
446400 On ch=1 n=72 v=0
446400 On ch=1 n=68 v=42
446880 On ch=1 n=76 v=0
446880 On ch=1 n=77 v=45
447360 On ch=1 n=77 v=0
447360 On ch=1 n=68 v=0
447360 On ch=1 n=65 v=28
447360 On ch=1 n=68 v=33
447840 On ch=1 n=68 v=0
447840 On ch=1 n=65 v=0
447840 On ch=1 n=64 v=32
447840 On ch=1 n=67 v=38
448320 On ch=1 n=67 v=0
448320 On ch=1 n=64 v=0
449760 On ch=1 n=73 v=38
450000 On ch=1 n=73 v=0
450240 On ch=1 n=73 v=38
450480 On ch=1 n=73 v=0
450720 On ch=1 n=73 v=46
451200 On ch=1 n=73 v=0
451200 On ch=1 n=72 v=38
451680 On ch=1 n=72 v=0
452640 On ch=1 n=70 v=38
452880 On ch=1 n=70 v=0
453120 On ch=1 n=70 v=38
453360 On ch=1 n=70 v=0
453600 On ch=1 n=70 v=43
454080 On ch=1 n=70 v=0
454080 On ch=1 n=69 v=38
454560 On ch=1 n=69 v=0
455280 On ch=1 n=74 v=37
455520 On ch=1 n=74 v=0
455520 On ch=1 n=73 v=38
455760 On ch=1 n=73 v=0
455760 On ch=1 n=74 v=34
456000 On ch=1 n=74 v=0
456000 On ch=1 n=76 v=43
456240 On ch=1 n=76 v=0
456240 On ch=1 n=74 v=38
456480 On ch=1 n=74 v=0
456720 On ch=1 n=72 v=36
456960 On ch=1 n=72 v=0
456960 On ch=1 n=71 v=38
457200 On ch=1 n=71 v=0
457200 On ch=1 n=72 v=36
457440 On ch=1 n=72 v=0
457440 On ch=1 n=74 v=44
457680 On ch=1 n=74 v=0
457680 On ch=1 n=72 v=38
457920 On ch=1 n=72 v=0
458160 On ch=1 n=70 v=36
458400 On ch=1 n=70 v=0
458400 On ch=1 n=69 v=38
458640 On ch=1 n=69 v=0
458640 On ch=1 n=70 v=35
458880 On ch=1 n=70 v=0
458880 On ch=1 n=72 v=44
459120 On ch=1 n=72 v=0
459120 On ch=1 n=70 v=37
459360 On ch=1 n=70 v=0
459360 On ch=1 n=69 v=46
461520 On ch=1 n=69 v=0
461520 On ch=1 n=72 v=56
461760 On ch=1 n=72 v=0
461760 On ch=1 n=77 v=62
462240 On ch=1 n=77 v=0
462240 On ch=1 n=77 v=63
463680 On ch=1 n=77 v=0
463680 On ch=1 n=76 v=57
464160 On ch=1 n=76 v=0
465120 On ch=1 n=72 v=51
466560 On ch=1 n=72 v=0
466560 On ch=1 n=72 v=61
466800 On ch=1 n=72 v=0
466800 On ch=1 n=74 v=57
466880 On ch=1 n=74 v=0
466880 On ch=1 n=72 v=52
466960 On ch=1 n=72 v=0
466960 On ch=1 n=71 v=52
467040 On ch=1 n=71 v=0
467040 On ch=1 n=72 v=61
467280 On ch=1 n=72 v=0
467280 On ch=1 n=79 v=71
467520 On ch=1 n=79 v=0
467520 On ch=1 n=82 v=76
468000 On ch=1 n=82 v=0
468000 On ch=1 n=82 v=78
469440 On ch=1 n=82 v=0
469440 On ch=1 n=81 v=69
469920 On ch=1 n=81 v=0
470880 On ch=1 n=69 v=56
471000 On ch=1 n=69 v=0
471120 On ch=1 n=70 v=58
471240 On ch=1 n=70 v=0
471360 On ch=1 n=72 v=60
471480 On ch=1 n=72 v=0
471600 On ch=1 n=74 v=62
471720 On ch=1 n=74 v=0
471840 On ch=1 n=76 v=64
471960 On ch=1 n=76 v=0
472080 On ch=1 n=77 v=65
472200 On ch=1 n=77 v=0
472320 On ch=1 n=79 v=67
472440 On ch=1 n=79 v=0
472560 On ch=1 n=81 v=71
472680 On ch=1 n=81 v=0
472800 On ch=1 n=82 v=74
472920 On ch=1 n=82 v=0
473040 On ch=1 n=84 v=77
473160 On ch=1 n=84 v=0
473280 On ch=1 n=86 v=80
473400 On ch=1 n=86 v=0
473520 On ch=1 n=88 v=83
473640 On ch=1 n=88 v=0
473760 On ch=1 n=89 v=90
475200 On ch=1 n=89 v=0
475200 On ch=1 n=88 v=71
475680 On ch=1 n=88 v=0
476640 On ch=1 n=60 v=56
476760 On ch=1 n=60 v=0
476880 On ch=1 n=62 v=58
477000 On ch=1 n=62 v=0
477120 On ch=1 n=64 v=60
477240 On ch=1 n=64 v=0
477360 On ch=1 n=65 v=62
477480 On ch=1 n=65 v=0
477600 On ch=1 n=67 v=64
477720 On ch=1 n=67 v=0
477840 On ch=1 n=69 v=65
477960 On ch=1 n=69 v=0
478080 On ch=1 n=70 v=71
478200 On ch=1 n=70 v=0
478320 On ch=1 n=72 v=71
478440 On ch=1 n=72 v=0
478560 On ch=1 n=74 v=73
478680 On ch=1 n=74 v=0
478800 On ch=1 n=76 v=75
478920 On ch=1 n=76 v=0
479040 On ch=1 n=77 v=82
479160 On ch=1 n=77 v=0
479280 On ch=1 n=79 v=84
479400 On ch=1 n=79 v=0
479520 On ch=1 n=80 v=92
481440 On ch=1 n=80 v=0
481440 On ch=1 n=79 v=77
481920 On ch=1 n=79 v=0
481920 On ch=1 n=77 v=77
482400 On ch=1 n=77 v=0
482400 On ch=1 n=75 v=84
483480 On ch=1 n=75 v=0
483480 On ch=1 n=77 v=57
483560 On ch=1 n=77 v=0
483560 On ch=1 n=75 v=61
483640 On ch=1 n=75 v=0
483640 On ch=1 n=74 v=65
483720 On ch=1 n=74 v=0
483720 On ch=1 n=75 v=69
483840 On ch=1 n=75 v=0
483840 On ch=1 n=79 v=84
484320 On ch=1 n=79 v=0
484320 On ch=1 n=77 v=78
484800 On ch=1 n=77 v=0
484800 On ch=1 n=74 v=78
485280 On ch=1 n=74 v=0
485280 On ch=1 n=63 v=66
485280 On ch=1 n=75 v=89
487440 On ch=1 n=75 v=0
487440 On ch=1 n=63 v=0
487440 On ch=1 n=67 v=63
487440 On ch=1 n=79 v=84
487680 On ch=1 n=79 v=0
487680 On ch=1 n=67 v=0
487680 On ch=1 n=72 v=72
487680 On ch=1 n=84 v=97
488160 On ch=1 n=84 v=0
488160 On ch=1 n=72 v=0
488160 On ch=1 n=72 v=73
488160 On ch=1 n=84 v=98
489600 On ch=1 n=84 v=0
489600 On ch=1 n=72 v=0
489600 On ch=1 n=71 v=63
489600 On ch=1 n=83 v=85
490080 On ch=1 n=83 v=0
490080 On ch=1 n=71 v=0
491040 On ch=1 n=67 v=66
491040 On ch=1 n=79 v=89
493200 On ch=1 n=79 v=0
493200 On ch=1 n=67 v=0
493200 On ch=1 n=74 v=63
493200 On ch=1 n=86 v=84
493440 On ch=1 n=86 v=0
493440 On ch=1 n=74 v=0
493440 On ch=1 n=77 v=72
493440 On ch=1 n=89 v=97
493910 On ch=1 n=89 v=0
493910 On ch=1 n=77 v=0
493920 On ch=1 n=77 v=73
493920 On ch=1 n=89 v=98
495360 On ch=1 n=89 v=0
495360 On ch=1 n=77 v=0
495360 On ch=1 n=75 v=66
495360 On ch=1 n=87 v=88
495840 On ch=1 n=87 v=0
495840 On ch=1 n=75 v=0
496800 On ch=1 n=63 v=89
497040 On ch=1 n=63 v=0
497040 On ch=1 n=67 v=75
497280 On ch=1 n=67 v=0
497280 On ch=1 n=72 v=79
497520 On ch=1 n=72 v=0
497520 On ch=1 n=67 v=79
497760 On ch=1 n=67 v=0
497760 On ch=1 n=72 v=83
498000 On ch=1 n=72 v=0
498000 On ch=1 n=75 v=89
498240 On ch=1 n=75 v=0
498240 On ch=1 n=72 v=89
498480 On ch=1 n=72 v=0
498480 On ch=1 n=75 v=77
498720 On ch=1 n=75 v=0
498720 On ch=1 n=79 v=83
498960 On ch=1 n=79 v=0
498960 On ch=1 n=75 v=89
499200 On ch=1 n=75 v=0
499200 On ch=1 n=79 v=83
499440 On ch=1 n=79 v=0
499440 On ch=1 n=84 v=89
499670 On ch=1 n=84 v=0
499680 On ch=1 n=84 v=98
501120 On ch=1 n=84 v=0
501120 On ch=1 n=83 v=92
501600 On ch=1 n=83 v=0
502560 On ch=1 n=55 v=80
502800 On ch=1 n=55 v=0
502800 On ch=1 n=59 v=67
503040 On ch=1 n=59 v=0
503040 On ch=1 n=62 v=71
503280 On ch=1 n=62 v=0
503280 On ch=1 n=59 v=71
503520 On ch=1 n=59 v=0
503520 On ch=1 n=62 v=74
503760 On ch=1 n=62 v=0
503760 On ch=1 n=67 v=80
504000 On ch=1 n=67 v=0
504000 On ch=1 n=62 v=80
504240 On ch=1 n=62 v=0
504240 On ch=1 n=67 v=69
504480 On ch=1 n=67 v=0
504480 On ch=1 n=71 v=74
504720 On ch=1 n=71 v=0
504720 On ch=1 n=67 v=80
504960 On ch=1 n=67 v=0
504960 On ch=1 n=71 v=74
505200 On ch=1 n=71 v=0
505200 On ch=1 n=74 v=80
505440 On ch=1 n=74 v=0
505440 On ch=1 n=75 v=86
505920 On ch=1 n=75 v=0
506400 On ch=1 n=84 v=100
507840 On ch=1 n=84 v=0
507840 On ch=1 n=52 v=77
508320 On ch=1 n=52 v=0
508320 On ch=1 n=53 v=82
509760 On ch=1 n=53 v=0
509760 On ch=1 n=54 v=84
511200 On ch=1 n=54 v=0
511200 On ch=1 n=55 v=84
512640 On ch=1 n=55 v=0
512640 On ch=1 n=53 v=84
512760 On ch=1 n=53 v=0
512760 On ch=1 n=55 v=57
512880 On ch=1 n=55 v=0
512880 On ch=1 n=53 v=61
512960 On ch=1 n=53 v=0
512960 On ch=1 n=55 v=57
513040 On ch=1 n=55 v=0
513040 On ch=1 n=53 v=64
513120 On ch=1 n=53 v=0
513120 On ch=1 n=55 v=56
513200 On ch=1 n=55 v=0
513200 On ch=1 n=53 v=64
513280 On ch=1 n=53 v=0
513280 On ch=1 n=55 v=56
513360 On ch=1 n=55 v=0
513360 On ch=1 n=53 v=64
513440 On ch=1 n=53 v=0
513440 On ch=1 n=55 v=55
513520 On ch=1 n=55 v=0
513520 On ch=1 n=53 v=64
513600 On ch=1 n=53 v=0
513600 On ch=1 n=55 v=54
513720 On ch=1 n=55 v=0
513720 On ch=1 n=53 v=59
513840 On ch=1 n=53 v=0
513840 On ch=1 n=52 v=55
513960 On ch=1 n=52 v=0
513960 On ch=1 n=53 v=57
514080 On ch=1 n=53 v=0
514080 On ch=1 n=51 v=74
514320 On ch=1 n=51 v=0
514320 On ch=1 n=55 v=60
514560 On ch=1 n=55 v=0
514560 On ch=1 n=60 v=68
514800 On ch=1 n=60 v=0
514800 On ch=1 n=55 v=61
515040 On ch=1 n=55 v=0
515040 On ch=1 n=60 v=69
515280 On ch=1 n=60 v=0
515280 On ch=1 n=63 v=63
515520 On ch=1 n=63 v=0
515520 On ch=1 n=67 v=69
515760 On ch=1 n=67 v=0
515760 On ch=1 n=63 v=60
516000 On ch=1 n=63 v=0
516000 On ch=1 n=67 v=73
516240 On ch=1 n=67 v=0
516240 On ch=1 n=72 v=68
516480 On ch=1 n=72 v=0
516480 On ch=1 n=75 v=80
516720 On ch=1 n=75 v=0
516720 On ch=1 n=79 v=73
516960 On ch=1 n=79 v=0
516960 On ch=1 n=84 v=89
517200 On ch=1 n=84 v=0
517920 On ch=1 n=60 v=84
519360 On ch=1 n=60 v=0
519360 On ch=1 n=52 v=81
519840 On ch=1 n=52 v=0
519840 On ch=1 n=53 v=84
520800 On ch=1 n=53 v=0
520800 On ch=1 n=60 v=84
521280 On ch=1 n=60 v=0
521280 On ch=1 n=54 v=92
522240 On ch=1 n=54 v=0
522240 On ch=1 n=60 v=84
522720 On ch=1 n=60 v=0
522720 On ch=1 n=55 v=88
522960 On ch=1 n=55 v=0
522960 On ch=1 n=60 v=62
523200 On ch=1 n=60 v=0
523200 On ch=1 n=59 v=74
523440 On ch=1 n=59 v=0
523440 On ch=1 n=60 v=62
523680 On ch=1 n=60 v=0
523680 On ch=1 n=55 v=72
523920 On ch=1 n=55 v=0
523920 On ch=1 n=60 v=62
524160 On ch=1 n=60 v=0
524160 On ch=1 n=56 v=82
524400 On ch=1 n=56 v=0
524400 On ch=1 n=60 v=62
524640 On ch=1 n=60 v=0
524640 On ch=1 n=59 v=73
524880 On ch=1 n=59 v=0
524880 On ch=1 n=60 v=64
525120 On ch=1 n=60 v=0
525120 On ch=1 n=54 v=73
525360 On ch=1 n=54 v=0
525360 On ch=1 n=60 v=62
525600 On ch=1 n=60 v=0
525600 On ch=1 n=55 v=88
525840 On ch=1 n=55 v=0
525840 On ch=1 n=60 v=63
526080 On ch=1 n=60 v=0
526080 On ch=1 n=59 v=73
526320 On ch=1 n=59 v=0
526320 On ch=1 n=60 v=62
526560 On ch=1 n=60 v=0
526560 On ch=1 n=52 v=74
526800 On ch=1 n=52 v=0
526800 On ch=1 n=60 v=65
527040 On ch=1 n=60 v=0
527040 On ch=1 n=53 v=88
527280 On ch=1 n=53 v=0
527280 On ch=1 n=60 v=64
527520 On ch=1 n=60 v=0
527520 On ch=1 n=56 v=71
527760 On ch=1 n=56 v=0
527760 On ch=1 n=60 v=65
528000 On ch=1 n=60 v=0
528000 On ch=1 n=54 v=80
528240 On ch=1 n=54 v=0
528240 On ch=1 n=60 v=72
528480 On ch=1 n=60 v=0
528480 On ch=1 n=55 v=93
528960 On ch=1 n=55 v=0
529320 On ch=1 n=67 v=81
529440 On ch=1 n=67 v=0
529440 On ch=1 n=75 v=87
529800 On ch=1 n=75 v=0
529800 On ch=1 n=72 v=84
529920 On ch=1 n=72 v=0
529920 On ch=1 n=78 v=93
530040 On ch=1 n=78 v=0
530760 On ch=1 n=66 v=81
530880 On ch=1 n=66 v=0
530880 On ch=1 n=75 v=87
531240 On ch=1 n=75 v=0
531240 On ch=1 n=72 v=84
531360 On ch=1 n=72 v=0
531360 On ch=1 n=79 v=93
531480 On ch=1 n=79 v=0
532200 On ch=1 n=67 v=81
532320 On ch=1 n=67 v=0
532320 On ch=1 n=75 v=87
532680 On ch=1 n=75 v=0
532680 On ch=1 n=72 v=84
532800 On ch=1 n=72 v=0
532800 On ch=1 n=81 v=93
532920 On ch=1 n=81 v=0
533640 On ch=1 n=69 v=81
533760 On ch=1 n=69 v=0
533760 On ch=1 n=75 v=87
534120 On ch=1 n=75 v=0
534120 On ch=1 n=72 v=84
534240 On ch=1 n=72 v=0
534240 On ch=1 n=79 v=95
534960 On ch=1 n=79 v=0
534960 On ch=1 n=75 v=85
535200 On ch=1 n=75 v=0
535200 On ch=1 n=75 v=93
535440 On ch=1 n=75 v=0
535440 On ch=1 n=72 v=79
535620 On ch=1 n=72 v=0
535680 On ch=1 n=72 v=88
535920 On ch=1 n=72 v=0
535920 On ch=1 n=67 v=78
536100 On ch=1 n=67 v=0
536160 On ch=1 n=67 v=85
536400 On ch=1 n=67 v=0
536400 On ch=1 n=63 v=77
536580 On ch=1 n=63 v=0
536640 On ch=1 n=63 v=81
536880 On ch=1 n=63 v=0
536880 On ch=1 n=60 v=77
537060 On ch=1 n=60 v=0
539520 On ch=1 n=55 v=66
539520 On ch=1 n=59 v=78
540000 On ch=1 n=59 v=0
540000 On ch=1 n=55 v=0
540000 On ch=1 n=55 v=70
540000 On ch=1 n=60 v=83
540480 On ch=1 n=60 v=0
540480 On ch=1 n=55 v=0
541920 On ch=1 n=67 v=53
541920 On ch=1 n=62 v=42
541920 On ch=1 n=65 v=42
541920 On ch=1 n=59 v=42
542400 On ch=1 n=59 v=0
542400 On ch=1 n=67 v=0
542400 On ch=1 n=62 v=0
542400 On ch=1 n=65 v=0
542400 On ch=1 n=59 v=38
542400 On ch=1 n=62 v=38
542400 On ch=1 n=65 v=38
542400 On ch=1 n=67 v=48
542880 On ch=1 n=67 v=0
542880 On ch=1 n=59 v=0
542880 On ch=1 n=62 v=0
542880 On ch=1 n=65 v=0
542880 On ch=1 n=60 v=42
542880 On ch=1 n=63 v=42
542880 On ch=1 n=68 v=53
543360 On ch=1 n=68 v=0
543360 On ch=1 n=67 v=49
543840 On ch=1 n=67 v=0
543840 On ch=1 n=63 v=0
543840 On ch=1 n=60 v=0
544800 On ch=1 n=62 v=42
544800 On ch=1 n=65 v=42
544800 On ch=1 n=71 v=53
545280 On ch=1 n=71 v=0
545280 On ch=1 n=65 v=0
545280 On ch=1 n=62 v=0
545280 On ch=1 n=62 v=38
545280 On ch=1 n=65 v=38
545280 On ch=1 n=71 v=48
545760 On ch=1 n=71 v=0
545760 On ch=1 n=65 v=0
545760 On ch=1 n=62 v=0
545760 On ch=1 n=63 v=42
545760 On ch=1 n=67 v=42
545760 On ch=1 n=74 v=53
546240 On ch=1 n=74 v=0
546240 On ch=1 n=72 v=49
546720 On ch=1 n=72 v=0
546720 On ch=1 n=67 v=0
546720 On ch=1 n=63 v=0
547680 On ch=1 n=59 v=42
547680 On ch=1 n=62 v=42
547680 On ch=1 n=65 v=42
547680 On ch=1 n=67 v=53
548160 On ch=1 n=67 v=0
548160 On ch=1 n=59 v=0
548160 On ch=1 n=62 v=0
548160 On ch=1 n=65 v=0
548160 On ch=1 n=67 v=48
548160 On ch=1 n=62 v=38
548160 On ch=1 n=65 v=38
548160 On ch=1 n=59 v=38
548640 On ch=1 n=59 v=0
548640 On ch=1 n=67 v=0
548640 On ch=1 n=62 v=0
548640 On ch=1 n=65 v=0
548640 On ch=1 n=60 v=42
548640 On ch=1 n=63 v=42
548640 On ch=1 n=68 v=53
549120 On ch=1 n=68 v=0
549120 On ch=1 n=67 v=49
549600 On ch=1 n=67 v=0
549600 On ch=1 n=63 v=0
549600 On ch=1 n=60 v=0
550560 On ch=1 n=50 v=42
550560 On ch=1 n=53 v=42
550560 On ch=1 n=59 v=53
551040 On ch=1 n=59 v=0
551040 On ch=1 n=53 v=0
551040 On ch=1 n=50 v=0
551040 On ch=1 n=50 v=38
551040 On ch=1 n=53 v=38
551040 On ch=1 n=59 v=48
551520 On ch=1 n=59 v=0
551520 On ch=1 n=53 v=0
551520 On ch=1 n=50 v=0
551520 On ch=1 n=51 v=42
551520 On ch=1 n=55 v=42
551520 On ch=1 n=62 v=53
552000 On ch=1 n=62 v=0
552000 On ch=1 n=60 v=49
552480 On ch=1 n=60 v=0
552480 On ch=1 n=55 v=0
552480 On ch=1 n=51 v=0
553440 On ch=1 n=50 v=42
553440 On ch=1 n=53 v=42
553440 On ch=1 n=59 v=53
553920 On ch=1 n=59 v=0
553920 On ch=1 n=53 v=0
553920 On ch=1 n=50 v=0
553920 On ch=1 n=50 v=38
553920 On ch=1 n=53 v=38
553920 On ch=1 n=59 v=48
554400 On ch=1 n=59 v=0
554400 On ch=1 n=53 v=0
554400 On ch=1 n=50 v=0
554400 On ch=1 n=51 v=42
554400 On ch=1 n=55 v=42
554400 On ch=1 n=60 v=53
554880 On ch=1 n=60 v=0
554880 On ch=1 n=55 v=0
554880 On ch=1 n=51 v=0
555840 On ch=1 n=67 v=82
555840 On ch=1 n=71 v=82
555840 On ch=1 n=74 v=82
555840 On ch=1 n=79 v=97
556320 On ch=1 n=79 v=0
556320 On ch=1 n=67 v=0
556320 On ch=1 n=71 v=0
556320 On ch=1 n=74 v=0
557280 On ch=1 n=60 v=82
557280 On ch=1 n=63 v=82
557280 On ch=1 n=67 v=82
557280 On ch=1 n=72 v=97
557760 On ch=1 n=72 v=0
557760 On ch=1 n=60 v=0
557760 On ch=1 n=63 v=0
557760 On ch=1 n=67 v=0