216 Off ch=1 n=81 v=64
240 On ch=1 n=80 v=80
456 Off ch=1 n=80 v=64
480 On ch=1 n=81 v=80
696 Off ch=1 n=81 v=64
720 On ch=1 n=80 v=80
936 Off ch=1 n=80 v=64
960 On ch=1 n=81 v=80
1176 Off ch=1 n=81 v=64
1200 On ch=1 n=76 v=80
1416 Off ch=1 n=76 v=64
1440 On ch=1 n=81 v=80
1656 Off ch=1 n=81 v=64
1680 On ch=1 n=74 v=80
3648 Off ch=1 n=74 v=64
3786 On ch=1 n=69 v=65
3813 Off ch=1 n=69 v=64
3813 On ch=1 n=73 v=65
3840 Off ch=1 n=73 v=64
3840 On ch=1 n=81 v=80
4056 Off ch=1 n=81 v=64
4080 On ch=1 n=80 v=80
4296 Off ch=1 n=80 v=64
4320 On ch=1 n=81 v=80
4536 Off ch=1 n=81 v=64
4560 On ch=1 n=80 v=80
4776 Off ch=1 n=80 v=64
4800 On ch=1 n=81 v=80
5016 Off ch=1 n=81 v=64
5040 On ch=1 n=76 v=80
5256 Off ch=1 n=76 v=64
5280 On ch=1 n=81 v=80
5496 Off ch=1 n=81 v=64
5520 On ch=1 n=74 v=80
7488 Off ch=1 n=74 v=64
7626 On ch=1 n=69 v=65
7653 Off ch=1 n=69 v=64
7653 On ch=1 n=73 v=65
7680 Off ch=1 n=73 v=64
7680 On ch=1 n=81 v=80
7896 Off ch=1 n=81 v=64
7920 On ch=1 n=80 v=80
8028 Off ch=1 n=80 v=64
8040 On ch=1 n=81 v=80
8376 Off ch=1 n=81 v=64
8400 On ch=1 n=80 v=80
8508 Off ch=1 n=80 v=64
8520 On ch=1 n=81 v=80
8736 Off ch=1 n=81 v=64
8760 On ch=1 n=69 v=80
8868 Off ch=1 n=69 v=64
8880 On ch=1 n=76 v=80
8988 Off ch=1 n=76 v=64
9000 On ch=1 n=81 v=80
9216 Off ch=1 n=81 v=64
9240 On ch=1 n=69 v=80
9348 Off ch=1 n=69 v=64
9360 On ch=1 n=74 v=80
9468 Off ch=1 n=74 v=64
9480 On ch=1 n=69 v=80
9510 On ch=1 n=64 v=80
9540 On ch=1 n=69 v=80
9570 On ch=1 n=73 v=80
9588 Off ch=1 n=69 v=64
9726 Off ch=1 n=64 v=64
9756 Off ch=1 n=69 v=64
9786 Off ch=1 n=73 v=64
9840 On ch=1 n=74 v=80
10056 Off ch=1 n=74 v=64
10080 On ch=1 n=76 v=80
10080 On ch=1 n=69 v=80
10296 Off ch=1 n=76 v=64
10296 Off ch=1 n=69 v=64
10320 On ch=1 n=73 v=80
10536 Off ch=1 n=73 v=64
10560 On ch=1 n=71 v=80
11208 Off ch=1 n=71 v=64
11280 On ch=1 n=69 v=80
11388 Off ch=1 n=69 v=64
11400 On ch=1 n=68 v=80
11508 Off ch=1 n=68 v=64
11520 On ch=1 n=69 v=80
11952 Off ch=1 n=69 v=64
12120 On ch=1 n=64 v=80
12228 Off ch=1 n=64 v=64
12240 On ch=1 n=69 v=80
12348 Off ch=1 n=69 v=64
12360 On ch=1 n=71 v=80
12468 Off ch=1 n=71 v=64
12480 On ch=1 n=73 v=80
13128 Off ch=1 n=73 v=64
13200 On ch=1 n=73 v=80
13308 Off ch=1 n=73 v=64
13320 On ch=1 n=74 v=80
13428 Off ch=1 n=74 v=64
13440 On ch=1 n=76 v=80
14088 Off ch=1 n=76 v=64
14160 On ch=1 n=74 v=80
14268 Off ch=1 n=74 v=64
14280 On ch=1 n=73 v=80
14388 Off ch=1 n=73 v=64
14400 On ch=1 n=71 v=80
15264 Off ch=1 n=71 v=64
15306 On ch=1 n=69 v=65
15333 Off ch=1 n=69 v=64
15333 On ch=1 n=73 v=65
15360 Off ch=1 n=73 v=64
15360 On ch=1 n=81 v=80
15576 Off ch=1 n=81 v=64
15600 On ch=1 n=80 v=80
15708 Off ch=1 n=80 v=64
15720 On ch=1 n=81 v=80
16056 Off ch=1 n=81 v=64
16080 On ch=1 n=80 v=80
16188 Off ch=1 n=80 v=64
16200 On ch=1 n=81 v=80
16416 Off ch=1 n=81 v=64
16440 On ch=1 n=69 v=80
16548 Off ch=1 n=69 v=64
16560 On ch=1 n=76 v=80
16668 Off ch=1 n=76 v=64
16680 On ch=1 n=81 v=80
16896 Off ch=1 n=81 v=64
16920 On ch=1 n=69 v=80
17028 Off ch=1 n=69 v=64
17040 On ch=1 n=74 v=80
17148 Off ch=1 n=74 v=64
17160 On ch=1 n=69 v=80
17190 On ch=1 n=64 v=80
17220 On ch=1 n=69 v=80
17250 On ch=1 n=73 v=80
17268 Off ch=1 n=69 v=64
17406 Off ch=1 n=64 v=64
17436 Off ch=1 n=69 v=64
17466 Off ch=1 n=73 v=64
17520 On ch=1 n=74 v=80
17736 Off ch=1 n=74 v=64
17760 On ch=1 n=76 v=80
17976 Off ch=1 n=76 v=64
18000 On ch=1 n=85 v=80
18216 Off ch=1 n=85 v=64
18240 On ch=1 n=83 v=80
18456 Off ch=1 n=83 v=64
18480 On ch=1 n=76 v=80
18635 On ch=1 n=83 v=83
18689 Off ch=1 n=83 v=64
18696 Off ch=1 n=76 v=64
18720 On ch=1 n=85 v=80
18828 Off ch=1 n=85 v=64
18840 On ch=1 n=83 v=80
18948 Off ch=1 n=83 v=64
18960 On ch=1 n=81 v=80
19068 Off ch=1 n=81 v=64
19080 On ch=1 n=80 v=80
19188 Off ch=1 n=80 v=64
19200 On ch=1 n=81 v=80
19848 Off ch=1 n=81 v=64
19920 On ch=1 n=69 v=80
20028 Off ch=1 n=69 v=64
20040 On ch=1 n=71 v=80
20148 Off ch=1 n=71 v=64
20160 On ch=1 n=73 v=80
20808 Off ch=1 n=73 v=64
20880 On ch=1 n=73 v=80
20988 Off ch=1 n=73 v=64
21000 On ch=1 n=74 v=80
21108 Off ch=1 n=74 v=64
21120 On ch=1 n=76 v=80
21768 Off ch=1 n=76 v=64
21840 On ch=1 n=74 v=80
21948 Off ch=1 n=74 v=64
21960 On ch=1 n=73 v=80
22068 Off ch=1 n=73 v=64
22080 On ch=1 n=71 v=80
22512 Off ch=1 n=71 v=64
22560 On ch=1 n=81 v=80
22668 Off ch=1 n=81 v=64
22680 On ch=1 n=83 v=80
22788 Off ch=1 n=83 v=64
22800 On ch=1 n=81 v=80
22908 Off ch=1 n=81 v=64
22920 On ch=1 n=80 v=80
23028 Off ch=1 n=80 v=64
23040 On ch=1 n=81 v=80
23148 Off ch=1 n=81 v=64
23160 On ch=1 n=69 v=80
23268 Off ch=1 n=69 v=64
23280 On ch=1 n=76 v=80
23388 Off ch=1 n=76 v=64
23400 On ch=1 n=69 v=80
23508 Off ch=1 n=69 v=64
23520 On ch=1 n=81 v=80
23628 Off ch=1 n=81 v=64
23640 On ch=1 n=83 v=80
23748 Off ch=1 n=83 v=64
23760 On ch=1 n=81 v=80
23868 Off ch=1 n=81 v=64
23880 On ch=1 n=80 v=80
23988 Off ch=1 n=80 v=64
24000 On ch=1 n=81 v=80
24108 Off ch=1 n=81 v=64
24120 On ch=1 n=69 v=80
24228 Off ch=1 n=69 v=64
24240 On ch=1 n=76 v=80
24348 Off ch=1 n=76 v=64
24360 On ch=1 n=69 v=80
24468 Off ch=1 n=69 v=64
24480 On ch=1 n=81 v=80
24588 Off ch=1 n=81 v=64
24600 On ch=1 n=83 v=80
24708 Off ch=1 n=83 v=64
24720 On ch=1 n=81 v=80
24828 Off ch=1 n=81 v=64
24840 On ch=1 n=80 v=80
24948 Off ch=1 n=80 v=64
24960 On ch=1 n=81 v=80
25068 Off ch=1 n=81 v=64
25080 On ch=1 n=83 v=80
25188 Off ch=1 n=83 v=64
25200 On ch=1 n=85 v=80
25308 Off ch=1 n=85 v=64
25320 On ch=1 n=86 v=80
25428 Off ch=1 n=86 v=64
25440 On ch=1 n=88 v=80
25548 Off ch=1 n=88 v=64
25560 On ch=1 n=85 v=80
25668 Off ch=1 n=85 v=64
25680 On ch=1 n=83 v=80
25788 Off ch=1 n=83 v=64
25800 On ch=1 n=81 v=80
25908 Off ch=1 n=81 v=64
25920 On ch=1 n=80 v=80
26136 Off ch=1 n=80 v=64
26160 On ch=1 n=71 v=80
26376 Off ch=1 n=71 v=64
26400 On ch=1 n=81 v=80
26508 Off ch=1 n=81 v=64
26520 On ch=1 n=83 v=80
26628 Off ch=1 n=83 v=64
26640 On ch=1 n=81 v=80
26748 Off ch=1 n=81 v=64
26760 On ch=1 n=80 v=80
26868 Off ch=1 n=80 v=64
26880 On ch=1 n=81 v=80
26988 Off ch=1 n=81 v=64
27000 On ch=1 n=69 v=80
27108 Off ch=1 n=69 v=64
27120 On ch=1 n=76 v=80
27228 Off ch=1 n=76 v=64
27240 On ch=1 n=69 v=80
27348 Off ch=1 n=69 v=64
27360 On ch=1 n=81 v=80
27468 Off ch=1 n=81 v=64
27480 On ch=1 n=83 v=80
27588 Off ch=1 n=83 v=64
27600 On ch=1 n=81 v=80
27708 Off ch=1 n=81 v=64
27720 On ch=1 n=80 v=80
27828 Off ch=1 n=80 v=64
27840 On ch=1 n=81 v=80
27948 Off ch=1 n=81 v=64
27960 On ch=1 n=69 v=80
28068 Off ch=1 n=69 v=64
28080 On ch=1 n=76 v=80
28188 Off ch=1 n=76 v=64
28200 On ch=1 n=69 v=80
28308 Off ch=1 n=69 v=64
28320 On ch=1 n=81 v=80
28428 Off ch=1 n=81 v=64
28440 On ch=1 n=83 v=80
28548 Off ch=1 n=83 v=64
28560 On ch=1 n=81 v=80
28668 Off ch=1 n=81 v=64
28680 On ch=1 n=80 v=80
28788 Off ch=1 n=80 v=64
28800 On ch=1 n=81 v=80
28908 Off ch=1 n=81 v=64
28920 On ch=1 n=83 v=80
29028 Off ch=1 n=83 v=64
29040 On ch=1 n=85 v=80
29148 Off ch=1 n=85 v=64
29160 On ch=1 n=86 v=80
29268 Off ch=1 n=86 v=64
29280 On ch=1 n=88 v=80
29388 Off ch=1 n=88 v=64
29400 On ch=1 n=85 v=80
29508 Off ch=1 n=85 v=64
29520 On ch=1 n=83 v=80
29628 Off ch=1 n=83 v=64
29640 On ch=1 n=81 v=80
29748 Off ch=1 n=81 v=64
29760 On ch=1 n=80 v=80
29976 Off ch=1 n=80 v=64
30000 On ch=1 n=71 v=80
30216 Off ch=1 n=71 v=64
30240 On ch=1 n=81 v=80
30348 Off ch=1 n=81 v=64
30360 On ch=1 n=81 v=80
30414 Off ch=1 n=81 v=64
30420 On ch=1 n=83 v=80
30474 Off ch=1 n=83 v=64
30480 On ch=1 n=81 v=80
30588 Off ch=1 n=81 v=64
30600 On ch=1 n=80 v=80
30708 Off ch=1 n=80 v=64
30720 On ch=1 n=81 v=80
30828 Off ch=1 n=81 v=64
30840 On ch=1 n=69 v=80
30948 Off ch=1 n=69 v=64
30960 On ch=1 n=76 v=80
31068 Off ch=1 n=76 v=64
31080 On ch=1 n=69 v=80
31188 Off ch=1 n=69 v=64
31200 On ch=1 n=81 v=80
31308 Off ch=1 n=81 v=64
31320 On ch=1 n=81 v=80
31374 Off ch=1 n=81 v=64
31380 On ch=1 n=83 v=80
31434 Off ch=1 n=83 v=64
31440 On ch=1 n=81 v=80
31548 Off ch=1 n=81 v=64
31560 On ch=1 n=80 v=80
31668 Off ch=1 n=80 v=64
31680 On ch=1 n=81 v=80
31788 Off ch=1 n=81 v=64
31800 On ch=1 n=69 v=80
31908 Off ch=1 n=69 v=64
31920 On ch=1 n=76 v=80
32028 Off ch=1 n=76 v=64
32040 On ch=1 n=69 v=80
32148 Off ch=1 n=69 v=64
32160 On ch=1 n=81 v=80
32268 Off ch=1 n=81 v=64
32280 On ch=1 n=81 v=80
32334 Off ch=1 n=81 v=64
32340 On ch=1 n=83 v=80
32394 Off ch=1 n=83 v=64
32400 On ch=1 n=81 v=80
32508 Off ch=1 n=81 v=64
32520 On ch=1 n=80 v=80
32628 Off ch=1 n=80 v=64
32640 On ch=1 n=81 v=80
32748 Off ch=1 n=81 v=64
32760 On ch=1 n=83 v=80
32868 Off ch=1 n=83 v=64
32880 On ch=1 n=85 v=80
32988 Off ch=1 n=85 v=64
33000 On ch=1 n=86 v=80
33108 Off ch=1 n=86 v=64
33120 On ch=1 n=88 v=80
33228 Off ch=1 n=88 v=64
33240 On ch=1 n=85 v=80
33348 Off ch=1 n=85 v=64
33360 On ch=1 n=83 v=80
33468 Off ch=1 n=83 v=64
33480 On ch=1 n=81 v=80
33588 Off ch=1 n=81 v=64
33600 On ch=1 n=80 v=80
33816 Off ch=1 n=80 v=64
33840 On ch=1 n=71 v=80
34056 Off ch=1 n=71 v=64
34080 On ch=1 n=81 v=80
34188 Off ch=1 n=81 v=64
34200 On ch=1 n=81 v=80
34254 Off ch=1 n=81 v=64
34260 On ch=1 n=83 v=80
34314 Off ch=1 n=83 v=64
34320 On ch=1 n=81 v=80
34428 Off ch=1 n=81 v=64
34440 On ch=1 n=80 v=80
34548 Off ch=1 n=80 v=64
34560 On ch=1 n=81 v=80
34668 Off ch=1 n=81 v=64
34680 On ch=1 n=69 v=80
34788 Off ch=1 n=69 v=64
34800 On ch=1 n=76 v=80
34908 Off ch=1 n=76 v=64
34920 On ch=1 n=69 v=80
35028 Off ch=1 n=69 v=64
35040 On ch=1 n=81 v=80
35148 Off ch=1 n=81 v=64
35160 On ch=1 n=81 v=80
35214 Off ch=1 n=81 v=64
35220 On ch=1 n=83 v=80
35274 Off ch=1 n=83 v=64
35280 On ch=1 n=81 v=80
35388 Off ch=1 n=81 v=64
35400 On ch=1 n=80 v=80
35508 Off ch=1 n=80 v=64
35520 On ch=1 n=81 v=80
35628 Off ch=1 n=81 v=64
35640 On ch=1 n=69 v=80
35748 Off ch=1 n=69 v=64
35760 On ch=1 n=76 v=80
35868 Off ch=1 n=76 v=64
35880 On ch=1 n=69 v=80
35988 Off ch=1 n=69 v=64
36000 On ch=1 n=81 v=80
36108 Off ch=1 n=81 v=64
36120 On ch=1 n=83 v=80
36228 Off ch=1 n=83 v=64
36240 On ch=1 n=81 v=80
36348 Off ch=1 n=81 v=64
36360 On ch=1 n=80 v=80
36468 Off ch=1 n=80 v=64
36480 On ch=1 n=81 v=80
36588 Off ch=1 n=81 v=64
36600 On ch=1 n=83 v=80
36708 Off ch=1 n=83 v=64
36720 On ch=1 n=85 v=80
36828 Off ch=1 n=85 v=64
36840 On ch=1 n=86 v=80
36948 Off ch=1 n=86 v=64
36960 On ch=1 n=88 v=80
37068 Off ch=1 n=88 v=64
37080 On ch=1 n=85 v=80
37188 Off ch=1 n=85 v=64
37200 On ch=1 n=83 v=80
37308 Off ch=1 n=83 v=64
37320 On ch=1 n=81 v=80
37428 Off ch=1 n=81 v=64
37440 On ch=1 n=80 v=80
37656 Off ch=1 n=80 v=64
37680 On ch=1 n=71 v=80
37896 Off ch=1 n=71 v=64
37920 On ch=1 n=68 v=80
38136 Off ch=1 n=68 v=64
38160 On ch=1 n=64 v=80
40128 Off ch=1 n=64 v=64
40266 On ch=1 n=69 v=65
40293 Off ch=1 n=69 v=64
40293 On ch=1 n=73 v=65
40320 Off ch=1 n=73 v=64
40320 On ch=1 n=81 v=80
40536 Off ch=1 n=81 v=64
40560 On ch=1 n=80 v=80
40668 Off ch=1 n=80 v=64
40680 On ch=1 n=81 v=80
41016 Off ch=1 n=81 v=64
41040 On ch=1 n=80 v=80
41148 Off ch=1 n=80 v=64
41160 On ch=1 n=81 v=80
41376 Off ch=1 n=81 v=64
41400 On ch=1 n=69 v=80
41508 Off ch=1 n=69 v=64
41520 On ch=1 n=76 v=80
41628 Off ch=1 n=76 v=64
41640 On ch=1 n=81 v=80
41856 Off ch=1 n=81 v=64
41880 On ch=1 n=69 v=80
41988 Off ch=1 n=69 v=64
42000 On ch=1 n=74 v=80
42108 Off ch=1 n=74 v=64
42120 On ch=1 n=69 v=80
42150 On ch=1 n=64 v=80
42180 On ch=1 n=69 v=80
42210 On ch=1 n=73 v=80
42228 Off ch=1 n=69 v=64
42366 Off ch=1 n=64 v=64
42396 Off ch=1 n=69 v=64
42426 Off ch=1 n=73 v=64
42480 On ch=1 n=74 v=80
42696 Off ch=1 n=74 v=64
42720 On ch=1 n=76 v=80
42720 On ch=1 n=69 v=80
42936 Off ch=1 n=76 v=64
42936 Off ch=1 n=69 v=64
42960 On ch=1 n=73 v=80
43176 Off ch=1 n=73 v=64
43200 On ch=1 n=64 v=80
43200 On ch=1 n=66 v=80
43200 On ch=1 n=71 v=80
43848 Off ch=1 n=64 v=64
43848 Off ch=1 n=66 v=64
43848 Off ch=1 n=71 v=64
43920 On ch=1 n=69 v=80
44028 Off ch=1 n=69 v=64
44040 On ch=1 n=68 v=80
44148 Off ch=1 n=68 v=64
44160 On ch=1 n=61 v=80
44160 On ch=1 n=69 v=80
44592 Off ch=1 n=61 v=64
44592 Off ch=1 n=69 v=64
44760 On ch=1 n=64 v=80
44868 Off ch=1 n=64 v=64
44880 On ch=1 n=69 v=80
44988 Off ch=1 n=69 v=64
45000 On ch=1 n=71 v=80
45108 Off ch=1 n=71 v=64
45120 On ch=1 n=73 v=80
45240 On ch=1 n=64 v=80
45348 Off ch=1 n=64 v=64
45360 On ch=1 n=69 v=80
45468 Off ch=1 n=69 v=64
45480 On ch=1 n=71 v=80
45552 Off ch=1 n=73 v=64
45588 Off ch=1 n=71 v=64
45600 On ch=1 n=73 v=80
45720 On ch=1 n=64 v=80
45828 Off ch=1 n=64 v=64
45840 On ch=1 n=73 v=80
45948 Off ch=1 n=73 v=64
45960 On ch=1 n=74 v=80
46032 Off ch=1 n=73 v=64
46068 Off ch=1 n=74 v=64
46080 On ch=1 n=76 v=80
46200 On ch=1 n=64 v=80
46308 Off ch=1 n=64 v=64
46320 On ch=1 n=73 v=80
46428 Off ch=1 n=73 v=64
46440 On ch=1 n=74 v=80
46512 Off ch=1 n=76 v=64
46548 Off ch=1 n=74 v=64
46560 On ch=1 n=76 v=80
46680 On ch=1 n=64 v=80
46788 Off ch=1 n=64 v=64
46800 On ch=1 n=74 v=80
46908 Off ch=1 n=74 v=64
46920 On ch=1 n=73 v=80
46992 Off ch=1 n=76 v=64
47028 Off ch=1 n=73 v=64
47040 On ch=1 n=71 v=80
47160 On ch=1 n=64 v=80
47268 Off ch=1 n=64 v=64
47280 On ch=1 n=74 v=80
47388 Off ch=1 n=74 v=64
47400 On ch=1 n=73 v=80
47472 Off ch=1 n=71 v=64
47508 Off ch=1 n=73 v=64
47520 On ch=1 n=71 v=80
47760 On ch=1 n=68 v=80
47915 On ch=1 n=73 v=83
47952 Off ch=1 n=71 v=64
47969 Off ch=1 n=73 v=64
47976 Off ch=1 n=68 v=64
48000 On ch=1 n=81 v=80
48216 Off ch=1 n=81 v=64
48240 On ch=1 n=80 v=80
48348 Off ch=1 n=80 v=64
48360 On ch=1 n=81 v=80
48696 Off ch=1 n=81 v=64
48720 On ch=1 n=80 v=80
48828 Off ch=1 n=80 v=64
48840 On ch=1 n=81 v=80
49056 Off ch=1 n=81 v=64
49080 On ch=1 n=69 v=80
49188 Off ch=1 n=69 v=64
49200 On ch=1 n=76 v=80
49308 Off ch=1 n=76 v=64
49320 On ch=1 n=81 v=80
49536 Off ch=1 n=81 v=64
49560 On ch=1 n=69 v=80
49668 Off ch=1 n=69 v=64
49680 On ch=1 n=74 v=80
49788 Off ch=1 n=74 v=64
49800 On ch=1 n=69 v=80
49830 On ch=1 n=64 v=80
49860 On ch=1 n=69 v=80
49890 On ch=1 n=73 v=80
49908 Off ch=1 n=69 v=64
50046 Off ch=1 n=64 v=64
50076 Off ch=1 n=69 v=64
50106 Off ch=1 n=73 v=64
50160 On ch=1 n=74 v=80
50376 Off ch=1 n=74 v=64
50400 On ch=1 n=76 v=80
50616 Off ch=1 n=76 v=64
50640 On ch=1 n=85 v=80
50856 Off ch=1 n=85 v=64
50880 On ch=1 n=83 v=80
51096 Off ch=1 n=83 v=64
51120 On ch=1 n=76 v=80
51275 On ch=1 n=83 v=83
51329 Off ch=1 n=83 v=64
51336 Off ch=1 n=76 v=64
51360 On ch=1 n=85 v=80
51468 Off ch=1 n=85 v=64
51480 On ch=1 n=83 v=80
51588 Off ch=1 n=83 v=64
51600 On ch=1 n=81 v=80
51708 Off ch=1 n=81 v=64
51720 On ch=1 n=80 v=80
51828 Off ch=1 n=80 v=64
51840 On ch=1 n=73 v=80
51840 On ch=1 n=81 v=80
52272 Off ch=1 n=73 v=64
52272 Off ch=1 n=81 v=64
52560 On ch=1 n=69 v=80
52668 Off ch=1 n=69 v=64
52680 On ch=1 n=71 v=80
52788 Off ch=1 n=71 v=64
52800 On ch=1 n=73 v=80
52920 On ch=1 n=64 v=80
53028 Off ch=1 n=64 v=64
53040 On ch=1 n=69 v=80
53148 Off ch=1 n=69 v=64
53160 On ch=1 n=71 v=80
53232 Off ch=1 n=73 v=64
53268 Off ch=1 n=71 v=64
53280 On ch=1 n=73 v=80
53400 On ch=1 n=64 v=80
53508 Off ch=1 n=64 v=64
53520 On ch=1 n=73 v=80
53628 Off ch=1 n=73 v=64
53640 On ch=1 n=74 v=80
53712 Off ch=1 n=73 v=64
53748 Off ch=1 n=74 v=64
53760 On ch=1 n=76 v=80
53880 On ch=1 n=64 v=80
53988 Off ch=1 n=64 v=64
54000 On ch=1 n=73 v=80
54108 Off ch=1 n=73 v=64
54120 On ch=1 n=74 v=80
54192 Off ch=1 n=76 v=64
54228 Off ch=1 n=74 v=64
54240 On ch=1 n=76 v=80
54360 On ch=1 n=64 v=80
54468 Off ch=1 n=64 v=64
54480 On ch=1 n=74 v=80
54588 Off ch=1 n=74 v=64
54600 On ch=1 n=73 v=80
54672 Off ch=1 n=76 v=64
54708 Off ch=1 n=73 v=64
54720 On ch=1 n=71 v=80
54840 On ch=1 n=64 v=80
54948 Off ch=1 n=64 v=64
54960 On ch=1 n=68 v=80
55068 Off ch=1 n=68 v=64
55080 On ch=1 n=71 v=80
55152 Off ch=1 n=71 v=64
55188 Off ch=1 n=71 v=64
55200 On ch=1 n=81 v=80
55308 Off ch=1 n=81 v=64
55320 On ch=1 n=83 v=80
55428 Off ch=1 n=83 v=64
55440 On ch=1 n=81 v=80
55548 Off ch=1 n=81 v=64
55560 On ch=1 n=80 v=80
55668 Off ch=1 n=80 v=64
55680 On ch=1 n=81 v=80
55788 Off ch=1 n=81 v=64
55800 On ch=1 n=69 v=80
55908 Off ch=1 n=69 v=64
55920 On ch=1 n=76 v=80
56028 Off ch=1 n=76 v=64
56040 On ch=1 n=69 v=80
56148 Off ch=1 n=69 v=64
56160 On ch=1 n=81 v=80
56268 Off ch=1 n=81 v=64
56280 On ch=1 n=81 v=80
56334 Off ch=1 n=81 v=64
56340 On ch=1 n=83 v=80
56394 Off ch=1 n=83 v=64
56400 On ch=1 n=81 v=80
56508 Off ch=1 n=81 v=64
56520 On ch=1 n=80 v=80
56628 Off ch=1 n=80 v=64
56640 On ch=1 n=81 v=80
56748 Off ch=1 n=81 v=64
56760 On ch=1 n=69 v=80
56868 Off ch=1 n=69 v=64
56880 On ch=1 n=76 v=80
56988 Off ch=1 n=76 v=64
57000 On ch=1 n=69 v=80
57108 Off ch=1 n=69 v=64
57120 On ch=1 n=81 v=80
57228 Off ch=1 n=81 v=64
57240 On ch=1 n=81 v=80
57294 Off ch=1 n=81 v=64
57300 On ch=1 n=83 v=80
57354 Off ch=1 n=83 v=64
57360 On ch=1 n=81 v=80
57468 Off ch=1 n=81 v=64
57480 On ch=1 n=80 v=80
57588 Off ch=1 n=80 v=64
57600 On ch=1 n=81 v=80
57708 Off ch=1 n=81 v=64
57720 On ch=1 n=83 v=80
57828 Off ch=1 n=83 v=64
57840 On ch=1 n=85 v=80
57948 Off ch=1 n=85 v=64
57960 On ch=1 n=86 v=80
58068 Off ch=1 n=86 v=64
58080 On ch=1 n=88 v=80
58188 Off ch=1 n=88 v=64
58200 On ch=1 n=85 v=80
58308 Off ch=1 n=85 v=64
58320 On ch=1 n=83 v=80
58374 Off ch=1 n=83 v=64
58380 On ch=1 n=85 v=80
58434 Off ch=1 n=85 v=64
58440 On ch=1 n=83 v=80
58494 Off ch=1 n=83 v=64
58500 On ch=1 n=81 v=80
58554 Off ch=1 n=81 v=64
58560 On ch=1 n=80 v=80
58668 Off ch=1 n=80 v=64
58680 On ch=1 n=71 v=80
58788 Off ch=1 n=71 v=64
58800 On ch=1 n=76 v=80
58908 Off ch=1 n=76 v=64
58920 On ch=1 n=71 v=80
59028 Off ch=1 n=71 v=64
59040 On ch=1 n=81 v=80
59148 Off ch=1 n=81 v=64
59160 On ch=1 n=81 v=80
59214 Off ch=1 n=81 v=64
59220 On ch=1 n=83 v=80
59274 Off ch=1 n=83 v=64
59280 On ch=1 n=81 v=80
59388 Off ch=1 n=81 v=64
59400 On ch=1 n=80 v=80
59508 Off ch=1 n=80 v=64
59520 On ch=1 n=81 v=80
59628 Off ch=1 n=81 v=64
59640 On ch=1 n=69 v=80
59748 Off ch=1 n=69 v=64
59760 On ch=1 n=76 v=80
59868 Off ch=1 n=76 v=64
59880 On ch=1 n=69 v=80
59988 Off ch=1 n=69 v=64
60000 On ch=1 n=81 v=80
60108 Off ch=1 n=81 v=64
60120 On ch=1 n=81 v=80
60174 Off ch=1 n=81 v=64
60180 On ch=1 n=83 v=80
60234 Off ch=1 n=83 v=64
60240 On ch=1 n=81 v=80
60348 Off ch=1 n=81 v=64
60360 On ch=1 n=80 v=80
60468 Off ch=1 n=80 v=64
60480 On ch=1 n=81 v=80
60588 Off ch=1 n=81 v=64
60600 On ch=1 n=69 v=80
60708 Off ch=1 n=69 v=64
60720 On ch=1 n=76 v=80
60828 Off ch=1 n=76 v=64
60840 On ch=1 n=69 v=80
60948 Off ch=1 n=69 v=64
60960 On ch=1 n=81 v=80
61068 Off ch=1 n=81 v=64
61080 On ch=1 n=81 v=80
61134 Off ch=1 n=81 v=64
61140 On ch=1 n=83 v=80
61194 Off ch=1 n=83 v=64
61200 On ch=1 n=81 v=80
61308 Off ch=1 n=81 v=64
61320 On ch=1 n=80 v=80
61428 Off ch=1 n=80 v=64
61440 On ch=1 n=81 v=80
61548 Off ch=1 n=81 v=64
61560 On ch=1 n=83 v=80
61668 Off ch=1 n=83 v=64
61680 On ch=1 n=85 v=80
61788 Off ch=1 n=85 v=64
61800 On ch=1 n=86 v=80
61908 Off ch=1 n=86 v=64
61920 On ch=1 n=88 v=80
62028 Off ch=1 n=88 v=64
62040 On ch=1 n=85 v=80
62148 Off ch=1 n=85 v=64
62160 On ch=1 n=83 v=80
62214 Off ch=1 n=83 v=64
62220 On ch=1 n=85 v=80
62274 Off ch=1 n=85 v=64
62280 On ch=1 n=83 v=80
62334 Off ch=1 n=83 v=64
62340 On ch=1 n=81 v=80
62394 Off ch=1 n=81 v=64
62400 On ch=1 n=80 v=80
62508 Off ch=1 n=80 v=64
62520 On ch=1 n=71 v=80
62628 Off ch=1 n=71 v=64
62640 On ch=1 n=76 v=80
62748 Off ch=1 n=76 v=64
62760 On ch=1 n=71 v=80
62868 Off ch=1 n=71 v=64
62880 On ch=1 n=81 v=80
62988 Off ch=1 n=81 v=64
63000 On ch=1 n=81 v=80
63054 Off ch=1 n=81 v=64
63060 On ch=1 n=83 v=80
63114 Off ch=1 n=83 v=64
63120 On ch=1 n=81 v=80
63228 Off ch=1 n=81 v=64
63240 On ch=1 n=80 v=80
63348 Off ch=1 n=80 v=64
63360 On ch=1 n=81 v=80
63468 Off ch=1 n=81 v=64
63480 On ch=1 n=69 v=80
63588 Off ch=1 n=69 v=64
63600 On ch=1 n=76 v=80
63708 Off ch=1 n=76 v=64
63720 On ch=1 n=69 v=80
63828 Off ch=1 n=69 v=64
63840 On ch=1 n=81 v=80
63948 Off ch=1 n=81 v=64
63960 On ch=1 n=83 v=80
64068 Off ch=1 n=83 v=64
64080 On ch=1 n=81 v=80
64188 Off ch=1 n=81 v=64
64200 On ch=1 n=80 v=80
64308 Off ch=1 n=80 v=64
64320 On ch=1 n=81 v=80
64428 Off ch=1 n=81 v=64
64440 On ch=1 n=69 v=80
64548 Off ch=1 n=69 v=64
64560 On ch=1 n=76 v=80
64668 Off ch=1 n=76 v=64
64680 On ch=1 n=69 v=80
64788 Off ch=1 n=69 v=64
64800 On ch=1 n=81 v=80
64908 Off ch=1 n=81 v=64
64920 On ch=1 n=81 v=80
64974 Off ch=1 n=81 v=64
64980 On ch=1 n=83 v=80
65034 Off ch=1 n=83 v=64
65040 On ch=1 n=81 v=80
65148 Off ch=1 n=81 v=64
65160 On ch=1 n=80 v=80
65268 Off ch=1 n=80 v=64
65280 On ch=1 n=81 v=80
65388 Off ch=1 n=81 v=64
65400 On ch=1 n=83 v=80
65508 Off ch=1 n=83 v=64
65520 On ch=1 n=85 v=80
65628 Off ch=1 n=85 v=64
65640 On ch=1 n=86 v=80
65748 Off ch=1 n=86 v=64
65760 On ch=1 n=88 v=80
65868 Off ch=1 n=88 v=64
65880 On ch=1 n=85 v=80
65988 Off ch=1 n=85 v=64
66000 On ch=1 n=83 v=80
66108 Off ch=1 n=83 v=64
66120 On ch=1 n=81 v=80
66228 Off ch=1 n=81 v=64
66240 On ch=1 n=80 v=80
66456 Off ch=1 n=80 v=64
66480 On ch=1 n=71 v=80
66696 Off ch=1 n=71 v=64
66720 On ch=1 n=81 v=80
66828 Off ch=1 n=81 v=64
66840 On ch=1 n=81 v=80
66894 Off ch=1 n=81 v=64
66900 On ch=1 n=83 v=80
66954 Off ch=1 n=83 v=64
66960 On ch=1 n=81 v=80
67068 Off ch=1 n=81 v=64
67080 On ch=1 n=80 v=80
67188 Off ch=1 n=80 v=64
67200 On ch=1 n=81 v=80
67308 Off ch=1 n=81 v=64
67320 On ch=1 n=69 v=80
67428 Off ch=1 n=69 v=64
67440 On ch=1 n=76 v=80
67548 Off ch=1 n=76 v=64
67560 On ch=1 n=69 v=80
67668 Off ch=1 n=69 v=64
67680 On ch=1 n=81 v=80
67788 Off ch=1 n=81 v=64
67800 On ch=1 n=81 v=80
67854 Off ch=1 n=81 v=64
67860 On ch=1 n=83 v=80
67914 Off ch=1 n=83 v=64
67920 On ch=1 n=81 v=80
68028 Off ch=1 n=81 v=64
68040 On ch=1 n=80 v=80
68148 Off ch=1 n=80 v=64
68160 On ch=1 n=81 v=80
68268 Off ch=1 n=81 v=64
68280 On ch=1 n=69 v=80
68388 Off ch=1 n=69 v=64
68400 On ch=1 n=76 v=80
68508 Off ch=1 n=76 v=64
68520 On ch=1 n=69 v=80
68628 Off ch=1 n=69 v=64
68640 On ch=1 n=81 v=80
68748 Off ch=1 n=81 v=64
68760 On ch=1 n=81 v=80
68814 Off ch=1 n=81 v=64
68820 On ch=1 n=83 v=80
68874 Off ch=1 n=83 v=64
68880 On ch=1 n=81 v=80
68988 Off ch=1 n=81 v=64
69000 On ch=1 n=80 v=80
69108 Off ch=1 n=80 v=64
69120 On ch=1 n=81 v=80
69228 Off ch=1 n=81 v=64
69240 On ch=1 n=83 v=80
69348 Off ch=1 n=83 v=64
69360 On ch=1 n=85 v=80
69468 Off ch=1 n=85 v=64
69480 On ch=1 n=86 v=80
69588 Off ch=1 n=86 v=64
69600 On ch=1 n=88 v=80
69708 Off ch=1 n=88 v=64
69720 On ch=1 n=85 v=80
69828 Off ch=1 n=85 v=64
69840 On ch=1 n=83 v=80
69948 Off ch=1 n=83 v=64
69960 On ch=1 n=81 v=80
70068 Off ch=1 n=81 v=64
70080 On ch=1 n=80 v=80
70296 Off ch=1 n=80 v=64
70320 On ch=1 n=71 v=80
70536 Off ch=1 n=71 v=64
70560 On ch=1 n=68 v=80
70776 Off ch=1 n=68 v=64
70800 On ch=1 n=64 v=80
70986 On ch=1 n=69 v=65
71013 Off ch=1 n=69 v=64
71013 On ch=1 n=73 v=65
71016 Off ch=1 n=64 v=64
71040 Off ch=1 n=73 v=64
71040 On ch=1 n=81 v=80
71040 On ch=1 n=73 v=80
71256 Off ch=1 n=81 v=64
71256 Off ch=1 n=73 v=64
71280 On ch=1 n=80 v=80
71496 Off ch=1 n=80 v=64
71520 On ch=1 n=81 v=80
71736 Off ch=1 n=81 v=64
71760 On ch=1 n=80 v=80
71976 Off ch=1 n=80 v=64
72000 On ch=1 n=81 v=80
72216 Off ch=1 n=81 v=64
72240 On ch=1 n=76 v=80
72456 Off ch=1 n=76 v=64
72480 On ch=1 n=81 v=80
72696 Off ch=1 n=81 v=64
72720 On ch=1 n=74 v=80
72936 Off ch=1 n=74 v=64
72960 On ch=1 n=73 v=80
73176 Off ch=1 n=73 v=64
73200 On ch=1 n=74 v=80
73416 Off ch=1 n=74 v=64
73440 On ch=1 n=76 v=80
73656 Off ch=1 n=76 v=64
73680 On ch=1 n=73 v=80
73896 Off ch=1 n=73 v=64
73920 On ch=1 n=64 v=80
73920 On ch=1 n=68 v=80
73920 On ch=1 n=71 v=80
74352 Off ch=1 n=64 v=64
74352 Off ch=1 n=68 v=64
74352 Off ch=1 n=71 v=64
74400 On ch=1 n=69 v=80
74616 Off ch=1 n=69 v=64
74640 On ch=1 n=68 v=80
74820 On ch=1 n=61 v=80
74850 On ch=1 n=66 v=80
74856 Off ch=1 n=68 v=64
74880 On ch=1 n=69 v=80
75468 Off ch=1 n=61 v=64
75498 Off ch=1 n=66 v=64
75528 Off ch=1 n=69 v=64
75600 On ch=1 n=69 v=80
75708 Off ch=1 n=69 v=64
75720 On ch=1 n=71 v=80
75828 Off ch=1 n=71 v=64
75840 On ch=1 n=73 v=80
76488 Off ch=1 n=73 v=64
76560 On ch=1 n=73 v=80
76668 Off ch=1 n=73 v=64
76680 On ch=1 n=74 v=80
76788 Off ch=1 n=74 v=64
76800 On ch=1 n=76 v=80
77448 Off ch=1 n=76 v=64
77520 On ch=1 n=74 v=80
77628 Off ch=1 n=74 v=64
77640 On ch=1 n=73 v=80
77748 Off ch=1 n=73 v=64
77760 On ch=1 n=71 v=80
78624 Off ch=1 n=71 v=64
78666 On ch=1 n=69 v=65
78693 Off ch=1 n=69 v=64
78693 On ch=1 n=73 v=65
78720 Off ch=1 n=73 v=64
78720 On ch=1 n=81 v=80
78936 Off ch=1 n=81 v=64
78960 On ch=1 n=80 v=80
79176 Off ch=1 n=80 v=64
79200 On ch=1 n=81 v=80
79416 Off ch=1 n=81 v=64
79440 On ch=1 n=80 v=80
79590 On ch=1 n=74 v=80
79617 Off ch=1 n=74 v=64
79650 On ch=1 n=78 v=80
79656 Off ch=1 n=80 v=64
79704 Off ch=1 n=78 v=64
79740 On ch=1 n=81 v=80
79920 On ch=1 n=76 v=80
79956 Off ch=1 n=81 v=64
80136 Off ch=1 n=76 v=64
80160 On ch=1 n=81 v=80
80376 Off ch=1 n=81 v=64
80400 On ch=1 n=74 v=80
80616 Off ch=1 n=74 v=64
80640 On ch=1 n=73 v=80
80640 On ch=1 n=64 v=80
80856 Off ch=1 n=73 v=64
80856 Off ch=1 n=64 v=64
80880 On ch=1 n=74 v=80
81096 Off ch=1 n=74 v=64
81120 On ch=1 n=76 v=80
81336 Off ch=1 n=76 v=64
81360 On ch=1 n=85 v=80
81576 Off ch=1 n=85 v=64
81600 On ch=1 n=83 v=80
82248 Off ch=1 n=83 v=64
82320 On ch=1 n=69 v=80
82428 Off ch=1 n=69 v=64
82440 On ch=1 n=68 v=80
82548 Off ch=1 n=68 v=64
82560 On ch=1 n=69 v=80
83208 Off ch=1 n=69 v=64
83280 On ch=1 n=69 v=80
83388 Off ch=1 n=69 v=64
83400 On ch=1 n=71 v=80
83508 Off ch=1 n=71 v=64
83520 On ch=1 n=73 v=80
84168 Off ch=1 n=73 v=64
84240 On ch=1 n=73 v=80
84348 Off ch=1 n=73 v=64
84360 On ch=1 n=74 v=80
84468 Off ch=1 n=74 v=64
84480 On ch=1 n=76 v=80
85128 Off ch=1 n=76 v=64
85200 On ch=1 n=74 v=80
85308 Off ch=1 n=74 v=64
85320 On ch=1 n=73 v=80
85428 Off ch=1 n=73 v=64
85440 On ch=1 n=71 v=80
87264 Off ch=1 n=71 v=64
87360 On ch=1 n=69 v=80
89184 Off ch=1 n=69 v=64
89280 On ch=1 n=69 v=80
90144 Off ch=1 n=69 v=64