MFile 1 7 480
MTrk
0 Meta TrkName "Etüde Opus 10 No. 5"
0 Meta Copyright "Copyright © 1999 von Bernd Krüger. "
0 Meta Text "Frederic Chopin"
0 Meta Text "Allegro"
0 Meta Text "Dauer: 1:50 Minuten
"
0 Meta Text "Fertiggestellt am 24.4.99
"
0 Meta Text "Normierung: 23.12.2002
"
0 Meta Text "Update am 12.6.2006
"
0 Meta Text "Update am 12.2.2014
"
0 Meta Text "Update am 3.5.2014
"
0 TimeSig 4/4 24 8
0 KeySig 0 major
0 Tempo 344828
0 Meta Marker "Allegro"
2880 Tempo 360360
3720 Tempo 431655
3840 Tempo 348837
4800 Tempo 358209
5640 Tempo 382166
5760 Tempo 348837
7560 Tempo 436364
7680 Tempo 353982
8640 Tempo 369231
9120 Tempo 377358
9600 Tempo 360360
11400 Tempo 392157
11520 Tempo 347826
15240 Tempo 410959
15360 Tempo 344828
18240 Tempo 349854
19080 Tempo 382166
19200 Tempo 346821
21120 Tempo 349854
22920 Tempo 371517
23040 Tempo 348837
24960 Tempo 351906
26760 Tempo 388350
26880 Tempo 345821
30600 Tempo 396040
30720 Tempo 344828
32520 Tempo 368098
32640 Tempo 349854
33600 Tempo 357143
34440 Tempo 379747
34560 Tempo 344828
36480 Tempo 348837
41280 Tempo 355030
42120 Tempo 366972
42240 Tempo 349854
45960 Tempo 365854
46080 Tempo 344828
48000 Tempo 346821
48960 Tempo 348837
49920 Tempo 344828
53640 Tempo 359281
53760 Tempo 344828
55560 Tempo 373832
55680 Tempo 346821
60480 Tempo 349854
65280 Tempo 344828
69000 Tempo 397351
69120 Tempo 347826
71040 Tempo 349854
72840 Tempo 372671
72960 Tempo 346821
74880 Tempo 348837
78720 Tempo 345821
79680 Tempo 349854
80520 Tempo 370370
80640 Tempo 345821
81600 Tempo 349854
82440 Tempo 365854
82560 Tempo 345821
83520 Tempo 349854
84480 Tempo 344828
85920 Tempo 360360
86400 Tempo 344828
87840 Tempo 363636
88320 Tempo 344828
90240 Tempo 347826
91680 Tempo 360360
92160 Tempo 344828
95040 Tempo 360360
95880 Tempo 431655
96000 Tempo 348837
96960 Tempo 358209
97800 Tempo 382166
97920 Tempo 348837
99720 Tempo 436364
99840 Tempo 353982
100800 Tempo 369231
101280 Tempo 377358
101760 Tempo 360360
103560 Tempo 392157
103680 Tempo 347826
107400 Tempo 410959
107520 Tempo 344828
110400 Tempo 349854
111240 Tempo 382166
111360 Tempo 346821
113280 Tempo 349854
114720 Tempo 357143
115080 Tempo 371517
115200 Tempo 348837
117120 Tempo 351906
118920 Tempo 388350
119040 Tempo 344828
120000 Tempo 347826
120840 Tempo 369231
120960 Tempo 344828
121920 Tempo 348837
122760 Tempo 364742
122880 Tempo 344828
124800 Tempo 346821
126600 Tempo 365854
126720 Tempo 344828
130440 Tempo 359281
130560 Tempo 344828
132480 Tempo 349854
134280 Tempo 366972
134400 Tempo 344828
137280 Tempo 348837
138120 Tempo 361446
138240 Tempo 344828
140040 Tempo 361446
140160 Tempo 344828
141120 Tempo 347826
142080 Tempo 344828
144000 Tempo 344828
144480 Tempo 345821
144920 Tempo 346821
145360 Tempo 347826
145400 Tempo 363636
145920 Tempo 346821
146640 Tempo 345821
147360 Tempo 344828
147600 Tempo 363636
147840 Tempo 347826
148080 Tempo 348837
148320 Tempo 349854
148560 Tempo 350877
148800 Tempo 351906
149040 Tempo 352941
149280 Tempo 353982
149520 Tempo 355030
149640 Tempo 375000
149760 Tempo 356083
151680 Meta Marker "Fine"
151680 Meta TrkEnd
TrkEnd
MTrk
0 Meta TrkName "Piano right"
0 PrCh ch=1 p=0
0 Par ch=1 c=7 v=100
0 Par ch=1 c=10 v=64
0 Par ch=1 c=91 v=127
0 Meta Text "bdca426d104a26ac9dcb070447587523"
480 On ch=1 n=64 v=90
600 On ch=1 n=64 v=0
600 On ch=1 n=60 v=77
720 On ch=1 n=60 v=0
720 On ch=1 n=67 v=80
840 On ch=1 n=67 v=0
840 On ch=1 n=72 v=78
960 On ch=1 n=72 v=0
960 On ch=1 n=76 v=93
1080 On ch=1 n=76 v=0
1080 On ch=1 n=72 v=79
1200 On ch=1 n=72 v=0
1200 On ch=1 n=79 v=82
1320 On ch=1 n=79 v=0
1320 On ch=1 n=84 v=80
1440 On ch=1 n=84 v=0
1440 On ch=1 n=88 v=93
1560 On ch=1 n=88 v=0
1560 On ch=1 n=84 v=80
1680 On ch=1 n=84 v=0
1680 On ch=1 n=91 v=83
1800 On ch=1 n=91 v=0
1800 On ch=1 n=96 v=81
1920 On ch=1 n=96 v=0
1920 On ch=1 n=100 v=95
2040 On ch=1 n=100 v=0
2040 On ch=1 n=96 v=80
2160 On ch=1 n=96 v=0
2160 On ch=1 n=91 v=84
2280 On ch=1 n=91 v=0
2280 On ch=1 n=84 v=80
2400 On ch=1 n=84 v=0
2400 On ch=1 n=88 v=94
2520 On ch=1 n=88 v=0
2520 On ch=1 n=84 v=80
2640 On ch=1 n=84 v=0
2640 On ch=1 n=79 v=83
2760 On ch=1 n=79 v=0
2760 On ch=1 n=72 v=79
2880 On ch=1 n=72 v=0
2880 On ch=1 n=76 v=93
3000 On ch=1 n=76 v=0
3000 On ch=1 n=72 v=79
3120 On ch=1 n=72 v=0
3120 On ch=1 n=67 v=81
3240 On ch=1 n=67 v=0
3240 On ch=1 n=60 v=78
3360 On ch=1 n=60 v=0
3360 On ch=1 n=64 v=92
3480 On ch=1 n=64 v=0
3480 On ch=1 n=60 v=76
3600 On ch=1 n=60 v=0
4320 On ch=1 n=65 v=91
4440 On ch=1 n=65 v=0
4440 On ch=1 n=60 v=77
4560 On ch=1 n=60 v=0
4560 On ch=1 n=69 v=80
4680 On ch=1 n=69 v=0
4680 On ch=1 n=72 v=78
4800 On ch=1 n=72 v=0
4800 On ch=1 n=77 v=93
4920 On ch=1 n=77 v=0
4920 On ch=1 n=72 v=78
5040 On ch=1 n=72 v=0
5040 On ch=1 n=81 v=82
5160 On ch=1 n=81 v=0
5160 On ch=1 n=84 v=80
5280 On ch=1 n=84 v=0
5280 On ch=1 n=89 v=94
5400 On ch=1 n=89 v=0
5400 On ch=1 n=84 v=81
5520 On ch=1 n=84 v=0
5520 On ch=1 n=93 v=83
5640 On ch=1 n=93 v=0
5640 On ch=1 n=96 v=80
5760 On ch=1 n=96 v=0
5760 On ch=1 n=100 v=96
5880 On ch=1 n=100 v=0
5880 On ch=1 n=96 v=80
6000 On ch=1 n=96 v=0
6000 On ch=1 n=93 v=84
6120 On ch=1 n=93 v=0
6120 On ch=1 n=84 v=80
6240 On ch=1 n=84 v=0
6240 On ch=1 n=88 v=95
6360 On ch=1 n=88 v=0
6360 On ch=1 n=84 v=80
6480 On ch=1 n=84 v=0
6480 On ch=1 n=81 v=83
6600 On ch=1 n=81 v=0
6600 On ch=1 n=72 v=79
6720 On ch=1 n=72 v=0
6720 On ch=1 n=76 v=93
6840 On ch=1 n=76 v=0
6840 On ch=1 n=72 v=78
6960 On ch=1 n=72 v=0
6960 On ch=1 n=69 v=81
7080 On ch=1 n=69 v=0
7080 On ch=1 n=60 v=77
7200 On ch=1 n=60 v=0
7200 On ch=1 n=62 v=92
7320 On ch=1 n=62 v=0
7320 On ch=1 n=60 v=76
7440 On ch=1 n=60 v=0
8160 On ch=1 n=62 v=90
8280 On ch=1 n=62 v=0
8280 On ch=1 n=59 v=77
8400 On ch=1 n=59 v=0
8400 On ch=1 n=67 v=80
8520 On ch=1 n=67 v=0
8520 On ch=1 n=71 v=78
8640 On ch=1 n=71 v=0
8640 On ch=1 n=74 v=93
8760 On ch=1 n=74 v=0
8760 On ch=1 n=71 v=79
8880 On ch=1 n=71 v=0
8880 On ch=1 n=79 v=82
9000 On ch=1 n=79 v=0
9000 On ch=1 n=83 v=80
9120 On ch=1 n=83 v=0
9120 On ch=1 n=86 v=94
9240 On ch=1 n=86 v=0
9240 On ch=1 n=83 v=80
9360 On ch=1 n=83 v=0
9360 On ch=1 n=91 v=83
9480 On ch=1 n=91 v=0
9480 On ch=1 n=93 v=79
9600 On ch=1 n=93 v=0
9600 On ch=1 n=98 v=97
9720 On ch=1 n=98 v=0
9720 On ch=1 n=93 v=80
9840 On ch=1 n=93 v=0
9840 On ch=1 n=90 v=84
9960 On ch=1 n=90 v=0
9960 On ch=1 n=84 v=80
10080 On ch=1 n=84 v=0
10080 On ch=1 n=86 v=95
10200 On ch=1 n=86 v=0
10200 On ch=1 n=81 v=80
10320 On ch=1 n=81 v=0
10320 On ch=1 n=78 v=82
10440 On ch=1 n=78 v=0
10440 On ch=1 n=72 v=79
10560 On ch=1 n=72 v=0
10560 On ch=1 n=74 v=94
10680 On ch=1 n=74 v=0
10680 On ch=1 n=69 v=77
10800 On ch=1 n=69 v=0
10800 On ch=1 n=66 v=81
10920 On ch=1 n=66 v=0
10920 On ch=1 n=60 v=77
11040 On ch=1 n=60 v=0
11040 On ch=1 n=62 v=80
11160 On ch=1 n=62 v=0
12000 On ch=1 n=62 v=91
12120 On ch=1 n=62 v=0
12120 On ch=1 n=60 v=76
12240 On ch=1 n=60 v=0
12240 On ch=1 n=65 v=80
12360 On ch=1 n=65 v=0
12360 On ch=1 n=68 v=77
12480 On ch=1 n=68 v=0
12480 On ch=1 n=74 v=92
12600 On ch=1 n=74 v=0
12600 On ch=1 n=72 v=78
12720 On ch=1 n=72 v=0
12720 On ch=1 n=77 v=82
12840 On ch=1 n=77 v=0
12840 On ch=1 n=80 v=79
12960 On ch=1 n=80 v=0
12960 On ch=1 n=86 v=93
13080 On ch=1 n=86 v=0
13080 On ch=1 n=84 v=80
13200 On ch=1 n=84 v=0
13200 On ch=1 n=89 v=83
13320 On ch=1 n=89 v=0
13320 On ch=1 n=92 v=80
13440 On ch=1 n=92 v=0
13440 On ch=1 n=98 v=95
13560 On ch=1 n=98 v=0
13560 On ch=1 n=91 v=79
13680 On ch=1 n=91 v=0
13680 On ch=1 n=89 v=84
13800 On ch=1 n=89 v=0
13800 On ch=1 n=83 v=79
13920 On ch=1 n=83 v=0
13920 On ch=1 n=86 v=94
14040 On ch=1 n=86 v=0
14040 On ch=1 n=79 v=79
14160 On ch=1 n=79 v=0
14160 On ch=1 n=77 v=83
14280 On ch=1 n=77 v=0
14280 On ch=1 n=71 v=78
14400 On ch=1 n=71 v=0
14400 On ch=1 n=74 v=93
14520 On ch=1 n=74 v=0
14520 On ch=1 n=67 v=77
14640 On ch=1 n=67 v=0
14640 On ch=1 n=65 v=81
14760 On ch=1 n=65 v=0
14760 On ch=1 n=59 v=77
14880 On ch=1 n=59 v=0
14880 On ch=1 n=63 v=95
15000 On ch=1 n=63 v=0
15840 On ch=1 n=64 v=85
15960 On ch=1 n=64 v=0
15960 On ch=1 n=60 v=76
16080 On ch=1 n=60 v=0
16080 On ch=1 n=67 v=80
16200 On ch=1 n=67 v=0
16200 On ch=1 n=72 v=78
16320 On ch=1 n=72 v=0
16320 On ch=1 n=76 v=89
16440 On ch=1 n=76 v=0
16440 On ch=1 n=72 v=78
16560 On ch=1 n=72 v=0
16560 On ch=1 n=79 v=82
16680 On ch=1 n=79 v=0
16680 On ch=1 n=84 v=79
16800 On ch=1 n=84 v=0
16800 On ch=1 n=88 v=90
16920 On ch=1 n=88 v=0
16920 On ch=1 n=84 v=80
17040 On ch=1 n=84 v=0
17040 On ch=1 n=91 v=83
17160 On ch=1 n=91 v=0
17160 On ch=1 n=96 v=80
17280 On ch=1 n=96 v=0
17280 On ch=1 n=100 v=92
17400 On ch=1 n=100 v=0
17400 On ch=1 n=96 v=80
17520 On ch=1 n=96 v=0
17520 On ch=1 n=91 v=84
17640 On ch=1 n=91 v=0
17640 On ch=1 n=84 v=80
17760 On ch=1 n=84 v=0
17760 On ch=1 n=88 v=92
17880 On ch=1 n=88 v=0
17880 On ch=1 n=84 v=81
18000 On ch=1 n=84 v=0
18000 On ch=1 n=79 v=83
18120 On ch=1 n=79 v=0
18120 On ch=1 n=72 v=79
18240 On ch=1 n=72 v=0
18240 On ch=1 n=76 v=90
18360 On ch=1 n=76 v=0
18360 On ch=1 n=72 v=78
18480 On ch=1 n=72 v=0
18480 On ch=1 n=67 v=81
18600 On ch=1 n=67 v=0
18600 On ch=1 n=60 v=77
18720 On ch=1 n=60 v=0
18720 On ch=1 n=64 v=89
18840 On ch=1 n=64 v=0
18840 On ch=1 n=60 v=77
18960 On ch=1 n=60 v=0
19680 On ch=1 n=65 v=87
19800 On ch=1 n=65 v=0
19800 On ch=1 n=60 v=76
19920 On ch=1 n=60 v=0
19920 On ch=1 n=65 v=80
20040 On ch=1 n=65 v=0
20040 On ch=1 n=72 v=77
20160 On ch=1 n=72 v=0
20160 On ch=1 n=77 v=89
20280 On ch=1 n=77 v=0
20280 On ch=1 n=72 v=77
20400 On ch=1 n=72 v=0
20400 On ch=1 n=77 v=82
20520 On ch=1 n=77 v=0
20520 On ch=1 n=84 v=79
20640 On ch=1 n=84 v=0
20640 On ch=1 n=89 v=92
20760 On ch=1 n=89 v=0
20760 On ch=1 n=84 v=80
20880 On ch=1 n=84 v=0
20880 On ch=1 n=89 v=83
21000 On ch=1 n=89 v=0
21000 On ch=1 n=96 v=80
21120 On ch=1 n=96 v=0
21120 On ch=1 n=100 v=93
21240 On ch=1 n=100 v=0
21240 On ch=1 n=96 v=80
21360 On ch=1 n=96 v=0
21360 On ch=1 n=90 v=84
21480 On ch=1 n=90 v=0
21480 On ch=1 n=84 v=79
21600 On ch=1 n=84 v=0
21600 On ch=1 n=88 v=93
21720 On ch=1 n=88 v=0
21720 On ch=1 n=84 v=80
21840 On ch=1 n=84 v=0
21840 On ch=1 n=78 v=83
21960 On ch=1 n=78 v=0
21960 On ch=1 n=72 v=79
22080 On ch=1 n=72 v=0
22080 On ch=1 n=76 v=90
22200 On ch=1 n=76 v=0
22200 On ch=1 n=72 v=79
22320 On ch=1 n=72 v=0
22320 On ch=1 n=66 v=81
22440 On ch=1 n=66 v=0
22440 On ch=1 n=60 v=78
22560 On ch=1 n=60 v=0
22560 On ch=1 n=64 v=89
22680 On ch=1 n=64 v=0
22680 On ch=1 n=60 v=77
22800 On ch=1 n=60 v=0
23520 On ch=1 n=62 v=81
23640 On ch=1 n=62 v=0
23640 On ch=1 n=60 v=73
23760 On ch=1 n=60 v=0
23760 On ch=1 n=67 v=76
23880 On ch=1 n=67 v=0
23880 On ch=1 n=72 v=74
24000 On ch=1 n=72 v=0
24000 On ch=1 n=74 v=86
24120 On ch=1 n=74 v=0
24120 On ch=1 n=72 v=74
24240 On ch=1 n=72 v=0
24240 On ch=1 n=79 v=77
24360 On ch=1 n=79 v=0
24360 On ch=1 n=84 v=75
24480 On ch=1 n=84 v=0
24480 On ch=1 n=86 v=88
24600 On ch=1 n=86 v=0
24600 On ch=1 n=84 v=76
24720 On ch=1 n=84 v=0
24720 On ch=1 n=91 v=78
24840 On ch=1 n=91 v=0
24840 On ch=1 n=96 v=76
24960 On ch=1 n=96 v=0
24960 On ch=1 n=98 v=89
25080 On ch=1 n=98 v=0
25080 On ch=1 n=95 v=76
25200 On ch=1 n=95 v=0
25200 On ch=1 n=91 v=79
25320 On ch=1 n=91 v=0
25320 On ch=1 n=83 v=75
25440 On ch=1 n=83 v=0
25440 On ch=1 n=86 v=87
25560 On ch=1 n=86 v=0
25560 On ch=1 n=83 v=75
25680 On ch=1 n=83 v=0
25680 On ch=1 n=79 v=78
25800 On ch=1 n=79 v=0
25800 On ch=1 n=71 v=74
25920 On ch=1 n=71 v=0
25920 On ch=1 n=74 v=86
26040 On ch=1 n=74 v=0
26040 On ch=1 n=71 v=75
26160 On ch=1 n=71 v=0
26160 On ch=1 n=67 v=76
26280 On ch=1 n=67 v=0
26280 On ch=1 n=59 v=74
26400 On ch=1 n=59 v=0
26400 On ch=1 n=62 v=83
26520 On ch=1 n=62 v=0
26520 On ch=1 n=59 v=73
26640 On ch=1 n=59 v=0
27360 On ch=1 n=64 v=77
27480 On ch=1 n=64 v=0
27480 On ch=1 n=62 v=70
27600 On ch=1 n=62 v=0
27600 On ch=1 n=67 v=75
27720 On ch=1 n=67 v=0
27720 On ch=1 n=74 v=72
27840 On ch=1 n=74 v=0
27840 On ch=1 n=76 v=77
27960 On ch=1 n=76 v=0
27960 On ch=1 n=74 v=72
28080 On ch=1 n=74 v=0
28080 On ch=1 n=79 v=74
28200 On ch=1 n=79 v=0
28200 On ch=1 n=86 v=72
28320 On ch=1 n=86 v=0
28320 On ch=1 n=88 v=80
28440 On ch=1 n=88 v=0
28440 On ch=1 n=86 v=72
28560 On ch=1 n=86 v=0
28560 On ch=1 n=91 v=74
28680 On ch=1 n=91 v=0
28680 On ch=1 n=98 v=72
28800 On ch=1 n=98 v=0
28800 On ch=1 n=100 v=78
28920 On ch=1 n=100 v=0
28920 On ch=1 n=96 v=69
29040 On ch=1 n=96 v=0
29040 On ch=1 n=91 v=73
29160 On ch=1 n=91 v=0
29160 On ch=1 n=84 v=69
29280 On ch=1 n=84 v=0
29280 On ch=1 n=88 v=78
29400 On ch=1 n=88 v=0
29400 On ch=1 n=84 v=68
29520 On ch=1 n=84 v=0
29520 On ch=1 n=79 v=71
29640 On ch=1 n=79 v=0
29640 On ch=1 n=72 v=65
29760 On ch=1 n=72 v=0
29760 On ch=1 n=76 v=75
29880 On ch=1 n=76 v=0
29880 On ch=1 n=72 v=66
30000 On ch=1 n=72 v=0
30000 On ch=1 n=67 v=69
30120 On ch=1 n=67 v=0
30120 On ch=1 n=60 v=64
30240 On ch=1 n=60 v=0
30240 On ch=1 n=64 v=71
30360 On ch=1 n=64 v=0
30360 On ch=1 n=60 v=64
30480 On ch=1 n=60 v=0
31080 On ch=1 n=64 v=53
31200 On ch=1 n=64 v=0
31200 On ch=1 n=65 v=59
31320 On ch=1 n=65 v=0
31320 On ch=1 n=64 v=51
31440 On ch=1 n=64 v=0
31440 On ch=1 n=72 v=54
31560 On ch=1 n=72 v=0
31560 On ch=1 n=76 v=52
31680 On ch=1 n=76 v=0
31680 On ch=1 n=77 v=61
31800 On ch=1 n=77 v=0
31800 On ch=1 n=76 v=51
31920 On ch=1 n=76 v=0
31920 On ch=1 n=84 v=56
32040 On ch=1 n=84 v=0
32040 On ch=1 n=88 v=52
32160 On ch=1 n=88 v=0
32160 On ch=1 n=89 v=62
32280 On ch=1 n=89 v=0
32280 On ch=1 n=88 v=54
32400 On ch=1 n=88 v=0
32400 On ch=1 n=96 v=56
32520 On ch=1 n=96 v=0
32520 On ch=1 n=100 v=52
32640 On ch=1 n=100 v=0
32640 On ch=1 n=101 v=63
32760 On ch=1 n=101 v=0
32760 On ch=1 n=98 v=53
32880 On ch=1 n=98 v=0
32880 On ch=1 n=95 v=56
33000 On ch=1 n=95 v=0
33000 On ch=1 n=86 v=53
33120 On ch=1 n=86 v=0
33120 On ch=1 n=89 v=62
33240 On ch=1 n=89 v=0
33240 On ch=1 n=86 v=53
33360 On ch=1 n=86 v=0
33360 On ch=1 n=83 v=56
33480 On ch=1 n=83 v=0
33480 On ch=1 n=74 v=52
33600 On ch=1 n=74 v=0
33600 On ch=1 n=77 v=61
33720 On ch=1 n=77 v=0
33720 On ch=1 n=74 v=51
33840 On ch=1 n=74 v=0
33840 On ch=1 n=71 v=55
33960 On ch=1 n=71 v=0
33960 On ch=1 n=62 v=51
34080 On ch=1 n=62 v=0
34080 On ch=1 n=65 v=60
34200 On ch=1 n=65 v=0
34200 On ch=1 n=62 v=50
34320 On ch=1 n=62 v=0
34320 On ch=1 n=59 v=54
34440 On ch=1 n=59 v=0
35040 On ch=1 n=64 v=64
35160 On ch=1 n=64 v=0
35160 On ch=1 n=62 v=51
35280 On ch=1 n=62 v=0
35280 On ch=1 n=71 v=55
35400 On ch=1 n=71 v=0
35400 On ch=1 n=74 v=53
35520 On ch=1 n=74 v=0
35520 On ch=1 n=76 v=66
35640 On ch=1 n=76 v=0
35640 On ch=1 n=74 v=52
35760 On ch=1 n=74 v=0
35760 On ch=1 n=83 v=58
35880 On ch=1 n=83 v=0
35880 On ch=1 n=86 v=53
36000 On ch=1 n=86 v=0
36000 On ch=1 n=88 v=66
36120 On ch=1 n=88 v=0
36120 On ch=1 n=86 v=54
36240 On ch=1 n=86 v=0
36240 On ch=1 n=95 v=59
36360 On ch=1 n=95 v=0
36360 On ch=1 n=98 v=55
36480 On ch=1 n=98 v=0
36480 On ch=1 n=100 v=68
36600 On ch=1 n=100 v=0
36600 On ch=1 n=96 v=57
36720 On ch=1 n=96 v=0
36720 On ch=1 n=93 v=59
36840 On ch=1 n=93 v=0
36840 On ch=1 n=84 v=57
36960 On ch=1 n=84 v=0
36960 On ch=1 n=88 v=71
37080 On ch=1 n=88 v=0
37080 On ch=1 n=84 v=58
37200 On ch=1 n=84 v=0
37200 On ch=1 n=81 v=63
37320 On ch=1 n=81 v=0
37320 On ch=1 n=72 v=61
37440 On ch=1 n=72 v=0
37440 On ch=1 n=76 v=74
37560 On ch=1 n=76 v=0
37560 On ch=1 n=72 v=61
37680 On ch=1 n=72 v=0
37680 On ch=1 n=69 v=66
37800 On ch=1 n=69 v=0
37800 On ch=1 n=60 v=61
37920 On ch=1 n=60 v=0
37920 On ch=1 n=64 v=77
38040 On ch=1 n=64 v=0
38040 On ch=1 n=60 v=63
38160 On ch=1 n=60 v=0
38880 On ch=1 n=64 v=82
39000 On ch=1 n=64 v=0
39000 On ch=1 n=60 v=67
39120 On ch=1 n=60 v=0
39120 On ch=1 n=69 v=72
39240 On ch=1 n=69 v=0
39240 On ch=1 n=72 v=68
39360 On ch=1 n=72 v=0
39360 On ch=1 n=76 v=82
39480 On ch=1 n=76 v=0
39480 On ch=1 n=72 v=69
39600 On ch=1 n=72 v=0
39600 On ch=1 n=81 v=73
39720 On ch=1 n=81 v=0
39720 On ch=1 n=84 v=70
39840 On ch=1 n=84 v=0
39840 On ch=1 n=88 v=83
39960 On ch=1 n=88 v=0
39960 On ch=1 n=84 v=71
40080 On ch=1 n=84 v=0
40080 On ch=1 n=93 v=74
40200 On ch=1 n=93 v=0
40200 On ch=1 n=96 v=71
40320 On ch=1 n=96 v=0
40320 On ch=1 n=99 v=86
40440 On ch=1 n=99 v=0
40440 On ch=1 n=95 v=71
40560 On ch=1 n=95 v=0
40560 On ch=1 n=93 v=75
40680 On ch=1 n=93 v=0
40680 On ch=1 n=83 v=68
40800 On ch=1 n=83 v=0
40800 On ch=1 n=87 v=78
40920 On ch=1 n=87 v=0
40920 On ch=1 n=83 v=63
41040 On ch=1 n=83 v=0
41040 On ch=1 n=81 v=67
41160 On ch=1 n=81 v=0
41160 On ch=1 n=71 v=62
41280 On ch=1 n=71 v=0
41280 On ch=1 n=75 v=72
41400 On ch=1 n=75 v=0
41400 On ch=1 n=71 v=59
41520 On ch=1 n=71 v=0
41520 On ch=1 n=69 v=63
41640 On ch=1 n=69 v=0
41640 On ch=1 n=59 v=55
41760 On ch=1 n=59 v=0
41760 On ch=1 n=63 v=61
41880 On ch=1 n=63 v=0
42720 On ch=1 n=64 v=61
42840 On ch=1 n=64 v=0
42840 On ch=1 n=59 v=50
42960 On ch=1 n=59 v=0
42960 On ch=1 n=69 v=54
43080 On ch=1 n=69 v=0
43080 On ch=1 n=71 v=49
43200 On ch=1 n=71 v=0
43200 On ch=1 n=76 v=62
43320 On ch=1 n=76 v=0
43320 On ch=1 n=71 v=50
43440 On ch=1 n=71 v=0
43440 On ch=1 n=81 v=54
43560 On ch=1 n=81 v=0
43560 On ch=1 n=83 v=50
43680 On ch=1 n=83 v=0
43680 On ch=1 n=88 v=62
43800 On ch=1 n=88 v=0
43800 On ch=1 n=83 v=50
43920 On ch=1 n=83 v=0
43920 On ch=1 n=93 v=54
44040 On ch=1 n=93 v=0
44040 On ch=1 n=95 v=50
44160 On ch=1 n=95 v=0
44160 On ch=1 n=100 v=62
44280 On ch=1 n=100 v=0
44280 On ch=1 n=95 v=49
44400 On ch=1 n=95 v=0
44400 On ch=1 n=92 v=54
44520 On ch=1 n=92 v=0
44520 On ch=1 n=83 v=49
44640 On ch=1 n=83 v=0
44640 On ch=1 n=88 v=61
44760 On ch=1 n=88 v=0
44760 On ch=1 n=83 v=50
44880 On ch=1 n=83 v=0
44880 On ch=1 n=80 v=54
45000 On ch=1 n=80 v=0
45000 On ch=1 n=71 v=50
45120 On ch=1 n=71 v=0
45120 On ch=1 n=76 v=61
45240 On ch=1 n=76 v=0
45240 On ch=1 n=71 v=50
45360 On ch=1 n=71 v=0
45360 On ch=1 n=68 v=54
45480 On ch=1 n=68 v=0
45480 On ch=1 n=59 v=50
45600 On ch=1 n=59 v=0
45600 On ch=1 n=64 v=53
45720 On ch=1 n=64 v=0
45720 On ch=1 n=59 v=50
45840 On ch=1 n=59 v=0
46560 On ch=1 n=67 v=61
46680 On ch=1 n=67 v=0
46680 On ch=1 n=64 v=50
46800 On ch=1 n=64 v=0
46800 On ch=1 n=69 v=54
46920 On ch=1 n=69 v=0
46920 On ch=1 n=73 v=51
47040 On ch=1 n=73 v=0
47040 On ch=1 n=79 v=62
47160 On ch=1 n=79 v=0
47160 On ch=1 n=76 v=50
47280 On ch=1 n=76 v=0
47280 On ch=1 n=81 v=55
47400 On ch=1 n=81 v=0
47400 On ch=1 n=85 v=50
47520 On ch=1 n=85 v=0
47520 On ch=1 n=91 v=63
47640 On ch=1 n=91 v=0
47640 On ch=1 n=85 v=52
47760 On ch=1 n=85 v=0
47760 On ch=1 n=81 v=57
47880 On ch=1 n=81 v=0
47880 On ch=1 n=76 v=52
48000 On ch=1 n=76 v=0
48000 On ch=1 n=91 v=65
48120 On ch=1 n=91 v=0
48120 On ch=1 n=84 v=52
48240 On ch=1 n=84 v=0
48240 On ch=1 n=81 v=57
48360 On ch=1 n=81 v=0
48360 On ch=1 n=76 v=52
48480 On ch=1 n=76 v=0
48480 On ch=1 n=79 v=65
48600 On ch=1 n=79 v=0
48600 On ch=1 n=72 v=53
48720 On ch=1 n=72 v=0
48720 On ch=1 n=69 v=57
48840 On ch=1 n=69 v=0
48840 On ch=1 n=64 v=53
48960 On ch=1 n=64 v=0
48960 On ch=1 n=67 v=65
49080 On ch=1 n=67 v=0
49080 On ch=1 n=60 v=53
49200 On ch=1 n=60 v=0
49440 On ch=1 n=66 v=64
49560 On ch=1 n=66 v=0
49560 On ch=1 n=60 v=56
49680 On ch=1 n=60 v=0
50400 On ch=1 n=65 v=72
50520 On ch=1 n=65 v=0
50520 On ch=1 n=62 v=59
50640 On ch=1 n=62 v=0
50640 On ch=1 n=67 v=64
50760 On ch=1 n=67 v=0
50760 On ch=1 n=72 v=62
50880 On ch=1 n=72 v=0
50880 On ch=1 n=77 v=73
51000 On ch=1 n=77 v=0
51000 On ch=1 n=74 v=63
51120 On ch=1 n=74 v=0
51120 On ch=1 n=79 v=67
51240 On ch=1 n=79 v=0
51240 On ch=1 n=84 v=62
51360 On ch=1 n=84 v=0
51360 On ch=1 n=89 v=72
51480 On ch=1 n=89 v=0
51480 On ch=1 n=86 v=64
51600 On ch=1 n=86 v=0
51600 On ch=1 n=91 v=67
51720 On ch=1 n=91 v=0
51720 On ch=1 n=96 v=64
51840 On ch=1 n=96 v=0
51840 On ch=1 n=101 v=74
51960 On ch=1 n=101 v=0
51960 On ch=1 n=95 v=64
52080 On ch=1 n=95 v=0
52080 On ch=1 n=91 v=68
52200 On ch=1 n=91 v=0
52200 On ch=1 n=86 v=64
52320 On ch=1 n=86 v=0
52320 On ch=1 n=89 v=74
52440 On ch=1 n=89 v=0
52440 On ch=1 n=83 v=65
52560 On ch=1 n=83 v=0
52560 On ch=1 n=79 v=68
52680 On ch=1 n=79 v=0
52680 On ch=1 n=74 v=64
52800 On ch=1 n=74 v=0
52800 On ch=1 n=77 v=72
52920 On ch=1 n=77 v=0
52920 On ch=1 n=71 v=64
53040 On ch=1 n=71 v=0
53040 On ch=1 n=67 v=68
53160 On ch=1 n=67 v=0
53160 On ch=1 n=62 v=68
53280 On ch=1 n=62 v=0
53280 On ch=1 n=65 v=72
53400 On ch=1 n=65 v=0
54240 On ch=1 n=64 v=80
54360 On ch=1 n=64 v=0
54360 On ch=1 n=60 v=72
54480 On ch=1 n=60 v=0
54480 On ch=1 n=67 v=76
54600 On ch=1 n=67 v=0
54600 On ch=1 n=70 v=73
54720 On ch=1 n=70 v=0
54720 On ch=1 n=76 v=85
54840 On ch=1 n=76 v=0
54840 On ch=1 n=72 v=73
54960 On ch=1 n=72 v=0
54960 On ch=1 n=79 v=77
55080 On ch=1 n=79 v=0
55080 On ch=1 n=82 v=73
55200 On ch=1 n=82 v=0
55200 On ch=1 n=88 v=86
55320 On ch=1 n=88 v=0
55320 On ch=1 n=84 v=75
55440 On ch=1 n=84 v=0
55440 On ch=1 n=91 v=78
55560 On ch=1 n=91 v=0
55560 On ch=1 n=96 v=75
55680 On ch=1 n=96 v=0
55680 On ch=1 n=99 v=89
55800 On ch=1 n=99 v=0
55800 On ch=1 n=94 v=75
55920 On ch=1 n=94 v=0
55920 On ch=1 n=87 v=79
56040 On ch=1 n=87 v=0
56040 On ch=1 n=84 v=74
56160 On ch=1 n=84 v=0
56160 On ch=1 n=87 v=87
56280 On ch=1 n=87 v=0
56280 On ch=1 n=82 v=74
56400 On ch=1 n=82 v=0
56400 On ch=1 n=75 v=78
56520 On ch=1 n=75 v=0
56520 On ch=1 n=72 v=73
56640 On ch=1 n=72 v=0
56640 On ch=1 n=75 v=85
56760 On ch=1 n=75 v=0
56760 On ch=1 n=70 v=74
56880 On ch=1 n=70 v=0
56880 On ch=1 n=63 v=76
57000 On ch=1 n=63 v=0
57000 On ch=1 n=60 v=73
57120 On ch=1 n=60 v=0
57120 On ch=1 n=63 v=83
57240 On ch=1 n=63 v=0
57240 On ch=1 n=58 v=72
57360 On ch=1 n=58 v=0
58080 On ch=1 n=63 v=79
58200 On ch=1 n=63 v=0
58200 On ch=1 n=60 v=71
58320 On ch=1 n=60 v=0
58320 On ch=1 n=63 v=76
58440 On ch=1 n=63 v=0
58440 On ch=1 n=69 v=73
58560 On ch=1 n=69 v=0
58560 On ch=1 n=75 v=82
58680 On ch=1 n=75 v=0
58680 On ch=1 n=72 v=75
58800 On ch=1 n=72 v=0
58800 On ch=1 n=75 v=77
58920 On ch=1 n=75 v=0
58920 On ch=1 n=81 v=74
59040 On ch=1 n=81 v=0
59040 On ch=1 n=87 v=85
59160 On ch=1 n=87 v=0
59160 On ch=1 n=84 v=75
59280 On ch=1 n=84 v=0
59280 On ch=1 n=87 v=78
59400 On ch=1 n=87 v=0
59400 On ch=1 n=93 v=75
59520 On ch=1 n=93 v=0
59520 On ch=1 n=99 v=86
59640 On ch=1 n=99 v=0
59640 On ch=1 n=92 v=73
59760 On ch=1 n=92 v=0
59760 On ch=1 n=87 v=77
59880 On ch=1 n=87 v=0
59880 On ch=1 n=83 v=73
60000 On ch=1 n=83 v=0
60000 On ch=1 n=87 v=85
60120 On ch=1 n=87 v=0
60120 On ch=1 n=80 v=71
60240 On ch=1 n=80 v=0
60240 On ch=1 n=75 v=76
60360 On ch=1 n=75 v=0
60360 On ch=1 n=71 v=71
60480 On ch=1 n=71 v=0
60480 On ch=1 n=75 v=80
60600 On ch=1 n=75 v=0
60600 On ch=1 n=68 v=70
60720 On ch=1 n=68 v=0
60720 On ch=1 n=63 v=72
60840 On ch=1 n=63 v=0
60840 On ch=1 n=59 v=67
60960 On ch=1 n=59 v=0
60960 On ch=1 n=63 v=71
61080 On ch=1 n=63 v=0
61920 On ch=1 n=62 v=76
62040 On ch=1 n=62 v=0
62040 On ch=1 n=58 v=64
62160 On ch=1 n=58 v=0
62160 On ch=1 n=65 v=69
62280 On ch=1 n=65 v=0
62280 On ch=1 n=68 v=65
62400 On ch=1 n=68 v=0
62400 On ch=1 n=74 v=76
62520 On ch=1 n=74 v=0
62520 On ch=1 n=70 v=66
62640 On ch=1 n=70 v=0
62640 On ch=1 n=77 v=71
62760 On ch=1 n=77 v=0
62760 On ch=1 n=80 v=67
62880 On ch=1 n=80 v=0
62880 On ch=1 n=86 v=76
63000 On ch=1 n=86 v=0
63000 On ch=1 n=82 v=65
63120 On ch=1 n=82 v=0
63120 On ch=1 n=89 v=71
63240 On ch=1 n=89 v=0
63240 On ch=1 n=92 v=67
63360 On ch=1 n=92 v=0
63360 On ch=1 n=98 v=83
63480 On ch=1 n=98 v=0
63480 On ch=1 n=92 v=70
63600 On ch=1 n=92 v=0
63600 On ch=1 n=88 v=74
63720 On ch=1 n=88 v=0
63720 On ch=1 n=82 v=70
63840 On ch=1 n=82 v=0
63840 On ch=1 n=86 v=84
63960 On ch=1 n=86 v=0
63960 On ch=1 n=80 v=71
64080 On ch=1 n=80 v=0
64080 On ch=1 n=76 v=76
64200 On ch=1 n=76 v=0
64200 On ch=1 n=70 v=71
64320 On ch=1 n=70 v=0
64320 On ch=1 n=74 v=87
64440 On ch=1 n=74 v=0
64440 On ch=1 n=68 v=72
64560 On ch=1 n=68 v=0
64560 On ch=1 n=64 v=76
64680 On ch=1 n=64 v=0
64680 On ch=1 n=58 v=70
64800 On ch=1 n=58 v=0
64800 On ch=1 n=62 v=86
64920 On ch=1 n=62 v=0
65760 On ch=1 n=61 v=81
65880 On ch=1 n=61 v=0
65880 On ch=1 n=57 v=70
66000 On ch=1 n=57 v=0
66000 On ch=1 n=64 v=76
66120 On ch=1 n=64 v=0
66120 On ch=1 n=69 v=74
66240 On ch=1 n=69 v=0
66240 On ch=1 n=73 v=83
66360 On ch=1 n=73 v=0
66360 On ch=1 n=69 v=74
66480 On ch=1 n=69 v=0
66480 On ch=1 n=76 v=77
66600 On ch=1 n=76 v=0
66600 On ch=1 n=81 v=73
66720 On ch=1 n=81 v=0
66720 On ch=1 n=85 v=85
66840 On ch=1 n=85 v=0
66840 On ch=1 n=81 v=74
66960 On ch=1 n=81 v=0
66960 On ch=1 n=88 v=78
67080 On ch=1 n=88 v=0
67080 On ch=1 n=93 v=74
67200 On ch=1 n=93 v=0
67200 On ch=1 n=97 v=87
67320 On ch=1 n=97 v=0
67320 On ch=1 n=93 v=74
67440 On ch=1 n=93 v=0
67440 On ch=1 n=88 v=79
67560 On ch=1 n=88 v=0
67560 On ch=1 n=81 v=74
67680 On ch=1 n=81 v=0
67680 On ch=1 n=85 v=85
67800 On ch=1 n=85 v=0
67800 On ch=1 n=81 v=72
67920 On ch=1 n=81 v=0
67920 On ch=1 n=76 v=77
68040 On ch=1 n=76 v=0
68040 On ch=1 n=69 v=72
68160 On ch=1 n=69 v=0
68160 On ch=1 n=73 v=86
68280 On ch=1 n=73 v=0
68280 On ch=1 n=69 v=72
68400 On ch=1 n=69 v=0
68400 On ch=1 n=64 v=74
68520 On ch=1 n=64 v=0
68520 On ch=1 n=57 v=69
68640 On ch=1 n=57 v=0
68640 On ch=1 n=61 v=84
68760 On ch=1 n=61 v=0
69600 On ch=1 n=60 v=74
69720 On ch=1 n=60 v=0
69720 On ch=1 n=57 v=68
69840 On ch=1 n=57 v=0
69840 On ch=1 n=62 v=71
69960 On ch=1 n=62 v=0
69960 On ch=1 n=66 v=66
70080 On ch=1 n=66 v=0
70080 On ch=1 n=72 v=74
70200 On ch=1 n=72 v=0
70200 On ch=1 n=69 v=66
70320 On ch=1 n=69 v=0
70320 On ch=1 n=74 v=71
70440 On ch=1 n=74 v=0
70440 On ch=1 n=78 v=68
70560 On ch=1 n=78 v=0
70560 On ch=1 n=84 v=75
70680 On ch=1 n=84 v=0
70680 On ch=1 n=81 v=67
70800 On ch=1 n=81 v=0
70800 On ch=1 n=86 v=70
70920 On ch=1 n=86 v=0
70920 On ch=1 n=90 v=67
71040 On ch=1 n=90 v=0
71040 On ch=1 n=96 v=76
71160 On ch=1 n=96 v=0
71160 On ch=1 n=89 v=68
71280 On ch=1 n=89 v=0
71280 On ch=1 n=86 v=71
71400 On ch=1 n=86 v=0
71400 On ch=1 n=79 v=68
71520 On ch=1 n=79 v=0
71520 On ch=1 n=84 v=73
71640 On ch=1 n=84 v=0
71640 On ch=1 n=77 v=66
71760 On ch=1 n=77 v=0
71760 On ch=1 n=74 v=69
71880 On ch=1 n=74 v=0
71880 On ch=1 n=67 v=63
72000 On ch=1 n=67 v=0
72000 On ch=1 n=72 v=74
72120 On ch=1 n=72 v=0
72120 On ch=1 n=65 v=63
72240 On ch=1 n=65 v=0
72240 On ch=1 n=62 v=66
72360 On ch=1 n=62 v=0
73680 On ch=1 n=60 v=61
73800 On ch=1 n=60 v=0
73800 On ch=1 n=64 v=65
73920 On ch=1 n=64 v=0
73920 On ch=1 n=71 v=72
74040 On ch=1 n=71 v=0
74040 On ch=1 n=67 v=61
74160 On ch=1 n=67 v=0
74160 On ch=1 n=72 v=66
74280 On ch=1 n=72 v=0
74280 On ch=1 n=76 v=61
74400 On ch=1 n=76 v=0
74400 On ch=1 n=83 v=73
74520 On ch=1 n=83 v=0
74520 On ch=1 n=79 v=64
74640 On ch=1 n=79 v=0
74640 On ch=1 n=84 v=66
74760 On ch=1 n=84 v=0
74760 On ch=1 n=88 v=63
74880 On ch=1 n=88 v=0
74880 On ch=1 n=95 v=75
75000 On ch=1 n=95 v=0
75000 On ch=1 n=88 v=65
75120 On ch=1 n=88 v=0
75120 On ch=1 n=84 v=67
75240 On ch=1 n=84 v=0
75240 On ch=1 n=77 v=67
75360 On ch=1 n=77 v=0
75360 On ch=1 n=83 v=74
75480 On ch=1 n=83 v=0
75480 On ch=1 n=76 v=64
75600 On ch=1 n=76 v=0
75600 On ch=1 n=72 v=66
75720 On ch=1 n=72 v=0
75720 On ch=1 n=65 v=61
75840 On ch=1 n=65 v=0
75840 On ch=1 n=71 v=73
75960 On ch=1 n=71 v=0
75960 On ch=1 n=64 v=66
76080 On ch=1 n=64 v=0
76080 On ch=1 n=60 v=61
76200 On ch=1 n=60 v=0
77640 On ch=1 n=62 v=66
77760 On ch=1 n=62 v=0
77760 On ch=1 n=69 v=74
77880 On ch=1 n=69 v=0
77880 On ch=1 n=65 v=64
78000 On ch=1 n=65 v=0
78000 On ch=1 n=71 v=68
78120 On ch=1 n=71 v=0
78120 On ch=1 n=74 v=63
78240 On ch=1 n=74 v=0
78240 On ch=1 n=81 v=74
78360 On ch=1 n=81 v=0
78360 On ch=1 n=77 v=64
78480 On ch=1 n=77 v=0
78480 On ch=1 n=83 v=68
78600 On ch=1 n=83 v=0
78600 On ch=1 n=86 v=64
78720 On ch=1 n=86 v=0
78720 On ch=1 n=91 v=75
78840 On ch=1 n=91 v=0
78840 On ch=1 n=86 v=65
78960 On ch=1 n=86 v=0
78960 On ch=1 n=83 v=68
79080 On ch=1 n=83 v=0
79080 On ch=1 n=76 v=65
79200 On ch=1 n=76 v=0
79200 On ch=1 n=79 v=75
79320 On ch=1 n=79 v=0
79320 On ch=1 n=74 v=65
79440 On ch=1 n=74 v=0
79440 On ch=1 n=71 v=68
79560 On ch=1 n=71 v=0
79560 On ch=1 n=64 v=64
79680 On ch=1 n=64 v=0
79680 On ch=1 n=69 v=75
79800 On ch=1 n=69 v=0
79800 On ch=1 n=72 v=64
79920 On ch=1 n=72 v=0
79920 On ch=1 n=79 v=68
80040 On ch=1 n=79 v=0
80040 On ch=1 n=76 v=64
80160 On ch=1 n=76 v=0
80160 On ch=1 n=81 v=75
80280 On ch=1 n=81 v=0
80280 On ch=1 n=84 v=65
80400 On ch=1 n=84 v=0
80400 On ch=1 n=91 v=69
80520 On ch=1 n=91 v=0
80520 On ch=1 n=88 v=65
80640 On ch=1 n=88 v=0
80640 On ch=1 n=89 v=76
80760 On ch=1 n=89 v=0
80760 On ch=1 n=84 v=67
80880 On ch=1 n=84 v=0
80880 On ch=1 n=81 v=70
81000 On ch=1 n=81 v=0
81000 On ch=1 n=74 v=66
81120 On ch=1 n=74 v=0
81120 On ch=1 n=77 v=77
81240 On ch=1 n=77 v=0
81240 On ch=1 n=72 v=67
81360 On ch=1 n=72 v=0
81360 On ch=1 n=69 v=72
81480 On ch=1 n=69 v=0
81480 On ch=1 n=62 v=67
81600 On ch=1 n=62 v=0
81600 On ch=1 n=67 v=78
81720 On ch=1 n=67 v=0
81720 On ch=1 n=71 v=66
81840 On ch=1 n=71 v=0
81840 On ch=1 n=77 v=72
81960 On ch=1 n=77 v=0
81960 On ch=1 n=74 v=68
82080 On ch=1 n=74 v=0
82080 On ch=1 n=79 v=78
82200 On ch=1 n=79 v=0
82200 On ch=1 n=83 v=68
82320 On ch=1 n=83 v=0
82320 On ch=1 n=89 v=74
82440 On ch=1 n=89 v=0
82440 On ch=1 n=86 v=68
82560 On ch=1 n=86 v=0
82560 On ch=1 n=88 v=80
82680 On ch=1 n=88 v=0
82680 On ch=1 n=83 v=70
82800 On ch=1 n=83 v=0
82800 On ch=1 n=79 v=75
82920 On ch=1 n=79 v=0
82920 On ch=1 n=72 v=70
83040 On ch=1 n=72 v=0
83040 On ch=1 n=76 v=83
83160 On ch=1 n=76 v=0
83160 On ch=1 n=71 v=70
83280 On ch=1 n=71 v=0
83280 On ch=1 n=67 v=76
83400 On ch=1 n=67 v=0
83400 On ch=1 n=60 v=70
83520 On ch=1 n=60 v=0
83520 On ch=1 n=65 v=86
83640 On ch=1 n=65 v=0
83640 On ch=1 n=69 v=71
83760 On ch=1 n=69 v=0
83760 On ch=1 n=76 v=77
83880 On ch=1 n=76 v=0
83880 On ch=1 n=72 v=71
84000 On ch=1 n=72 v=0
84000 On ch=1 n=77 v=86
84120 On ch=1 n=77 v=0
84120 On ch=1 n=81 v=73
84240 On ch=1 n=81 v=0
84240 On ch=1 n=88 v=79
84360 On ch=1 n=88 v=0
84360 On ch=1 n=84 v=75
84480 On ch=1 n=84 v=0
84480 On ch=1 n=86 v=90
84600 On ch=1 n=86 v=0
84600 On ch=1 n=81 v=76
84720 On ch=1 n=81 v=0
84720 On ch=1 n=77 v=80
84840 On ch=1 n=77 v=0
84840 On ch=1 n=71 v=75
84960 On ch=1 n=71 v=0
84960 On ch=1 n=74 v=90
85080 On ch=1 n=74 v=0
85080 On ch=1 n=69 v=76
85200 On ch=1 n=69 v=0
85200 On ch=1 n=65 v=80
85320 On ch=1 n=65 v=0
85320 On ch=1 n=59 v=74
85440 On ch=1 n=59 v=0
85440 On ch=1 n=62 v=90
85560 On ch=1 n=62 v=0
86400 On ch=1 n=87 v=91
86520 On ch=1 n=87 v=0
86520 On ch=1 n=81 v=75
86640 On ch=1 n=81 v=0
86640 On ch=1 n=78 v=80
86760 On ch=1 n=78 v=0
86760 On ch=1 n=71 v=75
86880 On ch=1 n=71 v=0
86880 On ch=1 n=75 v=91
87000 On ch=1 n=75 v=0
87000 On ch=1 n=69 v=76
87120 On ch=1 n=69 v=0
87120 On ch=1 n=66 v=80
87240 On ch=1 n=66 v=0
87240 On ch=1 n=59 v=74
87360 On ch=1 n=59 v=0
87360 On ch=1 n=63 v=91
87480 On ch=1 n=63 v=0
88800 On ch=1 n=64 v=91
88920 On ch=1 n=64 v=0
88920 On ch=1 n=59 v=76
89040 On ch=1 n=59 v=0
89040 On ch=1 n=64 v=80
89160 On ch=1 n=64 v=0
89160 On ch=1 n=68 v=77
89280 On ch=1 n=68 v=0
89280 On ch=1 n=76 v=91
89400 On ch=1 n=76 v=0
89400 On ch=1 n=71 v=76
89520 On ch=1 n=71 v=0
89520 On ch=1 n=76 v=80
89640 On ch=1 n=76 v=0
89640 On ch=1 n=80 v=76
89760 On ch=1 n=80 v=0
89760 On ch=1 n=88 v=91
89880 On ch=1 n=88 v=0
89880 On ch=1 n=83 v=75
90000 On ch=1 n=83 v=0
90000 On ch=1 n=88 v=80
90120 On ch=1 n=88 v=0
90120 On ch=1 n=92 v=75
90240 On ch=1 n=92 v=0
90240 On ch=1 n=100 v=91
90360 On ch=1 n=100 v=0
90360 On ch=1 n=92 v=77
90480 On ch=1 n=92 v=0
90480 On ch=1 n=88 v=79
90600 On ch=1 n=88 v=0
90600 On ch=1 n=83 v=74
90720 On ch=1 n=83 v=0
90720 On ch=1 n=88 v=88
90840 On ch=1 n=88 v=0
90840 On ch=1 n=80 v=72
90960 On ch=1 n=80 v=0
90960 On ch=1 n=76 v=76
91080 On ch=1 n=76 v=0
91080 On ch=1 n=71 v=69
91200 On ch=1 n=71 v=0
91200 On ch=1 n=76 v=85
91320 On ch=1 n=76 v=0
91320 On ch=1 n=68 v=69
91440 On ch=1 n=68 v=0
91440 On ch=1 n=64 v=72
91560 On ch=1 n=64 v=0
91560 On ch=1 n=59 v=67
91680 On ch=1 n=59 v=0
91680 On ch=1 n=65 v=80
91800 On ch=1 n=65 v=0
91800 On ch=1 n=59 v=65
91920 On ch=1 n=59 v=0
92640 On ch=1 n=64 v=72
92760 On ch=1 n=64 v=0
92760 On ch=1 n=60 v=63
92880 On ch=1 n=60 v=0
92880 On ch=1 n=67 v=68
93000 On ch=1 n=67 v=0
93000 On ch=1 n=72 v=65
93120 On ch=1 n=72 v=0
93120 On ch=1 n=76 v=76
93240 On ch=1 n=76 v=0
93240 On ch=1 n=72 v=64
93360 On ch=1 n=72 v=0
93360 On ch=1 n=79 v=70
93480 On ch=1 n=79 v=0
93480 On ch=1 n=84 v=64
93600 On ch=1 n=84 v=0
93600 On ch=1 n=88 v=77
93720 On ch=1 n=88 v=0
93720 On ch=1 n=84 v=65
93840 On ch=1 n=84 v=0
93840 On ch=1 n=91 v=70
93960 On ch=1 n=91 v=0
93960 On ch=1 n=96 v=65
94080 On ch=1 n=96 v=0
94080 On ch=1 n=100 v=77
94200 On ch=1 n=100 v=0
94200 On ch=1 n=96 v=66
94320 On ch=1 n=96 v=0
94320 On ch=1 n=91 v=71
94440 On ch=1 n=91 v=0
94440 On ch=1 n=84 v=68
94560 On ch=1 n=84 v=0
94560 On ch=1 n=88 v=77
94680 On ch=1 n=88 v=0
94680 On ch=1 n=84 v=66
94800 On ch=1 n=84 v=0
94800 On ch=1 n=79 v=70
94920 On ch=1 n=79 v=0
94920 On ch=1 n=72 v=65
95040 On ch=1 n=72 v=0
95040 On ch=1 n=76 v=76
95160 On ch=1 n=76 v=0
95160 On ch=1 n=72 v=65
95280 On ch=1 n=72 v=0
95280 On ch=1 n=67 v=69
95400 On ch=1 n=67 v=0
95400 On ch=1 n=60 v=63
95520 On ch=1 n=60 v=0
95520 On ch=1 n=64 v=75
95640 On ch=1 n=64 v=0
95640 On ch=1 n=60 v=63
95760 On ch=1 n=60 v=0
96480 On ch=1 n=65 v=78
96600 On ch=1 n=65 v=0
96600 On ch=1 n=60 v=64
96720 On ch=1 n=60 v=0
96720 On ch=1 n=69 v=69
96840 On ch=1 n=69 v=0
96840 On ch=1 n=72 v=67
96960 On ch=1 n=72 v=0
96960 On ch=1 n=77 v=82
97080 On ch=1 n=77 v=0
97080 On ch=1 n=72 v=68
97200 On ch=1 n=72 v=0
97200 On ch=1 n=81 v=73
97320 On ch=1 n=81 v=0
97320 On ch=1 n=84 v=69
97440 On ch=1 n=84 v=0
97440 On ch=1 n=89 v=83
97560 On ch=1 n=89 v=0
97560 On ch=1 n=84 v=69
97680 On ch=1 n=84 v=0
97680 On ch=1 n=93 v=74
97800 On ch=1 n=93 v=0
97800 On ch=1 n=96 v=70
97920 On ch=1 n=96 v=0
97920 On ch=1 n=100 v=88
98040 On ch=1 n=100 v=0
98040 On ch=1 n=96 v=70
98160 On ch=1 n=96 v=0
98160 On ch=1 n=93 v=77
98280 On ch=1 n=93 v=0
98280 On ch=1 n=84 v=71
98400 On ch=1 n=84 v=0
98400 On ch=1 n=88 v=89
98520 On ch=1 n=88 v=0
98520 On ch=1 n=84 v=72
98640 On ch=1 n=84 v=0
98640 On ch=1 n=81 v=79
98760 On ch=1 n=81 v=0
98760 On ch=1 n=72 v=73
98880 On ch=1 n=72 v=0
98880 On ch=1 n=76 v=89
99000 On ch=1 n=76 v=0
99000 On ch=1 n=72 v=73
99120 On ch=1 n=72 v=0
99120 On ch=1 n=69 v=78
99240 On ch=1 n=69 v=0
99240 On ch=1 n=60 v=72
99360 On ch=1 n=60 v=0
99360 On ch=1 n=62 v=90
99480 On ch=1 n=62 v=0
99480 On ch=1 n=60 v=72
99600 On ch=1 n=60 v=0
100320 On ch=1 n=62 v=91
100440 On ch=1 n=62 v=0
100440 On ch=1 n=59 v=75
100560 On ch=1 n=59 v=0
100560 On ch=1 n=67 v=80
100680 On ch=1 n=67 v=0
100680 On ch=1 n=71 v=76
100800 On ch=1 n=71 v=0
100800 On ch=1 n=74 v=93
100920 On ch=1 n=74 v=0
100920 On ch=1 n=71 v=76
101040 On ch=1 n=71 v=0
101040 On ch=1 n=79 v=82
101160 On ch=1 n=79 v=0
101160 On ch=1 n=83 v=76
101280 On ch=1 n=83 v=0
101280 On ch=1 n=86 v=94
101400 On ch=1 n=86 v=0
101400 On ch=1 n=83 v=76
101520 On ch=1 n=83 v=0
101520 On ch=1 n=91 v=83
101640 On ch=1 n=91 v=0
101640 On ch=1 n=93 v=76
101760 On ch=1 n=93 v=0
101760 On ch=1 n=98 v=96
101880 On ch=1 n=98 v=0
101880 On ch=1 n=93 v=77
102000 On ch=1 n=93 v=0
102000 On ch=1 n=90 v=84
102120 On ch=1 n=90 v=0
102120 On ch=1 n=84 v=76
102240 On ch=1 n=84 v=0
102240 On ch=1 n=86 v=95
102360 On ch=1 n=86 v=0
102360 On ch=1 n=81 v=76
102480 On ch=1 n=81 v=0
102480 On ch=1 n=78 v=83
102600 On ch=1 n=78 v=0
102600 On ch=1 n=72 v=77
102720 On ch=1 n=72 v=0
102720 On ch=1 n=74 v=93
102840 On ch=1 n=74 v=0
102840 On ch=1 n=69 v=77
102960 On ch=1 n=69 v=0
102960 On ch=1 n=66 v=81
103080 On ch=1 n=66 v=0
103080 On ch=1 n=60 v=76
103200 On ch=1 n=60 v=0
103200 On ch=1 n=62 v=91
103320 On ch=1 n=62 v=0
104160 On ch=1 n=62 v=91
104280 On ch=1 n=62 v=0
104280 On ch=1 n=60 v=74
104400 On ch=1 n=60 v=0
104400 On ch=1 n=65 v=80
104520 On ch=1 n=65 v=0
104520 On ch=1 n=68 v=76
104640 On ch=1 n=68 v=0
104640 On ch=1 n=74 v=93
104760 On ch=1 n=74 v=0
104760 On ch=1 n=72 v=76
104880 On ch=1 n=72 v=0
104880 On ch=1 n=77 v=82
105000 On ch=1 n=77 v=0
105000 On ch=1 n=80 v=77
105120 On ch=1 n=80 v=0
105120 On ch=1 n=86 v=94
105240 On ch=1 n=86 v=0
105240 On ch=1 n=84 v=78
105360 On ch=1 n=84 v=0
105360 On ch=1 n=89 v=83
105480 On ch=1 n=89 v=0
105480 On ch=1 n=92 v=76
105600 On ch=1 n=92 v=0
105600 On ch=1 n=98 v=95
105720 On ch=1 n=98 v=0
105720 On ch=1 n=91 v=78
105840 On ch=1 n=91 v=0
105840 On ch=1 n=89 v=84
105960 On ch=1 n=89 v=0
105960 On ch=1 n=83 v=77
106080 On ch=1 n=83 v=0
106080 On ch=1 n=86 v=94
106200 On ch=1 n=86 v=0
106200 On ch=1 n=79 v=78
106320 On ch=1 n=79 v=0
106320 On ch=1 n=77 v=83
106440 On ch=1 n=77 v=0
106440 On ch=1 n=71 v=77
106560 On ch=1 n=71 v=0
106560 On ch=1 n=74 v=92
106680 On ch=1 n=74 v=0
106680 On ch=1 n=67 v=77
106800 On ch=1 n=67 v=0
106800 On ch=1 n=65 v=81
106920 On ch=1 n=65 v=0
106920 On ch=1 n=59 v=75
107040 On ch=1 n=59 v=0
107040 On ch=1 n=63 v=91
107160 On ch=1 n=63 v=0
108000 On ch=1 n=64 v=92
108120 On ch=1 n=64 v=0
108120 On ch=1 n=60 v=75
108240 On ch=1 n=60 v=0
108240 On ch=1 n=67 v=80
108360 On ch=1 n=67 v=0
108360 On ch=1 n=72 v=76
108480 On ch=1 n=72 v=0
108480 On ch=1 n=76 v=93
108600 On ch=1 n=76 v=0
108600 On ch=1 n=72 v=76
108720 On ch=1 n=72 v=0
108720 On ch=1 n=79 v=82
108840 On ch=1 n=79 v=0
108840 On ch=1 n=84 v=76
108960 On ch=1 n=84 v=0
108960 On ch=1 n=88 v=94
109080 On ch=1 n=88 v=0
109080 On ch=1 n=84 v=78
109200 On ch=1 n=84 v=0
109200 On ch=1 n=91 v=83
109320 On ch=1 n=91 v=0
109320 On ch=1 n=96 v=78
109440 On ch=1 n=96 v=0
109440 On ch=1 n=100 v=96
109560 On ch=1 n=100 v=0
109560 On ch=1 n=96 v=77
109680 On ch=1 n=96 v=0
109680 On ch=1 n=91 v=84
109800 On ch=1 n=91 v=0
109800 On ch=1 n=84 v=77
109920 On ch=1 n=84 v=0
109920 On ch=1 n=88 v=95
110040 On ch=1 n=88 v=0
110040 On ch=1 n=84 v=76
110160 On ch=1 n=84 v=0
110160 On ch=1 n=79 v=83
110280 On ch=1 n=79 v=0
110280 On ch=1 n=72 v=76
110400 On ch=1 n=72 v=0
110400 On ch=1 n=76 v=94
110520 On ch=1 n=76 v=0
110520 On ch=1 n=72 v=77
110640 On ch=1 n=72 v=0
110640 On ch=1 n=67 v=81
110760 On ch=1 n=67 v=0
110760 On ch=1 n=60 v=77
110880 On ch=1 n=60 v=0
110880 On ch=1 n=64 v=92
111000 On ch=1 n=64 v=0
111000 On ch=1 n=60 v=76
111120 On ch=1 n=60 v=0
111840 On ch=1 n=65 v=85
111960 On ch=1 n=65 v=0
111960 On ch=1 n=60 v=75
112080 On ch=1 n=60 v=0
112080 On ch=1 n=65 v=80
112200 On ch=1 n=65 v=0
112200 On ch=1 n=72 v=76
112320 On ch=1 n=72 v=0
112320 On ch=1 n=77 v=88
112440 On ch=1 n=77 v=0
112440 On ch=1 n=72 v=76
112560 On ch=1 n=72 v=0
112560 On ch=1 n=77 v=82
112680 On ch=1 n=77 v=0
112680 On ch=1 n=84 v=77
112800 On ch=1 n=84 v=0
112800 On ch=1 n=89 v=90
112920 On ch=1 n=89 v=0
112920 On ch=1 n=84 v=78
113040 On ch=1 n=84 v=0
113040 On ch=1 n=89 v=83
113160 On ch=1 n=89 v=0
113160 On ch=1 n=96 v=78
113280 On ch=1 n=96 v=0
113280 On ch=1 n=100 v=92
113400 On ch=1 n=100 v=0
113400 On ch=1 n=96 v=78
113520 On ch=1 n=96 v=0
113520 On ch=1 n=90 v=84
113640 On ch=1 n=90 v=0
113640 On ch=1 n=84 v=78
113760 On ch=1 n=84 v=0
113760 On ch=1 n=88 v=91
113880 On ch=1 n=88 v=0
113880 On ch=1 n=84 v=79
114000 On ch=1 n=84 v=0
114000 On ch=1 n=78 v=83
114120 On ch=1 n=78 v=0
114120 On ch=1 n=72 v=76
114240 On ch=1 n=72 v=0
114240 On ch=1 n=75 v=90
114360 On ch=1 n=75 v=0
114360 On ch=1 n=72 v=78
114480 On ch=1 n=72 v=0
114480 On ch=1 n=66 v=81
114600 On ch=1 n=66 v=0
114600 On ch=1 n=60 v=75
114720 On ch=1 n=60 v=0
114720 On ch=1 n=63 v=86
114840 On ch=1 n=63 v=0
114840 On ch=1 n=60 v=74
114960 On ch=1 n=60 v=0
115680 On ch=1 n=62 v=78
115800 On ch=1 n=62 v=0
115800 On ch=1 n=60 v=71
115920 On ch=1 n=60 v=0
115920 On ch=1 n=67 v=76
116040 On ch=1 n=67 v=0
116040 On ch=1 n=72 v=73
116160 On ch=1 n=72 v=0
116160 On ch=1 n=74 v=83
116280 On ch=1 n=74 v=0
116280 On ch=1 n=72 v=74
116400 On ch=1 n=72 v=0
116400 On ch=1 n=79 v=76
116520 On ch=1 n=79 v=0
116520 On ch=1 n=84 v=72
116640 On ch=1 n=84 v=0
116640 On ch=1 n=86 v=85
116760 On ch=1 n=86 v=0
116760 On ch=1 n=84 v=75
116880 On ch=1 n=84 v=0
116880 On ch=1 n=91 v=77
117000 On ch=1 n=91 v=0
117000 On ch=1 n=96 v=71
117120 On ch=1 n=96 v=0
117120 On ch=1 n=98 v=87
117240 On ch=1 n=98 v=0
117240 On ch=1 n=95 v=73
117360 On ch=1 n=95 v=0
117360 On ch=1 n=91 v=78
117480 On ch=1 n=91 v=0
117480 On ch=1 n=83 v=73
117600 On ch=1 n=83 v=0
117600 On ch=1 n=86 v=83
117720 On ch=1 n=86 v=0
117720 On ch=1 n=83 v=73
117840 On ch=1 n=83 v=0
117840 On ch=1 n=79 v=76
117960 On ch=1 n=79 v=0
117960 On ch=1 n=71 v=71
118080 On ch=1 n=71 v=0
118080 On ch=1 n=74 v=82
118200 On ch=1 n=74 v=0
118200 On ch=1 n=71 v=70
118320 On ch=1 n=71 v=0
118320 On ch=1 n=67 v=74
118440 On ch=1 n=67 v=0
118440 On ch=1 n=59 v=70
118560 On ch=1 n=59 v=0
118560 On ch=1 n=62 v=80
118680 On ch=1 n=62 v=0
118680 On ch=1 n=59 v=68
118800 On ch=1 n=59 v=0
119520 On ch=1 n=62 v=75
119640 On ch=1 n=62 v=0
119640 On ch=1 n=60 v=68
119760 On ch=1 n=60 v=0
119760 On ch=1 n=69 v=73
119880 On ch=1 n=69 v=0
119880 On ch=1 n=72 v=69
120000 On ch=1 n=72 v=0
120000 On ch=1 n=74 v=77
120120 On ch=1 n=74 v=0
120120 On ch=1 n=72 v=70
120240 On ch=1 n=72 v=0
120240 On ch=1 n=81 v=73
120360 On ch=1 n=81 v=0
120360 On ch=1 n=84 v=72
120480 On ch=1 n=84 v=0
120480 On ch=1 n=86 v=81
120600 On ch=1 n=86 v=0
120600 On ch=1 n=84 v=72
120720 On ch=1 n=84 v=0
120720 On ch=1 n=93 v=74
120840 On ch=1 n=93 v=0
120840 On ch=1 n=96 v=69
120960 On ch=1 n=96 v=0
120960 On ch=1 n=99 v=82
121080 On ch=1 n=99 v=0
121080 On ch=1 n=96 v=70
121200 On ch=1 n=96 v=0
121200 On ch=1 n=93 v=75
121320 On ch=1 n=93 v=0
121320 On ch=1 n=84 v=69
121440 On ch=1 n=84 v=0
121440 On ch=1 n=87 v=81
121560 On ch=1 n=87 v=0
121560 On ch=1 n=84 v=70
121680 On ch=1 n=84 v=0
121680 On ch=1 n=81 v=74
121800 On ch=1 n=81 v=0
121800 On ch=1 n=72 v=70
121920 On ch=1 n=72 v=0
121920 On ch=1 n=75 v=79
122040 On ch=1 n=75 v=0
122040 On ch=1 n=71 v=70
122160 On ch=1 n=71 v=0
122160 On ch=1 n=69 v=71
122280 On ch=1 n=69 v=0
122280 On ch=1 n=59 v=67
122400 On ch=1 n=59 v=0
122400 On ch=1 n=63 v=78
122520 On ch=1 n=63 v=0
122520 On ch=1 n=59 v=67
122640 On ch=1 n=59 v=0
123360 On ch=1 n=64 v=74
123480 On ch=1 n=64 v=0
123480 On ch=1 n=59 v=66
123600 On ch=1 n=59 v=0
123600 On ch=1 n=68 v=70
123720 On ch=1 n=68 v=0
123720 On ch=1 n=71 v=66
123840 On ch=1 n=71 v=0
123840 On ch=1 n=76 v=78
123960 On ch=1 n=76 v=0
123960 On ch=1 n=71 v=66
124080 On ch=1 n=71 v=0
124080 On ch=1 n=80 v=71
124200 On ch=1 n=80 v=0
124200 On ch=1 n=83 v=67
124320 On ch=1 n=83 v=0
124320 On ch=1 n=88 v=80
124440 On ch=1 n=88 v=0
124440 On ch=1 n=83 v=68
124560 On ch=1 n=83 v=0
124560 On ch=1 n=92 v=71
124680 On ch=1 n=92 v=0
124680 On ch=1 n=95 v=68
124800 On ch=1 n=95 v=0
124800 On ch=1 n=100 v=81
124920 On ch=1 n=100 v=0
124920 On ch=1 n=95 v=69
125040 On ch=1 n=95 v=0
125040 On ch=1 n=92 v=71
125160 On ch=1 n=92 v=0
125160 On ch=1 n=83 v=65
125280 On ch=1 n=83 v=0
125280 On ch=1 n=88 v=79
125400 On ch=1 n=88 v=0
125400 On ch=1 n=83 v=66
125520 On ch=1 n=83 v=0
125520 On ch=1 n=80 v=69
125640 On ch=1 n=80 v=0
125640 On ch=1 n=71 v=62
125760 On ch=1 n=71 v=0
125760 On ch=1 n=76 v=75
125880 On ch=1 n=76 v=0
125880 On ch=1 n=71 v=62
126000 On ch=1 n=71 v=0
126000 On ch=1 n=68 v=65
126120 On ch=1 n=68 v=0
126120 On ch=1 n=59 v=60
126240 On ch=1 n=59 v=0
126240 On ch=1 n=64 v=70
126360 On ch=1 n=64 v=0
126360 On ch=1 n=59 v=59
126480 On ch=1 n=59 v=0
127200 On ch=1 n=65 v=62
127320 On ch=1 n=65 v=0
127320 On ch=1 n=62 v=50
127440 On ch=1 n=62 v=0
127440 On ch=1 n=69 v=54
127560 On ch=1 n=69 v=0
127560 On ch=1 n=72 v=52
127680 On ch=1 n=72 v=0
127680 On ch=1 n=77 v=63
127800 On ch=1 n=77 v=0
127800 On ch=1 n=74 v=51
127920 On ch=1 n=74 v=0
127920 On ch=1 n=81 v=55
128040 On ch=1 n=81 v=0
128040 On ch=1 n=84 v=52
128160 On ch=1 n=84 v=0
128160 On ch=1 n=89 v=63
128280 On ch=1 n=89 v=0
128280 On ch=1 n=86 v=53
128400 On ch=1 n=86 v=0
128400 On ch=1 n=93 v=56
128520 On ch=1 n=93 v=0
128520 On ch=1 n=96 v=53
128640 On ch=1 n=96 v=0
128640 On ch=1 n=101 v=64
128760 On ch=1 n=101 v=0
128760 On ch=1 n=95 v=53
128880 On ch=1 n=95 v=0
128880 On ch=1 n=91 v=57
129000 On ch=1 n=91 v=0
129000 On ch=1 n=86 v=52
129120 On ch=1 n=86 v=0
129120 On ch=1 n=89 v=63
129240 On ch=1 n=89 v=0
129240 On ch=1 n=83 v=50
129360 On ch=1 n=83 v=0
129360 On ch=1 n=79 v=56
129480 On ch=1 n=79 v=0
129480 On ch=1 n=74 v=51
129600 On ch=1 n=74 v=0
129600 On ch=1 n=77 v=62
129720 On ch=1 n=77 v=0
129720 On ch=1 n=71 v=52
129840 On ch=1 n=71 v=0
129840 On ch=1 n=67 v=55
129960 On ch=1 n=67 v=0
129960 On ch=1 n=62 v=52
130080 On ch=1 n=62 v=0
130080 On ch=1 n=65 v=62
130200 On ch=1 n=65 v=0
130200 On ch=1 n=59 v=50
130320 On ch=1 n=59 v=0
131040 On ch=1 n=64 v=63
131160 On ch=1 n=64 v=0
131160 On ch=1 n=60 v=53
131280 On ch=1 n=60 v=0
131280 On ch=1 n=67 v=57
131400 On ch=1 n=67 v=0
131400 On ch=1 n=72 v=52
131520 On ch=1 n=72 v=0
131520 On ch=1 n=76 v=65
131640 On ch=1 n=76 v=0
131640 On ch=1 n=72 v=52
131760 On ch=1 n=72 v=0
131760 On ch=1 n=82 v=58
131880 On ch=1 n=82 v=0
131880 On ch=1 n=84 v=53
132000 On ch=1 n=84 v=0
132000 On ch=1 n=91 v=70
132120 On ch=1 n=91 v=0
132120 On ch=1 n=84 v=61
132240 On ch=1 n=84 v=0
132240 On ch=1 n=82 v=63
132360 On ch=1 n=82 v=0
132360 On ch=1 n=76 v=63
132480 On ch=1 n=76 v=0
132480 On ch=1 n=90 v=70
132600 On ch=1 n=90 v=0
132600 On ch=1 n=84 v=61
132720 On ch=1 n=84 v=0
132720 On ch=1 n=81 v=63
132840 On ch=1 n=81 v=0
132840 On ch=1 n=75 v=61
132960 On ch=1 n=75 v=0
132960 On ch=1 n=78 v=68
133080 On ch=1 n=78 v=0
133080 On ch=1 n=72 v=62
133200 On ch=1 n=72 v=0
133200 On ch=1 n=69 v=63
133320 On ch=1 n=69 v=0
133320 On ch=1 n=63 v=61
133440 On ch=1 n=63 v=0
133440 On ch=1 n=77 v=68
133560 On ch=1 n=77 v=0
133560 On ch=1 n=71 v=60
133680 On ch=1 n=71 v=0
133680 On ch=1 n=68 v=60
133800 On ch=1 n=68 v=0
133800 On ch=1 n=62 v=58
133920 On ch=1 n=62 v=0
133920 On ch=1 n=65 v=70
134040 On ch=1 n=65 v=0
134040 On ch=1 n=59 v=61
134160 On ch=1 n=59 v=0
134880 On ch=1 n=64 v=71
135000 On ch=1 n=64 v=0
135000 On ch=1 n=60 v=65
135120 On ch=1 n=60 v=0
135120 On ch=1 n=67 v=69
135240 On ch=1 n=67 v=0
135240 On ch=1 n=72 v=65
135360 On ch=1 n=72 v=0
135360 On ch=1 n=79 v=75
135480 On ch=1 n=79 v=0
135480 On ch=1 n=76 v=67
135600 On ch=1 n=76 v=0
135600 On ch=1 n=79 v=73
135720 On ch=1 n=79 v=0
135720 On ch=1 n=84 v=68
135840 On ch=1 n=84 v=0
135840 On ch=1 n=88 v=80
135960 On ch=1 n=88 v=0
135960 On ch=1 n=84 v=72
136080 On ch=1 n=84 v=0
136080 On ch=1 n=79 v=77
136200 On ch=1 n=79 v=0
136200 On ch=1 n=72 v=73
136320 On ch=1 n=72 v=0
136320 On ch=1 n=87 v=86
136440 On ch=1 n=87 v=0
136440 On ch=1 n=81 v=75
136560 On ch=1 n=81 v=0
136560 On ch=1 n=78 v=79
136680 On ch=1 n=78 v=0
136680 On ch=1 n=72 v=73
136800 On ch=1 n=72 v=0
136800 On ch=1 n=75 v=84
136920 On ch=1 n=75 v=0
136920 On ch=1 n=69 v=70
137040 On ch=1 n=69 v=0
137040 On ch=1 n=66 v=76
137160 On ch=1 n=66 v=0
137160 On ch=1 n=60 v=71
137280 On ch=1 n=60 v=0
137280 On ch=1 n=74 v=80
137400 On ch=1 n=74 v=0
137400 On ch=1 n=68 v=70
137520 On ch=1 n=68 v=0
137520 On ch=1 n=65 v=72
137640 On ch=1 n=65 v=0
137640 On ch=1 n=59 v=68
137760 On ch=1 n=59 v=0
137760 On ch=1 n=62 v=80
137880 On ch=1 n=62 v=0
138960 On ch=1 n=64 v=69
139080 On ch=1 n=64 v=0
139080 On ch=1 n=67 v=64
139200 On ch=1 n=67 v=0
139200 On ch=1 n=73 v=75
139320 On ch=1 n=73 v=0
139320 On ch=1 n=70 v=66
139440 On ch=1 n=70 v=0
139440 On ch=1 n=76 v=73
139560 On ch=1 n=76 v=0
139560 On ch=1 n=79 v=69
139680 On ch=1 n=79 v=0
139680 On ch=1 n=85 v=80
139800 On ch=1 n=85 v=0
139800 On ch=1 n=82 v=71
139920 On ch=1 n=82 v=0
139920 On ch=1 n=88 v=77
140040 On ch=1 n=88 v=0
140040 On ch=1 n=91 v=73
140160 On ch=1 n=91 v=0
140160 On ch=1 n=97 v=84
140280 On ch=1 n=97 v=0
140280 On ch=1 n=90 v=75
140400 On ch=1 n=90 v=0
140400 On ch=1 n=87 v=79
140520 On ch=1 n=87 v=0
140520 On ch=1 n=81 v=72
140640 On ch=1 n=81 v=0
140640 On ch=1 n=85 v=82
140760 On ch=1 n=85 v=0
140760 On ch=1 n=78 v=71
140880 On ch=1 n=78 v=0
140880 On ch=1 n=75 v=76
141000 On ch=1 n=75 v=0
141000 On ch=1 n=69 v=69
141120 On ch=1 n=69 v=0
141120 On ch=1 n=73 v=81
141240 On ch=1 n=73 v=0
141240 On ch=1 n=66 v=68
141360 On ch=1 n=66 v=0
141360 On ch=1 n=63 v=72
141480 On ch=1 n=63 v=0
141480 On ch=1 n=57 v=68
141600 On ch=1 n=57 v=0
141600 On ch=1 n=72 v=78
141720 On ch=1 n=72 v=0
141720 On ch=1 n=66 v=65
141840 On ch=1 n=66 v=0
141840 On ch=1 n=63 v=69
141960 On ch=1 n=63 v=0
141960 On ch=1 n=57 v=64
142080 On ch=1 n=57 v=0
142200 On ch=1 n=56 v=68
142320 On ch=1 n=56 v=0
142320 On ch=1 n=62 v=64
142440 On ch=1 n=62 v=0
142440 On ch=1 n=65 v=69
142560 On ch=1 n=65 v=0
142560 On ch=1 n=72 v=76
142680 On ch=1 n=72 v=0
142680 On ch=1 n=68 v=68
142800 On ch=1 n=68 v=0
142800 On ch=1 n=74 v=72
142920 On ch=1 n=74 v=0
142920 On ch=1 n=77 v=69
143040 On ch=1 n=77 v=0
143040 On ch=1 n=84 v=78
143160 On ch=1 n=84 v=0
143160 On ch=1 n=80 v=71
143280 On ch=1 n=80 v=0
143280 On ch=1 n=86 v=75
143400 On ch=1 n=86 v=0
143400 On ch=1 n=89 v=72
143520 On ch=1 n=89 v=0
143520 On ch=1 n=96 v=81
143640 On ch=1 n=96 v=0
143640 On ch=1 n=89 v=74
143760 On ch=1 n=89 v=0
143760 On ch=1 n=86 v=78
143880 On ch=1 n=86 v=0
143880 On ch=1 n=80 v=74
144000 On ch=1 n=80 v=0
144000 On ch=1 n=95 v=86
144120 On ch=1 n=95 v=0
144120 On ch=1 n=89 v=74
144240 On ch=1 n=89 v=0
144240 On ch=1 n=86 v=79
144360 On ch=1 n=86 v=0
144360 On ch=1 n=79 v=74
144480 On ch=1 n=79 v=0
144480 On ch=1 n=83 v=81
144600 On ch=1 n=83 v=0
144600 On ch=1 n=77 v=73
144720 On ch=1 n=77 v=0
144720 On ch=1 n=74 v=76
144840 On ch=1 n=74 v=0
144840 On ch=1 n=67 v=71
144960 On ch=1 n=67 v=0
144960 On ch=1 n=71 v=77
145080 On ch=1 n=71 v=0
145080 On ch=1 n=65 v=69
145200 On ch=1 n=65 v=0
145200 On ch=1 n=62 v=73
145320 On ch=1 n=62 v=0
146640 On ch=1 n=64 v=72
146760 On ch=1 n=64 v=0
146760 On ch=1 n=67 v=68
146880 On ch=1 n=67 v=0
146880 On ch=1 n=72 v=83
147000 On ch=1 n=72 v=0
147000 On ch=1 n=67 v=70
147120 On ch=1 n=67 v=0
147120 On ch=1 n=76 v=75
147240 On ch=1 n=76 v=0
147240 On ch=1 n=79 v=72
147360 On ch=1 n=79 v=0
147360 On ch=1 n=84 v=87
147480 On ch=1 n=84 v=0
147480 On ch=1 n=79 v=72
147600 On ch=1 n=79 v=0
147600 On ch=1 n=88 v=78
147720 On ch=1 n=88 v=0
147720 On ch=1 n=91 v=75
147840 On ch=1 n=91 v=0
147840 On ch=1 n=96 v=91
147960 On ch=1 n=96 v=0
147960 On ch=1 n=91 v=75
148080 On ch=1 n=91 v=0
148080 On ch=1 n=88 v=80
148200 On ch=1 n=88 v=0
148200 On ch=1 n=79 v=75
148320 On ch=1 n=79 v=0
148320 On ch=1 n=84 v=91
148440 On ch=1 n=84 v=0
148440 On ch=1 n=79 v=73
148560 On ch=1 n=79 v=0
148560 On ch=1 n=76 v=78
148680 On ch=1 n=76 v=0
148680 On ch=1 n=67 v=74
148800 On ch=1 n=67 v=0
148800 On ch=1 n=72 v=89
148920 On ch=1 n=72 v=0
148920 On ch=1 n=67 v=77
149040 On ch=1 n=67 v=0
149040 On ch=1 n=64 v=71
149160 On ch=1 n=64 v=0
149160 Meta TrkEnd
TrkEnd
MTrk
0 Meta TrkName "Piano left"
0 PrCh ch=1 p=0
0 Par ch=1 c=7 v=100
0 Par ch=1 c=10 v=64
0 Par ch=1 c=64 v=127
0 On ch=1 n=36 v=86
0 On ch=1 n=48 v=103
115 On ch=1 n=48 v=0
120 On ch=1 n=48 v=77
240 On ch=1 n=55 v=80
360 On ch=1 n=55 v=0
360 On ch=1 n=60 v=77
480 On ch=1 n=60 v=0
3600 On ch=1 n=55 v=80
3720 On ch=1 n=55 v=0
3720 On ch=1 n=48 v=77
3840 On ch=1 n=48 v=0
3840 On ch=1 n=48 v=0
3840 On ch=1 n=36 v=0
3840 On ch=1 n=29 v=88
3840 On ch=1 n=41 v=104
3851 Par ch=1 c=64 v=0
3939 Par ch=1 c=64 v=127
3960 On ch=1 n=48 v=80
4080 On ch=1 n=48 v=0
4080 On ch=1 n=57 v=80
4200 On ch=1 n=57 v=0
4200 On ch=1 n=60 v=77
4320 On ch=1 n=60 v=0
5760 On ch=1 n=41 v=0
5760 On ch=1 n=29 v=0
5760 On ch=1 n=30 v=85
5760 On ch=1 n=42 v=101
5765 Par ch=1 c=64 v=0
5880 Par ch=1 c=64 v=127
7440 On ch=1 n=57 v=80
7560 On ch=1 n=57 v=0
7560 On ch=1 n=48 v=77
7680 On ch=1 n=48 v=0
7680 On ch=1 n=42 v=0
7680 On ch=1 n=30 v=0
7680 On ch=1 n=31 v=85
7680 On ch=1 n=43 v=101
7692 Par ch=1 c=64 v=0
7772 Par ch=1 c=64 v=127
7800 On ch=1 n=47 v=80
7920 On ch=1 n=47 v=0
7920 On ch=1 n=55 v=77
8040 On ch=1 n=55 v=0
8040 On ch=1 n=59 v=80
8160 On ch=1 n=59 v=0
8640 On ch=1 n=43 v=0
8640 On ch=1 n=31 v=0
8640 On ch=1 n=30 v=86
8640 On ch=1 n=42 v=102
9120 On ch=1 n=42 v=0
9120 On ch=1 n=30 v=0
9120 On ch=1 n=28 v=82
9120 On ch=1 n=40 v=97
9600 On ch=1 n=40 v=0
9600 On ch=1 n=28 v=0
9600 On ch=1 n=26 v=86
9600 On ch=1 n=38 v=102
9610 Par ch=1 c=64 v=0
9703 Par ch=1 c=64 v=127
11160 On ch=1 n=57 v=80
11280 On ch=1 n=57 v=0
11280 On ch=1 n=54 v=80
11400 On ch=1 n=54 v=0
11400 On ch=1 n=48 v=80
11520 On ch=1 n=48 v=0
11520 On ch=1 n=38 v=0
11520 On ch=1 n=26 v=0
11520 On ch=1 n=31 v=85
11520 On ch=1 n=43 v=101
11532 Par ch=1 c=64 v=0
11601 Par ch=1 c=64 v=127
11640 On ch=1 n=48 v=77
11760 On ch=1 n=48 v=0
11760 On ch=1 n=53 v=80
11880 On ch=1 n=53 v=0
11880 On ch=1 n=56 v=77
12000 On ch=1 n=56 v=0
13449 Par ch=1 c=64 v=0
13520 Par ch=1 c=64 v=127
15000 On ch=1 n=55 v=77
15120 On ch=1 n=55 v=0
15120 On ch=1 n=53 v=80
15240 On ch=1 n=53 v=0
15240 On ch=1 n=47 v=77
15360 On ch=1 n=47 v=0
15360 On ch=1 n=43 v=0
15360 On ch=1 n=31 v=0
15360 On ch=1 n=36 v=85
15360 On ch=1 n=48 v=101
15373 Par ch=1 c=64 v=0
15463 Par ch=1 c=64 v=127
15475 On ch=1 n=48 v=0
15480 On ch=1 n=48 v=76
15600 On ch=1 n=55 v=80
15720 On ch=1 n=55 v=0
15720 On ch=1 n=60 v=76
15840 On ch=1 n=60 v=0
18960 On ch=1 n=55 v=80
19080 On ch=1 n=55 v=0
19080 On ch=1 n=48 v=77
19200 On ch=1 n=48 v=0
19200 On ch=1 n=48 v=0
19200 On ch=1 n=36 v=0
19200 On ch=1 n=33 v=86
19200 On ch=1 n=45 v=103
19210 Par ch=1 c=64 v=0
19306 Par ch=1 c=64 v=127
19320 On ch=1 n=48 v=77
19440 On ch=1 n=48 v=0
19440 On ch=1 n=53 v=80
19560 On ch=1 n=53 v=0
19560 On ch=1 n=60 v=77
19680 On ch=1 n=60 v=0
21132 Par ch=1 c=64 v=0
21200 Par ch=1 c=64 v=127
22800 On ch=1 n=54 v=80
22920 On ch=1 n=54 v=0
22920 On ch=1 n=48 v=77
23040 On ch=1 n=48 v=0
23040 On ch=1 n=45 v=0
23040 On ch=1 n=33 v=0
23040 On ch=1 n=31 v=81
23040 On ch=1 n=43 v=96
23050 Par ch=1 c=64 v=0
23160 On ch=1 n=48 v=73
23167 Par ch=1 c=64 v=127
23280 On ch=1 n=48 v=0
23280 On ch=1 n=55 v=76
23400 On ch=1 n=55 v=0
23400 On ch=1 n=60 v=74
23520 On ch=1 n=60 v=0
24966 Par ch=1 c=64 v=0
25059 Par ch=1 c=64 v=127
26640 On ch=1 n=55 v=76
26760 On ch=1 n=55 v=0
26760 On ch=1 n=47 v=71
26880 On ch=1 n=47 v=0
26880 On ch=1 n=43 v=0
26880 On ch=1 n=31 v=0
26880 On ch=1 n=36 v=81
26880 On ch=1 n=48 v=96
26890 Par ch=1 c=64 v=0
26965 Par ch=1 c=64 v=127
27000 On ch=1 n=50 v=76
27120 On ch=1 n=50 v=0
27120 On ch=1 n=55 v=73
27240 On ch=1 n=55 v=0
27240 On ch=1 n=62 v=76
27360 On ch=1 n=62 v=0
28812 Par ch=1 c=64 v=0
28913 Par ch=1 c=64 v=127
30480 On ch=1 n=55 v=67
30600 On ch=1 n=55 v=0
30600 On ch=1 n=48 v=60
30720 On ch=1 n=48 v=0
30720 On ch=1 n=48 v=0
30720 On ch=1 n=36 v=0
30720 On ch=1 n=33 v=58
30720 On ch=1 n=45 v=69
30730 Par ch=1 c=64 v=0
30805 Par ch=1 c=64 v=127
30840 On ch=1 n=52 v=50
30960 On ch=1 n=52 v=0
30960 On ch=1 n=60 v=54
31080 On ch=1 n=60 v=0
32640 On ch=1 n=45 v=0
32640 On ch=1 n=33 v=0
32640 On ch=1 n=35 v=58
32640 On ch=1 n=47 v=69
32643 Par ch=1 c=64 v=0
32753 Par ch=1 c=64 v=127
33600 On ch=1 n=47 v=0
33600 On ch=1 n=35 v=0
33600 On ch=1 n=33 v=58
33600 On ch=1 n=45 v=69
34440 On ch=1 n=50 v=51
34560 On ch=1 n=50 v=0
34560 On ch=1 n=45 v=0
34560 On ch=1 n=33 v=0
34560 On ch=1 n=32 v=58
34560 On ch=1 n=44 v=69
34570 Par ch=1 c=64 v=0
34680 On ch=1 n=50 v=51
34701 Par ch=1 c=64 v=127
34800 On ch=1 n=50 v=0
34800 On ch=1 n=59 v=54
34920 On ch=1 n=59 v=0
34920 On ch=1 n=62 v=51
35040 On ch=1 n=62 v=0
36480 On ch=1 n=44 v=0
36480 On ch=1 n=32 v=0
36480 On ch=1 n=33 v=60
36480 On ch=1 n=45 v=72
36490 Par ch=1 c=64 v=0
36558 Par ch=1 c=64 v=127
37440 On ch=1 n=45 v=0
37440 On ch=1 n=33 v=0
37440 On ch=1 n=31 v=67
37440 On ch=1 n=43 v=79
38160 On ch=1 n=57 v=69
38280 On ch=1 n=57 v=0
38280 On ch=1 n=48 v=64
38400 On ch=1 n=48 v=0
38400 On ch=1 n=43 v=0
38400 On ch=1 n=31 v=0
38400 On ch=1 n=29 v=76
38400 On ch=1 n=41 v=90
38410 Par ch=1 c=64 v=0
38513 Par ch=1 c=64 v=127
38520 On ch=1 n=48 v=65
38640 On ch=1 n=48 v=0
38640 On ch=1 n=57 v=72
38760 On ch=1 n=57 v=0
38760 On ch=1 n=60 v=66
38880 On ch=1 n=60 v=0
40329 Par ch=1 c=64 v=0
40417 Par ch=1 c=64 v=127
41880 On ch=1 n=59 v=57
42000 On ch=1 n=59 v=0
42000 On ch=1 n=57 v=56
42120 On ch=1 n=57 v=0
42120 On ch=1 n=47 v=52
42240 On ch=1 n=47 v=0
42240 On ch=1 n=41 v=0
42240 On ch=1 n=29 v=0
42240 On ch=1 n=28 v=57
42240 On ch=1 n=40 v=68
42250 Par ch=1 c=64 v=0
42353 Par ch=1 c=64 v=127
42360 On ch=1 n=47 v=50
42480 On ch=1 n=47 v=0
42480 On ch=1 n=57 v=54
42600 On ch=1 n=57 v=0
42600 On ch=1 n=59 v=50
42720 On ch=1 n=59 v=0
44167 Par ch=1 c=64 v=0
44257 Par ch=1 c=64 v=127
45840 On ch=1 n=56 v=54
45960 On ch=1 n=56 v=0
45960 On ch=1 n=47 v=49
46080 On ch=1 n=47 v=0
46080 On ch=1 n=40 v=0
46080 On ch=1 n=28 v=0
46080 On ch=1 n=33 v=57
46080 On ch=1 n=45 v=68
46090 Par ch=1 c=64 v=0
46160 Par ch=1 c=64 v=127
46200 On ch=1 n=52 v=50
46320 On ch=1 n=52 v=0
46320 On ch=1 n=57 v=54
46440 On ch=1 n=57 v=0
46440 On ch=1 n=61 v=50
46560 On ch=1 n=61 v=0
48000 On ch=1 n=45 v=0
48000 On ch=1 n=33 v=0
48000 On ch=1 n=38 v=58
48000 On ch=1 n=50 v=69
48009 Par ch=1 c=64 v=0
48052 Par ch=1 c=64 v=127
49200 On ch=1 n=57 v=57
49320 On ch=1 n=57 v=0
49320 On ch=1 n=52 v=53
49440 On ch=1 n=52 v=0
49680 On ch=1 n=57 v=56
49800 On ch=1 n=57 v=0
49800 On ch=1 n=50 v=52
49920 On ch=1 n=50 v=0
49920 On ch=1 n=50 v=0
49920 On ch=1 n=38 v=0
49920 On ch=1 n=31 v=67
49920 On ch=1 n=43 v=80
49930 Par ch=1 c=64 v=0
50040 On ch=1 n=50 v=59
50068 Par ch=1 c=64 v=127
50160 On ch=1 n=50 v=0
50160 On ch=1 n=55 v=64
50280 On ch=1 n=55 v=0
50280 On ch=1 n=60 v=60
50400 On ch=1 n=60 v=0
51847 Par ch=1 c=64 v=0
51967 Par ch=1 c=64 v=127
53400 On ch=1 n=59 v=62
53520 On ch=1 n=59 v=0
53520 On ch=1 n=55 v=67
53640 On ch=1 n=55 v=0
53640 On ch=1 n=50 v=64
53760 On ch=1 n=50 v=0
53760 On ch=1 n=43 v=0
53760 On ch=1 n=31 v=0
53760 On ch=1 n=36 v=80
53760 On ch=1 n=48 v=95
53770 Par ch=1 c=64 v=0
53863 Par ch=1 c=64 v=127
53875 On ch=1 n=48 v=0
53880 On ch=1 n=48 v=71
54000 On ch=1 n=55 v=76
54120 On ch=1 n=55 v=0
54120 On ch=1 n=58 v=72
54240 On ch=1 n=58 v=0
55680 On ch=1 n=48 v=0
55680 On ch=1 n=36 v=0
55680 On ch=1 n=30 v=81
55680 On ch=1 n=42 v=96
55687 Par ch=1 c=64 v=0
55800 Par ch=1 c=64 v=127
57360 On ch=1 n=51 v=76
57480 On ch=1 n=51 v=0
57480 On ch=1 n=48 v=72
57600 On ch=1 n=48 v=0
57600 On ch=1 n=42 v=0
57600 On ch=1 n=30 v=0
57600 On ch=1 n=29 v=81
57600 On ch=1 n=41 v=97
57610 Par ch=1 c=64 v=0
57697 Par ch=1 c=64 v=127
57720 On ch=1 n=48 v=72
57840 On ch=1 n=48 v=0
57840 On ch=1 n=51 v=76
57960 On ch=1 n=51 v=0
57960 On ch=1 n=57 v=73
58080 On ch=1 n=57 v=0
59520 On ch=1 n=41 v=0
59520 On ch=1 n=29 v=0
59520 On ch=1 n=35 v=85
59520 On ch=1 n=47 v=100
59524 Par ch=1 c=64 v=0
59600 Par ch=1 c=64 v=127
61080 On ch=1 n=56 v=65
61200 On ch=1 n=56 v=0
61200 On ch=1 n=51 v=69
61320 On ch=1 n=51 v=0
61320 On ch=1 n=47 v=66
61440 On ch=1 n=47 v=0
61440 On ch=1 n=47 v=0
61440 On ch=1 n=35 v=0
61440 On ch=1 n=34 v=84
61450 Par ch=1 c=64 v=0
61537 Par ch=1 c=64 v=127
61560 On ch=1 n=46 v=66
61680 On ch=1 n=46 v=0
61680 On ch=1 n=53 v=70
61800 On ch=1 n=53 v=0
61800 On ch=1 n=56 v=67
61920 On ch=1 n=56 v=0
63360 On ch=1 n=46 v=87
63366 Par ch=1 c=64 v=0
63452 Par ch=1 c=64 v=127
64920 On ch=1 n=56 v=71
65040 On ch=1 n=56 v=0
65040 On ch=1 n=52 v=76
65160 On ch=1 n=52 v=0
65160 On ch=1 n=46 v=72
65280 On ch=1 n=46 v=0
65280 On ch=1 n=46 v=0
65280 On ch=1 n=34 v=0
65280 On ch=1 n=33 v=78
65280 On ch=1 n=45 v=94
65290 Par ch=1 c=64 v=0
65377 Par ch=1 c=64 v=127
65395 On ch=1 n=45 v=0
65400 On ch=1 n=45 v=72
65520 On ch=1 n=52 v=76
65640 On ch=1 n=52 v=0
65640 On ch=1 n=57 v=72
65760 On ch=1 n=57 v=0
68760 On ch=1 n=57 v=68
68880 On ch=1 n=57 v=0
68880 On ch=1 n=52 v=72
69000 On ch=1 n=52 v=0
69000 On ch=1 n=45 v=68
69120 On ch=1 n=45 v=0
69120 On ch=1 n=45 v=0
69120 On ch=1 n=33 v=0
69120 On ch=1 n=38 v=90
69130 Par ch=1 c=64 v=0
69200 Par ch=1 c=64 v=127
69240 On ch=1 n=45 v=69
69360 On ch=1 n=45 v=0
69360 On ch=1 n=50 v=72
69480 On ch=1 n=50 v=0
69480 On ch=1 n=54 v=69
69600 On ch=1 n=54 v=0
71040 On ch=1 n=38 v=0
71040 On ch=1 n=31 v=75
71040 On ch=1 n=43 v=84
71046 Par ch=1 c=64 v=0
71146 Par ch=1 c=64 v=127
72360 On ch=1 n=55 v=62
72480 On ch=1 n=55 v=0
72480 On ch=1 n=59 v=76
72600 On ch=1 n=59 v=0
72600 On ch=1 n=53 v=64
72720 On ch=1 n=53 v=0
72720 On ch=1 n=50 v=61
72840 On ch=1 n=50 v=0
72840 On ch=1 n=43 v=64
72960 On ch=1 n=43 v=0
72960 On ch=1 n=43 v=0
72960 On ch=1 n=31 v=0
72960 On ch=1 n=36 v=79
72970 Par ch=1 c=64 v=0
73055 Par ch=1 c=64 v=127
73080 On ch=1 n=43 v=64
73200 On ch=1 n=43 v=0
73200 On ch=1 n=48 v=61
73320 On ch=1 n=48 v=0
73320 On ch=1 n=52 v=64
73440 On ch=1 n=52 v=0
73440 On ch=1 n=59 v=74
73560 On ch=1 n=59 v=0
73560 On ch=1 n=55 v=61
73680 On ch=1 n=55 v=0
74880 On ch=1 n=36 v=0
74880 On ch=1 n=29 v=66
74880 On ch=1 n=41 v=78
74889 Par ch=1 c=64 v=0
74972 Par ch=1 c=64 v=127
76200 On ch=1 n=53 v=62
76320 On ch=1 n=53 v=0
76320 On ch=1 n=57 v=74
76440 On ch=1 n=57 v=0
76440 On ch=1 n=52 v=60
76560 On ch=1 n=52 v=0
76560 On ch=1 n=48 v=64
76680 On ch=1 n=48 v=0
76680 On ch=1 n=41 v=61
76800 On ch=1 n=41 v=0
76800 On ch=1 n=41 v=0
76800 On ch=1 n=29 v=0
76800 On ch=1 n=35 v=84
76810 Par ch=1 c=64 v=0
76864 Par ch=1 c=64 v=127
76920 On ch=1 n=41 v=65
77040 On ch=1 n=41 v=0
77040 On ch=1 n=47 v=68
77160 On ch=1 n=47 v=0
77160 On ch=1 n=50 v=64
77280 On ch=1 n=50 v=0
77280 On ch=1 n=57 v=77
77400 On ch=1 n=57 v=0
77400 On ch=1 n=53 v=63
77520 On ch=1 n=53 v=0
77520 On ch=1 n=59 v=68
77640 On ch=1 n=59 v=0
78720 On ch=1 n=35 v=0
78720 On ch=1 n=28 v=72
78720 On ch=1 n=40 v=85
78723 Par ch=1 c=64 v=0
78819 Par ch=1 c=64 v=127
79680 On ch=1 n=40 v=0
79680 On ch=1 n=28 v=0
79680 On ch=1 n=33 v=72
79680 On ch=1 n=45 v=85
79693 Par ch=1 c=64 v=0
79814 Par ch=1 c=64 v=127
80640 On ch=1 n=45 v=0
80640 On ch=1 n=33 v=0
80640 On ch=1 n=26 v=74
80640 On ch=1 n=38 v=88
80650 Par ch=1 c=64 v=0
80746 Par ch=1 c=64 v=127
81600 On ch=1 n=38 v=0
81600 On ch=1 n=26 v=0
81600 On ch=1 n=31 v=74
81600 On ch=1 n=43 v=88
81609 Par ch=1 c=64 v=0
81685 Par ch=1 c=64 v=127
82560 On ch=1 n=43 v=0
82560 On ch=1 n=31 v=0
82560 On ch=1 n=24 v=80
82560 On ch=1 n=36 v=94
82570 Par ch=1 c=64 v=0
82673 Par ch=1 c=64 v=127
83520 On ch=1 n=36 v=0
83520 On ch=1 n=24 v=0
83520 On ch=1 n=29 v=82
83520 On ch=1 n=41 v=97
83530 Par ch=1 c=64 v=0
83619 Par ch=1 c=64 v=127
84480 On ch=1 n=41 v=0
84480 On ch=1 n=29 v=0
84480 On ch=1 n=35 v=85
84480 On ch=1 n=47 v=101
84487 Par ch=1 c=64 v=0
84558 Par ch=1 c=64 v=127
85560 On ch=1 n=57 v=75
85680 On ch=1 n=57 v=0
85680 On ch=1 n=53 v=80
85800 On ch=1 n=53 v=0
85800 On ch=1 n=47 v=75
85920 On ch=1 n=47 v=0
85920 On ch=1 n=47 v=0
85920 On ch=1 n=35 v=0
85920 On ch=1 n=35 v=102
86400 On ch=1 n=47 v=100
86410 Par ch=1 c=64 v=0
86463 Par ch=1 c=64 v=127
87480 On ch=1 n=57 v=75
87600 On ch=1 n=57 v=0
87600 On ch=1 n=54 v=80
87720 On ch=1 n=54 v=0
87720 On ch=1 n=47 v=76
87840 On ch=1 n=47 v=0
87840 On ch=1 n=47 v=0
87840 On ch=1 n=35 v=0
87840 On ch=1 n=35 v=93
88320 On ch=1 n=35 v=0
88320 On ch=1 n=28 v=84
88320 On ch=1 n=40 v=100
88330 Par ch=1 c=64 v=0
88395 Par ch=1 c=64 v=127
88440 On ch=1 n=47 v=76
88560 On ch=1 n=47 v=0
88560 On ch=1 n=52 v=80
88680 On ch=1 n=52 v=0
88680 On ch=1 n=56 v=76
88800 On ch=1 n=56 v=0
91680 On ch=1 n=40 v=0
91680 On ch=1 n=28 v=0
91680 On ch=1 n=26 v=74
91680 On ch=1 n=38 v=88
91692 Par ch=1 c=64 v=0
91737 Par ch=1 c=64 v=127
91920 On ch=1 n=55 v=69
92040 On ch=1 n=55 v=0
92040 On ch=1 n=50 v=64
92160 On ch=1 n=50 v=0
92160 On ch=1 n=38 v=0
92160 On ch=1 n=26 v=0
92160 On ch=1 n=24 v=72
92160 On ch=1 n=36 v=85
92170 Par ch=1 c=64 v=0
92252 Par ch=1 c=64 v=127
92280 On ch=1 n=48 v=64
92400 On ch=1 n=48 v=0
92400 On ch=1 n=55 v=68
92520 On ch=1 n=55 v=0
92520 On ch=1 n=60 v=63
92640 On ch=1 n=60 v=0
94080 On ch=1 n=24 v=0
94080 On ch=1 n=48 v=78
95760 On ch=1 n=55 v=68
95880 On ch=1 n=55 v=0
95880 On ch=1 n=48 v=63
96000 On ch=1 n=48 v=0
96000 On ch=1 n=48 v=0
96000 On ch=1 n=36 v=0
96000 On ch=1 n=29 v=72
96000 On ch=1 n=41 v=85
96010 Par ch=1 c=64 v=0
96099 Par ch=1 c=64 v=127
96120 On ch=1 n=48 v=64
96240 On ch=1 n=48 v=0
96240 On ch=1 n=57 v=68
96360 On ch=1 n=57 v=0
96360 On ch=1 n=60 v=64
96480 On ch=1 n=60 v=0
97920 On ch=1 n=41 v=0
97920 On ch=1 n=29 v=0
97920 On ch=1 n=30 v=77
97920 On ch=1 n=42 v=91
97930 Par ch=1 c=64 v=0
98005 Par ch=1 c=64 v=127
99600 On ch=1 n=57 v=79
99720 On ch=1 n=57 v=0
99720 On ch=1 n=48 v=71
99840 On ch=1 n=48 v=0
99840 On ch=1 n=42 v=0
99840 On ch=1 n=30 v=0
99840 On ch=1 n=31 v=85
99840 On ch=1 n=43 v=101
99850 Par ch=1 c=64 v=0
99904 Par ch=1 c=64 v=127
99960 On ch=1 n=47 v=75
100080 On ch=1 n=47 v=0
100080 On ch=1 n=55 v=80
100200 On ch=1 n=55 v=0
100200 On ch=1 n=59 v=75
100320 On ch=1 n=59 v=0
100800 On ch=1 n=43 v=0
100800 On ch=1 n=31 v=0
100800 On ch=1 n=30 v=86
100800 On ch=1 n=42 v=102
101280 On ch=1 n=42 v=0
101280 On ch=1 n=30 v=0
101280 On ch=1 n=28 v=86
101280 On ch=1 n=40 v=103
101760 On ch=1 n=40 v=0
101760 On ch=1 n=28 v=0
101760 On ch=1 n=26 v=85
101760 On ch=1 n=38 v=101
101763 Par ch=1 c=64 v=0
101857 Par ch=1 c=64 v=127
103320 On ch=1 n=57 v=75
103440 On ch=1 n=57 v=0
103440 On ch=1 n=54 v=80
103560 On ch=1 n=54 v=0
103560 On ch=1 n=48 v=74
103680 On ch=1 n=48 v=0
103680 On ch=1 n=38 v=0
103680 On ch=1 n=26 v=0
103680 On ch=1 n=31 v=86
103680 On ch=1 n=43 v=102
103690 Par ch=1 c=64 v=0
103755 Par ch=1 c=64 v=127
103800 On ch=1 n=48 v=75
103920 On ch=1 n=48 v=0
103920 On ch=1 n=53 v=80
104040 On ch=1 n=53 v=0
104040 On ch=1 n=56 v=74
104160 On ch=1 n=56 v=0
105606 Par ch=1 c=64 v=0
105675 Par ch=1 c=64 v=127
107160 On ch=1 n=55 v=74
107280 On ch=1 n=55 v=0
107280 On ch=1 n=53 v=80
107400 On ch=1 n=53 v=0
107400 On ch=1 n=47 v=75
107520 On ch=1 n=47 v=0
107520 On ch=1 n=43 v=0
107520 On ch=1 n=31 v=0
107520 On ch=1 n=36 v=79
107520 On ch=1 n=48 v=95
107530 Par ch=1 c=64 v=0
107612 Par ch=1 c=64 v=127
107635 On ch=1 n=48 v=0
107640 On ch=1 n=48 v=75
107760 On ch=1 n=55 v=80
107880 On ch=1 n=55 v=0
107880 On ch=1 n=60 v=75
108000 On ch=1 n=60 v=0
111120 On ch=1 n=55 v=80
111240 On ch=1 n=55 v=0
111240 On ch=1 n=48 v=74
111360 On ch=1 n=48 v=0
111360 On ch=1 n=48 v=0
111360 On ch=1 n=36 v=0
111360 On ch=1 n=33 v=84
111360 On ch=1 n=45 v=100
111370 Par ch=1 c=64 v=0
111473 Par ch=1 c=64 v=127
111480 On ch=1 n=48 v=75
111600 On ch=1 n=48 v=0
111600 On ch=1 n=53 v=80
111720 On ch=1 n=53 v=0
111720 On ch=1 n=60 v=75
111840 On ch=1 n=60 v=0
113285 Par ch=1 c=64 v=0
113372 Par ch=1 c=64 v=127
114246 Par ch=1 c=64 v=0
114313 Par ch=1 c=64 v=127
114720 On ch=1 n=45 v=0
114720 On ch=1 n=33 v=0
114720 On ch=1 n=32 v=85
114720 On ch=1 n=44 v=101
114960 On ch=1 n=54 v=80
115080 On ch=1 n=54 v=0
115080 On ch=1 n=48 v=73
115200 On ch=1 n=48 v=0
115200 On ch=1 n=44 v=0
115200 On ch=1 n=32 v=0
115200 On ch=1 n=31 v=80
115200 On ch=1 n=43 v=95
115210 Par ch=1 c=64 v=0
115313 Par ch=1 c=64 v=127
115320 On ch=1 n=48 v=70
115440 On ch=1 n=48 v=0
115440 On ch=1 n=55 v=76
115560 On ch=1 n=55 v=0
115560 On ch=1 n=60 v=71
115680 On ch=1 n=60 v=0
117126 Par ch=1 c=64 v=0
117212 Par ch=1 c=64 v=127
118800 On ch=1 n=55 v=73
118920 On ch=1 n=55 v=0
118920 On ch=1 n=47 v=68
119040 On ch=1 n=47 v=0
119040 On ch=1 n=43 v=0
119040 On ch=1 n=31 v=0
119040 On ch=1 n=30 v=77
119040 On ch=1 n=42 v=92
119050 Par ch=1 c=64 v=0
119112 Par ch=1 c=64 v=127
119160 On ch=1 n=48 v=69
119280 On ch=1 n=48 v=0
119280 On ch=1 n=57 v=73
119400 On ch=1 n=57 v=0
119400 On ch=1 n=60 v=69
119520 On ch=1 n=60 v=0
120960 On ch=1 n=42 v=0
120960 On ch=1 n=30 v=0
120960 On ch=1 n=29 v=75
120960 On ch=1 n=41 v=90
120965 Par ch=1 c=64 v=0
121046 Par ch=1 c=64 v=127
121924 Par ch=1 c=64 v=0
121992 Par ch=1 c=64 v=127
122640 On ch=1 n=57 v=71
122760 On ch=1 n=57 v=0
122760 On ch=1 n=47 v=66
122880 On ch=1 n=47 v=0
122880 On ch=1 n=41 v=0
122880 On ch=1 n=29 v=0
122880 On ch=1 n=28 v=76
122880 On ch=1 n=40 v=90
122890 Par ch=1 c=64 v=0
122949 Par ch=1 c=64 v=127
123000 On ch=1 n=47 v=66
123120 On ch=1 n=47 v=0
123120 On ch=1 n=56 v=71
123240 On ch=1 n=56 v=0
123240 On ch=1 n=59 v=66
123360 On ch=1 n=59 v=0
124800 On ch=1 n=28 v=0
124800 On ch=1 n=52 v=88
126480 On ch=1 n=56 v=62
126600 On ch=1 n=56 v=0
126600 On ch=1 n=47 v=55
126720 On ch=1 n=47 v=0
126720 On ch=1 n=52 v=0
126720 On ch=1 n=40 v=0
126720 On ch=1 n=38 v=65
126730 Par ch=1 c=64 v=0
126819 Par ch=1 c=64 v=127
126840 On ch=1 n=50 v=50
126960 On ch=1 n=50 v=0
126960 On ch=1 n=57 v=54
127080 On ch=1 n=57 v=0
127080 On ch=1 n=60 v=49
127200 On ch=1 n=60 v=0
128640 On ch=1 n=38 v=0
128640 On ch=1 n=31 v=56
128640 On ch=1 n=43 v=67
128646 Par ch=1 c=64 v=0
128746 Par ch=1 c=64 v=127
130320 On ch=1 n=55 v=54
130440 On ch=1 n=55 v=0
130440 On ch=1 n=50 v=50
130560 On ch=1 n=50 v=0
130560 On ch=1 n=43 v=0
130560 On ch=1 n=31 v=0
130560 On ch=1 n=36 v=70
130570 Par ch=1 c=64 v=0
130652 Par ch=1 c=64 v=127
130680 On ch=1 n=48 v=52
130800 On ch=1 n=48 v=0
130800 On ch=1 n=55 v=56
130920 On ch=1 n=55 v=0
130920 On ch=1 n=60 v=51
131040 On ch=1 n=60 v=0
132480 On ch=1 n=48 v=75
132485 Par ch=1 c=64 v=0
132583 Par ch=1 c=64 v=127
133450 Par ch=1 c=64 v=0
133526 Par ch=1 c=64 v=127
134160 On ch=1 n=56 v=61
134280 On ch=1 n=56 v=0
134280 On ch=1 n=50 v=57
134400 On ch=1 n=50 v=0
134400 On ch=1 n=48 v=0
134400 On ch=1 n=36 v=0
134400 On ch=1 n=36 v=79
134410 Par ch=1 c=64 v=0
134513 Par ch=1 c=64 v=127
134520 On ch=1 n=48 v=60
134640 On ch=1 n=48 v=0
134640 On ch=1 n=55 v=64
134760 On ch=1 n=55 v=0
134760 On ch=1 n=60 v=60
134880 On ch=1 n=60 v=0
136320 On ch=1 n=36 v=0
136320 On ch=1 n=31 v=80
136320 On ch=1 n=43 v=95
136330 Par ch=1 c=64 v=0
136400 Par ch=1 c=64 v=127
137288 Par ch=1 c=64 v=0
137349 Par ch=1 c=64 v=127
137880 On ch=1 n=56 v=66
138000 On ch=1 n=56 v=0
138000 On ch=1 n=53 v=69
138120 On ch=1 n=53 v=0
138120 On ch=1 n=47 v=64
138240 On ch=1 n=47 v=0
138240 On ch=1 n=43 v=0
138240 On ch=1 n=31 v=0
138240 On ch=1 n=31 v=74
138240 On ch=1 n=43 v=88
138250 Par ch=1 c=64 v=0
138337 Par ch=1 c=64 v=127
138360 On ch=1 n=46 v=60
138480 On ch=1 n=46 v=0
138480 On ch=1 n=52 v=64
138600 On ch=1 n=52 v=0
138600 On ch=1 n=55 v=61
138720 On ch=1 n=55 v=0
138720 On ch=1 n=61 v=76
138840 On ch=1 n=61 v=0
138840 On ch=1 n=58 v=64
138960 On ch=1 n=58 v=0
140169 Par ch=1 c=64 v=0
140280 Par ch=1 c=64 v=127
142080 On ch=1 n=43 v=0
142080 On ch=1 n=31 v=0
142080 On ch=1 n=31 v=75
142080 On ch=1 n=43 v=89
142090 Par ch=1 c=64 v=0
142200 Par ch=1 c=64 v=127
144006 Par ch=1 c=64 v=0
144106 Par ch=1 c=64 v=127
145320 On ch=1 n=55 v=69
145440 On ch=1 n=55 v=0
145440 On ch=1 n=59 v=80
145560 On ch=1 n=59 v=0
145560 On ch=1 n=53 v=66
145680 On ch=1 n=53 v=0
145680 On ch=1 n=50 v=69
145800 On ch=1 n=50 v=0
145800 On ch=1 n=43 v=68
145920 On ch=1 n=43 v=0
145920 On ch=1 n=43 v=0
145920 On ch=1 n=31 v=0
145920 On ch=1 n=24 v=85
145920 On ch=1 n=36 v=102
145930 Par ch=1 c=64 v=0
146040 Par ch=1 c=64 v=127
146040 On ch=1 n=43 v=66
146160 On ch=1 n=43 v=0
146160 On ch=1 n=52 v=68
146280 On ch=1 n=52 v=0
146280 On ch=1 n=55 v=65
146400 On ch=1 n=55 v=0
146400 On ch=1 n=60 v=78
146520 On ch=1 n=60 v=0
146520 On ch=1 n=55 v=71
146640 On ch=1 n=55 v=0
149160 On ch=1 n=55 v=73
149280 On ch=1 n=55 v=0
149280 On ch=1 n=60 v=86
149400 On ch=1 n=60 v=0
149400 On ch=1 n=55 v=73
149520 On ch=1 n=55 v=0
149520 On ch=1 n=52 v=76
149640 On ch=1 n=52 v=0
149640 On ch=1 n=43 v=70
149760 On ch=1 n=43 v=0
149760 On ch=1 n=36 v=0
149760 On ch=1 n=24 v=0
149760 On ch=1 n=24 v=85
149760 On ch=1 n=36 v=102
151680 On ch=1 n=36 v=0
151680 On ch=1 n=24 v=0
153120 Par ch=1 c=64 v=0
153120 Meta TrkEnd
TrkEnd
MTrk
0 Meta TrkName "Chopin: Etude Op, 10, No. 1"
0 Meta TrkEnd
TrkEnd
MTrk
0 Meta TrkName "Copyright © 1999 by Bernd Krüger"
0 Meta TrkEnd
TrkEnd
MTrk
0 Meta TrkName "http://www.piano-midi.de"
0 Meta TrkEnd
TrkEnd
MTrk
0 Meta TrkName "Edition: 2014-05-03"
0 Meta TrkEnd
TrkEnd