MFile 1 7 480
MTrk
0 Meta TrkName "Etüde Opus 10 No. 5"
0 Meta TrkName "Schwarze-Tasten-Etüde"
0 Meta Copyright "Copyright © 1999 von Bernd Krüger."
0 Meta Text "Chopin"
0 Meta Text "Vivace"
0 Meta Text "Fertiggestellt am 30.3.99
"
0 Meta Text "Update am 1.4.99
"
0 Meta Text "Update am 21.4.99
"
0 Meta Text "Normierung: 23.12.2002
"
0 Meta Text "Update am 4.3.2014
"
0 Meta Text "Dauer: 1:31
"
0 TimeSig 2/4 24 8
0 KeySig 250 major
0 Tempo 517241
0 Meta Marker "Vivace"
3360 Tempo 530973
3840 Tempo 517241
6480 Tempo 538117
7200 Tempo 560748
7680 Tempo 530973
7920 Tempo 517241
11040 Tempo 526316
11520 Tempo 517241
14160 Tempo 533333
14880 Tempo 555556
15360 Tempo 528634
15600 Tempo 524017
15840 Tempo 512821
16080 Tempo 517241
16320 Tempo 528634
16560 Tempo 510638
16800 Tempo 517241
17520 Tempo 528634
17760 Tempo 512821
19200 Tempo 526316
19680 Tempo 517241
20880 Tempo 535714
21120 Tempo 524017
21600 Tempo 517241
22080 Tempo 528634
22320 Tempo 519481
22800 Tempo 533333
23040 Tempo 533333
23280 Tempo 524017
24960 Tempo 530973
25440 Tempo 524017
28800 Tempo 533333
29760 Tempo 550459
30480 Tempo 585366
30720 Tempo 530973
32160 Tempo 550459
32640 Tempo 530973
34080 Tempo 550459
34560 Tempo 530973
37440 Tempo 528634
37560 Tempo 530973
37680 Tempo 533333
37800 Tempo 535714
37920 Tempo 538117
38000 Tempo 540541
38040 Tempo 542986
38080 Tempo 545455
38120 Tempo 547945
38200 Tempo 550459
38240 Tempo 552995
38280 Tempo 555556
38320 Tempo 558140
38400 Tempo 582016
38880 Tempo 530035
39840 Tempo 539714
40320 Tempo 557414
40800 Tempo 530035
41760 Tempo 542152
42240 Tempo 552995
42480 Tempo 530973
42720 Tempo 542986
42960 Tempo 568128
43200 Tempo 549702
43680 Tempo 539714
43920 Tempo 549702
44160 Tempo 560067
44400 Tempo 547146
44640 Tempo 560067
44880 Tempo 574163
45120 Tempo 576369
45840 Tempo 615195
46041 Tempo 621762
46080 Tempo 538117
46320 Tempo 517241
49440 Tempo 530973
49920 Tempo 517241
52320 Tempo 530973
52800 Tempo 550459
53280 Tempo 552995
53320 Tempo 555556
53360 Tempo 560748
53400 Tempo 566038
53440 Tempo 571429
53480 Tempo 576923
53520 Tempo 579710
53560 Tempo 585366
53600 Tempo 591133
53640 Tempo 597015
53680 Tempo 603015
53720 Tempo 609137
53760 Tempo 530973
54000 Tempo 517241
55680 Tempo 530973
55920 Tempo 517241
57600 Tempo 542986
57840 Tempo 526316
58560 Tempo 540541
58800 Tempo 526316
59280 Tempo 535714
60000 Tempo 547945
60480 Tempo 547945
60960 Tempo 521739
61000 Tempo 547945
61040 Tempo 552995
61080 Tempo 558140
61120 Tempo 563380
61160 Tempo 571429
61200 Tempo 576923
61240 Tempo 582524
61280 Tempo 591133
61320 Tempo 597015
61360 Tempo 603015
61400 Tempo 1481481
61440 Tempo 1000000
61540 Tempo 689655
61560 Tempo 631579
61580 Tempo 628272
61600 Tempo 625000
61620 Tempo 618557
61640 Tempo 615385
61660 Tempo 612245
61680 Tempo 606061
61700 Tempo 603015
61720 Tempo 600000
61740 Tempo 594059
61760 Tempo 591133
61780 Tempo 588235
61800 Tempo 582524
61820 Tempo 579710
61840 Tempo 576923
61860 Tempo 571429
61880 Tempo 568720
61900 Tempo 566038
61920 Tempo 560748
61940 Tempo 555556
61980 Tempo 558140
62000 Tempo 560748
62040 Tempo 563380
62060 Tempo 566038
62080 Tempo 568720
62120 Tempo 571429
62140 Tempo 574163
62160 Tempo 576923
62200 Tempo 579710
62220 Tempo 582524
62240 Tempo 585366
62280 Tempo 588235
62300 Tempo 591133
62320 Tempo 594059
62340 Tempo 794702
62388 Tempo 769231
62400 Tempo 571429
63360 Tempo 517241
65280 Tempo 528634
65760 Tempo 517241
66000 Tempo 526316
66240 Tempo 512821
66480 Tempo 526316
66720 Tempo 512821
66960 Tempo 526316
67200 Tempo 517241
68400 Tempo 528634
68640 Tempo 517241
69360 Tempo 526316
69600 Tempo 512821
69840 Tempo 524017
70080 Tempo 512821
70320 Tempo 524017
70560 Tempo 517241
71040 Tempo 530973
71520 Tempo 521739
74880 Tempo 530973
75120 Tempo 521739
76800 Tempo 519481
77120 Tempo 521739
77440 Tempo 524017
77760 Tempo 526316
78080 Tempo 528634
78400 Tempo 530973
78720 Tempo 779221
78820 Tempo 600000
78880 Tempo 603015
78940 Tempo 606061
79000 Tempo 609137
79060 Tempo 612245
79100 Tempo 615385
79160 Tempo 618557
79220 Tempo 621762
79280 Tempo 625000
79340 Tempo 628272
79380 Tempo 631579
79440 Tempo 634921
79500 Tempo 638298
79560 Tempo 641711
79620 Tempo 645161
79660 Tempo 648649
79680 Tempo 701754
80128 Tempo 1463415
80160 Tempo 789474
81600 Meta Marker "Fine"
81600 Meta TrkEnd
TrkEnd
MTrk
0 Meta TrkName "Piano right"
0 PrCh ch=1 p=0
0 Par ch=1 c=7 v=100
0 Par ch=1 c=10 v=64
0 Par ch=1 c=91 v=127
0 Par ch=1 c=64 v=0
1 On ch=1 n=90 v=99
80 On ch=1 n=94 v=76
81 On ch=1 n=90 v=0
160 On ch=1 n=94 v=0
160 On ch=1 n=85 v=69
240 On ch=1 n=85 v=0
240 On ch=1 n=90 v=93
320 On ch=1 n=90 v=0
320 On ch=1 n=87 v=79
400 On ch=1 n=87 v=0
400 On ch=1 n=90 v=73
480 On ch=1 n=90 v=0
480 On ch=1 n=85 v=92
560 On ch=1 n=85 v=0
560 On ch=1 n=90 v=78
640 On ch=1 n=90 v=0
640 On ch=1 n=82 v=71
720 On ch=1 n=82 v=0
720 On ch=1 n=85 v=84
800 On ch=1 n=85 v=0
800 On ch=1 n=78 v=72
880 On ch=1 n=78 v=0
880 On ch=1 n=82 v=68
960 On ch=1 n=82 v=0
960 On ch=1 n=78 v=74
1040 On ch=1 n=78 v=0
1040 On ch=1 n=82 v=64
1120 On ch=1 n=82 v=0
1120 On ch=1 n=73 v=58
1200 On ch=1 n=73 v=0
1200 On ch=1 n=78 v=71
1280 On ch=1 n=78 v=0
1280 On ch=1 n=75 v=63
1360 On ch=1 n=75 v=0
1360 On ch=1 n=78 v=57
1440 On ch=1 n=78 v=0
1440 On ch=1 n=73 v=69
1520 On ch=1 n=73 v=0
1520 On ch=1 n=78 v=56
1600 On ch=1 n=78 v=0
1600 On ch=1 n=70 v=56
1680 On ch=1 n=70 v=0
1680 On ch=1 n=73 v=67
1760 On ch=1 n=73 v=0
1760 On ch=1 n=66 v=55
1840 On ch=1 n=66 v=0
1840 On ch=1 n=70 v=53
1920 On ch=1 n=70 v=0
1920 On ch=1 n=61 v=74
2000 On ch=1 n=61 v=0
2000 On ch=1 n=73 v=69
2080 On ch=1 n=73 v=0
2080 On ch=1 n=68 v=63
2160 On ch=1 n=68 v=0
2160 On ch=1 n=73 v=75
2240 On ch=1 n=73 v=0
2240 On ch=1 n=68 v=67
2320 On ch=1 n=68 v=0
2320 On ch=1 n=80 v=61
2400 On ch=1 n=80 v=0
2400 On ch=1 n=68 v=75
2480 On ch=1 n=68 v=0
2480 On ch=1 n=80 v=68
2560 On ch=1 n=80 v=0
2560 On ch=1 n=75 v=61
2640 On ch=1 n=75 v=0
2640 On ch=1 n=80 v=81
2720 On ch=1 n=80 v=0
2720 On ch=1 n=75 v=74
2800 On ch=1 n=75 v=0
2800 On ch=1 n=87 v=70
2880 On ch=1 n=87 v=0
2880 On ch=1 n=75 v=82
2960 On ch=1 n=75 v=0
2960 On ch=1 n=87 v=73
3040 On ch=1 n=87 v=0
3040 On ch=1 n=80 v=68
3120 On ch=1 n=80 v=0
3120 On ch=1 n=87 v=86
3200 On ch=1 n=87 v=0
3200 On ch=1 n=80 v=69
3280 On ch=1 n=80 v=0
3280 On ch=1 n=92 v=67
3360 On ch=1 n=92 v=0
3360 On ch=1 n=80 v=89
3440 On ch=1 n=80 v=0
3440 On ch=1 n=92 v=77
3520 On ch=1 n=92 v=0
3520 On ch=1 n=85 v=75
3600 On ch=1 n=85 v=0
3600 On ch=1 n=92 v=92
3680 On ch=1 n=92 v=0
3680 On ch=1 n=85 v=83
3760 On ch=1 n=85 v=0
3760 On ch=1 n=97 v=78
3840 On ch=1 n=97 v=0
3840 On ch=1 n=90 v=96
3920 On ch=1 n=90 v=0
3920 On ch=1 n=94 v=78
4000 On ch=1 n=94 v=0
4000 On ch=1 n=85 v=75
4080 On ch=1 n=85 v=0
4080 On ch=1 n=90 v=95
4160 On ch=1 n=90 v=0
4160 On ch=1 n=87 v=77
4240 On ch=1 n=87 v=0
4240 On ch=1 n=90 v=74
4320 On ch=1 n=90 v=0
4320 On ch=1 n=85 v=95
4400 On ch=1 n=85 v=0
4400 On ch=1 n=90 v=76
4480 On ch=1 n=90 v=0
4480 On ch=1 n=82 v=74
4560 On ch=1 n=82 v=0
4560 On ch=1 n=85 v=85
4640 On ch=1 n=85 v=0
4640 On ch=1 n=78 v=75
4720 On ch=1 n=78 v=0
4720 On ch=1 n=82 v=70
4800 On ch=1 n=82 v=0
4800 On ch=1 n=78 v=74
4880 On ch=1 n=78 v=0
4880 On ch=1 n=82 v=69
4960 On ch=1 n=82 v=0
4960 On ch=1 n=73 v=65
5040 On ch=1 n=73 v=0
5040 On ch=1 n=78 v=74
5120 On ch=1 n=78 v=0
5120 On ch=1 n=75 v=69
5200 On ch=1 n=75 v=0
5200 On ch=1 n=78 v=66
5280 On ch=1 n=78 v=0
5280 On ch=1 n=73 v=74
5360 On ch=1 n=73 v=0
5360 On ch=1 n=78 v=67
5440 On ch=1 n=78 v=0
5440 On ch=1 n=70 v=70
5520 On ch=1 n=70 v=0
5520 On ch=1 n=73 v=74
5600 On ch=1 n=73 v=0
5600 On ch=1 n=66 v=65
5680 On ch=1 n=66 v=0
5680 On ch=1 n=70 v=68
5760 On ch=1 n=70 v=0
5760 On ch=1 n=63 v=77
5840 On ch=1 n=63 v=0
5840 On ch=1 n=75 v=69
5920 On ch=1 n=75 v=0
5920 On ch=1 n=68 v=66
6000 On ch=1 n=68 v=0
6000 On ch=1 n=75 v=77
6080 On ch=1 n=75 v=0
6080 On ch=1 n=68 v=67
6160 On ch=1 n=68 v=0
6160 On ch=1 n=80 v=71
6240 On ch=1 n=80 v=0
6240 On ch=1 n=75 v=77
6320 On ch=1 n=75 v=0
6320 On ch=1 n=80 v=74
6400 On ch=1 n=80 v=0
6400 On ch=1 n=75 v=70
6480 On ch=1 n=75 v=0
6480 On ch=1 n=87 v=82
6560 On ch=1 n=87 v=0
6560 On ch=1 n=80 v=73
6640 On ch=1 n=80 v=0
6640 On ch=1 n=92 v=75
6720 On ch=1 n=92 v=0
6720 On ch=1 n=82 v=88
6800 On ch=1 n=82 v=0
6800 On ch=1 n=94 v=78
6880 On ch=1 n=94 v=0
6880 On ch=1 n=82 v=70
6960 On ch=1 n=82 v=0
6960 On ch=1 n=94 v=81
7040 On ch=1 n=94 v=0
7040 On ch=1 n=82 v=75
7120 On ch=1 n=82 v=0
7120 On ch=1 n=94 v=70
7200 On ch=1 n=94 v=0
7200 On ch=1 n=82 v=68
7280 On ch=1 n=82 v=0
7280 On ch=1 n=94 v=62
7360 On ch=1 n=94 v=0
7360 On ch=1 n=82 v=53
7440 On ch=1 n=82 v=0
7440 On ch=1 n=94 v=59
7520 On ch=1 n=94 v=0
7520 On ch=1 n=82 v=53
7600 On ch=1 n=82 v=0
7600 On ch=1 n=94 v=45
7680 On ch=1 n=94 v=0
7680 Par ch=1 c=91 v=127
7680 Par ch=1 c=64 v=0
7681 On ch=1 n=90 v=96
7760 On ch=1 n=94 v=73
7761 On ch=1 n=90 v=0
7840 On ch=1 n=94 v=0
7840 On ch=1 n=85 v=67
7920 On ch=1 n=85 v=0
7920 On ch=1 n=90 v=90
8000 On ch=1 n=90 v=0
8000 On ch=1 n=87 v=67
8080 On ch=1 n=87 v=0
8080 On ch=1 n=90 v=59
8160 On ch=1 n=90 v=0
8160 On ch=1 n=85 v=93
8240 On ch=1 n=85 v=0
8240 On ch=1 n=90 v=68
8320 On ch=1 n=90 v=0
8320 On ch=1 n=82 v=66
8400 On ch=1 n=82 v=0
8400 On ch=1 n=85 v=84
8480 On ch=1 n=85 v=0
8480 On ch=1 n=78 v=66
8560 On ch=1 n=78 v=0
8560 On ch=1 n=82 v=63
8640 On ch=1 n=82 v=0
8640 On ch=1 n=78 v=74
8720 On ch=1 n=78 v=0
8720 On ch=1 n=82 v=66
8800 On ch=1 n=82 v=0
8800 On ch=1 n=73 v=63
8880 On ch=1 n=73 v=0
8880 On ch=1 n=78 v=68
8960 On ch=1 n=78 v=0
8960 On ch=1 n=75 v=65
9040 On ch=1 n=75 v=0
9040 On ch=1 n=78 v=62
9120 On ch=1 n=78 v=0
9120 On ch=1 n=73 v=74
9200 On ch=1 n=73 v=0
9200 On ch=1 n=78 v=65
9280 On ch=1 n=78 v=0
9280 On ch=1 n=70 v=61
9360 On ch=1 n=70 v=0
9360 On ch=1 n=73 v=74
9440 On ch=1 n=73 v=0
9440 On ch=1 n=66 v=67
9520 On ch=1 n=66 v=0
9520 On ch=1 n=70 v=65
9600 On ch=1 n=70 v=0
9600 On ch=1 n=61 v=74
9680 On ch=1 n=61 v=0
9680 On ch=1 n=73 v=71
9760 On ch=1 n=73 v=0
9760 On ch=1 n=68 v=67
9840 On ch=1 n=68 v=0
9840 On ch=1 n=73 v=75
9920 On ch=1 n=73 v=0
9920 On ch=1 n=68 v=70
10000 On ch=1 n=68 v=0
10000 On ch=1 n=80 v=65
10080 On ch=1 n=80 v=0
10080 On ch=1 n=68 v=72
10160 On ch=1 n=68 v=0
10160 On ch=1 n=80 v=70
10240 On ch=1 n=80 v=0
10240 On ch=1 n=75 v=67
10320 On ch=1 n=75 v=0
10320 On ch=1 n=80 v=78
10400 On ch=1 n=80 v=0
10400 On ch=1 n=75 v=74
10480 On ch=1 n=75 v=0
10480 On ch=1 n=87 v=72
10560 On ch=1 n=87 v=0
10560 On ch=1 n=75 v=82
10640 On ch=1 n=75 v=0
10640 On ch=1 n=87 v=78
10720 On ch=1 n=87 v=0
10720 On ch=1 n=80 v=78
10800 On ch=1 n=80 v=0
10800 On ch=1 n=87 v=80
10880 On ch=1 n=87 v=0
10880 On ch=1 n=80 v=77
10960 On ch=1 n=80 v=0
10960 On ch=1 n=92 v=73
11040 On ch=1 n=92 v=0
11040 On ch=1 n=80 v=88
11120 On ch=1 n=80 v=0
11120 On ch=1 n=92 v=81
11200 On ch=1 n=92 v=0
11200 On ch=1 n=85 v=73
11280 On ch=1 n=85 v=0
11280 On ch=1 n=92 v=92
11360 On ch=1 n=92 v=0
11360 On ch=1 n=85 v=83
11440 On ch=1 n=85 v=0
11440 On ch=1 n=97 v=83
11520 On ch=1 n=97 v=0
11520 On ch=1 n=90 v=98
11600 On ch=1 n=90 v=0
11600 On ch=1 n=94 v=74
11680 On ch=1 n=94 v=0
11680 On ch=1 n=85 v=70
11760 On ch=1 n=85 v=0
11760 On ch=1 n=90 v=93
11840 On ch=1 n=90 v=0
11840 On ch=1 n=87 v=72
11920 On ch=1 n=87 v=0
11920 On ch=1 n=90 v=73
12000 On ch=1 n=90 v=0
12000 On ch=1 n=85 v=96
12080 On ch=1 n=85 v=0
12080 On ch=1 n=90 v=75
12160 On ch=1 n=90 v=0
12160 On ch=1 n=82 v=68
12240 On ch=1 n=82 v=0
12240 On ch=1 n=85 v=84
12320 On ch=1 n=85 v=0
12320 On ch=1 n=78 v=69
12400 On ch=1 n=78 v=0
12400 On ch=1 n=82 v=64
12480 On ch=1 n=82 v=0
12480 On ch=1 n=78 v=74
12560 On ch=1 n=78 v=0
12560 On ch=1 n=82 v=68
12640 On ch=1 n=82 v=0
12640 On ch=1 n=73 v=62
12720 On ch=1 n=73 v=0
12720 On ch=1 n=78 v=71
12800 On ch=1 n=78 v=0
12800 On ch=1 n=75 v=65
12880 On ch=1 n=75 v=0
12880 On ch=1 n=78 v=67
12960 On ch=1 n=78 v=0
12960 On ch=1 n=73 v=74
13040 On ch=1 n=73 v=0
13040 On ch=1 n=78 v=65
13120 On ch=1 n=78 v=0
13120 On ch=1 n=70 v=59
13200 On ch=1 n=70 v=0
13200 On ch=1 n=73 v=74
13280 On ch=1 n=73 v=0
13280 On ch=1 n=66 v=65
13360 On ch=1 n=66 v=0
13360 On ch=1 n=70 v=59
13440 On ch=1 n=70 v=0
13440 On ch=1 n=63 v=77
13520 On ch=1 n=63 v=0
13520 On ch=1 n=75 v=74
13600 On ch=1 n=75 v=0
13600 On ch=1 n=68 v=67
13680 On ch=1 n=68 v=0
13680 On ch=1 n=75 v=77
13760 On ch=1 n=75 v=0
13760 On ch=1 n=68 v=67
13840 On ch=1 n=68 v=0
13840 On ch=1 n=80 v=70
13920 On ch=1 n=80 v=0
13920 On ch=1 n=75 v=75
14000 On ch=1 n=75 v=0
14000 On ch=1 n=80 v=71
14080 On ch=1 n=80 v=0
14080 On ch=1 n=75 v=67
14160 On ch=1 n=75 v=0
14160 On ch=1 n=87 v=82
14240 On ch=1 n=87 v=0
14240 On ch=1 n=80 v=79
14320 On ch=1 n=80 v=0
14320 On ch=1 n=87 v=74
14400 On ch=1 n=87 v=0
14400 On ch=1 n=75 v=85
14480 On ch=1 n=75 v=0
14480 On ch=1 n=87 v=74
14560 On ch=1 n=87 v=0
14560 On ch=1 n=80 v=71
14640 On ch=1 n=80 v=0
14640 On ch=1 n=87 v=88
14720 On ch=1 n=87 v=0
14720 On ch=1 n=73 v=76
14800 On ch=1 n=73 v=0
14800 On ch=1 n=85 v=72
14880 On ch=1 n=85 v=0
14880 On ch=1 n=80 v=81
14960 On ch=1 n=80 v=0
14960 On ch=1 n=85 v=73
15040 On ch=1 n=85 v=0
15040 On ch=1 n=80 v=67
15120 On ch=1 n=80 v=0
15120 On ch=1 n=92 v=70
15200 On ch=1 n=92 v=0
15200 On ch=1 n=85 v=66
15280 On ch=1 n=85 v=0
15280 On ch=1 n=97 v=64
15360 On ch=1 n=97 v=0
15360 On ch=1 n=92 v=72
15440 On ch=1 n=92 v=0
15440 On ch=1 n=94 v=67
15520 On ch=1 n=94 v=0
15520 On ch=1 n=92 v=61
15600 On ch=1 n=92 v=0
15600 On ch=1 n=87 v=72
15680 On ch=1 n=87 v=0
15680 On ch=1 n=99 v=67
15760 On ch=1 n=99 v=0
15760 On ch=1 n=87 v=58
15840 On ch=1 n=87 v=0
15840 On ch=1 n=85 v=78
15920 On ch=1 n=85 v=0
15920 On ch=1 n=87 v=74
16000 On ch=1 n=87 v=0
16000 On ch=1 n=85 v=68
16080 On ch=1 n=85 v=0
16080 On ch=1 n=80 v=75
16160 On ch=1 n=80 v=0
16160 On ch=1 n=92 v=71
16240 On ch=1 n=92 v=0
16240 On ch=1 n=80 v=66
16320 On ch=1 n=80 v=0
16320 On ch=1 n=80 v=72
16400 On ch=1 n=80 v=0
16400 On ch=1 n=82 v=67
16480 On ch=1 n=82 v=0
16480 On ch=1 n=80 v=65
16560 On ch=1 n=80 v=0
16560 On ch=1 n=75 v=72
16640 On ch=1 n=75 v=0
16640 On ch=1 n=87 v=67
16720 On ch=1 n=87 v=0
16720 On ch=1 n=75 v=67
16800 On ch=1 n=75 v=0
16800 On ch=1 n=73 v=75
16880 On ch=1 n=73 v=0
16880 On ch=1 n=75 v=68
16960 On ch=1 n=75 v=0
16960 On ch=1 n=73 v=67
17040 On ch=1 n=73 v=0
17040 On ch=1 n=68 v=72
17360 On ch=1 n=68 v=0
17360 On ch=1 n=75 v=70
17440 On ch=1 n=75 v=0
17440 On ch=1 n=80 v=67
17520 On ch=1 n=80 v=0
17520 On ch=1 n=82 v=74
17600 On ch=1 n=82 v=0
17600 On ch=1 n=80 v=70
17680 On ch=1 n=80 v=0
17680 On ch=1 n=75 v=67
17760 On ch=1 n=75 v=0
17760 On ch=1 n=73 v=71
17840 On ch=1 n=73 v=0
17840 On ch=1 n=80 v=73
17920 On ch=1 n=80 v=0
17920 On ch=1 n=85 v=72
18000 On ch=1 n=85 v=0
18000 On ch=1 n=87 v=74
18080 On ch=1 n=87 v=0
18080 On ch=1 n=85 v=69
18160 On ch=1 n=85 v=0
18160 On ch=1 n=82 v=67
18240 On ch=1 n=82 v=0
18240 On ch=1 n=80 v=72
18320 On ch=1 n=80 v=0
18320 On ch=1 n=87 v=69
18400 On ch=1 n=87 v=0
18400 On ch=1 n=92 v=67
18480 On ch=1 n=92 v=0
18480 On ch=1 n=94 v=72
18560 On ch=1 n=94 v=0
18560 On ch=1 n=92 v=64
18640 On ch=1 n=92 v=0
18640 On ch=1 n=87 v=59
18720 On ch=1 n=87 v=0
18720 On ch=1 n=85 v=77
18800 On ch=1 n=85 v=0
18800 On ch=1 n=92 v=73
18880 On ch=1 n=92 v=0
18880 On ch=1 n=97 v=68
18960 On ch=1 n=97 v=0
18960 On ch=1 n=99 v=72
19040 On ch=1 n=99 v=0
19040 On ch=1 n=97 v=68
19120 On ch=1 n=97 v=0
19120 On ch=1 n=94 v=68
19200 On ch=1 n=94 v=0
19200 On ch=1 n=92 v=72
19280 On ch=1 n=92 v=0
19280 On ch=1 n=94 v=69
19360 On ch=1 n=94 v=0
19360 On ch=1 n=92 v=63
19440 On ch=1 n=92 v=0
19440 On ch=1 n=87 v=72
19520 On ch=1 n=87 v=0
19520 On ch=1 n=99 v=67
19600 On ch=1 n=99 v=0
19600 On ch=1 n=87 v=72
19680 On ch=1 n=87 v=0
19680 On ch=1 n=85 v=81
19760 On ch=1 n=85 v=0
19760 On ch=1 n=87 v=73
19840 On ch=1 n=87 v=0
19840 On ch=1 n=85 v=67
19920 On ch=1 n=85 v=0
19920 On ch=1 n=80 v=77
20000 On ch=1 n=80 v=0
20000 On ch=1 n=92 v=75
20080 On ch=1 n=92 v=0
20080 On ch=1 n=80 v=67
20160 On ch=1 n=80 v=0
20160 On ch=1 n=80 v=79
20240 On ch=1 n=80 v=0
20240 On ch=1 n=82 v=70
20320 On ch=1 n=82 v=0
20320 On ch=1 n=80 v=65
20400 On ch=1 n=80 v=0
20400 On ch=1 n=75 v=73
20480 On ch=1 n=75 v=0
20480 On ch=1 n=87 v=68
20560 On ch=1 n=87 v=0
20560 On ch=1 n=75 v=65
20640 On ch=1 n=75 v=0
20640 On ch=1 n=73 v=75
20720 On ch=1 n=73 v=0
20720 On ch=1 n=75 v=69
20800 On ch=1 n=75 v=0
20800 On ch=1 n=73 v=63
20880 On ch=1 n=73 v=0
20880 On ch=1 n=68 v=75
21200 On ch=1 n=68 v=0
21200 On ch=1 n=80 v=67
21280 On ch=1 n=80 v=0
21280 On ch=1 n=78 v=64
21360 On ch=1 n=78 v=0
21360 On ch=1 n=80 v=75
21440 On ch=1 n=80 v=0
21440 On ch=1 n=78 v=68
21520 On ch=1 n=78 v=0
21520 On ch=1 n=80 v=65
21600 On ch=1 n=80 v=0
21600 On ch=1 n=90 v=82
21680 On ch=1 n=90 v=0
21680 On ch=1 n=80 v=71
21760 On ch=1 n=80 v=0
21760 On ch=1 n=78 v=65
21840 On ch=1 n=78 v=0
21840 On ch=1 n=80 v=74
21920 On ch=1 n=80 v=0
21920 On ch=1 n=78 v=67
22000 On ch=1 n=78 v=0
22000 On ch=1 n=80 v=64
22080 On ch=1 n=80 v=0
22080 On ch=1 n=68 v=64
22160 On ch=1 n=68 v=0
22160 On ch=1 n=80 v=68
22240 On ch=1 n=80 v=0
22240 On ch=1 n=78 v=63
22320 On ch=1 n=78 v=0
22320 On ch=1 n=80 v=71
22400 On ch=1 n=80 v=0
22400 On ch=1 n=78 v=65
22480 On ch=1 n=78 v=0
22480 On ch=1 n=80 v=62
22560 On ch=1 n=80 v=0
22560 On ch=1 n=90 v=81
22640 On ch=1 n=90 v=0
22640 On ch=1 n=80 v=67
22720 On ch=1 n=80 v=0
22720 On ch=1 n=78 v=63
22800 On ch=1 n=78 v=0
22800 On ch=1 n=80 v=69
22880 On ch=1 n=80 v=0
22880 On ch=1 n=78 v=67
22960 On ch=1 n=78 v=0
22960 On ch=1 n=80 v=64
23040 On ch=1 n=80 v=0
23040 On ch=1 n=70 v=70
23120 On ch=1 n=70 v=0
23120 On ch=1 n=82 v=74
23200 On ch=1 n=82 v=0
23200 On ch=1 n=78 v=66
23280 On ch=1 n=78 v=0
23280 On ch=1 n=82 v=74
23360 On ch=1 n=82 v=0
23360 On ch=1 n=78 v=70
23440 On ch=1 n=78 v=0
23440 On ch=1 n=82 v=66
23520 On ch=1 n=82 v=0
23520 On ch=1 n=90 v=83
23600 On ch=1 n=90 v=0
23600 On ch=1 n=82 v=71
23680 On ch=1 n=82 v=0
23680 On ch=1 n=78 v=68
23760 On ch=1 n=78 v=0
23760 On ch=1 n=82 v=77
23840 On ch=1 n=82 v=0
23840 On ch=1 n=78 v=72
23920 On ch=1 n=78 v=0
23920 On ch=1 n=82 v=67
24000 On ch=1 n=82 v=0
24000 On ch=1 n=70 v=73
24080 On ch=1 n=70 v=0
24080 On ch=1 n=82 v=75
24160 On ch=1 n=82 v=0
24160 On ch=1 n=78 v=72
24240 On ch=1 n=78 v=0
24240 On ch=1 n=82 v=78
24320 On ch=1 n=82 v=0
24320 On ch=1 n=78 v=72
24400 On ch=1 n=78 v=0
24400 On ch=1 n=82 v=67
24480 On ch=1 n=82 v=0
24480 On ch=1 n=90 v=85
24560 On ch=1 n=90 v=0
24560 On ch=1 n=82 v=74
24640 On ch=1 n=82 v=0
24640 On ch=1 n=78 v=71
24720 On ch=1 n=78 v=0
24720 On ch=1 n=82 v=80
24800 On ch=1 n=82 v=0
24800 On ch=1 n=78 v=77
24880 On ch=1 n=78 v=0
24880 On ch=1 n=82 v=74
24960 On ch=1 n=82 v=0
24960 On ch=1 n=78 v=80
25040 On ch=1 n=78 v=0
25040 On ch=1 n=82 v=77
25120 On ch=1 n=82 v=0
25120 On ch=1 n=78 v=78
25200 On ch=1 n=78 v=0
25200 On ch=1 n=94 v=87
25260 On ch=1 n=94 v=0
25280 On ch=1 n=82 v=76
25360 On ch=1 n=82 v=0
25360 On ch=1 n=78 v=70
25440 On ch=1 n=78 v=0
25440 On ch=1 n=92 v=89
25500 On ch=1 n=92 v=0
25520 On ch=1 n=82 v=70
25600 On ch=1 n=82 v=0
25600 On ch=1 n=78 v=73
25680 On ch=1 n=78 v=0
25680 On ch=1 n=90 v=89
25740 On ch=1 n=90 v=0
25760 On ch=1 n=82 v=78
25840 On ch=1 n=82 v=0
25840 On ch=1 n=78 v=73
25920 On ch=1 n=78 v=0
25920 On ch=1 n=85 v=80
26000 On ch=1 n=85 v=0
26000 On ch=1 n=82 v=73
26080 On ch=1 n=82 v=0
26080 On ch=1 n=78 v=76
26160 On ch=1 n=78 v=0
26160 On ch=1 n=94 v=90
26220 On ch=1 n=94 v=0
26240 On ch=1 n=82 v=76
26320 On ch=1 n=82 v=0
26320 On ch=1 n=78 v=79
26400 On ch=1 n=78 v=0
26400 On ch=1 n=92 v=94
26460 On ch=1 n=92 v=0
26480 On ch=1 n=82 v=77
26560 On ch=1 n=82 v=0
26560 On ch=1 n=78 v=76
26640 On ch=1 n=78 v=0
26640 On ch=1 n=90 v=95
26700 On ch=1 n=90 v=0
26720 On ch=1 n=82 v=76
26800 On ch=1 n=82 v=0
26800 On ch=1 n=78 v=79
26880 On ch=1 n=78 v=0
26880 On ch=1 n=73 v=87
26960 On ch=1 n=73 v=0
26960 On ch=1 n=85 v=78
27040 On ch=1 n=85 v=0
27040 On ch=1 n=82 v=75
27120 On ch=1 n=82 v=0
27120 On ch=1 n=85 v=88
27200 On ch=1 n=85 v=0
27200 On ch=1 n=85 v=75
27280 On ch=1 n=85 v=0
27280 On ch=1 n=97 v=80
27360 On ch=1 n=97 v=0
27360 On ch=1 n=94 v=94
27440 On ch=1 n=94 v=0
27440 On ch=1 n=97 v=77
27520 On ch=1 n=97 v=0
27520 On ch=1 n=85 v=76
27600 On ch=1 n=85 v=0
27600 On ch=1 n=85 v=89
27680 On ch=1 n=85 v=0
27680 On ch=1 n=82 v=77
27760 On ch=1 n=82 v=0
27760 On ch=1 n=85 v=82
27840 On ch=1 n=85 v=0
27840 On ch=1 n=73 v=89
27920 On ch=1 n=73 v=0
27920 On ch=1 n=85 v=85
28000 On ch=1 n=85 v=0
28000 On ch=1 n=82 v=81
28080 On ch=1 n=82 v=0
28080 On ch=1 n=85 v=90
28160 On ch=1 n=85 v=0
28160 On ch=1 n=85 v=85
28240 On ch=1 n=85 v=0
28240 On ch=1 n=97 v=85
28320 On ch=1 n=97 v=0
28320 On ch=1 n=94 v=101
28400 On ch=1 n=94 v=0
28400 On ch=1 n=97 v=86
28480 On ch=1 n=97 v=0
28480 On ch=1 n=85 v=84
28560 On ch=1 n=85 v=0
28560 On ch=1 n=85 v=93
28640 On ch=1 n=85 v=0
28640 On ch=1 n=82 v=85
28720 On ch=1 n=82 v=0
28720 On ch=1 n=85 v=80
28800 On ch=1 n=85 v=0
28800 On ch=1 n=73 v=94
28880 On ch=1 n=73 v=0
28880 On ch=1 n=85 v=85
28960 On ch=1 n=85 v=0
28960 On ch=1 n=82 v=81
29040 On ch=1 n=82 v=0
29040 On ch=1 n=85 v=94
29120 On ch=1 n=85 v=0
29120 On ch=1 n=85 v=84
29200 On ch=1 n=85 v=0
29200 On ch=1 n=97 v=80
29280 On ch=1 n=97 v=0
29280 On ch=1 n=92 v=95
29360 On ch=1 n=92 v=0
29360 On ch=1 n=97 v=85
29440 On ch=1 n=97 v=0
29440 On ch=1 n=85 v=83
29520 On ch=1 n=85 v=0
29520 On ch=1 n=85 v=95
29600 On ch=1 n=85 v=0
29600 On ch=1 n=80 v=90
29680 On ch=1 n=80 v=0
29680 On ch=1 n=85 v=86
29760 On ch=1 n=85 v=0
29760 On ch=1 n=73 v=97
29840 On ch=1 n=73 v=0
29840 On ch=1 n=85 v=90
29920 On ch=1 n=85 v=0
29920 On ch=1 n=78 v=85
30000 On ch=1 n=78 v=0
30000 On ch=1 n=85 v=93
30080 On ch=1 n=85 v=0
30080 On ch=1 n=73 v=87
30160 On ch=1 n=73 v=0
30160 On ch=1 n=73 v=84
30240 On ch=1 n=73 v=0
30240 On ch=1 n=66 v=95
30320 On ch=1 n=66 v=0
30320 On ch=1 n=73 v=90
30400 On ch=1 n=73 v=0
30400 On ch=1 n=61 v=85
30480 On ch=1 n=61 v=0
30480 On ch=1 n=61 v=100
30560 On ch=1 n=61 v=0
30560 On ch=1 n=54 v=89
30640 On ch=1 n=54 v=0
30640 On ch=1 n=61 v=85
30720 On ch=1 n=61 v=0
30720 On ch=1 n=51 v=74
30800 On ch=1 n=51 v=0
30800 On ch=1 n=54 v=71
30880 On ch=1 n=54 v=0
30880 On ch=1 n=61 v=72
30960 On ch=1 n=61 v=0
30960 On ch=1 n=63 v=77
31040 On ch=1 n=63 v=0
31040 On ch=1 n=54 v=70
31120 On ch=1 n=54 v=0
31120 On ch=1 n=61 v=72
31200 On ch=1 n=61 v=0
31200 On ch=1 n=63 v=81
31280 On ch=1 n=63 v=0
31280 On ch=1 n=66 v=78
31360 On ch=1 n=66 v=0
31360 On ch=1 n=61 v=75
31440 On ch=1 n=61 v=0
31440 On ch=1 n=63 v=83
31520 On ch=1 n=63 v=0
31520 On ch=1 n=66 v=77
31600 On ch=1 n=66 v=0
31600 On ch=1 n=73 v=73
31680 On ch=1 n=73 v=0
31680 On ch=1 n=63 v=87
31760 On ch=1 n=63 v=0
31760 On ch=1 n=66 v=80
31840 On ch=1 n=66 v=0
31840 On ch=1 n=73 v=77
31920 On ch=1 n=73 v=0
31920 On ch=1 n=75 v=89
32000 On ch=1 n=75 v=0
32000 On ch=1 n=66 v=78
32080 On ch=1 n=66 v=0
32080 On ch=1 n=73 v=75
32160 On ch=1 n=73 v=0
32160 On ch=1 n=75 v=89
32240 On ch=1 n=75 v=0
32240 On ch=1 n=78 v=78
32320 On ch=1 n=78 v=0
32320 On ch=1 n=73 v=76
32400 On ch=1 n=73 v=0
32400 On ch=1 n=75 v=89
32480 On ch=1 n=75 v=0
32480 On ch=1 n=85 v=78
32560 On ch=1 n=85 v=0
32560 On ch=1 n=78 v=75
32640 On ch=1 n=78 v=0
32640 On ch=1 n=75 v=89
32720 On ch=1 n=75 v=0
32720 On ch=1 n=78 v=81
32800 On ch=1 n=78 v=0
32800 On ch=1 n=87 v=86
32880 On ch=1 n=87 v=0
32880 On ch=1 n=85 v=85
32960 On ch=1 n=85 v=0
32960 On ch=1 n=78 v=78
33040 On ch=1 n=78 v=0
33040 On ch=1 n=75 v=84
33120 On ch=1 n=75 v=0
33120 On ch=1 n=85 v=81
33200 On ch=1 n=85 v=0
33200 On ch=1 n=78 v=76
33280 On ch=1 n=78 v=0
33280 On ch=1 n=75 v=71
33360 On ch=1 n=75 v=0
33360 On ch=1 n=73 v=78
33440 On ch=1 n=73 v=0
33440 On ch=1 n=78 v=71
33520 On ch=1 n=78 v=0
33520 On ch=1 n=75 v=75
33600 On ch=1 n=75 v=0
33600 On ch=1 n=73 v=74
33680 On ch=1 n=73 v=0
33680 On ch=1 n=66 v=69
33760 On ch=1 n=66 v=0
33760 On ch=1 n=75 v=72
33840 On ch=1 n=75 v=0
33840 On ch=1 n=73 v=71
33920 On ch=1 n=73 v=0
33920 On ch=1 n=66 v=66
34000 On ch=1 n=66 v=0
34000 On ch=1 n=63 v=69
34080 On ch=1 n=63 v=0
34080 On ch=1 n=73 v=67
34160 On ch=1 n=73 v=0
34160 On ch=1 n=66 v=61
34240 On ch=1 n=66 v=0
34240 On ch=1 n=63 v=65
34320 On ch=1 n=63 v=0
34320 On ch=1 n=61 v=64
34400 On ch=1 n=61 v=0
34400 On ch=1 n=66 v=59
34480 On ch=1 n=66 v=0
34480 On ch=1 n=63 v=62
34560 On ch=1 n=63 v=0
34560 On ch=1 n=56 v=52
34640 On ch=1 n=56 v=0
34640 On ch=1 n=63 v=54
34720 On ch=1 n=63 v=0
34720 On ch=1 n=66 v=54
34800 On ch=1 n=66 v=0
34800 On ch=1 n=68 v=56
34880 On ch=1 n=68 v=0
34880 On ch=1 n=63 v=56
34960 On ch=1 n=63 v=0
34960 On ch=1 n=66 v=54
35040 On ch=1 n=66 v=0
35040 On ch=1 n=68 v=58
35120 On ch=1 n=68 v=0
35120 On ch=1 n=75 v=58
35200 On ch=1 n=75 v=0
35200 On ch=1 n=66 v=56
35280 On ch=1 n=66 v=0
35280 On ch=1 n=68 v=60
35360 On ch=1 n=68 v=0
35360 On ch=1 n=75 v=60
35440 On ch=1 n=75 v=0
35440 On ch=1 n=78 v=58
35520 On ch=1 n=78 v=0
35520 On ch=1 n=68 v=62
35600 On ch=1 n=68 v=0
35600 On ch=1 n=75 v=58
35680 On ch=1 n=75 v=0
35680 On ch=1 n=78 v=62
35760 On ch=1 n=78 v=0
35760 On ch=1 n=80 v=62
35840 On ch=1 n=80 v=0
35840 On ch=1 n=75 v=54
35920 On ch=1 n=75 v=0
35920 On ch=1 n=78 v=58
36000 On ch=1 n=78 v=0
36000 On ch=1 n=80 v=62
36080 On ch=1 n=80 v=0
36080 On ch=1 n=87 v=65
36160 On ch=1 n=87 v=0
36160 On ch=1 n=78 v=60
36240 On ch=1 n=78 v=0
36240 On ch=1 n=80 v=62
36320 On ch=1 n=80 v=0
36320 On ch=1 n=90 v=58
36400 On ch=1 n=90 v=0
36400 On ch=1 n=87 v=59
36480 On ch=1 n=87 v=0
36480 On ch=1 n=80 v=59
36560 On ch=1 n=80 v=0
36560 On ch=1 n=78 v=59
36640 On ch=1 n=78 v=0
36640 On ch=1 n=87 v=58
36720 On ch=1 n=87 v=0
36720 On ch=1 n=80 v=58
36800 On ch=1 n=80 v=0
36800 On ch=1 n=78 v=57
36880 On ch=1 n=78 v=0
36880 On ch=1 n=75 v=56
36960 On ch=1 n=75 v=0
36960 On ch=1 n=80 v=56
37040 On ch=1 n=80 v=0
37040 On ch=1 n=78 v=56
37120 On ch=1 n=78 v=0
37120 On ch=1 n=75 v=54
37200 On ch=1 n=75 v=0
37200 On ch=1 n=68 v=54
37280 On ch=1 n=68 v=0
37280 On ch=1 n=78 v=52
37360 On ch=1 n=78 v=0
37360 On ch=1 n=75 v=52
37440 On ch=1 n=75 v=0
37440 On ch=1 n=68 v=52
37520 On ch=1 n=68 v=0
37520 On ch=1 n=66 v=51
37600 On ch=1 n=66 v=0
37600 On ch=1 n=75 v=51
37680 On ch=1 n=75 v=0
37680 On ch=1 n=68 v=50
37760 On ch=1 n=68 v=0
37760 On ch=1 n=66 v=49
37840 On ch=1 n=66 v=0
37840 On ch=1 n=63 v=49
37920 On ch=1 n=63 v=0
37920 On ch=1 n=68 v=48
38000 On ch=1 n=68 v=0
38000 On ch=1 n=66 v=48
38080 On ch=1 n=66 v=0
38080 On ch=1 n=63 v=48
38160 On ch=1 n=63 v=0
38160 On ch=1 n=56 v=46
38240 On ch=1 n=56 v=0
38240 On ch=1 n=66 v=46
38320 On ch=1 n=66 v=0
38320 On ch=1 n=63 v=44
38400 On ch=1 n=63 v=0
38400 On ch=1 n=61 v=65
38480 On ch=1 n=61 v=0
38480 On ch=1 n=73 v=59
38560 On ch=1 n=73 v=0
38560 On ch=1 n=68 v=55
38640 On ch=1 n=68 v=0
38640 On ch=1 n=73 v=65
38720 On ch=1 n=73 v=0
38720 On ch=1 n=65 v=59
38800 On ch=1 n=65 v=0
38800 On ch=1 n=80 v=58
38880 On ch=1 n=80 v=0
38880 On ch=1 n=73 v=70
38960 On ch=1 n=73 v=0
38960 On ch=1 n=80 v=66
39040 On ch=1 n=80 v=0
39040 On ch=1 n=68 v=66
39120 On ch=1 n=68 v=0
39120 On ch=1 n=73 v=70
39200 On ch=1 n=73 v=0
39200 On ch=1 n=68 v=66
39280 On ch=1 n=68 v=0
39280 On ch=1 n=73 v=62
39360 On ch=1 n=73 v=0
39360 On ch=1 n=61 v=65
39440 On ch=1 n=61 v=0
39440 On ch=1 n=73 v=63
39520 On ch=1 n=73 v=0
39520 On ch=1 n=68 v=58
39600 On ch=1 n=68 v=0
39600 On ch=1 n=73 v=65
39680 On ch=1 n=73 v=0
39680 On ch=1 n=68 v=63
39760 On ch=1 n=68 v=0
39760 On ch=1 n=80 v=57
39840 On ch=1 n=80 v=0
39840 On ch=1 n=73 v=65
39920 On ch=1 n=73 v=0
39920 On ch=1 n=80 v=59
40000 On ch=1 n=80 v=0
40000 On ch=1 n=68 v=55
40080 On ch=1 n=68 v=0
40080 On ch=1 n=73 v=65
40160 On ch=1 n=73 v=0
40160 On ch=1 n=68 v=63
40240 On ch=1 n=68 v=0
40240 On ch=1 n=73 v=58
40320 On ch=1 n=73 v=0
40320 On ch=1 n=61 v=65
40400 On ch=1 n=61 v=0
40400 On ch=1 n=73 v=58
40480 On ch=1 n=73 v=0
40480 On ch=1 n=68 v=56
40560 On ch=1 n=68 v=0
40560 On ch=1 n=73 v=65
40640 On ch=1 n=73 v=0
40640 On ch=1 n=73 v=58
40720 On ch=1 n=73 v=0
40720 On ch=1 n=85 v=55
40800 On ch=1 n=85 v=0
40800 On ch=1 n=80 v=71
40880 On ch=1 n=80 v=0
40880 On ch=1 n=85 v=64
40960 On ch=1 n=85 v=0
40960 On ch=1 n=73 v=62
41040 On ch=1 n=73 v=0
41040 On ch=1 n=73 v=71
41120 On ch=1 n=73 v=0
41120 On ch=1 n=68 v=67
41200 On ch=1 n=68 v=0
41200 On ch=1 n=73 v=62
41280 On ch=1 n=73 v=0
41280 On ch=1 n=68 v=65
41360 On ch=1 n=68 v=0
41360 On ch=1 n=80 v=59
41440 On ch=1 n=80 v=0
41440 On ch=1 n=73 v=54
41520 On ch=1 n=73 v=0
41520 On ch=1 n=80 v=65
41600 On ch=1 n=80 v=0
41600 On ch=1 n=80 v=58
41680 On ch=1 n=80 v=0
41680 On ch=1 n=92 v=59
41760 On ch=1 n=92 v=0
41760 On ch=1 n=85 v=65
41840 On ch=1 n=85 v=0
41840 On ch=1 n=92 v=57
41920 On ch=1 n=92 v=0
41920 On ch=1 n=80 v=60
42000 On ch=1 n=80 v=0
42000 On ch=1 n=80 v=65
42080 On ch=1 n=80 v=0
42080 On ch=1 n=73 v=63
42160 On ch=1 n=73 v=0
42160 On ch=1 n=80 v=56
42240 On ch=1 n=80 v=0
42240 On ch=1 n=73 v=65
42320 On ch=1 n=73 v=0
42320 On ch=1 n=75 v=62
42400 On ch=1 n=75 v=0
42400 On ch=1 n=73 v=57
42480 On ch=1 n=73 v=0
42480 On ch=1 n=87 v=64
42560 On ch=1 n=87 v=0
42560 On ch=1 n=85 v=61
42640 On ch=1 n=85 v=0
42640 On ch=1 n=99 v=61
42720 On ch=1 n=99 v=0
42720 On ch=1 n=97 v=73
42800 On ch=1 n=97 v=0
42800 On ch=1 n=99 v=65
42880 On ch=1 n=99 v=0
42880 On ch=1 n=97 v=66
42960 On ch=1 n=97 v=0
42960 On ch=1 n=85 v=80
43040 On ch=1 n=85 v=0
43040 On ch=1 n=87 v=75
43120 On ch=1 n=87 v=0
43120 On ch=1 n=85 v=70
43200 On ch=1 n=85 v=0
43200 On ch=1 n=73 v=81
43280 On ch=1 n=73 v=0
43280 On ch=1 n=75 v=77
43360 On ch=1 n=75 v=0
43360 On ch=1 n=73 v=73
43440 On ch=1 n=73 v=0
43440 On ch=1 n=87 v=78
43520 On ch=1 n=87 v=0
43520 On ch=1 n=85 v=70
43600 On ch=1 n=85 v=0
43600 On ch=1 n=99 v=74
43680 On ch=1 n=99 v=0
43680 On ch=1 n=97 v=73
43760 On ch=1 n=97 v=0
43760 On ch=1 n=99 v=70
43840 On ch=1 n=99 v=0
43840 On ch=1 n=97 v=66
43920 On ch=1 n=97 v=0
43920 On ch=1 n=85 v=70
44000 On ch=1 n=85 v=0
44000 On ch=1 n=87 v=67
44080 On ch=1 n=87 v=0
44080 On ch=1 n=85 v=66
44160 On ch=1 n=85 v=0
44160 On ch=1 n=97 v=65
44240 On ch=1 n=97 v=0
44240 On ch=1 n=99 v=65
44320 On ch=1 n=99 v=0
44320 On ch=1 n=97 v=62
44400 On ch=1 n=97 v=0
44400 On ch=1 n=85 v=66
44480 On ch=1 n=85 v=0
44480 On ch=1 n=87 v=69
44560 On ch=1 n=87 v=0
44560 On ch=1 n=85 v=65
44640 On ch=1 n=85 v=0
44640 On ch=1 n=97 v=71
44720 On ch=1 n=97 v=0
44720 On ch=1 n=99 v=68
44800 On ch=1 n=99 v=0
44800 On ch=1 n=97 v=72
44880 On ch=1 n=97 v=0
44880 On ch=1 n=85 v=75
44960 On ch=1 n=85 v=0
44960 On ch=1 n=87 v=72
45040 On ch=1 n=87 v=0
45040 On ch=1 n=85 v=68
45120 On ch=1 n=85 v=0
45120 On ch=1 n=97 v=79
45200 On ch=1 n=97 v=0
45200 On ch=1 n=99 v=75
45280 On ch=1 n=99 v=0
45280 On ch=1 n=97 v=70
45360 On ch=1 n=97 v=0
45360 On ch=1 n=85 v=74
45440 On ch=1 n=85 v=0
45440 On ch=1 n=87 v=69
45520 On ch=1 n=87 v=0
45520 On ch=1 n=85 v=68
45600 On ch=1 n=85 v=0
45600 On ch=1 n=97 v=71
45680 On ch=1 n=97 v=0
45680 On ch=1 n=99 v=67
45760 On ch=1 n=99 v=0
45760 On ch=1 n=97 v=64
45840 On ch=1 n=97 v=0
45840 On ch=1 n=85 v=67
45920 On ch=1 n=85 v=0
45920 On ch=1 n=87 v=66
46000 On ch=1 n=87 v=0
46000 On ch=1 n=85 v=65
46080 On ch=1 n=85 v=0
46080 Par ch=1 c=91 v=127
46081 On ch=1 n=90 v=96
46160 On ch=1 n=94 v=70
46161 On ch=1 n=90 v=0
46240 On ch=1 n=94 v=0
46240 On ch=1 n=85 v=70
46320 On ch=1 n=85 v=0
46320 On ch=1 n=90 v=92
46400 On ch=1 n=90 v=0
46400 On ch=1 n=87 v=74
46480 On ch=1 n=87 v=0
46480 On ch=1 n=90 v=70
46560 On ch=1 n=90 v=0
46560 On ch=1 n=85 v=97
46640 On ch=1 n=85 v=0
46640 On ch=1 n=90 v=74
46720 On ch=1 n=90 v=0
46720 On ch=1 n=82 v=71
46800 On ch=1 n=82 v=0
46800 On ch=1 n=85 v=84
46880 On ch=1 n=85 v=0
46880 On ch=1 n=78 v=73
46960 On ch=1 n=78 v=0
46960 On ch=1 n=82 v=70
47040 On ch=1 n=82 v=0
47040 On ch=1 n=78 v=74
47120 On ch=1 n=78 v=0
47120 On ch=1 n=82 v=69
47200 On ch=1 n=82 v=0
47200 On ch=1 n=73 v=66
47280 On ch=1 n=73 v=0
47280 On ch=1 n=78 v=69
47360 On ch=1 n=78 v=0
47360 On ch=1 n=75 v=66
47440 On ch=1 n=75 v=0
47440 On ch=1 n=78 v=63
47520 On ch=1 n=78 v=0
47520 On ch=1 n=73 v=74
47600 On ch=1 n=73 v=0
47600 On ch=1 n=78 v=68
47680 On ch=1 n=78 v=0
47680 On ch=1 n=70 v=63
47760 On ch=1 n=70 v=0
47760 On ch=1 n=73 v=74
47840 On ch=1 n=73 v=0
47840 On ch=1 n=66 v=64
47920 On ch=1 n=66 v=0
47920 On ch=1 n=70 v=61
48000 On ch=1 n=70 v=0
48000 On ch=1 n=61 v=74
48080 On ch=1 n=61 v=0
48080 On ch=1 n=73 v=72
48160 On ch=1 n=73 v=0
48160 On ch=1 n=68 v=67
48240 On ch=1 n=68 v=0
48240 On ch=1 n=73 v=75
48320 On ch=1 n=73 v=0
48320 On ch=1 n=68 v=66
48400 On ch=1 n=68 v=0
48400 On ch=1 n=80 v=67
48480 On ch=1 n=80 v=0
48480 On ch=1 n=68 v=72
48560 On ch=1 n=68 v=0
48560 On ch=1 n=80 v=73
48640 On ch=1 n=80 v=0
48640 On ch=1 n=75 v=71
48720 On ch=1 n=75 v=0
48720 On ch=1 n=80 v=78
48800 On ch=1 n=80 v=0
48800 On ch=1 n=75 v=76
48880 On ch=1 n=75 v=0
48880 On ch=1 n=87 v=72
48960 On ch=1 n=87 v=0
48960 On ch=1 n=75 v=82
49040 On ch=1 n=75 v=0
49040 On ch=1 n=87 v=77
49120 On ch=1 n=87 v=0
49120 On ch=1 n=80 v=72
49200 On ch=1 n=80 v=0
49200 On ch=1 n=87 v=86
49280 On ch=1 n=87 v=0
49280 On ch=1 n=80 v=74
49360 On ch=1 n=80 v=0
49360 On ch=1 n=92 v=75
49440 On ch=1 n=92 v=0
49440 On ch=1 n=80 v=88
49520 On ch=1 n=80 v=0
49520 On ch=1 n=92 v=81
49600 On ch=1 n=92 v=0
49600 On ch=1 n=85 v=77
49680 On ch=1 n=85 v=0
49680 On ch=1 n=92 v=89
49760 On ch=1 n=92 v=0
49760 On ch=1 n=85 v=85
49840 On ch=1 n=85 v=0
49840 On ch=1 n=97 v=83
49920 On ch=1 n=97 v=0
49920 On ch=1 n=90 v=97
50000 On ch=1 n=90 v=0
50000 On ch=1 n=94 v=74
50080 On ch=1 n=94 v=0
50080 On ch=1 n=85 v=71
50160 On ch=1 n=85 v=0
50160 On ch=1 n=90 v=94
50240 On ch=1 n=90 v=0
50240 On ch=1 n=87 v=75
50320 On ch=1 n=87 v=0
50320 On ch=1 n=90 v=73
50400 On ch=1 n=90 v=0
50400 On ch=1 n=85 v=95
50480 On ch=1 n=85 v=0
50480 On ch=1 n=90 v=76
50560 On ch=1 n=90 v=0
50560 On ch=1 n=82 v=73
50640 On ch=1 n=82 v=0
50640 On ch=1 n=85 v=86
50720 On ch=1 n=85 v=0
50720 On ch=1 n=78 v=77
50800 On ch=1 n=78 v=0
50800 On ch=1 n=82 v=73
50880 On ch=1 n=82 v=0
50880 On ch=1 n=78 v=74
50960 On ch=1 n=78 v=0
50960 On ch=1 n=82 v=66
51040 On ch=1 n=82 v=0
51040 On ch=1 n=73 v=64
51120 On ch=1 n=73 v=0
51120 On ch=1 n=78 v=70
51200 On ch=1 n=78 v=0
51200 On ch=1 n=75 v=67
51280 On ch=1 n=75 v=0
51280 On ch=1 n=78 v=67
51360 On ch=1 n=78 v=0
51360 On ch=1 n=73 v=74
51440 On ch=1 n=73 v=0
51440 On ch=1 n=78 v=62
51520 On ch=1 n=78 v=0
51520 On ch=1 n=70 v=55
51600 On ch=1 n=70 v=0
51600 On ch=1 n=73 v=74
51680 On ch=1 n=73 v=0
51680 On ch=1 n=66 v=64
51760 On ch=1 n=66 v=0
51760 On ch=1 n=70 v=60
51840 On ch=1 n=70 v=0
51840 On ch=1 n=63 v=74
51920 On ch=1 n=63 v=0
51920 On ch=1 n=75 v=71
52000 On ch=1 n=75 v=0
52000 On ch=1 n=68 v=67
52080 On ch=1 n=68 v=0
52080 On ch=1 n=75 v=74
52160 On ch=1 n=75 v=0
52160 On ch=1 n=68 v=72
52240 On ch=1 n=68 v=0
52240 On ch=1 n=80 v=67
52320 On ch=1 n=80 v=0
52320 On ch=1 n=70 v=74
52400 On ch=1 n=70 v=0
52400 On ch=1 n=82 v=85
52480 On ch=1 n=82 v=0
52480 On ch=1 n=70 v=72
52560 On ch=1 n=70 v=0
52560 On ch=1 n=82 v=74
52640 On ch=1 n=82 v=0
52640 On ch=1 n=70 v=70
52720 On ch=1 n=70 v=0
52720 On ch=1 n=82 v=66
52800 On ch=1 n=82 v=0
52800 On ch=1 n=75 v=74
52880 On ch=1 n=75 v=0
52880 On ch=1 n=87 v=70
52960 On ch=1 n=87 v=0
52960 On ch=1 n=80 v=70
53040 On ch=1 n=80 v=0
53040 On ch=1 n=87 v=71
53120 On ch=1 n=87 v=0
53120 On ch=1 n=80 v=69
53200 On ch=1 n=80 v=0
53200 On ch=1 n=92 v=69
53280 On ch=1 n=92 v=0
53280 On ch=1 n=82 v=72
53360 On ch=1 n=82 v=0
53360 On ch=1 n=94 v=79
53440 On ch=1 n=94 v=0
53440 On ch=1 n=82 v=69
53520 On ch=1 n=82 v=0
53520 On ch=1 n=94 v=72
53600 On ch=1 n=94 v=0
53600 On ch=1 n=82 v=72
53680 On ch=1 n=82 v=0
53680 On ch=1 n=94 v=70
53760 On ch=1 n=94 v=0
53760 On ch=1 n=82 v=74
53840 On ch=1 n=82 v=0
53840 On ch=1 n=94 v=72
53920 On ch=1 n=94 v=0
53920 On ch=1 n=87 v=72
54000 On ch=1 n=87 v=0
54000 On ch=1 n=94 v=74
54080 On ch=1 n=94 v=0
54080 On ch=1 n=80 v=69
54160 On ch=1 n=80 v=0
54160 On ch=1 n=92 v=67
54240 On ch=1 n=92 v=0
54240 On ch=1 n=80 v=75
54320 On ch=1 n=80 v=0
54320 On ch=1 n=92 v=73
54400 On ch=1 n=92 v=0
54400 On ch=1 n=85 v=70
54480 On ch=1 n=85 v=0
54480 On ch=1 n=92 v=77
54560 On ch=1 n=92 v=0
54560 On ch=1 n=78 v=69
54640 On ch=1 n=78 v=0
54640 On ch=1 n=90 v=70
54720 On ch=1 n=90 v=0
54720 On ch=1 n=73 v=77
54800 On ch=1 n=73 v=0
54800 On ch=1 n=85 v=72
54880 On ch=1 n=85 v=0
54880 On ch=1 n=80 v=69
54960 On ch=1 n=80 v=0
54960 On ch=1 n=85 v=78
55040 On ch=1 n=85 v=0
55040 On ch=1 n=80 v=72
55120 On ch=1 n=80 v=0
55120 On ch=1 n=92 v=75
55200 On ch=1 n=92 v=0
55200 On ch=1 n=78 v=78
55280 On ch=1 n=78 v=0
55280 On ch=1 n=90 v=74
55360 On ch=1 n=90 v=0
55360 On ch=1 n=85 v=72
55440 On ch=1 n=85 v=0
55440 On ch=1 n=90 v=80
55520 On ch=1 n=90 v=0
55520 On ch=1 n=85 v=74
55600 On ch=1 n=85 v=0
55600 On ch=1 n=97 v=78
55680 On ch=1 n=97 v=0
55680 On ch=1 n=82 v=80
55760 On ch=1 n=82 v=0
55760 On ch=1 n=94 v=74
55840 On ch=1 n=94 v=0
55840 On ch=1 n=87 v=71
55920 On ch=1 n=87 v=0
55920 On ch=1 n=94 v=81
56000 On ch=1 n=94 v=0
56000 On ch=1 n=80 v=79
56080 On ch=1 n=80 v=0
56080 On ch=1 n=92 v=76
56160 On ch=1 n=92 v=0
56160 On ch=1 n=80 v=82
56240 On ch=1 n=80 v=0
56240 On ch=1 n=92 v=76
56320 On ch=1 n=92 v=0
56320 On ch=1 n=85 v=73
56400 On ch=1 n=85 v=0
56400 On ch=1 n=92 v=82
56480 On ch=1 n=92 v=0
56480 On ch=1 n=78 v=74
56560 On ch=1 n=78 v=0
56560 On ch=1 n=90 v=70
56640 On ch=1 n=90 v=0
56640 On ch=1 n=73 v=83
56720 On ch=1 n=73 v=0
56720 On ch=1 n=85 v=74
56800 On ch=1 n=85 v=0
56800 On ch=1 n=80 v=71
56880 On ch=1 n=80 v=0
56880 On ch=1 n=85 v=83
56960 On ch=1 n=85 v=0
56960 On ch=1 n=80 v=76
57040 On ch=1 n=80 v=0
57040 On ch=1 n=92 v=82
57120 On ch=1 n=92 v=0
57120 On ch=1 n=78 v=86
57200 On ch=1 n=78 v=0
57200 On ch=1 n=90 v=76
57280 On ch=1 n=90 v=0
57280 On ch=1 n=85 v=73
57360 On ch=1 n=85 v=0
57360 On ch=1 n=90 v=87
57440 On ch=1 n=90 v=0
57440 On ch=1 n=85 v=79
57520 On ch=1 n=85 v=0
57520 On ch=1 n=97 v=75
57600 On ch=1 n=97 v=0
57600 On ch=1 n=82 v=83
57680 On ch=1 n=82 v=0
57680 On ch=1 n=94 v=74
57760 On ch=1 n=94 v=0
57760 On ch=1 n=87 v=75
57840 On ch=1 n=87 v=0
57840 On ch=1 n=94 v=86
57920 On ch=1 n=94 v=0
57920 On ch=1 n=80 v=77
58000 On ch=1 n=80 v=0
58000 On ch=1 n=92 v=74
58080 On ch=1 n=92 v=0
58080 On ch=1 n=82 v=87
58160 On ch=1 n=82 v=0
58160 On ch=1 n=94 v=80
58240 On ch=1 n=94 v=0
58240 On ch=1 n=87 v=74
58320 On ch=1 n=87 v=0
58320 On ch=1 n=94 v=84
58400 On ch=1 n=94 v=0
58400 On ch=1 n=80 v=78
58480 On ch=1 n=80 v=0
58480 On ch=1 n=92 v=74
58560 On ch=1 n=92 v=0
58560 On ch=1 n=82 v=92
58640 On ch=1 n=82 v=0
58640 On ch=1 n=94 v=85
58720 On ch=1 n=94 v=0
58720 On ch=1 n=87 v=81
58800 On ch=1 n=87 v=0
58800 On ch=1 n=94 v=93
58880 On ch=1 n=94 v=0
58880 On ch=1 n=80 v=85
58960 On ch=1 n=80 v=0
58960 On ch=1 n=92 v=90
59040 On ch=1 n=92 v=0
59040 On ch=1 n=82 v=94
59120 On ch=1 n=82 v=0
59120 On ch=1 n=94 v=86
59200 On ch=1 n=94 v=0
59200 On ch=1 n=87 v=83
59280 On ch=1 n=87 v=0
59280 On ch=1 n=94 v=97
59360 On ch=1 n=94 v=0
59360 On ch=1 n=80 v=80
59440 On ch=1 n=80 v=0
59440 On ch=1 n=92 v=88
59520 On ch=1 n=92 v=0
59520 On ch=1 n=85 v=98
59600 On ch=1 n=85 v=0
59600 On ch=1 n=94 v=90
59680 On ch=1 n=94 v=0
59680 On ch=1 n=80 v=87
59760 On ch=1 n=80 v=0
59760 On ch=1 n=92 v=100
59840 On ch=1 n=92 v=0
59840 On ch=1 n=85 v=90
59920 On ch=1 n=85 v=0
59920 On ch=1 n=94 v=92
60000 On ch=1 n=94 v=0
60000 On ch=1 n=80 v=103
60080 On ch=1 n=80 v=0
60080 On ch=1 n=92 v=93
60160 On ch=1 n=92 v=0
60160 On ch=1 n=85 v=86
60240 On ch=1 n=85 v=0
60240 On ch=1 n=94 v=94
60320 On ch=1 n=94 v=0
60320 On ch=1 n=80 v=90
60400 On ch=1 n=80 v=0
60400 On ch=1 n=92 v=86
60480 On ch=1 n=92 v=0
60480 On ch=1 n=85 v=96
60560 On ch=1 n=85 v=0
60560 On ch=1 n=94 v=91
60640 On ch=1 n=94 v=0
60640 On ch=1 n=80 v=85
60720 On ch=1 n=80 v=0
60720 On ch=1 n=92 v=89
60800 On ch=1 n=92 v=0
60800 On ch=1 n=85 v=82
60880 On ch=1 n=85 v=0
60880 On ch=1 n=94 v=75
60960 On ch=1 n=94 v=0
60960 On ch=1 n=80 v=85
61040 On ch=1 n=80 v=0
61040 On ch=1 n=92 v=77
61120 On ch=1 n=92 v=0
61120 On ch=1 n=85 v=71
61200 On ch=1 n=85 v=0
61200 On ch=1 n=94 v=75
61280 On ch=1 n=94 v=0
61280 On ch=1 n=80 v=68
61360 On ch=1 n=80 v=0
61360 On ch=1 n=92 v=64
61440 On ch=1 n=92 v=0
61440 On ch=1 n=99 v=57
61520 On ch=1 n=99 v=0
61560 On ch=1 n=97 v=57
61600 On ch=1 n=97 v=0
61600 On ch=1 n=94 v=52
61680 On ch=1 n=94 v=0
61680 On ch=1 n=92 v=57
61760 On ch=1 n=92 v=0
61760 On ch=1 n=90 v=57
61840 On ch=1 n=90 v=0
61840 On ch=1 n=87 v=54
61920 On ch=1 n=87 v=0
61920 On ch=1 n=85 v=57
62000 On ch=1 n=85 v=0
62000 On ch=1 n=82 v=57
62080 On ch=1 n=82 v=0
62080 On ch=1 n=80 v=53
62160 On ch=1 n=80 v=0
62160 On ch=1 n=78 v=57
62240 On ch=1 n=78 v=0
62240 On ch=1 n=75 v=57
62320 On ch=1 n=75 v=0
62320 On ch=1 n=73 v=54
62400 On ch=1 n=73 v=0
62400 On ch=1 n=68 v=65
62880 On ch=1 n=68 v=0
62880 On ch=1 n=70 v=69
63240 On ch=1 n=70 v=0
63240 On ch=1 n=68 v=64
63360 On ch=1 n=68 v=0
63360 On ch=1 n=66 v=71
63840 On ch=1 n=66 v=0
63840 On ch=1 n=92 v=63
63920 On ch=1 n=92 v=0
63920 On ch=1 n=94 v=53
64000 On ch=1 n=94 v=0
64000 On ch=1 n=92 v=57
64080 On ch=1 n=92 v=0
64080 On ch=1 n=85 v=59
64160 On ch=1 n=85 v=0
64160 On ch=1 n=97 v=59
64240 On ch=1 n=97 v=0
64240 On ch=1 n=85 v=54
64320 On ch=1 n=85 v=0
64320 On ch=1 n=85 v=63
64400 On ch=1 n=85 v=0
64400 On ch=1 n=87 v=63
64480 On ch=1 n=87 v=0
64480 On ch=1 n=85 v=63
64560 On ch=1 n=85 v=0
64560 On ch=1 n=78 v=58
64640 On ch=1 n=78 v=0
64640 On ch=1 n=90 v=55
64720 On ch=1 n=90 v=0
64720 On ch=1 n=78 v=58
64800 On ch=1 n=78 v=0
64800 On ch=1 n=80 v=63
64880 On ch=1 n=80 v=0
64880 On ch=1 n=82 v=54
64960 On ch=1 n=82 v=0
64960 On ch=1 n=80 v=56
65040 On ch=1 n=80 v=0
65040 On ch=1 n=73 v=78
65360 On ch=1 n=73 v=0
65360 On ch=1 n=78 v=62
65440 On ch=1 n=78 v=0
65440 On ch=1 n=80 v=57
65520 On ch=1 n=80 v=0
65520 On ch=1 n=82 v=66
65600 On ch=1 n=82 v=0
65600 On ch=1 n=80 v=64
65680 On ch=1 n=80 v=0
65680 On ch=1 n=78 v=57
65760 On ch=1 n=78 v=0
65760 On ch=1 n=73 v=62
65840 On ch=1 n=73 v=0
65840 On ch=1 n=80 v=64
65920 On ch=1 n=80 v=0
65920 On ch=1 n=85 v=61
66000 On ch=1 n=85 v=0
66000 On ch=1 n=87 v=67
66080 On ch=1 n=87 v=0
66080 On ch=1 n=85 v=65
66160 On ch=1 n=85 v=0
66160 On ch=1 n=80 v=59
66240 On ch=1 n=80 v=0
66240 On ch=1 n=78 v=66
66320 On ch=1 n=78 v=0
66320 On ch=1 n=85 v=63
66400 On ch=1 n=85 v=0
66400 On ch=1 n=90 v=59
66480 On ch=1 n=90 v=0
66480 On ch=1 n=92 v=64
66560 On ch=1 n=92 v=0
66560 On ch=1 n=90 v=64
66640 On ch=1 n=90 v=0
66640 On ch=1 n=87 v=57
66720 On ch=1 n=87 v=0
66720 On ch=1 n=85 v=70
66800 On ch=1 n=85 v=0
66800 On ch=1 n=92 v=67
66880 On ch=1 n=92 v=0
66880 On ch=1 n=97 v=65
66960 On ch=1 n=97 v=0
66960 On ch=1 n=99 v=74
67040 On ch=1 n=99 v=0
67040 On ch=1 n=97 v=67
67120 On ch=1 n=97 v=0
67120 On ch=1 n=92 v=62
67200 On ch=1 n=92 v=0
67200 On ch=1 n=90 v=62
67280 On ch=1 n=90 v=0
67280 On ch=1 n=92 v=57
67360 On ch=1 n=92 v=0
67360 On ch=1 n=90 v=56
67440 On ch=1 n=90 v=0
67440 On ch=1 n=85 v=63
67520 On ch=1 n=85 v=0
67520 On ch=1 n=97 v=59
67600 On ch=1 n=97 v=0
67600 On ch=1 n=85 v=59
67680 On ch=1 n=85 v=0
67680 On ch=1 n=85 v=63
67760 On ch=1 n=85 v=0
67760 On ch=1 n=87 v=60
67840 On ch=1 n=87 v=0
67840 On ch=1 n=85 v=57
67920 On ch=1 n=85 v=0
67920 On ch=1 n=80 v=59
68000 On ch=1 n=80 v=0
68000 On ch=1 n=92 v=59
68080 On ch=1 n=92 v=0
68080 On ch=1 n=80 v=59
68160 On ch=1 n=80 v=0
68160 On ch=1 n=80 v=63
68240 On ch=1 n=80 v=0
68240 On ch=1 n=82 v=59
68320 On ch=1 n=82 v=0
68320 On ch=1 n=80 v=55
68400 On ch=1 n=80 v=0
68400 On ch=1 n=78 v=58
68480 On ch=1 n=78 v=0
68480 On ch=1 n=90 v=58
68560 On ch=1 n=90 v=0
68560 On ch=1 n=78 v=55
68640 On ch=1 n=78 v=0
68640 On ch=1 n=73 v=63
69200 On ch=1 n=73 v=0
69200 On ch=1 n=78 v=64
69280 On ch=1 n=78 v=0
69280 On ch=1 n=80 v=62
69360 On ch=1 n=80 v=0
69360 On ch=1 n=82 v=70
69440 On ch=1 n=82 v=0
69440 On ch=1 n=80 v=64
69520 On ch=1 n=80 v=0
69520 On ch=1 n=78 v=61
69600 On ch=1 n=78 v=0
69600 On ch=1 n=73 v=69
69680 On ch=1 n=73 v=0
69680 On ch=1 n=80 v=66
69760 On ch=1 n=80 v=0
69760 On ch=1 n=85 v=64
69840 On ch=1 n=85 v=0
69840 On ch=1 n=87 v=73
69920 On ch=1 n=87 v=0
69920 On ch=1 n=85 v=67
70000 On ch=1 n=85 v=0
70000 On ch=1 n=80 v=65
70080 On ch=1 n=80 v=0
70080 On ch=1 n=78 v=74
70160 On ch=1 n=78 v=0
70160 On ch=1 n=85 v=71
70240 On ch=1 n=85 v=0
70240 On ch=1 n=90 v=70
70320 On ch=1 n=90 v=0
70320 On ch=1 n=92 v=76
70400 On ch=1 n=92 v=0
70400 On ch=1 n=90 v=70
70480 On ch=1 n=90 v=0
70480 On ch=1 n=85 v=70
70560 On ch=1 n=85 v=0
70560 On ch=1 n=80 v=79
70640 On ch=1 n=80 v=0
70640 On ch=1 n=85 v=81
70720 On ch=1 n=85 v=0
70720 On ch=1 n=92 v=78
70800 On ch=1 n=92 v=0
70800 On ch=1 n=94 v=86
70880 On ch=1 n=94 v=0
70880 On ch=1 n=92 v=78
70960 On ch=1 n=92 v=0
70960 On ch=1 n=85 v=74
71040 On ch=1 n=85 v=0
71040 On ch=1 n=94 v=87
71120 On ch=1 n=94 v=0
71120 On ch=1 n=85 v=77
71200 On ch=1 n=85 v=0
71200 On ch=1 n=92 v=71
71280 On ch=1 n=92 v=0
71280 On ch=1 n=82 v=83
71360 On ch=1 n=82 v=0
71360 On ch=1 n=92 v=78
71440 On ch=1 n=92 v=0
71440 On ch=1 n=85 v=70
71520 On ch=1 n=85 v=0
71520 On ch=1 n=90 v=83
71600 On ch=1 n=90 v=0
71600 On ch=1 n=82 v=76
71680 On ch=1 n=82 v=0
71680 On ch=1 n=87 v=72
71760 On ch=1 n=87 v=0
71760 On ch=1 n=80 v=83
71840 On ch=1 n=80 v=0
71840 On ch=1 n=85 v=76
71920 On ch=1 n=85 v=0
71920 On ch=1 n=73 v=72
72000 On ch=1 n=73 v=0
72000 On ch=1 n=82 v=83
72080 On ch=1 n=82 v=0
72080 On ch=1 n=73 v=78
72160 On ch=1 n=73 v=0
72160 On ch=1 n=80 v=74
72240 On ch=1 n=80 v=0
72240 On ch=1 n=70 v=83
72320 On ch=1 n=70 v=0
72320 On ch=1 n=80 v=72
72400 On ch=1 n=80 v=0
72400 On ch=1 n=73 v=72
72480 On ch=1 n=73 v=0
72480 On ch=1 n=78 v=83
72560 On ch=1 n=78 v=0
72560 On ch=1 n=70 v=78
72640 On ch=1 n=70 v=0
72640 On ch=1 n=75 v=74
72720 On ch=1 n=75 v=0
72720 On ch=1 n=68 v=83
72800 On ch=1 n=68 v=0
72800 On ch=1 n=73 v=77
72880 On ch=1 n=73 v=0
72880 On ch=1 n=61 v=76
72960 On ch=1 n=61 v=0
72960 On ch=1 n=70 v=87
73040 On ch=1 n=70 v=0
73040 On ch=1 n=61 v=82
73120 On ch=1 n=61 v=0
73120 On ch=1 n=68 v=77
73200 On ch=1 n=68 v=0
73200 On ch=1 n=58 v=88
73280 On ch=1 n=58 v=0
73280 On ch=1 n=68 v=77
73360 On ch=1 n=68 v=0
73360 On ch=1 n=61 v=81
73440 On ch=1 n=61 v=0
73440 On ch=1 n=66 v=93
73520 On ch=1 n=66 v=0
73520 On ch=1 n=58 v=87
73600 On ch=1 n=58 v=0
73600 On ch=1 n=63 v=86
73680 On ch=1 n=63 v=0
73680 On ch=1 n=56 v=97
73760 On ch=1 n=56 v=0
73760 On ch=1 n=61 v=91
73840 On ch=1 n=61 v=0
73840 On ch=1 n=49 v=88
73920 On ch=1 n=49 v=0
73920 On ch=1 n=58 v=101
74000 On ch=1 n=58 v=0
74000 On ch=1 n=54 v=92
74080 On ch=1 n=54 v=0
74080 On ch=1 n=63 v=87
74160 On ch=1 n=63 v=0
74160 On ch=1 n=49 v=101
74240 On ch=1 n=49 v=0
74240 On ch=1 n=61 v=92
74320 On ch=1 n=61 v=0
74320 On ch=1 n=56 v=86
74400 On ch=1 n=56 v=0
74400 On ch=1 n=58 v=101
74480 On ch=1 n=58 v=0
74480 On ch=1 n=54 v=93
74560 On ch=1 n=54 v=0
74560 On ch=1 n=63 v=89
74640 On ch=1 n=63 v=0
74640 On ch=1 n=49 v=101
74720 On ch=1 n=49 v=0
74720 On ch=1 n=61 v=93
74800 On ch=1 n=61 v=0
74800 On ch=1 n=56 v=89
74880 On ch=1 n=56 v=0
74880 On ch=1 n=58 v=101
75120 On ch=1 n=58 v=0
75120 On ch=1 n=54 v=48
75120 On ch=1 n=58 v=60
75200 On ch=1 n=58 v=0
75200 On ch=1 n=54 v=0
75200 On ch=1 n=56 v=59
75280 On ch=1 n=56 v=0
75280 On ch=1 n=54 v=54
75360 On ch=1 n=54 v=0
75360 On ch=1 n=66 v=63
75360 On ch=1 n=63 v=50
75440 On ch=1 n=63 v=0
75440 On ch=1 n=66 v=0
75440 On ch=1 n=61 v=60
75520 On ch=1 n=61 v=0
75520 On ch=1 n=58 v=56
75600 On ch=1 n=58 v=0
75600 On ch=1 n=70 v=64
75600 On ch=1 n=66 v=50
75680 On ch=1 n=66 v=0
75680 On ch=1 n=70 v=0
75680 On ch=1 n=63 v=62
75760 On ch=1 n=63 v=0
75760 On ch=1 n=61 v=58
75840 On ch=1 n=61 v=0
75840 On ch=1 n=70 v=52
75840 On ch=1 n=73 v=66
75920 On ch=1 n=73 v=0
75920 On ch=1 n=70 v=0
75920 On ch=1 n=68 v=64
76000 On ch=1 n=68 v=0
76000 On ch=1 n=66 v=58
76080 On ch=1 n=66 v=0
76080 On ch=1 n=78 v=69
76080 On ch=1 n=75 v=55
76160 On ch=1 n=75 v=0
76160 On ch=1 n=78 v=0
76160 On ch=1 n=73 v=59
76240 On ch=1 n=73 v=0
76240 On ch=1 n=70 v=59
76320 On ch=1 n=70 v=0
76320 On ch=1 n=82 v=70
76320 On ch=1 n=78 v=55
76400 On ch=1 n=78 v=0
76400 On ch=1 n=82 v=0
76400 On ch=1 n=75 v=65
76480 On ch=1 n=75 v=0
76480 On ch=1 n=73 v=64
76560 On ch=1 n=73 v=0
76560 On ch=1 n=85 v=71
76560 On ch=1 n=82 v=56
76640 On ch=1 n=82 v=0
76640 On ch=1 n=85 v=0
76640 On ch=1 n=80 v=67
76720 On ch=1 n=80 v=0
76720 On ch=1 n=78 v=67
76800 On ch=1 n=78 v=0
76800 On ch=1 n=90 v=73
76800 On ch=1 n=87 v=58
76880 On ch=1 n=87 v=0
76880 On ch=1 n=90 v=0
76880 On ch=1 n=85 v=67
76960 On ch=1 n=85 v=0
76960 On ch=1 n=82 v=65
77040 On ch=1 n=82 v=0
77040 On ch=1 n=94 v=75
77040 On ch=1 n=90 v=59
77120 On ch=1 n=90 v=0
77120 On ch=1 n=94 v=0
77120 On ch=1 n=87 v=69
77200 On ch=1 n=87 v=0
77200 On ch=1 n=85 v=66
77280 On ch=1 n=85 v=0
77280 On ch=1 n=90 v=78
77280 On ch=1 n=87 v=62
77360 On ch=1 n=87 v=0
77360 On ch=1 n=90 v=0
77360 On ch=1 n=85 v=70
77440 On ch=1 n=85 v=0
77440 On ch=1 n=82 v=69
77520 On ch=1 n=82 v=0
77520 On ch=1 n=94 v=78
77520 On ch=1 n=90 v=62
77600 On ch=1 n=90 v=0
77600 On ch=1 n=94 v=0
77600 On ch=1 n=87 v=71
77680 On ch=1 n=87 v=0
77680 On ch=1 n=85 v=70
77760 On ch=1 n=85 v=0
77760 On ch=1 n=90 v=81
77760 On ch=1 n=87 v=64
77840 On ch=1 n=87 v=0
77840 On ch=1 n=90 v=0
77840 On ch=1 n=85 v=74
77920 On ch=1 n=85 v=0
77920 On ch=1 n=82 v=73
78000 On ch=1 n=82 v=0
78000 On ch=1 n=94 v=81
78000 On ch=1 n=90 v=64
78080 On ch=1 n=90 v=0
78080 On ch=1 n=94 v=0
78080 On ch=1 n=87 v=75
78160 On ch=1 n=87 v=0
78160 On ch=1 n=85 v=74
78240 On ch=1 n=85 v=0
78240 On ch=1 n=90 v=82
78240 On ch=1 n=87 v=65
78320 On ch=1 n=87 v=0
78320 On ch=1 n=90 v=0
78320 On ch=1 n=85 v=75
78400 On ch=1 n=85 v=0
78400 On ch=1 n=82 v=75
78480 On ch=1 n=82 v=0
78480 On ch=1 n=94 v=85
78480 On ch=1 n=90 v=67
78560 On ch=1 n=90 v=0
78560 On ch=1 n=94 v=0
78560 On ch=1 n=87 v=77
78640 On ch=1 n=87 v=0
78640 On ch=1 n=85 v=75
78720 On ch=1 n=85 v=0
78720 On ch=1 n=82 v=89
78720 On ch=1 n=90 v=89
78800 On ch=1 n=90 v=0
78800 On ch=1 n=82 v=0
78880 On ch=1 n=78 v=94
78880 On ch=1 n=90 v=94
78960 On ch=1 n=90 v=0
78960 On ch=1 n=78 v=0
78960 On ch=1 n=87 v=94
78960 On ch=1 n=75 v=94
79020 On ch=1 n=75 v=0
79020 On ch=1 n=87 v=0
79040 On ch=1 n=85 v=95
79040 On ch=1 n=73 v=95
79100 On ch=1 n=73 v=0
79100 On ch=1 n=85 v=0
79120 On ch=1 n=82 v=96
79120 On ch=1 n=70 v=96
79180 On ch=1 n=70 v=0
79180 On ch=1 n=82 v=0
79200 On ch=1 n=80 v=97
79200 On ch=1 n=68 v=97
79260 On ch=1 n=68 v=0
79260 On ch=1 n=80 v=0
79280 On ch=1 n=78 v=98
79280 On ch=1 n=66 v=98
79340 On ch=1 n=66 v=0
79340 On ch=1 n=78 v=0
79360 On ch=1 n=75 v=98
79360 On ch=1 n=63 v=98
79420 On ch=1 n=63 v=0
79420 On ch=1 n=75 v=0
79440 On ch=1 n=73 v=100
79440 On ch=1 n=61 v=100
79500 On ch=1 n=61 v=0
79500 On ch=1 n=73 v=0
79520 On ch=1 n=70 v=101
79520 On ch=1 n=58 v=101
79580 On ch=1 n=58 v=0
79580 On ch=1 n=70 v=0
79600 On ch=1 n=68 v=103
79600 On ch=1 n=56 v=103
79660 On ch=1 n=56 v=0
79660 On ch=1 n=68 v=0
79680 On ch=1 n=54 v=111
79680 On ch=1 n=66 v=111
79800 On ch=1 n=66 v=0
79800 On ch=1 n=54 v=0
80160 On ch=1 n=94 v=118
80160 On ch=1 n=90 v=108
80160 On ch=1 n=85 v=108
80160 On ch=1 n=82 v=108
80640 On ch=1 n=82 v=0
80640 On ch=1 n=94 v=0
80640 On ch=1 n=90 v=0
80640 On ch=1 n=85 v=0
80640 On ch=1 n=54 v=112
81600 On ch=1 n=54 v=0
81600 Meta TrkEnd
TrkEnd
MTrk
0 Meta TrkName "Piano left"
0 PrCh ch=1 p=0
0 Par ch=1 c=7 v=100
0 Par ch=1 c=10 v=64
0 Par ch=1 c=91 v=127
0 Par ch=1 c=64 v=0
0 Par ch=1 c=91 v=127
0 Par ch=1 c=64 v=0
0 Meta Text "bdca426d104a26ac9dcb070447587523"
1 On ch=1 n=54 v=75
1 On ch=1 n=61 v=75
1 On ch=1 n=58 v=75
1 On ch=1 n=66 v=89
91 On ch=1 n=66 v=0
91 On ch=1 n=54 v=0
91 On ch=1 n=61 v=0
91 On ch=1 n=58 v=0
240 On ch=1 n=54 v=71
240 On ch=1 n=63 v=71
240 On ch=1 n=59 v=71
240 On ch=1 n=66 v=84
330 On ch=1 n=66 v=0
330 On ch=1 n=54 v=0
330 On ch=1 n=63 v=0
330 On ch=1 n=59 v=0
480 On ch=1 n=54 v=75
480 On ch=1 n=61 v=75
480 On ch=1 n=58 v=75
480 On ch=1 n=66 v=89
570 On ch=1 n=66 v=0
570 On ch=1 n=54 v=0
570 On ch=1 n=61 v=0
570 On ch=1 n=58 v=0
960 On ch=1 n=42 v=48
960 On ch=1 n=54 v=57
1002 Par ch=1 c=64 v=127
1050 On ch=1 n=54 v=0
1050 On ch=1 n=42 v=0
1200 On ch=1 n=66 v=55
1200 On ch=1 n=63 v=46
1200 On ch=1 n=59 v=46
1290 On ch=1 n=59 v=0
1290 On ch=1 n=63 v=0
1290 On ch=1 n=66 v=0
1440 On ch=1 n=66 v=57
1440 On ch=1 n=61 v=48
1440 On ch=1 n=58 v=48
1451 Par ch=1 c=64 v=0
1530 On ch=1 n=58 v=0
1530 On ch=1 n=61 v=0
1530 On ch=1 n=66 v=0
1920 On ch=1 n=37 v=47
1920 On ch=1 n=49 v=56
1970 Par ch=1 c=64 v=127
2010 On ch=1 n=49 v=0
2010 On ch=1 n=37 v=0
2160 On ch=1 n=65 v=60
2160 On ch=1 n=61 v=50
2160 On ch=1 n=56 v=50
2167 Par ch=1 c=64 v=0
2250 On ch=1 n=56 v=0
2250 On ch=1 n=61 v=0
2250 On ch=1 n=65 v=0
2400 On ch=1 n=63 v=63
2400 On ch=1 n=59 v=53
2400 On ch=1 n=56 v=53
2439 Par ch=1 c=64 v=127
2490 On ch=1 n=56 v=0
2490 On ch=1 n=59 v=0
2490 On ch=1 n=63 v=0
2640 On ch=1 n=44 v=68
2730 On ch=1 n=44 v=0
2880 Par ch=1 c=64 v=0
2880 On ch=1 n=49 v=70
2937 Par ch=1 c=64 v=127
3120 On ch=1 n=63 v=73
3120 On ch=1 n=59 v=62
3120 On ch=1 n=56 v=62
3124 Par ch=1 c=64 v=0
3360 On ch=1 n=56 v=0
3360 On ch=1 n=59 v=0
3360 On ch=1 n=63 v=0
3360 On ch=1 n=61 v=78
3360 On ch=1 n=59 v=64
3360 On ch=1 n=56 v=64
3395 Par ch=1 c=64 v=127
3600 On ch=1 n=56 v=0
3600 On ch=1 n=49 v=0
3600 On ch=1 n=61 v=0
3600 On ch=1 n=59 v=0
3840 Par ch=1 c=64 v=0
3840 On ch=1 n=58 v=73
3840 On ch=1 n=66 v=87
3840 On ch=1 n=61 v=73
3840 On ch=1 n=54 v=73
3930 On ch=1 n=54 v=0
3930 On ch=1 n=58 v=0
3930 On ch=1 n=66 v=0
3930 On ch=1 n=61 v=0
4080 On ch=1 n=66 v=82
4080 On ch=1 n=63 v=69
4080 On ch=1 n=59 v=69
4080 On ch=1 n=54 v=69
4170 On ch=1 n=54 v=0
4170 On ch=1 n=66 v=0
4170 On ch=1 n=63 v=0
4170 On ch=1 n=59 v=0
4320 On ch=1 n=66 v=87
4320 On ch=1 n=61 v=73
4320 On ch=1 n=58 v=73
4320 On ch=1 n=54 v=73
4410 On ch=1 n=54 v=0
4410 On ch=1 n=66 v=0
4410 On ch=1 n=61 v=0
4410 On ch=1 n=58 v=0
4800 On ch=1 n=42 v=47
4800 On ch=1 n=54 v=56
4836 Par ch=1 c=64 v=127
4890 On ch=1 n=54 v=0
4890 On ch=1 n=42 v=0
5040 On ch=1 n=66 v=48
5040 On ch=1 n=63 v=40
5040 On ch=1 n=59 v=40
5130 On ch=1 n=59 v=0
5130 On ch=1 n=63 v=0
5130 On ch=1 n=66 v=0
5280 On ch=1 n=66 v=57
5280 On ch=1 n=61 v=48
5280 On ch=1 n=58 v=48
5284 Par ch=1 c=64 v=0
5370 On ch=1 n=58 v=0
5370 On ch=1 n=61 v=0
5370 On ch=1 n=66 v=0
5760 On ch=1 n=47 v=66
6000 On ch=1 n=47 v=0
6000 On ch=1 n=63 v=71
6000 On ch=1 n=56 v=60
6480 On ch=1 n=56 v=0
6480 On ch=1 n=63 v=0
6480 On ch=1 n=47 v=64
6690 On ch=1 n=47 v=0
6690 On ch=1 n=46 v=57
6705 On ch=1 n=53 v=59
6720 On ch=1 n=62 v=77
6756 Par ch=1 c=64 v=127
6930 On ch=1 n=62 v=0
6930 On ch=1 n=53 v=0
6930 On ch=1 n=46 v=0
6930 On ch=1 n=58 v=56
6945 On ch=1 n=65 v=56
6960 On ch=1 n=74 v=71
7200 On ch=1 n=74 v=0
7200 On ch=1 n=65 v=0
7200 On ch=1 n=58 v=0
7207 Par ch=1 c=64 v=0
7680 Par ch=1 c=91 v=127
7680 Par ch=1 c=64 v=0
7681 On ch=1 n=66 v=86
7681 On ch=1 n=61 v=72
7681 On ch=1 n=58 v=72
7681 On ch=1 n=54 v=72
7771 On ch=1 n=54 v=0
7771 On ch=1 n=66 v=0
7771 On ch=1 n=61 v=0
7771 On ch=1 n=58 v=0
7920 On ch=1 n=66 v=77
7920 On ch=1 n=63 v=64
7920 On ch=1 n=59 v=64
7920 On ch=1 n=54 v=64
8010 On ch=1 n=54 v=0
8010 On ch=1 n=66 v=0
8010 On ch=1 n=63 v=0
8010 On ch=1 n=59 v=0
8160 On ch=1 n=66 v=86
8160 On ch=1 n=61 v=72
8160 On ch=1 n=58 v=72
8160 On ch=1 n=54 v=72
8250 On ch=1 n=54 v=0
8250 On ch=1 n=66 v=0
8250 On ch=1 n=61 v=0
8250 On ch=1 n=58 v=0
8640 On ch=1 n=54 v=56
8640 On ch=1 n=42 v=56
8683 Par ch=1 c=64 v=127
8730 On ch=1 n=42 v=0
8730 On ch=1 n=54 v=0
8880 On ch=1 n=66 v=48
8880 On ch=1 n=63 v=40
8880 On ch=1 n=59 v=40
8970 On ch=1 n=59 v=0
8970 On ch=1 n=63 v=0
8970 On ch=1 n=66 v=0
9120 On ch=1 n=66 v=56
9120 On ch=1 n=61 v=47
9120 On ch=1 n=58 v=47
9124 Par ch=1 c=64 v=0
9210 On ch=1 n=58 v=0
9210 On ch=1 n=61 v=0
9210 On ch=1 n=66 v=0
9600 On ch=1 n=37 v=51
9600 On ch=1 n=49 v=61
9632 Par ch=1 c=64 v=127
9690 On ch=1 n=49 v=0
9690 On ch=1 n=37 v=0
9840 On ch=1 n=65 v=61
9840 On ch=1 n=61 v=51
9840 On ch=1 n=56 v=51
9844 Par ch=1 c=64 v=0
9930 On ch=1 n=56 v=0
9930 On ch=1 n=61 v=0
9930 On ch=1 n=65 v=0
10080 On ch=1 n=63 v=62
10080 On ch=1 n=59 v=52
10080 On ch=1 n=56 v=52
10112 Par ch=1 c=64 v=127
10170 On ch=1 n=56 v=0
10170 On ch=1 n=59 v=0
10170 On ch=1 n=63 v=0
10320 On ch=1 n=44 v=66
10410 On ch=1 n=44 v=0
10560 On ch=1 n=49 v=70
10563 Par ch=1 c=64 v=0
10617 Par ch=1 c=64 v=127
10800 On ch=1 n=63 v=73
10800 On ch=1 n=59 v=62
10800 On ch=1 n=56 v=62
10808 Par ch=1 c=64 v=0
11040 On ch=1 n=56 v=0
11040 On ch=1 n=59 v=0
11040 On ch=1 n=63 v=0
11040 On ch=1 n=61 v=78
11040 On ch=1 n=59 v=64
11040 On ch=1 n=56 v=64
11079 Par ch=1 c=64 v=127
11280 On ch=1 n=56 v=0
11280 On ch=1 n=49 v=0
11280 On ch=1 n=61 v=0
11280 On ch=1 n=59 v=0
11520 Par ch=1 c=64 v=0
11520 On ch=1 n=66 v=87
11520 On ch=1 n=58 v=73
11520 On ch=1 n=61 v=73
11520 On ch=1 n=54 v=73
11610 On ch=1 n=54 v=0
11610 On ch=1 n=66 v=0
11610 On ch=1 n=58 v=0
11610 On ch=1 n=61 v=0
11760 On ch=1 n=54 v=69
11760 On ch=1 n=63 v=69
11760 On ch=1 n=59 v=69
11760 On ch=1 n=66 v=81
11850 On ch=1 n=66 v=0
11850 On ch=1 n=54 v=0
11850 On ch=1 n=63 v=0
11850 On ch=1 n=59 v=0
12000 On ch=1 n=54 v=73
12000 On ch=1 n=61 v=73
12000 On ch=1 n=58 v=73
12000 On ch=1 n=66 v=87
12090 On ch=1 n=66 v=0
12090 On ch=1 n=54 v=0
12090 On ch=1 n=61 v=0
12090 On ch=1 n=58 v=0
12480 On ch=1 n=42 v=47
12480 On ch=1 n=54 v=56
12530 Par ch=1 c=64 v=127
12570 On ch=1 n=54 v=0
12570 On ch=1 n=42 v=0
12720 On ch=1 n=59 v=42
12720 On ch=1 n=66 v=50
12720 On ch=1 n=63 v=42
12810 On ch=1 n=63 v=0
12810 On ch=1 n=66 v=0
12810 On ch=1 n=59 v=0
12960 On ch=1 n=66 v=56
12960 On ch=1 n=61 v=47
12960 On ch=1 n=58 v=47
12966 Par ch=1 c=64 v=0
13050 On ch=1 n=58 v=0
13050 On ch=1 n=61 v=0
13050 On ch=1 n=66 v=0
13440 On ch=1 n=48 v=62
13479 Par ch=1 c=64 v=127
13560 On ch=1 n=48 v=0
13680 On ch=1 n=66 v=68
13680 On ch=1 n=56 v=56
14160 On ch=1 n=56 v=0
14160 On ch=1 n=66 v=0
14160 On ch=1 n=44 v=64
14280 On ch=1 n=44 v=0
14400 On ch=1 n=49 v=78
14403 Par ch=1 c=64 v=0
14450 Par ch=1 c=64 v=127
14520 On ch=1 n=49 v=0
14640 On ch=1 n=65 v=71
14640 On ch=1 n=56 v=60
14760 On ch=1 n=56 v=0
14760 On ch=1 n=65 v=0
15360 Par ch=1 c=64 v=0
15360 On ch=1 n=60 v=52
15360 On ch=1 n=68 v=62
15360 On ch=1 n=66 v=52
15600 On ch=1 n=66 v=0
15600 On ch=1 n=68 v=0
15600 On ch=1 n=60 v=0
15600 On ch=1 n=56 v=50
15600 On ch=1 n=68 v=60
15600 On ch=1 n=66 v=50
15840 On ch=1 n=66 v=0
15840 On ch=1 n=68 v=0
15840 On ch=1 n=56 v=0
15840 On ch=1 n=61 v=56
15840 On ch=1 n=65 v=56
15840 On ch=1 n=70 v=68
16080 On ch=1 n=70 v=0
16080 On ch=1 n=65 v=0
16080 On ch=1 n=61 v=0
16080 On ch=1 n=56 v=48
16080 On ch=1 n=65 v=48
16080 On ch=1 n=68 v=59
16320 On ch=1 n=68 v=0
16320 On ch=1 n=65 v=0
16320 On ch=1 n=56 v=0
16320 On ch=1 n=60 v=52
16320 On ch=1 n=66 v=52
16320 On ch=1 n=70 v=62
16560 On ch=1 n=70 v=0
16560 On ch=1 n=66 v=0
16560 On ch=1 n=60 v=0
16560 On ch=1 n=56 v=48
16560 On ch=1 n=68 v=59
16560 On ch=1 n=66 v=59
16800 On ch=1 n=66 v=0
16800 On ch=1 n=68 v=0
16800 On ch=1 n=56 v=0
16800 On ch=1 n=61 v=56
16800 On ch=1 n=65 v=68
17040 On ch=1 n=65 v=0
17040 On ch=1 n=61 v=0
17040 On ch=1 n=56 v=60
17280 On ch=1 n=56 v=0
17280 On ch=1 n=48 v=62
17319 Par ch=1 c=64 v=127
17400 On ch=1 n=48 v=0
17520 On ch=1 n=66 v=68
17520 On ch=1 n=63 v=56
17520 On ch=1 n=56 v=56
17531 Par ch=1 c=64 v=0
17640 On ch=1 n=56 v=0
17640 On ch=1 n=63 v=0
17640 On ch=1 n=66 v=0
17760 On ch=1 n=65 v=63
17760 On ch=1 n=61 v=53
17760 On ch=1 n=56 v=53
17778 Par ch=1 c=64 v=127
17880 On ch=1 n=56 v=0
17880 On ch=1 n=61 v=0
17880 On ch=1 n=65 v=0
18000 On ch=1 n=49 v=62
18120 On ch=1 n=49 v=0
18184 Par ch=1 c=64 v=0
18240 On ch=1 n=44 v=62
18290 Par ch=1 c=64 v=127
18360 On ch=1 n=44 v=0
18480 On ch=1 n=66 v=57
18480 On ch=1 n=60 v=48
18480 On ch=1 n=56 v=48
18515 Par ch=1 c=64 v=0
18600 On ch=1 n=56 v=0
18600 On ch=1 n=60 v=0
18600 On ch=1 n=66 v=0
18720 On ch=1 n=37 v=62
18738 Par ch=1 c=64 v=127
18840 On ch=1 n=37 v=0
18960 On ch=1 n=65 v=60
18960 On ch=1 n=61 v=50
18960 On ch=1 n=56 v=50
19080 On ch=1 n=56 v=0
19080 On ch=1 n=61 v=0
19080 On ch=1 n=65 v=0
19200 Par ch=1 c=64 v=0
19200 On ch=1 n=44 v=62
19243 Par ch=1 c=64 v=127
19440 On ch=1 n=44 v=0
19440 On ch=1 n=60 v=50
19440 On ch=1 n=68 v=60
19440 On ch=1 n=66 v=50
19680 On ch=1 n=66 v=0
19680 On ch=1 n=68 v=0
19680 On ch=1 n=60 v=0
19680 On ch=1 n=61 v=56
19680 On ch=1 n=65 v=56
19680 On ch=1 n=70 v=68
19691 Par ch=1 c=64 v=0
19920 On ch=1 n=70 v=0
19920 On ch=1 n=65 v=0
19920 On ch=1 n=61 v=0
19920 On ch=1 n=56 v=50
19920 On ch=1 n=65 v=50
19920 On ch=1 n=68 v=60
20160 On ch=1 n=68 v=0
20160 On ch=1 n=65 v=0
20160 On ch=1 n=56 v=0
20160 On ch=1 n=60 v=56
20160 On ch=1 n=66 v=56
20160 On ch=1 n=70 v=68
20400 On ch=1 n=70 v=0
20400 On ch=1 n=66 v=0
20400 On ch=1 n=60 v=0
20400 On ch=1 n=56 v=52
20400 On ch=1 n=68 v=62
20400 On ch=1 n=66 v=52
20640 On ch=1 n=66 v=0
20640 On ch=1 n=68 v=0
20640 On ch=1 n=56 v=0
20640 On ch=1 n=61 v=55
20640 On ch=1 n=65 v=64
20880 On ch=1 n=65 v=0
20880 On ch=1 n=61 v=0
20880 On ch=1 n=56 v=62
21120 On ch=1 n=56 v=0
21120 On ch=1 n=48 v=68
21156 Par ch=1 c=64 v=127
21240 On ch=1 n=48 v=0
21360 On ch=1 n=66 v=62
21360 On ch=1 n=63 v=52
21366 On ch=1 n=56 v=52
21480 On ch=1 n=63 v=0
21480 On ch=1 n=66 v=0
21486 On ch=1 n=56 v=0
21840 On ch=1 n=36 v=70
22080 On ch=1 n=36 v=0
22080 On ch=1 n=48 v=72
22200 On ch=1 n=48 v=0
22320 On ch=1 n=63 v=57
22320 On ch=1 n=56 v=57
22320 On ch=1 n=66 v=69
22440 On ch=1 n=66 v=0
22440 On ch=1 n=56 v=0
22440 On ch=1 n=63 v=0
22800 On ch=1 n=36 v=59
22800 On ch=1 n=48 v=70
23040 On ch=1 n=48 v=0
23040 On ch=1 n=36 v=0
23040 On ch=1 n=37 v=63
23040 On ch=1 n=49 v=77
23044 Par ch=1 c=64 v=0
23111 Par ch=1 c=64 v=127
23160 On ch=1 n=49 v=0
23160 On ch=1 n=37 v=0
23280 On ch=1 n=66 v=73
23280 On ch=1 n=61 v=62
23280 On ch=1 n=58 v=62
23520 On ch=1 n=58 v=0
23520 On ch=1 n=61 v=0
23520 On ch=1 n=66 v=0
23520 On ch=1 n=36 v=62
23520 On ch=1 n=48 v=73
23523 Par ch=1 c=64 v=0
23760 On ch=1 n=48 v=0
23760 On ch=1 n=36 v=0
23760 On ch=1 n=37 v=61
23760 On ch=1 n=49 v=72
24000 On ch=1 n=49 v=0
24000 On ch=1 n=37 v=0
24000 On ch=1 n=38 v=69
24000 On ch=1 n=50 v=81
24036 Par ch=1 c=64 v=127
24240 On ch=1 n=50 v=0
24240 On ch=1 n=38 v=0
24240 On ch=1 n=66 v=77
24240 On ch=1 n=58 v=63
24480 On ch=1 n=58 v=0
24480 On ch=1 n=66 v=0
24480 On ch=1 n=37 v=64
24480 On ch=1 n=49 v=78
24494 Par ch=1 c=64 v=0
24720 On ch=1 n=49 v=0
24720 On ch=1 n=37 v=0
24720 On ch=1 n=38 v=63
24720 On ch=1 n=50 v=75
24960 On ch=1 n=50 v=0
24960 On ch=1 n=38 v=0
24960 On ch=1 n=39 v=70
24960 On ch=1 n=51 v=82
25010 Par ch=1 c=64 v=127
25200 On ch=1 n=51 v=0
25200 On ch=1 n=39 v=0
25200 On ch=1 n=66 v=80
25200 On ch=1 n=58 v=68
25680 On ch=1 n=58 v=0
25680 On ch=1 n=66 v=0
25680 On ch=1 n=39 v=69
25680 On ch=1 n=51 v=81
25920 On ch=1 n=51 v=0
25920 On ch=1 n=39 v=0
25920 On ch=1 n=40 v=73
25920 On ch=1 n=52 v=88
25927 Par ch=1 c=64 v=0
25994 Par ch=1 c=64 v=127
26160 On ch=1 n=52 v=0
26160 On ch=1 n=40 v=0
26160 On ch=1 n=66 v=84
26160 On ch=1 n=58 v=70
26640 On ch=1 n=58 v=0
26640 On ch=1 n=66 v=0
26640 On ch=1 n=40 v=71
26640 On ch=1 n=52 v=85
26880 On ch=1 n=52 v=0
26880 On ch=1 n=40 v=0
26880 On ch=1 n=41 v=78
26880 On ch=1 n=53 v=91
26889 Par ch=1 c=64 v=0
26926 Par ch=1 c=64 v=127
27000 On ch=1 n=53 v=0
27000 On ch=1 n=41 v=0
27120 On ch=1 n=65 v=88
27120 On ch=1 n=61 v=73
27120 On ch=1 n=58 v=73
27360 On ch=1 n=58 v=0
27360 On ch=1 n=61 v=0
27360 On ch=1 n=65 v=0
27360 On ch=1 n=40 v=77
27360 On ch=1 n=52 v=90
27367 Par ch=1 c=64 v=0
27600 On ch=1 n=52 v=0
27600 On ch=1 n=40 v=0
27600 On ch=1 n=41 v=77
27600 On ch=1 n=53 v=90
27840 On ch=1 n=53 v=0
27840 On ch=1 n=41 v=0
27840 On ch=1 n=42 v=82
27840 On ch=1 n=54 v=97
27875 Par ch=1 c=64 v=127
27960 On ch=1 n=54 v=0
27960 On ch=1 n=42 v=0
28080 On ch=1 n=61 v=79
28080 On ch=1 n=64 v=94
28080 On ch=1 n=58 v=79
28200 On ch=1 n=58 v=0
28200 On ch=1 n=64 v=0
28200 On ch=1 n=61 v=0
28320 On ch=1 n=41 v=80
28320 On ch=1 n=53 v=95
28341 Par ch=1 c=64 v=0
28560 On ch=1 n=53 v=0
28560 On ch=1 n=41 v=0
28560 On ch=1 n=42 v=78
28560 On ch=1 n=54 v=91
28800 On ch=1 n=54 v=0
28800 On ch=1 n=42 v=0
28800 On ch=1 n=43 v=89
28800 On ch=1 n=55 v=105
28856 Par ch=1 c=64 v=127
29040 On ch=1 n=55 v=0
29040 On ch=1 n=43 v=0
29040 On ch=1 n=64 v=96
29040 On ch=1 n=61 v=81
29040 On ch=1 n=55 v=81
29280 On ch=1 n=55 v=0
29280 On ch=1 n=61 v=0
29280 On ch=1 n=64 v=0
29280 On ch=1 n=44 v=81
29280 On ch=1 n=56 v=96
29286 Par ch=1 c=64 v=0
29340 Par ch=1 c=64 v=127
29520 On ch=1 n=56 v=0
29520 On ch=1 n=44 v=0
29520 On ch=1 n=65 v=96
29520 On ch=1 n=61 v=81
29520 On ch=1 n=56 v=81
29760 On ch=1 n=56 v=0
29760 On ch=1 n=61 v=0
29760 On ch=1 n=65 v=0
29760 On ch=1 n=45 v=86
29760 On ch=1 n=57 v=103
29768 Par ch=1 c=64 v=0
29820 Par ch=1 c=64 v=127
30000 On ch=1 n=57 v=0
30000 On ch=1 n=45 v=0
30000 On ch=1 n=66 v=94
30000 On ch=1 n=63 v=79
30000 On ch=1 n=57 v=79
30240 On ch=1 n=57 v=0
30240 On ch=1 n=63 v=0
30240 On ch=1 n=66 v=0
30480 On ch=1 n=33 v=89
30480 On ch=1 n=45 v=106
30720 On ch=1 n=45 v=0
30720 On ch=1 n=33 v=0
30720 On ch=1 n=32 v=89
30720 On ch=1 n=44 v=106
30729 Par ch=1 c=64 v=0
30794 Par ch=1 c=64 v=127
31680 On ch=1 n=44 v=0
31680 On ch=1 n=32 v=0
32160 On ch=1 n=66 v=100
32160 On ch=1 n=61 v=83
32160 On ch=1 n=56 v=83
32520 On ch=1 n=56 v=0
32520 On ch=1 n=61 v=0
32520 On ch=1 n=66 v=0
32520 On ch=1 n=66 v=92
32520 On ch=1 n=61 v=77
32520 On ch=1 n=56 v=77
32640 On ch=1 n=56 v=0
32640 On ch=1 n=61 v=0
32640 On ch=1 n=66 v=0
32640 On ch=1 n=56 v=83
32640 On ch=1 n=66 v=100
32640 On ch=1 n=61 v=83
33600 On ch=1 n=61 v=0
33600 On ch=1 n=66 v=0
33600 On ch=1 n=56 v=0
34560 On ch=1 n=32 v=52
34560 On ch=1 n=44 v=62
34567 Par ch=1 c=64 v=0
34631 Par ch=1 c=64 v=127
35520 On ch=1 n=44 v=0
35520 On ch=1 n=32 v=0
36000 On ch=1 n=56 v=52
36000 On ch=1 n=66 v=52
36000 On ch=1 n=60 v=52
36000 On ch=1 n=68 v=62
36360 On ch=1 n=68 v=0
36360 On ch=1 n=56 v=0
36360 On ch=1 n=66 v=0
36360 On ch=1 n=60 v=0
36360 On ch=1 n=68 v=57
36360 On ch=1 n=66 v=48
36360 On ch=1 n=60 v=48
36360 On ch=1 n=56 v=48
36480 On ch=1 n=56 v=0
36480 On ch=1 n=68 v=0
36480 On ch=1 n=66 v=0
36480 On ch=1 n=60 v=0
36480 On ch=1 n=68 v=62
36480 On ch=1 n=66 v=52
36480 On ch=1 n=60 v=52
36480 On ch=1 n=56 v=52
37440 On ch=1 n=56 v=0
37440 On ch=1 n=68 v=0
37440 On ch=1 n=66 v=0
37440 On ch=1 n=60 v=0
38400 On ch=1 n=37 v=63
38403 Par ch=1 c=64 v=0
38478 Par ch=1 c=64 v=127
38520 On ch=1 n=37 v=0
38880 On ch=1 n=65 v=70
38880 On ch=1 n=56 v=59
38884 Par ch=1 c=64 v=0
38947 Par ch=1 c=64 v=127
39840 On ch=1 n=56 v=0
39840 On ch=1 n=65 v=0
39840 Par ch=1 c=64 v=0
39840 On ch=1 n=64 v=63
39840 On ch=1 n=55 v=53
39883 Par ch=1 c=64 v=127
40200 On ch=1 n=55 v=0
40200 On ch=1 n=64 v=0
40200 On ch=1 n=65 v=63
40200 On ch=1 n=56 v=53
40320 On ch=1 n=56 v=0
40320 On ch=1 n=65 v=0
40320 Par ch=1 c=64 v=0
40320 On ch=1 n=49 v=63
40377 Par ch=1 c=64 v=127
40440 On ch=1 n=49 v=0
40800 On ch=1 n=65 v=72
40800 On ch=1 n=56 v=61
40814 Par ch=1 c=64 v=0
40878 Par ch=1 c=64 v=127
41760 On ch=1 n=56 v=0
41760 On ch=1 n=65 v=0
41760 On ch=1 n=64 v=75
41760 On ch=1 n=55 v=63
41764 Par ch=1 c=64 v=0
41831 Par ch=1 c=64 v=127
42120 On ch=1 n=55 v=0
42120 On ch=1 n=64 v=0
42120 On ch=1 n=56 v=57
42120 On ch=1 n=65 v=69
42240 On ch=1 n=65 v=0
42240 On ch=1 n=56 v=0
42240 Par ch=1 c=64 v=0
42240 On ch=1 n=53 v=77
42290 Par ch=1 c=64 v=127
42360 On ch=1 n=53 v=0
42480 On ch=1 n=65 v=63
42480 On ch=1 n=56 v=53
42480 On ch=1 n=61 v=53
42484 Par ch=1 c=64 v=0
42530 Par ch=1 c=64 v=127
42720 On ch=1 n=61 v=0
42720 On ch=1 n=56 v=0
42720 On ch=1 n=65 v=0
42720 On ch=1 n=57 v=59
42720 On ch=1 n=61 v=59
42720 On ch=1 n=66 v=70
42960 On ch=1 n=66 v=0
42960 On ch=1 n=61 v=0
42960 On ch=1 n=57 v=0
42960 On ch=1 n=58 v=62
42960 On ch=1 n=61 v=62
42960 On ch=1 n=67 v=75
43200 On ch=1 n=67 v=0
43200 On ch=1 n=61 v=0
43200 On ch=1 n=58 v=0
43200 On ch=1 n=59 v=70
43200 On ch=1 n=61 v=70
43200 On ch=1 n=68 v=84
43205 Par ch=1 c=64 v=0
43264 Par ch=1 c=64 v=127
43680 On ch=1 n=68 v=0
43680 On ch=1 n=61 v=0
43680 On ch=1 n=59 v=0
43680 On ch=1 n=58 v=64
43680 On ch=1 n=61 v=64
43680 On ch=1 n=67 v=77
43691 Par ch=1 c=64 v=0
43744 Par ch=1 c=64 v=127
43920 On ch=1 n=67 v=0
43920 On ch=1 n=61 v=0
43920 On ch=1 n=58 v=0
43920 On ch=1 n=57 v=61
43920 On ch=1 n=61 v=61
43920 On ch=1 n=66 v=72
44160 On ch=1 n=66 v=0
44160 On ch=1 n=61 v=0
44160 On ch=1 n=57 v=0
44160 On ch=1 n=56 v=57
44160 On ch=1 n=61 v=57
44160 On ch=1 n=65 v=69
44280 On ch=1 n=65 v=0
44280 On ch=1 n=61 v=0
44280 On ch=1 n=56 v=0
44400 On ch=1 n=49 v=63
44520 On ch=1 n=49 v=0
44640 On ch=1 n=59 v=56
44640 On ch=1 n=61 v=56
44640 On ch=1 n=65 v=56
44640 On ch=1 n=68 v=66
44651 Par ch=1 c=64 v=0
44714 Par ch=1 c=64 v=127
44880 On ch=1 n=68 v=0
44880 On ch=1 n=70 v=71
45120 On ch=1 n=70 v=0
45120 On ch=1 n=65 v=0
45120 On ch=1 n=61 v=0
45120 On ch=1 n=59 v=0
45120 On ch=1 n=59 v=64
45120 On ch=1 n=61 v=64
45120 On ch=1 n=65 v=64
45120 On ch=1 n=71 v=77
45600 On ch=1 n=71 v=0
45600 On ch=1 n=70 v=72
45618 Par ch=1 c=64 v=0
45671 Par ch=1 c=64 v=127
45840 On ch=1 n=70 v=0
45840 On ch=1 n=68 v=71
46080 On ch=1 n=68 v=0
46080 On ch=1 n=59 v=0
46080 On ch=1 n=61 v=0
46080 On ch=1 n=65 v=0
46080 Par ch=1 c=91 v=127
46080 Par ch=1 c=64 v=0
46081 On ch=1 n=54 v=73
46081 On ch=1 n=66 v=87
46081 On ch=1 n=61 v=73
46081 On ch=1 n=58 v=73
46171 On ch=1 n=58 v=0
46171 On ch=1 n=54 v=0
46171 On ch=1 n=66 v=0
46171 On ch=1 n=61 v=0
46320 On ch=1 n=63 v=70
46320 On ch=1 n=59 v=70
46320 On ch=1 n=54 v=70
46320 On ch=1 n=66 v=83
46410 On ch=1 n=66 v=0
46410 On ch=1 n=63 v=0
46410 On ch=1 n=59 v=0
46410 On ch=1 n=54 v=0
46560 On ch=1 n=61 v=73
46560 On ch=1 n=66 v=87
46560 On ch=1 n=58 v=73
46560 On ch=1 n=54 v=73
46650 On ch=1 n=54 v=0
46650 On ch=1 n=61 v=0
46650 On ch=1 n=66 v=0
46650 On ch=1 n=58 v=0
47040 On ch=1 n=42 v=47
47040 On ch=1 n=54 v=56
47083 Par ch=1 c=64 v=127
47130 On ch=1 n=54 v=0
47130 On ch=1 n=42 v=0
47280 On ch=1 n=66 v=51
47280 On ch=1 n=63 v=42
47280 On ch=1 n=59 v=42
47370 On ch=1 n=59 v=0
47370 On ch=1 n=63 v=0
47370 On ch=1 n=66 v=0
47520 On ch=1 n=66 v=56
47520 On ch=1 n=61 v=47
47520 On ch=1 n=58 v=47
47531 Par ch=1 c=64 v=0
47610 On ch=1 n=58 v=0
47610 On ch=1 n=61 v=0
47610 On ch=1 n=66 v=0
48000 On ch=1 n=37 v=48
48000 On ch=1 n=49 v=59
48014 Par ch=1 c=64 v=127
48090 On ch=1 n=49 v=0
48090 On ch=1 n=37 v=0
48240 On ch=1 n=61 v=48
48240 On ch=1 n=65 v=59
48240 On ch=1 n=56 v=48
48244 Par ch=1 c=64 v=0
48330 On ch=1 n=56 v=0
48330 On ch=1 n=65 v=0
48330 On ch=1 n=61 v=0
48480 On ch=1 n=59 v=50
48480 On ch=1 n=63 v=60
48480 On ch=1 n=56 v=50
48484 Par ch=1 c=64 v=127
48570 On ch=1 n=56 v=0
48570 On ch=1 n=63 v=0
48570 On ch=1 n=59 v=0
48720 On ch=1 n=44 v=62
48810 On ch=1 n=44 v=0
48960 Par ch=1 c=64 v=0
48960 On ch=1 n=49 v=66
49017 Par ch=1 c=64 v=127
49200 On ch=1 n=63 v=70
49200 On ch=1 n=59 v=59
49200 On ch=1 n=56 v=59
49204 Par ch=1 c=64 v=0
49440 On ch=1 n=56 v=0
49440 On ch=1 n=59 v=0
49440 On ch=1 n=63 v=0
49440 On ch=1 n=61 v=73
49440 On ch=1 n=59 v=62
49440 On ch=1 n=56 v=62
49475 Par ch=1 c=64 v=127
49680 On ch=1 n=56 v=0
49680 On ch=1 n=49 v=0
49680 On ch=1 n=61 v=0
49680 On ch=1 n=59 v=0
49920 Par ch=1 c=64 v=0
49920 On ch=1 n=54 v=73
49920 On ch=1 n=58 v=73
49920 On ch=1 n=61 v=73
49920 On ch=1 n=66 v=87
50010 On ch=1 n=66 v=0
50010 On ch=1 n=54 v=0
50010 On ch=1 n=58 v=0
50010 On ch=1 n=61 v=0
50160 On ch=1 n=66 v=82
50160 On ch=1 n=63 v=69
50160 On ch=1 n=59 v=69
50160 On ch=1 n=54 v=69
50250 On ch=1 n=54 v=0
50250 On ch=1 n=66 v=0
50250 On ch=1 n=63 v=0
50250 On ch=1 n=59 v=0
50400 On ch=1 n=61 v=73
50400 On ch=1 n=66 v=87
50400 On ch=1 n=58 v=73
50400 On ch=1 n=54 v=73
50490 On ch=1 n=54 v=0
50490 On ch=1 n=61 v=0
50490 On ch=1 n=66 v=0
50490 On ch=1 n=58 v=0
50880 On ch=1 n=42 v=48
50880 On ch=1 n=54 v=59
50926 Par ch=1 c=64 v=127
50970 On ch=1 n=54 v=0
50970 On ch=1 n=42 v=0
51120 On ch=1 n=66 v=55
51120 On ch=1 n=63 v=46
51120 On ch=1 n=59 v=46
51210 On ch=1 n=59 v=0
51210 On ch=1 n=63 v=0
51210 On ch=1 n=66 v=0
51360 On ch=1 n=66 v=59
51360 On ch=1 n=61 v=48
51360 On ch=1 n=58 v=48
51371 Par ch=1 c=64 v=0
51450 On ch=1 n=58 v=0
51450 On ch=1 n=61 v=0
51450 On ch=1 n=66 v=0
51840 On ch=1 n=47 v=66
51883 Par ch=1 c=64 v=127
51960 On ch=1 n=47 v=0
52080 On ch=1 n=63 v=66
52080 On ch=1 n=56 v=56
52320 On ch=1 n=56 v=0
52320 On ch=1 n=63 v=0
52320 On ch=1 n=53 v=59
52320 On ch=1 n=58 v=59
52320 On ch=1 n=62 v=70
52335 Par ch=1 c=64 v=0
52391 Par ch=1 c=64 v=127
52560 On ch=1 n=62 v=0
52560 On ch=1 n=58 v=0
52560 On ch=1 n=53 v=0
52560 On ch=1 n=46 v=66
52800 On ch=1 n=46 v=0
52800 On ch=1 n=47 v=66
52806 Par ch=1 c=64 v=0
52867 Par ch=1 c=64 v=127
52920 On ch=1 n=47 v=0
53040 On ch=1 n=63 v=66
53040 On ch=1 n=56 v=56
53280 On ch=1 n=56 v=0
53280 On ch=1 n=63 v=0
53280 On ch=1 n=53 v=62
53280 On ch=1 n=58 v=62
53280 On ch=1 n=62 v=73
53291 Par ch=1 c=64 v=0
53351 Par ch=1 c=64 v=127
53520 On ch=1 n=62 v=0
53520 On ch=1 n=58 v=0
53520 On ch=1 n=53 v=0
53520 On ch=1 n=46 v=69
53640 On ch=1 n=46 v=0
53760 On ch=1 n=47 v=80
53767 Par ch=1 c=64 v=0
53813 Par ch=1 c=64 v=127
53880 On ch=1 n=47 v=0
54000 On ch=1 n=68 v=69
54000 On ch=1 n=59 v=57
54000 On ch=1 n=63 v=57
54120 On ch=1 n=63 v=0
54120 On ch=1 n=59 v=0
54120 On ch=1 n=68 v=0
54240 Par ch=1 c=64 v=0
54240 On ch=1 n=49 v=82
54283 Par ch=1 c=64 v=127
54360 On ch=1 n=49 v=0
54480 On ch=1 n=66 v=66
54480 On ch=1 n=61 v=56
54480 On ch=1 n=58 v=56
54600 On ch=1 n=58 v=0
54600 On ch=1 n=61 v=0
54600 On ch=1 n=66 v=0
54720 On ch=1 n=47 v=84
54728 Par ch=1 c=64 v=0
54791 Par ch=1 c=64 v=127
54840 On ch=1 n=47 v=0
54960 On ch=1 n=59 v=60
54960 On ch=1 n=65 v=60
54960 On ch=1 n=61 v=60
54960 On ch=1 n=68 v=71
55080 On ch=1 n=68 v=0
55080 On ch=1 n=59 v=0
55080 On ch=1 n=65 v=0
55080 On ch=1 n=61 v=0
55186 Par ch=1 c=64 v=0
55200 On ch=1 n=46 v=86
55232 Par ch=1 c=64 v=127
55320 On ch=1 n=46 v=0
55440 On ch=1 n=61 v=60
55440 On ch=1 n=70 v=71
55440 On ch=1 n=58 v=60
55440 On ch=1 n=66 v=60
55560 On ch=1 n=66 v=0
55560 On ch=1 n=61 v=0
55560 On ch=1 n=70 v=0
55560 On ch=1 n=58 v=0
55680 On ch=1 n=47 v=88
55687 Par ch=1 c=64 v=0
55747 Par ch=1 c=64 v=127
55800 On ch=1 n=47 v=0
55920 On ch=1 n=68 v=73
55920 On ch=1 n=63 v=62
55920 On ch=1 n=59 v=62
56040 On ch=1 n=59 v=0
56040 On ch=1 n=63 v=0
56040 On ch=1 n=68 v=0
56160 On ch=1 n=49 v=89
56167 Par ch=1 c=64 v=0
56206 Par ch=1 c=64 v=127
56280 On ch=1 n=49 v=0
56400 On ch=1 n=66 v=73
56400 On ch=1 n=61 v=62
56400 On ch=1 n=58 v=62
56520 On ch=1 n=58 v=0
56520 On ch=1 n=61 v=0
56520 On ch=1 n=66 v=0
56640 On ch=1 n=47 v=91
56650 Par ch=1 c=64 v=0
56679 Par ch=1 c=64 v=127
56760 On ch=1 n=47 v=0
56880 On ch=1 n=59 v=63
56880 On ch=1 n=65 v=63
56880 On ch=1 n=61 v=63
56880 On ch=1 n=68 v=75
57000 On ch=1 n=68 v=0
57000 On ch=1 n=59 v=0
57000 On ch=1 n=65 v=0
57000 On ch=1 n=61 v=0
57120 On ch=1 n=46 v=94
57129 Par ch=1 c=64 v=0
57191 Par ch=1 c=64 v=127
57240 On ch=1 n=46 v=0
57360 On ch=1 n=58 v=63
57360 On ch=1 n=66 v=63
57360 On ch=1 n=61 v=63
57360 On ch=1 n=70 v=75
57480 On ch=1 n=70 v=0
57480 On ch=1 n=58 v=0
57480 On ch=1 n=66 v=0
57480 On ch=1 n=61 v=0
57600 On ch=1 n=47 v=94
57606 Par ch=1 c=64 v=0
57681 Par ch=1 c=64 v=127
57840 On ch=1 n=47 v=0
57840 On ch=1 n=63 v=70
57840 On ch=1 n=56 v=70
57840 On ch=1 n=68 v=82
58320 On ch=1 n=68 v=0
58320 On ch=1 n=56 v=0
58320 On ch=1 n=63 v=0
58320 On ch=1 n=47 v=94
58560 On ch=1 n=47 v=0
58560 On ch=1 n=48 v=104
58567 Par ch=1 c=64 v=0
58624 Par ch=1 c=64 v=127
58800 On ch=1 n=48 v=0
58800 On ch=1 n=68 v=85
58800 On ch=1 n=63 v=71
58800 On ch=1 n=66 v=71
58800 On ch=1 n=56 v=71
59280 On ch=1 n=56 v=0
59280 On ch=1 n=68 v=0
59280 On ch=1 n=63 v=0
59280 On ch=1 n=66 v=0
59280 On ch=1 n=48 v=100
59520 On ch=1 n=48 v=0
59520 On ch=1 n=49 v=106
59526 Par ch=1 c=64 v=0
59584 Par ch=1 c=64 v=127
59760 On ch=1 n=49 v=0
60000 On ch=1 n=61 v=77
60000 On ch=1 n=66 v=77
60000 On ch=1 n=56 v=77
60000 On ch=1 n=68 v=92
60480 On ch=1 n=68 v=0
60480 On ch=1 n=61 v=0
60480 On ch=1 n=66 v=0
60480 On ch=1 n=56 v=0
60480 On ch=1 n=73 v=94
60480 On ch=1 n=66 v=79
60480 On ch=1 n=68 v=79
60485 Par ch=1 c=64 v=0
60530 Par ch=1 c=64 v=127
60960 On ch=1 n=68 v=0
60960 On ch=1 n=66 v=0
60960 On ch=1 n=73 v=0
61391 Par ch=1 c=64 v=0
61400 On ch=1 n=37 v=47
61410 On ch=1 n=37 v=0
61410 On ch=1 n=49 v=47
61420 On ch=1 n=56 v=47
61430 On ch=1 n=61 v=47
61440 On ch=1 n=66 v=56
62400 On ch=1 n=66 v=0
62400 On ch=1 n=49 v=0
62400 On ch=1 n=56 v=0
62400 On ch=1 n=61 v=0
62400 On ch=1 n=49 v=30
62400 On ch=1 n=59 v=30
62400 On ch=1 n=66 v=56
62400 On ch=1 n=49 v=56
62400 On ch=1 n=63 v=47
62400 On ch=1 n=56 v=30
62880 On ch=1 n=63 v=0
62880 On ch=1 n=66 v=0
62880 On ch=1 n=65 v=56
62880 On ch=1 n=61 v=47
63360 On ch=1 n=61 v=0
63360 On ch=1 n=56 v=0
63360 On ch=1 n=59 v=0
63360 On ch=1 n=49 v=0
63360 On ch=1 n=65 v=0
63360 On ch=1 n=49 v=0
63360 On ch=1 n=54 v=48
63360 On ch=1 n=58 v=48
63360 On ch=1 n=66 v=59
63600 On ch=1 n=66 v=0
63600 On ch=1 n=58 v=0
63600 On ch=1 n=61 v=44
63840 On ch=1 n=61 v=0
63840 On ch=1 n=59 v=50
63840 On ch=1 n=68 v=60
64080 On ch=1 n=68 v=0
64080 On ch=1 n=59 v=0
64080 On ch=1 n=56 v=44
64080 On ch=1 n=65 v=52
64320 On ch=1 n=65 v=0
64320 On ch=1 n=56 v=0
64320 On ch=1 n=54 v=0
64320 On ch=1 n=66 v=60
64320 On ch=1 n=58 v=50
64320 On ch=1 n=54 v=50
64560 On ch=1 n=58 v=0
64560 On ch=1 n=66 v=0
64560 On ch=1 n=61 v=42
64800 On ch=1 n=61 v=0
64800 On ch=1 n=59 v=50
64800 On ch=1 n=68 v=60
65040 On ch=1 n=68 v=0
65040 On ch=1 n=59 v=0
65040 On ch=1 n=65 v=51
65040 On ch=1 n=56 v=42
65280 On ch=1 n=56 v=0
65280 On ch=1 n=65 v=0
65280 On ch=1 n=54 v=0
65280 On ch=1 n=54 v=53
65280 On ch=1 n=66 v=63
65280 On ch=1 n=58 v=53
65520 On ch=1 n=58 v=0
65520 On ch=1 n=66 v=0
65520 On ch=1 n=54 v=0
65760 On ch=1 n=63 v=63
65760 On ch=1 n=53 v=53
65760 On ch=1 n=59 v=53
66000 On ch=1 n=59 v=0
66000 On ch=1 n=53 v=0
66000 On ch=1 n=63 v=0
66000 On ch=1 n=49 v=48
66000 On ch=1 n=61 v=57
66240 On ch=1 n=61 v=0
66240 On ch=1 n=49 v=0
66240 On ch=1 n=63 v=66
66240 On ch=1 n=58 v=56
66240 On ch=1 n=54 v=56
66480 On ch=1 n=54 v=0
66480 On ch=1 n=58 v=0
66480 On ch=1 n=63 v=0
66480 On ch=1 n=49 v=48
66480 On ch=1 n=61 v=59
66720 On ch=1 n=61 v=0
66720 On ch=1 n=49 v=0
66720 On ch=1 n=59 v=56
66720 On ch=1 n=53 v=56
66720 On ch=1 n=63 v=68
66960 On ch=1 n=63 v=0
66960 On ch=1 n=53 v=0
66960 On ch=1 n=59 v=0
66960 On ch=1 n=61 v=62
66960 On ch=1 n=49 v=52
67200 On ch=1 n=49 v=0
67200 On ch=1 n=61 v=0
67200 On ch=1 n=66 v=59
67200 On ch=1 n=54 v=48
67200 On ch=1 n=58 v=48
67440 On ch=1 n=58 v=0
67440 On ch=1 n=66 v=0
67440 On ch=1 n=61 v=45
67680 On ch=1 n=61 v=0
67680 On ch=1 n=68 v=60
67680 On ch=1 n=59 v=50
67920 On ch=1 n=59 v=0
67920 On ch=1 n=68 v=0
67920 On ch=1 n=56 v=46
67920 On ch=1 n=65 v=55
68160 On ch=1 n=65 v=0
68160 On ch=1 n=56 v=0
68160 On ch=1 n=54 v=0
68160 On ch=1 n=58 v=51
68160 On ch=1 n=66 v=61
68160 On ch=1 n=54 v=51
68400 On ch=1 n=66 v=0
68400 On ch=1 n=58 v=0
68400 On ch=1 n=61 v=46
68640 On ch=1 n=61 v=0
68640 On ch=1 n=59 v=51
68640 On ch=1 n=68 v=61
68880 On ch=1 n=68 v=0
68880 On ch=1 n=59 v=0
68880 On ch=1 n=56 v=47
68880 On ch=1 n=65 v=56
69120 On ch=1 n=65 v=0
69120 On ch=1 n=56 v=0
69120 On ch=1 n=54 v=0
69120 On ch=1 n=58 v=55
69120 On ch=1 n=66 v=64
69120 On ch=1 n=54 v=55
69360 On ch=1 n=54 v=0
69360 On ch=1 n=66 v=0
69360 On ch=1 n=58 v=0
69360 On ch=1 n=61 v=59
69600 On ch=1 n=61 v=0
69600 On ch=1 n=63 v=70
69600 On ch=1 n=59 v=59
69600 On ch=1 n=53 v=59
69840 On ch=1 n=53 v=0
69840 On ch=1 n=59 v=0
69840 On ch=1 n=63 v=0
69840 On ch=1 n=49 v=53
69840 On ch=1 n=61 v=63
70080 On ch=1 n=61 v=0
70080 On ch=1 n=49 v=0
70080 On ch=1 n=54 v=66
70080 On ch=1 n=63 v=79
70080 On ch=1 n=58 v=66
70320 On ch=1 n=58 v=0
70320 On ch=1 n=63 v=0
70320 On ch=1 n=54 v=0
70320 On ch=1 n=61 v=72
70320 On ch=1 n=49 v=61
70560 On ch=1 n=49 v=0
70560 On ch=1 n=61 v=0
70560 On ch=1 n=53 v=70
70560 On ch=1 n=59 v=70
70560 On ch=1 n=63 v=84
70800 On ch=1 n=63 v=0
70800 On ch=1 n=59 v=0
70800 On ch=1 n=53 v=0
70800 On ch=1 n=61 v=81
70800 On ch=1 n=49 v=69
71010 On ch=1 n=49 v=0
71010 On ch=1 n=61 v=0
71010 On ch=1 n=54 v=68
71025 On ch=1 n=61 v=70
71040 On ch=1 n=70 v=90
71520 On ch=1 n=70 v=0
71520 On ch=1 n=61 v=0
71520 On ch=1 n=54 v=0
71760 On ch=1 n=49 v=79
71760 On ch=1 n=59 v=79
71760 On ch=1 n=56 v=79
71760 On ch=1 n=65 v=94
72000 On ch=1 n=65 v=0
72000 On ch=1 n=49 v=0
72000 On ch=1 n=59 v=0
72000 On ch=1 n=56 v=0
72000 On ch=1 n=54 v=77
72000 On ch=1 n=58 v=77
72000 On ch=1 n=66 v=90
72480 On ch=1 n=66 v=0
72480 On ch=1 n=58 v=0
72480 On ch=1 n=54 v=0
72720 On ch=1 n=37 v=78
72720 On ch=1 n=47 v=78
72720 On ch=1 n=53 v=93
72960 On ch=1 n=53 v=0
72960 On ch=1 n=47 v=0
72960 On ch=1 n=37 v=0
72960 On ch=1 n=42 v=75
72960 On ch=1 n=46 v=75
72960 On ch=1 n=54 v=89
73440 On ch=1 n=54 v=0
73440 On ch=1 n=46 v=0
73440 On ch=1 n=42 v=0
73680 On ch=1 n=37 v=80
73920 On ch=1 n=37 v=0
73920 On ch=1 n=30 v=71
73920 On ch=1 n=42 v=85
74160 On ch=1 n=42 v=0
74160 On ch=1 n=30 v=0
74160 On ch=1 n=25 v=68
74160 On ch=1 n=37 v=80
74400 On ch=1 n=37 v=0
74400 On ch=1 n=25 v=0
74400 On ch=1 n=30 v=71
74400 On ch=1 n=42 v=85
74640 On ch=1 n=42 v=0
74640 On ch=1 n=30 v=0
74640 On ch=1 n=25 v=68
74640 On ch=1 n=37 v=80
74880 On ch=1 n=37 v=0
74880 On ch=1 n=25 v=0
74880 On ch=1 n=30 v=71
74880 On ch=1 n=42 v=85
75120 On ch=1 n=42 v=0
75120 On ch=1 n=30 v=0
75600 On ch=1 n=42 v=53
75680 On ch=1 n=42 v=0
75680 On ch=1 n=49 v=48
75760 On ch=1 n=49 v=0
75760 On ch=1 n=58 v=46
75840 On ch=1 n=58 v=0
75840 On ch=1 n=42 v=56
75920 On ch=1 n=42 v=0
75920 On ch=1 n=49 v=51
76000 On ch=1 n=49 v=0
76000 On ch=1 n=58 v=49
76080 On ch=1 n=58 v=0
76080 On ch=1 n=46 v=57
76160 On ch=1 n=46 v=0
76160 On ch=1 n=54 v=52
76240 On ch=1 n=54 v=0
76240 On ch=1 n=61 v=49
76320 On ch=1 n=61 v=0
76320 On ch=1 n=49 v=59
76400 On ch=1 n=49 v=0
76400 On ch=1 n=58 v=52
76480 On ch=1 n=58 v=0
76480 On ch=1 n=66 v=51
76560 On ch=1 n=66 v=0
76560 On ch=1 n=54 v=61
76640 On ch=1 n=54 v=0
76640 On ch=1 n=61 v=54
76720 On ch=1 n=61 v=0
76720 On ch=1 n=70 v=51
76800 On ch=1 n=70 v=0
76800 On ch=1 n=58 v=61
76880 On ch=1 n=58 v=0
76880 On ch=1 n=66 v=56
76960 On ch=1 n=66 v=0
76960 On ch=1 n=73 v=54
77040 On ch=1 n=73 v=0
77040 On ch=1 n=61 v=65
77120 On ch=1 n=61 v=0
77120 On ch=1 n=70 v=58
77200 On ch=1 n=70 v=0
77200 On ch=1 n=78 v=56
77280 On ch=1 n=78 v=0
77280 On ch=1 n=66 v=67
77360 On ch=1 n=66 v=0
77360 On ch=1 n=70 v=59
77440 On ch=1 n=70 v=0
77440 On ch=1 n=78 v=58
77520 On ch=1 n=78 v=0
77520 On ch=1 n=61 v=68
77600 On ch=1 n=61 v=0
77600 On ch=1 n=70 v=60
77680 On ch=1 n=70 v=0
77680 On ch=1 n=78 v=59
77760 On ch=1 n=78 v=0
77760 On ch=1 n=66 v=72
77840 On ch=1 n=66 v=0
77840 On ch=1 n=70 v=61
77920 On ch=1 n=70 v=0
77920 On ch=1 n=78 v=59
78000 On ch=1 n=78 v=0
78000 On ch=1 n=61 v=72
78080 On ch=1 n=61 v=0
78080 On ch=1 n=70 v=65
78160 On ch=1 n=70 v=0
78160 On ch=1 n=78 v=63
78240 On ch=1 n=78 v=0
78240 On ch=1 n=66 v=73
78320 On ch=1 n=66 v=0
78320 On ch=1 n=70 v=67
78400 On ch=1 n=70 v=0
78400 On ch=1 n=78 v=66
78480 On ch=1 n=78 v=0
78480 On ch=1 n=61 v=75
78560 On ch=1 n=61 v=0
78560 On ch=1 n=70 v=69
78640 On ch=1 n=70 v=0
78640 On ch=1 n=78 v=69
78720 On ch=1 n=78 v=0
78720 On ch=1 n=66 v=81
78800 On ch=1 n=66 v=0
78880 On ch=1 n=54 v=87
78880 On ch=1 n=66 v=87
78960 On ch=1 n=66 v=0
78960 On ch=1 n=54 v=0
78960 On ch=1 n=63 v=83
78960 On ch=1 n=51 v=83
79020 On ch=1 n=51 v=0
79020 On ch=1 n=63 v=0
79040 On ch=1 n=61 v=85
79040 On ch=1 n=49 v=85
79100 On ch=1 n=49 v=0
79100 On ch=1 n=61 v=0
79120 On ch=1 n=58 v=86
79120 On ch=1 n=46 v=86
79180 On ch=1 n=46 v=0
79180 On ch=1 n=58 v=0
79200 On ch=1 n=56 v=86
79200 On ch=1 n=44 v=86
79260 On ch=1 n=44 v=0
79260 On ch=1 n=56 v=0
79280 On ch=1 n=54 v=87
79280 On ch=1 n=42 v=87
79340 On ch=1 n=42 v=0
79340 On ch=1 n=54 v=0
79360 On ch=1 n=51 v=88
79360 On ch=1 n=39 v=88
79420 On ch=1 n=39 v=0
79420 On ch=1 n=51 v=0
79440 On ch=1 n=37 v=89
79440 On ch=1 n=49 v=89
79500 On ch=1 n=49 v=0
79500 On ch=1 n=37 v=0
79520 On ch=1 n=34 v=89
79520 On ch=1 n=46 v=89
79580 On ch=1 n=46 v=0
79580 On ch=1 n=34 v=0
79600 On ch=1 n=32 v=92
79600 On ch=1 n=44 v=92
79660 On ch=1 n=44 v=0
79660 On ch=1 n=32 v=0
79680 On ch=1 n=30 v=99
79680 On ch=1 n=42 v=99
79800 On ch=1 n=42 v=0
79800 On ch=1 n=30 v=0
79807 Par ch=1 c=64 v=127
80130 On ch=1 n=54 v=93
80145 On ch=1 n=61 v=98
80160 On ch=1 n=70 v=108
80610 On ch=1 n=54 v=0
80640 On ch=1 n=70 v=0
80640 On ch=1 n=61 v=0
80640 On ch=1 n=30 v=102
80640 On ch=1 n=42 v=102
81600 On ch=1 n=42 v=0
81600 On ch=1 n=30 v=0
81600 Par ch=1 c=64 v=0
81600 Meta TrkEnd
TrkEnd
MTrk
0 Meta TrkName "Chopin: Etude Op, 10, No. 5"
0 Meta TrkEnd
TrkEnd
MTrk
0 Meta TrkName "Copyright © 1999 by Bernd Krüger"
0 Meta TrkEnd
TrkEnd
MTrk
0 Meta TrkName "http://www.piano-midi.de"
0 Meta TrkEnd
TrkEnd
MTrk
0 Meta TrkName "Edition: 2014-03-04"
0 Meta TrkEnd
TrkEnd


