MFile 1 8 480
MTrk
0 Meta TrkName "Etüde Opus 25, No. 11"
0 Meta TrkName "Sturmetüde"
0 Meta Copyright "Copyright © 1999 von Bernd Krüger. http://www.piano-midi.de"
0 Meta Text "Chopin"
0 Meta Text "Allecro con brio"
0 Meta Text "Fertiggestellt am 8.3.99
"
0 Meta Text "Update am 9.3.99
"
0 Meta Text "Update am 15.3.99
"
0 Meta Text "Update am 16.3.99
"
0 Meta Text "Normierung: 23.12.2002
"
0 Meta Text "Update am 18.2.2014
"
0 Meta Text "Dauer3:06  Minuten
"
0 TimeSig 4/4 24 8
0 KeySig 0 major
0 Tempo 813449
0 Meta Marker "Lento"
1440 Tempo 813449
2880 Tempo 841043
3840 Tempo 813890
5280 Tempo 838809
5760 Tempo 914216
6240 Tempo 986031
6720 Tempo 1233299
7200 Tempo 1336898
7680 Tempo 482703
7680 Meta Marker "Allegro con brio"
8160 Tempo 464936
8640 Tempo 470146
9120 Tempo 456586
9600 Tempo 471884
10080 Tempo 497801
10560 Tempo 459946
11520 Tempo 473672
12000 Tempo 464936
12480 Tempo 473672
12960 Tempo 455028
13440 Tempo 471884
13920 Tempo 492005
14400 Tempo 466672
15360 Tempo 484457
15840 Tempo 463285
16800 Tempo 473672
17760 Tempo 463285
18720 Tempo 470146
19680 Tempo 466672
20640 Tempo 477213
23040 Tempo 482703
23520 Tempo 464936
24000 Tempo 470146
24480 Tempo 464936
24960 Tempo 471884
25440 Tempo 497801
25920 Tempo 459946
26880 Tempo 473672
27360 Tempo 464936
27840 Tempo 473672
28320 Tempo 464936
28800 Tempo 471884
29280 Tempo 492005
29760 Tempo 466672
30720 Tempo 473672
31200 Tempo 463285
32160 Tempo 470146
33120 Tempo 463285
34080 Tempo 471884
36960 Tempo 464936
38400 Tempo 473672
38880 Tempo 466672
39840 Tempo 475436
42240 Tempo 482703
42720 Tempo 464936
43200 Tempo 470146
43680 Tempo 456586
44160 Tempo 471884
44640 Tempo 497801
45120 Tempo 459946
46080 Tempo 473672
46560 Tempo 464936
47040 Tempo 473672
47520 Tempo 455028
48000 Tempo 471884
48480 Tempo 492005
48960 Tempo 466672
49920 Tempo 484457
50400 Tempo 468384
51360 Tempo 473672
51840 Tempo 480808
52320 Tempo 501672
52560 Tempo 480808
53280 Tempo 470146
54240 Tempo 466672
55200 Tempo 477213
57600 Tempo 482703
58080 Tempo 464936
58560 Tempo 470146
59040 Tempo 461574
59520 Tempo 471884
60000 Tempo 497801
60480 Tempo 459946
61440 Tempo 473672
61920 Tempo 464936
62400 Tempo 473672
62880 Tempo 464936
63360 Tempo 471884
63840 Tempo 492005
64320 Tempo 466672
65280 Tempo 473672
65760 Tempo 463285
66720 Tempo 470146
67680 Tempo 463285
68640 Tempo 471884
71520 Tempo 464936
72960 Tempo 473672
73440 Tempo 466672
74400 Tempo 475436
75840 Tempo 475436
75920 Tempo 477213
75960 Tempo 478965
76040 Tempo 480808
76080 Tempo 482703
76160 Tempo 484457
76200 Tempo 486381
76280 Tempo 488242
76320 Tempo 490076
76560 Tempo 564175
76800 Tempo 482703
77266 Tempo 464936
77746 Tempo 470146
78226 Tempo 456586
78706 Tempo 471884
79186 Tempo 497801
79666 Tempo 459946
80640 Tempo 482703
81106 Tempo 464936
81586 Tempo 470146
82066 Tempo 456586
82546 Tempo 471884
83026 Tempo 497801
83506 Tempo 459946
84000 Tempo 473672
84240 Tempo 527287
84480 Tempo 475436
84960 Tempo 463285
86400 Tempo 471884
86880 Tempo 459946
87840 Tempo 475436
88320 Tempo 475436
88800 Tempo 466672
90240 Tempo 475436
90720 Tempo 471884
91680 Tempo 490076
92160 Tempo 477213
92640 Tempo 470146
93120 Tempo 480808
93600 Tempo 470146
94080 Tempo 475436
95040 Tempo 480808
95520 Tempo 470146
96000 Tempo 477213
96480 Tempo 470146
96960 Tempo 480808
97440 Tempo 470146
97920 Tempo 475436
98880 Tempo 480808
99360 Tempo 470146
99840 Tempo 478660
100320 Tempo 484614
100800 Tempo 478660
101280 Tempo 482664
101760 Tempo 478660
102720 Tempo 478660
103680 Tempo 484457
104160 Tempo 468384
105120 Tempo 478965
105600 Tempo 484457
106080 Tempo 468384
107520 Tempo 478965
108000 Tempo 473672
108480 Tempo 473672
109440 Tempo 478965
109920 Tempo 473672
111360 Tempo 488242
111840 Tempo 478965
112320 Tempo 484457
112800 Tempo 473672
113280 Tempo 480808
113760 Tempo 497801
114240 Tempo 466672
115200 Tempo 468384
119040 Tempo 468384
129600 Tempo 466672
129760 Tempo 468384
129880 Tempo 470146
130000 Tempo 471884
130120 Tempo 473672
130240 Tempo 475436
130360 Tempo 477213
130480 Tempo 478965
130560 Tempo 482703
131040 Tempo 464936
131520 Tempo 470146
132000 Tempo 456586
132480 Tempo 471884
132960 Tempo 497801
133440 Tempo 459946
134400 Tempo 473672
134880 Tempo 464936
135360 Tempo 473672
135840 Tempo 455028
136320 Tempo 471884
136800 Tempo 492005
137280 Tempo 466672
138240 Tempo 484457
138720 Tempo 463285
139680 Tempo 473672
140640 Tempo 463285
141600 Tempo 470146
142560 Tempo 466672
143520 Tempo 477213
145920 Tempo 482703
146400 Tempo 464936
146880 Tempo 470146
147360 Tempo 456586
147840 Tempo 471884
148320 Tempo 497801
148800 Tempo 459946
149760 Tempo 473672
150240 Tempo 464936
150720 Tempo 473672
151200 Tempo 463464
151680 Tempo 471884
152160 Tempo 492005
152640 Tempo 466672
153600 Tempo 473672
154080 Tempo 463285
155040 Tempo 478965
155520 Tempo 471884
156000 Tempo 463285
156960 Tempo 478965
157440 Tempo 482703
157920 Tempo 470146
158400 Tempo 477213
158880 Tempo 466672
159360 Tempo 471884
159840 Tempo 497801
160320 Tempo 459946
166080 Tempo 458260
166120 Tempo 456586
166440 Tempo 458260
166760 Tempo 459946
167040 Tempo 461574
167360 Tempo 463285
167680 Tempo 464936
167960 Tempo 466672
168000 Tempo 524521
168480 Tempo 564175
168960 Tempo 459946
174720 Tempo 466672
175200 Tempo 466672
175320 Tempo 468384
175400 Tempo 470146
175480 Tempo 471884
175600 Tempo 473672
175680 Tempo 475436
175760 Tempo 477213
175880 Tempo 478965
175960 Tempo 480808
176040 Tempo 482703
176160 Tempo 484457
176240 Tempo 486381
176320 Tempo 488242
176440 Tempo 490076
176520 Tempo 492005
176600 Tempo 493949
176640 Tempo 480808
180480 TimeSig 9/4 24 8
180480 Tempo 352589
181440 Tempo 308817
181480 Tempo 308071
181520 Tempo 307314
181560 Tempo 305842
181600 Tempo 305095
181640 Tempo 304383
181680 Tempo 302939
181720 Tempo 302191
181760 Tempo 301492
181800 Tempo 300030
181840 Tempo 299371
181880 Tempo 297929
181920 Tempo 288462
182080 Tempo 287811
182200 Tempo 287164
182320 Tempo 286506
182440 Tempo 285864
182560 Tempo 285212
182680 Tempo 284589
182800 Tempo 283943
182960 Tempo 283313
183080 Tempo 282699
183200 Tempo 282034
183320 Tempo 281439
183440 Tempo 280807
183560 Tempo 280177
183680 Tempo 279577
183800 Tempo 278953
183960 Tempo 278332
184080 Tempo 277726
184200 Tempo 277136
184320 Tempo 276523
184440 Tempo 275913
184560 Tempo 275318
184680 Tempo 274738
184800 TimeSig 4/4 24 8
184800 Tempo 274135
184840 Tempo 310334
185041 Tempo 293399
185041 Meta Marker "Fine"
185041 Meta TrkEnd
TrkEnd
MTrk
0 Meta TrkName "Piano right"
0 PrCh ch=1 p=0
0 Par ch=1 c=7 v=100
0 Par ch=1 c=10 v=64
0 Par ch=1 c=91 v=127
0 On ch=1 n=64 v=60
0 Par ch=1 c=91 v=127
0 Meta Text "bdca426d104a26ac9dcb070447587523"
480 On ch=1 n=64 v=0
480 On ch=1 n=64 v=60
840 On ch=1 n=64 v=0
840 On ch=1 n=64 v=57
960 On ch=1 n=64 v=0
960 On ch=1 n=64 v=60
1440 On ch=1 n=64 v=0
1440 On ch=1 n=65 v=58
1920 On ch=1 n=65 v=0
1920 On ch=1 n=64 v=60
2400 On ch=1 n=64 v=0
2400 On ch=1 n=60 v=58
2880 On ch=1 n=60 v=0
2880 On ch=1 n=64 v=60
3840 On ch=1 n=64 v=0
3840 On ch=1 n=64 v=38
3840 On ch=1 n=55 v=28
3840 On ch=1 n=60 v=28
4320 On ch=1 n=60 v=0
4320 On ch=1 n=55 v=0
4320 On ch=1 n=64 v=0
4320 On ch=1 n=64 v=38
4320 On ch=1 n=55 v=28
4320 On ch=1 n=60 v=28
4680 On ch=1 n=60 v=0
4680 On ch=1 n=55 v=0
4680 On ch=1 n=64 v=0
4680 On ch=1 n=55 v=26
4680 On ch=1 n=64 v=36
4680 On ch=1 n=60 v=26
4800 On ch=1 n=60 v=0
4800 On ch=1 n=64 v=0
4800 On ch=1 n=55 v=0
4800 On ch=1 n=60 v=28
4800 On ch=1 n=55 v=28
4800 On ch=1 n=64 v=38
5280 On ch=1 n=64 v=0
5280 On ch=1 n=55 v=0
5280 On ch=1 n=60 v=0
5280 On ch=1 n=65 v=36
5280 On ch=1 n=57 v=26
5280 On ch=1 n=60 v=26
5760 On ch=1 n=60 v=0
5760 On ch=1 n=57 v=0
5760 On ch=1 n=65 v=0
5760 On ch=1 n=60 v=26
5760 On ch=1 n=55 v=26
5760 On ch=1 n=64 v=36
6240 On ch=1 n=64 v=0
6240 On ch=1 n=55 v=0
6240 On ch=1 n=60 v=0
6240 On ch=1 n=57 v=25
6240 On ch=1 n=60 v=34
6720 On ch=1 n=60 v=0
6720 On ch=1 n=57 v=0
6720 On ch=1 n=60 v=22
6720 On ch=1 n=64 v=31
6720 On ch=1 n=55 v=22
7200 On ch=1 n=55 v=0
7200 On ch=1 n=60 v=0
7200 On ch=1 n=62 v=19
7200 On ch=1 n=56 v=19
7678 On ch=1 n=101 v=96
7680 On ch=1 n=56 v=0
7680 On ch=1 n=64 v=0
7680 On ch=1 n=62 v=0
7758 On ch=1 n=101 v=0
7761 On ch=1 n=96 v=71
7839 On ch=1 n=100 v=91
7841 On ch=1 n=96 v=0
7919 On ch=1 n=100 v=0
7922 On ch=1 n=93 v=71
8001 On ch=1 n=99 v=84
8002 On ch=1 n=93 v=0
8080 On ch=1 n=96 v=71
8081 On ch=1 n=99 v=0
8160 On ch=1 n=96 v=0
8160 On ch=1 n=98 v=82
8240 On ch=1 n=98 v=0
8243 On ch=1 n=93 v=69
8322 On ch=1 n=97 v=79
8323 On ch=1 n=93 v=0
8402 On ch=1 n=97 v=0
8402 On ch=1 n=93 v=69
8479 On ch=1 n=96 v=79
8482 On ch=1 n=93 v=0
8559 On ch=1 n=96 v=0
8563 On ch=1 n=88 v=69
8642 On ch=1 n=95 v=78
8643 On ch=1 n=88 v=0
8721 On ch=1 n=88 v=71
8722 On ch=1 n=95 v=0
8799 On ch=1 n=94 v=78
8801 On ch=1 n=88 v=0
8878 On ch=1 n=84 v=71
8879 On ch=1 n=94 v=0
8958 On ch=1 n=84 v=0
8958 On ch=1 n=93 v=78
9038 On ch=1 n=93 v=0
9040 On ch=1 n=88 v=71
9118 On ch=1 n=92 v=78
9120 On ch=1 n=88 v=0
9198 On ch=1 n=92 v=0
9198 On ch=1 n=84 v=69
9278 On ch=1 n=84 v=0
9283 On ch=1 n=91 v=71
9360 On ch=1 n=84 v=69
9363 On ch=1 n=91 v=0
9438 On ch=1 n=90 v=71
9440 On ch=1 n=84 v=0
9518 On ch=1 n=90 v=0
9518 On ch=1 n=81 v=69
9598 On ch=1 n=81 v=0
9598 On ch=1 n=89 v=78
9678 On ch=1 n=89 v=0
9680 On ch=1 n=84 v=71
9760 On ch=1 n=84 v=0
9761 On ch=1 n=88 v=78
9841 On ch=1 n=88 v=0
9841 On ch=1 n=81 v=71
9921 On ch=1 n=81 v=0
9921 On ch=1 n=87 v=78
10001 On ch=1 n=87 v=0
10001 On ch=1 n=84 v=71
10078 On ch=1 n=86 v=78
10081 On ch=1 n=84 v=0
10158 On ch=1 n=86 v=0
10161 On ch=1 n=81 v=69
10240 On ch=1 n=85 v=71
10241 On ch=1 n=81 v=0
10320 On ch=1 n=85 v=0
10320 On ch=1 n=81 v=69
10398 On ch=1 n=84 v=71
10400 On ch=1 n=81 v=0
10478 On ch=1 n=84 v=0
10481 On ch=1 n=76 v=69
10561 On ch=1 n=76 v=0
10562 On ch=1 n=83 v=71
10642 On ch=1 n=83 v=0
10642 On ch=1 n=76 v=69
10721 On ch=1 n=82 v=71
10722 On ch=1 n=76 v=0
10799 On ch=1 n=72 v=69
10801 On ch=1 n=82 v=0
10879 On ch=1 n=72 v=0
10883 On ch=1 n=81 v=71
10962 On ch=1 n=76 v=69
10963 On ch=1 n=81 v=0
11042 On ch=1 n=76 v=0
11043 On ch=1 n=80 v=71
11123 On ch=1 n=80 v=0
11123 On ch=1 n=72 v=69
11201 On ch=1 n=79 v=71
11203 On ch=1 n=72 v=0
11278 On ch=1 n=72 v=69
11281 On ch=1 n=79 v=0
11358 On ch=1 n=72 v=0
11360 On ch=1 n=78 v=71
11439 On ch=1 n=69 v=69
11440 On ch=1 n=78 v=0
11519 On ch=1 n=69 v=0
11523 On ch=1 n=77 v=56
11599 On ch=1 n=72 v=51
11603 On ch=1 n=77 v=0
11679 On ch=1 n=72 v=0
11682 On ch=1 n=76 v=56
11762 On ch=1 n=76 v=0
11763 On ch=1 n=69 v=56
11843 On ch=1 n=69 v=0
11843 On ch=1 n=75 v=56
11923 On ch=1 n=75 v=0
11923 On ch=1 n=72 v=51
12001 On ch=1 n=74 v=56
12003 On ch=1 n=72 v=0
12080 On ch=1 n=69 v=51
12081 On ch=1 n=74 v=0
12159 On ch=1 n=73 v=56
12160 On ch=1 n=69 v=0
12239 On ch=1 n=73 v=0
12239 On ch=1 n=69 v=51
12319 On ch=1 n=69 v=0
12323 On ch=1 n=72 v=56
12398 On ch=1 n=64 v=51
12403 On ch=1 n=72 v=0
12478 On ch=1 n=64 v=0
12480 On ch=1 n=71 v=56
12558 On ch=1 n=64 v=50
12560 On ch=1 n=71 v=0
12638 On ch=1 n=64 v=0
12642 On ch=1 n=70 v=55
12718 On ch=1 n=60 v=49
12722 On ch=1 n=70 v=0
12798 On ch=1 n=60 v=0
12798 On ch=1 n=69 v=53
12878 On ch=1 n=69 v=0
12883 On ch=1 n=64 v=47
12959 On ch=1 n=68 v=50
12963 On ch=1 n=64 v=0
13039 On ch=1 n=68 v=0
13039 On ch=1 n=60 v=46
13119 On ch=1 n=60 v=0
13121 On ch=1 n=67 v=49
13201 On ch=1 n=67 v=0
13202 On ch=1 n=60 v=46
13282 On ch=1 n=60 v=0
13283 On ch=1 n=66 v=47
13362 On ch=1 n=57 v=45
13363 On ch=1 n=66 v=0
13440 On ch=1 n=65 v=47
13442 On ch=1 n=57 v=0
13519 On ch=1 n=60 v=45
13520 On ch=1 n=65 v=0
13599 On ch=1 n=60 v=0
13602 On ch=1 n=64 v=47
13680 On ch=1 n=57 v=45
13682 On ch=1 n=64 v=0
13760 On ch=1 n=57 v=0
13760 On ch=1 n=63 v=46
13840 On ch=1 n=63 v=0
13843 On ch=1 n=60 v=44
13922 On ch=1 n=62 v=45
13923 On ch=1 n=60 v=0
13998 On ch=1 n=57 v=42
14002 On ch=1 n=62 v=0
14078 On ch=1 n=57 v=0
14081 On ch=1 n=61 v=45
14160 On ch=1 n=57 v=40
14161 On ch=1 n=61 v=0
14240 On ch=1 n=57 v=0
14242 On ch=1 n=60 v=44
14321 On ch=1 n=52 v=42
14322 On ch=1 n=60 v=0
14401 On ch=1 n=52 v=0
14401 On ch=1 n=59 v=44
14480 On ch=1 n=52 v=42
14481 On ch=1 n=59 v=0
14558 On ch=1 n=58 v=47
14560 On ch=1 n=52 v=0
14638 On ch=1 n=58 v=0
14639 On ch=1 n=48 v=45
14719 On ch=1 n=48 v=0
14720 On ch=1 n=57 v=49
14800 On ch=1 n=57 v=0
14802 On ch=1 n=52 v=47
14881 On ch=1 n=56 v=53
14882 On ch=1 n=52 v=0
14961 On ch=1 n=56 v=0
14963 On ch=1 n=48 v=49
15042 On ch=1 n=57 v=56
15043 On ch=1 n=48 v=0
15120 On ch=1 n=52 v=53
15122 On ch=1 n=57 v=0
15199 On ch=1 n=60 v=59
15200 On ch=1 n=52 v=0
15279 On ch=1 n=60 v=0
15281 On ch=1 n=53 v=59
15360 On ch=1 n=64 v=59
15361 On ch=1 n=53 v=0
15438 On ch=1 n=59 v=59
15440 On ch=1 n=64 v=0
15518 On ch=1 n=59 v=0
15522 On ch=1 n=62 v=59
15601 On ch=1 n=65 v=59
15602 On ch=1 n=62 v=0
15678 On ch=1 n=76 v=59
15681 On ch=1 n=65 v=0
15758 On ch=1 n=76 v=0
15763 On ch=1 n=71 v=59
15838 On ch=1 n=74 v=62
15843 On ch=1 n=71 v=0
15918 On ch=1 n=74 v=0
15923 On ch=1 n=77 v=64
16002 On ch=1 n=88 v=67
16003 On ch=1 n=77 v=0
16079 On ch=1 n=83 v=68
16082 On ch=1 n=88 v=0
16159 On ch=1 n=83 v=0
16160 On ch=1 n=86 v=69
16238 On ch=1 n=77 v=70
16240 On ch=1 n=86 v=0
16318 On ch=1 n=77 v=0
16323 On ch=1 n=86 v=69
16402 On ch=1 n=81 v=68
16403 On ch=1 n=86 v=0
16478 On ch=1 n=84 v=67
16482 On ch=1 n=81 v=0
16558 On ch=1 n=84 v=0
16563 On ch=1 n=77 v=66
16642 On ch=1 n=74 v=64
16643 On ch=1 n=77 v=0
16721 On ch=1 n=69 v=62
16722 On ch=1 n=74 v=0
16799 On ch=1 n=72 v=58
16801 On ch=1 n=69 v=0
16879 On ch=1 n=72 v=0
16879 On ch=1 n=65 v=58
16959 On ch=1 n=65 v=0
16962 On ch=1 n=62 v=58
17040 On ch=1 n=57 v=58
17042 On ch=1 n=62 v=0
17118 On ch=1 n=60 v=58
17120 On ch=1 n=57 v=0
17198 On ch=1 n=60 v=0
17201 On ch=1 n=53 v=58
17281 On ch=1 n=53 v=0
17282 On ch=1 n=64 v=59
17360 On ch=1 n=59 v=59
17362 On ch=1 n=64 v=0
17439 On ch=1 n=62 v=59
17440 On ch=1 n=59 v=0
17519 On ch=1 n=62 v=0
17521 On ch=1 n=65 v=59
17601 On ch=1 n=65 v=0
17602 On ch=1 n=76 v=59
17682 On ch=1 n=76 v=0
17682 On ch=1 n=71 v=59
17762 On ch=1 n=71 v=0
17762 On ch=1 n=74 v=64
17840 On ch=1 n=77 v=64
17842 On ch=1 n=74 v=0
17918 On ch=1 n=88 v=66
17920 On ch=1 n=77 v=0
17998 On ch=1 n=88 v=0
18000 On ch=1 n=83 v=67
18080 On ch=1 n=83 v=0
18083 On ch=1 n=86 v=69
18158 On ch=1 n=76 v=69
18163 On ch=1 n=86 v=0
18238 On ch=1 n=76 v=0
18241 On ch=1 n=86 v=67
18321 On ch=1 n=86 v=0
18321 On ch=1 n=81 v=66
18400 On ch=1 n=84 v=64
18401 On ch=1 n=81 v=0
18478 On ch=1 n=76 v=62
18480 On ch=1 n=84 v=0
18558 On ch=1 n=76 v=0
18563 On ch=1 n=74 v=61
18643 On ch=1 n=74 v=0
18643 On ch=1 n=69 v=60
18721 On ch=1 n=72 v=59
18723 On ch=1 n=69 v=0
18800 On ch=1 n=64 v=59
18801 On ch=1 n=72 v=0
18880 On ch=1 n=64 v=0
18880 On ch=1 n=62 v=59
18960 On ch=1 n=62 v=0
18960 On ch=1 n=57 v=59
19040 On ch=1 n=57 v=0
19043 On ch=1 n=60 v=59
19119 On ch=1 n=59 v=59
19123 On ch=1 n=60 v=0
19199 On ch=1 n=59 v=0
19200 On ch=1 n=69 v=59
19279 On ch=1 n=64 v=58
19280 On ch=1 n=69 v=0
19359 On ch=1 n=64 v=0
19363 On ch=1 n=68 v=58
19439 On ch=1 n=71 v=58
19443 On ch=1 n=68 v=0
19519 On ch=1 n=71 v=0
19522 On ch=1 n=81 v=58
19601 On ch=1 n=76 v=58
19602 On ch=1 n=81 v=0
19679 On ch=1 n=80 v=58
19681 On ch=1 n=76 v=0
19759 On ch=1 n=80 v=0
19762 On ch=1 n=83 v=57
19842 On ch=1 n=83 v=0
19843 On ch=1 n=93 v=58
19920 On ch=1 n=88 v=59
19923 On ch=1 n=93 v=0
20000 On ch=1 n=88 v=0
20001 On ch=1 n=92 v=59
20081 On ch=1 n=92 v=0
20083 On ch=1 n=83 v=59
20158 On ch=1 n=92 v=60
20163 On ch=1 n=83 v=0
20238 On ch=1 n=92 v=0
20243 On ch=1 n=87 v=60
20321 On ch=1 n=90 v=59
20323 On ch=1 n=87 v=0
20398 On ch=1 n=83 v=59
20401 On ch=1 n=90 v=0
20478 On ch=1 n=83 v=0
20481 On ch=1 n=80 v=59
20559 On ch=1 n=75 v=58
20561 On ch=1 n=80 v=0
20639 On ch=1 n=75 v=0
20643 On ch=1 n=78 v=55
20721 On ch=1 n=71 v=55
20723 On ch=1 n=78 v=0
20801 On ch=1 n=71 v=0
20801 On ch=1 n=68 v=55
20879 On ch=1 n=63 v=55
20881 On ch=1 n=68 v=0
20959 On ch=1 n=63 v=0
20963 On ch=1 n=66 v=55
21038 On ch=1 n=59 v=55
21043 On ch=1 n=66 v=0
21118 On ch=1 n=59 v=0
21118 On ch=1 n=69 v=55
21198 On ch=1 n=69 v=0
21202 On ch=1 n=64 v=55
21279 On ch=1 n=68 v=55
21282 On ch=1 n=64 v=0
21359 On ch=1 n=68 v=0
21363 On ch=1 n=71 v=55
21439 On ch=1 n=81 v=55
21443 On ch=1 n=71 v=0
21519 On ch=1 n=81 v=0
21520 On ch=1 n=76 v=55
21598 On ch=1 n=80 v=55
21600 On ch=1 n=76 v=0
21678 On ch=1 n=80 v=0
21682 On ch=1 n=83 v=59
21762 On ch=1 n=83 v=0
21763 On ch=1 n=93 v=59
21842 On ch=1 n=88 v=59
21843 On ch=1 n=93 v=0
21921 On ch=1 n=92 v=59
21922 On ch=1 n=88 v=0
22001 On ch=1 n=92 v=0
22002 On ch=1 n=83 v=59
22080 On ch=1 n=100 v=81
22082 On ch=1 n=83 v=0
22320 On ch=1 n=100 v=0
23039 On ch=1 n=101 v=94
23118 On ch=1 n=96 v=69
23119 On ch=1 n=101 v=0
23198 On ch=1 n=96 v=0
23198 On ch=1 n=100 v=90
23278 On ch=1 n=100 v=0
23278 On ch=1 n=93 v=69
23358 On ch=1 n=93 v=0
23362 On ch=1 n=99 v=84
23442 On ch=1 n=99 v=0
23443 On ch=1 n=96 v=69
23519 On ch=1 n=98 v=82
23523 On ch=1 n=96 v=0
23598 On ch=1 n=93 v=67
23599 On ch=1 n=98 v=0
23678 On ch=1 n=93 v=0
23681 On ch=1 n=97 v=79
23758 On ch=1 n=93 v=67
23761 On ch=1 n=97 v=0
23838 On ch=1 n=93 v=0
23838 On ch=1 n=96 v=78
23918 On ch=1 n=96 v=0
23920 On ch=1 n=88 v=67
24000 On ch=1 n=88 v=0
24002 On ch=1 n=95 v=77
24082 On ch=1 n=95 v=0
24082 On ch=1 n=88 v=69
24161 On ch=1 n=94 v=75
24162 On ch=1 n=88 v=0
24238 On ch=1 n=84 v=69
24241 On ch=1 n=94 v=0
24318 On ch=1 n=84 v=0
24320 On ch=1 n=93 v=73
24399 On ch=1 n=88 v=69
24400 On ch=1 n=93 v=0
24479 On ch=1 n=88 v=0
24482 On ch=1 n=92 v=73
24559 On ch=1 n=84 v=67
24562 On ch=1 n=92 v=0
24639 On ch=1 n=84 v=0
24640 On ch=1 n=91 v=69
24719 On ch=1 n=84 v=67
24720 On ch=1 n=91 v=0
24799 On ch=1 n=84 v=0
24801 On ch=1 n=90 v=69
24881 On ch=1 n=90 v=0
24881 On ch=1 n=81 v=67
24961 On ch=1 n=81 v=0
24961 On ch=1 n=89 v=73
25038 On ch=1 n=84 v=69
25041 On ch=1 n=89 v=0
25118 On ch=1 n=84 v=0
25121 On ch=1 n=88 v=73
25201 On ch=1 n=88 v=0
25203 On ch=1 n=81 v=69
25282 On ch=1 n=87 v=73
25283 On ch=1 n=81 v=0
25362 On ch=1 n=87 v=0
25363 On ch=1 n=84 v=69
25439 On ch=1 n=86 v=73
25443 On ch=1 n=84 v=0
25519 On ch=1 n=86 v=0
25520 On ch=1 n=81 v=67
25599 On ch=1 n=85 v=69
25600 On ch=1 n=81 v=0
25679 On ch=1 n=85 v=0
25683 On ch=1 n=81 v=67
25760 On ch=1 n=84 v=69
25763 On ch=1 n=81 v=0
25840 On ch=1 n=84 v=0
25843 On ch=1 n=76 v=67
25918 On ch=1 n=83 v=69
25923 On ch=1 n=76 v=0
25998 On ch=1 n=83 v=0
26001 On ch=1 n=76 v=67
26078 On ch=1 n=82 v=69
26081 On ch=1 n=76 v=0
26158 On ch=1 n=82 v=0
26160 On ch=1 n=72 v=67
26240 On ch=1 n=72 v=0
26243 On ch=1 n=81 v=69
26318 On ch=1 n=76 v=67
26323 On ch=1 n=81 v=0
26398 On ch=1 n=76 v=0
26403 On ch=1 n=80 v=69
26479 On ch=1 n=72 v=67
26483 On ch=1 n=80 v=0
26559 On ch=1 n=72 v=0
26559 On ch=1 n=79 v=69
26639 On ch=1 n=79 v=0
26642 On ch=1 n=72 v=67
26720 On ch=1 n=78 v=69
26722 On ch=1 n=72 v=0
26799 On ch=1 n=69 v=67
26800 On ch=1 n=78 v=0
26879 On ch=1 n=69 v=0
26881 On ch=1 n=77 v=56
26961 On ch=1 n=77 v=0
26961 On ch=1 n=70 v=56
27040 On ch=1 n=76 v=56
27041 On ch=1 n=70 v=0
27120 On ch=1 n=76 v=0
27120 On ch=1 n=67 v=51
27200 On ch=1 n=67 v=0
27201 On ch=1 n=75 v=56
27281 On ch=1 n=75 v=0
27281 On ch=1 n=70 v=51
27361 On ch=1 n=70 v=0
27363 On ch=1 n=74 v=56
27442 On ch=1 n=67 v=51
27443 On ch=1 n=74 v=0
27521 On ch=1 n=73 v=56
27522 On ch=1 n=67 v=0
27601 On ch=1 n=73 v=0
27602 On ch=1 n=70 v=51
27681 On ch=1 n=72 v=56
27682 On ch=1 n=70 v=0
27760 On ch=1 n=67 v=51
27761 On ch=1 n=72 v=0
27839 On ch=1 n=71 v=56
27840 On ch=1 n=67 v=0
27919 On ch=1 n=71 v=0
27922 On ch=1 n=67 v=50
28001 On ch=1 n=70 v=55
28002 On ch=1 n=67 v=0
28081 On ch=1 n=70 v=0
28083 On ch=1 n=64 v=49
28159 On ch=1 n=69 v=53
28163 On ch=1 n=64 v=0
28239 On ch=1 n=69 v=0
28239 On ch=1 n=60 v=47
28319 On ch=1 n=60 v=0
28321 On ch=1 n=68 v=50
28401 On ch=1 n=68 v=0
28402 On ch=1 n=58 v=46
28481 On ch=1 n=67 v=49
28482 On ch=1 n=58 v=0
28560 On ch=1 n=60 v=46
28561 On ch=1 n=67 v=0
28640 On ch=1 n=60 v=0
28640 On ch=1 n=66 v=47
28718 On ch=1 n=58 v=45
28720 On ch=1 n=66 v=0
28798 On ch=1 n=58 v=0
28802 On ch=1 n=65 v=47
28881 On ch=1 n=60 v=45
28882 On ch=1 n=65 v=0
28961 On ch=1 n=60 v=0
28961 On ch=1 n=64 v=47
29041 On ch=1 n=64 v=0
29042 On ch=1 n=58 v=45
29122 On ch=1 n=58 v=0
29122 On ch=1 n=63 v=46
29198 On ch=1 n=60 v=44
29202 On ch=1 n=63 v=0
29278 On ch=1 n=60 v=0
29281 On ch=1 n=62 v=45
29361 On ch=1 n=62 v=0
29363 On ch=1 n=55 v=42
29443 On ch=1 n=55 v=0
29443 On ch=1 n=61 v=45
29521 On ch=1 n=58 v=40
29523 On ch=1 n=61 v=0
29601 On ch=1 n=58 v=0
29602 On ch=1 n=60 v=44
29678 On ch=1 n=55 v=39
29682 On ch=1 n=60 v=0
29758 On ch=1 n=55 v=0
29762 On ch=1 n=59 v=44
29842 On ch=1 n=59 v=0
29843 On ch=1 n=55 v=42
29919 On ch=1 n=60 v=47
29923 On ch=1 n=55 v=0
29999 On ch=1 n=60 v=0
30001 On ch=1 n=58 v=45
30079 On ch=1 n=61 v=49
30081 On ch=1 n=58 v=0
30159 On ch=1 n=61 v=0
30159 On ch=1 n=55 v=47
30238 On ch=1 n=62 v=53
30239 On ch=1 n=55 v=0
30318 On ch=1 n=62 v=0
30323 On ch=1 n=58 v=49
30403 On ch=1 n=58 v=0
30403 On ch=1 n=63 v=56
30482 On ch=1 n=55 v=53
30483 On ch=1 n=63 v=0
30558 On ch=1 n=64 v=59
30562 On ch=1 n=55 v=0
30638 On ch=1 n=64 v=0
30639 On ch=1 n=58 v=56
30718 On ch=1 n=69 v=59
30719 On ch=1 n=58 v=0
30798 On ch=1 n=69 v=0
30798 On ch=1 n=64 v=59
30878 On ch=1 n=64 v=0
30881 On ch=1 n=67 v=59
30961 On ch=1 n=67 v=0
30962 On ch=1 n=70 v=59
31041 On ch=1 n=81 v=59
31042 On ch=1 n=70 v=0
31120 On ch=1 n=76 v=59
31121 On ch=1 n=81 v=0
31200 On ch=1 n=76 v=0
31200 On ch=1 n=79 v=59
31279 On ch=1 n=82 v=59
31280 On ch=1 n=79 v=0
31359 On ch=1 n=82 v=0
31360 On ch=1 n=93 v=60
31440 On ch=1 n=93 v=0
31441 On ch=1 n=88 v=62
31518 On ch=1 n=91 v=64
31521 On ch=1 n=88 v=0
31598 On ch=1 n=91 v=0
31599 On ch=1 n=82 v=66
31679 On ch=1 n=82 v=0
31682 On ch=1 n=93 v=67
31759 On ch=1 n=87 v=67
31762 On ch=1 n=93 v=0
31839 On ch=1 n=87 v=0
31842 On ch=1 n=91 v=66
31922 On ch=1 n=91 v=0
31923 On ch=1 n=82 v=64
32003 On ch=1 n=82 v=0
32003 On ch=1 n=81 v=64
32082 On ch=1 n=75 v=62
32083 On ch=1 n=81 v=0
32159 On ch=1 n=79 v=62
32162 On ch=1 n=75 v=0
32239 On ch=1 n=79 v=0
32243 On ch=1 n=70 v=59
32318 On ch=1 n=69 v=59
32323 On ch=1 n=70 v=0
32398 On ch=1 n=69 v=0
32398 On ch=1 n=63 v=59
32478 On ch=1 n=63 v=0
32482 On ch=1 n=67 v=59
32561 On ch=1 n=58 v=59
32562 On ch=1 n=67 v=0
32641 On ch=1 n=58 v=0
32641 On ch=1 n=69 v=59
32721 On ch=1 n=69 v=0
32723 On ch=1 n=62 v=59
32798 On ch=1 n=67 v=59
32803 On ch=1 n=62 v=0
32878 On ch=1 n=67 v=0
32883 On ch=1 n=70 v=59
32961 On ch=1 n=81 v=59
32963 On ch=1 n=70 v=0
33039 On ch=1 n=74 v=59
33041 On ch=1 n=81 v=0
33118 On ch=1 n=79 v=59
33119 On ch=1 n=74 v=0
33198 On ch=1 n=79 v=0
33201 On ch=1 n=82 v=59
33279 On ch=1 n=93 v=60
33281 On ch=1 n=82 v=0
33359 On ch=1 n=93 v=0
33359 On ch=1 n=86 v=62
33439 On ch=1 n=86 v=0
33443 On ch=1 n=91 v=66
33521 On ch=1 n=82 v=68
33523 On ch=1 n=91 v=0
33601 On ch=1 n=82 v=0
33601 On ch=1 n=93 v=69
33678 On ch=1 n=85 v=69
33681 On ch=1 n=93 v=0
33758 On ch=1 n=85 v=0
33760 On ch=1 n=91 v=68
33840 On ch=1 n=91 v=0
33840 On ch=1 n=82 v=67
33920 On ch=1 n=82 v=0
33920 On ch=1 n=81 v=66
34000 On ch=1 n=81 v=0
34002 On ch=1 n=73 v=64
34081 On ch=1 n=79 v=59
34082 On ch=1 n=73 v=0
34160 On ch=1 n=70 v=59
34161 On ch=1 n=79 v=0
34240 On ch=1 n=70 v=0
34242 On ch=1 n=69 v=59
34321 On ch=1 n=61 v=59
34322 On ch=1 n=69 v=0
34401 On ch=1 n=61 v=0
34401 On ch=1 n=67 v=59
34480 On ch=1 n=58 v=59
34481 On ch=1 n=67 v=0
34558 On ch=1 n=69 v=59
34560 On ch=1 n=58 v=0
34638 On ch=1 n=69 v=0
34642 On ch=1 n=60 v=59
34718 On ch=1 n=67 v=59
34722 On ch=1 n=60 v=0
34798 On ch=1 n=67 v=0
34801 On ch=1 n=58 v=59
34881 On ch=1 n=58 v=0
34883 On ch=1 n=72 v=59
34960 On ch=1 n=69 v=59
34963 On ch=1 n=72 v=0
35040 On ch=1 n=69 v=0
35042 On ch=1 n=70 v=61
35120 On ch=1 n=67 v=62
35122 On ch=1 n=70 v=0
35200 On ch=1 n=67 v=0
35200 On ch=1 n=81 v=64
35280 On ch=1 n=81 v=0
35282 On ch=1 n=72 v=64
35361 On ch=1 n=79 v=64
35362 On ch=1 n=72 v=0
35440 On ch=1 n=70 v=64
35441 On ch=1 n=79 v=0
35520 On ch=1 n=70 v=0
35523 On ch=1 n=84 v=64
35601 On ch=1 n=81 v=64
35603 On ch=1 n=84 v=0
35679 On ch=1 n=82 v=62
35681 On ch=1 n=81 v=0
35759 On ch=1 n=82 v=0
35760 On ch=1 n=79 v=61
35838 On ch=1 n=93 v=61
35840 On ch=1 n=79 v=0
35918 On ch=1 n=93 v=0
35922 On ch=1 n=84 v=60
36002 On ch=1 n=84 v=0
36003 On ch=1 n=91 v=59
36081 On ch=1 n=82 v=59
36083 On ch=1 n=91 v=0
36158 On ch=1 n=96 v=59
36161 On ch=1 n=82 v=0
36238 On ch=1 n=96 v=0
36239 On ch=1 n=93 v=59
36318 On ch=1 n=94 v=59
36319 On ch=1 n=93 v=0
36398 On ch=1 n=94 v=0
36401 On ch=1 n=91 v=59
36478 On ch=1 n=98 v=59
36481 On ch=1 n=91 v=0
36558 On ch=1 n=98 v=0
36563 On ch=1 n=93 v=59
36643 On ch=1 n=93 v=0
36643 On ch=1 n=96 v=59
36721 On ch=1 n=89 v=59
36723 On ch=1 n=96 v=0
36801 On ch=1 n=89 v=0
36802 On ch=1 n=92 v=59
36882 On ch=1 n=92 v=0
36883 On ch=1 n=89 v=59
36958 On ch=1 n=93 v=59
36963 On ch=1 n=89 v=0
37038 On ch=1 n=93 v=0
37038 On ch=1 n=84 v=59
37118 On ch=1 n=84 v=0
37122 On ch=1 n=88 v=59
37201 On ch=1 n=84 v=59
37202 On ch=1 n=88 v=0
37279 On ch=1 n=89 v=59
37281 On ch=1 n=84 v=0
37358 On ch=1 n=81 v=59
37359 On ch=1 n=89 v=0
37438 On ch=1 n=81 v=0
37439 On ch=1 n=85 v=59
37519 On ch=1 n=85 v=0
37521 On ch=1 n=81 v=59
37600 On ch=1 n=86 v=59
37601 On ch=1 n=81 v=0
37679 On ch=1 n=77 v=59
37680 On ch=1 n=86 v=0
37759 On ch=1 n=77 v=0
37760 On ch=1 n=80 v=59
37840 On ch=1 n=80 v=0
37841 On ch=1 n=77 v=59
37921 On ch=1 n=77 v=0
37922 On ch=1 n=81 v=59
38002 On ch=1 n=81 v=0
38002 On ch=1 n=74 v=59
38081 On ch=1 n=76 v=59
38082 On ch=1 n=74 v=0
38161 On ch=1 n=76 v=0
38161 On ch=1 n=74 v=59
38241 On ch=1 n=74 v=0
38242 On ch=1 n=77 v=59
38322 On ch=1 n=77 v=0
38323 On ch=1 n=69 v=59
38398 On ch=1 n=76 v=59
38403 On ch=1 n=69 v=0
38478 On ch=1 n=76 v=0
38481 On ch=1 n=71 v=59
38560 On ch=1 n=74 v=59
38561 On ch=1 n=71 v=0
38639 On ch=1 n=77 v=59
38640 On ch=1 n=74 v=0
38718 On ch=1 n=88 v=59
38719 On ch=1 n=77 v=0
38798 On ch=1 n=88 v=0
38803 On ch=1 n=83 v=59
38878 On ch=1 n=86 v=55
38883 On ch=1 n=83 v=0
38958 On ch=1 n=86 v=0
38960 On ch=1 n=89 v=53
39040 On ch=1 n=89 v=0
39041 On ch=1 n=100 v=55
39119 On ch=1 n=95 v=56
39121 On ch=1 n=100 v=0
39199 On ch=1 n=95 v=0
39201 On ch=1 n=98 v=57
39279 On ch=1 n=89 v=58
39281 On ch=1 n=98 v=0
39359 On ch=1 n=89 v=0
39359 On ch=1 n=93 v=57
39438 On ch=1 n=89 v=57
39439 On ch=1 n=93 v=0
39518 On ch=1 n=89 v=0
39522 On ch=1 n=91 v=56
39598 On ch=1 n=83 v=56
39602 On ch=1 n=91 v=0
39678 On ch=1 n=83 v=0
39679 On ch=1 n=81 v=55
39759 On ch=1 n=81 v=0
39762 On ch=1 n=77 v=55
39842 On ch=1 n=77 v=0
39843 On ch=1 n=79 v=55
39922 On ch=1 n=71 v=59
39923 On ch=1 n=79 v=0
40002 On ch=1 n=71 v=0
40002 On ch=1 n=88 v=59
40081 On ch=1 n=79 v=59
40082 On ch=1 n=88 v=0
40160 On ch=1 n=86 v=59
40161 On ch=1 n=79 v=0
40240 On ch=1 n=86 v=0
40243 On ch=1 n=77 v=59
40319 On ch=1 n=83 v=59
40323 On ch=1 n=77 v=0
40399 On ch=1 n=83 v=0
40403 On ch=1 n=79 v=59
40479 On ch=1 n=84 v=59
40483 On ch=1 n=79 v=0
40559 On ch=1 n=84 v=0
40559 On ch=1 n=76 v=59
40639 On ch=1 n=76 v=0
40641 On ch=1 n=87 v=59
40721 On ch=1 n=87 v=0
40723 On ch=1 n=84 v=59
40798 On ch=1 n=88 v=59
40803 On ch=1 n=84 v=0
40878 On ch=1 n=88 v=0
40878 On ch=1 n=79 v=59
40958 On ch=1 n=79 v=0
40961 On ch=1 n=90 v=59
41040 On ch=1 n=88 v=55
41041 On ch=1 n=90 v=0
41118 On ch=1 n=91 v=59
41120 On ch=1 n=88 v=0
41198 On ch=1 n=91 v=0
41199 On ch=1 n=84 v=55
41279 On ch=1 n=84 v=0
41283 On ch=1 n=94 v=59
41359 On ch=1 n=91 v=51
41363 On ch=1 n=94 v=0
41438 On ch=1 n=95 v=58
41439 On ch=1 n=91 v=0
41518 On ch=1 n=95 v=0
41518 On ch=1 n=88 v=55
41598 On ch=1 n=88 v=0
41603 On ch=1 n=96 v=59
41678 On ch=1 n=91 v=58
41683 On ch=1 n=96 v=0
41758 On ch=1 n=91 v=0
41758 On ch=1 n=97 v=61
41838 On ch=1 n=97 v=0
41838 On ch=1 n=88 v=59
41918 On ch=1 n=88 v=0
41920 On ch=1 n=98 v=64
42000 On ch=1 n=98 v=0
42003 On ch=1 n=91 v=62
42080 On ch=1 n=99 v=69
42083 On ch=1 n=91 v=0
42160 On ch=1 n=99 v=0
42160 On ch=1 n=88 v=67
42240 On ch=1 n=88 v=0
42243 On ch=1 n=100 v=89
42323 On ch=1 n=100 v=0
42323 On ch=1 n=95 v=64
42401 On ch=1 n=99 v=75
42403 On ch=1 n=95 v=0
42481 On ch=1 n=99 v=0
42483 On ch=1 n=91 v=64
42562 On ch=1 n=98 v=73
42563 On ch=1 n=91 v=0
42640 On ch=1 n=95 v=64
42642 On ch=1 n=98 v=0
42719 On ch=1 n=97 v=61
42720 On ch=1 n=95 v=0
42798 On ch=1 n=91 v=59
42799 On ch=1 n=97 v=0
42878 On ch=1 n=91 v=0
42881 On ch=1 n=96 v=61
42961 On ch=1 n=96 v=0
42963 On ch=1 n=91 v=59
43040 On ch=1 n=95 v=61
43043 On ch=1 n=91 v=0
43119 On ch=1 n=88 v=59
43120 On ch=1 n=95 v=0
43199 On ch=1 n=88 v=0
43201 On ch=1 n=94 v=69
43279 On ch=1 n=91 v=64
43281 On ch=1 n=94 v=0
43359 On ch=1 n=91 v=0
43362 On ch=1 n=93 v=69
43442 On ch=1 n=93 v=0
43443 On ch=1 n=88 v=64
43520 On ch=1 n=92 v=69
43523 On ch=1 n=88 v=0
43600 On ch=1 n=92 v=0
43603 On ch=1 n=88 v=64
43678 On ch=1 n=91 v=69
43683 On ch=1 n=88 v=0
43758 On ch=1 n=91 v=0
43763 On ch=1 n=84 v=59
43841 On ch=1 n=90 v=61
43843 On ch=1 n=84 v=0
43921 On ch=1 n=90 v=0
43922 On ch=1 n=84 v=59
44001 On ch=1 n=89 v=61
44002 On ch=1 n=84 v=0
44078 On ch=1 n=79 v=59
44081 On ch=1 n=89 v=0
44158 On ch=1 n=79 v=0
44159 On ch=1 n=88 v=69
44239 On ch=1 n=88 v=0
44240 On ch=1 n=83 v=64
44318 On ch=1 n=87 v=69
44320 On ch=1 n=83 v=0
44398 On ch=1 n=87 v=0
44400 On ch=1 n=79 v=64
44478 On ch=1 n=86 v=69
44480 On ch=1 n=79 v=0
44558 On ch=1 n=86 v=0
44561 On ch=1 n=83 v=64
44641 On ch=1 n=83 v=0
44643 On ch=1 n=85 v=61
44718 On ch=1 n=79 v=59
44723 On ch=1 n=85 v=0
44798 On ch=1 n=79 v=0
44802 On ch=1 n=84 v=61
44881 On ch=1 n=79 v=59
44882 On ch=1 n=84 v=0
44961 On ch=1 n=79 v=0
44962 On ch=1 n=83 v=61
45042 On ch=1 n=83 v=0
45042 On ch=1 n=76 v=59
45121 On ch=1 n=82 v=69
45122 On ch=1 n=76 v=0
45201 On ch=1 n=82 v=0
45202 On ch=1 n=79 v=64
45278 On ch=1 n=81 v=69
45282 On ch=1 n=79 v=0
45358 On ch=1 n=81 v=0
45362 On ch=1 n=76 v=64
45442 On ch=1 n=76 v=0
45442 On ch=1 n=80 v=69
45522 On ch=1 n=80 v=0
45522 On ch=1 n=76 v=64
45598 On ch=1 n=79 v=69
45602 On ch=1 n=76 v=0
45678 On ch=1 n=79 v=0
45683 On ch=1 n=71 v=59
45761 On ch=1 n=78 v=61
45763 On ch=1 n=71 v=0
45841 On ch=1 n=78 v=0
45842 On ch=1 n=71 v=59
45918 On ch=1 n=77 v=61
45922 On ch=1 n=71 v=0
45998 On ch=1 n=77 v=0
46001 On ch=1 n=67 v=59
46081 On ch=1 n=67 v=0
46083 On ch=1 n=76 v=59
46158 On ch=1 n=71 v=55
46163 On ch=1 n=76 v=0
46238 On ch=1 n=71 v=0
46239 On ch=1 n=75 v=59
46318 On ch=1 n=67 v=55
46319 On ch=1 n=75 v=0
46398 On ch=1 n=67 v=0
46403 On ch=1 n=74 v=59
46481 On ch=1 n=71 v=55
46483 On ch=1 n=74 v=0
46559 On ch=1 n=73 v=59
46561 On ch=1 n=71 v=0
46639 On ch=1 n=73 v=0
46643 On ch=1 n=67 v=55
46720 On ch=1 n=72 v=59
46723 On ch=1 n=67 v=0
46800 On ch=1 n=72 v=0
46802 On ch=1 n=67 v=55
46879 On ch=1 n=71 v=59
46882 On ch=1 n=67 v=0
46958 On ch=1 n=64 v=55
46959 On ch=1 n=71 v=0
47038 On ch=1 n=64 v=0
47039 On ch=1 n=70 v=59
47119 On ch=1 n=70 v=0
47121 On ch=1 n=67 v=55
47201 On ch=1 n=67 v=0
47203 On ch=1 n=69 v=59
47278 On ch=1 n=64 v=55
47283 On ch=1 n=69 v=0
47358 On ch=1 n=64 v=0
47363 On ch=1 n=68 v=59
47440 On ch=1 n=64 v=55
47443 On ch=1 n=68 v=0
47518 On ch=1 n=67 v=59
47520 On ch=1 n=64 v=0
47598 On ch=1 n=67 v=0
47602 On ch=1 n=60 v=55
47679 On ch=1 n=66 v=59
47682 On ch=1 n=60 v=0
47759 On ch=1 n=66 v=0
47763 On ch=1 n=60 v=55
47842 On ch=1 n=65 v=59
47843 On ch=1 n=60 v=0
47922 On ch=1 n=65 v=0
47923 On ch=1 n=55 v=55
47999 On ch=1 n=64 v=55
48003 On ch=1 n=55 v=0
48079 On ch=1 n=64 v=0
48080 On ch=1 n=59 v=50
48158 On ch=1 n=63 v=53
48160 On ch=1 n=59 v=0
48238 On ch=1 n=63 v=0
48242 On ch=1 n=55 v=47
48318 On ch=1 n=62 v=50
48322 On ch=1 n=55 v=0
48398 On ch=1 n=62 v=0
48400 On ch=1 n=59 v=46
48479 On ch=1 n=61 v=49
48480 On ch=1 n=59 v=0
48559 On ch=1 n=61 v=0
48563 On ch=1 n=55 v=45
48638 On ch=1 n=60 v=47
48643 On ch=1 n=55 v=0
48718 On ch=1 n=60 v=0
48719 On ch=1 n=55 v=45
48799 On ch=1 n=55 v=0
48799 On ch=1 n=59 v=46
48879 On ch=1 n=59 v=0
48879 On ch=1 n=52 v=42
48958 On ch=1 n=58 v=45
48959 On ch=1 n=52 v=0
49038 On ch=1 n=58 v=0
49041 On ch=1 n=55 v=45
49121 On ch=1 n=55 v=0
49123 On ch=1 n=57 v=47
49203 On ch=1 n=57 v=0
49203 On ch=1 n=47 v=45
49279 On ch=1 n=56 v=47
49283 On ch=1 n=47 v=0
49359 On ch=1 n=56 v=0
49362 On ch=1 n=52 v=46
49441 On ch=1 n=55 v=49
49442 On ch=1 n=52 v=0
49521 On ch=1 n=55 v=0
49521 On ch=1 n=47 v=46
49601 On ch=1 n=47 v=0
49603 On ch=1 n=54 v=49
49680 On ch=1 n=52 v=46
49683 On ch=1 n=54 v=0
49760 On ch=1 n=52 v=0
49763 On ch=1 n=55 v=50
49841 On ch=1 n=48 v=50
49843 On ch=1 n=55 v=0
49918 On ch=1 n=59 v=59
49921 On ch=1 n=48 v=0
49998 On ch=1 n=59 v=0
50001 On ch=1 n=54 v=59
50081 On ch=1 n=54 v=0
50081 On ch=1 n=57 v=59
50160 On ch=1 n=60 v=59
50161 On ch=1 n=57 v=0
50240 On ch=1 n=60 v=0
50243 On ch=1 n=71 v=59
50321 On ch=1 n=66 v=59
50323 On ch=1 n=71 v=0
50401 On ch=1 n=66 v=0
50401 On ch=1 n=69 v=62
50481 On ch=1 n=69 v=0
50481 On ch=1 n=72 v=66
50559 On ch=1 n=83 v=67
50561 On ch=1 n=72 v=0
50639 On ch=1 n=83 v=0
50640 On ch=1 n=78 v=69
50720 On ch=1 n=78 v=0
50720 On ch=1 n=81 v=69
50798 On ch=1 n=72 v=69
50800 On ch=1 n=81 v=0
50878 On ch=1 n=72 v=0
50882 On ch=1 n=81 v=68
50959 On ch=1 n=76 v=67
50962 On ch=1 n=81 v=0
51038 On ch=1 n=79 v=66
51039 On ch=1 n=76 v=0
51118 On ch=1 n=79 v=0
51120 On ch=1 n=72 v=62
51200 On ch=1 n=72 v=0
51201 On ch=1 n=69 v=61
51278 On ch=1 n=64 v=60
51281 On ch=1 n=69 v=0
51358 On ch=1 n=64 v=0
51359 On ch=1 n=67 v=58
51438 On ch=1 n=60 v=58
51439 On ch=1 n=67 v=0
51518 On ch=1 n=60 v=0
51521 On ch=1 n=57 v=58
51600 On ch=1 n=52 v=58
51601 On ch=1 n=57 v=0
51680 On ch=1 n=52 v=0
51681 On ch=1 n=55 v=58
51761 On ch=1 n=55 v=0
51762 On ch=1 n=48 v=58
51840 On ch=1 n=59 v=59
51842 On ch=1 n=48 v=0
51920 On ch=1 n=59 v=0
51922 On ch=1 n=54 v=59
52000 On ch=1 n=57 v=59
52002 On ch=1 n=54 v=0
52080 On ch=1 n=57 v=0
52083 On ch=1 n=60 v=59
52161 On ch=1 n=71 v=59
52163 On ch=1 n=60 v=0
52239 On ch=1 n=66 v=59
52241 On ch=1 n=71 v=0
52319 On ch=1 n=66 v=0
52323 On ch=1 n=69 v=64
52403 On ch=1 n=69 v=0
52403 On ch=1 n=72 v=66
52480 On ch=1 n=83 v=67
52483 On ch=1 n=72 v=0
52560 On ch=1 n=83 v=0
52563 On ch=1 n=78 v=68
52639 On ch=1 n=81 v=69
52643 On ch=1 n=78 v=0
52719 On ch=1 n=81 v=0
52723 On ch=1 n=71 v=70
52801 On ch=1 n=81 v=70
52803 On ch=1 n=71 v=0
52880 On ch=1 n=76 v=69
52881 On ch=1 n=81 v=0
52960 On ch=1 n=76 v=0
52961 On ch=1 n=79 v=68
53041 On ch=1 n=79 v=0
53042 On ch=1 n=71 v=67
53118 On ch=1 n=69 v=66
53122 On ch=1 n=71 v=0
53198 On ch=1 n=69 v=0
53199 On ch=1 n=64 v=64
53279 On ch=1 n=64 v=0
53279 On ch=1 n=67 v=59
53359 On ch=1 n=67 v=0
53360 On ch=1 n=59 v=59
53440 On ch=1 n=59 v=0
53443 On ch=1 n=57 v=59
53522 On ch=1 n=52 v=59
53523 On ch=1 n=57 v=0
53602 On ch=1 n=52 v=0
53602 On ch=1 n=55 v=59
53682 On ch=1 n=55 v=0
53683 On ch=1 n=54 v=59
53760 On ch=1 n=64 v=59
53763 On ch=1 n=54 v=0
53840 On ch=1 n=64 v=0
53840 On ch=1 n=59 v=58
53920 On ch=1 n=59 v=0
53923 On ch=1 n=63 v=58
53999 On ch=1 n=66 v=58
54003 On ch=1 n=63 v=0
54079 On ch=1 n=66 v=0
54080 On ch=1 n=76 v=58
54160 On ch=1 n=76 v=0
54161 On ch=1 n=71 v=58
54240 On ch=1 n=75 v=58
54241 On ch=1 n=71 v=0
54320 On ch=1 n=75 v=0
54322 On ch=1 n=78 v=58
54402 On ch=1 n=78 v=0
54402 On ch=1 n=88 v=59
54482 On ch=1 n=88 v=0
54482 On ch=1 n=83 v=59
54562 On ch=1 n=83 v=0
54562 On ch=1 n=87 v=61
54638 On ch=1 n=78 v=62
54642 On ch=1 n=87 v=0
54718 On ch=1 n=78 v=0
54719 On ch=1 n=87 v=64
54799 On ch=1 n=87 v=0
54799 On ch=1 n=82 v=64
54879 On ch=1 n=82 v=0
54882 On ch=1 n=85 v=61
54962 On ch=1 n=85 v=0
54963 On ch=1 n=78 v=60
55040 On ch=1 n=75 v=59
55043 On ch=1 n=78 v=0
55120 On ch=1 n=75 v=0
55121 On ch=1 n=70 v=59
55198 On ch=1 n=73 v=55
55201 On ch=1 n=70 v=0
55278 On ch=1 n=73 v=0
55283 On ch=1 n=66 v=55
55359 On ch=1 n=63 v=55
55363 On ch=1 n=66 v=0
55439 On ch=1 n=63 v=0
55441 On ch=1 n=58 v=55
55521 On ch=1 n=58 v=0
55521 On ch=1 n=61 v=55
55600 On ch=1 n=54 v=55
55601 On ch=1 n=61 v=0
55680 On ch=1 n=54 v=0
55682 On ch=1 n=63 v=55
55758 On ch=1 n=59 v=55
55762 On ch=1 n=63 v=0
55838 On ch=1 n=59 v=0
55838 On ch=1 n=63 v=55
55918 On ch=1 n=63 v=0
55918 On ch=1 n=66 v=55
55998 On ch=1 n=66 v=0
55998 On ch=1 n=76 v=55
56078 On ch=1 n=76 v=0
56080 On ch=1 n=71 v=55
56159 On ch=1 n=75 v=55
56160 On ch=1 n=71 v=0
56239 On ch=1 n=75 v=0
56242 On ch=1 n=78 v=59
56318 On ch=1 n=88 v=59
56322 On ch=1 n=78 v=0
56398 On ch=1 n=88 v=0
56400 On ch=1 n=83 v=59
56478 On ch=1 n=87 v=59
56480 On ch=1 n=83 v=0
56558 On ch=1 n=87 v=0
56562 On ch=1 n=78 v=59
56640 On ch=1 n=95 v=83
56642 On ch=1 n=78 v=0
56880 On ch=1 n=95 v=0
57602 On ch=1 n=96 v=94
57679 On ch=1 n=91 v=70
57682 On ch=1 n=96 v=0
57759 On ch=1 n=91 v=0
57762 On ch=1 n=95 v=90
57841 On ch=1 n=88 v=70
57842 On ch=1 n=95 v=0
57921 On ch=1 n=88 v=0
57921 On ch=1 n=94 v=88
58001 On ch=1 n=94 v=0
58001 On ch=1 n=91 v=70
58078 On ch=1 n=93 v=85
58081 On ch=1 n=91 v=0
58158 On ch=1 n=93 v=0
58161 On ch=1 n=88 v=68
58238 On ch=1 n=92 v=84
58241 On ch=1 n=88 v=0
58318 On ch=1 n=92 v=0
58323 On ch=1 n=88 v=68
58400 On ch=1 n=91 v=80
58403 On ch=1 n=88 v=0
58480 On ch=1 n=91 v=0
58483 On ch=1 n=83 v=68
58562 On ch=1 n=90 v=81
58563 On ch=1 n=83 v=0
58641 On ch=1 n=83 v=70
58642 On ch=1 n=90 v=0
58721 On ch=1 n=83 v=0
58722 On ch=1 n=89 v=77
58802 On ch=1 n=89 v=0
58802 On ch=1 n=79 v=70
58880 On ch=1 n=88 v=77
58882 On ch=1 n=79 v=0
58960 On ch=1 n=88 v=0
58960 On ch=1 n=83 v=70
59038 On ch=1 n=87 v=77
59040 On ch=1 n=83 v=0
59118 On ch=1 n=87 v=0
59122 On ch=1 n=79 v=68
59199 On ch=1 n=86 v=73
59202 On ch=1 n=79 v=0
59278 On ch=1 n=79 v=68
59279 On ch=1 n=86 v=0
59358 On ch=1 n=79 v=0
59359 On ch=1 n=85 v=70
59439 On ch=1 n=85 v=0
59442 On ch=1 n=76 v=68
59519 On ch=1 n=84 v=77
59522 On ch=1 n=76 v=0
59599 On ch=1 n=84 v=0
59599 On ch=1 n=79 v=70
59679 On ch=1 n=79 v=0
59680 On ch=1 n=83 v=77
59758 On ch=1 n=76 v=70
59760 On ch=1 n=83 v=0
59838 On ch=1 n=76 v=0
59840 On ch=1 n=82 v=77
59920 On ch=1 n=82 v=0
59921 On ch=1 n=79 v=70
60001 On ch=1 n=79 v=0
60001 On ch=1 n=81 v=77
60081 On ch=1 n=81 v=0
60082 On ch=1 n=76 v=68
60160 On ch=1 n=80 v=70
60162 On ch=1 n=76 v=0
60240 On ch=1 n=80 v=0
60240 On ch=1 n=76 v=68
60320 On ch=1 n=76 v=0
60323 On ch=1 n=79 v=70
60403 On ch=1 n=79 v=0
60403 On ch=1 n=71 v=70
60481 On ch=1 n=78 v=70
60483 On ch=1 n=71 v=0
60561 On ch=1 n=78 v=0
60563 On ch=1 n=71 v=68
60638 On ch=1 n=77 v=70
60643 On ch=1 n=71 v=0
60718 On ch=1 n=77 v=0
60721 On ch=1 n=67 v=68
60801 On ch=1 n=67 v=0
60803 On ch=1 n=76 v=70
60880 On ch=1 n=71 v=68
60883 On ch=1 n=76 v=0
60959 On ch=1 n=75 v=70
60960 On ch=1 n=71 v=0
61039 On ch=1 n=75 v=0
61039 On ch=1 n=67 v=68
61118 On ch=1 n=74 v=70
61119 On ch=1 n=67 v=0
61198 On ch=1 n=74 v=0
61201 On ch=1 n=67 v=68
61280 On ch=1 n=73 v=70
61281 On ch=1 n=67 v=0
61358 On ch=1 n=64 v=68
61360 On ch=1 n=73 v=0
61438 On ch=1 n=64 v=0
61438 On ch=1 n=72 v=61
61518 On ch=1 n=72 v=0
61520 On ch=1 n=67 v=59
61600 On ch=1 n=67 v=0
61603 On ch=1 n=71 v=61
61683 On ch=1 n=71 v=0
61683 On ch=1 n=64 v=59
61760 On ch=1 n=70 v=61
61763 On ch=1 n=64 v=0
61840 On ch=1 n=70 v=0
61842 On ch=1 n=67 v=59
61921 On ch=1 n=69 v=61
61922 On ch=1 n=67 v=0
62001 On ch=1 n=69 v=0
62002 On ch=1 n=64 v=59
62082 On ch=1 n=64 v=0
62083 On ch=1 n=68 v=61
62161 On ch=1 n=64 v=59
62163 On ch=1 n=68 v=0
62241 On ch=1 n=64 v=0
62241 On ch=1 n=67 v=61
62318 On ch=1 n=59 v=59
62321 On ch=1 n=67 v=0
62398 On ch=1 n=59 v=0
62402 On ch=1 n=66 v=61
62480 On ch=1 n=59 v=58
62482 On ch=1 n=66 v=0
62560 On ch=1 n=59 v=0
62561 On ch=1 n=65 v=60
62641 On ch=1 n=65 v=0
62641 On ch=1 n=55 v=56
62721 On ch=1 n=55 v=0
62721 On ch=1 n=64 v=59
62801 On ch=1 n=64 v=0
62802 On ch=1 n=59 v=55
62882 On ch=1 n=59 v=0
62882 On ch=1 n=63 v=59
62960 On ch=1 n=54 v=53
62962 On ch=1 n=63 v=0
63038 On ch=1 n=62 v=56
63040 On ch=1 n=54 v=0
63118 On ch=1 n=62 v=0
63119 On ch=1 n=55 v=51
63199 On ch=1 n=55 v=0
63200 On ch=1 n=61 v=55
63279 On ch=1 n=53 v=49
63280 On ch=1 n=61 v=0
63359 On ch=1 n=53 v=0
63362 On ch=1 n=60 v=55
63440 On ch=1 n=55 v=50
63442 On ch=1 n=60 v=0
63520 On ch=1 n=55 v=0
63523 On ch=1 n=59 v=53
63598 On ch=1 n=53 v=49
63603 On ch=1 n=59 v=0
63678 On ch=1 n=53 v=0
63682 On ch=1 n=58 v=50
63761 On ch=1 n=55 v=47
63762 On ch=1 n=58 v=0
63841 On ch=1 n=55 v=0
63843 On ch=1 n=57 v=49
63919 On ch=1 n=50 v=46
63923 On ch=1 n=57 v=0
63999 On ch=1 n=50 v=0
64001 On ch=1 n=56 v=49
64081 On ch=1 n=56 v=0
64083 On ch=1 n=53 v=46
64162 On ch=1 n=55 v=49
64163 On ch=1 n=53 v=0
64242 On ch=1 n=55 v=0
64243 On ch=1 n=47 v=45
64319 On ch=1 n=54 v=49
64323 On ch=1 n=47 v=0
64399 On ch=1 n=54 v=0
64403 On ch=1 n=53 v=46
64482 On ch=1 n=55 v=53
64483 On ch=1 n=53 v=0
64562 On ch=1 n=55 v=0
64563 On ch=1 n=47 v=50
64643 On ch=1 n=47 v=0
64643 On ch=1 n=56 v=56
64723 On ch=1 n=56 v=0
64723 On ch=1 n=53 v=55
64801 On ch=1 n=57 v=59
64803 On ch=1 n=53 v=0
64879 On ch=1 n=50 v=56
64881 On ch=1 n=57 v=0
64959 On ch=1 n=50 v=0
64961 On ch=1 n=58 v=61
65039 On ch=1 n=55 v=59
65041 On ch=1 n=58 v=0
65119 On ch=1 n=55 v=0
65119 On ch=1 n=59 v=64
65199 On ch=1 n=59 v=0
65202 On ch=1 n=53 v=64
65282 On ch=1 n=53 v=0
65282 On ch=1 n=64 v=69
65359 On ch=1 n=59 v=69
65362 On ch=1 n=64 v=0
65439 On ch=1 n=59 v=0
65442 On ch=1 n=62 v=69
65520 On ch=1 n=65 v=69
65522 On ch=1 n=62 v=0
65598 On ch=1 n=76 v=69
65600 On ch=1 n=65 v=0
65678 On ch=1 n=76 v=0
65682 On ch=1 n=71 v=69
65762 On ch=1 n=71 v=0
65763 On ch=1 n=74 v=66
65838 On ch=1 n=77 v=67
65843 On ch=1 n=74 v=0
65918 On ch=1 n=77 v=0
65919 On ch=1 n=88 v=69
65999 On ch=1 n=88 v=0
66001 On ch=1 n=83 v=70
66080 On ch=1 n=86 v=72
66081 On ch=1 n=83 v=0
66160 On ch=1 n=86 v=0
66162 On ch=1 n=77 v=73
66239 On ch=1 n=88 v=77
66242 On ch=1 n=77 v=0
66319 On ch=1 n=88 v=0
66322 On ch=1 n=82 v=73
66402 On ch=1 n=82 v=0
66403 On ch=1 n=86 v=72
66478 On ch=1 n=77 v=71
66483 On ch=1 n=86 v=0
66558 On ch=1 n=77 v=0
66561 On ch=1 n=76 v=69
66641 On ch=1 n=76 v=0
66642 On ch=1 n=70 v=69
66719 On ch=1 n=74 v=64
66722 On ch=1 n=70 v=0
66798 On ch=1 n=65 v=64
66799 On ch=1 n=74 v=0
66878 On ch=1 n=65 v=0
66879 On ch=1 n=64 v=64
66959 On ch=1 n=64 v=0
66962 On ch=1 n=58 v=64
67042 On ch=1 n=58 v=0
67043 On ch=1 n=62 v=64
67121 On ch=1 n=53 v=64
67123 On ch=1 n=62 v=0
67200 On ch=1 n=64 v=69
67201 On ch=1 n=53 v=0
67280 On ch=1 n=64 v=0
67282 On ch=1 n=57 v=69
67359 On ch=1 n=62 v=69
67362 On ch=1 n=57 v=0
67439 On ch=1 n=62 v=0
67441 On ch=1 n=65 v=69
67519 On ch=1 n=76 v=69
67521 On ch=1 n=65 v=0
67599 On ch=1 n=76 v=0
67599 On ch=1 n=69 v=69
67679 On ch=1 n=69 v=0
67683 On ch=1 n=74 v=68
67759 On ch=1 n=77 v=68
67763 On ch=1 n=74 v=0
67838 On ch=1 n=88 v=69
67839 On ch=1 n=77 v=0
67918 On ch=1 n=88 v=0
67922 On ch=1 n=81 v=70
67998 On ch=1 n=86 v=71
68002 On ch=1 n=81 v=0
68078 On ch=1 n=86 v=0
68078 On ch=1 n=77 v=72
68158 On ch=1 n=77 v=0
68158 On ch=1 n=88 v=73
68238 On ch=1 n=88 v=0
68240 On ch=1 n=80 v=72
68320 On ch=1 n=80 v=0
68321 On ch=1 n=86 v=71
68400 On ch=1 n=77 v=70
68401 On ch=1 n=86 v=0
68480 On ch=1 n=77 v=0
68480 On ch=1 n=76 v=69
68560 On ch=1 n=76 v=0
68560 On ch=1 n=68 v=69
68638 On ch=1 n=74 v=64
68640 On ch=1 n=68 v=0
68718 On ch=1 n=74 v=0
68721 On ch=1 n=65 v=64
68801 On ch=1 n=65 v=0
68802 On ch=1 n=64 v=64
68880 On ch=1 n=56 v=64
68882 On ch=1 n=64 v=0
68960 On ch=1 n=56 v=0
68961 On ch=1 n=62 v=64
69041 On ch=1 n=62 v=0
69043 On ch=1 n=53 v=64
69121 On ch=1 n=64 v=69
69123 On ch=1 n=53 v=0
69201 On ch=1 n=64 v=0
69201 On ch=1 n=55 v=69
69278 On ch=1 n=62 v=69
69281 On ch=1 n=55 v=0
69358 On ch=1 n=62 v=0
69360 On ch=1 n=53 v=69
69439 On ch=1 n=67 v=69
69440 On ch=1 n=53 v=0
69519 On ch=1 n=67 v=0
69520 On ch=1 n=64 v=69
69600 On ch=1 n=64 v=0
69603 On ch=1 n=65 v=70
69680 On ch=1 n=62 v=70
69683 On ch=1 n=65 v=0
69758 On ch=1 n=76 v=70
69760 On ch=1 n=62 v=0
69838 On ch=1 n=76 v=0
69841 On ch=1 n=67 v=70
69921 On ch=1 n=67 v=0
69922 On ch=1 n=74 v=70
70002 On ch=1 n=74 v=0
70002 On ch=1 n=65 v=70
70082 On ch=1 n=65 v=0
70083 On ch=1 n=79 v=69
70163 On ch=1 n=79 v=0
70163 On ch=1 n=76 v=69
70239 On ch=1 n=77 v=69
70243 On ch=1 n=76 v=0
70319 On ch=1 n=77 v=0
70323 On ch=1 n=74 v=69
70401 On ch=1 n=88 v=69
70403 On ch=1 n=74 v=0
70481 On ch=1 n=88 v=0
70482 On ch=1 n=79 v=69
70562 On ch=1 n=79 v=0
70562 On ch=1 n=86 v=64
70642 On ch=1 n=86 v=0
70642 On ch=1 n=77 v=59
70722 On ch=1 n=77 v=0
70723 On ch=1 n=91 v=59
70803 On ch=1 n=91 v=0
70803 On ch=1 n=88 v=59
70883 On ch=1 n=88 v=0
70883 On ch=1 n=89 v=59
70961 On ch=1 n=86 v=59
70963 On ch=1 n=89 v=0
71040 On ch=1 n=93 v=62
71041 On ch=1 n=86 v=0
71118 On ch=1 n=88 v=62
71120 On ch=1 n=93 v=0
71198 On ch=1 n=88 v=0
71200 On ch=1 n=91 v=62
71280 On ch=1 n=91 v=0
71282 On ch=1 n=84 v=62
71360 On ch=1 n=100 v=68
71362 On ch=1 n=84 v=0
71439 On ch=1 n=91 v=62
71440 On ch=1 n=100 v=0
71518 On ch=1 n=98 v=66
71519 On ch=1 n=91 v=0
71598 On ch=1 n=98 v=0
71601 On ch=1 n=88 v=59
71681 On ch=1 n=88 v=0
71682 On ch=1 n=96 v=63
71758 On ch=1 n=92 v=59
71762 On ch=1 n=96 v=0
71838 On ch=1 n=92 v=0
71838 On ch=1 n=95 v=63
71918 On ch=1 n=95 v=0
71920 On ch=1 n=88 v=59
72000 On ch=1 n=88 v=0
72002 On ch=1 n=94 v=62
72082 On ch=1 n=94 v=0
72082 On ch=1 n=89 v=59
72158 On ch=1 n=92 v=62
72162 On ch=1 n=89 v=0
72238 On ch=1 n=92 v=0
72238 On ch=1 n=85 v=59
72318 On ch=1 n=85 v=0
72318 On ch=1 n=90 v=62
72398 On ch=1 n=90 v=0
72400 On ch=1 n=85 v=59
72478 On ch=1 n=89 v=62
72480 On ch=1 n=85 v=0
72558 On ch=1 n=89 v=0
72563 On ch=1 n=80 v=59
72641 On ch=1 n=87 v=62
72643 On ch=1 n=80 v=0
72718 On ch=1 n=80 v=59
72721 On ch=1 n=87 v=0
72798 On ch=1 n=80 v=0
72803 On ch=1 n=85 v=62
72881 On ch=1 n=77 v=59
72883 On ch=1 n=85 v=0
72960 On ch=1 n=85 v=59
72961 On ch=1 n=77 v=0
73038 On ch=1 n=78 v=59
73040 On ch=1 n=85 v=0
73118 On ch=1 n=78 v=0
73119 On ch=1 n=84 v=59
73199 On ch=1 n=84 v=0
73200 On ch=1 n=76 v=59
73280 On ch=1 n=76 v=0
73281 On ch=1 n=79 v=59
73361 On ch=1 n=79 v=0
73362 On ch=1 n=72 v=59
73438 On ch=1 n=80 v=55
73442 On ch=1 n=72 v=0
73518 On ch=1 n=80 v=0
73522 On ch=1 n=76 v=55
73598 On ch=1 n=78 v=55
73602 On ch=1 n=76 v=0
73678 On ch=1 n=78 v=0
73681 On ch=1 n=72 v=55
73761 On ch=1 n=72 v=0
73761 On ch=1 n=79 v=55
73841 On ch=1 n=79 v=0
73843 On ch=1 n=76 v=55
73920 On ch=1 n=81 v=55
73923 On ch=1 n=76 v=0
73999 On ch=1 n=71 v=55
74000 On ch=1 n=81 v=0
74079 On ch=1 n=71 v=0
74079 On ch=1 n=78 v=55
74159 On ch=1 n=78 v=0
74162 On ch=1 n=77 v=55
74240 On ch=1 n=79 v=55
74242 On ch=1 n=77 v=0
74320 On ch=1 n=79 v=0
74320 On ch=1 n=71 v=55
74400 On ch=1 n=71 v=0
74401 On ch=1 n=83 v=55
74478 On ch=1 n=77 v=53
74481 On ch=1 n=83 v=0
74558 On ch=1 n=77 v=0
74563 On ch=1 n=88 v=53
74642 On ch=1 n=79 v=53
74643 On ch=1 n=88 v=0
74718 On ch=1 n=86 v=53
74722 On ch=1 n=79 v=0
74798 On ch=1 n=86 v=0
74800 On ch=1 n=77 v=53
74880 On ch=1 n=77 v=0
74882 On ch=1 n=86 v=55
74962 On ch=1 n=86 v=0
74963 On ch=1 n=79 v=46
75042 On ch=1 n=84 v=55
75043 On ch=1 n=79 v=0
75121 On ch=1 n=76 v=46
75122 On ch=1 n=84 v=0
75201 On ch=1 n=76 v=0
75201 On ch=1 n=81 v=55
75281 On ch=1 n=81 v=0
75283 On ch=1 n=76 v=47
75362 On ch=1 n=79 v=55
75363 On ch=1 n=76 v=0
75439 On ch=1 n=72 v=47
75442 On ch=1 n=79 v=0
75519 On ch=1 n=72 v=0
75521 On ch=1 n=77 v=55
75599 On ch=1 n=72 v=47
75601 On ch=1 n=77 v=0
75679 On ch=1 n=72 v=0
75681 On ch=1 n=76 v=55
75761 On ch=1 n=76 v=0
75762 On ch=1 n=67 v=47
75839 On ch=1 n=81 v=55
75842 On ch=1 n=67 v=0
75919 On ch=1 n=81 v=0
75921 On ch=1 n=76 v=49
76000 On ch=1 n=79 v=55
76001 On ch=1 n=76 v=0
76080 On ch=1 n=79 v=0
76083 On ch=1 n=72 v=49
76162 On ch=1 n=77 v=55
76163 On ch=1 n=72 v=0
76242 On ch=1 n=77 v=0
76242 On ch=1 n=72 v=47
76321 On ch=1 n=76 v=55
76322 On ch=1 n=72 v=0
76400 On ch=1 n=67 v=49
76401 On ch=1 n=76 v=0
76480 On ch=1 n=67 v=0
76482 On ch=1 n=81 v=55
76562 On ch=1 n=81 v=0
76562 On ch=1 n=76 v=47
76642 On ch=1 n=76 v=0
76643 On ch=1 n=79 v=55
76719 On ch=1 n=72 v=47
76723 On ch=1 n=79 v=0
76799 On ch=1 n=72 v=0
76800 On ch=1 n=76 v=69
76800 On ch=1 n=79 v=82
77280 On ch=1 n=79 v=0
77280 On ch=1 n=76 v=0
77280 On ch=1 n=76 v=69
77280 On ch=1 n=79 v=82
77280 On ch=1 n=67 v=69
77640 On ch=1 n=67 v=0
77640 On ch=1 n=79 v=0
77640 On ch=1 n=76 v=0
77640 On ch=1 n=76 v=63
77640 On ch=1 n=67 v=63
77640 On ch=1 n=79 v=77
77760 On ch=1 n=79 v=0
77760 On ch=1 n=67 v=0
77760 On ch=1 n=76 v=0
77760 On ch=1 n=67 v=69
77760 On ch=1 n=79 v=82
77760 On ch=1 n=76 v=69
78240 On ch=1 n=76 v=0
78240 On ch=1 n=79 v=0
78240 On ch=1 n=67 v=0
78240 On ch=1 n=76 v=72
78240 On ch=1 n=69 v=72
78240 On ch=1 n=81 v=85
78720 On ch=1 n=81 v=0
78720 On ch=1 n=69 v=0
78720 On ch=1 n=76 v=0
78720 On ch=1 n=79 v=82
78720 On ch=1 n=67 v=69
78720 On ch=1 n=76 v=69
79200 On ch=1 n=76 v=0
79200 On ch=1 n=67 v=0
79200 On ch=1 n=79 v=0
79200 On ch=1 n=73 v=63
79200 On ch=1 n=67 v=63
79200 On ch=1 n=76 v=77
79680 On ch=1 n=76 v=0
79680 On ch=1 n=67 v=0
79680 On ch=1 n=73 v=0
79680 On ch=1 n=67 v=63
79680 On ch=1 n=79 v=77
79680 On ch=1 n=76 v=63
80640 On ch=1 n=76 v=0
80640 On ch=1 n=79 v=0
80640 On ch=1 n=67 v=0
80640 On ch=1 n=79 v=69
80640 On ch=1 n=82 v=82
81120 On ch=1 n=82 v=0
81120 On ch=1 n=79 v=0
81120 On ch=1 n=70 v=69
81120 On ch=1 n=79 v=69
81120 On ch=1 n=82 v=82
81480 On ch=1 n=82 v=0
81480 On ch=1 n=79 v=0
81480 On ch=1 n=70 v=0
81480 On ch=1 n=70 v=63
81480 On ch=1 n=79 v=63
81480 On ch=1 n=82 v=77
81600 On ch=1 n=82 v=0
81600 On ch=1 n=79 v=0
81600 On ch=1 n=70 v=0
81600 On ch=1 n=82 v=82
81600 On ch=1 n=70 v=69
81600 On ch=1 n=79 v=69
82080 On ch=1 n=79 v=0
82080 On ch=1 n=70 v=0
82080 On ch=1 n=82 v=0
82080 On ch=1 n=72 v=72
82080 On ch=1 n=84 v=85
82080 On ch=1 n=79 v=72
82560 On ch=1 n=79 v=0
82560 On ch=1 n=84 v=0
82560 On ch=1 n=72 v=0
82560 On ch=1 n=70 v=69
82560 On ch=1 n=79 v=69
82560 On ch=1 n=82 v=82
83040 On ch=1 n=82 v=0
83040 On ch=1 n=79 v=0
83040 On ch=1 n=70 v=0
83040 On ch=1 n=79 v=81
83040 On ch=1 n=70 v=68
83040 On ch=1 n=76 v=68
83520 On ch=1 n=76 v=0
83520 On ch=1 n=70 v=0
83520 On ch=1 n=79 v=0
83520 On ch=1 n=79 v=70
83520 On ch=1 n=70 v=70
83520 On ch=1 n=82 v=84
84480 On ch=1 n=82 v=0
84480 On ch=1 n=70 v=0
84480 On ch=1 n=79 v=0
84482 On ch=1 n=96 v=67
84562 On ch=1 n=96 v=0
84563 On ch=1 n=87 v=58
84638 On ch=1 n=94 v=61
84643 On ch=1 n=87 v=0
84718 On ch=1 n=94 v=0
84720 On ch=1 n=85 v=58
84800 On ch=1 n=85 v=0
84800 On ch=1 n=92 v=61
84880 On ch=1 n=92 v=0
84882 On ch=1 n=87 v=58
84960 On ch=1 n=91 v=56
84962 On ch=1 n=87 v=0
85040 On ch=1 n=91 v=0
85040 On ch=1 n=85 v=52
85120 On ch=1 n=85 v=0
85122 On ch=1 n=89 v=56
85199 On ch=1 n=85 v=52
85202 On ch=1 n=89 v=0
85279 On ch=1 n=85 v=0
85281 On ch=1 n=87 v=56
85358 On ch=1 n=79 v=52
85361 On ch=1 n=87 v=0
85438 On ch=1 n=79 v=0
85443 On ch=1 n=89 v=61
85523 On ch=1 n=89 v=0
85523 On ch=1 n=84 v=58
85603 On ch=1 n=84 v=0
85603 On ch=1 n=87 v=61
85678 On ch=1 n=80 v=58
85683 On ch=1 n=87 v=0
85758 On ch=1 n=80 v=0
85760 On ch=1 n=85 v=61
85840 On ch=1 n=85 v=0
85841 On ch=1 n=80 v=58
85921 On ch=1 n=80 v=0
85922 On ch=1 n=84 v=61
86002 On ch=1 n=84 v=0
86002 On ch=1 n=75 v=52
86079 On ch=1 n=82 v=56
86082 On ch=1 n=75 v=0
86159 On ch=1 n=82 v=0
86163 On ch=1 n=75 v=52
86242 On ch=1 n=80 v=56
86243 On ch=1 n=75 v=0
86319 On ch=1 n=72 v=52
86322 On ch=1 n=80 v=0
86399 On ch=1 n=72 v=0
86401 On ch=1 n=84 v=61
86478 On ch=1 n=75 v=58
86481 On ch=1 n=84 v=0
86558 On ch=1 n=75 v=0
86561 On ch=1 n=82 v=61
86641 On ch=1 n=82 v=0
86642 On ch=1 n=73 v=58
86722 On ch=1 n=73 v=0
86722 On ch=1 n=81 v=61
86798 On ch=1 n=75 v=58
86802 On ch=1 n=81 v=0
86878 On ch=1 n=75 v=0
86882 On ch=1 n=82 v=56
86961 On ch=1 n=73 v=52
86962 On ch=1 n=82 v=0
87041 On ch=1 n=73 v=0
87043 On ch=1 n=85 v=56
87123 On ch=1 n=85 v=0
87123 On ch=1 n=75 v=52
87202 On ch=1 n=79 v=56
87203 On ch=1 n=75 v=0
87279 On ch=1 n=73 v=52
87282 On ch=1 n=79 v=0
87359 On ch=1 n=73 v=0
87360 On ch=1 n=82 v=61
87440 On ch=1 n=82 v=0
87440 On ch=1 n=75 v=58
87518 On ch=1 n=80 v=61
87520 On ch=1 n=75 v=0
87598 On ch=1 n=80 v=0
87601 On ch=1 n=72 v=58
87678 On ch=1 n=79 v=61
87681 On ch=1 n=72 v=0
87758 On ch=1 n=79 v=0
87762 On ch=1 n=75 v=58
87842 On ch=1 n=75 v=0
87842 On ch=1 n=80 v=61
87919 On ch=1 n=72 v=52
87922 On ch=1 n=80 v=0
87998 On ch=1 n=82 v=56
87999 On ch=1 n=72 v=0
88078 On ch=1 n=82 v=0
88078 On ch=1 n=75 v=52
88158 On ch=1 n=75 v=0
88162 On ch=1 n=80 v=56
88238 On ch=1 n=72 v=52
88242 On ch=1 n=80 v=0
88318 On ch=1 n=72 v=0
88320 On ch=1 n=92 v=50
88400 On ch=1 n=92 v=0
88402 On ch=1 n=83 v=48
88482 On ch=1 n=83 v=0
88482 On ch=1 n=90 v=50
88560 On ch=1 n=81 v=48
88562 On ch=1 n=90 v=0
88640 On ch=1 n=81 v=0
88643 On ch=1 n=88 v=50
88721 On ch=1 n=83 v=48
88723 On ch=1 n=88 v=0
88799 On ch=1 n=87 v=48
88801 On ch=1 n=83 v=0
88879 On ch=1 n=87 v=0
88880 On ch=1 n=81 v=44
88960 On ch=1 n=81 v=0
88963 On ch=1 n=85 v=48
89038 On ch=1 n=81 v=44
89043 On ch=1 n=85 v=0
89118 On ch=1 n=81 v=0
89118 On ch=1 n=83 v=48
89198 On ch=1 n=83 v=0
89198 On ch=1 n=78 v=44
89278 On ch=1 n=78 v=0
89278 On ch=1 n=88 v=50
89358 On ch=1 n=88 v=0
89363 On ch=1 n=80 v=48
89439 On ch=1 n=87 v=50
89443 On ch=1 n=80 v=0
89519 On ch=1 n=87 v=0
89520 On ch=1 n=76 v=48
89600 On ch=1 n=76 v=0
89602 On ch=1 n=85 v=50
89678 On ch=1 n=80 v=48
89682 On ch=1 n=85 v=0
89758 On ch=1 n=80 v=0
89762 On ch=1 n=83 v=50
89839 On ch=1 n=76 v=44
89842 On ch=1 n=83 v=0
89919 On ch=1 n=76 v=0
89923 On ch=1 n=81 v=48
89999 On ch=1 n=76 v=44
90003 On ch=1 n=81 v=0
90079 On ch=1 n=76 v=0
90079 On ch=1 n=80 v=48
90159 On ch=1 n=80 v=0
90159 On ch=1 n=71 v=44
90239 On ch=1 n=71 v=0
90239 On ch=1 n=80 v=50
90319 On ch=1 n=80 v=0
90323 On ch=1 n=75 v=48
90403 On ch=1 n=75 v=0
90403 On ch=1 n=78 v=50
90483 On ch=1 n=78 v=0
90483 On ch=1 n=69 v=48
90563 On ch=1 n=69 v=0
90563 On ch=1 n=77 v=50
90641 On ch=1 n=75 v=48
90643 On ch=1 n=77 v=0
90718 On ch=1 n=78 v=48
90721 On ch=1 n=75 v=0
90798 On ch=1 n=78 v=0
90799 On ch=1 n=69 v=44
90879 On ch=1 n=69 v=0
90879 On ch=1 n=81 v=48
90959 On ch=1 n=81 v=0
90960 On ch=1 n=71 v=44
91040 On ch=1 n=71 v=0
91040 On ch=1 n=75 v=48
91119 On ch=1 n=69 v=44
91120 On ch=1 n=75 v=0
91199 On ch=1 n=69 v=0
91203 On ch=1 n=78 v=48
91281 On ch=1 n=71 v=44
91283 On ch=1 n=78 v=0
91361 On ch=1 n=71 v=0
91361 On ch=1 n=77 v=45
91441 On ch=1 n=77 v=0
91443 On ch=1 n=68 v=42
91521 On ch=1 n=76 v=44
91523 On ch=1 n=68 v=0
91601 On ch=1 n=76 v=0
91602 On ch=1 n=71 v=41
91682 On ch=1 n=71 v=0
91683 On ch=1 n=75 v=44
91763 On ch=1 n=75 v=0
91763 On ch=1 n=68 v=41
91843 On ch=1 n=68 v=0
91843 On ch=1 n=74 v=42
91923 On ch=1 n=74 v=0
91923 On ch=1 n=71 v=40
91998 On ch=1 n=73 v=42
92003 On ch=1 n=71 v=0
92078 On ch=1 n=73 v=0
92080 On ch=1 n=68 v=40
92159 On ch=1 n=73 v=62
92160 On ch=1 n=68 v=0
92239 On ch=1 n=73 v=0
92239 On ch=1 n=68 v=59
92319 On ch=1 n=68 v=0
92323 On ch=1 n=71 v=59
92402 On ch=1 n=62 v=59
92403 On ch=1 n=71 v=0
92482 On ch=1 n=62 v=0
92482 On ch=1 n=73 v=60
92558 On ch=1 n=68 v=61
92562 On ch=1 n=73 v=0
92638 On ch=1 n=68 v=0
92641 On ch=1 n=71 v=62
92721 On ch=1 n=71 v=0
92722 On ch=1 n=74 v=64
92802 On ch=1 n=74 v=0
92802 On ch=1 n=85 v=67
92882 On ch=1 n=85 v=0
92882 On ch=1 n=80 v=68
92958 On ch=1 n=83 v=69
92962 On ch=1 n=80 v=0
93038 On ch=1 n=83 v=0
93042 On ch=1 n=86 v=70
93120 On ch=1 n=97 v=72
93122 On ch=1 n=86 v=0
93200 On ch=1 n=97 v=0
93201 On ch=1 n=92 v=73
93281 On ch=1 n=92 v=0
93283 On ch=1 n=95 v=71
93363 On ch=1 n=95 v=0
93363 On ch=1 n=86 v=71
93438 On ch=1 n=85 v=71
93443 On ch=1 n=86 v=0
93518 On ch=1 n=85 v=0
93522 On ch=1 n=80 v=71
93600 On ch=1 n=83 v=71
93602 On ch=1 n=80 v=0
93678 On ch=1 n=74 v=69
93680 On ch=1 n=83 v=0
93758 On ch=1 n=74 v=0
93759 On ch=1 n=73 v=69
93839 On ch=1 n=73 v=0
93840 On ch=1 n=68 v=69
93918 On ch=1 n=71 v=69
93920 On ch=1 n=68 v=0
93998 On ch=1 n=71 v=0
94003 On ch=1 n=62 v=69
94081 On ch=1 n=74 v=69
94083 On ch=1 n=62 v=0
94159 On ch=1 n=67 v=69
94161 On ch=1 n=74 v=0
94239 On ch=1 n=67 v=0
94242 On ch=1 n=72 v=69
94322 On ch=1 n=72 v=0
94323 On ch=1 n=60 v=69
94399 On ch=1 n=77 v=69
94403 On ch=1 n=60 v=0
94478 On ch=1 n=72 v=69
94479 On ch=1 n=77 v=0
94558 On ch=1 n=72 v=0
94562 On ch=1 n=75 v=69
94639 On ch=1 n=67 v=61
94642 On ch=1 n=75 v=0
94719 On ch=1 n=67 v=0
94721 On ch=1 n=80 v=61
94801 On ch=1 n=80 v=0
94802 On ch=1 n=75 v=61
94882 On ch=1 n=75 v=0
94883 On ch=1 n=79 v=61
94959 On ch=1 n=72 v=61
94963 On ch=1 n=79 v=0
95039 On ch=1 n=72 v=0
95041 On ch=1 n=84 v=61
95121 On ch=1 n=84 v=0
95123 On ch=1 n=79 v=61
95203 On ch=1 n=79 v=0
95203 On ch=1 n=83 v=61
95281 On ch=1 n=75 v=61
95283 On ch=1 n=83 v=0
95359 On ch=1 n=82 v=61
95361 On ch=1 n=75 v=0
95439 On ch=1 n=82 v=0
95442 On ch=1 n=79 v=61
95520 On ch=1 n=81 v=61
95522 On ch=1 n=79 v=0
95600 On ch=1 n=81 v=0
95600 On ch=1 n=76 v=62
95678 On ch=1 n=80 v=64
95680 On ch=1 n=76 v=0
95758 On ch=1 n=80 v=0
95761 On ch=1 n=76 v=67
95840 On ch=1 n=79 v=68
95841 On ch=1 n=76 v=0
95918 On ch=1 n=72 v=69
95920 On ch=1 n=79 v=0
95998 On ch=1 n=72 v=0
95999 On ch=1 n=77 v=66
96079 On ch=1 n=77 v=0
96083 On ch=1 n=72 v=59
96159 On ch=1 n=75 v=59
96163 On ch=1 n=72 v=0
96239 On ch=1 n=75 v=0
96243 On ch=1 n=66 v=59
96318 On ch=1 n=77 v=60
96323 On ch=1 n=66 v=0
96398 On ch=1 n=77 v=0
96403 On ch=1 n=72 v=61
96483 On ch=1 n=72 v=0
96483 On ch=1 n=75 v=62
96560 On ch=1 n=78 v=64
96563 On ch=1 n=75 v=0
96639 On ch=1 n=89 v=67
96640 On ch=1 n=78 v=0
96719 On ch=1 n=89 v=0
96721 On ch=1 n=84 v=69
96801 On ch=1 n=84 v=0
96801 On ch=1 n=87 v=70
96881 On ch=1 n=87 v=0
96881 On ch=1 n=90 v=72
96960 On ch=1 n=101 v=70
96961 On ch=1 n=90 v=0
97038 On ch=1 n=96 v=61
97040 On ch=1 n=101 v=0
97118 On ch=1 n=96 v=0
97123 On ch=1 n=99 v=69
97198 On ch=1 n=90 v=69
97203 On ch=1 n=99 v=0
97278 On ch=1 n=90 v=0
97279 On ch=1 n=89 v=69
97359 On ch=1 n=89 v=0
97359 On ch=1 n=84 v=69
97439 On ch=1 n=84 v=0
97442 On ch=1 n=87 v=69
97521 On ch=1 n=78 v=69
97522 On ch=1 n=87 v=0
97601 On ch=1 n=78 v=0
97603 On ch=1 n=77 v=69
97681 On ch=1 n=72 v=69
97683 On ch=1 n=77 v=0
97761 On ch=1 n=72 v=0
97762 On ch=1 n=75 v=69
97840 On ch=1 n=66 v=69
97842 On ch=1 n=75 v=0
97920 On ch=1 n=66 v=0
97922 On ch=1 n=78 v=69
98002 On ch=1 n=78 v=0
98002 On ch=1 n=71 v=69
98078 On ch=1 n=76 v=69
98082 On ch=1 n=71 v=0
98158 On ch=1 n=76 v=0
98161 On ch=1 n=64 v=69
98238 On ch=1 n=81 v=69
98241 On ch=1 n=64 v=0
98318 On ch=1 n=81 v=0
98318 On ch=1 n=76 v=69
98398 On ch=1 n=76 v=0
98402 On ch=1 n=79 v=69
98480 On ch=1 n=71 v=61
98482 On ch=1 n=79 v=0
98560 On ch=1 n=71 v=0
98563 On ch=1 n=84 v=61
98640 On ch=1 n=79 v=61
98643 On ch=1 n=84 v=0
98720 On ch=1 n=79 v=0
98722 On ch=1 n=83 v=61
98798 On ch=1 n=76 v=61
98802 On ch=1 n=83 v=0
98878 On ch=1 n=76 v=0
98881 On ch=1 n=88 v=66
98958 On ch=1 n=83 v=66
98961 On ch=1 n=88 v=0
99038 On ch=1 n=83 v=0
99042 On ch=1 n=87 v=67
99122 On ch=1 n=87 v=0
99123 On ch=1 n=79 v=68
99201 On ch=1 n=86 v=69
99203 On ch=1 n=79 v=0
99281 On ch=1 n=86 v=0
99282 On ch=1 n=83 v=69
99359 On ch=1 n=85 v=70
99362 On ch=1 n=83 v=0
99439 On ch=1 n=85 v=0
99442 On ch=1 n=79 v=71
99521 On ch=1 n=84 v=72
99522 On ch=1 n=79 v=0
99601 On ch=1 n=84 v=0
99601 On ch=1 n=79 v=73
99679 On ch=1 n=83 v=73
99681 On ch=1 n=79 v=0
99759 On ch=1 n=83 v=0
99763 On ch=1 n=76 v=75
99840 On ch=1 n=82 v=68
99843 On ch=1 n=76 v=0
99920 On ch=1 n=82 v=0
99922 On ch=1 n=76 v=64
100000 On ch=1 n=81 v=69
100002 On ch=1 n=76 v=0
100078 On ch=1 n=70 v=64
100080 On ch=1 n=81 v=0
100158 On ch=1 n=70 v=0
100160 On ch=1 n=80 v=69
100240 On ch=1 n=80 v=0
100241 On ch=1 n=76 v=64
100320 On ch=1 n=79 v=69
100321 On ch=1 n=76 v=0
100400 On ch=1 n=79 v=0
100400 On ch=1 n=70 v=64
100478 On ch=1 n=81 v=69
100480 On ch=1 n=70 v=0
100558 On ch=1 n=81 v=0
100559 On ch=1 n=76 v=64
100639 On ch=1 n=76 v=0
100641 On ch=1 n=79 v=69
100721 On ch=1 n=79 v=0
100723 On ch=1 n=70 v=64
100800 On ch=1 n=79 v=69
100803 On ch=1 n=70 v=0
100880 On ch=1 n=79 v=0
100883 On ch=1 n=72 v=64
100960 On ch=1 n=78 v=69
100963 On ch=1 n=72 v=0
101040 On ch=1 n=78 v=0
101041 On ch=1 n=69 v=64
101118 On ch=1 n=77 v=69
101121 On ch=1 n=69 v=0
101198 On ch=1 n=77 v=0
101203 On ch=1 n=72 v=64
101283 On ch=1 n=72 v=0
101283 On ch=1 n=78 v=69
101360 On ch=1 n=69 v=64
101363 On ch=1 n=78 v=0
101440 On ch=1 n=69 v=0
101442 On ch=1 n=79 v=69
101519 On ch=1 n=71 v=64
101522 On ch=1 n=79 v=0
101599 On ch=1 n=71 v=0
101601 On ch=1 n=78 v=69
101680 On ch=1 n=69 v=64
101681 On ch=1 n=78 v=0
101760 On ch=1 n=69 v=0
101761 On ch=1 n=78 v=69
101838 On ch=1 n=71 v=64
101841 On ch=1 n=78 v=0
101918 On ch=1 n=71 v=0
101920 On ch=1 n=77 v=69
101999 On ch=1 n=67 v=64
102000 On ch=1 n=77 v=0
102079 On ch=1 n=67 v=0
102083 On ch=1 n=76 v=69
102163 On ch=1 n=76 v=0
102163 On ch=1 n=71 v=64
102243 On ch=1 n=71 v=0
102243 On ch=1 n=76 v=69
102321 On ch=1 n=67 v=64
102323 On ch=1 n=76 v=0
102401 On ch=1 n=67 v=0
102401 On ch=1 n=77 v=69
102478 On ch=1 n=69 v=64
102481 On ch=1 n=77 v=0
102558 On ch=1 n=69 v=0
102560 On ch=1 n=76 v=69
102639 On ch=1 n=67 v=64
102640 On ch=1 n=76 v=0
102719 On ch=1 n=67 v=0
102720 On ch=1 n=76 v=69
102798 On ch=1 n=69 v=64
102800 On ch=1 n=76 v=0
102878 On ch=1 n=69 v=0
102883 On ch=1 n=73 v=69
102959 On ch=1 n=65 v=64
102963 On ch=1 n=73 v=0
103039 On ch=1 n=65 v=0
103042 On ch=1 n=74 v=69
103122 On ch=1 n=74 v=0
103123 On ch=1 n=69 v=64
103201 On ch=1 n=74 v=69
103203 On ch=1 n=69 v=0
103279 On ch=1 n=64 v=64
103281 On ch=1 n=74 v=0
103359 On ch=1 n=64 v=0
103359 On ch=1 n=71 v=69
103439 On ch=1 n=71 v=0
103441 On ch=1 n=69 v=64
103521 On ch=1 n=69 v=0
103523 On ch=1 n=72 v=69
103599 On ch=1 n=64 v=64
103603 On ch=1 n=72 v=0
103679 On ch=1 n=64 v=0
103679 On ch=1 n=72 v=70
103759 On ch=1 n=72 v=0
103762 On ch=1 n=69 v=70
103842 On ch=1 n=69 v=0
103843 On ch=1 n=71 v=70
103919 On ch=1 n=65 v=70
103923 On ch=1 n=71 v=0
103999 On ch=1 n=65 v=0
103999 On ch=1 n=72 v=70
104079 On ch=1 n=72 v=0
104080 On ch=1 n=69 v=70
104160 On ch=1 n=69 v=0
104163 On ch=1 n=71 v=70
104241 On ch=1 n=77 v=71
104243 On ch=1 n=71 v=0
104318 On ch=1 n=84 v=72
104321 On ch=1 n=77 v=0
104398 On ch=1 n=84 v=0
104403 On ch=1 n=81 v=73
104478 On ch=1 n=83 v=75
104483 On ch=1 n=81 v=0
104558 On ch=1 n=83 v=0
104561 On ch=1 n=89 v=77
104639 On ch=1 n=96 v=77
104641 On ch=1 n=89 v=0
104719 On ch=1 n=96 v=0
104719 On ch=1 n=93 v=77
104798 On ch=1 n=95 v=75
104799 On ch=1 n=93 v=0
104878 On ch=1 n=95 v=0
104879 On ch=1 n=89 v=73
104959 On ch=1 n=89 v=0
104960 On ch=1 n=84 v=73
105040 On ch=1 n=84 v=0
105043 On ch=1 n=81 v=72
105118 On ch=1 n=83 v=70
105123 On ch=1 n=81 v=0
105198 On ch=1 n=83 v=0
105198 On ch=1 n=77 v=70
105278 On ch=1 n=77 v=0
105280 On ch=1 n=72 v=70
105359 On ch=1 n=69 v=70
105360 On ch=1 n=72 v=0
105439 On ch=1 n=69 v=0
105441 On ch=1 n=71 v=70
105520 On ch=1 n=65 v=70
105521 On ch=1 n=71 v=0
105600 On ch=1 n=65 v=0
105600 On ch=1 n=71 v=70
105680 On ch=1 n=71 v=0
105683 On ch=1 n=66 v=70
105761 On ch=1 n=69 v=70
105763 On ch=1 n=66 v=0
105839 On ch=1 n=60 v=70
105841 On ch=1 n=69 v=0
105919 On ch=1 n=60 v=0
105920 On ch=1 n=71 v=70
106000 On ch=1 n=71 v=0
106000 On ch=1 n=66 v=70
106080 On ch=1 n=66 v=0
106083 On ch=1 n=69 v=70
106161 On ch=1 n=72 v=71
106163 On ch=1 n=69 v=0
106241 On ch=1 n=72 v=0
106243 On ch=1 n=83 v=72
106322 On ch=1 n=78 v=73
106323 On ch=1 n=83 v=0
106402 On ch=1 n=78 v=0
106402 On ch=1 n=81 v=75
106481 On ch=1 n=84 v=77
106482 On ch=1 n=81 v=0
106561 On ch=1 n=84 v=0
106563 On ch=1 n=95 v=79
106639 On ch=1 n=90 v=78
106643 On ch=1 n=95 v=0
106719 On ch=1 n=90 v=0
106723 On ch=1 n=93 v=77
106799 On ch=1 n=84 v=75
106803 On ch=1 n=93 v=0
106879 On ch=1 n=84 v=0
106883 On ch=1 n=83 v=72
106962 On ch=1 n=78 v=71
106963 On ch=1 n=83 v=0
107038 On ch=1 n=81 v=70
107042 On ch=1 n=78 v=0
107118 On ch=1 n=81 v=0
107122 On ch=1 n=72 v=70
107200 On ch=1 n=71 v=70
107202 On ch=1 n=72 v=0
107279 On ch=1 n=66 v=70
107280 On ch=1 n=71 v=0
107358 On ch=1 n=69 v=70
107359 On ch=1 n=66 v=0
107438 On ch=1 n=69 v=0
107438 On ch=1 n=60 v=70
107518 On ch=1 n=60 v=0
107520 On ch=1 n=69 v=59
107600 On ch=1 n=69 v=0
107603 On ch=1 n=64 v=59
107678 On ch=1 n=68 v=59
107683 On ch=1 n=64 v=0
107758 On ch=1 n=68 v=0
107758 On ch=1 n=71 v=60
107838 On ch=1 n=71 v=0
107839 On ch=1 n=81 v=60
107919 On ch=1 n=81 v=0
107922 On ch=1 n=76 v=61
108002 On ch=1 n=76 v=0
108002 On ch=1 n=80 v=62
108082 On ch=1 n=80 v=0
108082 On ch=1 n=83 v=62
108161 On ch=1 n=93 v=63
108162 On ch=1 n=83 v=0
108239 On ch=1 n=88 v=63
108241 On ch=1 n=93 v=0
108319 On ch=1 n=88 v=0
108322 On ch=1 n=92 v=64
108402 On ch=1 n=92 v=0
108403 On ch=1 n=83 v=63
108483 On ch=1 n=83 v=0
108483 On ch=1 n=92 v=63
108559 On ch=1 n=86 v=63
108563 On ch=1 n=92 v=0
108639 On ch=1 n=86 v=0
108640 On ch=1 n=90 v=63
108718 On ch=1 n=83 v=63
108720 On ch=1 n=90 v=0
108798 On ch=1 n=83 v=0
108798 On ch=1 n=80 v=62
108878 On ch=1 n=80 v=0
108878 On ch=1 n=74 v=62
108958 On ch=1 n=74 v=0
108960 On ch=1 n=78 v=62
109040 On ch=1 n=78 v=0
109042 On ch=1 n=71 v=61
109120 On ch=1 n=68 v=61
109122 On ch=1 n=71 v=0
109199 On ch=1 n=62 v=61
109200 On ch=1 n=68 v=0
109279 On ch=1 n=62 v=0
109279 On ch=1 n=66 v=61
109359 On ch=1 n=66 v=0
109359 On ch=1 n=59 v=61
109439 On ch=1 n=59 v=0
109442 On ch=1 n=66 v=60
109518 On ch=1 n=61 v=59
109522 On ch=1 n=66 v=0
109598 On ch=1 n=61 v=0
109598 On ch=1 n=64 v=59
109678 On ch=1 n=64 v=0
109681 On ch=1 n=68 v=60
109760 On ch=1 n=78 v=60
109761 On ch=1 n=68 v=0
109840 On ch=1 n=78 v=0
109842 On ch=1 n=73 v=61
109918 On ch=1 n=76 v=62
109922 On ch=1 n=73 v=0
109998 On ch=1 n=76 v=0
110003 On ch=1 n=80 v=66
110078 On ch=1 n=90 v=66
110083 On ch=1 n=80 v=0
110158 On ch=1 n=90 v=0
110158 On ch=1 n=85 v=66
110238 On ch=1 n=85 v=0
110239 On ch=1 n=88 v=66
110319 On ch=1 n=88 v=0
110322 On ch=1 n=80 v=66
110399 On ch=1 n=88 v=66
110402 On ch=1 n=80 v=0
110479 On ch=1 n=88 v=0
110481 On ch=1 n=83 v=64
110560 On ch=1 n=86 v=64
110561 On ch=1 n=83 v=0
110640 On ch=1 n=86 v=0
110641 On ch=1 n=78 v=63
110721 On ch=1 n=78 v=0
110721 On ch=1 n=76 v=63
110801 On ch=1 n=76 v=0
110803 On ch=1 n=71 v=62
110883 On ch=1 n=71 v=0
110883 On ch=1 n=74 v=62
110963 On ch=1 n=74 v=0
110963 On ch=1 n=66 v=67
111038 On ch=1 n=64 v=64
111043 On ch=1 n=66 v=0
111118 On ch=1 n=64 v=0
111118 On ch=1 n=59 v=62
111198 On ch=1 n=59 v=0
111201 On ch=1 n=62 v=62
111281 On ch=1 n=62 v=0
111282 On ch=1 n=54 v=61
111362 On ch=1 n=54 v=0
111363 On ch=1 n=61 v=71
111438 On ch=1 n=56 v=66
111443 On ch=1 n=61 v=0
111518 On ch=1 n=56 v=0
111523 On ch=1 n=59 v=71
111602 On ch=1 n=53 v=67
111603 On ch=1 n=59 v=0
111680 On ch=1 n=64 v=71
111682 On ch=1 n=53 v=0
111760 On ch=1 n=64 v=0
111761 On ch=1 n=59 v=68
111841 On ch=1 n=59 v=0
111842 On ch=1 n=62 v=71
111920 On ch=1 n=56 v=66
111922 On ch=1 n=62 v=0
111999 On ch=1 n=67 v=71
112000 On ch=1 n=56 v=0
112079 On ch=1 n=67 v=0
112083 On ch=1 n=62 v=68
112163 On ch=1 n=62 v=0
112163 On ch=1 n=65 v=71
112242 On ch=1 n=59 v=68
112243 On ch=1 n=65 v=0
112321 On ch=1 n=69 v=71
112322 On ch=1 n=59 v=0
112399 On ch=1 n=65 v=71
112401 On ch=1 n=69 v=0
112478 On ch=1 n=68 v=71
112479 On ch=1 n=65 v=0
112558 On ch=1 n=68 v=0
112559 On ch=1 n=62 v=71
112639 On ch=1 n=62 v=0
112641 On ch=1 n=72 v=71
112720 On ch=1 n=68 v=71
112721 On ch=1 n=72 v=0
112800 On ch=1 n=68 v=0
112800 On ch=1 n=71 v=71
112879 On ch=1 n=65 v=71
112880 On ch=1 n=71 v=0
112959 On ch=1 n=65 v=0
112960 On ch=1 n=76 v=71
113040 On ch=1 n=76 v=0
113042 On ch=1 n=71 v=71
113122 On ch=1 n=71 v=0
113123 On ch=1 n=74 v=71
113202 On ch=1 n=68 v=71
113203 On ch=1 n=74 v=0
113282 On ch=1 n=68 v=0
113283 On ch=1 n=79 v=71
113359 On ch=1 n=74 v=71
113363 On ch=1 n=79 v=0
113439 On ch=1 n=74 v=0
113441 On ch=1 n=77 v=73
113519 On ch=1 n=71 v=75
113521 On ch=1 n=77 v=0
113599 On ch=1 n=71 v=0
113603 On ch=1 n=81 v=77
113680 On ch=1 n=77 v=77
113683 On ch=1 n=81 v=0
113759 On ch=1 n=80 v=77
113760 On ch=1 n=77 v=0
113839 On ch=1 n=80 v=0
113841 On ch=1 n=74 v=78
113921 On ch=1 n=74 v=0
113921 On ch=1 n=84 v=78
114000 On ch=1 n=80 v=78
114001 On ch=1 n=84 v=0
114080 On ch=1 n=80 v=0
114080 On ch=1 n=83 v=79
114159 On ch=1 n=77 v=79
114160 On ch=1 n=83 v=0
114239 On ch=1 n=77 v=0
114239 On ch=1 n=88 v=77
114319 On ch=1 n=88 v=0
114319 On ch=1 n=83 v=77
114399 On ch=1 n=83 v=0
114403 On ch=1 n=86 v=77
114482 On ch=1 n=80 v=77
114483 On ch=1 n=86 v=0
114562 On ch=1 n=80 v=0
114562 On ch=1 n=91 v=77
114641 On ch=1 n=86 v=77
114642 On ch=1 n=91 v=0
114721 On ch=1 n=86 v=0
114722 On ch=1 n=89 v=75
114799 On ch=1 n=83 v=77
114802 On ch=1 n=89 v=0
114879 On ch=1 n=83 v=0
114882 On ch=1 n=93 v=79
114958 On ch=1 n=89 v=80
114962 On ch=1 n=93 v=0
115038 On ch=1 n=89 v=0
115042 On ch=1 n=92 v=82
115122 On ch=1 n=92 v=0
115123 On ch=1 n=86 v=84
115200 On ch=1 n=101 v=97
115203 On ch=1 n=86 v=0
115278 On ch=1 n=95 v=88
115296 On ch=1 n=101 v=0
115360 On ch=1 n=100 v=94
115374 On ch=1 n=95 v=0
115438 On ch=1 n=92 v=85
115456 On ch=1 n=100 v=0
115523 On ch=1 n=99 v=94
115534 On ch=1 n=92 v=0
115601 On ch=1 n=95 v=85
115619 On ch=1 n=99 v=0
115681 On ch=1 n=98 v=90
115697 On ch=1 n=95 v=0
115761 On ch=1 n=92 v=85
115777 On ch=1 n=98 v=0
115841 On ch=1 n=97 v=89
115857 On ch=1 n=92 v=0
115922 On ch=1 n=92 v=84
115937 On ch=1 n=97 v=0
116001 On ch=1 n=96 v=89
116018 On ch=1 n=92 v=0
116082 On ch=1 n=89 v=84
116097 On ch=1 n=96 v=0
116162 On ch=1 n=95 v=89
116178 On ch=1 n=89 v=0
116243 On ch=1 n=89 v=84
116258 On ch=1 n=95 v=0
116318 On ch=1 n=94 v=89
116339 On ch=1 n=89 v=0
116400 On ch=1 n=86 v=84
116414 On ch=1 n=94 v=0
116482 On ch=1 n=93 v=89
116496 On ch=1 n=86 v=0
116558 On ch=1 n=89 v=82
116578 On ch=1 n=93 v=0
116640 On ch=1 n=92 v=88
116654 On ch=1 n=89 v=0
116718 On ch=1 n=83 v=82
116736 On ch=1 n=92 v=0
116801 On ch=1 n=91 v=88
116814 On ch=1 n=83 v=0
116879 On ch=1 n=86 v=82
116897 On ch=1 n=91 v=0
116958 On ch=1 n=90 v=88
116975 On ch=1 n=86 v=0
117039 On ch=1 n=80 v=82
117054 On ch=1 n=90 v=0
117123 On ch=1 n=89 v=88
117135 On ch=1 n=80 v=0
117201 On ch=1 n=83 v=82
117219 On ch=1 n=89 v=0
117281 On ch=1 n=88 v=88
117297 On ch=1 n=83 v=0
117358 On ch=1 n=80 v=82
117377 On ch=1 n=88 v=0
117440 On ch=1 n=87 v=88
117454 On ch=1 n=80 v=0
117523 On ch=1 n=83 v=82
117536 On ch=1 n=87 v=0
117603 On ch=1 n=86 v=88
117619 On ch=1 n=83 v=0
117680 On ch=1 n=79 v=82
117699 On ch=1 n=86 v=0
117759 On ch=1 n=85 v=88
117776 On ch=1 n=79 v=0
117839 On ch=1 n=79 v=82
117855 On ch=1 n=85 v=0
117918 On ch=1 n=84 v=88
117935 On ch=1 n=79 v=0
118003 On ch=1 n=77 v=81
118014 On ch=1 n=84 v=0
118080 On ch=1 n=83 v=103
118200 On ch=1 n=83 v=0
118243 On ch=1 n=77 v=0
119042 On ch=1 n=95 v=103
119123 On ch=1 n=89 v=85
119138 On ch=1 n=95 v=0
119199 On ch=1 n=94 v=99
119219 On ch=1 n=89 v=0
119283 On ch=1 n=86 v=85
119295 On ch=1 n=94 v=0
119360 On ch=1 n=93 v=90
119379 On ch=1 n=86 v=0
119443 On ch=1 n=89 v=85
119456 On ch=1 n=93 v=0
119521 On ch=1 n=92 v=90
119539 On ch=1 n=89 v=0
119599 On ch=1 n=86 v=85
119617 On ch=1 n=92 v=0
119679 On ch=1 n=91 v=89
119695 On ch=1 n=86 v=0
119760 On ch=1 n=86 v=85
119775 On ch=1 n=91 v=0
119841 On ch=1 n=90 v=89
119856 On ch=1 n=86 v=0
119919 On ch=1 n=83 v=84
119937 On ch=1 n=90 v=0
119999 On ch=1 n=89 v=89
120015 On ch=1 n=83 v=0
120078 On ch=1 n=83 v=84
120095 On ch=1 n=89 v=0
120158 On ch=1 n=88 v=89
120174 On ch=1 n=83 v=0
120242 On ch=1 n=80 v=84
120254 On ch=1 n=88 v=0
120323 On ch=1 n=87 v=89
120338 On ch=1 n=80 v=0
120402 On ch=1 n=83 v=82
120419 On ch=1 n=87 v=0
120482 On ch=1 n=86 v=88
120498 On ch=1 n=83 v=0
120558 On ch=1 n=77 v=82
120578 On ch=1 n=86 v=0
120640 On ch=1 n=85 v=88
120654 On ch=1 n=77 v=0
120721 On ch=1 n=80 v=82
120736 On ch=1 n=85 v=0
120803 On ch=1 n=84 v=88
120817 On ch=1 n=80 v=0
120879 On ch=1 n=74 v=84
120899 On ch=1 n=84 v=0
120961 On ch=1 n=83 v=88
120975 On ch=1 n=74 v=0
121042 On ch=1 n=77 v=84
121057 On ch=1 n=83 v=0
121123 On ch=1 n=82 v=88
121138 On ch=1 n=77 v=0
121203 On ch=1 n=74 v=82
121219 On ch=1 n=82 v=0
121282 On ch=1 n=81 v=88
121299 On ch=1 n=74 v=0
121361 On ch=1 n=77 v=84
121378 On ch=1 n=81 v=0
121439 On ch=1 n=80 v=86
121457 On ch=1 n=77 v=0
121522 On ch=1 n=74 v=82
121535 On ch=1 n=80 v=0
121598 On ch=1 n=79 v=85
121618 On ch=1 n=74 v=0
121681 On ch=1 n=74 v=81
121694 On ch=1 n=79 v=0
121762 On ch=1 n=78 v=85
121777 On ch=1 n=74 v=0
121840 On ch=1 n=71 v=81
121858 On ch=1 n=78 v=0
121918 On ch=1 n=71 v=0
121918 On ch=1 n=77 v=100
121920 On ch=1 n=74 v=90
121923 On ch=1 n=68 v=90
122040 On ch=1 n=74 v=0
122043 On ch=1 n=68 v=0
122062 On ch=1 n=77 v=0
122880 On ch=1 n=77 v=60
122960 On ch=1 n=77 v=0
122960 On ch=1 n=74 v=55
123040 On ch=1 n=74 v=0
123040 On ch=1 n=76 v=60
123120 On ch=1 n=76 v=0
123120 On ch=1 n=68 v=60
123360 On ch=1 n=68 v=0
123840 On ch=1 n=77 v=60
123920 On ch=1 n=77 v=0
123920 On ch=1 n=74 v=53
124000 On ch=1 n=74 v=0
124000 On ch=1 n=76 v=60
124080 On ch=1 n=76 v=0
124080 On ch=1 n=68 v=60
124320 On ch=1 n=68 v=0
124800 On ch=1 n=77 v=51
124880 On ch=1 n=77 v=0
124880 On ch=1 n=74 v=51
124960 On ch=1 n=74 v=0
124960 On ch=1 n=76 v=51
125040 On ch=1 n=76 v=0
125041 On ch=1 n=68 v=52
125121 On ch=1 n=68 v=0
125123 On ch=1 n=77 v=52
125200 On ch=1 n=74 v=53
125203 On ch=1 n=77 v=0
125280 On ch=1 n=74 v=0
125280 On ch=1 n=76 v=53
125360 On ch=1 n=76 v=0
125363 On ch=1 n=68 v=53
125441 On ch=1 n=77 v=55
125443 On ch=1 n=68 v=0
125520 On ch=1 n=74 v=55
125521 On ch=1 n=77 v=0
125600 On ch=1 n=74 v=0
125601 On ch=1 n=76 v=56
125681 On ch=1 n=76 v=0
125682 On ch=1 n=68 v=56
125758 On ch=1 n=77 v=57
125762 On ch=1 n=68 v=0
125838 On ch=1 n=77 v=0
125838 On ch=1 n=74 v=57
125918 On ch=1 n=74 v=0
125919 On ch=1 n=76 v=57
125998 On ch=1 n=68 v=58
125999 On ch=1 n=76 v=0
126078 On ch=1 n=68 v=0
126079 On ch=1 n=77 v=58
126159 On ch=1 n=77 v=0
126160 On ch=1 n=74 v=59
126240 On ch=1 n=74 v=0
126241 On ch=1 n=76 v=59
126319 On ch=1 n=68 v=60
126321 On ch=1 n=76 v=0
126398 On ch=1 n=77 v=60
126399 On ch=1 n=68 v=0
126478 On ch=1 n=77 v=0
126481 On ch=1 n=74 v=60
126558 On ch=1 n=76 v=61
126561 On ch=1 n=74 v=0
126638 On ch=1 n=76 v=0
126639 On ch=1 n=68 v=61
126719 On ch=1 n=68 v=0
126722 On ch=1 n=77 v=62
126800 On ch=1 n=74 v=62
126802 On ch=1 n=77 v=0
126880 On ch=1 n=74 v=0
126883 On ch=1 n=76 v=62
126959 On ch=1 n=68 v=63
126963 On ch=1 n=76 v=0
127038 On ch=1 n=77 v=63
127039 On ch=1 n=68 v=0
127118 On ch=1 n=77 v=0
127121 On ch=1 n=74 v=64
127199 On ch=1 n=76 v=64
127201 On ch=1 n=74 v=0
127278 On ch=1 n=68 v=66
127279 On ch=1 n=76 v=0
127358 On ch=1 n=68 v=0
127361 On ch=1 n=77 v=66
127441 On ch=1 n=77 v=0
127442 On ch=1 n=74 v=66
127518 On ch=1 n=76 v=67
127522 On ch=1 n=74 v=0
127598 On ch=1 n=76 v=0
127603 On ch=1 n=68 v=67
127680 On ch=1 n=77 v=68
127683 On ch=1 n=68 v=0
127760 On ch=1 n=77 v=0
127763 On ch=1 n=74 v=68
127841 On ch=1 n=76 v=69
127843 On ch=1 n=74 v=0
127919 On ch=1 n=68 v=69
127921 On ch=1 n=76 v=0
127999 On ch=1 n=68 v=0
127999 On ch=1 n=77 v=69
128079 On ch=1 n=77 v=0
128080 On ch=1 n=74 v=70
128159 On ch=1 n=76 v=70
128160 On ch=1 n=74 v=0
128239 On ch=1 n=76 v=0
128240 On ch=1 n=68 v=71
128320 On ch=1 n=68 v=0
128322 On ch=1 n=77 v=71
128402 On ch=1 n=77 v=0
128403 On ch=1 n=74 v=72
128480 On ch=1 n=76 v=72
128483 On ch=1 n=74 v=0
128560 On ch=1 n=76 v=0
128560 On ch=1 n=68 v=72
128640 On ch=1 n=68 v=0
128642 On ch=1 n=77 v=73
128722 On ch=1 n=77 v=0
128722 On ch=1 n=74 v=73
128798 On ch=1 n=76 v=74
128802 On ch=1 n=74 v=0
128878 On ch=1 n=76 v=0
128878 On ch=1 n=68 v=74
128958 On ch=1 n=68 v=0
128962 On ch=1 n=77 v=74
129042 On ch=1 n=77 v=0
129043 On ch=1 n=74 v=75
129121 On ch=1 n=76 v=75
129123 On ch=1 n=74 v=0
129200 On ch=1 n=80 v=77
129201 On ch=1 n=76 v=0
129280 On ch=1 n=80 v=0
129280 On ch=1 n=89 v=77
129358 On ch=1 n=86 v=78
129360 On ch=1 n=89 v=0
129438 On ch=1 n=86 v=0
129440 On ch=1 n=88 v=78
129519 On ch=1 n=92 v=78
129520 On ch=1 n=88 v=0
129599 On ch=1 n=92 v=0
129600 On ch=1 n=101 v=79
129680 On ch=1 n=101 v=0
129683 On ch=1 n=98 v=79
129759 On ch=1 n=100 v=80
129763 On ch=1 n=98 v=0
129839 On ch=1 n=100 v=0
129839 On ch=1 n=92 v=80
129918 On ch=1 n=101 v=81
129919 On ch=1 n=92 v=0
129998 On ch=1 n=101 v=0
130000 On ch=1 n=98 v=81
130079 On ch=1 n=100 v=81
130080 On ch=1 n=98 v=0
130159 On ch=1 n=100 v=0
130159 On ch=1 n=92 v=82
130239 On ch=1 n=92 v=0
130239 On ch=1 n=101 v=82
130319 On ch=1 n=101 v=0
130319 On ch=1 n=98 v=83
130399 On ch=1 n=98 v=0
130400 On ch=1 n=100 v=83
130478 On ch=1 n=92 v=84
130480 On ch=1 n=100 v=0
130558 On ch=1 n=92 v=0
130558 On ch=1 n=101 v=97
130638 On ch=1 n=101 v=0
130643 On ch=1 n=96 v=81
130718 On ch=1 n=100 v=90
130723 On ch=1 n=96 v=0
130798 On ch=1 n=100 v=0
130803 On ch=1 n=93 v=73
130880 On ch=1 n=99 v=93
130883 On ch=1 n=93 v=0
130960 On ch=1 n=99 v=0
130963 On ch=1 n=96 v=73
131040 On ch=1 n=98 v=83
131043 On ch=1 n=96 v=0
131119 On ch=1 n=93 v=67
131120 On ch=1 n=98 v=0
131199 On ch=1 n=93 v=0
131202 On ch=1 n=97 v=79
131282 On ch=1 n=97 v=0
131283 On ch=1 n=93 v=67
131360 On ch=1 n=96 v=78
131363 On ch=1 n=93 v=0
131440 On ch=1 n=96 v=0
131440 On ch=1 n=88 v=67
131520 On ch=1 n=88 v=0
131522 On ch=1 n=95 v=79
131599 On ch=1 n=88 v=73
131602 On ch=1 n=95 v=0
131679 On ch=1 n=88 v=0
131680 On ch=1 n=94 v=79
131760 On ch=1 n=94 v=0
131761 On ch=1 n=84 v=73
131841 On ch=1 n=84 v=0
131842 On ch=1 n=93 v=79
131922 On ch=1 n=93 v=0
131922 On ch=1 n=88 v=73
132002 On ch=1 n=88 v=0
132002 On ch=1 n=92 v=79
132080 On ch=1 n=84 v=67
132082 On ch=1 n=92 v=0
132160 On ch=1 n=84 v=0
132162 On ch=1 n=91 v=71
132241 On ch=1 n=84 v=67
132242 On ch=1 n=91 v=0
132319 On ch=1 n=90 v=71
132321 On ch=1 n=84 v=0
132399 On ch=1 n=90 v=0
132400 On ch=1 n=81 v=67
132478 On ch=1 n=89 v=79
132480 On ch=1 n=81 v=0
132558 On ch=1 n=89 v=0
132563 On ch=1 n=84 v=73
132642 On ch=1 n=88 v=79
132643 On ch=1 n=84 v=0
132720 On ch=1 n=81 v=73
132722 On ch=1 n=88 v=0
132799 On ch=1 n=87 v=79
132800 On ch=1 n=81 v=0
132879 On ch=1 n=87 v=0
132879 On ch=1 n=84 v=73
132959 On ch=1 n=84 v=0
132959 On ch=1 n=86 v=79
133038 On ch=1 n=81 v=67
133039 On ch=1 n=86 v=0
133118 On ch=1 n=81 v=0
133123 On ch=1 n=85 v=71
133199 On ch=1 n=81 v=67
133203 On ch=1 n=85 v=0
133279 On ch=1 n=81 v=0
133280 On ch=1 n=84 v=71
133358 On ch=1 n=76 v=67
133360 On ch=1 n=84 v=0
133438 On ch=1 n=76 v=0
133443 On ch=1 n=83 v=71
133521 On ch=1 n=76 v=67
133523 On ch=1 n=83 v=0
133601 On ch=1 n=76 v=0
133602 On ch=1 n=82 v=71
133679 On ch=1 n=72 v=67
133682 On ch=1 n=82 v=0
133759 On ch=1 n=72 v=0
133760 On ch=1 n=81 v=71
133840 On ch=1 n=81 v=0
133842 On ch=1 n=76 v=67
133920 On ch=1 n=80 v=71
133922 On ch=1 n=76 v=0
134000 On ch=1 n=80 v=0
134001 On ch=1 n=72 v=67
134081 On ch=1 n=72 v=0
134082 On ch=1 n=79 v=71
134159 On ch=1 n=72 v=67
134162 On ch=1 n=79 v=0
134239 On ch=1 n=72 v=0
134239 On ch=1 n=78 v=71
134319 On ch=1 n=78 v=0
134323 On ch=1 n=69 v=67
134402 On ch=1 n=77 v=53
134403 On ch=1 n=69 v=0
134479 On ch=1 n=72 v=49
134482 On ch=1 n=77 v=0
134559 On ch=1 n=72 v=0
134563 On ch=1 n=76 v=53
134638 On ch=1 n=69 v=49
134643 On ch=1 n=76 v=0
134718 On ch=1 n=69 v=0
134722 On ch=1 n=75 v=53
134798 On ch=1 n=72 v=49
134802 On ch=1 n=75 v=0
134878 On ch=1 n=72 v=0
134878 On ch=1 n=74 v=53
134958 On ch=1 n=74 v=0
134958 On ch=1 n=69 v=49
135038 On ch=1 n=69 v=0
135041 On ch=1 n=73 v=53
135121 On ch=1 n=73 v=0
135121 On ch=1 n=69 v=49
135201 On ch=1 n=69 v=0
135201 On ch=1 n=72 v=53
135279 On ch=1 n=64 v=49
135281 On ch=1 n=72 v=0
135358 On ch=1 n=71 v=53
135359 On ch=1 n=64 v=0
135438 On ch=1 n=71 v=0
135439 On ch=1 n=64 v=49
135518 On ch=1 n=70 v=51
135519 On ch=1 n=64 v=0
135598 On ch=1 n=70 v=0
135600 On ch=1 n=60 v=48
135678 On ch=1 n=69 v=50
135680 On ch=1 n=60 v=0
135758 On ch=1 n=69 v=0
135759 On ch=1 n=64 v=45
135839 On ch=1 n=64 v=0
135842 On ch=1 n=68 v=49
135921 On ch=1 n=60 v=44
135922 On ch=1 n=68 v=0
135999 On ch=1 n=67 v=47
136001 On ch=1 n=60 v=0
136079 On ch=1 n=67 v=0
136083 On ch=1 n=60 v=44
136163 On ch=1 n=60 v=0
136163 On ch=1 n=66 v=45
136238 On ch=1 n=57 v=45
136243 On ch=1 n=66 v=0
136318 On ch=1 n=57 v=0
136319 On ch=1 n=65 v=45
136399 On ch=1 n=65 v=0
136402 On ch=1 n=60 v=42
136480 On ch=1 n=64 v=45
136482 On ch=1 n=60 v=0
136559 On ch=1 n=57 v=42
136560 On ch=1 n=64 v=0
136639 On ch=1 n=57 v=0
136640 On ch=1 n=63 v=44
136720 On ch=1 n=63 v=0
136721 On ch=1 n=60 v=40
136801 On ch=1 n=60 v=0
136802 On ch=1 n=62 v=42
136881 On ch=1 n=57 v=39
136882 On ch=1 n=62 v=0
136958 On ch=1 n=61 v=42
136961 On ch=1 n=57 v=0
137038 On ch=1 n=61 v=0
137042 On ch=1 n=57 v=39
137121 On ch=1 n=60 v=40
137122 On ch=1 n=57 v=0
137198 On ch=1 n=52 v=38
137201 On ch=1 n=60 v=0
137278 On ch=1 n=52 v=0
137281 On ch=1 n=59 v=40
137361 On ch=1 n=59 v=0
137363 On ch=1 n=52 v=39
137442 On ch=1 n=58 v=45
137443 On ch=1 n=52 v=0
137520 On ch=1 n=48 v=42
137522 On ch=1 n=58 v=0
137600 On ch=1 n=48 v=0
137600 On ch=1 n=57 v=47
137680 On ch=1 n=57 v=0
137683 On ch=1 n=52 v=45
137761 On ch=1 n=56 v=50
137763 On ch=1 n=52 v=0
137840 On ch=1 n=48 v=48
137841 On ch=1 n=56 v=0
137920 On ch=1 n=48 v=0
137923 On ch=1 n=57 v=53
138001 On ch=1 n=52 v=50
138003 On ch=1 n=57 v=0
138078 On ch=1 n=60 v=56
138081 On ch=1 n=52 v=0
138158 On ch=1 n=60 v=0
138161 On ch=1 n=53 v=53
138238 On ch=1 n=64 v=57
138241 On ch=1 n=53 v=0
138318 On ch=1 n=64 v=0
138319 On ch=1 n=59 v=57
138399 On ch=1 n=59 v=0
138401 On ch=1 n=62 v=57
138481 On ch=1 n=62 v=0
138482 On ch=1 n=65 v=57
138560 On ch=1 n=76 v=57
138562 On ch=1 n=65 v=0
138640 On ch=1 n=76 v=0
138643 On ch=1 n=71 v=57
138722 On ch=1 n=74 v=59
138723 On ch=1 n=71 v=0
138800 On ch=1 n=77 v=60
138802 On ch=1 n=74 v=0
138880 On ch=1 n=77 v=0
138880 On ch=1 n=88 v=61
138960 On ch=1 n=88 v=0
138960 On ch=1 n=83 v=62
139040 On ch=1 n=83 v=0
139041 On ch=1 n=86 v=64
139120 On ch=1 n=77 v=66
139121 On ch=1 n=86 v=0
139200 On ch=1 n=77 v=0
139201 On ch=1 n=86 v=67
139281 On ch=1 n=86 v=0
139281 On ch=1 n=81 v=64
139360 On ch=1 n=84 v=61
139361 On ch=1 n=81 v=0
139440 On ch=1 n=84 v=0
139443 On ch=1 n=77 v=59
139519 On ch=1 n=74 v=59
139523 On ch=1 n=77 v=0
139598 On ch=1 n=69 v=57
139599 On ch=1 n=74 v=0
139678 On ch=1 n=69 v=0
139678 On ch=1 n=72 v=55
139758 On ch=1 n=72 v=0
139758 On ch=1 n=65 v=55
139838 On ch=1 n=65 v=0
139839 On ch=1 n=62 v=55
139919 On ch=1 n=62 v=0
139919 On ch=1 n=57 v=55
139999 On ch=1 n=57 v=0
140000 On ch=1 n=60 v=55
140080 On ch=1 n=60 v=0
140082 On ch=1 n=53 v=55
140160 On ch=1 n=64 v=57
140162 On ch=1 n=53 v=0
140238 On ch=1 n=59 v=57
140240 On ch=1 n=64 v=0
140318 On ch=1 n=59 v=0
140321 On ch=1 n=62 v=57
140401 On ch=1 n=62 v=0
140403 On ch=1 n=65 v=57
140482 On ch=1 n=76 v=57
140483 On ch=1 n=65 v=0
140559 On ch=1 n=71 v=57
140562 On ch=1 n=76 v=0
140639 On ch=1 n=71 v=0
140643 On ch=1 n=74 v=60
140719 On ch=1 n=77 v=60
140723 On ch=1 n=74 v=0
140798 On ch=1 n=88 v=61
140799 On ch=1 n=77 v=0
140878 On ch=1 n=88 v=0
140881 On ch=1 n=83 v=64
140958 On ch=1 n=86 v=64
140961 On ch=1 n=83 v=0
141038 On ch=1 n=86 v=0
141043 On ch=1 n=76 v=66
141121 On ch=1 n=86 v=66
141123 On ch=1 n=76 v=0
141200 On ch=1 n=81 v=64
141201 On ch=1 n=86 v=0
141278 On ch=1 n=84 v=61
141280 On ch=1 n=81 v=0
141358 On ch=1 n=84 v=0
141359 On ch=1 n=76 v=59
141439 On ch=1 n=76 v=0
141443 On ch=1 n=74 v=58
141521 On ch=1 n=69 v=56
141523 On ch=1 n=74 v=0
141598 On ch=1 n=72 v=56
141601 On ch=1 n=69 v=0
141678 On ch=1 n=72 v=0
141678 On ch=1 n=64 v=56
141758 On ch=1 n=64 v=0
141761 On ch=1 n=62 v=56
141841 On ch=1 n=62 v=0
141843 On ch=1 n=57 v=56
141921 On ch=1 n=60 v=56
141923 On ch=1 n=57 v=0
141999 On ch=1 n=59 v=56
142001 On ch=1 n=60 v=0
142079 On ch=1 n=59 v=0
142080 On ch=1 n=69 v=57
142160 On ch=1 n=69 v=0
142163 On ch=1 n=64 v=55
142238 On ch=1 n=68 v=55
142243 On ch=1 n=64 v=0
142318 On ch=1 n=68 v=0
142320 On ch=1 n=71 v=55
142400 On ch=1 n=71 v=0
142401 On ch=1 n=81 v=55
142480 On ch=1 n=76 v=55
142481 On ch=1 n=81 v=0
142559 On ch=1 n=80 v=55
142560 On ch=1 n=76 v=0
142639 On ch=1 n=80 v=0
142641 On ch=1 n=83 v=55
142719 On ch=1 n=93 v=56
142721 On ch=1 n=83 v=0
142799 On ch=1 n=93 v=0
142799 On ch=1 n=88 v=57
142879 On ch=1 n=88 v=0
142881 On ch=1 n=92 v=59
142961 On ch=1 n=92 v=0
142963 On ch=1 n=83 v=59
143040 On ch=1 n=92 v=59
143043 On ch=1 n=83 v=0
143119 On ch=1 n=87 v=59
143120 On ch=1 n=92 v=0
143199 On ch=1 n=87 v=0
143202 On ch=1 n=90 v=59
143280 On ch=1 n=83 v=58
143282 On ch=1 n=90 v=0
143360 On ch=1 n=83 v=0
143361 On ch=1 n=80 v=57
143440 On ch=1 n=75 v=56
143441 On ch=1 n=80 v=0
143520 On ch=1 n=75 v=0
143523 On ch=1 n=78 v=51
143598 On ch=1 n=71 v=51
143603 On ch=1 n=78 v=0
143678 On ch=1 n=71 v=0
143681 On ch=1 n=68 v=51
143758 On ch=1 n=63 v=51
143761 On ch=1 n=68 v=0
143838 On ch=1 n=63 v=0
143839 On ch=1 n=66 v=51
143918 On ch=1 n=59 v=51
143919 On ch=1 n=66 v=0
143998 On ch=1 n=59 v=0
143998 On ch=1 n=69 v=51
144078 On ch=1 n=69 v=0
144082 On ch=1 n=64 v=51
144162 On ch=1 n=64 v=0
144162 On ch=1 n=68 v=51
144240 On ch=1 n=71 v=51
144242 On ch=1 n=68 v=0
144320 On ch=1 n=71 v=0
144320 On ch=1 n=81 v=51
144400 On ch=1 n=81 v=0
144401 On ch=1 n=76 v=51
144480 On ch=1 n=80 v=51
144481 On ch=1 n=76 v=0
144560 On ch=1 n=80 v=0
144561 On ch=1 n=83 v=57
144638 On ch=1 n=93 v=57
144641 On ch=1 n=83 v=0
144718 On ch=1 n=93 v=0
144722 On ch=1 n=88 v=57
144800 On ch=1 n=92 v=57
144802 On ch=1 n=88 v=0
144880 On ch=1 n=92 v=0
144883 On ch=1 n=83 v=57
144960 On ch=1 n=100 v=76
144963 On ch=1 n=83 v=0
145200 On ch=1 n=100 v=0
145921 On ch=1 n=101 v=99
146001 On ch=1 n=101 v=0
146003 On ch=1 n=96 v=67
146080 On ch=1 n=100 v=89
146083 On ch=1 n=96 v=0
146160 On ch=1 n=100 v=0
146162 On ch=1 n=93 v=67
146241 On ch=1 n=99 v=82
146242 On ch=1 n=93 v=0
146320 On ch=1 n=96 v=67
146321 On ch=1 n=99 v=0
146400 On ch=1 n=96 v=0
146402 On ch=1 n=98 v=79
146482 On ch=1 n=98 v=0
146483 On ch=1 n=93 v=62
146558 On ch=1 n=97 v=77
146563 On ch=1 n=93 v=0
146638 On ch=1 n=97 v=0
146642 On ch=1 n=93 v=62
146720 On ch=1 n=96 v=77
146722 On ch=1 n=93 v=0
146799 On ch=1 n=88 v=62
146800 On ch=1 n=96 v=0
146879 On ch=1 n=88 v=0
146882 On ch=1 n=95 v=74
146962 On ch=1 n=95 v=0
146962 On ch=1 n=88 v=67
147039 On ch=1 n=94 v=75
147042 On ch=1 n=88 v=0
147119 On ch=1 n=94 v=0
147121 On ch=1 n=84 v=67
147199 On ch=1 n=93 v=75
147201 On ch=1 n=84 v=0
147278 On ch=1 n=88 v=67
147279 On ch=1 n=93 v=0
147358 On ch=1 n=88 v=0
147362 On ch=1 n=92 v=73
147440 On ch=1 n=84 v=62
147442 On ch=1 n=92 v=0
147519 On ch=1 n=91 v=70
147520 On ch=1 n=84 v=0
147599 On ch=1 n=91 v=0
147599 On ch=1 n=84 v=62
147679 On ch=1 n=84 v=0
147681 On ch=1 n=90 v=67
147759 On ch=1 n=81 v=62
147761 On ch=1 n=90 v=0
147839 On ch=1 n=81 v=0
147839 On ch=1 n=89 v=70
147919 On ch=1 n=89 v=0
147919 On ch=1 n=84 v=67
147999 On ch=1 n=84 v=0
148001 On ch=1 n=88 v=70
148081 On ch=1 n=88 v=0
148082 On ch=1 n=81 v=67
148162 On ch=1 n=81 v=0
148162 On ch=1 n=87 v=70
148241 On ch=1 n=84 v=67
148242 On ch=1 n=87 v=0
148318 On ch=1 n=86 v=70
148321 On ch=1 n=84 v=0
148398 On ch=1 n=86 v=0
148399 On ch=1 n=81 v=62
148479 On ch=1 n=81 v=0
148483 On ch=1 n=85 v=67
148559 On ch=1 n=81 v=62
148563 On ch=1 n=85 v=0
148639 On ch=1 n=81 v=0
148639 On ch=1 n=84 v=67
148718 On ch=1 n=76 v=62
148719 On ch=1 n=84 v=0
148798 On ch=1 n=76 v=0
148800 On ch=1 n=83 v=67
148879 On ch=1 n=76 v=62
148880 On ch=1 n=83 v=0
148959 On ch=1 n=76 v=0
148963 On ch=1 n=82 v=67
149039 On ch=1 n=72 v=62
149043 On ch=1 n=82 v=0
149119 On ch=1 n=72 v=0
149119 On ch=1 n=81 v=67
149199 On ch=1 n=81 v=0
149201 On ch=1 n=76 v=62
149281 On ch=1 n=76 v=0
149282 On ch=1 n=80 v=67
149361 On ch=1 n=72 v=62
149362 On ch=1 n=80 v=0
149439 On ch=1 n=79 v=67
149441 On ch=1 n=72 v=0
149519 On ch=1 n=79 v=0
149522 On ch=1 n=72 v=62
149600 On ch=1 n=78 v=67
149602 On ch=1 n=72 v=0
149680 On ch=1 n=78 v=0
149682 On ch=1 n=69 v=62
149758 On ch=1 n=77 v=53
149762 On ch=1 n=69 v=0
149838 On ch=1 n=77 v=0
149842 On ch=1 n=72 v=49
149921 On ch=1 n=76 v=53
149922 On ch=1 n=72 v=0
149998 On ch=1 n=69 v=49
150001 On ch=1 n=76 v=0
150078 On ch=1 n=69 v=0
150082 On ch=1 n=75 v=53
150160 On ch=1 n=72 v=49
150162 On ch=1 n=75 v=0
150240 On ch=1 n=72 v=0
150241 On ch=1 n=74 v=53
150321 On ch=1 n=74 v=0
150323 On ch=1 n=69 v=49
150401 On ch=1 n=73 v=53
150403 On ch=1 n=69 v=0
150480 On ch=1 n=69 v=49
150481 On ch=1 n=73 v=0
150558 On ch=1 n=72 v=53
150560 On ch=1 n=69 v=0
150638 On ch=1 n=72 v=0
150642 On ch=1 n=64 v=49
150721 On ch=1 n=71 v=53
150722 On ch=1 n=64 v=0
150800 On ch=1 n=64 v=49
150801 On ch=1 n=71 v=0
150880 On ch=1 n=64 v=0
150881 On ch=1 n=70 v=51
150961 On ch=1 n=70 v=0
150962 On ch=1 n=60 v=48
151038 On ch=1 n=69 v=50
151042 On ch=1 n=60 v=0
151118 On ch=1 n=69 v=0
151118 On ch=1 n=64 v=45
151198 On ch=1 n=64 v=0
151201 On ch=1 n=68 v=49
151281 On ch=1 n=68 v=0
151282 On ch=1 n=60 v=44
151359 On ch=1 n=67 v=47
151362 On ch=1 n=60 v=0
151439 On ch=1 n=67 v=0
151442 On ch=1 n=60 v=44
151522 On ch=1 n=60 v=0
151523 On ch=1 n=66 v=45
151602 On ch=1 n=57 v=42
151603 On ch=1 n=66 v=0
151679 On ch=1 n=65 v=45
151682 On ch=1 n=57 v=0
151759 On ch=1 n=65 v=0
151761 On ch=1 n=60 v=42
151840 On ch=1 n=64 v=45
151841 On ch=1 n=60 v=0
151918 On ch=1 n=57 v=42
151920 On ch=1 n=64 v=0
151998 On ch=1 n=57 v=0
152000 On ch=1 n=63 v=44
152078 On ch=1 n=60 v=40
152080 On ch=1 n=63 v=0
152158 On ch=1 n=60 v=0
152162 On ch=1 n=62 v=42
152238 On ch=1 n=57 v=39
152242 On ch=1 n=62 v=0
152318 On ch=1 n=57 v=0
152322 On ch=1 n=61 v=42
152402 On ch=1 n=61 v=0
152402 On ch=1 n=57 v=39
152482 On ch=1 n=57 v=0
152482 On ch=1 n=60 v=40
152562 On ch=1 n=60 v=0
152563 On ch=1 n=52 v=38
152642 On ch=1 n=59 v=40
152643 On ch=1 n=52 v=0
152721 On ch=1 n=53 v=39
152722 On ch=1 n=59 v=0
152799 On ch=1 n=57 v=45
152801 On ch=1 n=53 v=0
152878 On ch=1 n=48 v=42
152879 On ch=1 n=57 v=0
152958 On ch=1 n=48 v=0
152959 On ch=1 n=56 v=47
153039 On ch=1 n=56 v=0
153042 On ch=1 n=53 v=45
153122 On ch=1 n=53 v=0
153123 On ch=1 n=57 v=50
153200 On ch=1 n=48 v=48
153203 On ch=1 n=57 v=0
153279 On ch=1 n=59 v=53
153280 On ch=1 n=48 v=0
153359 On ch=1 n=59 v=0
153362 On ch=1 n=52 v=50
153441 On ch=1 n=60 v=56
153442 On ch=1 n=52 v=0
153520 On ch=1 n=48 v=53
153521 On ch=1 n=60 v=0
153600 On ch=1 n=48 v=0
153600 On ch=1 n=60 v=57
153680 On ch=1 n=60 v=0
153683 On ch=1 n=53 v=57
153760 On ch=1 n=59 v=57
153763 On ch=1 n=53 v=0
153836 On ch=1 n=59 v=0
153843 On ch=1 n=59 v=57
153919 On ch=1 n=72 v=57
153923 On ch=1 n=59 v=0
153999 On ch=1 n=72 v=0
154001 On ch=1 n=65 v=57
154080 On ch=1 n=71 v=56
154081 On ch=1 n=65 v=0
154155 On ch=1 n=71 v=0
154160 On ch=1 n=71 v=57
154240 On ch=1 n=71 v=0
154243 On ch=1 n=84 v=58
154320 On ch=1 n=77 v=59
154323 On ch=1 n=84 v=0
154400 On ch=1 n=77 v=0
154400 On ch=1 n=83 v=59
154475 On ch=1 n=83 v=0
154480 On ch=1 n=83 v=60
154560 On ch=1 n=83 v=0
154561 On ch=1 n=96 v=61
154641 On ch=1 n=96 v=0
154642 On ch=1 n=90 v=61
154718 On ch=1 n=95 v=60
154722 On ch=1 n=90 v=0
154798 On ch=1 n=95 v=0
154801 On ch=1 n=83 v=59
154879 On ch=1 n=84 v=59
154881 On ch=1 n=83 v=0
154959 On ch=1 n=84 v=0
154959 On ch=1 n=78 v=58
155039 On ch=1 n=78 v=0
155042 On ch=1 n=83 v=56
155122 On ch=1 n=83 v=0
155123 On ch=1 n=71 v=56
155202 On ch=1 n=72 v=56
155203 On ch=1 n=71 v=0
155282 On ch=1 n=72 v=0
155283 On ch=1 n=66 v=56
155361 On ch=1 n=71 v=56
155363 On ch=1 n=66 v=0
155441 On ch=1 n=71 v=0
155443 On ch=1 n=59 v=56
155523 On ch=1 n=59 v=0
155523 On ch=1 n=74 v=59
155601 On ch=1 n=67 v=59
155603 On ch=1 n=74 v=0
155680 On ch=1 n=73 v=60
155681 On ch=1 n=67 v=0
155755 On ch=1 n=73 v=0
155760 On ch=1 n=73 v=61
155838 On ch=1 n=86 v=61
155840 On ch=1 n=73 v=0
155918 On ch=1 n=86 v=0
155922 On ch=1 n=77 v=64
156000 On ch=1 n=85 v=66
156002 On ch=1 n=77 v=0
156075 On ch=1 n=85 v=0
156080 On ch=1 n=85 v=66
156160 On ch=1 n=85 v=0
156161 On ch=1 n=98 v=67
156241 On ch=1 n=98 v=0
156242 On ch=1 n=91 v=68
156322 On ch=1 n=91 v=0
156322 On ch=1 n=97 v=68
156402 On ch=1 n=97 v=0
156403 On ch=1 n=85 v=69
156478 On ch=1 n=99 v=69
156483 On ch=1 n=85 v=0
156558 On ch=1 n=99 v=0
156560 On ch=1 n=94 v=69
156640 On ch=1 n=94 v=0
156641 On ch=1 n=98 v=70
156720 On ch=1 n=86 v=71
156721 On ch=1 n=98 v=0
156800 On ch=1 n=86 v=0
156800 On ch=1 n=87 v=71
156880 On ch=1 n=87 v=0
156882 On ch=1 n=82 v=72
156961 On ch=1 n=86 v=73
156962 On ch=1 n=82 v=0
157040 On ch=1 n=74 v=73
157041 On ch=1 n=86 v=0
157120 On ch=1 n=74 v=0
157121 On ch=1 n=75 v=75
157200 On ch=1 n=70 v=78
157201 On ch=1 n=75 v=0
157280 On ch=1 n=70 v=0
157282 On ch=1 n=74 v=78
157358 On ch=1 n=62 v=79
157362 On ch=1 n=74 v=0
157438 On ch=1 n=62 v=0
157438 On ch=1 n=76 v=78
157518 On ch=1 n=76 v=0
157523 On ch=1 n=69 v=72
157598 On ch=1 n=75 v=78
157603 On ch=1 n=69 v=0
157678 On ch=1 n=75 v=0
157680 On ch=1 n=63 v=72
157758 On ch=1 n=76 v=78
157760 On ch=1 n=63 v=0
157838 On ch=1 n=76 v=0
157840 On ch=1 n=69 v=72
157920 On ch=1 n=69 v=0
157920 On ch=1 n=75 v=81
158000 On ch=1 n=75 v=0
158000 On ch=1 n=75 v=75
158080 On ch=1 n=75 v=0
158080 On ch=1 n=88 v=86
158159 On ch=1 n=81 v=79
158160 On ch=1 n=88 v=0
158239 On ch=1 n=81 v=0
158240 On ch=1 n=87 v=86
158320 On ch=1 n=87 v=0
158320 On ch=1 n=87 v=80
158400 On ch=1 n=87 v=0
158403 On ch=1 n=100 v=86
158483 On ch=1 n=100 v=0
158483 On ch=1 n=93 v=80
158560 On ch=1 n=99 v=86
158563 On ch=1 n=93 v=0
158640 On ch=1 n=99 v=0
158640 On ch=1 n=87 v=81
158719 On ch=1 n=88 v=86
158720 On ch=1 n=87 v=0
158799 On ch=1 n=88 v=0
158803 On ch=1 n=81 v=81
158882 On ch=1 n=87 v=86
158883 On ch=1 n=81 v=0
158960 On ch=1 n=75 v=80
158962 On ch=1 n=87 v=0
159040 On ch=1 n=75 v=0
159042 On ch=1 n=88 v=86
159121 On ch=1 n=81 v=86
159122 On ch=1 n=88 v=0
159200 On ch=1 n=87 v=86
159201 On ch=1 n=81 v=0
159273 On ch=1 n=87 v=0
159280 On ch=1 n=87 v=80
159360 On ch=1 n=87 v=0
159362 On ch=1 n=100 v=86
159439 On ch=1 n=93 v=80
159442 On ch=1 n=100 v=0
159518 On ch=1 n=99 v=86
159519 On ch=1 n=93 v=0
159598 On ch=1 n=99 v=0
159601 On ch=1 n=87 v=86
159681 On ch=1 n=87 v=0
159682 On ch=1 n=88 v=86
159761 On ch=1 n=81 v=80
159762 On ch=1 n=88 v=0
159838 On ch=1 n=87 v=82
159841 On ch=1 n=81 v=0
159918 On ch=1 n=87 v=0
159921 On ch=1 n=75 v=78
160000 On ch=1 n=88 v=82
160001 On ch=1 n=75 v=0
160080 On ch=1 n=88 v=0
160083 On ch=1 n=81 v=82
160160 On ch=1 n=87 v=82
160163 On ch=1 n=81 v=0
160234 On ch=1 n=87 v=0
160240 On ch=1 n=87 v=78
160319 On ch=1 n=100 v=80
160320 On ch=1 n=87 v=0
160398 On ch=1 n=93 v=68
160399 On ch=1 n=100 v=0
160478 On ch=1 n=93 v=0
160479 On ch=1 n=99 v=70
160559 On ch=1 n=99 v=0
160560 On ch=1 n=87 v=62
160640 On ch=1 n=87 v=0
160641 On ch=1 n=100 v=66
160718 On ch=1 n=93 v=60
160721 On ch=1 n=100 v=0
160798 On ch=1 n=93 v=0
160800 On ch=1 n=99 v=62
160878 On ch=1 n=87 v=58
160880 On ch=1 n=99 v=0
160958 On ch=1 n=87 v=0
160963 On ch=1 n=100 v=59
161042 On ch=1 n=93 v=53
161043 On ch=1 n=100 v=0
161118 On ch=1 n=99 v=55
161122 On ch=1 n=93 v=0
161198 On ch=1 n=99 v=0
161198 On ch=1 n=87 v=49
161278 On ch=1 n=87 v=0
161282 On ch=1 n=100 v=60
161362 On ch=1 n=100 v=0
161363 On ch=1 n=95 v=55
161442 On ch=1 n=99 v=61
161443 On ch=1 n=95 v=0
161522 On ch=1 n=99 v=0
161522 On ch=1 n=93 v=56
161598 On ch=1 n=100 v=62
161602 On ch=1 n=93 v=0
161678 On ch=1 n=100 v=0
161682 On ch=1 n=95 v=56
161761 On ch=1 n=99 v=63
161762 On ch=1 n=95 v=0
161841 On ch=1 n=99 v=0
161841 On ch=1 n=93 v=57
161921 On ch=1 n=93 v=0
161923 On ch=1 n=100 v=64
161998 On ch=1 n=95 v=60
162003 On ch=1 n=100 v=0
162078 On ch=1 n=95 v=0
162083 On ch=1 n=99 v=66
162163 On ch=1 n=99 v=0
162163 On ch=1 n=93 v=60
162241 On ch=1 n=100 v=67
162243 On ch=1 n=93 v=0
162321 On ch=1 n=100 v=0
162323 On ch=1 n=95 v=60
162401 On ch=1 n=99 v=68
162403 On ch=1 n=95 v=0
162478 On ch=1 n=93 v=62
162481 On ch=1 n=99 v=0
162558 On ch=1 n=93 v=0
162563 On ch=1 n=100 v=69
162641 On ch=1 n=95 v=63
162643 On ch=1 n=100 v=0
162719 On ch=1 n=99 v=70
162721 On ch=1 n=95 v=0
162799 On ch=1 n=99 v=0
162799 On ch=1 n=93 v=64
162879 On ch=1 n=93 v=0
162881 On ch=1 n=100 v=72
162961 On ch=1 n=100 v=0
162963 On ch=1 n=95 v=66
163042 On ch=1 n=99 v=73
163043 On ch=1 n=95 v=0
163122 On ch=1 n=99 v=0
163123 On ch=1 n=93 v=67
163200 On ch=1 n=100 v=74
163203 On ch=1 n=93 v=0
163280 On ch=1 n=100 v=0
163283 On ch=1 n=95 v=67
163361 On ch=1 n=99 v=75
163363 On ch=1 n=95 v=0
163441 On ch=1 n=99 v=0
163442 On ch=1 n=93 v=67
163518 On ch=1 n=100 v=77
163522 On ch=1 n=93 v=0
163598 On ch=1 n=100 v=0
163602 On ch=1 n=95 v=69
163682 On ch=1 n=95 v=0
163682 On ch=1 n=99 v=78
163762 On ch=1 n=99 v=0
163763 On ch=1 n=93 v=69
163843 On ch=1 n=93 v=0
163843 On ch=1 n=100 v=79
163919 On ch=1 n=95 v=69
163923 On ch=1 n=100 v=0
163998 On ch=1 n=99 v=80
163999 On ch=1 n=95 v=0
164078 On ch=1 n=99 v=0
164079 On ch=1 n=93 v=69
164159 On ch=1 n=93 v=0
164159 On ch=1 n=100 v=81
164239 On ch=1 n=100 v=0
164243 On ch=1 n=95 v=70
164323 On ch=1 n=95 v=0
164323 On ch=1 n=99 v=82
164399 On ch=1 n=93 v=74
164403 On ch=1 n=99 v=0
164479 On ch=1 n=93 v=0
164479 On ch=1 n=100 v=84
164559 On ch=1 n=100 v=0
164563 On ch=1 n=95 v=78
164640 On ch=1 n=99 v=86
164643 On ch=1 n=95 v=0
164719 On ch=1 n=93 v=78
164720 On ch=1 n=99 v=0
164799 On ch=1 n=93 v=0
164803 On ch=1 n=100 v=88
164882 On ch=1 n=95 v=80
164883 On ch=1 n=100 v=0
164960 On ch=1 n=99 v=89
164962 On ch=1 n=95 v=0
165040 On ch=1 n=99 v=0
165040 On ch=1 n=93 v=81
165120 On ch=1 n=93 v=0
165121 On ch=1 n=101 v=89
165201 On ch=1 n=101 v=0
165201 On ch=1 n=96 v=82
165281 On ch=1 n=96 v=0
165283 On ch=1 n=100 v=89
165362 On ch=1 n=93 v=82
165363 On ch=1 n=100 v=0
165442 On ch=1 n=93 v=0
165442 On ch=1 n=98 v=79
165520 On ch=1 n=93 v=72
165522 On ch=1 n=98 v=0
165600 On ch=1 n=93 v=0
165601 On ch=1 n=96 v=79
165681 On ch=1 n=96 v=0
165683 On ch=1 n=88 v=75
165761 On ch=1 n=95 v=79
165763 On ch=1 n=88 v=0
165839 On ch=1 n=88 v=75
165841 On ch=1 n=95 v=0
165919 On ch=1 n=88 v=0
165920 On ch=1 n=93 v=79
166000 On ch=1 n=93 v=0
166001 On ch=1 n=84 v=72
166081 On ch=1 n=84 v=0
166082 On ch=1 n=89 v=79
166160 On ch=1 n=84 v=73
166162 On ch=1 n=89 v=0
166240 On ch=1 n=84 v=0
166242 On ch=1 n=88 v=79
166319 On ch=1 n=81 v=72
166322 On ch=1 n=88 v=0
166398 On ch=1 n=86 v=79
166399 On ch=1 n=81 v=0
166478 On ch=1 n=86 v=0
166478 On ch=1 n=81 v=73
166558 On ch=1 n=81 v=0
166558 On ch=1 n=84 v=79
166638 On ch=1 n=84 v=0
166640 On ch=1 n=76 v=72
166719 On ch=1 n=83 v=79
166720 On ch=1 n=76 v=0
166799 On ch=1 n=83 v=0
166801 On ch=1 n=76 v=72
166881 On ch=1 n=76 v=0
166883 On ch=1 n=81 v=79
166959 On ch=1 n=72 v=72
166963 On ch=1 n=81 v=0
167039 On ch=1 n=72 v=0
167042 On ch=1 n=77 v=79
167121 On ch=1 n=72 v=72
167122 On ch=1 n=77 v=0
167201 On ch=1 n=72 v=0
167203 On ch=1 n=76 v=79
167278 On ch=1 n=69 v=72
167283 On ch=1 n=76 v=0
167358 On ch=1 n=69 v=0
167359 On ch=1 n=74 v=79
167439 On ch=1 n=74 v=0
167440 On ch=1 n=69 v=72
167520 On ch=1 n=69 v=0
167522 On ch=1 n=72 v=79
167602 On ch=1 n=72 v=0
167602 On ch=1 n=64 v=73
167678 On ch=1 n=71 v=79
167682 On ch=1 n=64 v=0
167758 On ch=1 n=71 v=0
167760 On ch=1 n=64 v=72
167840 On ch=1 n=64 v=0
167840 On ch=1 n=69 v=79
167920 On ch=1 n=69 v=0
167923 On ch=1 n=60 v=72
168000 On ch=1 n=59 v=81
168000 On ch=1 n=71 v=96
168000 On ch=1 n=64 v=81
168000 On ch=1 n=69 v=96
168003 On ch=1 n=60 v=0
168480 On ch=1 n=64 v=0
168480 On ch=1 n=59 v=0
168480 On ch=1 n=71 v=0
168480 On ch=1 n=69 v=0
168480 On ch=1 n=64 v=81
168480 On ch=1 n=76 v=96
168480 On ch=1 n=62 v=81
168480 On ch=1 n=68 v=96
168480 On ch=1 n=71 v=96
168958 On ch=1 n=93 v=100
168960 On ch=1 n=71 v=0
168960 On ch=1 n=68 v=0
168960 On ch=1 n=62 v=0
168960 On ch=1 n=64 v=0
168960 On ch=1 n=76 v=0
169032 On ch=1 n=93 v=0
169042 On ch=1 n=88 v=82
169122 On ch=1 n=88 v=0
169122 On ch=1 n=92 v=93
169201 On ch=1 n=84 v=84
169202 On ch=1 n=92 v=0
169281 On ch=1 n=84 v=0
169281 On ch=1 n=91 v=93
169360 On ch=1 n=88 v=82
169361 On ch=1 n=91 v=0
169438 On ch=1 n=90 v=93
169440 On ch=1 n=88 v=0
169518 On ch=1 n=90 v=0
169518 On ch=1 n=84 v=83
169598 On ch=1 n=84 v=0
169602 On ch=1 n=89 v=93
169678 On ch=1 n=84 v=83
169682 On ch=1 n=89 v=0
169758 On ch=1 n=84 v=0
169759 On ch=1 n=88 v=93
169839 On ch=1 n=88 v=0
169839 On ch=1 n=81 v=83
169918 On ch=1 n=87 v=93
169919 On ch=1 n=81 v=0
169998 On ch=1 n=87 v=0
170001 On ch=1 n=84 v=82
170079 On ch=1 n=86 v=93
170081 On ch=1 n=84 v=0
170159 On ch=1 n=86 v=0
170162 On ch=1 n=81 v=82
170241 On ch=1 n=85 v=93
170242 On ch=1 n=81 v=0
170321 On ch=1 n=85 v=0
170321 On ch=1 n=81 v=82
170401 On ch=1 n=81 v=0
170403 On ch=1 n=84 v=93
170481 On ch=1 n=76 v=82
170483 On ch=1 n=84 v=0
170561 On ch=1 n=76 v=0
170562 On ch=1 n=83 v=93
170641 On ch=1 n=76 v=82
170642 On ch=1 n=83 v=0
170718 On ch=1 n=82 v=93
170721 On ch=1 n=76 v=0
170798 On ch=1 n=82 v=0
170799 On ch=1 n=72 v=82
170878 On ch=1 n=81 v=93
170879 On ch=1 n=72 v=0
170958 On ch=1 n=81 v=0
170962 On ch=1 n=76 v=81
171042 On ch=1 n=76 v=0
171043 On ch=1 n=80 v=93
171121 On ch=1 n=72 v=82
171123 On ch=1 n=80 v=0
171199 On ch=1 n=79 v=93
171201 On ch=1 n=72 v=0
171279 On ch=1 n=79 v=0
171280 On ch=1 n=76 v=82
171358 On ch=1 n=78 v=93
171360 On ch=1 n=76 v=0
171438 On ch=1 n=78 v=0
171441 On ch=1 n=72 v=82
171519 On ch=1 n=77 v=93
171521 On ch=1 n=72 v=0
171599 On ch=1 n=77 v=0
171601 On ch=1 n=72 v=82
171680 On ch=1 n=76 v=93
171681 On ch=1 n=72 v=0
171760 On ch=1 n=76 v=0
171761 On ch=1 n=69 v=82
171841 On ch=1 n=69 v=0
171842 On ch=1 n=75 v=93
171922 On ch=1 n=75 v=0
171922 On ch=1 n=72 v=82
172002 On ch=1 n=72 v=0
172002 On ch=1 n=74 v=93
172081 On ch=1 n=69 v=82
172082 On ch=1 n=74 v=0
172158 On ch=1 n=73 v=93
172161 On ch=1 n=69 v=0
172238 On ch=1 n=73 v=0
172243 On ch=1 n=69 v=82
172322 On ch=1 n=72 v=93
172323 On ch=1 n=69 v=0
172398 On ch=1 n=64 v=80
172402 On ch=1 n=72 v=0
172478 On ch=1 n=64 v=0
172479 On ch=1 n=71 v=92
172559 On ch=1 n=71 v=0
172560 On ch=1 n=64 v=79
172638 On ch=1 n=70 v=90
172640 On ch=1 n=64 v=0
172718 On ch=1 n=70 v=0
172723 On ch=1 n=60 v=79
172800 On ch=1 n=69 v=89
172803 On ch=1 n=60 v=0
172880 On ch=1 n=69 v=0
172882 On ch=1 n=64 v=77
172961 On ch=1 n=68 v=88
172962 On ch=1 n=64 v=0
173041 On ch=1 n=68 v=0
173042 On ch=1 n=60 v=77
173121 On ch=1 n=67 v=86
173122 On ch=1 n=60 v=0
173201 On ch=1 n=67 v=0
173203 On ch=1 n=64 v=75
173279 On ch=1 n=66 v=85
173283 On ch=1 n=64 v=0
173359 On ch=1 n=66 v=0
173363 On ch=1 n=60 v=74
173443 On ch=1 n=60 v=0
173443 On ch=1 n=65 v=84
173520 On ch=1 n=60 v=73
173523 On ch=1 n=65 v=0
173598 On ch=1 n=64 v=81
173600 On ch=1 n=60 v=0
173678 On ch=1 n=64 v=0
173678 On ch=1 n=57 v=72
173758 On ch=1 n=57 v=0
173763 On ch=1 n=63 v=79
173843 On ch=1 n=63 v=0
173843 On ch=1 n=60 v=70
173921 On ch=1 n=62 v=78
173923 On ch=1 n=60 v=0
173998 On ch=1 n=57 v=68
174001 On ch=1 n=62 v=0
174078 On ch=1 n=57 v=0
174078 On ch=1 n=61 v=75
174158 On ch=1 n=61 v=0
174159 On ch=1 n=57 v=67
174239 On ch=1 n=57 v=0
174240 On ch=1 n=60 v=74
174320 On ch=1 n=60 v=0
174320 On ch=1 n=52 v=63
174400 On ch=1 n=52 v=0
174402 On ch=1 n=59 v=72
174482 On ch=1 n=59 v=0
174482 On ch=1 n=52 v=60
174561 On ch=1 n=58 v=68
174562 On ch=1 n=52 v=0
174641 On ch=1 n=58 v=0
174643 On ch=1 n=48 v=58
174721 On ch=1 n=57 v=100
174723 On ch=1 n=48 v=0
174801 On ch=1 n=57 v=0
174803 On ch=1 n=52 v=89
174879 On ch=1 n=56 v=100
174883 On ch=1 n=52 v=0
174959 On ch=1 n=56 v=0
174959 On ch=1 n=48 v=91
175039 On ch=1 n=48 v=0
175039 On ch=1 n=55 v=100
175119 On ch=1 n=55 v=0
175120 On ch=1 n=52 v=89
175199 On ch=1 n=54 v=100
175200 On ch=1 n=52 v=0
175279 On ch=1 n=54 v=0
175279 On ch=1 n=48 v=90
175359 On ch=1 n=48 v=0
175363 On ch=1 n=53 v=100
175442 On ch=1 n=48 v=90
175443 On ch=1 n=53 v=0
175522 On ch=1 n=48 v=0
175523 On ch=1 n=52 v=100
175600 On ch=1 n=45 v=90
175603 On ch=1 n=52 v=0
175680 On ch=1 n=45 v=0
175680 On ch=1 n=51 v=100
175760 On ch=1 n=51 v=0
175763 On ch=1 n=48 v=88
175838 On ch=1 n=50 v=100
175843 On ch=1 n=48 v=0
175918 On ch=1 n=50 v=0
175922 On ch=1 n=45 v=88
175999 On ch=1 n=49 v=100
176002 On ch=1 n=45 v=0
176079 On ch=1 n=49 v=0
176081 On ch=1 n=45 v=88
176159 On ch=1 n=48 v=100
176161 On ch=1 n=45 v=0
176239 On ch=1 n=48 v=0
176242 On ch=1 n=40 v=88
176319 On ch=1 n=47 v=100
176322 On ch=1 n=40 v=0
176399 On ch=1 n=47 v=0
176399 On ch=1 n=40 v=88
176479 On ch=1 n=40 v=0
176483 On ch=1 n=46 v=100
176560 On ch=1 n=40 v=88
176563 On ch=1 n=46 v=0
176640 On ch=1 n=40 v=0
176640 On ch=1 n=45 v=121
177120 On ch=1 n=45 v=0
177120 On ch=1 n=57 v=85
177120 On ch=1 n=60 v=85
177120 On ch=1 n=69 v=101
177120 On ch=1 n=64 v=101
177480 On ch=1 n=64 v=0
177480 On ch=1 n=57 v=0
177480 On ch=1 n=60 v=0
177480 On ch=1 n=69 v=0
177480 On ch=1 n=57 v=81
177480 On ch=1 n=64 v=96
177480 On ch=1 n=60 v=81
177480 On ch=1 n=69 v=96
177600 On ch=1 n=69 v=0
177600 On ch=1 n=57 v=0
177600 On ch=1 n=64 v=0
177600 On ch=1 n=60 v=0
177600 On ch=1 n=57 v=85
177600 On ch=1 n=64 v=101
177600 On ch=1 n=60 v=85
177600 On ch=1 n=69 v=101
178080 On ch=1 n=69 v=0
178080 On ch=1 n=57 v=0
178080 On ch=1 n=64 v=0
178080 On ch=1 n=60 v=0
178080 On ch=1 n=57 v=82
178080 On ch=1 n=65 v=97
178080 On ch=1 n=62 v=82
178080 On ch=1 n=69 v=97
178560 On ch=1 n=69 v=0
178560 On ch=1 n=57 v=0
178560 On ch=1 n=65 v=0
178560 On ch=1 n=62 v=0
178560 On ch=1 n=57 v=85
178560 On ch=1 n=64 v=101
178560 On ch=1 n=60 v=85
178560 On ch=1 n=69 v=101
179520 On ch=1 n=69 v=0
179520 On ch=1 n=57 v=0
179520 On ch=1 n=64 v=0
179520 On ch=1 n=60 v=0
179520 On ch=1 n=57 v=84
179520 On ch=1 n=62 v=99
179520 On ch=1 n=59 v=84
179520 On ch=1 n=69 v=99
180480 On ch=1 n=69 v=0
180480 On ch=1 n=57 v=0
180480 On ch=1 n=62 v=0
180480 On ch=1 n=59 v=0
180480 On ch=1 n=57 v=85
180480 On ch=1 n=64 v=101
180480 On ch=1 n=60 v=85
180480 On ch=1 n=69 v=101
181439 On ch=1 n=45 v=70
181558 On ch=1 n=47 v=72
181583 On ch=1 n=45 v=0
181682 On ch=1 n=48 v=72
181702 On ch=1 n=47 v=0
181802 On ch=1 n=50 v=73
181826 On ch=1 n=48 v=0
181921 On ch=1 n=52 v=74
181946 On ch=1 n=50 v=0
182041 On ch=1 n=54 v=74
182065 On ch=1 n=52 v=0
182163 On ch=1 n=56 v=74
182185 On ch=1 n=54 v=0
182283 On ch=1 n=57 v=74
182307 On ch=1 n=56 v=0
182401 On ch=1 n=59 v=75
182427 On ch=1 n=57 v=0
182521 On ch=1 n=60 v=78
182545 On ch=1 n=59 v=0
182641 On ch=1 n=62 v=78
182665 On ch=1 n=60 v=0
182758 On ch=1 n=64 v=79
182785 On ch=1 n=62 v=0
182882 On ch=1 n=66 v=80
182902 On ch=1 n=64 v=0
183003 On ch=1 n=68 v=80
183026 On ch=1 n=66 v=0
183121 On ch=1 n=69 v=81
183147 On ch=1 n=68 v=0
183239 On ch=1 n=71 v=81
183265 On ch=1 n=69 v=0
183358 On ch=1 n=72 v=81
183383 On ch=1 n=71 v=0
183483 On ch=1 n=74 v=82
183502 On ch=1 n=72 v=0
183602 On ch=1 n=76 v=84
183627 On ch=1 n=74 v=0
183718 On ch=1 n=78 v=84
183746 On ch=1 n=76 v=0
183838 On ch=1 n=80 v=85
183862 On ch=1 n=78 v=0
183963 On ch=1 n=81 v=85
183982 On ch=1 n=80 v=0
184080 On ch=1 n=83 v=86
184107 On ch=1 n=81 v=0
184202 On ch=1 n=84 v=88
184224 On ch=1 n=83 v=0
184318 On ch=1 n=86 v=88
184346 On ch=1 n=84 v=0
184439 On ch=1 n=88 v=89
184462 On ch=1 n=86 v=0
184558 On ch=1 n=90 v=90
184583 On ch=1 n=88 v=0
184678 On ch=1 n=92 v=90
184702 On ch=1 n=90 v=0
184800 On ch=1 n=69 v=0
184800 On ch=1 n=60 v=0
184800 On ch=1 n=57 v=0
184800 On ch=1 n=64 v=0
184800 On ch=1 n=93 v=97
184822 On ch=1 n=92 v=0
185040 On ch=1 n=93 v=0
185040 Meta TrkEnd
TrkEnd
MTrk
0 Meta TrkName "Piano left"
0 PrCh ch=1 p=0
0 Par ch=1 c=7 v=100
0 Par ch=1 c=10 v=64
0 Par ch=1 c=64 v=0
0 Par ch=1 c=91 v=127
3840 On ch=1 n=48 v=24
4320 On ch=1 n=48 v=0
4320 On ch=1 n=48 v=24
4680 On ch=1 n=48 v=0
4680 On ch=1 n=48 v=22
4800 On ch=1 n=48 v=0
4800 On ch=1 n=48 v=25
5280 On ch=1 n=48 v=0
5280 On ch=1 n=41 v=24
5760 On ch=1 n=41 v=0
5760 On ch=1 n=36 v=24
6240 On ch=1 n=36 v=0
6240 On ch=1 n=41 v=22
6720 On ch=1 n=41 v=0
6720 On ch=1 n=36 v=20
7200 On ch=1 n=36 v=0
7200 On ch=1 n=35 v=18
7680 On ch=1 n=35 v=0
7680 On ch=1 n=33 v=112
7726 Par ch=1 c=64 v=127
7920 On ch=1 n=33 v=0
8160 On ch=1 n=64 v=88
8160 On ch=1 n=60 v=74
8160 On ch=1 n=57 v=74
8520 On ch=1 n=57 v=0
8520 On ch=1 n=60 v=0
8520 On ch=1 n=64 v=0
8520 On ch=1 n=57 v=70
8520 On ch=1 n=60 v=70
8520 On ch=1 n=64 v=82
8640 On ch=1 n=64 v=0
8640 On ch=1 n=60 v=0
8640 On ch=1 n=57 v=0
8640 On ch=1 n=64 v=88
8640 On ch=1 n=60 v=74
8640 On ch=1 n=57 v=74
9120 On ch=1 n=57 v=0
9120 On ch=1 n=60 v=0
9120 On ch=1 n=64 v=0
9120 On ch=1 n=57 v=77
9120 On ch=1 n=60 v=77
9120 On ch=1 n=65 v=92
9128 Par ch=1 c=64 v=0
9600 On ch=1 n=65 v=0
9600 On ch=1 n=60 v=0
9600 On ch=1 n=57 v=0
9600 On ch=1 n=57 v=74
9600 On ch=1 n=60 v=74
9600 On ch=1 n=64 v=88
10080 On ch=1 n=64 v=0
10080 On ch=1 n=60 v=0
10080 On ch=1 n=57 v=0
10080 On ch=1 n=52 v=70
10080 On ch=1 n=57 v=70
10080 On ch=1 n=60 v=82
10560 On ch=1 n=60 v=0
10560 On ch=1 n=57 v=0
10560 On ch=1 n=52 v=0
10560 On ch=1 n=57 v=70
10560 On ch=1 n=60 v=70
10560 On ch=1 n=64 v=82
11520 On ch=1 n=64 v=0
11520 On ch=1 n=60 v=0
11520 On ch=1 n=57 v=0
11520 On ch=1 n=33 v=99
11557 Par ch=1 c=64 v=127
11760 On ch=1 n=33 v=0
12000 On ch=1 n=45 v=58
12000 On ch=1 n=52 v=69
12360 On ch=1 n=52 v=0
12360 On ch=1 n=45 v=0
12360 On ch=1 n=45 v=50
12360 On ch=1 n=52 v=61
12480 On ch=1 n=52 v=0
12480 On ch=1 n=45 v=0
12480 On ch=1 n=45 v=60
12480 On ch=1 n=52 v=70
12960 On ch=1 n=52 v=0
12960 On ch=1 n=45 v=0
12960 On ch=1 n=45 v=52
12960 On ch=1 n=53 v=62
12969 Par ch=1 c=64 v=0
13440 On ch=1 n=53 v=0
13440 On ch=1 n=45 v=0
13440 On ch=1 n=45 v=55
13440 On ch=1 n=52 v=63
13920 On ch=1 n=52 v=0
13920 On ch=1 n=45 v=0
13920 On ch=1 n=33 v=60
14400 On ch=1 n=40 v=68
15360 On ch=1 n=40 v=0
15360 On ch=1 n=33 v=0
15360 On ch=1 n=32 v=99
15392 Par ch=1 c=64 v=127
15600 On ch=1 n=32 v=0
15840 On ch=1 n=53 v=66
15840 On ch=1 n=62 v=77
15851 Par ch=1 c=64 v=0
15897 Par ch=1 c=64 v=127
16200 On ch=1 n=62 v=0
16200 On ch=1 n=53 v=0
16200 On ch=1 n=53 v=61
16200 On ch=1 n=62 v=73
16320 On ch=1 n=62 v=0
16320 On ch=1 n=53 v=0
16320 On ch=1 n=53 v=66
16320 On ch=1 n=60 v=77
16331 Par ch=1 c=64 v=0
16800 On ch=1 n=60 v=0
16800 On ch=1 n=53 v=0
16800 On ch=1 n=33 v=70
16800 On ch=1 n=45 v=84
17280 On ch=1 n=45 v=0
17280 On ch=1 n=33 v=0
17280 On ch=1 n=32 v=73
17280 On ch=1 n=44 v=86
17315 Par ch=1 c=64 v=127
17520 On ch=1 n=44 v=0
17520 On ch=1 n=32 v=0
17760 On ch=1 n=55 v=77
17760 On ch=1 n=62 v=66
17778 Par ch=1 c=64 v=0
17831 Par ch=1 c=64 v=127
17920 On ch=1 n=62 v=0
17920 On ch=1 n=55 v=0
17920 On ch=1 n=53 v=72
17920 On ch=1 n=62 v=60
18080 On ch=1 n=62 v=0
18080 On ch=1 n=53 v=0
18080 On ch=1 n=52 v=73
18080 On ch=1 n=62 v=61
18240 On ch=1 n=62 v=0
18240 On ch=1 n=52 v=0
18240 On ch=1 n=52 v=77
18240 On ch=1 n=60 v=66
18259 Par ch=1 c=64 v=0
18720 On ch=1 n=60 v=0
18720 On ch=1 n=52 v=0
18720 On ch=1 n=33 v=68
18720 On ch=1 n=45 v=81
19200 On ch=1 n=45 v=0
19200 On ch=1 n=33 v=0
19200 On ch=1 n=35 v=66
19200 On ch=1 n=47 v=77
19231 Par ch=1 c=64 v=127
19440 On ch=1 n=47 v=0
19440 On ch=1 n=35 v=0
19680 On ch=1 n=56 v=60
19680 On ch=1 n=59 v=60
19680 On ch=1 n=64 v=70
19690 Par ch=1 c=64 v=0
19735 Par ch=1 c=64 v=127
19840 On ch=1 n=64 v=0
19840 On ch=1 n=68 v=66
20000 On ch=1 n=68 v=0
20000 On ch=1 n=73 v=70
20160 On ch=1 n=73 v=0
20160 On ch=1 n=59 v=0
20160 On ch=1 n=56 v=0
20160 On ch=1 n=59 v=60
20160 On ch=1 n=63 v=60
20160 On ch=1 n=71 v=70
20160 On ch=1 n=69 v=70
20166 Par ch=1 c=64 v=0
20235 Par ch=1 c=64 v=127
20640 On ch=1 n=69 v=0
20640 On ch=1 n=59 v=0
20640 On ch=1 n=63 v=0
20640 On ch=1 n=71 v=0
20640 On ch=1 n=47 v=66
20640 On ch=1 n=59 v=77
21120 On ch=1 n=59 v=0
21120 On ch=1 n=47 v=0
21120 On ch=1 n=40 v=66
21120 On ch=1 n=52 v=77
21129 Par ch=1 c=64 v=0
21192 Par ch=1 c=64 v=127
21360 On ch=1 n=52 v=0
21360 On ch=1 n=40 v=0
21600 On ch=1 n=68 v=67
21600 On ch=1 n=59 v=56
21760 On ch=1 n=59 v=0
21760 On ch=1 n=68 v=0
21760 On ch=1 n=67 v=58
21760 On ch=1 n=58 v=49
21920 On ch=1 n=58 v=0
21920 On ch=1 n=67 v=0
21920 On ch=1 n=68 v=63
21920 On ch=1 n=59 v=55
22080 On ch=1 n=59 v=0
22080 On ch=1 n=68 v=0
22080 On ch=1 n=52 v=63
22080 On ch=1 n=56 v=63
22080 On ch=1 n=64 v=72
22088 Par ch=1 c=64 v=0
22140 Par ch=1 c=64 v=127
22320 On ch=1 n=64 v=0
22320 On ch=1 n=56 v=0
22320 On ch=1 n=52 v=0
22374 Par ch=1 c=64 v=0
23040 On ch=1 n=33 v=100
23086 Par ch=1 c=64 v=127
23280 On ch=1 n=33 v=0
23520 On ch=1 n=64 v=84
23520 On ch=1 n=60 v=70
23520 On ch=1 n=57 v=70
23880 On ch=1 n=57 v=0
23880 On ch=1 n=60 v=0
23880 On ch=1 n=64 v=0
23880 On ch=1 n=57 v=67
23880 On ch=1 n=60 v=67
23880 On ch=1 n=64 v=79
24000 On ch=1 n=64 v=0
24000 On ch=1 n=60 v=0
24000 On ch=1 n=57 v=0
24000 On ch=1 n=64 v=84
24000 On ch=1 n=60 v=70
24000 On ch=1 n=57 v=70
24480 On ch=1 n=57 v=0
24480 On ch=1 n=60 v=0
24480 On ch=1 n=64 v=0
24480 On ch=1 n=57 v=74
24480 On ch=1 n=60 v=74
24480 On ch=1 n=65 v=88
24489 Par ch=1 c=64 v=0
24960 On ch=1 n=65 v=0
24960 On ch=1 n=60 v=0
24960 On ch=1 n=57 v=0
24960 On ch=1 n=57 v=70
24960 On ch=1 n=60 v=70
24960 On ch=1 n=64 v=84
25440 On ch=1 n=64 v=0
25440 On ch=1 n=60 v=0
25440 On ch=1 n=57 v=0
25440 On ch=1 n=52 v=67
25440 On ch=1 n=57 v=67
25440 On ch=1 n=60 v=79
25920 On ch=1 n=60 v=0
25920 On ch=1 n=57 v=0
25920 On ch=1 n=52 v=0
25920 On ch=1 n=57 v=67
25920 On ch=1 n=60 v=67
25920 On ch=1 n=64 v=79
26880 On ch=1 n=64 v=0
26880 On ch=1 n=60 v=0
26880 On ch=1 n=57 v=0
26880 On ch=1 n=24 v=70
26880 On ch=1 n=36 v=80
26926 Par ch=1 c=64 v=127
27120 On ch=1 n=36 v=0
27120 On ch=1 n=24 v=0
27360 On ch=1 n=43 v=58
27360 On ch=1 n=52 v=69
27720 On ch=1 n=52 v=0
27720 On ch=1 n=43 v=0
27720 On ch=1 n=43 v=50
27720 On ch=1 n=52 v=61
27840 On ch=1 n=52 v=0
27840 On ch=1 n=43 v=0
27840 On ch=1 n=43 v=60
27840 On ch=1 n=52 v=70
28320 On ch=1 n=52 v=0
28320 On ch=1 n=43 v=0
28320 On ch=1 n=43 v=52
28320 On ch=1 n=53 v=62
28332 Par ch=1 c=64 v=0
28800 On ch=1 n=53 v=0
28800 On ch=1 n=43 v=0
28800 On ch=1 n=43 v=49
28800 On ch=1 n=52 v=58
29280 On ch=1 n=52 v=0
29280 On ch=1 n=43 v=0
29280 On ch=1 n=48 v=58
29280 On ch=1 n=36 v=55
29760 On ch=1 n=48 v=0
29760 On ch=1 n=52 v=58
29760 On ch=1 n=43 v=49
30720 On ch=1 n=43 v=0
30720 On ch=1 n=52 v=0
30720 On ch=1 n=36 v=0
30720 On ch=1 n=36 v=74
30746 Par ch=1 c=64 v=127
30960 On ch=1 n=36 v=0
31200 On ch=1 n=64 v=55
31200 On ch=1 n=58 v=55
31200 On ch=1 n=55 v=61
31208 Par ch=1 c=64 v=0
31243 Par ch=1 c=64 v=127
31360 On ch=1 n=55 v=0
31360 On ch=1 n=58 v=0
31360 On ch=1 n=64 v=0
31360 On ch=1 n=47 v=62
31520 On ch=1 n=47 v=0
31520 On ch=1 n=48 v=63
31680 On ch=1 n=48 v=0
31680 Par ch=1 c=64 v=0
31680 On ch=1 n=49 v=69
31680 On ch=1 n=63 v=58
31680 On ch=1 n=58 v=58
31680 On ch=1 n=55 v=58
31749 Par ch=1 c=64 v=127
32160 On ch=1 n=55 v=0
32160 On ch=1 n=49 v=0
32160 On ch=1 n=63 v=0
32160 On ch=1 n=58 v=0
32160 On ch=1 n=37 v=60
32160 On ch=1 n=49 v=72
32175 Par ch=1 c=64 v=0
32226 Par ch=1 c=64 v=127
32640 On ch=1 n=49 v=0
32640 On ch=1 n=37 v=0
32640 On ch=1 n=38 v=66
32640 On ch=1 n=50 v=77
32646 Par ch=1 c=64 v=0
32729 Par ch=1 c=64 v=127
32880 On ch=1 n=50 v=0
32880 On ch=1 n=38 v=0
33120 On ch=1 n=64 v=55
33120 On ch=1 n=58 v=55
33120 On ch=1 n=55 v=63
33132 Par ch=1 c=64 v=0
33177 Par ch=1 c=64 v=127
33280 On ch=1 n=55 v=0
33280 On ch=1 n=58 v=0
33280 On ch=1 n=64 v=0
33280 On ch=1 n=47 v=63
33440 On ch=1 n=47 v=0
33440 On ch=1 n=49 v=63
33555 On ch=1 n=51 v=70
33560 On ch=1 n=49 v=0
33570 On ch=1 n=55 v=70
33585 On ch=1 n=58 v=58
33600 On ch=1 n=63 v=58
33609 Par ch=1 c=64 v=0
33672 Par ch=1 c=64 v=127
34080 On ch=1 n=63 v=0
34080 On ch=1 n=51 v=0
34080 On ch=1 n=55 v=0
34080 On ch=1 n=58 v=0
34080 On ch=1 n=39 v=60
34080 On ch=1 n=51 v=72
34097 Par ch=1 c=64 v=0
34160 Par ch=1 c=64 v=127
34560 On ch=1 n=51 v=0
34560 On ch=1 n=39 v=0
34560 On ch=1 n=40 v=80
34560 On ch=1 n=52 v=80
34570 Par ch=1 c=64 v=0
34632 Par ch=1 c=64 v=127
34800 On ch=1 n=52 v=0
34800 On ch=1 n=40 v=0
35040 On ch=1 n=60 v=88
35046 Par ch=1 c=64 v=0
35109 Par ch=1 c=64 v=127
35400 On ch=1 n=60 v=0
35400 On ch=1 n=60 v=79
35520 On ch=1 n=60 v=0
35520 On ch=1 n=60 v=88
36000 On ch=1 n=60 v=0
36000 On ch=1 n=36 v=55
36000 On ch=1 n=48 v=63
36480 On ch=1 n=48 v=0
36480 On ch=1 n=36 v=0
36480 On ch=1 n=41 v=58
36480 On ch=1 n=53 v=70
36483 Par ch=1 c=64 v=0
36557 Par ch=1 c=64 v=127
36720 On ch=1 n=53 v=0
36720 On ch=1 n=41 v=0
36960 On ch=1 n=69 v=74
37320 On ch=1 n=69 v=0
37320 On ch=1 n=57 v=67
37440 On ch=1 n=62 v=70
37440 On ch=1 n=53 v=70
37455 Par ch=1 c=64 v=0
37800 On ch=1 n=62 v=0
37800 On ch=1 n=64 v=67
37920 On ch=1 n=64 v=0
37920 On ch=1 n=65 v=70
38400 On ch=1 n=65 v=0
38400 On ch=1 n=53 v=0
38400 On ch=1 n=57 v=0
38400 On ch=1 n=31 v=77
38400 On ch=1 n=43 v=77
38450 Par ch=1 c=64 v=127
38640 On ch=1 n=43 v=0
38640 On ch=1 n=31 v=0
38880 On ch=1 n=55 v=70
38880 On ch=1 n=59 v=70
39040 On ch=1 n=59 v=0
39040 On ch=1 n=65 v=63
39200 On ch=1 n=65 v=0
39200 On ch=1 n=69 v=63
39360 On ch=1 n=69 v=0
39360 On ch=1 n=55 v=0
39360 On ch=1 n=67 v=70
39840 On ch=1 n=67 v=0
39840 On ch=1 n=55 v=68
39840 On ch=1 n=59 v=68
39840 On ch=1 n=65 v=68
40320 On ch=1 n=65 v=0
40320 On ch=1 n=59 v=0
40320 On ch=1 n=55 v=0
40320 On ch=1 n=36 v=72
40320 On ch=1 n=48 v=72
40335 Par ch=1 c=64 v=0
40369 Par ch=1 c=64 v=127
40560 On ch=1 n=48 v=0
40560 On ch=1 n=36 v=0
40680 On ch=1 n=48 v=55
40740 On ch=1 n=55 v=55
40800 On ch=1 n=64 v=63
41280 On ch=1 n=64 v=0
41280 On ch=1 n=55 v=0
41280 On ch=1 n=48 v=0
42240 On ch=1 n=40 v=90
42240 On ch=1 n=28 v=90
42247 Par ch=1 c=64 v=0
42306 Par ch=1 c=64 v=127
42480 On ch=1 n=28 v=0
42480 On ch=1 n=40 v=0
42720 On ch=1 n=59 v=77
42720 On ch=1 n=55 v=66
42720 On ch=1 n=52 v=66
43080 On ch=1 n=52 v=0
43080 On ch=1 n=55 v=0
43080 On ch=1 n=59 v=0
43080 On ch=1 n=52 v=60
43080 On ch=1 n=55 v=60
43080 On ch=1 n=59 v=72
43200 On ch=1 n=59 v=0
43200 On ch=1 n=55 v=0
43200 On ch=1 n=52 v=0
43200 On ch=1 n=59 v=77
43200 On ch=1 n=55 v=66
43200 On ch=1 n=52 v=66
43680 On ch=1 n=52 v=0
43680 On ch=1 n=55 v=0
43680 On ch=1 n=59 v=0
43680 On ch=1 n=52 v=67
43680 On ch=1 n=55 v=67
43680 On ch=1 n=60 v=80
43692 Par ch=1 c=64 v=0
44160 On ch=1 n=60 v=0
44160 On ch=1 n=55 v=0
44160 On ch=1 n=52 v=0
44160 On ch=1 n=52 v=66
44160 On ch=1 n=55 v=66
44160 On ch=1 n=59 v=77
44640 On ch=1 n=59 v=0
44640 On ch=1 n=55 v=0
44640 On ch=1 n=52 v=0
44640 On ch=1 n=52 v=60
44640 On ch=1 n=55 v=72
44640 On ch=1 n=47 v=60
45120 On ch=1 n=47 v=0
45120 On ch=1 n=55 v=0
45120 On ch=1 n=52 v=0
45120 On ch=1 n=52 v=60
45120 On ch=1 n=59 v=72
45120 On ch=1 n=55 v=60
46080 On ch=1 n=55 v=0
46080 On ch=1 n=59 v=0
46080 On ch=1 n=52 v=0
46080 On ch=1 n=28 v=74
46120 Par ch=1 c=64 v=127
46320 On ch=1 n=28 v=0
46560 On ch=1 n=40 v=58
46560 On ch=1 n=47 v=69
46920 On ch=1 n=47 v=0
46920 On ch=1 n=40 v=0
46920 On ch=1 n=47 v=61
46920 On ch=1 n=40 v=50
47040 On ch=1 n=40 v=0
47040 On ch=1 n=47 v=0
47040 On ch=1 n=40 v=60
47040 On ch=1 n=47 v=70
47520 On ch=1 n=47 v=0
47520 On ch=1 n=40 v=0
47520 On ch=1 n=40 v=52
47520 On ch=1 n=48 v=62
47535 Par ch=1 c=64 v=0
48000 On ch=1 n=48 v=0
48000 On ch=1 n=40 v=0
48000 On ch=1 n=40 v=55
48000 On ch=1 n=47 v=63
48480 On ch=1 n=47 v=0
48480 On ch=1 n=40 v=0
48480 On ch=1 n=28 v=55
48960 On ch=1 n=35 v=58
49920 On ch=1 n=35 v=0
49920 On ch=1 n=28 v=0
49920 On ch=1 n=27 v=70
49977 Par ch=1 c=64 v=127
50160 On ch=1 n=27 v=0
50400 On ch=1 n=60 v=77
50400 On ch=1 n=51 v=77
50412 Par ch=1 c=64 v=0
50443 Par ch=1 c=64 v=127
50760 On ch=1 n=51 v=0
50760 On ch=1 n=60 v=0
50760 On ch=1 n=60 v=73
50760 On ch=1 n=51 v=73
50880 On ch=1 n=51 v=0
50880 On ch=1 n=60 v=0
50880 On ch=1 n=52 v=77
50880 On ch=1 n=60 v=77
50889 Par ch=1 c=64 v=0
50955 Par ch=1 c=64 v=127
51360 On ch=1 n=60 v=0
51360 On ch=1 n=52 v=0
51360 On ch=1 n=28 v=66
51360 On ch=1 n=40 v=77
51383 Par ch=1 c=64 v=0
51435 Par ch=1 c=64 v=127
51840 On ch=1 n=40 v=0
51840 On ch=1 n=28 v=0
51840 On ch=1 n=27 v=67
51840 On ch=1 n=39 v=67
51850 Par ch=1 c=64 v=0
51917 Par ch=1 c=64 v=127
52080 On ch=1 n=39 v=0
52080 On ch=1 n=27 v=0
52320 On ch=1 n=62 v=77
52320 On ch=1 n=51 v=77
52326 Par ch=1 c=64 v=0
52369 Par ch=1 c=64 v=127
52480 On ch=1 n=51 v=0
52480 On ch=1 n=62 v=0
52480 On ch=1 n=60 v=72
52480 On ch=1 n=51 v=72
52720 On ch=1 n=51 v=0
52720 On ch=1 n=60 v=0
52720 On ch=1 n=51 v=73
52720 On ch=1 n=59 v=73
52800 On ch=1 n=59 v=0
52800 On ch=1 n=51 v=0
52800 On ch=1 n=59 v=77
52800 On ch=1 n=52 v=77
52815 Par ch=1 c=64 v=0
52880 Par ch=1 c=64 v=127
53280 On ch=1 n=52 v=0
53280 On ch=1 n=59 v=0
53280 On ch=1 n=28 v=67
53280 On ch=1 n=40 v=79
53300 Par ch=1 c=64 v=0
53352 Par ch=1 c=64 v=127
53760 On ch=1 n=40 v=0
53760 On ch=1 n=28 v=0
53760 On ch=1 n=42 v=69
53760 On ch=1 n=30 v=69
53768 Par ch=1 c=64 v=0
53820 Par ch=1 c=64 v=127
54000 On ch=1 n=30 v=0
54000 On ch=1 n=42 v=0
54240 On ch=1 n=59 v=70
54240 On ch=1 n=54 v=60
54246 Par ch=1 c=64 v=1
54286 Par ch=1 c=64 v=127
54400 On ch=1 n=59 v=0
54400 On ch=1 n=63 v=66
54560 On ch=1 n=63 v=0
54560 On ch=1 n=68 v=70
54720 On ch=1 n=68 v=0
54720 On ch=1 n=54 v=0
54720 On ch=1 n=58 v=60
54720 On ch=1 n=66 v=70
54720 On ch=1 n=64 v=70
54720 On ch=1 n=54 v=60
54723 Par ch=1 c=64 v=0
54777 Par ch=1 c=64 v=127
55200 On ch=1 n=54 v=0
55200 On ch=1 n=58 v=0
55200 On ch=1 n=66 v=0
55200 On ch=1 n=64 v=0
55200 On ch=1 n=42 v=77
55200 On ch=1 n=30 v=66
55206 Par ch=1 c=64 v=0
55257 Par ch=1 c=64 v=127
55680 On ch=1 n=30 v=0
55680 On ch=1 n=42 v=0
55680 On ch=1 n=35 v=66
55680 On ch=1 n=47 v=77
55690 Par ch=1 c=64 v=0
55735 Par ch=1 c=64 v=127
55920 On ch=1 n=47 v=0
55920 On ch=1 n=35 v=0
56160 On ch=1 n=54 v=56
56160 On ch=1 n=63 v=67
56166 Par ch=1 c=64 v=0
56220 Par ch=1 c=64 v=127
56320 On ch=1 n=63 v=0
56320 On ch=1 n=54 v=0
56320 On ch=1 n=53 v=49
56320 On ch=1 n=62 v=58
56480 On ch=1 n=62 v=0
56480 On ch=1 n=53 v=0
56480 On ch=1 n=63 v=63
56480 On ch=1 n=54 v=55
56640 On ch=1 n=54 v=0
56640 On ch=1 n=63 v=0
56640 On ch=1 n=51 v=65
56640 On ch=1 n=59 v=76
56640 On ch=1 n=47 v=65
56647 Par ch=1 c=64 v=0
56715 Par ch=1 c=64 v=127
56880 On ch=1 n=47 v=0
56880 On ch=1 n=59 v=0
56880 On ch=1 n=51 v=0
56989 Par ch=1 c=64 v=0
57600 On ch=1 n=40 v=90
57660 Par ch=1 c=64 v=127
57840 On ch=1 n=40 v=0
58080 On ch=1 n=59 v=77
58080 On ch=1 n=55 v=66
58080 On ch=1 n=52 v=66
58440 On ch=1 n=52 v=0
58440 On ch=1 n=55 v=0
58440 On ch=1 n=59 v=0
58440 On ch=1 n=52 v=60
58440 On ch=1 n=55 v=60
58440 On ch=1 n=59 v=72
58560 On ch=1 n=59 v=0
58560 On ch=1 n=55 v=0
58560 On ch=1 n=52 v=0
58560 On ch=1 n=59 v=77
58560 On ch=1 n=55 v=66
58560 On ch=1 n=52 v=66
59040 On ch=1 n=52 v=0
59040 On ch=1 n=55 v=0
59040 On ch=1 n=59 v=0
59040 On ch=1 n=52 v=67
59040 On ch=1 n=55 v=67
59040 On ch=1 n=60 v=80
59055 Par ch=1 c=64 v=0
59520 On ch=1 n=60 v=0
59520 On ch=1 n=55 v=0
59520 On ch=1 n=52 v=0
59520 On ch=1 n=52 v=66
59520 On ch=1 n=55 v=66
59520 On ch=1 n=59 v=77
60000 On ch=1 n=59 v=0
60000 On ch=1 n=55 v=0
60000 On ch=1 n=52 v=0
60000 On ch=1 n=47 v=60
60000 On ch=1 n=52 v=60
60000 On ch=1 n=55 v=72
60480 On ch=1 n=55 v=0
60480 On ch=1 n=52 v=0
60480 On ch=1 n=47 v=0
60480 On ch=1 n=52 v=60
60480 On ch=1 n=55 v=60
60480 On ch=1 n=59 v=72
61440 On ch=1 n=59 v=0
61440 On ch=1 n=55 v=0
61440 On ch=1 n=52 v=0
61440 On ch=1 n=31 v=62
61471 Par ch=1 c=64 v=127
61680 On ch=1 n=31 v=0
61920 On ch=1 n=38 v=58
61920 On ch=1 n=47 v=69
62280 On ch=1 n=47 v=0
62280 On ch=1 n=47 v=61
62400 On ch=1 n=47 v=0
62400 On ch=1 n=47 v=70
62880 On ch=1 n=47 v=0
62880 On ch=1 n=48 v=62
62899 Par ch=1 c=64 v=0
63360 On ch=1 n=48 v=0
63360 On ch=1 n=47 v=73
63840 On ch=1 n=47 v=0
63840 On ch=1 n=38 v=0
63840 On ch=1 n=31 v=69
64320 On ch=1 n=38 v=66
65280 On ch=1 n=38 v=0
65280 On ch=1 n=31 v=0
65280 On ch=1 n=31 v=75
65320 Par ch=1 c=64 v=127
65520 On ch=1 n=31 v=0
65760 On ch=1 n=59 v=82
65760 On ch=1 n=50 v=70
65775 Par ch=1 c=64 v=0
65817 Par ch=1 c=64 v=127
65920 On ch=1 n=50 v=0
65920 On ch=1 n=59 v=0
65920 On ch=1 n=42 v=73
66080 On ch=1 n=42 v=0
66080 On ch=1 n=43 v=79
66240 On ch=1 n=43 v=0
66240 On ch=1 n=44 v=82
66240 On ch=1 n=58 v=82
66240 On ch=1 n=50 v=70
66252 Par ch=1 c=64 v=0
66309 Par ch=1 c=64 v=127
66720 On ch=1 n=50 v=0
66720 On ch=1 n=58 v=0
66720 On ch=1 n=44 v=0
66720 On ch=1 n=32 v=86
66729 Par ch=1 c=64 v=0
66795 Par ch=1 c=64 v=127
67200 On ch=1 n=32 v=0
67200 On ch=1 n=33 v=81
67208 Par ch=1 c=64 v=1
67275 Par ch=1 c=64 v=127
67440 On ch=1 n=33 v=0
67680 On ch=1 n=62 v=80
67680 On ch=1 n=53 v=67
67695 Par ch=1 c=64 v=0
67732 Par ch=1 c=64 v=127
67840 On ch=1 n=53 v=0
67840 On ch=1 n=62 v=0
67840 On ch=1 n=44 v=73
68000 On ch=1 n=44 v=0
68000 On ch=1 n=45 v=79
68160 On ch=1 n=45 v=0
68160 On ch=1 n=46 v=82
68160 On ch=1 n=62 v=82
68160 On ch=1 n=56 v=70
68160 On ch=1 n=53 v=70
68169 Par ch=1 c=64 v=0
68226 Par ch=1 c=64 v=127
68640 On ch=1 n=53 v=0
68640 On ch=1 n=46 v=0
68640 On ch=1 n=62 v=0
68640 On ch=1 n=56 v=0
68640 On ch=1 n=34 v=94
68655 Par ch=1 c=64 v=0
68706 Par ch=1 c=64 v=127
69120 On ch=1 n=34 v=0
69120 On ch=1 n=35 v=90
69129 Par ch=1 c=64 v=0
69208 Par ch=1 c=64 v=127
69360 On ch=1 n=35 v=0
69600 On ch=1 n=55 v=96
69619 Par ch=1 c=64 v=0
69664 Par ch=1 c=64 v=127
69960 On ch=1 n=55 v=0
69960 On ch=1 n=55 v=86
70080 On ch=1 n=55 v=0
70080 On ch=1 n=55 v=96
70560 On ch=1 n=55 v=0
70560 On ch=1 n=31 v=55
70560 On ch=1 n=43 v=55
71040 On ch=1 n=43 v=0
71040 On ch=1 n=31 v=0
71040 On ch=1 n=36 v=60
71040 On ch=1 n=48 v=60
71049 Par ch=1 c=64 v=0
71097 Par ch=1 c=64 v=127
71280 On ch=1 n=48 v=0
71280 On ch=1 n=36 v=0
71520 On ch=1 n=52 v=57
71680 On ch=1 n=52 v=0
71680 On ch=1 n=60 v=57
71840 On ch=1 n=60 v=0
71840 On ch=1 n=68 v=57
72000 On ch=1 n=68 v=0
72000 On ch=1 n=41 v=57
72015 Par ch=1 c=64 v=0
72069 Par ch=1 c=64 v=127
72240 On ch=1 n=41 v=0
72480 On ch=1 n=53 v=48
72480 On ch=1 n=56 v=57
72640 On ch=1 n=56 v=0
72640 On ch=1 n=53 v=0
72640 On ch=1 n=61 v=57
72800 On ch=1 n=61 v=0
72800 On ch=1 n=68 v=57
72960 On ch=1 n=68 v=0
72960 On ch=1 n=43 v=68
72972 Par ch=1 c=64 v=0
73017 Par ch=1 c=64 v=127
73200 On ch=1 n=43 v=0
73440 On ch=1 n=55 v=52
73440 On ch=1 n=60 v=62
73452 Par ch=1 c=64 v=0
73503 Par ch=1 c=64 v=127
73600 On ch=1 n=60 v=0
73600 On ch=1 n=55 v=0
73600 On ch=1 n=64 v=57
73760 On ch=1 n=64 v=0
73760 On ch=1 n=67 v=57
73920 On ch=1 n=67 v=0
73920 On ch=1 n=43 v=62
73935 Par ch=1 c=64 v=0
73980 Par ch=1 c=64 v=127
74160 On ch=1 n=43 v=0
74400 On ch=1 n=65 v=57
74400 On ch=1 n=55 v=57
74400 On ch=1 n=62 v=57
74400 On ch=1 n=67 v=57
74850 On ch=1 n=48 v=60
74865 On ch=1 n=55 v=60
74880 On ch=1 n=67 v=0
74880 On ch=1 n=62 v=0
74880 On ch=1 n=65 v=0
74880 On ch=1 n=55 v=0
74880 On ch=1 n=64 v=60
74886 Par ch=1 c=64 v=0
74951 Par ch=1 c=64 v=127
75360 On ch=1 n=64 v=0
75360 On ch=1 n=55 v=0
75360 On ch=1 n=48 v=0
75378 Par ch=1 c=64 v=0
76801 On ch=1 n=69 v=66
76881 On ch=1 n=69 v=0
76883 On ch=1 n=64 v=61
76961 On ch=1 n=67 v=66
76963 On ch=1 n=64 v=0
77041 On ch=1 n=67 v=0
77043 On ch=1 n=61 v=61
77121 On ch=1 n=65 v=66
77123 On ch=1 n=61 v=0
77200 On ch=1 n=61 v=61
77201 On ch=1 n=65 v=0
77280 On ch=1 n=61 v=0
77280 On ch=1 n=64 v=66
77360 On ch=1 n=64 v=0
77363 On ch=1 n=58 v=61
77443 On ch=1 n=58 v=0
77443 On ch=1 n=62 v=66
77519 On ch=1 n=58 v=61
77523 On ch=1 n=62 v=0
77599 On ch=1 n=58 v=0
77599 On ch=1 n=61 v=66
77679 On ch=1 n=61 v=0
77679 On ch=1 n=55 v=61
77759 On ch=1 n=55 v=0
77762 On ch=1 n=60 v=66
77842 On ch=1 n=60 v=0
77843 On ch=1 n=55 v=61
77921 On ch=1 n=58 v=66
77923 On ch=1 n=55 v=0
77998 On ch=1 n=52 v=61
78001 On ch=1 n=58 v=0
78078 On ch=1 n=52 v=0
78081 On ch=1 n=57 v=66
78158 On ch=1 n=52 v=61
78161 On ch=1 n=57 v=0
78238 On ch=1 n=52 v=0
78241 On ch=1 n=55 v=66
78321 On ch=1 n=55 v=0
78321 On ch=1 n=49 v=61
78400 On ch=1 n=53 v=61
78401 On ch=1 n=49 v=0
78478 On ch=1 n=49 v=57
78480 On ch=1 n=53 v=0
78558 On ch=1 n=49 v=0
78563 On ch=1 n=52 v=61
78638 On ch=1 n=46 v=57
78643 On ch=1 n=52 v=0
78718 On ch=1 n=46 v=0
78721 On ch=1 n=50 v=61
78798 On ch=1 n=46 v=61
78801 On ch=1 n=50 v=0
78878 On ch=1 n=46 v=0
78879 On ch=1 n=49 v=66
78959 On ch=1 n=49 v=0
78961 On ch=1 n=43 v=61
79039 On ch=1 n=48 v=66
79041 On ch=1 n=43 v=0
79119 On ch=1 n=48 v=0
79119 On ch=1 n=43 v=61
79199 On ch=1 n=43 v=0
79201 On ch=1 n=46 v=66
79280 On ch=1 n=40 v=57
79281 On ch=1 n=46 v=0
79360 On ch=1 n=40 v=0
79360 On ch=1 n=45 v=61
79439 On ch=1 n=40 v=57
79440 On ch=1 n=45 v=0
79519 On ch=1 n=40 v=0
79522 On ch=1 n=43 v=61
79598 On ch=1 n=37 v=57
79602 On ch=1 n=43 v=0
79678 On ch=1 n=37 v=0
79680 On ch=1 n=41 v=61
79760 On ch=1 n=41 v=0
79761 On ch=1 n=37 v=57
79841 On ch=1 n=37 v=0
79842 On ch=1 n=40 v=61
79920 On ch=1 n=34 v=57
79922 On ch=1 n=40 v=0
79998 On ch=1 n=38 v=61
80000 On ch=1 n=34 v=0
80078 On ch=1 n=38 v=0
80080 On ch=1 n=34 v=57
80160 On ch=1 n=34 v=0
80160 On ch=1 n=37 v=61
80238 On ch=1 n=31 v=57
80240 On ch=1 n=37 v=0
80318 On ch=1 n=31 v=0
80322 On ch=1 n=36 v=61
80402 On ch=1 n=36 v=0
80402 On ch=1 n=31 v=57
80482 On ch=1 n=31 v=0
80483 On ch=1 n=34 v=61
80561 On ch=1 n=28 v=57
80563 On ch=1 n=34 v=0
80641 On ch=1 n=28 v=0
80641 On ch=1 n=72 v=66
80721 On ch=1 n=72 v=0
80721 On ch=1 n=67 v=61
80801 On ch=1 n=67 v=0
80802 On ch=1 n=70 v=66
80882 On ch=1 n=70 v=0
80882 On ch=1 n=64 v=61
80962 On ch=1 n=64 v=0
80963 On ch=1 n=69 v=66
81040 On ch=1 n=64 v=61
81043 On ch=1 n=69 v=0
81120 On ch=1 n=64 v=0
81120 On ch=1 n=67 v=66
81198 On ch=1 n=61 v=61
81200 On ch=1 n=67 v=0
81278 On ch=1 n=61 v=0
81283 On ch=1 n=65 v=66
81362 On ch=1 n=61 v=61
81363 On ch=1 n=65 v=0
81440 On ch=1 n=64 v=66
81442 On ch=1 n=61 v=0
81518 On ch=1 n=58 v=61
81520 On ch=1 n=64 v=0
81598 On ch=1 n=58 v=0
81603 On ch=1 n=62 v=66
81682 On ch=1 n=58 v=61
81683 On ch=1 n=62 v=0
81758 On ch=1 n=61 v=66
81762 On ch=1 n=58 v=0
81838 On ch=1 n=61 v=0
81840 On ch=1 n=55 v=61
81920 On ch=1 n=55 v=0
81923 On ch=1 n=60 v=66
81998 On ch=1 n=55 v=61
82003 On ch=1 n=60 v=0
82078 On ch=1 n=55 v=0
82078 On ch=1 n=58 v=66
82158 On ch=1 n=58 v=0
82159 On ch=1 n=52 v=57
82238 On ch=1 n=57 v=61
82239 On ch=1 n=52 v=0
82318 On ch=1 n=57 v=0
82321 On ch=1 n=52 v=57
82398 On ch=1 n=55 v=61
82401 On ch=1 n=52 v=0
82478 On ch=1 n=55 v=0
82481 On ch=1 n=49 v=57
82561 On ch=1 n=49 v=0
82561 On ch=1 n=53 v=61
82641 On ch=1 n=53 v=0
82642 On ch=1 n=49 v=61
82722 On ch=1 n=49 v=0
82722 On ch=1 n=52 v=66
82802 On ch=1 n=52 v=0
82803 On ch=1 n=46 v=61
82882 On ch=1 n=50 v=66
82883 On ch=1 n=46 v=0
82959 On ch=1 n=46 v=61
82962 On ch=1 n=50 v=0
83039 On ch=1 n=46 v=0
83042 On ch=1 n=49 v=66
83120 On ch=1 n=43 v=57
83122 On ch=1 n=49 v=0
83200 On ch=1 n=43 v=0
83203 On ch=1 n=48 v=61
83282 On ch=1 n=43 v=57
83283 On ch=1 n=48 v=0
83359 On ch=1 n=46 v=61
83362 On ch=1 n=43 v=0
83439 On ch=1 n=46 v=0
83439 On ch=1 n=40 v=57
83519 On ch=1 n=40 v=0
83520 On ch=1 n=45 v=61
83599 On ch=1 n=40 v=57
83600 On ch=1 n=45 v=0
83679 On ch=1 n=40 v=0
83681 On ch=1 n=43 v=61
83759 On ch=1 n=37 v=57
83761 On ch=1 n=43 v=0
83839 On ch=1 n=37 v=0
83843 On ch=1 n=41 v=61
83919 On ch=1 n=37 v=57
83923 On ch=1 n=41 v=0
83999 On ch=1 n=37 v=0
84000 On ch=1 n=40 v=61
84079 On ch=1 n=34 v=57
84080 On ch=1 n=40 v=0
84158 On ch=1 n=38 v=61
84159 On ch=1 n=34 v=0
84238 On ch=1 n=38 v=0
84239 On ch=1 n=34 v=57
84318 On ch=1 n=37 v=61
84319 On ch=1 n=34 v=0
84398 On ch=1 n=37 v=0
84402 On ch=1 n=31 v=57
84480 On ch=1 n=39 v=74
84482 On ch=1 n=31 v=0
84487 On ch=1 n=27 v=74
84511 Par ch=1 c=64 v=127
84720 On ch=1 n=39 v=0
84727 On ch=1 n=27 v=0
84960 On ch=1 n=63 v=64
85320 On ch=1 n=63 v=0
85320 On ch=1 n=63 v=61
85440 On ch=1 n=63 v=0
85440 On ch=1 n=51 v=55
85440 On ch=1 n=60 v=55
85440 On ch=1 n=63 v=66
85920 On ch=1 n=63 v=0
85920 On ch=1 n=60 v=0
85920 On ch=1 n=51 v=0
85920 On ch=1 n=68 v=64
85932 Par ch=1 c=64 v=0
85977 Par ch=1 c=64 v=127
86280 On ch=1 n=68 v=0
86280 On ch=1 n=60 v=61
86400 On ch=1 n=60 v=0
86400 On ch=1 n=51 v=50
86400 On ch=1 n=63 v=61
86406 Par ch=1 c=64 v=0
86880 On ch=1 n=63 v=0
86880 On ch=1 n=58 v=64
87240 On ch=1 n=58 v=0
87240 On ch=1 n=63 v=61
87360 On ch=1 n=63 v=0
87360 On ch=1 n=44 v=50
87360 On ch=1 n=60 v=61
87840 On ch=1 n=60 v=0
87840 On ch=1 n=44 v=0
87840 On ch=1 n=51 v=0
88320 On ch=1 n=35 v=48
88320 On ch=1 n=47 v=48
88351 Par ch=1 c=64 v=127
88560 On ch=1 n=47 v=0
88560 On ch=1 n=35 v=0
88800 On ch=1 n=59 v=53
89160 On ch=1 n=59 v=0
89160 On ch=1 n=59 v=50
89280 On ch=1 n=59 v=0
89280 On ch=1 n=47 v=46
89280 On ch=1 n=56 v=46
89280 On ch=1 n=59 v=55
89760 On ch=1 n=59 v=0
89760 On ch=1 n=56 v=0
89760 On ch=1 n=47 v=0
89760 On ch=1 n=64 v=53
89775 Par ch=1 c=64 v=0
90000 On ch=1 n=64 v=0
90120 On ch=1 n=56 v=50
90240 On ch=1 n=56 v=0
90240 On ch=1 n=47 v=42
90240 On ch=1 n=59 v=50
90720 On ch=1 n=59 v=0
90720 On ch=1 n=54 v=50
90880 On ch=1 n=54 v=0
90880 On ch=1 n=56 v=42
91040 On ch=1 n=56 v=0
91040 On ch=1 n=57 v=48
91170 On ch=1 n=57 v=0
91170 On ch=1 n=40 v=38
91185 On ch=1 n=47 v=38
91200 On ch=1 n=47 v=0
91200 On ch=1 n=56 v=45
91680 On ch=1 n=56 v=0
91680 On ch=1 n=47 v=0
91680 On ch=1 n=40 v=0
92160 On ch=1 n=40 v=70
92160 On ch=1 n=52 v=70
92217 Par ch=1 c=64 v=127
92640 On ch=1 n=52 v=0
92640 On ch=1 n=40 v=0
92640 On ch=1 n=35 v=58
92640 On ch=1 n=47 v=70
92800 On ch=1 n=47 v=0
92800 On ch=1 n=35 v=0
92800 On ch=1 n=32 v=55
92800 On ch=1 n=44 v=66
92960 On ch=1 n=44 v=0
92960 On ch=1 n=32 v=0
92960 On ch=1 n=35 v=62
92960 On ch=1 n=47 v=74
93120 On ch=1 n=47 v=0
93120 On ch=1 n=35 v=0
93120 On ch=1 n=28 v=67
93120 On ch=1 n=40 v=79
93138 Par ch=1 c=64 v=0
93192 Par ch=1 c=64 v=127
93300 On ch=1 n=40 v=0
93300 On ch=1 n=28 v=0
93480 On ch=1 n=40 v=66
93480 On ch=1 n=52 v=77
93600 On ch=1 n=52 v=0
93600 On ch=1 n=40 v=0
93600 On ch=1 n=42 v=70
93600 On ch=1 n=54 v=84
93618 Par ch=1 c=64 v=0
93960 On ch=1 n=54 v=0
93960 On ch=1 n=42 v=0
93960 On ch=1 n=40 v=67
93960 On ch=1 n=52 v=79
94080 On ch=1 n=52 v=0
94080 On ch=1 n=40 v=0
94080 On ch=1 n=39 v=73
94080 On ch=1 n=51 v=86
94560 On ch=1 n=51 v=0
94560 On ch=1 n=39 v=0
94560 On ch=1 n=36 v=62
94560 On ch=1 n=48 v=74
95040 On ch=1 n=48 v=0
95040 On ch=1 n=36 v=0
95040 On ch=1 n=39 v=69
95040 On ch=1 n=51 v=82
95520 On ch=1 n=51 v=0
95520 On ch=1 n=39 v=0
95520 On ch=1 n=41 v=66
95520 On ch=1 n=53 v=77
95680 On ch=1 n=53 v=0
95680 On ch=1 n=41 v=0
95680 On ch=1 n=42 v=58
95680 On ch=1 n=54 v=70
95840 On ch=1 n=54 v=0
95840 On ch=1 n=42 v=0
95840 On ch=1 n=43 v=62
95840 On ch=1 n=55 v=74
96000 On ch=1 n=55 v=0
96000 On ch=1 n=43 v=0
96000 On ch=1 n=44 v=66
96000 On ch=1 n=56 v=77
96032 Par ch=1 c=64 v=127
96480 On ch=1 n=56 v=0
96480 On ch=1 n=44 v=0
96480 On ch=1 n=39 v=67
96480 On ch=1 n=51 v=79
96640 On ch=1 n=51 v=0
96640 On ch=1 n=39 v=0
96640 On ch=1 n=36 v=58
96640 On ch=1 n=48 v=70
96800 On ch=1 n=48 v=0
96800 On ch=1 n=36 v=0
96800 On ch=1 n=39 v=62
96800 On ch=1 n=51 v=74
96960 On ch=1 n=51 v=0
96960 On ch=1 n=39 v=0
96960 On ch=1 n=32 v=67
96960 On ch=1 n=44 v=79
96972 Par ch=1 c=64 v=0
97020 Par ch=1 c=64 v=127
97140 On ch=1 n=44 v=0
97140 On ch=1 n=32 v=0
97143 Par ch=1 c=64 v=0
97320 On ch=1 n=44 v=66
97320 On ch=1 n=56 v=77
97440 On ch=1 n=56 v=0
97440 On ch=1 n=44 v=0
97440 On ch=1 n=46 v=70
97440 On ch=1 n=58 v=84
97800 On ch=1 n=58 v=0
97800 On ch=1 n=46 v=0
97800 On ch=1 n=44 v=67
97800 On ch=1 n=56 v=79
97920 On ch=1 n=56 v=0
97920 On ch=1 n=44 v=0
97920 On ch=1 n=43 v=73
97920 On ch=1 n=55 v=86
98400 On ch=1 n=55 v=0
98400 On ch=1 n=43 v=0
98400 On ch=1 n=40 v=62
98400 On ch=1 n=52 v=74
98880 On ch=1 n=52 v=0
98880 On ch=1 n=40 v=0
98880 On ch=1 n=43 v=69
98880 On ch=1 n=55 v=82
99360 On ch=1 n=55 v=0
99360 On ch=1 n=43 v=0
99360 On ch=1 n=45 v=66
99360 On ch=1 n=57 v=77
99520 On ch=1 n=57 v=0
99520 On ch=1 n=45 v=0
99520 On ch=1 n=46 v=67
99520 On ch=1 n=58 v=79
99680 On ch=1 n=58 v=0
99680 On ch=1 n=46 v=0
99680 On ch=1 n=47 v=69
99680 On ch=1 n=59 v=82
99840 On ch=1 n=59 v=0
99840 On ch=1 n=47 v=0
99840 On ch=1 n=48 v=75
99840 On ch=1 n=60 v=90
100290 On ch=1 n=36 v=63
100305 On ch=1 n=43 v=63
100320 On ch=1 n=60 v=0
100320 On ch=1 n=48 v=0
100320 On ch=1 n=52 v=82
100770 On ch=1 n=41 v=67
100785 On ch=1 n=48 v=68
100800 On ch=1 n=52 v=0
100800 On ch=1 n=43 v=0
100800 On ch=1 n=36 v=0
100800 On ch=1 n=57 v=89
101265 On ch=1 n=35 v=60
101280 On ch=1 n=57 v=0
101280 On ch=1 n=48 v=0
101280 On ch=1 n=41 v=0
101280 On ch=1 n=54 v=82
101730 On ch=1 n=40 v=62
101745 On ch=1 n=47 v=63
101760 On ch=1 n=54 v=0
101760 On ch=1 n=35 v=0
101760 On ch=1 n=55 v=90
102210 On ch=1 n=45 v=55
102225 On ch=1 n=52 v=56
102240 On ch=1 n=55 v=0
102240 On ch=1 n=47 v=0
102240 On ch=1 n=40 v=0
102240 On ch=1 n=61 v=82
102690 On ch=1 n=50 v=62
102705 On ch=1 n=57 v=66
102720 On ch=1 n=61 v=0
102720 On ch=1 n=52 v=0
102720 On ch=1 n=45 v=0
102720 On ch=1 n=62 v=89
103170 On ch=1 n=45 v=55
103185 On ch=1 n=52 v=55
103200 On ch=1 n=62 v=0
103200 On ch=1 n=57 v=0
103200 On ch=1 n=50 v=0
103200 On ch=1 n=60 v=82
103680 On ch=1 n=60 v=0
103680 On ch=1 n=45 v=0
103680 On ch=1 n=52 v=0
103680 On ch=1 n=38 v=80
103680 On ch=1 n=50 v=94
103751 Par ch=1 c=64 v=127
103920 On ch=1 n=50 v=0
103920 On ch=1 n=38 v=0
104160 On ch=1 n=53 v=77
104160 On ch=1 n=65 v=90
104640 On ch=1 n=65 v=0
104640 On ch=1 n=53 v=0
104640 On ch=1 n=46 v=74
104640 On ch=1 n=58 v=88
104880 On ch=1 n=58 v=0
104880 On ch=1 n=46 v=0
105000 On ch=1 n=48 v=79
105000 On ch=1 n=60 v=93
105004 Par ch=1 c=64 v=0
105120 On ch=1 n=60 v=0
105120 On ch=1 n=48 v=0
105120 On ch=1 n=47 v=74
105120 On ch=1 n=59 v=89
105600 On ch=1 n=59 v=0
105600 On ch=1 n=47 v=0
105600 On ch=1 n=39 v=80
105600 On ch=1 n=51 v=94
105646 Par ch=1 c=64 v=127
105840 On ch=1 n=51 v=0
105840 On ch=1 n=39 v=0
106080 On ch=1 n=54 v=77
106080 On ch=1 n=66 v=90
106560 On ch=1 n=66 v=0
106560 On ch=1 n=54 v=0
106560 On ch=1 n=45 v=74
106560 On ch=1 n=57 v=88
106800 On ch=1 n=57 v=0
106800 On ch=1 n=45 v=0
106920 On ch=1 n=50 v=79
106920 On ch=1 n=62 v=93
106935 Par ch=1 c=64 v=0
107040 On ch=1 n=62 v=0
107040 On ch=1 n=50 v=0
107040 On ch=1 n=48 v=74
107040 On ch=1 n=60 v=89
107520 On ch=1 n=60 v=0
107520 On ch=1 n=48 v=0
107520 On ch=1 n=52 v=62
107520 On ch=1 n=40 v=62
107575 Par ch=1 c=64 v=127
107760 On ch=1 n=40 v=0
108000 On ch=1 n=59 v=80
108360 On ch=1 n=59 v=0
108360 On ch=1 n=64 v=77
108480 On ch=1 n=64 v=0
108480 On ch=1 n=62 v=77
108500 Par ch=1 c=64 v=0
109440 On ch=1 n=62 v=0
109440 On ch=1 n=52 v=0
109440 On ch=1 n=28 v=61
109440 On ch=1 n=40 v=61
109489 Par ch=1 c=64 v=127
109680 On ch=1 n=40 v=0
109680 On ch=1 n=28 v=0
109920 On ch=1 n=56 v=80
110280 On ch=1 n=56 v=0
110280 On ch=1 n=61 v=77
110400 On ch=1 n=61 v=0
110400 On ch=1 n=59 v=77
110420 Par ch=1 c=64 v=0
111360 On ch=1 n=59 v=0
111360 On ch=1 n=40 v=74
111840 On ch=1 n=53 v=79
112200 On ch=1 n=53 v=0
112200 On ch=1 n=53 v=77
112320 On ch=1 n=53 v=0
112320 On ch=1 n=53 v=77
112800 On ch=1 n=53 v=0
112800 On ch=1 n=55 v=80
113280 On ch=1 n=55 v=0
113280 On ch=1 n=53 v=79
113760 On ch=1 n=53 v=0
113760 On ch=1 n=50 v=79
114240 On ch=1 n=50 v=0
114240 On ch=1 n=53 v=77
115199 On ch=1 n=40 v=82
115200 On ch=1 n=53 v=0
115200 On ch=1 n=40 v=0
115235 Par ch=1 c=64 v=127
115279 On ch=1 n=40 v=0
115279 On ch=1 n=47 v=70
115359 On ch=1 n=44 v=79
115375 On ch=1 n=47 v=0
115442 On ch=1 n=50 v=68
115455 On ch=1 n=44 v=0
115521 On ch=1 n=44 v=74
115538 On ch=1 n=50 v=0
115598 On ch=1 n=50 v=68
115617 On ch=1 n=44 v=0
115679 On ch=1 n=47 v=74
115686 Par ch=1 c=64 v=0
115694 On ch=1 n=50 v=0
115732 Par ch=1 c=64 v=127
115761 On ch=1 n=53 v=66
115775 On ch=1 n=47 v=0
115839 On ch=1 n=47 v=74
115857 On ch=1 n=53 v=0
115921 On ch=1 n=53 v=67
115935 On ch=1 n=47 v=0
115998 On ch=1 n=50 v=74
116017 On ch=1 n=53 v=0
116080 On ch=1 n=56 v=66
116094 On ch=1 n=50 v=0
116160 On ch=1 n=50 v=74
116169 Par ch=1 c=64 v=0
116176 On ch=1 n=56 v=0
116212 Par ch=1 c=64 v=127
116239 On ch=1 n=56 v=66
116256 On ch=1 n=50 v=0
116322 On ch=1 n=53 v=74
116335 On ch=1 n=56 v=0
116403 On ch=1 n=59 v=66
116418 On ch=1 n=53 v=0
116481 On ch=1 n=53 v=73
116499 On ch=1 n=59 v=0
116563 On ch=1 n=59 v=63
116577 On ch=1 n=53 v=0
116642 On ch=1 n=56 v=73
116643 Par ch=1 c=64 v=0
116659 On ch=1 n=59 v=0
116686 Par ch=1 c=64 v=127
116721 On ch=1 n=62 v=63
116738 On ch=1 n=56 v=0
116801 On ch=1 n=56 v=72
116817 On ch=1 n=62 v=0
116881 On ch=1 n=62 v=63
116897 On ch=1 n=56 v=0
116961 On ch=1 n=59 v=72
116977 On ch=1 n=62 v=0
117039 On ch=1 n=65 v=63
117057 On ch=1 n=59 v=0
117119 On ch=1 n=59 v=72
117131 Par ch=1 c=64 v=0
117135 On ch=1 n=65 v=0
117177 Par ch=1 c=64 v=127
117199 On ch=1 n=65 v=64
117215 On ch=1 n=59 v=0
117279 On ch=1 n=62 v=72
117295 On ch=1 n=65 v=0
117360 On ch=1 n=68 v=63
117375 On ch=1 n=62 v=0
117442 On ch=1 n=62 v=72
117456 On ch=1 n=68 v=0
117519 On ch=1 n=68 v=63
117538 On ch=1 n=62 v=0
117602 On ch=1 n=65 v=72
117612 Par ch=1 c=64 v=0
117615 On ch=1 n=68 v=0
117657 Par ch=1 c=64 v=127
117679 On ch=1 n=71 v=63
117698 On ch=1 n=65 v=0
117758 On ch=1 n=65 v=72
117775 On ch=1 n=71 v=0
117841 On ch=1 n=71 v=63
117854 On ch=1 n=65 v=0
117920 On ch=1 n=68 v=72
117937 On ch=1 n=71 v=0
118000 On ch=1 n=74 v=63
118016 On ch=1 n=68 v=0
118080 On ch=1 n=80 v=88
118100 Par ch=1 c=64 v=0
118200 On ch=1 n=80 v=0
118240 On ch=1 n=74 v=0
119040 On ch=1 n=35 v=82
119086 Par ch=1 c=64 v=127
119122 On ch=1 n=41 v=67
119136 On ch=1 n=35 v=0
119199 On ch=1 n=38 v=79
119218 On ch=1 n=41 v=0
119279 On ch=1 n=44 v=67
119295 On ch=1 n=38 v=0
119359 On ch=1 n=38 v=79
119375 On ch=1 n=44 v=0
119439 On ch=1 n=44 v=67
119455 On ch=1 n=38 v=0
119522 On ch=1 n=41 v=74
119532 Par ch=1 c=64 v=0
119535 On ch=1 n=44 v=0
119569 Par ch=1 c=64 v=127
119600 On ch=1 n=47 v=67
119618 On ch=1 n=41 v=0
119678 On ch=1 n=41 v=74
119696 On ch=1 n=47 v=0
119763 On ch=1 n=47 v=68
119774 On ch=1 n=41 v=0
119838 On ch=1 n=44 v=74
119859 On ch=1 n=47 v=0
119921 On ch=1 n=50 v=67
119934 On ch=1 n=44 v=0
120001 On ch=1 n=44 v=74
120015 Par ch=1 c=64 v=0
120017 On ch=1 n=50 v=0
120060 Par ch=1 c=64 v=127
120080 On ch=1 n=50 v=66
120097 On ch=1 n=44 v=0
120160 On ch=1 n=47 v=74
120176 On ch=1 n=50 v=0
120240 On ch=1 n=53 v=64
120256 On ch=1 n=47 v=0
120321 On ch=1 n=47 v=73
120336 On ch=1 n=53 v=0
120402 On ch=1 n=53 v=66
120417 On ch=1 n=47 v=0
120452 Par ch=1 c=64 v=0
120479 On ch=1 n=50 v=73
120487 Par ch=1 c=64 v=127
120498 On ch=1 n=53 v=0
120561 On ch=1 n=56 v=64
120575 On ch=1 n=50 v=0
120638 On ch=1 n=50 v=72
120657 On ch=1 n=56 v=0
120721 On ch=1 n=56 v=64
120734 On ch=1 n=50 v=0
120800 On ch=1 n=53 v=72
120817 On ch=1 n=56 v=0
120883 On ch=1 n=59 v=64
120896 On ch=1 n=53 v=0
120960 On ch=1 n=53 v=73
120968 Par ch=1 c=64 v=0
120979 On ch=1 n=59 v=0
121012 Par ch=1 c=64 v=127
121040 On ch=1 n=59 v=64
121056 On ch=1 n=53 v=0
121121 On ch=1 n=56 v=72
121136 On ch=1 n=59 v=0
121202 On ch=1 n=62 v=64
121217 On ch=1 n=56 v=0
121278 On ch=1 n=56 v=72
121298 On ch=1 n=62 v=0
121358 On ch=1 n=62 v=63
121374 On ch=1 n=56 v=0
121439 On ch=1 n=59 v=72
121452 Par ch=1 c=64 v=0
121454 On ch=1 n=62 v=0
121495 Par ch=1 c=64 v=127
121522 On ch=1 n=65 v=63
121535 On ch=1 n=59 v=0
121603 On ch=1 n=59 v=72
121618 On ch=1 n=65 v=0
121679 On ch=1 n=65 v=63
121699 On ch=1 n=59 v=0
121759 On ch=1 n=62 v=72
121775 On ch=1 n=65 v=0
121841 On ch=1 n=68 v=63
121920 On ch=1 n=65 v=71
121920 On ch=1 n=71 v=81
121921 On ch=1 n=68 v=0
121946 Par ch=1 c=64 v=0
122040 On ch=1 n=71 v=0
122040 On ch=1 n=65 v=0
122095 On ch=1 n=62 v=0
122880 On ch=1 n=65 v=60
122960 On ch=1 n=65 v=0
122960 On ch=1 n=62 v=53
123040 On ch=1 n=62 v=0
123040 On ch=1 n=64 v=60
123120 On ch=1 n=64 v=0
123120 On ch=1 n=59 v=60
123360 On ch=1 n=59 v=0
123840 On ch=1 n=65 v=60
123920 On ch=1 n=65 v=0
123920 On ch=1 n=62 v=52
124000 On ch=1 n=62 v=0
124000 On ch=1 n=64 v=60
124080 On ch=1 n=64 v=0
124080 On ch=1 n=59 v=60
124320 On ch=1 n=59 v=0
124801 On ch=1 n=65 v=48
124881 On ch=1 n=65 v=0
124883 On ch=1 n=62 v=48
124962 On ch=1 n=64 v=48
124963 On ch=1 n=62 v=0
125040 On ch=1 n=59 v=49
125042 On ch=1 n=64 v=0
125120 On ch=1 n=59 v=0
125123 On ch=1 n=65 v=49
125199 On ch=1 n=62 v=50
125203 On ch=1 n=65 v=0
125279 On ch=1 n=62 v=0
125280 On ch=1 n=64 v=50
125360 On ch=1 n=64 v=0
125360 On ch=1 n=59 v=50
125440 On ch=1 n=59 v=0
125442 On ch=1 n=65 v=51
125519 On ch=1 n=62 v=51
125522 On ch=1 n=65 v=0
125599 On ch=1 n=62 v=0
125603 On ch=1 n=64 v=52
125679 On ch=1 n=59 v=52
125683 On ch=1 n=64 v=0
125759 On ch=1 n=59 v=0
125759 On ch=1 n=65 v=53
125839 On ch=1 n=65 v=0
125842 On ch=1 n=62 v=53
125922 On ch=1 n=62 v=0
125922 On ch=1 n=64 v=53
126001 On ch=1 n=59 v=55
126002 On ch=1 n=64 v=0
126081 On ch=1 n=59 v=0
126082 On ch=1 n=65 v=55
126158 On ch=1 n=62 v=56
126162 On ch=1 n=65 v=0
126238 On ch=1 n=62 v=0
126239 On ch=1 n=64 v=56
126319 On ch=1 n=64 v=0
126319 On ch=1 n=59 v=56
126399 On ch=1 n=59 v=0
126403 On ch=1 n=65 v=57
126483 On ch=1 n=65 v=0
126483 On ch=1 n=62 v=57
126561 On ch=1 n=64 v=58
126563 On ch=1 n=62 v=0
126641 On ch=1 n=64 v=0
126642 On ch=1 n=59 v=58
126719 On ch=1 n=65 v=59
126722 On ch=1 n=59 v=0
126757 Par ch=1 c=64 v=127
126803 On ch=1 n=64 v=59
126815 On ch=1 n=65 v=0
126880 On ch=1 n=63 v=59
126899 On ch=1 n=64 v=0
126958 On ch=1 n=62 v=60
126976 On ch=1 n=63 v=0
127042 On ch=1 n=61 v=60
127054 On ch=1 n=62 v=0
127118 On ch=1 n=60 v=61
127138 On ch=1 n=61 v=0
127199 On ch=1 n=59 v=61
127214 On ch=1 n=60 v=0
127280 On ch=1 n=58 v=62
127295 On ch=1 n=59 v=0
127361 On ch=1 n=57 v=62
127376 On ch=1 n=58 v=0
127441 On ch=1 n=56 v=62
127457 On ch=1 n=57 v=0
127520 On ch=1 n=55 v=63
127537 On ch=1 n=56 v=0
127598 On ch=1 n=54 v=63
127616 On ch=1 n=55 v=0
127683 On ch=1 n=53 v=64
127694 On ch=1 n=54 v=0
127758 On ch=1 n=52 v=64
127779 On ch=1 n=53 v=0
127838 On ch=1 n=51 v=64
127854 On ch=1 n=52 v=0
127923 On ch=1 n=50 v=66
127934 On ch=1 n=51 v=0
128000 On ch=1 n=49 v=66
128019 On ch=1 n=50 v=0
128082 On ch=1 n=48 v=67
128096 On ch=1 n=49 v=0
128159 On ch=1 n=47 v=67
128178 On ch=1 n=48 v=0
128238 On ch=1 n=46 v=68
128255 On ch=1 n=47 v=0
128320 On ch=1 n=45 v=68
128334 On ch=1 n=46 v=0
128402 On ch=1 n=44 v=68
128416 On ch=1 n=45 v=0
128481 On ch=1 n=43 v=69
128498 On ch=1 n=44 v=0
128562 On ch=1 n=42 v=69
128577 On ch=1 n=43 v=0
128643 On ch=1 n=41 v=70
128648 Par ch=1 c=64 v=0
128658 On ch=1 n=42 v=0
128686 Par ch=1 c=64 v=127
128719 On ch=1 n=40 v=70
128723 On ch=1 n=41 v=0
128799 On ch=1 n=40 v=0
128800 On ch=1 n=39 v=70
128880 On ch=1 n=39 v=0
128883 On ch=1 n=40 v=71
128958 On ch=1 n=41 v=71
128963 On ch=1 n=40 v=0
129038 On ch=1 n=41 v=0
129043 On ch=1 n=40 v=72
129121 On ch=1 n=39 v=72
129123 On ch=1 n=40 v=0
129199 On ch=1 n=40 v=73
129201 On ch=1 n=39 v=0
129278 On ch=1 n=41 v=73
129279 On ch=1 n=40 v=0
129358 On ch=1 n=41 v=0
129359 On ch=1 n=40 v=73
129439 On ch=1 n=40 v=0
129439 On ch=1 n=39 v=74
129519 On ch=1 n=39 v=0
129519 On ch=1 n=40 v=74
129599 On ch=1 n=40 v=0
129599 On ch=1 n=41 v=75
129612 Par ch=1 c=64 v=0
129649 Par ch=1 c=64 v=127
129679 On ch=1 n=41 v=0
129683 On ch=1 n=40 v=75
129761 On ch=1 n=39 v=77
129763 On ch=1 n=40 v=0
129841 On ch=1 n=39 v=0
129842 On ch=1 n=40 v=77
129919 On ch=1 n=41 v=77
129922 On ch=1 n=40 v=0
129999 On ch=1 n=41 v=0
130002 On ch=1 n=40 v=78
130082 On ch=1 n=40 v=0
130082 On ch=1 n=39 v=78
130162 On ch=1 n=39 v=0
130163 On ch=1 n=40 v=79
130243 On ch=1 n=40 v=0
130243 On ch=1 n=41 v=79
130323 On ch=1 n=41 v=0
130323 On ch=1 n=40 v=79
130399 On ch=1 n=39 v=80
130403 On ch=1 n=40 v=0
130478 On ch=1 n=40 v=80
130479 On ch=1 n=39 v=0
130558 On ch=1 n=40 v=0
130560 On ch=1 n=33 v=119
130564 Par ch=1 c=64 v=0
130629 Par ch=1 c=64 v=127
130800 On ch=1 n=33 v=0
131040 On ch=1 n=64 v=92
131040 On ch=1 n=60 v=77
131040 On ch=1 n=57 v=77
131400 On ch=1 n=57 v=0
131400 On ch=1 n=60 v=0
131400 On ch=1 n=64 v=0
131400 On ch=1 n=57 v=73
131400 On ch=1 n=60 v=73
131400 On ch=1 n=64 v=86
131520 On ch=1 n=64 v=0
131520 On ch=1 n=60 v=0
131520 On ch=1 n=57 v=0
131520 On ch=1 n=64 v=92
131520 On ch=1 n=60 v=77
131520 On ch=1 n=57 v=77
132000 On ch=1 n=57 v=0
132000 On ch=1 n=60 v=0
132000 On ch=1 n=64 v=0
132000 On ch=1 n=57 v=82
132000 On ch=1 n=60 v=82
132000 On ch=1 n=65 v=97
132017 Par ch=1 c=64 v=0
132480 On ch=1 n=65 v=0
132480 On ch=1 n=60 v=0
132480 On ch=1 n=57 v=0
132480 On ch=1 n=57 v=77
132480 On ch=1 n=60 v=77
132480 On ch=1 n=64 v=92
132960 On ch=1 n=64 v=0
132960 On ch=1 n=60 v=0
132960 On ch=1 n=57 v=0
132960 On ch=1 n=52 v=73
132960 On ch=1 n=57 v=73
132960 On ch=1 n=60 v=86
133440 On ch=1 n=60 v=0
133440 On ch=1 n=57 v=0
133440 On ch=1 n=52 v=0
133440 On ch=1 n=57 v=73
133440 On ch=1 n=60 v=73
133440 On ch=1 n=64 v=86
134400 On ch=1 n=64 v=0
134400 On ch=1 n=60 v=0
134400 On ch=1 n=57 v=0
134400 On ch=1 n=33 v=72
134455 Par ch=1 c=64 v=127
134640 On ch=1 n=33 v=0
134880 On ch=1 n=45 v=49
134880 On ch=1 n=52 v=69
135240 On ch=1 n=52 v=0
135240 On ch=1 n=45 v=0
135240 On ch=1 n=45 v=42
135240 On ch=1 n=52 v=61
135360 On ch=1 n=52 v=0
135360 On ch=1 n=45 v=0
135360 On ch=1 n=45 v=50
135360 On ch=1 n=52 v=70
135840 On ch=1 n=52 v=0
135840 On ch=1 n=45 v=0
135840 On ch=1 n=45 v=42
135840 On ch=1 n=53 v=62
135860 Par ch=1 c=64 v=0
136320 On ch=1 n=53 v=0
136320 On ch=1 n=45 v=0
136320 On ch=1 n=45 v=41
136320 On ch=1 n=52 v=58
136800 On ch=1 n=52 v=0
136800 On ch=1 n=45 v=0
136800 On ch=1 n=33 v=55
137280 On ch=1 n=40 v=58
138240 On ch=1 n=40 v=0
138240 On ch=1 n=33 v=0
138240 On ch=1 n=32 v=69
138279 Par ch=1 c=64 v=127
138480 On ch=1 n=32 v=0
138720 On ch=1 n=53 v=66
138720 On ch=1 n=62 v=77
138738 Par ch=1 c=64 v=0
138808 Par ch=1 c=64 v=127
139080 On ch=1 n=62 v=0
139080 On ch=1 n=53 v=0
139080 On ch=1 n=53 v=61
139080 On ch=1 n=62 v=73
139200 On ch=1 n=62 v=0
139200 On ch=1 n=53 v=0
139200 On ch=1 n=53 v=66
139200 On ch=1 n=60 v=77
139218 Par ch=1 c=64 v=0
139680 On ch=1 n=60 v=0
139680 On ch=1 n=53 v=0
139680 On ch=1 n=33 v=77
139680 On ch=1 n=45 v=77
140160 On ch=1 n=45 v=0
140160 On ch=1 n=33 v=0
140160 On ch=1 n=32 v=66
140160 On ch=1 n=44 v=66
140217 Par ch=1 c=64 v=127
140400 On ch=1 n=44 v=0
140400 On ch=1 n=32 v=0
140640 On ch=1 n=55 v=73
140640 On ch=1 n=62 v=66
140644 Par ch=1 c=64 v=0
140704 Par ch=1 c=64 v=127
140800 On ch=1 n=62 v=0
140800 On ch=1 n=55 v=0
140800 On ch=1 n=53 v=72
140800 On ch=1 n=62 v=60
140960 On ch=1 n=62 v=0
140960 On ch=1 n=53 v=0
140960 On ch=1 n=52 v=73
140960 On ch=1 n=62 v=61
141120 On ch=1 n=62 v=0
141120 On ch=1 n=52 v=0
141120 On ch=1 n=52 v=77
141120 On ch=1 n=60 v=66
141138 Par ch=1 c=64 v=0
141600 On ch=1 n=60 v=0
141600 On ch=1 n=52 v=0
141600 On ch=1 n=33 v=67
141600 On ch=1 n=45 v=79
142080 On ch=1 n=45 v=0
142080 On ch=1 n=33 v=0
142080 On ch=1 n=35 v=68
142080 On ch=1 n=47 v=68
142117 Par ch=1 c=64 v=127
142320 On ch=1 n=47 v=0
142320 On ch=1 n=35 v=0
142560 On ch=1 n=56 v=60
142560 On ch=1 n=59 v=60
142560 On ch=1 n=64 v=70
142570 Par ch=1 c=64 v=0
142603 Par ch=1 c=64 v=127
142720 On ch=1 n=64 v=0
142720 On ch=1 n=68 v=66
142880 On ch=1 n=68 v=0
142880 On ch=1 n=73 v=70
143040 On ch=1 n=73 v=0
143040 On ch=1 n=59 v=0
143040 On ch=1 n=56 v=0
143040 On ch=1 n=59 v=60
143040 On ch=1 n=63 v=60
143040 On ch=1 n=71 v=70
143040 On ch=1 n=69 v=70
143052 Par ch=1 c=64 v=0
143109 Par ch=1 c=64 v=127
143520 On ch=1 n=69 v=0
143520 On ch=1 n=59 v=0
143520 On ch=1 n=63 v=0
143520 On ch=1 n=71 v=0
143520 On ch=1 n=47 v=66
143520 On ch=1 n=59 v=77
144000 On ch=1 n=59 v=0
144000 On ch=1 n=47 v=0
144000 On ch=1 n=40 v=66
144000 On ch=1 n=52 v=77
144007 Par ch=1 c=64 v=0
144052 Par ch=1 c=64 v=127
144240 On ch=1 n=52 v=0
144240 On ch=1 n=40 v=0
144480 On ch=1 n=68 v=67
144480 On ch=1 n=59 v=56
144492 Par ch=1 c=64 v=0
144529 Par ch=1 c=64 v=127
144640 On ch=1 n=59 v=0
144640 On ch=1 n=68 v=0
144640 On ch=1 n=67 v=58
144640 On ch=1 n=58 v=49
144800 On ch=1 n=58 v=0
144800 On ch=1 n=67 v=0
144800 On ch=1 n=68 v=63
144800 On ch=1 n=59 v=55
144960 On ch=1 n=59 v=0
144960 On ch=1 n=68 v=0
144960 On ch=1 n=52 v=65
144960 On ch=1 n=56 v=65
144960 On ch=1 n=64 v=74
144968 Par ch=1 c=64 v=0
145017 Par ch=1 c=64 v=127
145171 Par ch=1 c=64 v=0
145200 On ch=1 n=64 v=0
145200 On ch=1 n=56 v=0
145200 On ch=1 n=52 v=0
145920 On ch=1 n=33 v=99
145946 Par ch=1 c=64 v=127
146160 On ch=1 n=33 v=0
146400 On ch=1 n=64 v=84
146400 On ch=1 n=60 v=70
146400 On ch=1 n=57 v=70
146760 On ch=1 n=57 v=0
146760 On ch=1 n=60 v=0
146760 On ch=1 n=64 v=0
146760 On ch=1 n=57 v=67
146760 On ch=1 n=60 v=67
146760 On ch=1 n=64 v=79
146880 On ch=1 n=64 v=0
146880 On ch=1 n=60 v=0
146880 On ch=1 n=57 v=0
146880 On ch=1 n=64 v=84
146880 On ch=1 n=60 v=70
146880 On ch=1 n=57 v=70
147360 On ch=1 n=57 v=0
147360 On ch=1 n=60 v=0
147360 On ch=1 n=64 v=0
147360 On ch=1 n=57 v=74
147360 On ch=1 n=60 v=74
147360 On ch=1 n=65 v=88
147372 Par ch=1 c=64 v=0
147840 On ch=1 n=65 v=0
147840 On ch=1 n=60 v=0
147840 On ch=1 n=57 v=0
147840 On ch=1 n=57 v=70
147840 On ch=1 n=60 v=70
147840 On ch=1 n=64 v=84
148320 On ch=1 n=64 v=0
148320 On ch=1 n=60 v=0
148320 On ch=1 n=57 v=0
148320 On ch=1 n=52 v=67
148320 On ch=1 n=57 v=67
148320 On ch=1 n=60 v=79
148800 On ch=1 n=60 v=0
148800 On ch=1 n=57 v=0
148800 On ch=1 n=52 v=0
148800 On ch=1 n=57 v=67
148800 On ch=1 n=60 v=67
148800 On ch=1 n=64 v=79
149760 On ch=1 n=64 v=0
149760 On ch=1 n=60 v=0
149760 On ch=1 n=57 v=0
149760 On ch=1 n=31 v=69
149803 Par ch=1 c=64 v=127
150000 On ch=1 n=31 v=0
150240 On ch=1 n=43 v=58
150240 On ch=1 n=52 v=69
150255 Par ch=1 c=64 v=0
150300 Par ch=1 c=64 v=127
150600 On ch=1 n=52 v=0
150600 On ch=1 n=43 v=0
150600 On ch=1 n=43 v=50
150600 On ch=1 n=52 v=61
150720 On ch=1 n=52 v=0
150720 On ch=1 n=43 v=0
150720 On ch=1 n=43 v=60
150720 On ch=1 n=52 v=70
151200 On ch=1 n=52 v=0
151200 On ch=1 n=53 v=62
151217 Par ch=1 c=64 v=0
151680 On ch=1 n=53 v=0
151680 On ch=1 n=43 v=58
151680 On ch=1 n=52 v=58
152160 On ch=1 n=52 v=0
152160 On ch=1 n=43 v=0
152160 On ch=1 n=48 v=58
152640 On ch=1 n=48 v=0
152640 On ch=1 n=43 v=0
152640 On ch=1 n=41 v=58
153120 On ch=1 n=41 v=0
153120 On ch=1 n=40 v=58
153600 On ch=1 n=40 v=0
153600 On ch=1 n=38 v=63
153646 Par ch=1 c=64 v=127
153840 On ch=1 n=38 v=0
154080 On ch=1 n=65 v=63
154080 On ch=1 n=57 v=63
154097 Par ch=1 c=64 v=0
154140 Par ch=1 c=64 v=127
154240 On ch=1 n=57 v=0
154240 On ch=1 n=65 v=0
154240 On ch=1 n=49 v=62
154400 On ch=1 n=49 v=0
154400 On ch=1 n=50 v=63
154560 On ch=1 n=50 v=0
154560 On ch=1 n=51 v=69
154560 On ch=1 n=66 v=58
154560 On ch=1 n=57 v=58
154566 Par ch=1 c=64 v=0
154606 Par ch=1 c=64 v=127
155040 On ch=1 n=57 v=0
155040 On ch=1 n=66 v=0
155040 On ch=1 n=51 v=0
155040 On ch=1 n=39 v=72
155520 On ch=1 n=39 v=0
155520 On ch=1 n=40 v=73
155527 Par ch=1 c=64 v=0
155592 Par ch=1 c=64 v=127
155760 On ch=1 n=40 v=0
156000 On ch=1 n=67 v=67
156000 On ch=1 n=58 v=79
156012 Par ch=1 c=64 v=0
156052 Par ch=1 c=64 v=127
156160 On ch=1 n=58 v=0
156160 On ch=1 n=67 v=0
156160 On ch=1 n=51 v=79
156320 On ch=1 n=51 v=0
156320 On ch=1 n=52 v=79
156480 On ch=1 n=52 v=0
156480 On ch=1 n=53 v=81
156480 On ch=1 n=70 v=68
156480 On ch=1 n=58 v=68
156480 On ch=1 n=62 v=68
156483 Par ch=1 c=64 v=0
156537 Par ch=1 c=64 v=127
156960 On ch=1 n=62 v=0
156960 On ch=1 n=53 v=0
156960 On ch=1 n=70 v=0
156960 On ch=1 n=58 v=0
156960 On ch=1 n=41 v=70
156960 On ch=1 n=53 v=82
157440 On ch=1 n=53 v=0
157440 On ch=1 n=41 v=0
157440 On ch=1 n=29 v=80
157440 On ch=1 n=41 v=96
157449 Par ch=1 c=64 v=0
157512 Par ch=1 c=64 v=127
157680 On ch=1 n=41 v=0
157680 On ch=1 n=29 v=0
157920 On ch=1 n=53 v=89
157920 On ch=1 n=65 v=89
158280 On ch=1 n=65 v=0
158280 On ch=1 n=53 v=0
158280 On ch=1 n=53 v=89
158280 On ch=1 n=65 v=89
158400 On ch=1 n=65 v=0
158400 On ch=1 n=53 v=0
158400 On ch=1 n=53 v=89
158400 On ch=1 n=65 v=89
158880 On ch=1 n=65 v=0
158880 On ch=1 n=53 v=0
158880 On ch=1 n=53 v=75
158880 On ch=1 n=60 v=75
158880 On ch=1 n=67 v=90
158897 Par ch=1 c=64 v=0
159360 On ch=1 n=67 v=0
159360 On ch=1 n=60 v=0
159360 On ch=1 n=53 v=0
159360 On ch=1 n=53 v=94
159360 On ch=1 n=65 v=94
159840 On ch=1 n=65 v=0
159840 On ch=1 n=53 v=0
159840 On ch=1 n=48 v=90
159840 On ch=1 n=60 v=90
160320 On ch=1 n=60 v=0
160320 On ch=1 n=48 v=0
160320 On ch=1 n=53 v=92
160320 On ch=1 n=65 v=92
161278 On ch=1 n=41 v=58
161280 On ch=1 n=65 v=0
161280 On ch=1 n=53 v=0
161317 Par ch=1 c=64 v=127
161358 On ch=1 n=41 v=0
161358 On ch=1 n=47 v=45
161438 On ch=1 n=47 v=0
161441 On ch=1 n=45 v=53
161519 On ch=1 n=51 v=46
161521 On ch=1 n=45 v=0
161599 On ch=1 n=51 v=0
161602 On ch=1 n=45 v=55
161682 On ch=1 n=45 v=0
161682 On ch=1 n=51 v=49
161762 On ch=1 n=51 v=0
161762 On ch=1 n=47 v=56
161841 On ch=1 n=53 v=49
161842 On ch=1 n=47 v=0
161918 On ch=1 n=47 v=56
161921 On ch=1 n=53 v=0
161998 On ch=1 n=47 v=0
161999 On ch=1 n=53 v=50
162079 On ch=1 n=53 v=0
162083 On ch=1 n=51 v=57
162160 On ch=1 n=57 v=50
162163 On ch=1 n=51 v=0
162240 On ch=1 n=57 v=0
162242 On ch=1 n=51 v=58
162249 Par ch=1 c=64 v=0
162292 Par ch=1 c=64 v=127
162322 On ch=1 n=51 v=0
162323 On ch=1 n=57 v=50
162403 On ch=1 n=57 v=0
162403 On ch=1 n=53 v=58
162480 On ch=1 n=59 v=51
162483 On ch=1 n=53 v=0
162560 On ch=1 n=59 v=0
162560 On ch=1 n=53 v=60
162640 On ch=1 n=53 v=0
162642 On ch=1 n=59 v=51
162722 On ch=1 n=59 v=0
162722 On ch=1 n=57 v=61
162800 On ch=1 n=63 v=52
162802 On ch=1 n=57 v=0
162880 On ch=1 n=63 v=0
162882 On ch=1 n=57 v=61
162959 On ch=1 n=63 v=55
162962 On ch=1 n=57 v=0
163039 On ch=1 n=63 v=0
163040 On ch=1 n=59 v=62
163118 On ch=1 n=65 v=53
163120 On ch=1 n=59 v=0
163198 On ch=1 n=65 v=0
163202 On ch=1 n=59 v=62
163213 Par ch=1 c=64 v=0
163257 Par ch=1 c=64 v=127
163279 On ch=1 n=65 v=56
163282 On ch=1 n=59 v=0
163358 On ch=1 n=63 v=63
163359 On ch=1 n=65 v=0
163438 On ch=1 n=63 v=0
163439 On ch=1 n=69 v=56
163519 On ch=1 n=69 v=0
163521 On ch=1 n=63 v=64
163601 On ch=1 n=63 v=0
163602 On ch=1 n=69 v=57
163679 On ch=1 n=65 v=64
163682 On ch=1 n=69 v=0
163759 On ch=1 n=65 v=0
163759 On ch=1 n=71 v=58
163839 On ch=1 n=71 v=0
163840 On ch=1 n=65 v=66
163920 On ch=1 n=65 v=0
163922 On ch=1 n=71 v=58
164001 On ch=1 n=69 v=67
164002 On ch=1 n=71 v=0
164080 On ch=1 n=75 v=58
164081 On ch=1 n=69 v=0
164160 On ch=1 n=75 v=0
164163 On ch=1 n=69 v=67
164169 Par ch=1 c=64 v=0
164220 Par ch=1 c=64 v=127
164239 On ch=1 n=75 v=58
164243 On ch=1 n=69 v=0
164319 On ch=1 n=75 v=0
164323 On ch=1 n=71 v=68
164401 On ch=1 n=77 v=60
164403 On ch=1 n=71 v=0
164481 On ch=1 n=77 v=0
164481 On ch=1 n=71 v=69
164560 On ch=1 n=77 v=62
164561 On ch=1 n=71 v=0
164640 On ch=1 n=77 v=0
164642 On ch=1 n=75 v=69
164722 On ch=1 n=75 v=0
164722 On ch=1 n=81 v=62
164802 On ch=1 n=81 v=0
164802 On ch=1 n=75 v=70
164880 On ch=1 n=81 v=63
164882 On ch=1 n=75 v=0
164958 On ch=1 n=77 v=72
164960 On ch=1 n=81 v=0
165038 On ch=1 n=77 v=0
165041 On ch=1 n=83 v=63
165119 On ch=1 n=69 v=89
165119 On ch=1 n=76 v=89
165120 On ch=1 n=64 v=89
165121 On ch=1 n=83 v=0
165121 On ch=1 n=72 v=89
165123 Par ch=1 c=64 v=0
165180 Par ch=1 c=64 v=127
165359 On ch=1 n=69 v=0
165359 On ch=1 n=76 v=0
165359 Par ch=1 c=64 v=0
165360 On ch=1 n=64 v=0
165361 On ch=1 n=72 v=0
165443 On ch=1 n=86 v=79
165470 Par ch=1 c=64 v=127
165522 On ch=1 n=81 v=69
165523 On ch=1 n=86 v=0
165600 On ch=1 n=84 v=79
165602 On ch=1 n=81 v=0
165679 On ch=1 n=76 v=70
165680 On ch=1 n=84 v=0
165759 On ch=1 n=76 v=0
165760 On ch=1 n=83 v=79
165840 On ch=1 n=83 v=0
165841 On ch=1 n=76 v=71
165921 On ch=1 n=76 v=0
165923 On ch=1 n=81 v=79
166003 On ch=1 n=81 v=0
166003 On ch=1 n=72 v=70
166082 On ch=1 n=77 v=79
166083 On ch=1 n=72 v=0
166087 Par ch=1 c=64 v=0
166123 Par ch=1 c=64 v=127
166162 On ch=1 n=77 v=0
166163 On ch=1 n=72 v=70
166243 On ch=1 n=72 v=0
166243 On ch=1 n=76 v=79
166321 On ch=1 n=69 v=70
166323 On ch=1 n=76 v=0
166398 On ch=1 n=74 v=79
166401 On ch=1 n=69 v=0
166478 On ch=1 n=74 v=0
166479 On ch=1 n=69 v=72
166559 On ch=1 n=69 v=0
166559 On ch=1 n=72 v=79
166639 On ch=1 n=72 v=0
166642 On ch=1 n=64 v=70
166719 On ch=1 n=71 v=79
166722 On ch=1 n=64 v=0
166799 On ch=1 n=71 v=0
166799 On ch=1 n=64 v=71
166879 On ch=1 n=64 v=0
166880 On ch=1 n=69 v=79
166960 On ch=1 n=69 v=0
166963 On ch=1 n=60 v=71
167039 On ch=1 n=65 v=79
167043 On ch=1 n=60 v=0
167119 On ch=1 n=65 v=0
167119 On ch=1 n=60 v=71
167199 On ch=1 n=60 v=0
167203 On ch=1 n=64 v=79
167279 On ch=1 n=57 v=71
167283 On ch=1 n=64 v=0
167359 On ch=1 n=57 v=0
167363 On ch=1 n=62 v=79
167442 On ch=1 n=57 v=71
167443 On ch=1 n=62 v=0
167518 On ch=1 n=60 v=79
167522 On ch=1 n=57 v=0
167598 On ch=1 n=60 v=0
167601 On ch=1 n=52 v=71
167679 On ch=1 n=59 v=79
167681 On ch=1 n=52 v=0
167759 On ch=1 n=59 v=0
167760 On ch=1 n=52 v=70
167839 On ch=1 n=57 v=79
167840 On ch=1 n=52 v=0
167919 On ch=1 n=57 v=0
167922 On ch=1 n=48 v=70
168000 On ch=1 n=40 v=73
168000 On ch=1 n=52 v=86
168002 On ch=1 n=48 v=0
168014 Par ch=1 c=64 v=0
168060 Par ch=1 c=64 v=127
168480 On ch=1 n=52 v=0
168480 On ch=1 n=40 v=0
168480 On ch=1 n=28 v=73
168480 On ch=1 n=40 v=86
168499 Par ch=1 c=64 v=0
168568 Par ch=1 c=64 v=127
168960 On ch=1 n=40 v=0
168960 On ch=1 n=28 v=0
168963 On ch=1 n=33 v=101
168969 Par ch=1 c=64 v=0
169026 Par ch=1 c=64 v=127
169081 On ch=1 n=40 v=77
169083 On ch=1 n=33 v=0
169198 On ch=1 n=48 v=77
169201 On ch=1 n=40 v=0
169318 On ch=1 n=48 v=0
169320 On ch=1 n=40 v=77
169440 On ch=1 n=40 v=0
169442 On ch=1 n=33 v=88
169457 Par ch=1 c=64 v=0
169503 Par ch=1 c=64 v=127
169562 On ch=1 n=33 v=0
169562 On ch=1 n=40 v=77
169682 On ch=1 n=40 v=0
169683 On ch=1 n=48 v=77
169803 On ch=1 n=48 v=0
169803 On ch=1 n=40 v=77
169918 On ch=1 n=33 v=97
169923 On ch=1 n=40 v=0
169937 Par ch=1 c=64 v=0
169986 Par ch=1 c=64 v=127
170038 On ch=1 n=33 v=0
170041 On ch=1 n=40 v=77
170161 On ch=1 n=40 v=0
170163 On ch=1 n=48 v=77
170281 On ch=1 n=40 v=77
170283 On ch=1 n=48 v=0
170401 On ch=1 n=40 v=0
170401 On ch=1 n=33 v=89
170417 Par ch=1 c=64 v=0
170463 Par ch=1 c=64 v=127
170521 On ch=1 n=33 v=0
170521 On ch=1 n=40 v=77
170639 On ch=1 n=48 v=77
170641 On ch=1 n=40 v=0
170759 On ch=1 n=48 v=0
170762 On ch=1 n=40 v=77
170882 On ch=1 n=40 v=0
170883 Par ch=1 c=64 v=0
170883 On ch=1 n=33 v=101
170940 Par ch=1 c=64 v=127
171003 On ch=1 n=33 v=0
171003 On ch=1 n=40 v=77
171118 On ch=1 n=48 v=77
171123 On ch=1 n=40 v=0
171238 On ch=1 n=48 v=0
171240 On ch=1 n=40 v=77
171360 On ch=1 n=40 v=0
171360 On ch=1 n=28 v=101
171369 Par ch=1 c=64 v=0
171423 Par ch=1 c=64 v=127
171480 On ch=1 n=28 v=0
171480 On ch=1 n=40 v=77
171598 On ch=1 n=48 v=77
171600 On ch=1 n=40 v=0
171718 On ch=1 n=48 v=0
171719 On ch=1 n=40 v=77
171839 On ch=1 n=40 v=0
171842 On ch=1 n=33 v=96
171852 Par ch=1 c=64 v=0
171915 Par ch=1 c=64 v=127
171958 On ch=1 n=40 v=77
171962 On ch=1 n=33 v=0
172078 On ch=1 n=40 v=0
172083 On ch=1 n=48 v=77
172200 On ch=1 n=40 v=77
172203 On ch=1 n=48 v=0
172320 On ch=1 n=40 v=0
172321 On ch=1 n=48 v=83
172329 Par ch=1 c=64 v=0
172375 Par ch=1 c=64 v=127
172440 On ch=1 n=40 v=73
172441 On ch=1 n=48 v=0
172560 On ch=1 n=40 v=0
172562 On ch=1 n=48 v=71
172681 On ch=1 n=40 v=70
172682 On ch=1 n=48 v=0
172801 On ch=1 n=40 v=0
172801 On ch=1 n=33 v=78
172810 Par ch=1 c=64 v=0
172863 Par ch=1 c=64 v=127
172920 On ch=1 n=40 v=68
172921 On ch=1 n=33 v=0
173040 On ch=1 n=40 v=0
173042 On ch=1 n=48 v=67
173162 On ch=1 n=48 v=0
173163 On ch=1 n=40 v=66
173281 On ch=1 n=33 v=72
173283 On ch=1 n=40 v=0
173289 Par ch=1 c=64 v=0
173346 Par ch=1 c=64 v=127
173401 On ch=1 n=33 v=0
173402 On ch=1 n=40 v=63
173522 On ch=1 n=40 v=0
173522 On ch=1 n=48 v=62
173642 On ch=1 n=48 v=0
173643 On ch=1 n=40 v=61
173759 On ch=1 n=33 v=69
173763 On ch=1 n=40 v=0
173778 Par ch=1 c=64 v=0
173820 Par ch=1 c=64 v=127
173879 On ch=1 n=33 v=0
173881 On ch=1 n=40 v=60
174001 On ch=1 n=40 v=0
174003 On ch=1 n=48 v=59
174122 On ch=1 n=40 v=58
174123 On ch=1 n=48 v=0
174240 On ch=1 n=33 v=63
174242 On ch=1 n=40 v=0
174257 Par ch=1 c=64 v=0
174317 Par ch=1 c=64 v=127
174360 On ch=1 n=33 v=0
174362 On ch=1 n=40 v=52
174481 On ch=1 n=48 v=51
174482 On ch=1 n=40 v=0
174600 On ch=1 n=40 v=50
174601 On ch=1 n=48 v=0
174720 On ch=1 n=40 v=0
174722 Par ch=1 c=64 v=0
174723 On ch=1 n=45 v=89
174835 On ch=1 n=45 v=0
174881 On ch=1 n=44 v=84
174993 On ch=1 n=44 v=0
175039 On ch=1 n=43 v=88
175151 On ch=1 n=43 v=0
175201 On ch=1 n=42 v=89
175313 On ch=1 n=42 v=0
175362 On ch=1 n=41 v=83
175474 On ch=1 n=41 v=0
175521 On ch=1 n=40 v=84
175633 On ch=1 n=40 v=0
175683 On ch=1 n=39 v=89
175795 On ch=1 n=39 v=0
175841 On ch=1 n=38 v=84
175953 On ch=1 n=38 v=0
175999 On ch=1 n=37 v=84
176111 On ch=1 n=37 v=0
176161 On ch=1 n=36 v=89
176273 On ch=1 n=36 v=0
176319 On ch=1 n=35 v=83
176431 On ch=1 n=35 v=0
176483 On ch=1 n=34 v=83
176595 On ch=1 n=34 v=0
176640 On ch=1 n=33 v=104
176732 Par ch=1 c=64 v=127
177120 On ch=1 n=33 v=0
177120 On ch=1 n=33 v=76
177120 On ch=1 n=40 v=90
177120 On ch=1 n=45 v=90
177480 On ch=1 n=45 v=0
177480 On ch=1 n=40 v=0
177480 On ch=1 n=33 v=0
177480 On ch=1 n=33 v=73
177480 On ch=1 n=40 v=86
177480 On ch=1 n=45 v=86
177600 On ch=1 n=45 v=0
177600 On ch=1 n=40 v=0
177600 On ch=1 n=33 v=0
177600 On ch=1 n=33 v=76
177600 On ch=1 n=40 v=90
177600 On ch=1 n=45 v=90
178080 On ch=1 n=45 v=0
178080 On ch=1 n=40 v=0
178080 On ch=1 n=33 v=0
178080 On ch=1 n=33 v=74
178080 On ch=1 n=38 v=88
178080 On ch=1 n=45 v=88
178097 Par ch=1 c=64 v=0
178186 Par ch=1 c=64 v=127
178560 On ch=1 n=45 v=0
178560 On ch=1 n=38 v=0
178560 On ch=1 n=33 v=0
178560 On ch=1 n=33 v=76
178560 On ch=1 n=40 v=90
178560 On ch=1 n=45 v=90
178577 Par ch=1 c=64 v=0
178880 Par ch=1 c=64 v=127
179520 On ch=1 n=45 v=0
179520 On ch=1 n=40 v=0
179520 On ch=1 n=33 v=0
179520 On ch=1 n=33 v=74
179520 On ch=1 n=41 v=88
179520 On ch=1 n=45 v=88
179534 Par ch=1 c=64 v=0
179947 Par ch=1 c=64 v=127
180480 On ch=1 n=45 v=0
180480 On ch=1 n=41 v=0
180480 On ch=1 n=33 v=0
180480 On ch=1 n=33 v=76
180480 On ch=1 n=40 v=90
180480 On ch=1 n=45 v=90
180497 Par ch=1 c=64 v=0
180675 Par ch=1 c=64 v=127
181440 On ch=1 n=33 v=68
181458 Par ch=1 c=64 v=0
181558 On ch=1 n=35 v=68
181584 On ch=1 n=33 v=0
181679 On ch=1 n=36 v=69
181702 On ch=1 n=35 v=0
181801 On ch=1 n=38 v=69
181823 On ch=1 n=36 v=0
181922 On ch=1 n=40 v=70
181945 On ch=1 n=38 v=0
182040 On ch=1 n=42 v=72
182066 On ch=1 n=40 v=0
182160 On ch=1 n=44 v=72
182184 On ch=1 n=42 v=0
182278 On ch=1 n=45 v=73
182304 On ch=1 n=44 v=0
182402 On ch=1 n=47 v=73
182422 On ch=1 n=45 v=0
182520 On ch=1 n=48 v=74
182546 On ch=1 n=47 v=0
182639 On ch=1 n=50 v=74
182664 On ch=1 n=48 v=0
182763 On ch=1 n=52 v=74
182783 On ch=1 n=50 v=0
182881 On ch=1 n=54 v=75
182907 On ch=1 n=52 v=0
183001 On ch=1 n=56 v=75
183025 On ch=1 n=54 v=0
183123 On ch=1 n=57 v=78
183145 On ch=1 n=56 v=0
183241 On ch=1 n=59 v=78
183267 On ch=1 n=57 v=0
183359 On ch=1 n=60 v=79
183385 On ch=1 n=59 v=0
183479 On ch=1 n=62 v=80
183503 On ch=1 n=60 v=0
183599 On ch=1 n=64 v=80
183623 On ch=1 n=62 v=0
183721 On ch=1 n=66 v=81
183743 On ch=1 n=64 v=0
183841 On ch=1 n=68 v=81
183865 On ch=1 n=66 v=0
183961 On ch=1 n=69 v=81
183985 On ch=1 n=68 v=0
184082 On ch=1 n=71 v=81
184105 On ch=1 n=69 v=0
184200 On ch=1 n=72 v=82
184226 On ch=1 n=71 v=0
184321 On ch=1 n=74 v=84
184344 On ch=1 n=72 v=0
184439 On ch=1 n=76 v=84
184465 On ch=1 n=74 v=0
184560 On ch=1 n=78 v=85
184583 On ch=1 n=76 v=0
184680 On ch=1 n=80 v=85
184704 On ch=1 n=78 v=0
184800 On ch=1 n=45 v=0
184800 On ch=1 n=33 v=0
184800 On ch=1 n=40 v=0
184800 On ch=1 n=81 v=93
184824 On ch=1 n=80 v=0
185040 On ch=1 n=81 v=0
185040 Meta TrkEnd
TrkEnd
MTrk
0 Meta TrkName "Chopin: Etude Op, 25, No. 11"
0 Meta TrkEnd
TrkEnd
MTrk
0 Meta TrkName "Copyright © 1999 by Bernd Krüger"
0 Meta TrkEnd
TrkEnd
MTrk
0 Meta TrkName "http://www.piano-midi.de"
0 Meta TrkEnd
TrkEnd
MTrk
0 Meta TrkName "Edition: 2014-02-18"
0 Meta TrkEnd
TrkEnd
MTrk
0 Meta TrkName "Spur 7"
0 Meta TrkEnd
TrkEnd



