0 Par ch=1 c=10 v=63
0 Par ch=1 c=7 v=105
0 Par ch=1 c=101 v=0
0 Par ch=1 c=100 v=0
0 Par ch=1 c=6 v=12
0 Par ch=1 c=10 v=63
0 Par ch=1 c=7 v=105
0 Par ch=1 c=64 v=0
0 Par ch=1 c=101 v=0
0 Par ch=1 c=100 v=0
0 Par ch=1 c=6 v=12
0 Par ch=1 c=10 v=63
0 Par ch=1 c=7 v=105
0 Par ch=1 c=64 v=0
0 Par ch=1 c=64 v=0
0 Par ch=1 c=10 v=63
0 Par ch=1 c=7 v=105
0 Par ch=1 c=101 v=0
0 Par ch=1 c=100 v=0
0 Par ch=1 c=6 v=12
0 Par ch=1 c=10 v=63
0 Par ch=1 c=7 v=105
0 Par ch=1 c=64 v=0
0 Par ch=1 c=64 v=0
0 Par ch=1 c=10 v=63
0 Par ch=1 c=7 v=105
0 On ch=1 n=46 v=39
0 On ch=1 n=41 v=39
0 On ch=1 n=34 v=39
0 On ch=1 n=53 v=39
0 On ch=1 n=58 v=38
96 Off ch=1 n=46 v=0
96 Off ch=1 n=41 v=0
96 Off ch=1 n=34 v=0
96 Off ch=1 n=58 v=0
96 On ch=1 n=49 v=44
96 On ch=1 n=42 v=44
96 On ch=1 n=37 v=44
96 On ch=1 n=54 v=38
96 On ch=1 n=58 v=41
97 Off ch=1 n=53 v=0
168 Off ch=1 n=58 v=0
168 On ch=1 n=58 v=42
192 Off ch=1 n=58 v=0
192 Off ch=1 n=37 v=0
192 Off ch=1 n=49 v=0
192 Off ch=1 n=42 v=0
192 On ch=1 n=46 v=43
192 On ch=1 n=41 v=43
192 On ch=1 n=34 v=43
192 On ch=1 n=53 v=43
192 On ch=1 n=58 v=42
193 Off ch=1 n=54 v=0
283 Off ch=1 n=53 v=0
288 Off ch=1 n=46 v=0
288 Off ch=1 n=41 v=0
288 Off ch=1 n=34 v=0
288 On ch=1 n=49 v=47
288 On ch=1 n=42 v=47
288 On ch=1 n=37 v=47
288 On ch=1 n=54 v=45
374 Off ch=1 n=58 v=0
384 Off ch=1 n=49 v=0
384 Off ch=1 n=54 v=0
384 Off ch=1 n=37 v=0
384 Off ch=1 n=42 v=0
384 On ch=1 n=46 v=42
384 On ch=1 n=41 v=42
384 On ch=1 n=34 v=42
384 On ch=1 n=53 v=44
384 On ch=1 n=58 v=47
480 Off ch=1 n=58 v=0
480 Off ch=1 n=34 v=0
480 Off ch=1 n=41 v=0
480 Off ch=1 n=46 v=0
480 On ch=1 n=49 v=44
480 On ch=1 n=42 v=44
480 On ch=1 n=37 v=44
480 On ch=1 n=54 v=45
480 On ch=1 n=58 v=43
481 Off ch=1 n=53 v=0
552 Off ch=1 n=58 v=0
552 On ch=1 n=58 v=43
576 Off ch=1 n=58 v=0
576 Off ch=1 n=49 v=0
576 Off ch=1 n=37 v=0
576 Off ch=1 n=42 v=0
576 On ch=1 n=46 v=42
576 On ch=1 n=41 v=42
576 On ch=1 n=34 v=42
576 On ch=1 n=53 v=44
576 On ch=1 n=58 v=44
577 Off ch=1 n=54 v=0
667 Off ch=1 n=53 v=0
672 Off ch=1 n=41 v=0
672 Off ch=1 n=46 v=0
672 Off ch=1 n=34 v=0
672 On ch=1 n=49 v=41
672 On ch=1 n=42 v=41
672 On ch=1 n=37 v=41
672 On ch=1 n=54 v=43
758 Off ch=1 n=58 v=0
768 Off ch=1 n=49 v=0
768 Off ch=1 n=54 v=0
768 Off ch=1 n=37 v=0
768 Off ch=1 n=42 v=0
768 On ch=1 n=46 v=42
768 On ch=1 n=41 v=42
768 On ch=1 n=34 v=42
768 On ch=1 n=53 v=43
768 On ch=1 n=58 v=56
864 Off ch=1 n=58 v=0
864 Off ch=1 n=34 v=0
864 Off ch=1 n=41 v=0
864 Off ch=1 n=46 v=0
864 On ch=1 n=49 v=46
864 On ch=1 n=42 v=46
864 On ch=1 n=37 v=46
864 On ch=1 n=54 v=44
864 On ch=1 n=58 v=59
865 Off ch=1 n=53 v=0
936 Off ch=1 n=58 v=0
936 On ch=1 n=58 v=57
960 Off ch=1 n=58 v=0
960 Off ch=1 n=49 v=0
960 Off ch=1 n=37 v=0
960 Off ch=1 n=42 v=0
960 On ch=1 n=46 v=42
960 On ch=1 n=41 v=42
960 On ch=1 n=34 v=42
960 On ch=1 n=53 v=44
960 On ch=1 n=58 v=57
961 Off ch=1 n=54 v=0
1056 Off ch=1 n=46 v=0
1056 Off ch=1 n=34 v=0
1056 Off ch=1 n=41 v=0
1056 On ch=1 n=49 v=44
1056 On ch=1 n=42 v=44
1056 On ch=1 n=37 v=44
1056 On ch=1 n=54 v=46
1056 On ch=1 n=61 v=60
1057 Off ch=1 n=58 v=0
1057 Off ch=1 n=53 v=0
1128 On ch=1 n=60 v=57
1129 Off ch=1 n=61 v=0
1147 Off ch=1 n=60 v=0
1147 On ch=1 n=61 v=57
1152 Off ch=1 n=42 v=0
1152 Off ch=1 n=49 v=0
1152 Off ch=1 n=61 v=0
1152 Off ch=1 n=37 v=0
1152 On ch=1 n=46 v=44
1152 On ch=1 n=41 v=44
1152 On ch=1 n=34 v=44
1152 On ch=1 n=53 v=40
1152 On ch=1 n=60 v=57
1153 Off ch=1 n=54 v=0
1221 Off ch=1 n=60 v=0
1224 On ch=1 n=58 v=56
1244 Off ch=1 n=53 v=0
1248 Off ch=1 n=41 v=0
1248 Off ch=1 n=58 v=0
1248 Off ch=1 n=34 v=0
1248 Off ch=1 n=46 v=0
1248 On ch=1 n=49 v=44
1248 On ch=1 n=42 v=44
1248 On ch=1 n=37 v=44
1248 On ch=1 n=54 v=41
1248 On ch=1 n=58 v=59
1320 Off ch=1 n=58 v=0
1320 On ch=1 n=58 v=57
1344 Off ch=1 n=58 v=0
1344 Off ch=1 n=37 v=0
1344 Off ch=1 n=42 v=0
1344 Off ch=1 n=49 v=0
1344 On ch=1 n=46 v=46
1344 On ch=1 n=41 v=46
1344 On ch=1 n=34 v=46
1344 On ch=1 n=53 v=39
1344 On ch=1 n=58 v=58
1345 Off ch=1 n=54 v=0
1435 Off ch=1 n=53 v=0
1440 Off ch=1 n=46 v=0
1440 Off ch=1 n=41 v=0
1440 Off ch=1 n=34 v=0
1440 On ch=1 n=49 v=43
1440 On ch=1 n=42 v=43
1440 On ch=1 n=37 v=43
1440 On ch=1 n=54 v=44
1526 Off ch=1 n=58 v=0
1536 Off ch=1 n=49 v=0
1536 Off ch=1 n=54 v=0
1536 Off ch=1 n=37 v=0
1536 Off ch=1 n=42 v=0
1536 On ch=1 n=46 v=43
1536 On ch=1 n=41 v=43
1536 On ch=1 n=34 v=43
1536 On ch=1 n=53 v=42
1536 On ch=1 n=61 v=67
1536 On ch=1 n=58 v=67
1632 Off ch=1 n=61 v=0
1632 Off ch=1 n=34 v=0
1632 Off ch=1 n=46 v=0
1632 Off ch=1 n=41 v=0
1632 On ch=1 n=49 v=44
1632 On ch=1 n=42 v=44
1632 On ch=1 n=37 v=44
1632 On ch=1 n=58 v=44
1632 On ch=1 n=54 v=44
1632 On ch=1 n=61 v=64
1633 Off ch=1 n=53 v=0
1633 Off ch=1 n=58 v=0
1704 Off ch=1 n=61 v=0
1704 On ch=1 n=61 v=64
1728 Off ch=1 n=61 v=0
1728 Off ch=1 n=42 v=0
1728 Off ch=1 n=49 v=0
1728 Off ch=1 n=37 v=0
1728 On ch=1 n=46 v=45
1728 On ch=1 n=41 v=45
1728 On ch=1 n=34 v=45
1728 On ch=1 n=53 v=41
1728 On ch=1 n=61 v=64
1728 On ch=1 n=58 v=64
1729 Off ch=1 n=58 v=0
1729 Off ch=1 n=54 v=0
1824 Off ch=1 n=41 v=0
1824 Off ch=1 n=61 v=0
1824 Off ch=1 n=46 v=0
1824 Off ch=1 n=34 v=0
1824 On ch=1 n=49 v=46
1824 On ch=1 n=42 v=46
1824 On ch=1 n=37 v=46
1824 On ch=1 n=54 v=41
1824 On ch=1 n=65 v=72
1824 On ch=1 n=61 v=72
1825 Off ch=1 n=58 v=0
1825 Off ch=1 n=53 v=0
1896 On ch=1 n=63 v=67
1896 On ch=1 n=60 v=67
1897 Off ch=1 n=61 v=0
1897 Off ch=1 n=65 v=0
1915 Off ch=1 n=60 v=0
1915 Off ch=1 n=63 v=0
1915 On ch=1 n=65 v=65
1920 Off ch=1 n=42 v=0
1920 Off ch=1 n=65 v=0
1920 Off ch=1 n=37 v=0
1920 Off ch=1 n=49 v=0
1920 On ch=1 n=46 v=42
1920 On ch=1 n=41 v=42
1920 On ch=1 n=34 v=42
1920 On ch=1 n=53 v=45
1920 On ch=1 n=63 v=65
1920 On ch=1 n=60 v=65
1921 Off ch=1 n=54 v=0
1989 Off ch=1 n=60 v=0
1989 Off ch=1 n=63 v=0
1992 On ch=1 n=61 v=67
1992 On ch=1 n=58 v=67
2012 Off ch=1 n=53 v=0
2016 Off ch=1 n=46 v=0
2016 Off ch=1 n=34 v=0
2016 Off ch=1 n=58 v=0
2016 Off ch=1 n=41 v=0
2016 Off ch=1 n=61 v=0
2016 On ch=1 n=49 v=45
2016 On ch=1 n=42 v=45
2016 On ch=1 n=37 v=45
2016 On ch=1 n=54 v=44
2016 On ch=1 n=61 v=66
2016 On ch=1 n=58 v=66
2088 Off ch=1 n=58 v=0
2088 Off ch=1 n=61 v=0
2088 On ch=1 n=61 v=69
2088 On ch=1 n=58 v=69
2112 Off ch=1 n=58 v=0
2112 Off ch=1 n=61 v=0
2112 Off ch=1 n=37 v=0
2112 Off ch=1 n=42 v=0
2112 Off ch=1 n=49 v=0
2112 On ch=1 n=46 v=41
2112 On ch=1 n=41 v=41
2112 On ch=1 n=34 v=41
2112 On ch=1 n=53 v=45
2112 On ch=1 n=61 v=71
2112 On ch=1 n=58 v=71
2113 Off ch=1 n=54 v=0
2203 Off ch=1 n=53 v=0
2208 Off ch=1 n=46 v=0
2208 Off ch=1 n=41 v=0
2208 Off ch=1 n=34 v=0
2208 On ch=1 n=49 v=43
2208 On ch=1 n=42 v=43
2208 On ch=1 n=37 v=43
2208 On ch=1 n=54 v=42
2294 Off ch=1 n=58 v=0
2294 Off ch=1 n=61 v=0
2304 Off ch=1 n=49 v=0
2304 Off ch=1 n=42 v=0
2304 Off ch=1 n=54 v=0
2304 Off ch=1 n=37 v=0
2304 On ch=1 n=46 v=42
2304 On ch=1 n=41 v=42
2304 On ch=1 n=34 v=42
2304 On ch=1 n=61 v=47
2304 On ch=1 n=58 v=47
2304 On ch=1 n=70 v=79
2376 On ch=1 n=68 v=69
2377 Off ch=1 n=70 v=0
2396 Off ch=1 n=68 v=0
2396 On ch=1 n=68 v=63
2400 Off ch=1 n=68 v=0
2400 Off ch=1 n=58 v=0
2400 Off ch=1 n=61 v=0
2400 Off ch=1 n=34 v=0
2400 Off ch=1 n=46 v=0
2400 Off ch=1 n=41 v=0
2400 On ch=1 n=49 v=44
2400 On ch=1 n=42 v=44
2400 On ch=1 n=37 v=44
2400 On ch=1 n=61 v=44
2400 On ch=1 n=58 v=44
2400 On ch=1 n=66 v=63
2469 Off ch=1 n=66 v=0
2472 On ch=1 n=65 v=63
2491 Off ch=1 n=58 v=0
2491 Off ch=1 n=61 v=0
2496 Off ch=1 n=49 v=0
2496 Off ch=1 n=65 v=0
2496 Off ch=1 n=42 v=0
2496 Off ch=1 n=37 v=0
2496 On ch=1 n=46 v=43
2496 On ch=1 n=41 v=43
2496 On ch=1 n=34 v=43
2496 On ch=1 n=61 v=42
2496 On ch=1 n=58 v=42
2496 On ch=1 n=65 v=65
2592 Off ch=1 n=58 v=0
2592 Off ch=1 n=34 v=0
2592 Off ch=1 n=46 v=0
2592 Off ch=1 n=41 v=0
2592 On ch=1 n=49 v=43
2592 On ch=1 n=42 v=43
2592 On ch=1 n=37 v=43
2592 On ch=1 n=58 v=41
2592 On ch=1 n=61 v=53
2593 Off ch=1 n=65 v=0
2593 Off ch=1 n=61 v=0
2683 Off ch=1 n=61 v=0
2683 Off ch=1 n=58 v=0
2688 Off ch=1 n=49 v=0
2688 Off ch=1 n=42 v=0
2688 Off ch=1 n=37 v=0
2688 On ch=1 n=46 v=42
2688 On ch=1 n=41 v=42
2688 On ch=1 n=34 v=42
2688 On ch=1 n=61 v=44
2688 On ch=1 n=58 v=44
2688 On ch=1 n=70 v=80
2760 On ch=1 n=68 v=69
2761 Off ch=1 n=70 v=0
2780 Off ch=1 n=68 v=0
2780 On ch=1 n=68 v=66
2784 Off ch=1 n=68 v=0
2784 Off ch=1 n=58 v=0
2784 Off ch=1 n=61 v=0
2784 Off ch=1 n=46 v=0
2784 Off ch=1 n=41 v=0
2784 Off ch=1 n=34 v=0
2784 On ch=1 n=49 v=44
2784 On ch=1 n=42 v=44
2784 On ch=1 n=37 v=44
2784 On ch=1 n=61 v=43
2784 On ch=1 n=58 v=43
2784 On ch=1 n=66 v=66
2853 Off ch=1 n=66 v=0
2856 On ch=1 n=65 v=62
2875 Off ch=1 n=58 v=0
2875 Off ch=1 n=61 v=0
2880 Off ch=1 n=49 v=0
2880 Off ch=1 n=65 v=0
2880 Off ch=1 n=42 v=0
2880 Off ch=1 n=37 v=0
2880 On ch=1 n=46 v=43
2880 On ch=1 n=41 v=43
2880 On ch=1 n=34 v=43
2880 On ch=1 n=61 v=45
2880 On ch=1 n=58 v=45
2880 On ch=1 n=65 v=64
2976 Off ch=1 n=58 v=0
2976 Off ch=1 n=34 v=0
2976 Off ch=1 n=46 v=0
2976 Off ch=1 n=41 v=0
2976 On ch=1 n=49 v=45
2976 On ch=1 n=42 v=45
2976 On ch=1 n=37 v=45
2976 On ch=1 n=58 v=45
2976 On ch=1 n=61 v=53
2977 Off ch=1 n=65 v=0
2977 Off ch=1 n=61 v=0
3067 Off ch=1 n=61 v=0
3067 Off ch=1 n=58 v=0
3072 Off ch=1 n=49 v=0
3072 Off ch=1 n=42 v=0
3072 Off ch=1 n=37 v=0
3072 On ch=1 n=46 v=42
3072 On ch=1 n=41 v=42
3072 On ch=1 n=34 v=42
3072 On ch=1 n=53 v=56
3072 On ch=1 n=58 v=62
3168 Off ch=1 n=58 v=0
3168 Off ch=1 n=34 v=0
3168 Off ch=1 n=46 v=0
3168 Off ch=1 n=41 v=0
3168 On ch=1 n=49 v=43
3168 On ch=1 n=42 v=43
3168 On ch=1 n=37 v=43
3168 On ch=1 n=54 v=57
3168 On ch=1 n=58 v=63
3169 Off ch=1 n=53 v=0
3240 Off ch=1 n=58 v=0
3240 On ch=1 n=58 v=65
3264 Off ch=1 n=58 v=0
3264 Off ch=1 n=49 v=0
3264 Off ch=1 n=37 v=0
3264 Off ch=1 n=42 v=0
3264 On ch=1 n=46 v=46
3264 On ch=1 n=41 v=46
3264 On ch=1 n=34 v=46
3264 On ch=1 n=53 v=58
3264 On ch=1 n=58 v=62
3265 Off ch=1 n=54 v=0
3360 Off ch=1 n=46 v=0
3360 Off ch=1 n=34 v=0
3360 Off ch=1 n=41 v=0
3360 On ch=1 n=49 v=49
3360 On ch=1 n=42 v=49
3360 On ch=1 n=37 v=49
3360 On ch=1 n=54 v=60
3360 On ch=1 n=61 v=67
3361 Off ch=1 n=58 v=0
3361 Off ch=1 n=53 v=0
3432 On ch=1 n=60 v=66
3433 Off ch=1 n=61 v=0
3451 Off ch=1 n=60 v=0
3451 On ch=1 n=61 v=64
3456 Off ch=1 n=42 v=0
3456 Off ch=1 n=49 v=0
3456 Off ch=1 n=61 v=0
3456 Off ch=1 n=37 v=0
3456 On ch=1 n=46 v=50
3456 On ch=1 n=41 v=50
3456 On ch=1 n=34 v=50
3456 On ch=1 n=53 v=57
3456 On ch=1 n=60 v=64
3457 Off ch=1 n=54 v=0
3525 Off ch=1 n=60 v=0
3528 On ch=1 n=58 v=69
3548 Off ch=1 n=53 v=0
3552 Off ch=1 n=41 v=0
3552 Off ch=1 n=58 v=0
3552 Off ch=1 n=34 v=0
3552 Off ch=1 n=46 v=0
3552 On ch=1 n=49 v=51
3552 On ch=1 n=42 v=51
3552 On ch=1 n=37 v=51
3552 On ch=1 n=54 v=60
3552 On ch=1 n=58 v=70
3624 Off ch=1 n=58 v=0
3624 On ch=1 n=58 v=74
3648 Off ch=1 n=58 v=0
3648 Off ch=1 n=37 v=0
3648 Off ch=1 n=42 v=0
3648 Off ch=1 n=49 v=0
3648 On ch=1 n=46 v=54
3648 On ch=1 n=41 v=54
3648 On ch=1 n=34 v=54
3648 On ch=1 n=53 v=68
3648 On ch=1 n=58 v=76
3649 Off ch=1 n=54 v=0
3739 Off ch=1 n=53 v=0
3744 Off ch=1 n=46 v=0
3744 Off ch=1 n=41 v=0
3744 Off ch=1 n=34 v=0
3744 On ch=1 n=49 v=56
3744 On ch=1 n=42 v=56
3744 On ch=1 n=37 v=56
3744 On ch=1 n=54 v=77
3830 Off ch=1 n=58 v=0
3839 On ch=1 n=73 v=91
3840 Off ch=1 n=49 v=0
3840 Off ch=1 n=54 v=0
3840 Off ch=1 n=37 v=0
3840 Off ch=1 n=42 v=0
3840 On ch=1 n=46 v=57
3840 On ch=1 n=41 v=57
3840 On ch=1 n=34 v=57
3840 On ch=1 n=82 v=94
3840 On ch=1 n=70 v=94
3888 Off ch=1 n=70 v=0
3888 Off ch=1 n=82 v=0
3888 On ch=1 n=80 v=80
3888 On ch=1 n=68 v=80
3923 Off ch=1 n=68 v=0
3923 Off ch=1 n=80 v=0
3923 On ch=1 n=68 v=76
3925 Off ch=1 n=73 v=0
3929 On ch=1 n=73 v=76
3932 On ch=1 n=80 v=76
3936 Off ch=1 n=68 v=0
3936 Off ch=1 n=46 v=0
3936 Off ch=1 n=34 v=0
3936 Off ch=1 n=41 v=0
3936 Off ch=1 n=80 v=0
3936 On ch=1 n=49 v=58
3936 On ch=1 n=42 v=58
3936 On ch=1 n=37 v=58
3936 On ch=1 n=78 v=76
3936 On ch=1 n=66 v=76
4001 Off ch=1 n=66 v=0
4001 Off ch=1 n=78 v=0
4001 Off ch=1 n=73 v=0
4008 On ch=1 n=77 v=75
4008 On ch=1 n=65 v=75
4032 Off ch=1 n=49 v=0
4032 Off ch=1 n=42 v=0
4032 Off ch=1 n=37 v=0
4032 Off ch=1 n=77 v=0
4032 Off ch=1 n=65 v=0
4032 On ch=1 n=46 v=55
4032 On ch=1 n=41 v=55
4032 On ch=1 n=34 v=55
4032 On ch=1 n=77 v=75
4032 On ch=1 n=73 v=75
4032 On ch=1 n=65 v=75
4128 Off ch=1 n=73 v=0
4128 Off ch=1 n=34 v=0
4128 Off ch=1 n=41 v=0
4128 Off ch=1 n=46 v=0
4128 On ch=1 n=49 v=57
4128 On ch=1 n=42 v=57
4128 On ch=1 n=37 v=57
4128 On ch=1 n=73 v=69
4128 On ch=1 n=70 v=69
4128 On ch=1 n=61 v=69
4129 Off ch=1 n=65 v=0
4129 Off ch=1 n=77 v=0
4219 Off ch=1 n=61 v=0
4219 Off ch=1 n=70 v=0
4219 Off ch=1 n=73 v=0
4224 Off ch=1 n=42 v=0
4224 Off ch=1 n=37 v=0
4224 Off ch=1 n=49 v=0
4224 On ch=1 n=46 v=57
4224 On ch=1 n=41 v=57
4224 On ch=1 n=34 v=57
4224 On ch=1 n=82 v=91
4224 On ch=1 n=70 v=91
4226 On ch=1 n=73 v=73
4272 Off ch=1 n=70 v=0
4272 Off ch=1 n=82 v=0
4272 On ch=1 n=80 v=80
4272 On ch=1 n=68 v=80
4306 Off ch=1 n=68 v=0
4306 Off ch=1 n=80 v=0
4306 On ch=1 n=68 v=78
4309 Off ch=1 n=73 v=0
4311 On ch=1 n=73 v=78
4316 On ch=1 n=80 v=78
4320 Off ch=1 n=68 v=0
4320 Off ch=1 n=41 v=0
4320 Off ch=1 n=34 v=0
4320 Off ch=1 n=46 v=0
4320 Off ch=1 n=80 v=0
4320 On ch=1 n=49 v=59
4320 On ch=1 n=42 v=59
4320 On ch=1 n=37 v=59
4320 On ch=1 n=78 v=78
4320 On ch=1 n=66 v=78
4385 Off ch=1 n=66 v=0
4385 Off ch=1 n=78 v=0
4386 Off ch=1 n=73 v=0
4392 On ch=1 n=77 v=77
4392 On ch=1 n=65 v=77
4416 Off ch=1 n=49 v=0
4416 Off ch=1 n=42 v=0
4416 Off ch=1 n=37 v=0
4416 Off ch=1 n=77 v=0
4416 Off ch=1 n=65 v=0
4416 On ch=1 n=46 v=58
4416 On ch=1 n=41 v=58
4416 On ch=1 n=34 v=58
4416 On ch=1 n=77 v=75
4416 On ch=1 n=73 v=75
4416 On ch=1 n=65 v=75
4512 Off ch=1 n=73 v=0
4512 Off ch=1 n=34 v=0
4512 Off ch=1 n=41 v=0
4512 Off ch=1 n=46 v=0
4512 On ch=1 n=49 v=58
4512 On ch=1 n=42 v=58
4512 On ch=1 n=37 v=58
4512 On ch=1 n=73 v=68
4512 On ch=1 n=70 v=68
4512 On ch=1 n=61 v=68
4513 Off ch=1 n=65 v=0
4513 Off ch=1 n=77 v=0
4603 Off ch=1 n=61 v=0
4603 Off ch=1 n=70 v=0
4603 Off ch=1 n=73 v=0
4608 Off ch=1 n=42 v=0
4608 Off ch=1 n=37 v=0
4608 Off ch=1 n=49 v=0
4608 On ch=1 n=46 v=55
4608 On ch=1 n=41 v=55
4608 On ch=1 n=34 v=55
4608 On ch=1 n=65 v=63
4608 On ch=1 n=70 v=69
4608 On ch=1 n=58 v=69
4704 Off ch=1 n=58 v=0
4704 Off ch=1 n=70 v=0
4704 Off ch=1 n=46 v=0
4704 Off ch=1 n=41 v=0
4704 Off ch=1 n=34 v=0
4704 On ch=1 n=49 v=61
4704 On ch=1 n=42 v=61
4704 On ch=1 n=37 v=61
4704 On ch=1 n=66 v=65
4704 On ch=1 n=70 v=71
4704 On ch=1 n=58 v=71
4705 Off ch=1 n=65 v=0
4776 Off ch=1 n=58 v=0
4776 Off ch=1 n=70 v=0
4776 On ch=1 n=70 v=72
4776 On ch=1 n=58 v=72
4800 Off ch=1 n=58 v=0
4800 Off ch=1 n=70 v=0
4800 Off ch=1 n=49 v=0
4800 Off ch=1 n=37 v=0
4800 Off ch=1 n=42 v=0
4800 On ch=1 n=46 v=63
4800 On ch=1 n=41 v=63
4800 On ch=1 n=34 v=63
4800 On ch=1 n=65 v=67
4800 On ch=1 n=70 v=72
4800 On ch=1 n=58 v=72
4801 Off ch=1 n=66 v=0
4896 Off ch=1 n=46 v=0
4896 Off ch=1 n=34 v=0
4896 Off ch=1 n=41 v=0
4896 On ch=1 n=49 v=62
4896 On ch=1 n=42 v=62
4896 On ch=1 n=37 v=62
4896 On ch=1 n=66 v=68
4896 On ch=1 n=73 v=76
4896 On ch=1 n=61 v=76
4897 Off ch=1 n=58 v=0
4897 Off ch=1 n=70 v=0
4897 Off ch=1 n=65 v=0
4968 On ch=1 n=72 v=72
4968 On ch=1 n=60 v=72
4969 Off ch=1 n=61 v=0
4969 Off ch=1 n=73 v=0
4992 Off ch=1 n=37 v=0
4992 Off ch=1 n=42 v=0
4992 Off ch=1 n=49 v=0
4992 Off ch=1 n=60 v=0
4992 Off ch=1 n=72 v=0
4992 On ch=1 n=46 v=65
4992 On ch=1 n=41 v=65
4992 On ch=1 n=34 v=65
4992 On ch=1 n=65 v=70
4992 On ch=1 n=72 v=76
4992 On ch=1 n=60 v=76
4993 Off ch=1 n=66 v=0
5064 On ch=1 n=70 v=75
5064 On ch=1 n=58 v=75
5065 Off ch=1 n=60 v=0
5065 Off ch=1 n=72 v=0
5088 Off ch=1 n=58 v=0
5088 Off ch=1 n=70 v=0
5088 Off ch=1 n=34 v=0
5088 Off ch=1 n=41 v=0
5088 Off ch=1 n=46 v=0
5088 On ch=1 n=49 v=70
5088 On ch=1 n=42 v=70
5088 On ch=1 n=37 v=70
5088 On ch=1 n=66 v=70
5088 On ch=1 n=70 v=75
5088 On ch=1 n=58 v=75
5089 Off ch=1 n=65 v=0
5160 Off ch=1 n=58 v=0
5160 Off ch=1 n=70 v=0
5160 On ch=1 n=70 v=79
5160 On ch=1 n=58 v=79
5184 Off ch=1 n=58 v=0
5184 Off ch=1 n=70 v=0
5184 Off ch=1 n=49 v=0
5184 Off ch=1 n=37 v=0
5184 Off ch=1 n=42 v=0
5184 On ch=1 n=46 v=69
5184 On ch=1 n=41 v=69
5184 On ch=1 n=34 v=69
5184 On ch=1 n=65 v=80
5184 On ch=1 n=70 v=79
5184 On ch=1 n=58 v=79
5185 Off ch=1 n=66 v=0
5275 Off ch=1 n=65 v=0
5280 On ch=1 n=44 v=81
5280 On ch=1 n=32 v=81
5280 On ch=1 n=72 v=100
5280 On ch=1 n=68 v=100
5280 On ch=1 n=66 v=100
5280 On ch=1 n=60 v=100
5281 Off ch=1 n=58 v=0
5281 Off ch=1 n=70 v=0
5281 Off ch=1 n=41 v=0
5281 Off ch=1 n=46 v=0
5281 Off ch=1 n=34 v=0
5376 On ch=1 n=37 v=80
5376 On ch=1 n=25 v=80
5376 On ch=1 n=73 v=85
5376 On ch=1 n=65 v=85
5376 On ch=1 n=61 v=85
5377 Off ch=1 n=60 v=0
5377 Off ch=1 n=66 v=0
5377 Off ch=1 n=68 v=0
5377 Off ch=1 n=72 v=0
5377 Off ch=1 n=32 v=0
5377 Off ch=1 n=44 v=0
5467 Off ch=1 n=61 v=0
5467 Off ch=1 n=65 v=0
5467 Off ch=1 n=73 v=0
5467 Off ch=1 n=25 v=0
5467 Off ch=1 n=37 v=0
5472 On ch=1 n=56 v=73
5472 On ch=1 n=49 v=73
5472 On ch=1 n=61 v=94
5472 On ch=1 n=73 v=76
5472 On ch=1 n=77 v=87
5472 On ch=1 n=65 v=87
5544 On ch=1 n=63 v=100
5544 On ch=1 n=78 v=88
5544 On ch=1 n=66 v=88
5545 Off ch=1 n=61 v=0
5545 Off ch=1 n=77 v=0
5545 Off ch=1 n=65 v=0
5568 Off ch=1 n=56 v=0
5568 Off ch=1 n=49 v=0
5568 Off ch=1 n=66 v=0
5568 Off ch=1 n=73 v=0
5568 Off ch=1 n=78 v=0
5568 Off ch=1 n=63 v=0
5568 On ch=1 n=56 v=83
5568 On ch=1 n=49 v=83
5568 On ch=1 n=65 v=89
5568 On ch=1 n=73 v=83
5568 On ch=1 n=80 v=90
5568 On ch=1 n=68 v=90
5640 On ch=1 n=66 v=92
5640 On ch=1 n=82 v=93
5640 On ch=1 n=70 v=93
5641 Off ch=1 n=68 v=0
5641 Off ch=1 n=80 v=0
5641 Off ch=1 n=65 v=0
5664 Off ch=1 n=70 v=0
5664 Off ch=1 n=82 v=0
5664 Off ch=1 n=66 v=0
5664 Off ch=1 n=56 v=0
5664 On ch=1 n=68 v=93
5664 On ch=1 n=56 v=93
5664 On ch=1 n=63 v=80
5664 On ch=1 n=80 v=89
5664 On ch=1 n=84 v=92
5664 On ch=1 n=72 v=92
5665 Off ch=1 n=73 v=0
5665 Off ch=1 n=49 v=0
5736 On ch=1 n=65 v=85
5736 On ch=1 n=85 v=96
5736 On ch=1 n=73 v=96
5737 Off ch=1 n=72 v=0
5737 Off ch=1 n=84 v=0
5737 Off ch=1 n=63 v=0
5755 Off ch=1 n=56 v=0
5755 Off ch=1 n=80 v=0
5755 Off ch=1 n=68 v=0
5758 Off ch=1 n=73 v=0
5758 Off ch=1 n=85 v=0
5758 Off ch=1 n=65 v=0
5760 On ch=1 n=44 v=77
5760 On ch=1 n=32 v=77
5760 On ch=1 n=89 v=121
5760 On ch=1 n=84 v=121
5760 On ch=1 n=80 v=121
5760 On ch=1 n=77 v=121
5856 Off ch=1 n=44 v=0
5856 Off ch=1 n=32 v=0
5856 On ch=1 n=72 v=92
5856 On ch=1 n=66 v=92
5856 On ch=1 n=63 v=92
5928 Off ch=1 n=66 v=0
5928 On ch=1 n=70 v=92
5928 On ch=1 n=66 v=92
5928 On ch=1 n=61 v=92
5929 Off ch=1 n=63 v=0
5929 Off ch=1 n=72 v=0
5952 Off ch=1 n=66 v=0
5952 Off ch=1 n=61 v=0
5952 Off ch=1 n=84 v=0
5952 Off ch=1 n=80 v=0
5952 Off ch=1 n=70 v=0
5952 On ch=1 n=70 v=84
5952 On ch=1 n=66 v=84
5952 On ch=1 n=61 v=84
5952 On ch=1 n=87 v=79
5952 On ch=1 n=84 v=79
5952 On ch=1 n=80 v=79
5952 On ch=1 n=75 v=79
5955 Off ch=1 n=89 v=0
5955 Off ch=1 n=77 v=0
6024 Off ch=1 n=66 v=0
6024 On ch=1 n=68 v=81
6024 On ch=1 n=66 v=81
6024 On ch=1 n=60 v=81
6025 Off ch=1 n=70 v=0
6025 Off ch=1 n=61 v=0
6048 Off ch=1 n=60 v=0
6048 Off ch=1 n=66 v=0
6048 Off ch=1 n=68 v=0
6048 On ch=1 n=66 v=85
6048 On ch=1 n=68 v=85
6048 On ch=1 n=60 v=85
6088 Off ch=1 n=75 v=0
6088 Off ch=1 n=80 v=0
6088 Off ch=1 n=84 v=0
6088 Off ch=1 n=87 v=0
6116 Off ch=1 n=66 v=0
6120 Off ch=1 n=60 v=0
6120 On ch=1 n=63 v=79
6120 On ch=1 n=60 v=79
6120 On ch=1 n=57 v=79
6120 On ch=1 n=78 v=75
6120 On ch=1 n=75 v=75
6120 On ch=1 n=72 v=75
6120 On ch=1 n=66 v=75
6121 Off ch=1 n=68 v=0
6142 Off ch=1 n=72 v=0
6142 Off ch=1 n=63 v=0
6142 Off ch=1 n=60 v=0
6142 Off ch=1 n=57 v=0
6142 Off ch=1 n=75 v=0
6143 Off ch=1 n=66 v=0
6144 Off ch=1 n=78 v=0
6144 On ch=1 n=46 v=76
6144 On ch=1 n=34 v=76
6144 On ch=1 n=75 v=76
6144 On ch=1 n=72 v=76
6144 On ch=1 n=77 v=80
6144 On ch=1 n=65 v=80
6235 Off ch=1 n=65 v=0
6235 Off ch=1 n=77 v=0
6236 Off ch=1 n=72 v=0
6236 Off ch=1 n=75 v=0
6240 Off ch=1 n=34 v=0
6240 Off ch=1 n=46 v=0
6240 On ch=1 n=61 v=93
6240 On ch=1 n=58 v=93
6240 On ch=1 n=53 v=93
6240 On ch=1 n=73 v=81
6240 On ch=1 n=70 v=81
6240 On ch=1 n=77 v=81
6240 On ch=1 n=65 v=81
6309 Off ch=1 n=65 v=0
6309 Off ch=1 n=77 v=0
6312 On ch=1 n=79 v=93
6312 On ch=1 n=67 v=93
6331 Off ch=1 n=73 v=0
6332 Off ch=1 n=70 v=0
6336 Off ch=1 n=79 v=0
6336 Off ch=1 n=67 v=0
6336 Off ch=1 n=61 v=0
6336 Off ch=1 n=58 v=0
6336 Off ch=1 n=53 v=0
6336 On ch=1 n=49 v=82
6336 On ch=1 n=37 v=82
6336 On ch=1 n=77 v=86
6336 On ch=1 n=73 v=86
6336 On ch=1 n=81 v=95
6336 On ch=1 n=69 v=95
6408 On ch=1 n=82 v=101
6408 On ch=1 n=70 v=101
6409 Off ch=1 n=69 v=0
6409 Off ch=1 n=81 v=0
6432 Off ch=1 n=70 v=0
6432 Off ch=1 n=82 v=0
6432 Off ch=1 n=77 v=0
6432 Off ch=1 n=37 v=0
6432 Off ch=1 n=49 v=0
6432 On ch=1 n=65 v=92
6432 On ch=1 n=61 v=92
6432 On ch=1 n=58 v=92
6432 On ch=1 n=53 v=92
6432 On ch=1 n=77 v=89
6432 On ch=1 n=84 v=103
6432 On ch=1 n=72 v=103
6433 Off ch=1 n=73 v=0
6504 On ch=1 n=85 v=112
6504 On ch=1 n=73 v=112
6505 Off ch=1 n=72 v=0
6505 Off ch=1 n=84 v=0
6523 Off ch=1 n=77 v=0
6526 Off ch=1 n=73 v=0
6526 Off ch=1 n=85 v=0
6528 Off ch=1 n=58 v=0
6528 Off ch=1 n=53 v=0
6528 Off ch=1 n=61 v=0
6528 Off ch=1 n=65 v=0
6528 On ch=1 n=41 v=92
6528 On ch=1 n=29 v=92
6528 On ch=1 n=70 v=111
6534 On ch=1 n=76 v=111
6541 On ch=1 n=79 v=111
6548 On ch=1 n=85 v=111
6624 Off ch=1 n=29 v=0
6624 Off ch=1 n=41 v=0
6624 On ch=1 n=67 v=109
6624 On ch=1 n=61 v=109
6624 On ch=1 n=58 v=109
6624 On ch=1 n=53 v=109
6720 Off ch=1 n=53 v=0
6720 On ch=1 n=53 v=114
6720 On ch=1 n=84 v=94
6720 On ch=1 n=77 v=94
6720 On ch=1 n=72 v=94
6721 Off ch=1 n=58 v=0
6721 Off ch=1 n=67 v=0
6721 Off ch=1 n=61 v=0
6723 Off ch=1 n=70 v=0
6723 Off ch=1 n=76 v=0
6723 Off ch=1 n=79 v=0
6723 Off ch=1 n=85 v=0
6726 On ch=1 n=57 v=97
6733 On ch=1 n=60 v=97
6740 On ch=1 n=69 v=97
6811 Off ch=1 n=53 v=0
6811 Off ch=1 n=72 v=0
6811 Off ch=1 n=77 v=0
6811 Off ch=1 n=84 v=0
6811 Off ch=1 n=57 v=0
6811 Off ch=1 n=60 v=0
6811 Off ch=1 n=69 v=0
6816 On ch=1 n=53 v=109
6900 Off ch=1 n=53 v=0
6900 On ch=1 n=43 v=96
6904 On ch=1 n=44 v=96
6908 On ch=1 n=46 v=96
6912 Off ch=1 n=43 v=0
6912 Off ch=1 n=46 v=0
6912 On ch=1 n=44 v=97
6912 On ch=1 n=65 v=83
6912 On ch=1 n=68 v=86
6912 On ch=1 n=60 v=86
6912 On ch=1 n=56 v=86
6912 On ch=1 n=54 v=86
6913 Off ch=1 n=44 v=0
6918 Off ch=1 n=44 v=0
6920 On ch=1 n=46 v=97
6926 Off ch=1 n=46 v=0
6928 On ch=1 n=44 v=97
6934 Off ch=1 n=44 v=0
6936 On ch=1 n=46 v=97
6943 Off ch=1 n=46 v=0
6944 On ch=1 n=44 v=97
6950 Off ch=1 n=44 v=0
6952 On ch=1 n=46 v=97
6958 Off ch=1 n=46 v=0
6960 On ch=1 n=44 v=97
6966 Off ch=1 n=44 v=0
6968 On ch=1 n=46 v=97
6974 Off ch=1 n=46 v=0
6975 On ch=1 n=44 v=97
6981 Off ch=1 n=44 v=0
6983 On ch=1 n=46 v=97
6989 Off ch=1 n=46 v=0
6990 On ch=1 n=44 v=97
6996 Off ch=1 n=44 v=0
6998 On ch=1 n=46 v=97
7004 Off ch=1 n=46 v=0
7005 On ch=1 n=44 v=97
7008 Off ch=1 n=54 v=0
7008 Off ch=1 n=68 v=0
7008 Off ch=1 n=56 v=0
7008 Off ch=1 n=60 v=0
7008 On ch=1 n=63 v=80
7008 On ch=1 n=68 v=94
7008 On ch=1 n=60 v=94
7008 On ch=1 n=56 v=94
7008 On ch=1 n=54 v=94
7009 Off ch=1 n=65 v=0
7011 Off ch=1 n=44 v=0
7012 On ch=1 n=46 v=97
7018 Off ch=1 n=46 v=0
7019 On ch=1 n=44 v=97
7025 Off ch=1 n=44 v=0
7026 On ch=1 n=46 v=97
7032 Off ch=1 n=46 v=0
7034 On ch=1 n=44 v=97
7040 Off ch=1 n=44 v=0
7041 On ch=1 n=46 v=97
7047 Off ch=1 n=46 v=0
7049 On ch=1 n=44 v=97
7055 Off ch=1 n=44 v=0
7056 On ch=1 n=46 v=97
7062 Off ch=1 n=46 v=0
7064 On ch=1 n=44 v=97
7070 Off ch=1 n=44 v=0
7072 On ch=1 n=46 v=97
7078 Off ch=1 n=46 v=0
7080 On ch=1 n=44 v=97
7085 On ch=1 n=46 v=97
7086 Off ch=1 n=44 v=0
7090 On ch=1 n=44 v=97
7091 Off ch=1 n=46 v=0
7096 Off ch=1 n=44 v=0
7096 On ch=1 n=43 v=103
7100 On ch=1 n=44 v=103
7104 Off ch=1 n=68 v=0
7104 Off ch=1 n=43 v=0
7104 Off ch=1 n=44 v=0
7104 On ch=1 n=49 v=103
7104 On ch=1 n=61 v=93
7104 On ch=1 n=68 v=97
7104 On ch=1 n=53 v=97
7105 Off ch=1 n=54 v=0
7105 Off ch=1 n=56 v=0
7105 Off ch=1 n=60 v=0
7105 Off ch=1 n=63 v=0
7190 Off ch=1 n=49 v=0
7195 Off ch=1 n=53 v=0
7195 Off ch=1 n=61 v=0
7195 Off ch=1 n=68 v=0
7200 On ch=1 n=49 v=101
7284 Off ch=1 n=49 v=0
7284 On ch=1 n=40 v=82
7287 On ch=1 n=41 v=82
7292 On ch=1 n=42 v=82
7296 Off ch=1 n=40 v=0
7296 Off ch=1 n=42 v=0
7296 On ch=1 n=41 v=82
7296 On ch=1 n=61 v=74
7296 On ch=1 n=65 v=74
7296 On ch=1 n=57 v=74
7296 On ch=1 n=51 v=74
7297 Off ch=1 n=41 v=0
7302 Off ch=1 n=41 v=0
7304 On ch=1 n=42 v=82
7310 Off ch=1 n=42 v=0
7312 On ch=1 n=41 v=82
7318 Off ch=1 n=41 v=0
7320 On ch=1 n=42 v=82
7327 Off ch=1 n=42 v=0
7328 On ch=1 n=41 v=83
7334 Off ch=1 n=41 v=0
7336 On ch=1 n=42 v=83
7342 Off ch=1 n=42 v=0
7344 On ch=1 n=41 v=84
7350 Off ch=1 n=41 v=0
7352 On ch=1 n=42 v=84
7358 Off ch=1 n=42 v=0
7359 On ch=1 n=41 v=85
7365 Off ch=1 n=41 v=0
7367 On ch=1 n=42 v=85
7373 Off ch=1 n=42 v=0
7374 On ch=1 n=41 v=86
7380 Off ch=1 n=41 v=0
7382 On ch=1 n=42 v=86
7388 Off ch=1 n=42 v=0
7389 On ch=1 n=41 v=87
7392 Off ch=1 n=51 v=0
7392 Off ch=1 n=57 v=0
7392 Off ch=1 n=65 v=0
7392 On ch=1 n=60 v=72
7392 On ch=1 n=65 v=80
7392 On ch=1 n=57 v=80
7392 On ch=1 n=51 v=80
7393 Off ch=1 n=61 v=0
7395 Off ch=1 n=41 v=0
7396 On ch=1 n=42 v=87
7402 Off ch=1 n=42 v=0
7403 On ch=1 n=41 v=88
7409 Off ch=1 n=41 v=0
7410 On ch=1 n=42 v=88
7416 Off ch=1 n=42 v=0
7418 On ch=1 n=41 v=89
7424 Off ch=1 n=41 v=0
7425 On ch=1 n=42 v=89
7431 Off ch=1 n=42 v=0
7433 On ch=1 n=41 v=90
7439 Off ch=1 n=41 v=0
7440 On ch=1 n=42 v=90
7446 Off ch=1 n=42 v=0
7448 On ch=1 n=41 v=91
7454 Off ch=1 n=41 v=0
7456 On ch=1 n=42 v=91
7462 Off ch=1 n=42 v=0
7464 On ch=1 n=41 v=92
7470 Off ch=1 n=41 v=0
7471 On ch=1 n=42 v=92
7475 On ch=1 n=41 v=92
7477 Off ch=1 n=42 v=0
7480 On ch=1 n=40 v=114
7481 Off ch=1 n=41 v=0
7483 Off ch=1 n=60 v=0
7484 On ch=1 n=41 v=114
7488 Off ch=1 n=40 v=0
7488 Off ch=1 n=41 v=0
7488 On ch=1 n=42 v=114
7488 On ch=1 n=58 v=76
7488 On ch=1 n=49 v=76
7489 Off ch=1 n=51 v=0
7489 Off ch=1 n=57 v=0
7489 Off ch=1 n=65 v=0
7580 Off ch=1 n=42 v=0
7584 On ch=1 n=41 v=82
7632 Off ch=1 n=41 v=0
7632 On ch=1 n=37 v=68
7670 Off ch=1 n=58 v=0
7670 Off ch=1 n=49 v=0
7680 Off ch=1 n=37 v=0
7680 On ch=1 n=46 v=58
7680 On ch=1 n=34 v=58
7680 On ch=1 n=53 v=50
7680 On ch=1 n=58 v=71
7771 Off ch=1 n=46 v=0
7771 Off ch=1 n=34 v=0
7776 Off ch=1 n=58 v=0
7776 On ch=1 n=49 v=58
7776 On ch=1 n=42 v=58
7776 On ch=1 n=37 v=58
7776 On ch=1 n=54 v=49
7776 On ch=1 n=58 v=73
7777 Off ch=1 n=53 v=0
7848 Off ch=1 n=58 v=0
7848 On ch=1 n=58 v=74
7872 Off ch=1 n=58 v=0
7872 Off ch=1 n=49 v=0
7872 Off ch=1 n=42 v=0
7872 Off ch=1 n=37 v=0
7872 On ch=1 n=46 v=54
7872 On ch=1 n=41 v=54
7872 On ch=1 n=34 v=54
7872 On ch=1 n=53 v=55
7872 On ch=1 n=58 v=73
7873 Off ch=1 n=54 v=0
7968 Off ch=1 n=46 v=0
7968 Off ch=1 n=34 v=0
7968 Off ch=1 n=41 v=0
7968 On ch=1 n=49 v=60
7968 On ch=1 n=42 v=60
7968 On ch=1 n=37 v=60
7968 On ch=1 n=54 v=59
7968 On ch=1 n=61 v=75
7969 Off ch=1 n=58 v=0
7969 Off ch=1 n=53 v=0
8040 On ch=1 n=60 v=70
8041 Off ch=1 n=61 v=0
8058 Off ch=1 n=60 v=0
8058 On ch=1 n=61 v=69
8064 Off ch=1 n=42 v=0
8064 Off ch=1 n=61 v=0
8064 Off ch=1 n=49 v=0
8064 Off ch=1 n=37 v=0
8064 On ch=1 n=46 v=55
8064 On ch=1 n=41 v=55
8064 On ch=1 n=34 v=55
8064 On ch=1 n=53 v=58
8064 On ch=1 n=60 v=69
8065 Off ch=1 n=54 v=0
8133 Off ch=1 n=60 v=0
8136 On ch=1 n=58 v=69
8156 Off ch=1 n=53 v=0
8160 Off ch=1 n=41 v=0
8160 Off ch=1 n=58 v=0
8160 Off ch=1 n=34 v=0
8160 Off ch=1 n=46 v=0
8160 On ch=1 n=49 v=57
8160 On ch=1 n=42 v=57
8160 On ch=1 n=37 v=57
8160 On ch=1 n=54 v=60
8160 On ch=1 n=58 v=72
8232 Off ch=1 n=58 v=0
8232 On ch=1 n=58 v=73
8256 Off ch=1 n=58 v=0
8256 Off ch=1 n=37 v=0
8256 Off ch=1 n=42 v=0
8256 Off ch=1 n=49 v=0
8256 On ch=1 n=46 v=70
8256 On ch=1 n=41 v=70
8256 On ch=1 n=34 v=70
8256 On ch=1 n=53 v=59
8256 On ch=1 n=58 v=70
8257 Off ch=1 n=54 v=0
8347 Off ch=1 n=58 v=0
8347 Off ch=1 n=53 v=0
8352 On ch=1 n=45 v=70
8352 On ch=1 n=33 v=70
8352 On ch=1 n=61 v=85
8352 On ch=1 n=55 v=85
8352 On ch=1 n=52 v=85
8353 Off ch=1 n=41 v=0
8353 Off ch=1 n=46 v=0
8353 Off ch=1 n=34 v=0
8424 On ch=1 n=44 v=80
8424 On ch=1 n=32 v=80
8424 On ch=1 n=63 v=95
8424 On ch=1 n=60 v=95
8424 On ch=1 n=54 v=95
8425 Off ch=1 n=52 v=0
8425 Off ch=1 n=55 v=0
8425 Off ch=1 n=61 v=0
8425 Off ch=1 n=45 v=0
8425 Off ch=1 n=33 v=0
8446 Off ch=1 n=54 v=0
8446 Off ch=1 n=60 v=0
8446 Off ch=1 n=63 v=0
8446 Off ch=1 n=32 v=0
8446 Off ch=1 n=44 v=0
8448 On ch=1 n=37 v=79
8448 On ch=1 n=25 v=79
8448 On ch=1 n=65 v=100
8448 On ch=1 n=61 v=100
8448 On ch=1 n=53 v=100
8544 Off ch=1 n=37 v=0
8544 Off ch=1 n=25 v=0
8544 Off ch=1 n=65 v=0
8544 Off ch=1 n=61 v=0
8544 Off ch=1 n=53 v=0
8544 On ch=1 n=56 v=78
8544 On ch=1 n=49 v=78
8544 On ch=1 n=61 v=95
8544 On ch=1 n=73 v=75
8544 On ch=1 n=77 v=92
8544 On ch=1 n=65 v=92
8616 On ch=1 n=63 v=97
8616 On ch=1 n=78 v=89
8616 On ch=1 n=66 v=89
8617 Off ch=1 n=65 v=0
8617 Off ch=1 n=77 v=0
8617 Off ch=1 n=61 v=0
8640 Off ch=1 n=66 v=0
8640 Off ch=1 n=78 v=0
8640 Off ch=1 n=73 v=0
8640 Off ch=1 n=63 v=0
8640 Off ch=1 n=49 v=0
8640 Off ch=1 n=56 v=0
8640 On ch=1 n=56 v=80
8640 On ch=1 n=49 v=80
8640 On ch=1 n=65 v=86
8640 On ch=1 n=73 v=82
8640 On ch=1 n=80 v=89
8640 On ch=1 n=68 v=89
8712 On ch=1 n=66 v=89
8712 On ch=1 n=82 v=91
8712 On ch=1 n=70 v=91
8713 Off ch=1 n=68 v=0
8713 Off ch=1 n=80 v=0
8713 Off ch=1 n=65 v=0
8736 Off ch=1 n=70 v=0
8736 Off ch=1 n=82 v=0
8736 Off ch=1 n=66 v=0
8736 Off ch=1 n=56 v=0
8736 On ch=1 n=68 v=92
8736 On ch=1 n=56 v=92
8736 On ch=1 n=63 v=78
8736 On ch=1 n=80 v=87
8736 On ch=1 n=84 v=94
8736 On ch=1 n=72 v=94
8737 Off ch=1 n=73 v=0
8737 Off ch=1 n=49 v=0
8808 On ch=1 n=65 v=81
8808 On ch=1 n=85 v=97
8808 On ch=1 n=73 v=97
8809 Off ch=1 n=72 v=0
8809 Off ch=1 n=84 v=0
8809 Off ch=1 n=63 v=0
8827 Off ch=1 n=56 v=0
8827 Off ch=1 n=80 v=0
8827 Off ch=1 n=68 v=0
8830 Off ch=1 n=73 v=0
8830 Off ch=1 n=85 v=0
8830 Off ch=1 n=65 v=0
8832 On ch=1 n=44 v=76
8832 On ch=1 n=32 v=76
8832 On ch=1 n=89 v=124
8832 On ch=1 n=84 v=124
8832 On ch=1 n=80 v=124
8832 On ch=1 n=77 v=124
8928 Off ch=1 n=44 v=0
8928 Off ch=1 n=32 v=0
8928 On ch=1 n=72 v=94
8928 On ch=1 n=66 v=94
8928 On ch=1 n=63 v=94
9000 Off ch=1 n=66 v=0
9000 On ch=1 n=70 v=94
9000 On ch=1 n=66 v=94
9000 On ch=1 n=61 v=94
9001 Off ch=1 n=63 v=0
9001 Off ch=1 n=72 v=0
9024 Off ch=1 n=66 v=0
9024 Off ch=1 n=61 v=0
9024 Off ch=1 n=84 v=0
9024 Off ch=1 n=80 v=0
9024 Off ch=1 n=70 v=0
9024 On ch=1 n=70 v=82
9024 On ch=1 n=66 v=82
9024 On ch=1 n=61 v=82
9024 On ch=1 n=87 v=81
9024 On ch=1 n=84 v=81
9024 On ch=1 n=80 v=81
9024 On ch=1 n=75 v=81
9027 Off ch=1 n=89 v=0
9027 Off ch=1 n=77 v=0
9096 Off ch=1 n=66 v=0
9096 On ch=1 n=68 v=79
9096 On ch=1 n=66 v=79
9096 On ch=1 n=60 v=79
9097 Off ch=1 n=70 v=0
9097 Off ch=1 n=61 v=0
9120 Off ch=1 n=60 v=0
9120 Off ch=1 n=66 v=0
9120 Off ch=1 n=68 v=0
9120 On ch=1 n=68 v=84
9120 On ch=1 n=66 v=84
9120 On ch=1 n=60 v=84
9160 Off ch=1 n=75 v=0
9160 Off ch=1 n=80 v=0
9160 Off ch=1 n=84 v=0
9160 Off ch=1 n=87 v=0
9186 Off ch=1 n=66 v=0
9192 Off ch=1 n=60 v=0
9192 On ch=1 n=72 v=72
9192 On ch=1 n=63 v=79
9192 On ch=1 n=60 v=79
9192 On ch=1 n=57 v=79
9192 On ch=1 n=78 v=72
9192 On ch=1 n=66 v=72
9193 Off ch=1 n=68 v=0
9193 On ch=1 n=75 v=72
9213 Off ch=1 n=66 v=0
9214 Off ch=1 n=75 v=0
9214 Off ch=1 n=63 v=0
9214 Off ch=1 n=60 v=0
9214 Off ch=1 n=57 v=0
9216 Off ch=1 n=72 v=0
9216 Off ch=1 n=78 v=0
9216 On ch=1 n=46 v=79
9216 On ch=1 n=34 v=79
9216 On ch=1 n=75 v=78
9216 On ch=1 n=72 v=78
9216 On ch=1 n=77 v=73
9216 On ch=1 n=65 v=73
9306 Off ch=1 n=75 v=0
9306 Off ch=1 n=72 v=0
9307 Off ch=1 n=65 v=0
9307 Off ch=1 n=77 v=0
9312 Off ch=1 n=34 v=0
9312 Off ch=1 n=46 v=0
9312 On ch=1 n=61 v=95
9312 On ch=1 n=58 v=95
9312 On ch=1 n=53 v=95
9312 On ch=1 n=73 v=81
9312 On ch=1 n=70 v=81
9312 On ch=1 n=77 v=84
9312 On ch=1 n=65 v=84
9381 Off ch=1 n=65 v=0
9381 Off ch=1 n=77 v=0
9384 On ch=1 n=79 v=83
9384 On ch=1 n=67 v=83
9403 Off ch=1 n=73 v=0
9404 Off ch=1 n=70 v=0
9408 Off ch=1 n=79 v=0
9408 Off ch=1 n=67 v=0
9408 Off ch=1 n=61 v=0
9408 Off ch=1 n=58 v=0
9408 Off ch=1 n=53 v=0
9408 On ch=1 n=49 v=78
9408 On ch=1 n=37 v=78
9408 On ch=1 n=77 v=86
9408 On ch=1 n=73 v=86
9408 On ch=1 n=81 v=84
9408 On ch=1 n=69 v=84
9480 On ch=1 n=82 v=86
9480 On ch=1 n=70 v=86
9481 Off ch=1 n=69 v=0
9481 Off ch=1 n=81 v=0
9504 Off ch=1 n=70 v=0
9504 Off ch=1 n=82 v=0
9504 Off ch=1 n=77 v=0
9504 Off ch=1 n=37 v=0
9504 Off ch=1 n=49 v=0
9504 On ch=1 n=65 v=96
9504 On ch=1 n=61 v=96
9504 On ch=1 n=58 v=96
9504 On ch=1 n=53 v=96
9504 On ch=1 n=77 v=88
9504 On ch=1 n=84 v=88
9504 On ch=1 n=72 v=88
9505 Off ch=1 n=73 v=0
9576 On ch=1 n=85 v=83
9576 On ch=1 n=73 v=83
9577 Off ch=1 n=72 v=0
9577 Off ch=1 n=84 v=0
9595 Off ch=1 n=77 v=0
9598 Off ch=1 n=73 v=0
9598 Off ch=1 n=85 v=0
9600 Off ch=1 n=58 v=0
9600 Off ch=1 n=53 v=0
9600 Off ch=1 n=61 v=0
9600 Off ch=1 n=65 v=0
9600 On ch=1 n=41 v=94
9600 On ch=1 n=29 v=94
9600 On ch=1 n=70 v=111
9606 On ch=1 n=76 v=111
9613 On ch=1 n=79 v=111
9620 On ch=1 n=85 v=111
9696 Off ch=1 n=29 v=0
9696 Off ch=1 n=41 v=0
9696 On ch=1 n=67 v=108
9696 On ch=1 n=61 v=108
9696 On ch=1 n=58 v=108
9696 On ch=1 n=53 v=108
9792 Off ch=1 n=53 v=0
9792 On ch=1 n=53 v=114
9792 On ch=1 n=84 v=93
9792 On ch=1 n=77 v=93
9792 On ch=1 n=72 v=93
9793 Off ch=1 n=58 v=0
9793 Off ch=1 n=67 v=0
9793 Off ch=1 n=61 v=0
9795 Off ch=1 n=70 v=0
9795 Off ch=1 n=76 v=0
9795 Off ch=1 n=79 v=0
9795 Off ch=1 n=85 v=0
9798 On ch=1 n=57 v=97
9805 On ch=1 n=60 v=97
9812 On ch=1 n=69 v=97
9883 Off ch=1 n=53 v=0
9883 Off ch=1 n=72 v=0
9883 Off ch=1 n=77 v=0
9883 Off ch=1 n=84 v=0
9883 Off ch=1 n=57 v=0
9883 Off ch=1 n=60 v=0
9883 Off ch=1 n=69 v=0
9888 On ch=1 n=53 v=109
9972 Off ch=1 n=53 v=0
9972 On ch=1 n=43 v=96
9976 On ch=1 n=44 v=96
9980 On ch=1 n=46 v=96
9984 Off ch=1 n=43 v=0
9984 Off ch=1 n=46 v=0
9984 On ch=1 n=44 v=97
9984 On ch=1 n=65 v=85
9984 On ch=1 n=68 v=88
9984 On ch=1 n=60 v=88
9984 On ch=1 n=56 v=88
9984 On ch=1 n=54 v=88
9985 Off ch=1 n=44 v=0
9991 Off ch=1 n=44 v=0
9993 On ch=1 n=46 v=97
10000 Off ch=1 n=46 v=0
10002 On ch=1 n=44 v=97
10009 Off ch=1 n=44 v=0
10011 On ch=1 n=46 v=97
10018 Off ch=1 n=46 v=0
10019 On ch=1 n=44 v=97
10026 Off ch=1 n=44 v=0
10028 On ch=1 n=46 v=97
10035 Off ch=1 n=46 v=0
10036 On ch=1 n=44 v=97
10043 Off ch=1 n=44 v=0
10045 On ch=1 n=46 v=97
10051 Off ch=1 n=46 v=0
10053 On ch=1 n=44 v=97
10059 Off ch=1 n=44 v=0
10061 On ch=1 n=46 v=97
10068 Off ch=1 n=46 v=0
10069 On ch=1 n=44 v=97
10076 Off ch=1 n=44 v=0
10077 On ch=1 n=46 v=97
10080 Off ch=1 n=54 v=0
10080 Off ch=1 n=68 v=0
10080 Off ch=1 n=56 v=0
10080 Off ch=1 n=60 v=0
10080 On ch=1 n=63 v=80
10080 On ch=1 n=68 v=98
10080 On ch=1 n=60 v=98
10080 On ch=1 n=56 v=98
10080 On ch=1 n=54 v=98
10081 Off ch=1 n=65 v=0
10083 Off ch=1 n=46 v=0
10085 On ch=1 n=44 v=97
10091 Off ch=1 n=44 v=0
10093 On ch=1 n=46 v=97
10099 Off ch=1 n=46 v=0
10101 On ch=1 n=44 v=97
10107 Off ch=1 n=44 v=0
10109 On ch=1 n=46 v=97
10116 Off ch=1 n=46 v=0
10117 On ch=1 n=44 v=97
10124 Off ch=1 n=44 v=0
10126 On ch=1 n=46 v=97
10132 Off ch=1 n=46 v=0
10134 On ch=1 n=44 v=97
10141 Off ch=1 n=44 v=0
10143 On ch=1 n=46 v=97
10150 Off ch=1 n=46 v=0
10152 On ch=1 n=44 v=97
10158 Off ch=1 n=44 v=0
10159 On ch=1 n=46 v=97
10165 On ch=1 n=44 v=97
10166 Off ch=1 n=46 v=0
10168 On ch=1 n=43 v=100
10171 Off ch=1 n=44 v=0
10172 On ch=1 n=44 v=100
10176 Off ch=1 n=68 v=0
10176 Off ch=1 n=43 v=0
10176 On ch=1 n=49 v=100
10176 On ch=1 n=61 v=95
10176 On ch=1 n=68 v=97
10176 On ch=1 n=53 v=97
10177 Off ch=1 n=54 v=0
10177 Off ch=1 n=56 v=0
10177 Off ch=1 n=60 v=0
10177 Off ch=1 n=63 v=0
10181 Off ch=1 n=44 v=0
10262 Off ch=1 n=49 v=0
10267 Off ch=1 n=61 v=0
10267 Off ch=1 n=53 v=0
10267 Off ch=1 n=68 v=0
10272 On ch=1 n=49 v=98
10356 Off ch=1 n=49 v=0
10356 On ch=1 n=40 v=81
10360 On ch=1 n=41 v=81
10364 On ch=1 n=42 v=81
10368 Off ch=1 n=40 v=0
10368 Off ch=1 n=42 v=0
10368 On ch=1 n=41 v=83
10368 On ch=1 n=61 v=75
10368 On ch=1 n=65 v=73
10368 On ch=1 n=57 v=73
10368 On ch=1 n=51 v=73
10369 Off ch=1 n=41 v=0
10375 Off ch=1 n=41 v=0
10377 On ch=1 n=42 v=83
10384 Off ch=1 n=42 v=0
10386 On ch=1 n=41 v=84
10393 Off ch=1 n=41 v=0
10395 On ch=1 n=42 v=84
10402 Off ch=1 n=42 v=0
10403 On ch=1 n=41 v=85
10410 Off ch=1 n=41 v=0
10412 On ch=1 n=42 v=86
10419 Off ch=1 n=42 v=0
10420 On ch=1 n=41 v=86
10427 Off ch=1 n=41 v=0
10429 On ch=1 n=42 v=87
10435 Off ch=1 n=42 v=0
10437 On ch=1 n=41 v=87
10443 Off ch=1 n=41 v=0
10445 On ch=1 n=42 v=88
10452 Off ch=1 n=42 v=0
10453 On ch=1 n=41 v=88
10460 Off ch=1 n=41 v=0
10461 On ch=1 n=42 v=89
10464 Off ch=1 n=51 v=0
10464 Off ch=1 n=57 v=0
10464 Off ch=1 n=65 v=0
10464 On ch=1 n=60 v=72
10464 On ch=1 n=65 v=83
10464 On ch=1 n=57 v=83
10464 On ch=1 n=51 v=83
10465 Off ch=1 n=61 v=0
10467 Off ch=1 n=42 v=0
10469 On ch=1 n=41 v=89
10475 Off ch=1 n=41 v=0
10477 On ch=1 n=42 v=90
10483 Off ch=1 n=42 v=0
10485 On ch=1 n=41 v=91
10491 Off ch=1 n=41 v=0
10493 On ch=1 n=42 v=91
10500 Off ch=1 n=42 v=0
10501 On ch=1 n=41 v=92
10508 Off ch=1 n=41 v=0
10510 On ch=1 n=42 v=92
10516 Off ch=1 n=42 v=0
10518 On ch=1 n=41 v=93
10525 Off ch=1 n=41 v=0
10527 On ch=1 n=42 v=93
10534 Off ch=1 n=42 v=0
10536 On ch=1 n=41 v=94
10542 Off ch=1 n=41 v=0
10542 On ch=1 n=42 v=93
10547 On ch=1 n=41 v=94
10549 Off ch=1 n=42 v=0
10552 On ch=1 n=40 v=114
10553 Off ch=1 n=41 v=0
10555 Off ch=1 n=60 v=0
10556 On ch=1 n=41 v=114
10560 Off ch=1 n=40 v=0
10560 On ch=1 n=42 v=114
10560 On ch=1 n=58 v=80
10560 On ch=1 n=49 v=80
10561 Off ch=1 n=51 v=0
10561 Off ch=1 n=57 v=0
10561 Off ch=1 n=65 v=0
10565 Off ch=1 n=41 v=0
10652 Off ch=1 n=42 v=0
10656 On ch=1 n=41 v=83
10704 Off ch=1 n=41 v=0
10704 On ch=1 n=37 v=69
10742 Off ch=1 n=58 v=0
10742 Off ch=1 n=49 v=0
10752 Off ch=1 n=37 v=0
10752 On ch=1 n=46 v=59
10752 On ch=1 n=34 v=59
10752 On ch=1 n=53 v=52
10752 On ch=1 n=58 v=71
10843 Off ch=1 n=46 v=0
10843 Off ch=1 n=34 v=0
10848 Off ch=1 n=58 v=0
10848 On ch=1 n=49 v=56
10848 On ch=1 n=42 v=56
10848 On ch=1 n=37 v=56
10848 On ch=1 n=54 v=51
10848 On ch=1 n=58 v=71
10849 Off ch=1 n=53 v=0
10920 Off ch=1 n=58 v=0
10920 On ch=1 n=58 v=71
10944 Off ch=1 n=58 v=0
10944 Off ch=1 n=49 v=0
10944 Off ch=1 n=42 v=0
10944 Off ch=1 n=37 v=0
10944 On ch=1 n=46 v=56
10944 On ch=1 n=41 v=56
10944 On ch=1 n=34 v=56
10944 On ch=1 n=53 v=54
10944 On ch=1 n=58 v=71
10945 Off ch=1 n=54 v=0
11040 Off ch=1 n=46 v=0
11040 Off ch=1 n=34 v=0
11040 Off ch=1 n=41 v=0
11040 On ch=1 n=49 v=57
11040 On ch=1 n=42 v=57
11040 On ch=1 n=37 v=57
11040 On ch=1 n=54 v=53
11040 On ch=1 n=61 v=73
11041 Off ch=1 n=58 v=0
11041 Off ch=1 n=53 v=0
11112 On ch=1 n=60 v=70
11113 Off ch=1 n=61 v=0
11130 Off ch=1 n=60 v=0
11130 On ch=1 n=61 v=70
11136 Off ch=1 n=42 v=0
11136 Off ch=1 n=61 v=0
11136 Off ch=1 n=49 v=0
11136 Off ch=1 n=37 v=0
11136 On ch=1 n=46 v=56
11136 On ch=1 n=41 v=56
11136 On ch=1 n=34 v=56
11136 On ch=1 n=53 v=55
11136 On ch=1 n=60 v=70
11137 Off ch=1 n=54 v=0
11205 Off ch=1 n=60 v=0
11208 On ch=1 n=58 v=71
11228 Off ch=1 n=53 v=0
11232 Off ch=1 n=41 v=0
11232 Off ch=1 n=58 v=0
11232 Off ch=1 n=34 v=0
11232 Off ch=1 n=46 v=0
11232 On ch=1 n=49 v=58
11232 On ch=1 n=42 v=58
11232 On ch=1 n=37 v=58
11232 On ch=1 n=54 v=59
11232 On ch=1 n=58 v=71
11304 Off ch=1 n=58 v=0
11304 On ch=1 n=58 v=69
11328 Off ch=1 n=58 v=0
11328 Off ch=1 n=37 v=0
11328 Off ch=1 n=42 v=0
11328 Off ch=1 n=49 v=0
11328 On ch=1 n=46 v=57
11328 On ch=1 n=41 v=57
11328 On ch=1 n=34 v=57
11328 On ch=1 n=53 v=59
11328 On ch=1 n=58 v=73
11329 Off ch=1 n=54 v=0
11419 Off ch=1 n=58 v=0
11419 Off ch=1 n=53 v=0
11424 On ch=1 n=44 v=54
11424 On ch=1 n=32 v=54
11425 Off ch=1 n=41 v=0
11425 Off ch=1 n=46 v=0
11425 Off ch=1 n=34 v=0
11520 Par ch=1 c=64 v=127
11520 On ch=1 n=37 v=42
11520 On ch=1 n=77 v=62
11521 Off ch=1 n=32 v=0
11521 Off ch=1 n=44 v=0
11566 Off ch=1 n=37 v=0
11568 On ch=1 n=44 v=44
11616 Off ch=1 n=44 v=0
11616 On ch=1 n=53 v=46
11664 Off ch=1 n=53 v=0
11664 On ch=1 n=61 v=47
11709 Off ch=1 n=61 v=0
11712 On ch=1 n=37 v=39
11712 On ch=1 n=78 v=64
11715 Off ch=1 n=77 v=0
11760 Off ch=1 n=78 v=0
11760 Off ch=1 n=37 v=0
11760 On ch=1 n=44 v=41
11760 On ch=1 n=77 v=70
11808 Off ch=1 n=77 v=0
11808 Off ch=1 n=44 v=0
11808 On ch=1 n=53 v=45
11808 On ch=1 n=75 v=65
11856 Off ch=1 n=75 v=0
11856 Off ch=1 n=53 v=0
11856 Par ch=1 c=64 v=0
11856 On ch=1 n=61 v=51
11856 On ch=1 n=73 v=70
11901 Off ch=1 n=61 v=0
11904 Off ch=1 n=73 v=0
11904 Par ch=1 c=64 v=127
11904 On ch=1 n=39 v=41
11904 On ch=1 n=72 v=67
11952 Off ch=1 n=39 v=0
11952 On ch=1 n=44 v=42
12000 Off ch=1 n=44 v=0
12000 On ch=1 n=54 v=45
12000 On ch=1 n=82 v=78
12001 Off ch=1 n=72 v=0
12048 Off ch=1 n=54 v=0
12048 On ch=1 n=60 v=51
12093 Off ch=1 n=60 v=0
12096 On ch=1 n=39 v=41
12096 On ch=1 n=80 v=79
12097 Off ch=1 n=82 v=0
12144 Off ch=1 n=39 v=0
12144 On ch=1 n=44 v=43
12192 Off ch=1 n=44 v=0
12192 On ch=1 n=54 v=44
12240 Off ch=1 n=54 v=0
12240 Par ch=1 c=64 v=0
12240 On ch=1 n=60 v=46
12278 Off ch=1 n=80 v=0
12285 Off ch=1 n=60 v=0
12288 Par ch=1 c=64 v=127
12288 On ch=1 n=32 v=39
12288 On ch=1 n=78 v=70
12336 Off ch=1 n=32 v=0
12336 On ch=1 n=44 v=42
12384 Off ch=1 n=44 v=0
12384 On ch=1 n=54 v=48
12432 Off ch=1 n=54 v=0
12432 On ch=1 n=60 v=51
12477 Off ch=1 n=60 v=0
12480 On ch=1 n=32 v=41
12480 On ch=1 n=80 v=71
12483 Off ch=1 n=78 v=0
12528 Off ch=1 n=80 v=0
12528 Off ch=1 n=32 v=0
12528 On ch=1 n=44 v=43
12528 On ch=1 n=78 v=67
12576 Off ch=1 n=78 v=0
12576 Off ch=1 n=44 v=0
12576 On ch=1 n=54 v=43
12576 On ch=1 n=77 v=66
12624 Off ch=1 n=77 v=0
12624 Off ch=1 n=54 v=0
12624 Par ch=1 c=64 v=0
12624 On ch=1 n=60 v=48
12624 On ch=1 n=75 v=70
12669 Off ch=1 n=60 v=0
12672 Off ch=1 n=75 v=0
12672 Par ch=1 c=64 v=127
12672 On ch=1 n=37 v=41
12672 On ch=1 n=73 v=67
12720 Off ch=1 n=37 v=0
12720 On ch=1 n=44 v=41
12768 Off ch=1 n=44 v=0
12768 On ch=1 n=53 v=44
12768 On ch=1 n=85 v=81
12769 Off ch=1 n=73 v=0
12816 Off ch=1 n=53 v=0
12816 On ch=1 n=61 v=50
12861 Off ch=1 n=61 v=0
12864 On ch=1 n=37 v=41
12864 On ch=1 n=80 v=76
12865 Off ch=1 n=85 v=0
12912 Off ch=1 n=37 v=0
12912 On ch=1 n=44 v=43
12960 Off ch=1 n=44 v=0
12960 On ch=1 n=53 v=47
13008 Off ch=1 n=53 v=0
13008 Par ch=1 c=64 v=0
13008 On ch=1 n=61 v=51
13046 Off ch=1 n=80 v=0
13053 Off ch=1 n=61 v=0
13056 Par ch=1 c=64 v=127
13056 On ch=1 n=37 v=41
13056 On ch=1 n=77 v=70
13104 Off ch=1 n=37 v=0
13104 On ch=1 n=44 v=41
13152 Off ch=1 n=44 v=0
13152 On ch=1 n=53 v=48
13200 Off ch=1 n=53 v=0
13200 Par ch=1 c=64 v=0
13200 On ch=1 n=61 v=52
13245 Off ch=1 n=61 v=0
13248 Par ch=1 c=64 v=127
13248 On ch=1 n=34 v=43
13248 On ch=1 n=78 v=72
13251 Off ch=1 n=77 v=0
13296 Off ch=1 n=78 v=0
13296 Off ch=1 n=34 v=0
13296 On ch=1 n=46 v=45
13296 On ch=1 n=77 v=71
13344 Off ch=1 n=77 v=0
13344 Off ch=1 n=46 v=0
13344 On ch=1 n=56 v=45
13344 On ch=1 n=75 v=67
13392 Off ch=1 n=75 v=0
13392 Off ch=1 n=56 v=0
13392 Par ch=1 c=64 v=0
13392 On ch=1 n=62 v=48
13392 On ch=1 n=74 v=70
13430 Off ch=1 n=74 v=0
13430 On ch=1 n=75 v=69
13435 On ch=1 n=77 v=69
13437 Off ch=1 n=62 v=0
13438 Off ch=1 n=75 v=0
13440 Off ch=1 n=77 v=0
13440 Par ch=1 c=64 v=127
13440 On ch=1 n=39 v=39
13440 On ch=1 n=75 v=69
13488 Off ch=1 n=39 v=0
13488 On ch=1 n=46 v=40
13488 On ch=1 n=74 v=69
13489 Off ch=1 n=75 v=0
13536 Off ch=1 n=46 v=0
13536 Off ch=1 n=74 v=0
13536 On ch=1 n=54 v=46
13536 On ch=1 n=75 v=72
13584 Off ch=1 n=75 v=0
13584 Off ch=1 n=54 v=0
13584 Par ch=1 c=64 v=0
13584 On ch=1 n=63 v=52
13584 On ch=1 n=77 v=74
13629 Off ch=1 n=63 v=0
13632 Off ch=1 n=77 v=0
13632 Par ch=1 c=64 v=127
13632 On ch=1 n=42 v=41
13632 On ch=1 n=78 v=74
13677 Off ch=1 n=78 v=0
13680 Off ch=1 n=42 v=0
13680 On ch=1 n=51 v=42
13680 On ch=1 n=70 v=66
13728 Off ch=1 n=70 v=0
13728 Off ch=1 n=51 v=0
13728 On ch=1 n=58 v=42
13728 On ch=1 n=77 v=71
13776 Off ch=1 n=77 v=0
13776 Off ch=1 n=58 v=0
13776 Par ch=1 c=64 v=0
13776 On ch=1 n=63 v=45
13776 On ch=1 n=75 v=71
13809 Off ch=1 n=75 v=0
13809 On ch=1 n=72 v=68
13815 On ch=1 n=73 v=68
13819 On ch=1 n=75 v=68
13821 Off ch=1 n=63 v=0
13824 Off ch=1 n=72 v=0
13824 Off ch=1 n=75 v=0
13824 Par ch=1 c=64 v=127
13824 On ch=1 n=43 v=42
13824 On ch=1 n=73 v=68
13825 Off ch=1 n=73 v=0
13832 Off ch=1 n=73 v=0
13833 On ch=1 n=75 v=68
13840 Off ch=1 n=75 v=0
13842 On ch=1 n=73 v=68
13849 Off ch=1 n=73 v=0
13851 On ch=1 n=75 v=68
13858 Off ch=1 n=75 v=0
13859 On ch=1 n=73 v=68
13866 Off ch=1 n=73 v=0
13868 On ch=1 n=75 v=68
13872 Off ch=1 n=43 v=0
13872 On ch=1 n=52 v=44
13875 Off ch=1 n=75 v=0
13876 On ch=1 n=73 v=68
13883 Off ch=1 n=73 v=0
13885 On ch=1 n=75 v=68
13891 Off ch=1 n=75 v=0
13893 On ch=1 n=73 v=68
13899 Off ch=1 n=73 v=0
13901 On ch=1 n=75 v=68
13908 Off ch=1 n=75 v=0
13909 On ch=1 n=73 v=68
13916 Off ch=1 n=73 v=0
13917 On ch=1 n=75 v=68
13920 Off ch=1 n=52 v=0
13920 On ch=1 n=61 v=48
13923 Off ch=1 n=75 v=0
13925 On ch=1 n=73 v=68
13931 Off ch=1 n=73 v=0
13933 On ch=1 n=75 v=68
13939 Off ch=1 n=75 v=0
13941 On ch=1 n=73 v=68
13947 Off ch=1 n=73 v=0
13949 On ch=1 n=75 v=68
13956 Off ch=1 n=75 v=0
13957 On ch=1 n=73 v=68
13964 Off ch=1 n=73 v=0
13966 On ch=1 n=75 v=68
13968 Off ch=1 n=61 v=0
13968 Par ch=1 c=64 v=0
13968 On ch=1 n=70 v=53
13972 Off ch=1 n=75 v=0
13974 On ch=1 n=73 v=68
13980 Off ch=1 n=73 v=0
13983 On ch=1 n=75 v=68
13989 Off ch=1 n=75 v=0
13991 On ch=1 n=73 v=68
13998 Off ch=1 n=73 v=0
14000 On ch=1 n=75 v=68
14005 Off ch=1 n=75 v=0
14007 On ch=1 n=72 v=77
14011 On ch=1 n=73 v=77
14013 Off ch=1 n=70 v=0
14016 Off ch=1 n=73 v=0
14016 Off ch=1 n=72 v=0
14016 Par ch=1 c=64 v=127
14016 On ch=1 n=44 v=43
14016 On ch=1 n=82 v=77
14062 Off ch=1 n=82 v=0
14064 Off ch=1 n=44 v=0
14064 On ch=1 n=51 v=45
14064 On ch=1 n=80 v=70
14112 Off ch=1 n=80 v=0
14112 Off ch=1 n=51 v=0
14112 On ch=1 n=60 v=48
14112 On ch=1 n=78 v=66
14160 Off ch=1 n=78 v=0
14160 Off ch=1 n=60 v=0
14160 Par ch=1 c=64 v=0
14160 On ch=1 n=66 v=53
14160 On ch=1 n=68 v=65
14205 Off ch=1 n=66 v=0
14208 Off ch=1 n=68 v=0
14208 Par ch=1 c=64 v=127
14208 On ch=1 n=32 v=41
14208 On ch=1 n=75 v=67
14256 Off ch=1 n=32 v=0
14256 On ch=1 n=44 v=44
14304 Off ch=1 n=44 v=0
14304 On ch=1 n=54 v=45
14352 Off ch=1 n=54 v=0
14352 Par ch=1 c=64 v=0
14352 On ch=1 n=60 v=49
14397 Off ch=1 n=60 v=0
14400 Par ch=1 c=64 v=127
14400 On ch=1 n=37 v=40
14400 On ch=1 n=73 v=69
14403 Off ch=1 n=75 v=0
14448 Off ch=1 n=37 v=0
14448 On ch=1 n=44 v=42
14491 Off ch=1 n=73 v=0
14496 Off ch=1 n=44 v=0
14496 On ch=1 n=53 v=45
14544 Off ch=1 n=53 v=0
14544 Par ch=1 c=64 v=0
14544 On ch=1 n=61 v=51
14589 Off ch=1 n=61 v=0
14592 Par ch=1 c=64 v=127
14592 On ch=1 n=37 v=41
14592 On ch=1 n=77 v=64
14640 Off ch=1 n=37 v=0
14640 On ch=1 n=44 v=43
14688 Off ch=1 n=44 v=0
14688 On ch=1 n=53 v=48
14736 Off ch=1 n=53 v=0
14736 On ch=1 n=61 v=48
14781 Off ch=1 n=61 v=0
14784 On ch=1 n=37 v=40
14784 On ch=1 n=78 v=65
14787 Off ch=1 n=77 v=0
14832 Off ch=1 n=78 v=0
14832 Off ch=1 n=37 v=0
14832 On ch=1 n=44 v=41
14832 On ch=1 n=77 v=71
14880 Off ch=1 n=77 v=0
14880 Off ch=1 n=44 v=0
14880 On ch=1 n=53 v=45
14880 On ch=1 n=75 v=70
14928 Off ch=1 n=75 v=0
14928 Off ch=1 n=53 v=0
14928 Par ch=1 c=64 v=0
14928 On ch=1 n=61 v=51
14928 On ch=1 n=73 v=69
14973 Off ch=1 n=61 v=0
14976 Off ch=1 n=73 v=0
14976 Par ch=1 c=64 v=127
14976 On ch=1 n=39 v=39
14976 On ch=1 n=72 v=67
15024 Off ch=1 n=39 v=0
15024 On ch=1 n=44 v=40
15072 Off ch=1 n=44 v=0
15072 On ch=1 n=54 v=46
15072 On ch=1 n=82 v=79
15073 Off ch=1 n=72 v=0
15120 Off ch=1 n=54 v=0
15120 On ch=1 n=60 v=51
15165 Off ch=1 n=60 v=0
15168 On ch=1 n=39 v=42
15168 On ch=1 n=80 v=77
15169 Off ch=1 n=82 v=0
15216 Off ch=1 n=39 v=0
15216 On ch=1 n=44 v=46
15264 Off ch=1 n=44 v=0
15264 On ch=1 n=54 v=43
15312 Off ch=1 n=54 v=0
15312 Par ch=1 c=64 v=0
15312 On ch=1 n=60 v=48
15350 Off ch=1 n=80 v=0
15357 Off ch=1 n=60 v=0
15360 Par ch=1 c=64 v=127
15360 On ch=1 n=32 v=41
15360 On ch=1 n=78 v=71
15408 Off ch=1 n=32 v=0
15408 On ch=1 n=44 v=43
15456 Off ch=1 n=44 v=0
15456 On ch=1 n=54 v=45
15504 Off ch=1 n=54 v=0
15504 On ch=1 n=60 v=49
15549 Off ch=1 n=60 v=0
15552 On ch=1 n=32 v=42
15552 On ch=1 n=80 v=73
15555 Off ch=1 n=78 v=0
15600 Off ch=1 n=80 v=0
15600 Off ch=1 n=32 v=0
15600 On ch=1 n=44 v=45
15600 On ch=1 n=78 v=70
15648 Off ch=1 n=78 v=0
15648 Off ch=1 n=44 v=0
15648 On ch=1 n=54 v=47
15648 On ch=1 n=77 v=67
15696 Off ch=1 n=77 v=0
15696 Off ch=1 n=54 v=0
15696 Par ch=1 c=64 v=0
15696 On ch=1 n=60 v=48
15696 On ch=1 n=75 v=70
15741 Off ch=1 n=60 v=0
15744 Off ch=1 n=75 v=0
15744 Par ch=1 c=64 v=127
15744 On ch=1 n=37 v=43
15744 On ch=1 n=73 v=69
15792 Off ch=1 n=37 v=0
15792 On ch=1 n=44 v=44
15840 Off ch=1 n=44 v=0
15840 On ch=1 n=53 v=45
15840 On ch=1 n=85 v=79
15841 Off ch=1 n=73 v=0
15888 Off ch=1 n=53 v=0
15888 On ch=1 n=61 v=50
15933 Off ch=1 n=61 v=0
15936 On ch=1 n=37 v=40
15936 On ch=1 n=80 v=76
15937 Off ch=1 n=85 v=0
15984 Off ch=1 n=37 v=0
15984 On ch=1 n=44 v=40
16032 Off ch=1 n=44 v=0
16032 On ch=1 n=53 v=47
16080 Off ch=1 n=53 v=0
16080 Par ch=1 c=64 v=0
16080 On ch=1 n=61 v=51
16118 Off ch=1 n=80 v=0
16125 Off ch=1 n=61 v=0
16128 Par ch=1 c=64 v=127
16128 On ch=1 n=37 v=42
16128 On ch=1 n=77 v=69
16176 Off ch=1 n=37 v=0
16176 On ch=1 n=44 v=42
16224 Off ch=1 n=44 v=0
16224 On ch=1 n=53 v=48
16272 Off ch=1 n=53 v=0
16272 Par ch=1 c=64 v=0
16272 On ch=1 n=61 v=51
16317 Off ch=1 n=61 v=0
16320 Par ch=1 c=64 v=127
16320 On ch=1 n=34 v=42
16320 On ch=1 n=78 v=71
16323 Off ch=1 n=77 v=0
16368 Off ch=1 n=78 v=0
16368 Off ch=1 n=34 v=0
16368 On ch=1 n=46 v=46
16368 On ch=1 n=77 v=69
16416 Off ch=1 n=77 v=0
16416 Off ch=1 n=46 v=0
16416 On ch=1 n=56 v=48
16416 On ch=1 n=75 v=67
16464 Off ch=1 n=75 v=0
16464 Off ch=1 n=56 v=0
16464 Par ch=1 c=64 v=0
16464 On ch=1 n=62 v=52
16464 On ch=1 n=74 v=70
16502 Off ch=1 n=74 v=0
16502 On ch=1 n=75 v=69
16507 On ch=1 n=77 v=69
16509 Off ch=1 n=62 v=0
16510 Off ch=1 n=75 v=0
16512 Off ch=1 n=77 v=0
16512 Par ch=1 c=64 v=127
16512 On ch=1 n=39 v=38
16512 On ch=1 n=75 v=69
16560 Off ch=1 n=39 v=0
16560 On ch=1 n=46 v=41
16560 On ch=1 n=74 v=67
16561 Off ch=1 n=75 v=0
16608 Off ch=1 n=46 v=0
16608 Off ch=1 n=74 v=0
16608 On ch=1 n=54 v=44
16608 On ch=1 n=75 v=69
16656 Off ch=1 n=75 v=0
16656 Off ch=1 n=54 v=0
16656 Par ch=1 c=64 v=0
16656 On ch=1 n=63 v=49
16656 On ch=1 n=77 v=74
16701 Off ch=1 n=63 v=0
16704 Off ch=1 n=77 v=0
16704 Par ch=1 c=64 v=127
16704 On ch=1 n=42 v=40
16704 On ch=1 n=78 v=75
16749 Off ch=1 n=78 v=0
16752 Off ch=1 n=42 v=0
16752 On ch=1 n=51 v=42
16752 On ch=1 n=70 v=66
16800 Off ch=1 n=70 v=0
16800 Off ch=1 n=51 v=0
16800 On ch=1 n=58 v=48
16800 On ch=1 n=77 v=69
16848 Off ch=1 n=77 v=0
16848 Off ch=1 n=58 v=0
16848 Par ch=1 c=64 v=0
16848 On ch=1 n=63 v=49
16848 On ch=1 n=75 v=70
16881 Off ch=1 n=75 v=0
16881 On ch=1 n=72 v=70
16886 On ch=1 n=73 v=70
16891 On ch=1 n=75 v=70
16893 Off ch=1 n=63 v=0
16896 Off ch=1 n=72 v=0
16896 Off ch=1 n=75 v=0
16896 Par ch=1 c=64 v=127
16896 On ch=1 n=43 v=39
16896 On ch=1 n=73 v=70
16897 Off ch=1 n=73 v=0
16903 Off ch=1 n=73 v=0
16905 On ch=1 n=75 v=70
16912 Off ch=1 n=75 v=0
16914 On ch=1 n=73 v=70
16921 Off ch=1 n=73 v=0
16923 On ch=1 n=75 v=70
16930 Off ch=1 n=75 v=0
16931 On ch=1 n=73 v=70
16938 Off ch=1 n=73 v=0
16940 On ch=1 n=75 v=70
16944 Off ch=1 n=43 v=0
16944 On ch=1 n=52 v=39
16947 Off ch=1 n=75 v=0
16948 On ch=1 n=73 v=70
16955 Off ch=1 n=73 v=0
16957 On ch=1 n=75 v=70
16963 Off ch=1 n=75 v=0
16965 On ch=1 n=73 v=70
16971 Off ch=1 n=73 v=0
16973 On ch=1 n=75 v=70
16980 Off ch=1 n=75 v=0
16981 On ch=1 n=73 v=70
16988 Off ch=1 n=73 v=0
16989 On ch=1 n=75 v=70
16992 Off ch=1 n=52 v=0
16992 On ch=1 n=61 v=47
16995 Off ch=1 n=75 v=0
16997 On ch=1 n=73 v=70
17003 Off ch=1 n=73 v=0
17005 On ch=1 n=75 v=70
17011 Off ch=1 n=75 v=0
17013 On ch=1 n=73 v=70
17019 Off ch=1 n=73 v=0
17021 On ch=1 n=75 v=70
17028 Off ch=1 n=75 v=0
17029 On ch=1 n=73 v=70
17036 Off ch=1 n=73 v=0
17038 On ch=1 n=75 v=70
17040 Off ch=1 n=61 v=0
17040 Par ch=1 c=64 v=0
17040 On ch=1 n=70 v=52
17044 Off ch=1 n=75 v=0
17046 On ch=1 n=73 v=70
17052 Off ch=1 n=73 v=0
17055 On ch=1 n=75 v=70
17061 Off ch=1 n=75 v=0
17063 On ch=1 n=73 v=70
17070 Off ch=1 n=73 v=0
17072 On ch=1 n=75 v=70
17077 Off ch=1 n=75 v=0
17079 On ch=1 n=72 v=80
17083 On ch=1 n=73 v=80
17085 Off ch=1 n=70 v=0
17088 Off ch=1 n=73 v=0
17088 Off ch=1 n=72 v=0
17088 Par ch=1 c=64 v=127
17088 On ch=1 n=44 v=39
17088 On ch=1 n=82 v=80
17134 Off ch=1 n=82 v=0
17136 Off ch=1 n=44 v=0
17136 On ch=1 n=51 v=41
17136 On ch=1 n=80 v=71
17184 Off ch=1 n=80 v=0
17184 Off ch=1 n=51 v=0
17184 On ch=1 n=60 v=47
17184 On ch=1 n=78 v=70
17232 Off ch=1 n=78 v=0
17232 Off ch=1 n=60 v=0
17232 Par ch=1 c=64 v=0
17232 On ch=1 n=66 v=51
17232 On ch=1 n=68 v=62
17277 Off ch=1 n=66 v=0
17280 Off ch=1 n=68 v=0
17280 Par ch=1 c=64 v=127
17280 On ch=1 n=32 v=42
17280 On ch=1 n=75 v=66
17328 Off ch=1 n=32 v=0
17328 On ch=1 n=44 v=44
17376 Off ch=1 n=44 v=0
17376 On ch=1 n=54 v=47
17424 Off ch=1 n=54 v=0
17424 Par ch=1 c=64 v=0
17424 On ch=1 n=60 v=50
17469 Off ch=1 n=60 v=0
17472 Par ch=1 c=64 v=127
17472 On ch=1 n=37 v=41
17472 On ch=1 n=73 v=71
17475 Off ch=1 n=75 v=0
17520 Off ch=1 n=37 v=0
17520 On ch=1 n=44 v=44
17563 Off ch=1 n=73 v=0
17568 Off ch=1 n=44 v=0
17568 On ch=1 n=53 v=47
17616 Off ch=1 n=53 v=0
17616 Par ch=1 c=64 v=0
17616 On ch=1 n=61 v=50
17661 Off ch=1 n=61 v=0
17664 Par ch=1 c=64 v=127
17664 On ch=1 n=32 v=40
17664 On ch=1 n=72 v=64
17712 Off ch=1 n=32 v=0
17712 On ch=1 n=44 v=44
17760 Off ch=1 n=44 v=0
17760 On ch=1 n=51 v=45
17808 Off ch=1 n=51 v=0
17808 On ch=1 n=60 v=51
17853 Off ch=1 n=60 v=0
17856 On ch=1 n=32 v=39
17856 On ch=1 n=73 v=71
17859 Off ch=1 n=72 v=0
17904 Off ch=1 n=73 v=0
17904 Off ch=1 n=32 v=0
17904 On ch=1 n=44 v=41
17904 On ch=1 n=72 v=69
17952 Off ch=1 n=72 v=0
17952 Off ch=1 n=44 v=0
17952 On ch=1 n=51 v=44
17952 On ch=1 n=70 v=68
18000 Off ch=1 n=70 v=0
18000 Off ch=1 n=51 v=0
18000 Par ch=1 c=64 v=0
18000 On ch=1 n=60 v=49
18000 On ch=1 n=68 v=66
18045 Off ch=1 n=60 v=0
18048 Off ch=1 n=68 v=0
18048 Par ch=1 c=64 v=127
18048 On ch=1 n=34 v=42
18048 On ch=1 n=67 v=70
18096 Off ch=1 n=34 v=0
18096 On ch=1 n=46 v=47
18144 Off ch=1 n=46 v=0
18144 On ch=1 n=51 v=44
18144 On ch=1 n=77 v=77
18145 Off ch=1 n=67 v=0
18192 Off ch=1 n=51 v=0
18192 On ch=1 n=61 v=48
18237 Off ch=1 n=61 v=0
18240 On ch=1 n=34 v=41
18240 On ch=1 n=75 v=68
18241 Off ch=1 n=77 v=0
18288 Off ch=1 n=34 v=0
18288 On ch=1 n=46 v=42
18336 Off ch=1 n=46 v=0
18336 On ch=1 n=51 v=45
18384 Off ch=1 n=51 v=0
18384 Par ch=1 c=64 v=0
18384 On ch=1 n=61 v=51
18422 Off ch=1 n=75 v=0
18429 Off ch=1 n=61 v=0
18432 Par ch=1 c=64 v=127
18432 On ch=1 n=34 v=41
18432 On ch=1 n=73 v=71
18480 Off ch=1 n=34 v=0
18480 On ch=1 n=46 v=45
18528 Off ch=1 n=46 v=0
18528 On ch=1 n=52 v=44
18576 Off ch=1 n=52 v=0
18576 On ch=1 n=61 v=50
18621 Off ch=1 n=61 v=0
18624 On ch=1 n=34 v=41
18624 On ch=1 n=75 v=82
18627 Off ch=1 n=73 v=0
18672 Off ch=1 n=75 v=0
18672 Off ch=1 n=34 v=0
18672 On ch=1 n=46 v=44
18672 On ch=1 n=73 v=77
18720 Off ch=1 n=73 v=0
18720 Off ch=1 n=46 v=0
18720 On ch=1 n=52 v=44
18720 On ch=1 n=72 v=79
18768 Off ch=1 n=72 v=0
18768 Off ch=1 n=52 v=0
18768 Par ch=1 c=64 v=0
18768 On ch=1 n=61 v=51
18768 On ch=1 n=70 v=76
18813 Off ch=1 n=61 v=0
18816 Off ch=1 n=70 v=0
18816 Par ch=1 c=64 v=127
18816 On ch=1 n=36 v=39
18816 On ch=1 n=69 v=81
18864 Off ch=1 n=36 v=0
18864 On ch=1 n=48 v=40
18912 Off ch=1 n=48 v=0
18912 On ch=1 n=53 v=47
18912 On ch=1 n=78 v=90
18913 Off ch=1 n=69 v=0
18960 Off ch=1 n=53 v=0
18960 Par ch=1 c=64 v=0
18960 On ch=1 n=63 v=51
19005 Off ch=1 n=63 v=0
19008 Par ch=1 c=64 v=127
19008 On ch=1 n=36 v=40
19008 On ch=1 n=77 v=76
19009 Off ch=1 n=78 v=0
19056 Off ch=1 n=36 v=0
19056 On ch=1 n=48 v=40
19104 Off ch=1 n=48 v=0
19104 On ch=1 n=53 v=46
19152 Off ch=1 n=53 v=0
19152 Par ch=1 c=64 v=0
19152 On ch=1 n=63 v=50
19190 Off ch=1 n=77 v=0
19197 Off ch=1 n=63 v=0
19200 Par ch=1 c=64 v=127
19200 On ch=1 n=37 v=39
19200 On ch=1 n=77 v=78
19248 Off ch=1 n=37 v=0
19248 On ch=1 n=49 v=43
19296 Off ch=1 n=49 v=0
19296 On ch=1 n=58 v=48
19344 Off ch=1 n=58 v=0
19344 On ch=1 n=65 v=52
19389 Off ch=1 n=65 v=0
19392 On ch=1 n=37 v=39
19392 On ch=1 n=78 v=83
19395 Off ch=1 n=77 v=0
19440 Off ch=1 n=78 v=0
19440 Off ch=1 n=37 v=0
19440 On ch=1 n=49 v=41
19440 On ch=1 n=77 v=80
19488 Off ch=1 n=77 v=0
19488 Off ch=1 n=49 v=0
19488 On ch=1 n=58 v=44
19488 On ch=1 n=75 v=76
19536 Off ch=1 n=75 v=0
19536 Off ch=1 n=58 v=0
19536 Par ch=1 c=64 v=0
19536 On ch=1 n=65 v=48
19536 On ch=1 n=73 v=75
19581 Off ch=1 n=73 v=0
19581 Off ch=1 n=65 v=0
19584 Par ch=1 c=64 v=127
19584 On ch=1 n=39 v=41
19584 On ch=1 n=73 v=80
19632 Off ch=1 n=39 v=0
19632 On ch=1 n=51 v=44
19680 Off ch=1 n=51 v=0
19680 On ch=1 n=58 v=46
19680 On ch=1 n=72 v=80
19681 Off ch=1 n=73 v=0
19728 Off ch=1 n=58 v=0
19728 Par ch=1 c=64 v=0
19728 On ch=1 n=66 v=48
19771 Off ch=1 n=72 v=0
19773 Off ch=1 n=66 v=0
19776 Par ch=1 c=64 v=127
19776 On ch=1 n=41 v=42
19824 Off ch=1 n=41 v=0
19824 On ch=1 n=53 v=44
19824 On ch=1 n=72 v=73
19867 Off ch=1 n=72 v=0
19867 On ch=1 n=75 v=78
19872 Off ch=1 n=75 v=0
19872 Off ch=1 n=53 v=0
19872 On ch=1 n=58 v=47
19872 On ch=1 n=73 v=78
19920 Off ch=1 n=58 v=0
19920 Par ch=1 c=64 v=0
19920 On ch=1 n=65 v=49
19941 Off ch=1 n=73 v=0
19944 On ch=1 n=72 v=79
19965 Off ch=1 n=65 v=0
19966 Off ch=1 n=72 v=0
19968 Par ch=1 c=64 v=127
19968 On ch=1 n=42 v=41
19968 On ch=1 n=72 v=84
20016 Off ch=1 n=42 v=0
20016 On ch=1 n=54 v=44
20064 Off ch=1 n=54 v=0
20064 On ch=1 n=58 v=44
20064 On ch=1 n=70 v=70
20065 Off ch=1 n=72 v=0
20112 Off ch=1 n=58 v=0
20112 Par ch=1 c=64 v=0
20112 On ch=1 n=63 v=46
20155 Off ch=1 n=70 v=0
20157 Off ch=1 n=63 v=0
20160 Par ch=1 c=64 v=127
20160 On ch=1 n=42 v=41
20208 Off ch=1 n=42 v=0
20208 On ch=1 n=54 v=45
20208 On ch=1 n=72 v=67
20251 Off ch=1 n=72 v=0
20251 On ch=1 n=75 v=74
20256 Off ch=1 n=75 v=0
20256 Off ch=1 n=54 v=0
20256 On ch=1 n=58 v=44
20256 On ch=1 n=73 v=74
20304 Off ch=1 n=58 v=0
20304 Par ch=1 c=64 v=0
20304 On ch=1 n=64 v=49
20325 Off ch=1 n=73 v=0
20328 On ch=1 n=72 v=78
20349 Off ch=1 n=64 v=0
20350 Off ch=1 n=72 v=0
20352 Par ch=1 c=64 v=127
20352 On ch=1 n=41 v=43
20352 On ch=1 n=72 v=80
20400 Off ch=1 n=41 v=0
20400 On ch=1 n=48 v=41
20448 Off ch=1 n=48 v=0
20448 On ch=1 n=57 v=45
20448 On ch=1 n=77 v=88
20449 Off ch=1 n=72 v=0
20496 Off ch=1 n=57 v=0
20496 Par ch=1 c=64 v=0
20496 On ch=1 n=65 v=47
20541 Off ch=1 n=65 v=0
20544 Par ch=1 c=64 v=127
20544 On ch=1 n=39 v=42
20544 On ch=1 n=78 v=85
20545 Off ch=1 n=77 v=0
20592 Off ch=1 n=39 v=0
20592 On ch=1 n=51 v=43
20640 Off ch=1 n=51 v=0
20640 On ch=1 n=56 v=45
20640 On ch=1 n=68 v=63
20641 Off ch=1 n=78 v=0
20688 Off ch=1 n=56 v=0
20688 Par ch=1 c=64 v=0
20688 On ch=1 n=66 v=47
20688 On ch=1 n=60 v=47
20731 Off ch=1 n=68 v=0
20733 Off ch=1 n=60 v=0
20733 Off ch=1 n=66 v=0
20736 Par ch=1 c=64 v=127
20736 On ch=1 n=37 v=40
20736 On ch=1 n=77 v=77
20784 Off ch=1 n=37 v=0
20784 On ch=1 n=44 v=41
20832 Off ch=1 n=44 v=0
20832 On ch=1 n=53 v=44
20880 Off ch=1 n=53 v=0
20880 On ch=1 n=61 v=49
20925 Off ch=1 n=61 v=0
20928 On ch=1 n=37 v=40
20928 On ch=1 n=78 v=72
20931 Off ch=1 n=77 v=0
20976 Off ch=1 n=78 v=0
20976 Off ch=1 n=37 v=0
20976 On ch=1 n=44 v=44
20976 On ch=1 n=77 v=71
21024 Off ch=1 n=77 v=0
21024 Off ch=1 n=44 v=0
21024 On ch=1 n=53 v=48
21024 On ch=1 n=75 v=71
21072 Off ch=1 n=75 v=0
21072 Off ch=1 n=53 v=0
21072 Par ch=1 c=64 v=0
21072 On ch=1 n=61 v=53
21072 On ch=1 n=73 v=69
21117 Off ch=1 n=61 v=0
21120 Off ch=1 n=73 v=0
21120 Par ch=1 c=64 v=127
21120 On ch=1 n=39 v=41
21120 On ch=1 n=72 v=69
21168 Off ch=1 n=39 v=0
21168 On ch=1 n=44 v=41
21216 Off ch=1 n=44 v=0
21216 On ch=1 n=54 v=45
21216 On ch=1 n=82 v=79
21217 Off ch=1 n=72 v=0
21264 Off ch=1 n=54 v=0
21264 On ch=1 n=60 v=49
21309 Off ch=1 n=60 v=0
21312 On ch=1 n=39 v=41
21312 On ch=1 n=80 v=77
21313 Off ch=1 n=82 v=0
21360 Off ch=1 n=39 v=0
21360 On ch=1 n=44 v=40
21408 Off ch=1 n=44 v=0
21408 On ch=1 n=54 v=46
21456 Off ch=1 n=54 v=0
21456 Par ch=1 c=64 v=0
21456 On ch=1 n=60 v=47
21494 Off ch=1 n=80 v=0
21501 Off ch=1 n=60 v=0
21504 Par ch=1 c=64 v=127
21504 On ch=1 n=32 v=42
21504 On ch=1 n=78 v=72
21552 Off ch=1 n=32 v=0
21552 On ch=1 n=44 v=44
21600 Off ch=1 n=44 v=0
21600 On ch=1 n=54 v=49
21648 Off ch=1 n=54 v=0
21648 On ch=1 n=60 v=54
21693 Off ch=1 n=60 v=0
21696 On ch=1 n=32 v=41
21696 On ch=1 n=80 v=78
21699 Off ch=1 n=78 v=0
21744 Off ch=1 n=80 v=0
21744 Off ch=1 n=32 v=0
21744 On ch=1 n=44 v=42
21744 On ch=1 n=78 v=73
21792 Off ch=1 n=78 v=0
21792 Off ch=1 n=44 v=0
21792 On ch=1 n=54 v=47
21792 On ch=1 n=77 v=70
21840 Off ch=1 n=77 v=0
21840 Off ch=1 n=54 v=0
21840 Par ch=1 c=64 v=0
21840 On ch=1 n=60 v=52
21840 On ch=1 n=75 v=72
21885 Off ch=1 n=60 v=0
21888 Off ch=1 n=75 v=0
21888 Par ch=1 c=64 v=127
21888 On ch=1 n=37 v=43
21888 On ch=1 n=73 v=70
21936 Off ch=1 n=37 v=0
21936 On ch=1 n=44 v=44
21984 Off ch=1 n=44 v=0
21984 On ch=1 n=53 v=45
21984 On ch=1 n=85 v=86
21985 Off ch=1 n=73 v=0
22032 Off ch=1 n=53 v=0
22032 On ch=1 n=61 v=50
22077 Off ch=1 n=61 v=0
22080 On ch=1 n=37 v=41
22080 On ch=1 n=80 v=80
22081 Off ch=1 n=85 v=0
22128 Off ch=1 n=37 v=0
22128 On ch=1 n=44 v=43
22176 Off ch=1 n=44 v=0
22176 On ch=1 n=53 v=44
22224 Off ch=1 n=53 v=0
22224 Par ch=1 c=64 v=0
22224 On ch=1 n=61 v=49
22262 Off ch=1 n=80 v=0
22269 Off ch=1 n=61 v=0
22272 Par ch=1 c=64 v=127
22272 On ch=1 n=37 v=40
22272 On ch=1 n=77 v=73
22320 Off ch=1 n=37 v=0
22320 On ch=1 n=44 v=41
22368 Off ch=1 n=44 v=0
22368 On ch=1 n=53 v=48
22416 Off ch=1 n=53 v=0
22416 Par ch=1 c=64 v=0
22416 On ch=1 n=61 v=51
22461 Off ch=1 n=61 v=0
22464 Par ch=1 c=64 v=127
22464 On ch=1 n=34 v=39
22464 On ch=1 n=78 v=80
22467 Off ch=1 n=77 v=0
22512 Off ch=1 n=78 v=0
22512 Off ch=1 n=34 v=0
22512 On ch=1 n=46 v=42
22512 On ch=1 n=77 v=81
22560 Off ch=1 n=77 v=0
22560 Off ch=1 n=46 v=0
22560 On ch=1 n=56 v=46
22560 On ch=1 n=75 v=77
22608 Off ch=1 n=75 v=0
22608 Off ch=1 n=56 v=0
22608 Par ch=1 c=64 v=0
22608 On ch=1 n=62 v=52
22608 On ch=1 n=74 v=75
22646 Off ch=1 n=74 v=0
22646 On ch=1 n=75 v=76
22651 On ch=1 n=77 v=76
22653 Off ch=1 n=62 v=0
22654 Off ch=1 n=75 v=0
22656 Off ch=1 n=77 v=0
22656 Par ch=1 c=64 v=127
22656 On ch=1 n=39 v=40
22656 On ch=1 n=75 v=76
22704 Off ch=1 n=39 v=0
22704 On ch=1 n=46 v=40
22704 On ch=1 n=74 v=76
22705 Off ch=1 n=75 v=0
22752 Off ch=1 n=46 v=0
22752 Off ch=1 n=74 v=0
22752 On ch=1 n=54 v=46
22752 On ch=1 n=75 v=81
22800 Off ch=1 n=75 v=0
22800 Off ch=1 n=54 v=0
22800 Par ch=1 c=64 v=0
22800 On ch=1 n=63 v=52
22800 On ch=1 n=77 v=84
22845 Off ch=1 n=63 v=0
22848 Off ch=1 n=77 v=0
22848 Par ch=1 c=64 v=127
22848 On ch=1 n=42 v=42
22848 On ch=1 n=78 v=83
22893 Off ch=1 n=78 v=0
22896 Off ch=1 n=42 v=0
22896 On ch=1 n=51 v=45
22896 On ch=1 n=70 v=71
22944 Off ch=1 n=70 v=0
22944 Off ch=1 n=51 v=0
22944 On ch=1 n=58 v=45
22944 On ch=1 n=77 v=88
22992 Off ch=1 n=77 v=0
22992 Off ch=1 n=58 v=0
22992 Par ch=1 c=64 v=0
22992 On ch=1 n=63 v=45
22992 On ch=1 n=75 v=85
23025 Off ch=1 n=75 v=0
23025 On ch=1 n=72 v=80
23030 On ch=1 n=73 v=80
23035 On ch=1 n=75 v=80
23037 Off ch=1 n=63 v=0
23040 Off ch=1 n=72 v=0
23040 Off ch=1 n=75 v=0
23040 Par ch=1 c=64 v=127
23040 On ch=1 n=43 v=41
23040 On ch=1 n=73 v=80
23041 Off ch=1 n=73 v=0
23047 Off ch=1 n=73 v=0
23049 On ch=1 n=75 v=80
23056 Off ch=1 n=75 v=0
23058 On ch=1 n=73 v=80
23065 Off ch=1 n=73 v=0
23067 On ch=1 n=75 v=80
23074 Off ch=1 n=75 v=0
23075 On ch=1 n=73 v=80
23082 Off ch=1 n=73 v=0
23084 On ch=1 n=75 v=80
23088 Off ch=1 n=43 v=0
23088 On ch=1 n=52 v=43
23091 Off ch=1 n=75 v=0
23092 On ch=1 n=73 v=80
23099 Off ch=1 n=73 v=0
23101 On ch=1 n=75 v=80
23107 Off ch=1 n=75 v=0
23109 On ch=1 n=73 v=80
23115 Off ch=1 n=73 v=0
23117 On ch=1 n=75 v=80
23124 Off ch=1 n=75 v=0
23125 On ch=1 n=73 v=80
23132 Off ch=1 n=73 v=0
23133 On ch=1 n=75 v=80
23136 Off ch=1 n=52 v=0
23136 On ch=1 n=61 v=49
23139 Off ch=1 n=75 v=0
23141 On ch=1 n=73 v=83
23147 Off ch=1 n=73 v=0
23149 On ch=1 n=75 v=83
23155 Off ch=1 n=75 v=0
23157 On ch=1 n=73 v=83
23163 Off ch=1 n=73 v=0
23165 On ch=1 n=75 v=83
23172 Off ch=1 n=75 v=0
23173 On ch=1 n=73 v=83
23180 Off ch=1 n=73 v=0
23182 On ch=1 n=75 v=83
23184 Off ch=1 n=61 v=0
23184 Par ch=1 c=64 v=0
23184 On ch=1 n=70 v=54
23188 Off ch=1 n=75 v=0
23190 On ch=1 n=73 v=83
23196 Off ch=1 n=73 v=0
23199 On ch=1 n=75 v=83
23205 Off ch=1 n=75 v=0
23207 On ch=1 n=73 v=83
23214 Off ch=1 n=73 v=0
23216 On ch=1 n=75 v=83
23221 Off ch=1 n=75 v=0
23223 On ch=1 n=72 v=91
23227 On ch=1 n=73 v=91
23229 Off ch=1 n=70 v=0
23232 Off ch=1 n=73 v=0
23232 Off ch=1 n=72 v=0
23232 Par ch=1 c=64 v=127
23232 On ch=1 n=44 v=41
23232 On ch=1 n=82 v=91
23278 Off ch=1 n=82 v=0
23280 Off ch=1 n=44 v=0
23280 On ch=1 n=51 v=42
23280 On ch=1 n=80 v=80
23328 Off ch=1 n=80 v=0
23328 Off ch=1 n=51 v=0
23328 On ch=1 n=60 v=49
23328 On ch=1 n=78 v=78
23376 Off ch=1 n=78 v=0
23376 Off ch=1 n=60 v=0
23376 Par ch=1 c=64 v=0
23376 On ch=1 n=66 v=54
23376 On ch=1 n=68 v=71
23421 Off ch=1 n=66 v=0
23424 Off ch=1 n=68 v=0
23424 Par ch=1 c=64 v=127
23424 On ch=1 n=32 v=37
23424 On ch=1 n=75 v=76
23472 Off ch=1 n=32 v=0
23472 On ch=1 n=44 v=40
23520 Off ch=1 n=44 v=0
23520 On ch=1 n=54 v=47
23568 Off ch=1 n=54 v=0
23568 Par ch=1 c=64 v=0
23568 On ch=1 n=60 v=52
23613 Off ch=1 n=60 v=0
23616 Par ch=1 c=64 v=127
23616 On ch=1 n=37 v=40
23616 On ch=1 n=73 v=80
23619 Off ch=1 n=75 v=0
23664 Off ch=1 n=37 v=0
23664 On ch=1 n=44 v=45
23707 Off ch=1 n=73 v=0
23712 Off ch=1 n=44 v=0
23712 On ch=1 n=53 v=48
23760 Off ch=1 n=53 v=0
23760 Par ch=1 c=64 v=0
23760 On ch=1 n=61 v=52
23805 Off ch=1 n=61 v=0
23808 Par ch=1 c=64 v=127
23808 On ch=1 n=32 v=40
23808 On ch=1 n=72 v=65
23856 Off ch=1 n=32 v=0
23856 On ch=1 n=44 v=43
23904 Off ch=1 n=44 v=0
23904 On ch=1 n=51 v=44
23952 Off ch=1 n=51 v=0
23952 On ch=1 n=60 v=50
23997 Off ch=1 n=60 v=0
24000 On ch=1 n=32 v=42
24000 On ch=1 n=73 v=71
24003 Off ch=1 n=72 v=0
24048 Off ch=1 n=73 v=0
24048 Off ch=1 n=32 v=0
24048 On ch=1 n=44 v=44
24048 On ch=1 n=72 v=67
24096 Off ch=1 n=72 v=0
24096 Off ch=1 n=44 v=0
24096 On ch=1 n=51 v=48
24096 On ch=1 n=70 v=69
24144 Off ch=1 n=70 v=0
24144 Off ch=1 n=51 v=0
24144 Par ch=1 c=64 v=0
24144 On ch=1 n=60 v=52
24144 On ch=1 n=68 v=66
24189 Off ch=1 n=60 v=0
24192 Off ch=1 n=68 v=0
24192 Par ch=1 c=64 v=127
24192 On ch=1 n=34 v=43
24192 On ch=1 n=67 v=73
24240 Off ch=1 n=34 v=0
24240 On ch=1 n=46 v=47
24288 Off ch=1 n=46 v=0
24288 On ch=1 n=51 v=44
24288 On ch=1 n=77 v=83
24289 Off ch=1 n=67 v=0
24336 Off ch=1 n=51 v=0
24336 On ch=1 n=61 v=49
24381 Off ch=1 n=61 v=0
24384 On ch=1 n=34 v=40
24384 On ch=1 n=75 v=71
24385 Off ch=1 n=77 v=0
24432 Off ch=1 n=34 v=0
24432 On ch=1 n=46 v=40
24480 Off ch=1 n=46 v=0
24480 On ch=1 n=51 v=45
24528 Off ch=1 n=51 v=0
24528 Par ch=1 c=64 v=0
24528 On ch=1 n=61 v=52
24566 Off ch=1 n=75 v=0
24573 Off ch=1 n=61 v=0
24576 Par ch=1 c=64 v=127
24576 On ch=1 n=34 v=40
24576 On ch=1 n=73 v=71
24624 Off ch=1 n=34 v=0
24624 On ch=1 n=46 v=44
24672 Off ch=1 n=46 v=0
24672 On ch=1 n=52 v=46
24720 Off ch=1 n=52 v=0
24720 On ch=1 n=61 v=51
24765 Off ch=1 n=61 v=0
24768 On ch=1 n=34 v=38
24768 On ch=1 n=75 v=81
24771 Off ch=1 n=73 v=0
24816 Off ch=1 n=75 v=0
24816 Off ch=1 n=34 v=0
24816 On ch=1 n=46 v=39
24816 On ch=1 n=73 v=76
24864 Off ch=1 n=73 v=0
24864 Off ch=1 n=46 v=0
24864 On ch=1 n=52 v=46
24864 On ch=1 n=72 v=80
24912 Off ch=1 n=72 v=0
24912 Off ch=1 n=52 v=0
24912 Par ch=1 c=64 v=0
24912 On ch=1 n=61 v=52
24912 On ch=1 n=70 v=78
24957 Off ch=1 n=61 v=0
24960 Off ch=1 n=70 v=0
24960 Par ch=1 c=64 v=127
24960 On ch=1 n=36 v=43
24960 On ch=1 n=69 v=82
25008 Off ch=1 n=36 v=0
25008 On ch=1 n=48 v=46
25056 Off ch=1 n=48 v=0
25056 On ch=1 n=53 v=44
25056 On ch=1 n=78 v=92
25057 Off ch=1 n=69 v=0
25104 Off ch=1 n=53 v=0
25104 Par ch=1 c=64 v=0
25104 On ch=1 n=63 v=48
25149 Off ch=1 n=63 v=0
25152 Par ch=1 c=64 v=127
25152 On ch=1 n=36 v=41
25152 On ch=1 n=77 v=75
25153 Off ch=1 n=78 v=0
25200 Off ch=1 n=36 v=0
25200 On ch=1 n=48 v=45
25248 Off ch=1 n=48 v=0
25248 On ch=1 n=53 v=46
25296 Off ch=1 n=53 v=0
25296 Par ch=1 c=64 v=0
25296 On ch=1 n=63 v=50
25334 Off ch=1 n=77 v=0
25341 Off ch=1 n=63 v=0
25344 Par ch=1 c=64 v=127
25344 On ch=1 n=37 v=41
25344 On ch=1 n=77 v=79
25392 Off ch=1 n=37 v=0
25392 On ch=1 n=49 v=45
25440 Off ch=1 n=49 v=0
25440 On ch=1 n=58 v=44
25488 Off ch=1 n=58 v=0
25488 On ch=1 n=65 v=49
25533 Off ch=1 n=65 v=0
25536 On ch=1 n=37 v=41
25536 On ch=1 n=78 v=79
25539 Off ch=1 n=77 v=0
25584 Off ch=1 n=78 v=0
25584 Off ch=1 n=37 v=0
25584 On ch=1 n=49 v=42
25584 On ch=1 n=77 v=76
25632 Off ch=1 n=77 v=0
25632 Off ch=1 n=49 v=0
25632 On ch=1 n=58 v=46
25632 On ch=1 n=75 v=81
25680 Off ch=1 n=75 v=0
25680 Off ch=1 n=58 v=0
25680 Par ch=1 c=64 v=0
25680 On ch=1 n=65 v=49
25680 On ch=1 n=73 v=77
25725 Off ch=1 n=73 v=0
25725 Off ch=1 n=65 v=0
25728 Par ch=1 c=64 v=127
25728 On ch=1 n=39 v=42
25728 On ch=1 n=73 v=82
25776 Off ch=1 n=39 v=0
25776 On ch=1 n=51 v=44
25824 Off ch=1 n=51 v=0
25824 On ch=1 n=58 v=45
25824 On ch=1 n=72 v=80
25825 Off ch=1 n=73 v=0
25872 Off ch=1 n=58 v=0
25872 Par ch=1 c=64 v=0
25872 On ch=1 n=66 v=50
25915 Off ch=1 n=72 v=0
25917 Off ch=1 n=66 v=0
25920 Par ch=1 c=64 v=127
25920 On ch=1 n=41 v=42
25968 Off ch=1 n=41 v=0
25968 On ch=1 n=53 v=42
25968 On ch=1 n=72 v=75
26011 Off ch=1 n=72 v=0
26011 On ch=1 n=75 v=78
26016 Off ch=1 n=75 v=0
26016 Off ch=1 n=53 v=0
26016 On ch=1 n=58 v=45
26016 On ch=1 n=73 v=78
26064 Off ch=1 n=58 v=0
26064 Par ch=1 c=64 v=0
26064 On ch=1 n=65 v=49
26085 Off ch=1 n=73 v=0
26088 On ch=1 n=72 v=80
26109 Off ch=1 n=65 v=0
26110 Off ch=1 n=72 v=0
26112 Par ch=1 c=64 v=127
26112 On ch=1 n=42 v=39
26112 On ch=1 n=72 v=85
26160 Off ch=1 n=42 v=0
26160 On ch=1 n=54 v=38
26208 Off ch=1 n=54 v=0
26208 On ch=1 n=58 v=44
26208 On ch=1 n=70 v=68
26209 Off ch=1 n=72 v=0
26256 Off ch=1 n=58 v=0
26256 Par ch=1 c=64 v=0
26256 On ch=1 n=63 v=47
26299 Off ch=1 n=70 v=0
26301 Off ch=1 n=63 v=0
26304 Par ch=1 c=64 v=127
26304 On ch=1 n=42 v=39
26352 Off ch=1 n=42 v=0
26352 On ch=1 n=54 v=43
26352 On ch=1 n=72 v=66
26395 Off ch=1 n=72 v=0
26395 On ch=1 n=75 v=71
26400 Off ch=1 n=75 v=0
26400 Off ch=1 n=54 v=0
26400 On ch=1 n=58 v=44
26400 On ch=1 n=73 v=71
26448 Off ch=1 n=58 v=0
26448 Par ch=1 c=64 v=0
26448 On ch=1 n=64 v=48
26469 Off ch=1 n=73 v=0
26472 On ch=1 n=72 v=77
26493 Off ch=1 n=64 v=0
26494 Off ch=1 n=72 v=0
26496 Par ch=1 c=64 v=127
26496 On ch=1 n=41 v=41
26496 On ch=1 n=72 v=77
26544 Off ch=1 n=41 v=0
26544 On ch=1 n=48 v=42
26592 Off ch=1 n=48 v=0
26592 On ch=1 n=57 v=46
26592 On ch=1 n=77 v=90
26593 Off ch=1 n=72 v=0
26640 Off ch=1 n=57 v=0
26640 Par ch=1 c=64 v=0
26640 On ch=1 n=65 v=50
26685 Off ch=1 n=65 v=0
26688 Par ch=1 c=64 v=127
26688 On ch=1 n=39 v=39
26688 On ch=1 n=78 v=87
26689 Off ch=1 n=77 v=0
26736 Off ch=1 n=39 v=0
26736 On ch=1 n=51 v=39
26784 Off ch=1 n=51 v=0
26784 On ch=1 n=56 v=46
26784 On ch=1 n=68 v=64
26785 Off ch=1 n=78 v=0
26832 Off ch=1 n=56 v=0
26832 Par ch=1 c=64 v=0
26832 On ch=1 n=66 v=52
26832 On ch=1 n=60 v=52
26875 Off ch=1 n=68 v=0
26877 Off ch=1 n=60 v=0
26877 Off ch=1 n=66 v=0
26880 Par ch=1 c=64 v=127
26880 On ch=1 n=37 v=41
26880 On ch=1 n=77 v=76
26928 Off ch=1 n=37 v=0
26928 On ch=1 n=44 v=42
26976 Off ch=1 n=44 v=0
26976 On ch=1 n=53 v=46
27024 Off ch=1 n=53 v=0
27024 On ch=1 n=61 v=51
27069 Off ch=1 n=61 v=0
27072 On ch=1 n=37 v=41
27072 On ch=1 n=78 v=75
27075 Off ch=1 n=77 v=0
27120 Off ch=1 n=78 v=0
27120 Off ch=1 n=37 v=0
27120 On ch=1 n=44 v=42
27120 On ch=1 n=77 v=73
27168 Off ch=1 n=77 v=0
27168 Off ch=1 n=44 v=0
27168 On ch=1 n=53 v=45
27168 On ch=1 n=75 v=71
27216 Off ch=1 n=75 v=0
27216 Off ch=1 n=53 v=0
27216 Par ch=1 c=64 v=0
27216 On ch=1 n=61 v=51
27216 On ch=1 n=73 v=69
27261 Off ch=1 n=61 v=0
27264 Off ch=1 n=73 v=0
27264 Par ch=1 c=64 v=127
27264 On ch=1 n=39 v=40
27264 On ch=1 n=72 v=68
27312 Off ch=1 n=39 v=0
27312 On ch=1 n=44 v=40
27360 Off ch=1 n=44 v=0
27360 On ch=1 n=54 v=46
27360 On ch=1 n=82 v=82
27361 Off ch=1 n=72 v=0
27408 Off ch=1 n=54 v=0
27408 On ch=1 n=60 v=52
27453 Off ch=1 n=60 v=0
27456 On ch=1 n=39 v=40
27456 On ch=1 n=80 v=79
27457 Off ch=1 n=82 v=0
27504 Off ch=1 n=39 v=0
27504 On ch=1 n=44 v=42
27552 Off ch=1 n=44 v=0
27552 On ch=1 n=54 v=48
27600 Off ch=1 n=54 v=0
27600 Par ch=1 c=64 v=0
27600 On ch=1 n=60 v=51
27638 Off ch=1 n=80 v=0
27645 Off ch=1 n=60 v=0
27648 Par ch=1 c=64 v=127
27648 On ch=1 n=32 v=41
27648 On ch=1 n=78 v=68
27696 Off ch=1 n=32 v=0
27696 On ch=1 n=44 v=43
27744 Off ch=1 n=44 v=0
27744 On ch=1 n=54 v=46
27792 Off ch=1 n=54 v=0
27792 On ch=1 n=60 v=48
27837 Off ch=1 n=60 v=0
27840 On ch=1 n=32 v=42
27840 On ch=1 n=80 v=78
27843 Off ch=1 n=78 v=0
27888 Off ch=1 n=80 v=0
27888 Off ch=1 n=32 v=0
27888 On ch=1 n=44 v=44
27888 On ch=1 n=78 v=72
27936 Off ch=1 n=78 v=0
27936 Off ch=1 n=44 v=0
27936 On ch=1 n=54 v=46
27936 On ch=1 n=77 v=72
27984 Off ch=1 n=77 v=0
27984 Off ch=1 n=54 v=0
27984 Par ch=1 c=64 v=0
27984 On ch=1 n=60 v=51
27984 On ch=1 n=75 v=73
28029 Off ch=1 n=60 v=0
28032 Off ch=1 n=75 v=0
28032 Par ch=1 c=64 v=127
28032 On ch=1 n=37 v=41
28032 On ch=1 n=73 v=72
28080 Off ch=1 n=37 v=0
28080 On ch=1 n=44 v=43
28128 Off ch=1 n=44 v=0
28128 On ch=1 n=53 v=46
28128 On ch=1 n=85 v=87
28129 Off ch=1 n=73 v=0
28176 Off ch=1 n=53 v=0
28176 On ch=1 n=61 v=48
28221 Off ch=1 n=61 v=0
28224 On ch=1 n=37 v=42
28224 On ch=1 n=80 v=84
28225 Off ch=1 n=85 v=0
28272 Off ch=1 n=37 v=0
28272 On ch=1 n=44 v=44
28320 Off ch=1 n=44 v=0
28320 On ch=1 n=53 v=46
28368 Off ch=1 n=53 v=0
28368 Par ch=1 c=64 v=0
28368 On ch=1 n=61 v=49
28406 Off ch=1 n=80 v=0
28413 Off ch=1 n=61 v=0
28416 Par ch=1 c=64 v=127
28416 On ch=1 n=37 v=42
28416 On ch=1 n=77 v=76
28464 Off ch=1 n=37 v=0
28464 On ch=1 n=44 v=46
28512 Off ch=1 n=44 v=0
28512 On ch=1 n=53 v=47
28560 Off ch=1 n=53 v=0
28560 Par ch=1 c=64 v=0
28560 On ch=1 n=61 v=50
28605 Off ch=1 n=61 v=0
28608 Par ch=1 c=64 v=127
28608 On ch=1 n=34 v=42
28608 On ch=1 n=78 v=81
28611 Off ch=1 n=77 v=0
28656 Off ch=1 n=78 v=0
28656 Off ch=1 n=34 v=0
28656 On ch=1 n=46 v=44
28656 On ch=1 n=77 v=80
28704 Off ch=1 n=77 v=0
28704 Off ch=1 n=46 v=0
28704 On ch=1 n=56 v=45
28704 On ch=1 n=75 v=77
28752 Off ch=1 n=75 v=0
28752 Off ch=1 n=56 v=0
28752 Par ch=1 c=64 v=0
28752 On ch=1 n=62 v=48
28752 On ch=1 n=74 v=74
28790 Off ch=1 n=74 v=0
28790 On ch=1 n=75 v=79
28795 On ch=1 n=77 v=79
28797 Off ch=1 n=62 v=0
28798 Off ch=1 n=75 v=0
28800 Off ch=1 n=77 v=0
28800 Par ch=1 c=64 v=127
28800 On ch=1 n=39 v=43
28800 On ch=1 n=75 v=79
28848 Off ch=1 n=39 v=0
28848 On ch=1 n=46 v=45
28848 On ch=1 n=74 v=77
28849 Off ch=1 n=75 v=0
28896 Off ch=1 n=46 v=0
28896 Off ch=1 n=74 v=0
28896 On ch=1 n=54 v=47
28896 On ch=1 n=75 v=81
28944 Off ch=1 n=75 v=0
28944 Off ch=1 n=54 v=0
28944 Par ch=1 c=64 v=0
28944 On ch=1 n=63 v=51
28944 On ch=1 n=77 v=82
28989 Off ch=1 n=63 v=0
28992 Off ch=1 n=77 v=0
28992 Par ch=1 c=64 v=127
28992 On ch=1 n=42 v=40
28992 On ch=1 n=78 v=85
29037 Off ch=1 n=78 v=0
29040 Off ch=1 n=42 v=0
29040 On ch=1 n=51 v=41
29040 On ch=1 n=70 v=72
29088 Off ch=1 n=70 v=0
29088 Off ch=1 n=51 v=0
29088 On ch=1 n=58 v=45
29088 On ch=1 n=77 v=87
29136 Off ch=1 n=77 v=0
29136 Off ch=1 n=58 v=0
29136 Par ch=1 c=64 v=0
29136 On ch=1 n=63 v=47
29136 On ch=1 n=75 v=84
29169 Off ch=1 n=75 v=0
29169 On ch=1 n=72 v=79
29174 On ch=1 n=73 v=79
29179 On ch=1 n=75 v=79
29181 Off ch=1 n=63 v=0
29184 Off ch=1 n=72 v=0
29184 Off ch=1 n=75 v=0
29184 Par ch=1 c=64 v=127
29184 On ch=1 n=43 v=41
29184 On ch=1 n=73 v=79
29185 Off ch=1 n=73 v=0
29191 Off ch=1 n=73 v=0
29193 On ch=1 n=75 v=79
29200 Off ch=1 n=75 v=0
29202 On ch=1 n=73 v=79
29209 Off ch=1 n=73 v=0
29211 On ch=1 n=75 v=79
29218 Off ch=1 n=75 v=0
29219 On ch=1 n=73 v=79
29226 Off ch=1 n=73 v=0
29228 On ch=1 n=75 v=79
29232 Off ch=1 n=43 v=0
29232 On ch=1 n=52 v=43
29235 Off ch=1 n=75 v=0
29236 On ch=1 n=73 v=79
29243 Off ch=1 n=73 v=0
29245 On ch=1 n=75 v=79
29251 Off ch=1 n=75 v=0
29253 On ch=1 n=73 v=79
29259 Off ch=1 n=73 v=0
29261 On ch=1 n=75 v=79
29268 Off ch=1 n=75 v=0
29269 On ch=1 n=73 v=79
29276 Off ch=1 n=73 v=0
29277 On ch=1 n=75 v=79
29280 Off ch=1 n=52 v=0
29280 On ch=1 n=61 v=50
29283 Off ch=1 n=75 v=0
29285 On ch=1 n=73 v=83
29291 Off ch=1 n=73 v=0
29293 On ch=1 n=75 v=83
29299 Off ch=1 n=75 v=0
29301 On ch=1 n=73 v=83
29307 Off ch=1 n=73 v=0
29309 On ch=1 n=75 v=83
29316 Off ch=1 n=75 v=0
29317 On ch=1 n=73 v=83
29324 Off ch=1 n=73 v=0
29326 On ch=1 n=75 v=83
29328 Off ch=1 n=61 v=0
29328 Par ch=1 c=64 v=0
29328 On ch=1 n=70 v=57
29332 Off ch=1 n=75 v=0
29334 On ch=1 n=73 v=83
29340 Off ch=1 n=73 v=0
29343 On ch=1 n=75 v=83
29349 Off ch=1 n=75 v=0
29351 On ch=1 n=73 v=83
29358 Off ch=1 n=73 v=0
29360 On ch=1 n=75 v=83
29365 Off ch=1 n=75 v=0
29367 On ch=1 n=72 v=91
29371 On ch=1 n=73 v=91
29373 Off ch=1 n=70 v=0
29376 Off ch=1 n=73 v=0
29376 Off ch=1 n=72 v=0
29376 Par ch=1 c=64 v=127
29376 On ch=1 n=44 v=41
29376 On ch=1 n=82 v=91
29422 Off ch=1 n=82 v=0
29424 Off ch=1 n=44 v=0
29424 On ch=1 n=51 v=42
29424 On ch=1 n=80 v=81
29472 Off ch=1 n=80 v=0
29472 Off ch=1 n=51 v=0
29472 On ch=1 n=60 v=48
29472 On ch=1 n=78 v=77
29520 Off ch=1 n=78 v=0
29520 Off ch=1 n=60 v=0
29520 Par ch=1 c=64 v=0
29520 On ch=1 n=66 v=53
29520 On ch=1 n=68 v=72
29565 Off ch=1 n=66 v=0
29568 Off ch=1 n=68 v=0
29568 Par ch=1 c=64 v=127
29568 On ch=1 n=32 v=42
29568 On ch=1 n=75 v=88
29616 Off ch=1 n=32 v=0
29616 On ch=1 n=44 v=45
29664 Off ch=1 n=44 v=0
29664 On ch=1 n=54 v=46
29712 Off ch=1 n=54 v=0
29712 Par ch=1 c=64 v=0
29712 On ch=1 n=60 v=50
29760 Off ch=1 n=60 v=0
29760 On ch=1 n=61 v=45
29760 On ch=1 n=53 v=45
29760 On ch=1 n=49 v=45
29760 On ch=1 n=73 v=70
29767 Off ch=1 n=75 v=0
29846 Off ch=1 n=73 v=0
29851 Off ch=1 n=49 v=0
29851 Off ch=1 n=53 v=0
29851 Off ch=1 n=61 v=0
29952 On ch=1 n=46 v=37
29952 On ch=1 n=41 v=37
29952 On ch=1 n=34 v=37
29952 On ch=1 n=53 v=38
29952 On ch=1 n=58 v=38
30048 Off ch=1 n=46 v=0
30048 Off ch=1 n=41 v=0
30048 Off ch=1 n=34 v=0
30048 Off ch=1 n=58 v=0
30048 On ch=1 n=49 v=42
30048 On ch=1 n=42 v=42
30048 On ch=1 n=37 v=42
30048 On ch=1 n=54 v=35
30048 On ch=1 n=58 v=45
30049 Off ch=1 n=53 v=0
30120 Off ch=1 n=58 v=0
30120 On ch=1 n=58 v=45
30144 Off ch=1 n=58 v=0
30144 Off ch=1 n=37 v=0
30144 Off ch=1 n=49 v=0
30144 Off ch=1 n=42 v=0
30144 On ch=1 n=46 v=44
30144 On ch=1 n=41 v=44
30144 On ch=1 n=34 v=44
30144 On ch=1 n=53 v=42
30144 On ch=1 n=58 v=43
30145 Off ch=1 n=54 v=0
30235 Off ch=1 n=53 v=0
30240 Off ch=1 n=46 v=0
30240 Off ch=1 n=41 v=0
30240 Off ch=1 n=34 v=0
30240 On ch=1 n=49 v=45
30240 On ch=1 n=42 v=45
30240 On ch=1 n=37 v=45
30240 On ch=1 n=54 v=43
30326 Off ch=1 n=58 v=0
30336 Off ch=1 n=49 v=0
30336 Off ch=1 n=54 v=0
30336 Off ch=1 n=37 v=0
30336 Off ch=1 n=42 v=0
30336 On ch=1 n=46 v=44
30336 On ch=1 n=41 v=44
30336 On ch=1 n=34 v=44
30336 On ch=1 n=53 v=45
30336 On ch=1 n=58 v=44
30432 Off ch=1 n=58 v=0
30432 Off ch=1 n=34 v=0
30432 Off ch=1 n=41 v=0
30432 Off ch=1 n=46 v=0
30432 On ch=1 n=49 v=43
30432 On ch=1 n=42 v=43
30432 On ch=1 n=37 v=43
30432 On ch=1 n=54 v=47
30432 On ch=1 n=58 v=43
30433 Off ch=1 n=53 v=0
30504 Off ch=1 n=58 v=0
30504 On ch=1 n=58 v=44
30528 Off ch=1 n=58 v=0
30528 Off ch=1 n=49 v=0
30528 Off ch=1 n=37 v=0
30528 Off ch=1 n=42 v=0
30528 On ch=1 n=46 v=43
30528 On ch=1 n=41 v=43
30528 On ch=1 n=34 v=43
30528 On ch=1 n=53 v=42
30528 On ch=1 n=58 v=42
30529 Off ch=1 n=54 v=0
30619 Off ch=1 n=53 v=0
30624 Off ch=1 n=41 v=0
30624 Off ch=1 n=46 v=0
30624 Off ch=1 n=34 v=0
30624 On ch=1 n=49 v=42
30624 On ch=1 n=42 v=42
30624 On ch=1 n=37 v=42
30624 On ch=1 n=54 v=43
30710 Off ch=1 n=58 v=0
30720 Off ch=1 n=49 v=0
30720 Off ch=1 n=54 v=0
30720 Off ch=1 n=37 v=0
30720 Off ch=1 n=42 v=0
30720 On ch=1 n=46 v=42
30720 On ch=1 n=41 v=42
30720 On ch=1 n=34 v=42
30720 On ch=1 n=53 v=43
30720 On ch=1 n=58 v=56
30816 Off ch=1 n=58 v=0
30816 Off ch=1 n=34 v=0
30816 Off ch=1 n=41 v=0
30816 Off ch=1 n=46 v=0
30816 On ch=1 n=49 v=43
30816 On ch=1 n=42 v=43
30816 On ch=1 n=37 v=43
30816 On ch=1 n=54 v=43
30816 On ch=1 n=58 v=56
30817 Off ch=1 n=53 v=0
30888 Off ch=1 n=58 v=0
30888 On ch=1 n=58 v=57
30912 Off ch=1 n=58 v=0
30912 Off ch=1 n=49 v=0
30912 Off ch=1 n=37 v=0
30912 Off ch=1 n=42 v=0
30912 On ch=1 n=46 v=43
30912 On ch=1 n=41 v=43
30912 On ch=1 n=34 v=43
30912 On ch=1 n=53 v=42
30912 On ch=1 n=58 v=59
30913 Off ch=1 n=54 v=0
31008 Off ch=1 n=46 v=0
31008 Off ch=1 n=34 v=0
31008 Off ch=1 n=41 v=0
31008 On ch=1 n=49 v=44
31008 On ch=1 n=42 v=44
31008 On ch=1 n=37 v=44
31008 On ch=1 n=54 v=42
31008 On ch=1 n=61 v=60
31009 Off ch=1 n=58 v=0
31009 Off ch=1 n=53 v=0
31080 On ch=1 n=60 v=55
31081 Off ch=1 n=61 v=0
31099 Off ch=1 n=60 v=0
31099 On ch=1 n=61 v=54
31104 Off ch=1 n=42 v=0
31104 Off ch=1 n=49 v=0
31104 Off ch=1 n=61 v=0
31104 Off ch=1 n=37 v=0
31104 On ch=1 n=46 v=44
31104 On ch=1 n=41 v=44
31104 On ch=1 n=34 v=44
31104 On ch=1 n=53 v=44
31104 On ch=1 n=60 v=54
31105 Off ch=1 n=54 v=0
31173 Off ch=1 n=60 v=0
31176 On ch=1 n=58 v=54
31196 Off ch=1 n=53 v=0
31200 Off ch=1 n=41 v=0
31200 Off ch=1 n=58 v=0
31200 Off ch=1 n=34 v=0
31200 Off ch=1 n=46 v=0
31200 On ch=1 n=49 v=42
31200 On ch=1 n=42 v=42
31200 On ch=1 n=37 v=42
31200 On ch=1 n=54 v=44
31200 On ch=1 n=58 v=58
31272 Off ch=1 n=58 v=0
31272 On ch=1 n=58 v=58
31296 Off ch=1 n=58 v=0
31296 Off ch=1 n=37 v=0
31296 Off ch=1 n=42 v=0
31296 Off ch=1 n=49 v=0
31296 On ch=1 n=46 v=42
31296 On ch=1 n=41 v=42
31296 On ch=1 n=34 v=42
31296 On ch=1 n=53 v=44
31296 On ch=1 n=58 v=59
31297 Off ch=1 n=54 v=0
31387 Off ch=1 n=53 v=0
31392 Off ch=1 n=46 v=0
31392 Off ch=1 n=41 v=0
31392 Off ch=1 n=34 v=0
31392 On ch=1 n=49 v=46
31392 On ch=1 n=42 v=46
31392 On ch=1 n=37 v=46
31392 On ch=1 n=54 v=44
31478 Off ch=1 n=58 v=0
31488 Off ch=1 n=49 v=0
31488 Off ch=1 n=54 v=0
31488 Off ch=1 n=37 v=0
31488 Off ch=1 n=42 v=0
31488 On ch=1 n=46 v=43
31488 On ch=1 n=41 v=43
31488 On ch=1 n=34 v=43
31488 On ch=1 n=53 v=42
31488 On ch=1 n=61 v=63
31488 On ch=1 n=58 v=63
31584 Off ch=1 n=61 v=0
31584 Off ch=1 n=34 v=0
31584 Off ch=1 n=46 v=0
31584 Off ch=1 n=41 v=0
31584 On ch=1 n=49 v=44
31584 On ch=1 n=42 v=44
31584 On ch=1 n=37 v=44
31584 On ch=1 n=58 v=43
31584 On ch=1 n=54 v=43
31584 On ch=1 n=61 v=64
31585 Off ch=1 n=53 v=0
31585 Off ch=1 n=58 v=0
31656 Off ch=1 n=61 v=0
31656 On ch=1 n=61 v=63
31680 Off ch=1 n=61 v=0
31680 Off ch=1 n=42 v=0
31680 Off ch=1 n=49 v=0
31680 Off ch=1 n=37 v=0
31680 On ch=1 n=46 v=42
31680 On ch=1 n=41 v=42
31680 On ch=1 n=34 v=42
31680 On ch=1 n=53 v=39
31680 On ch=1 n=61 v=66
31680 On ch=1 n=58 v=66
31681 Off ch=1 n=58 v=0
31681 Off ch=1 n=54 v=0
31776 Off ch=1 n=41 v=0
31776 Off ch=1 n=61 v=0
31776 Off ch=1 n=46 v=0
31776 Off ch=1 n=34 v=0
31776 On ch=1 n=49 v=47
31776 On ch=1 n=42 v=47
31776 On ch=1 n=37 v=47
31776 On ch=1 n=54 v=39
31776 On ch=1 n=65 v=69
31776 On ch=1 n=61 v=69
31777 Off ch=1 n=58 v=0
31777 Off ch=1 n=53 v=0
31848 On ch=1 n=63 v=66
31848 On ch=1 n=60 v=66
31849 Off ch=1 n=61 v=0
31849 Off ch=1 n=65 v=0
31867 Off ch=1 n=60 v=0
31867 Off ch=1 n=63 v=0
31867 On ch=1 n=65 v=66
31872 Off ch=1 n=42 v=0
31872 Off ch=1 n=65 v=0
31872 Off ch=1 n=37 v=0
31872 Off ch=1 n=49 v=0
31872 On ch=1 n=46 v=43
31872 On ch=1 n=41 v=43
31872 On ch=1 n=34 v=43
31872 On ch=1 n=53 v=44
31872 On ch=1 n=63 v=66
31872 On ch=1 n=60 v=66
31873 Off ch=1 n=54 v=0
31941 Off ch=1 n=60 v=0
31941 Off ch=1 n=63 v=0
31944 On ch=1 n=61 v=66
31944 On ch=1 n=58 v=66
31964 Off ch=1 n=53 v=0
31968 Off ch=1 n=46 v=0
31968 Off ch=1 n=34 v=0
31968 Off ch=1 n=58 v=0
31968 Off ch=1 n=41 v=0
31968 Off ch=1 n=61 v=0
31968 On ch=1 n=49 v=45
31968 On ch=1 n=42 v=45
31968 On ch=1 n=37 v=45
31968 On ch=1 n=54 v=41
31968 On ch=1 n=61 v=71
31968 On ch=1 n=58 v=71
32040 Off ch=1 n=58 v=0
32040 Off ch=1 n=61 v=0
32040 On ch=1 n=61 v=71
32040 On ch=1 n=58 v=71
32064 Off ch=1 n=58 v=0
32064 Off ch=1 n=61 v=0
32064 Off ch=1 n=37 v=0
32064 Off ch=1 n=42 v=0
32064 Off ch=1 n=49 v=0
32064 On ch=1 n=46 v=44
32064 On ch=1 n=41 v=44
32064 On ch=1 n=34 v=44
32064 On ch=1 n=53 v=40
32064 On ch=1 n=61 v=71
32064 On ch=1 n=58 v=71
32065 Off ch=1 n=54 v=0
32155 Off ch=1 n=53 v=0
32160 Off ch=1 n=46 v=0
32160 Off ch=1 n=41 v=0
32160 Off ch=1 n=34 v=0
32160 On ch=1 n=49 v=44
32160 On ch=1 n=42 v=44
32160 On ch=1 n=37 v=44
32160 On ch=1 n=54 v=44
32246 Off ch=1 n=58 v=0
32246 Off ch=1 n=61 v=0
32256 Off ch=1 n=49 v=0
32256 Off ch=1 n=42 v=0
32256 Off ch=1 n=54 v=0
32256 Off ch=1 n=37 v=0
32256 On ch=1 n=46 v=43
32256 On ch=1 n=41 v=43
32256 On ch=1 n=34 v=43
32256 On ch=1 n=61 v=46
32256 On ch=1 n=58 v=46
32256 On ch=1 n=70 v=79
32328 On ch=1 n=68 v=68
32329 Off ch=1 n=70 v=0
32348 Off ch=1 n=68 v=0
32348 On ch=1 n=68 v=67
32352 Off ch=1 n=68 v=0
32352 Off ch=1 n=58 v=0
32352 Off ch=1 n=61 v=0
32352 Off ch=1 n=34 v=0
32352 Off ch=1 n=46 v=0
32352 Off ch=1 n=41 v=0
32352 On ch=1 n=49 v=44
32352 On ch=1 n=42 v=44
32352 On ch=1 n=37 v=44
32352 On ch=1 n=61 v=43
32352 On ch=1 n=58 v=43
32352 On ch=1 n=66 v=67
32421 Off ch=1 n=66 v=0
32424 On ch=1 n=65 v=63
32443 Off ch=1 n=58 v=0
32443 Off ch=1 n=61 v=0
32448 Off ch=1 n=49 v=0
32448 Off ch=1 n=65 v=0
32448 Off ch=1 n=42 v=0
32448 Off ch=1 n=37 v=0
32448 On ch=1 n=46 v=41
32448 On ch=1 n=41 v=41
32448 On ch=1 n=34 v=41
32448 On ch=1 n=61 v=41
32448 On ch=1 n=58 v=41
32448 On ch=1 n=65 v=66
32544 Off ch=1 n=58 v=0
32544 Off ch=1 n=34 v=0
32544 Off ch=1 n=46 v=0
32544 Off ch=1 n=41 v=0
32544 On ch=1 n=49 v=44
32544 On ch=1 n=42 v=44
32544 On ch=1 n=37 v=44
32544 On ch=1 n=58 v=41
32544 On ch=1 n=61 v=54
32545 Off ch=1 n=65 v=0
32545 Off ch=1 n=61 v=0
32635 Off ch=1 n=61 v=0
32635 Off ch=1 n=58 v=0
32640 Off ch=1 n=49 v=0
32640 Off ch=1 n=42 v=0
32640 Off ch=1 n=37 v=0
32640 On ch=1 n=46 v=45
32640 On ch=1 n=41 v=45
32640 On ch=1 n=34 v=45
32640 On ch=1 n=61 v=45
32640 On ch=1 n=58 v=45
32640 On ch=1 n=70 v=80
32712 On ch=1 n=68 v=70
32713 Off ch=1 n=70 v=0
32732 Off ch=1 n=68 v=0
32732 On ch=1 n=68 v=69
32736 Off ch=1 n=68 v=0
32736 Off ch=1 n=58 v=0
32736 Off ch=1 n=61 v=0
32736 Off ch=1 n=46 v=0
32736 Off ch=1 n=41 v=0
32736 Off ch=1 n=34 v=0
32736 On ch=1 n=49 v=43
32736 On ch=1 n=42 v=43
32736 On ch=1 n=37 v=43
32736 On ch=1 n=61 v=46
32736 On ch=1 n=58 v=46
32736 On ch=1 n=66 v=69
32805 Off ch=1 n=66 v=0
32808 On ch=1 n=65 v=66
32827 Off ch=1 n=58 v=0
32827 Off ch=1 n=61 v=0
32832 Off ch=1 n=49 v=0
32832 Off ch=1 n=65 v=0
32832 Off ch=1 n=42 v=0
32832 Off ch=1 n=37 v=0
32832 On ch=1 n=46 v=42
32832 On ch=1 n=41 v=42
32832 On ch=1 n=34 v=42
32832 On ch=1 n=61 v=44
32832 On ch=1 n=58 v=44
32832 On ch=1 n=65 v=68
32928 Off ch=1 n=58 v=0
32928 Off ch=1 n=34 v=0
32928 Off ch=1 n=46 v=0
32928 Off ch=1 n=41 v=0
32928 On ch=1 n=49 v=47
32928 On ch=1 n=42 v=47
32928 On ch=1 n=37 v=47
32928 On ch=1 n=58 v=43
32928 On ch=1 n=61 v=54
32929 Off ch=1 n=65 v=0
32929 Off ch=1 n=61 v=0
33019 Off ch=1 n=61 v=0
33019 Off ch=1 n=58 v=0
33024 Off ch=1 n=49 v=0
33024 Off ch=1 n=42 v=0
33024 Off ch=1 n=37 v=0
33024 On ch=1 n=46 v=44
33024 On ch=1 n=41 v=44
33024 On ch=1 n=34 v=44
33024 On ch=1 n=53 v=55
33024 On ch=1 n=58 v=60
33120 Off ch=1 n=58 v=0
33120 Off ch=1 n=34 v=0
33120 Off ch=1 n=46 v=0
33120 Off ch=1 n=41 v=0
33120 On ch=1 n=49 v=44
33120 On ch=1 n=42 v=44
33120 On ch=1 n=37 v=44
33120 On ch=1 n=54 v=55
33120 On ch=1 n=58 v=63
33121 Off ch=1 n=53 v=0
33192 Off ch=1 n=58 v=0
33192 On ch=1 n=58 v=62
33216 Off ch=1 n=58 v=0
33216 Off ch=1 n=49 v=0
33216 Off ch=1 n=37 v=0
33216 Off ch=1 n=42 v=0
33216 On ch=1 n=46 v=44
33216 On ch=1 n=41 v=44
33216 On ch=1 n=34 v=44
33216 On ch=1 n=53 v=59
33216 On ch=1 n=58 v=64
33217 Off ch=1 n=54 v=0
33312 Off ch=1 n=46 v=0
33312 Off ch=1 n=34 v=0
33312 Off ch=1 n=41 v=0
33312 On ch=1 n=49 v=47
33312 On ch=1 n=42 v=47
33312 On ch=1 n=37 v=47
33312 On ch=1 n=54 v=60
33312 On ch=1 n=61 v=68
33313 Off ch=1 n=58 v=0
33313 Off ch=1 n=53 v=0
33384 On ch=1 n=60 v=66
33385 Off ch=1 n=61 v=0
33403 Off ch=1 n=60 v=0
33403 On ch=1 n=61 v=66
33408 Off ch=1 n=42 v=0
33408 Off ch=1 n=49 v=0
33408 Off ch=1 n=61 v=0
33408 Off ch=1 n=37 v=0
33408 On ch=1 n=46 v=50
33408 On ch=1 n=41 v=50
33408 On ch=1 n=34 v=50
33408 On ch=1 n=53 v=55
33408 On ch=1 n=60 v=66
33409 Off ch=1 n=54 v=0
33477 Off ch=1 n=60 v=0
33480 On ch=1 n=58 v=67
33500 Off ch=1 n=53 v=0
33504 Off ch=1 n=41 v=0
33504 Off ch=1 n=58 v=0
33504 Off ch=1 n=34 v=0
33504 Off ch=1 n=46 v=0
33504 On ch=1 n=49 v=51
33504 On ch=1 n=42 v=51
33504 On ch=1 n=37 v=51
33504 On ch=1 n=54 v=65
33504 On ch=1 n=58 v=68
33576 Off ch=1 n=58 v=0
33576 On ch=1 n=58 v=76
33600 Off ch=1 n=58 v=0
33600 Off ch=1 n=37 v=0
33600 Off ch=1 n=42 v=0
33600 Off ch=1 n=49 v=0
33600 On ch=1 n=46 v=53
33600 On ch=1 n=41 v=53
33600 On ch=1 n=34 v=53
33600 On ch=1 n=53 v=69
33600 On ch=1 n=58 v=76
33601 Off ch=1 n=54 v=0
33691 Off ch=1 n=53 v=0
33696 Off ch=1 n=46 v=0
33696 Off ch=1 n=41 v=0
33696 Off ch=1 n=34 v=0
33696 On ch=1 n=49 v=56
33696 On ch=1 n=42 v=56
33696 On ch=1 n=37 v=56
33696 On ch=1 n=54 v=77
33782 Off ch=1 n=58 v=0
33792 Off ch=1 n=49 v=0
33792 Off ch=1 n=54 v=0
33792 Off ch=1 n=37 v=0
33792 Off ch=1 n=42 v=0
33792 On ch=1 n=73 v=94
33792 On ch=1 n=46 v=56
33792 On ch=1 n=41 v=56
33792 On ch=1 n=34 v=56
33792 On ch=1 n=82 v=93
33792 On ch=1 n=70 v=93
33840 Off ch=1 n=70 v=0
33840 Off ch=1 n=82 v=0
33840 On ch=1 n=80 v=80
33840 On ch=1 n=68 v=80
33874 Off ch=1 n=68 v=0
33874 Off ch=1 n=80 v=0
33874 On ch=1 n=68 v=76
33879 Off ch=1 n=73 v=0
33879 On ch=1 n=73 v=76
33884 On ch=1 n=80 v=76
33888 Off ch=1 n=68 v=0
33888 Off ch=1 n=46 v=0
33888 Off ch=1 n=34 v=0
33888 Off ch=1 n=41 v=0
33888 On ch=1 n=49 v=59
33888 On ch=1 n=42 v=59
33888 On ch=1 n=37 v=59
33888 On ch=1 n=66 v=76
33890 Off ch=1 n=80 v=0
33890 On ch=1 n=78 v=76
33948 Off ch=1 n=73 v=0
33953 Off ch=1 n=66 v=0
33955 Off ch=1 n=78 v=0
33960 On ch=1 n=77 v=76
33960 On ch=1 n=65 v=76
33984 Off ch=1 n=49 v=0
33984 Off ch=1 n=37 v=0
33984 Off ch=1 n=42 v=0
33984 Off ch=1 n=77 v=0
33984 Off ch=1 n=65 v=0
33984 On ch=1 n=46 v=59
33984 On ch=1 n=41 v=59
33984 On ch=1 n=34 v=59
33984 On ch=1 n=77 v=78
33984 On ch=1 n=73 v=78
33984 On ch=1 n=65 v=78
34080 Off ch=1 n=73 v=0
34080 Off ch=1 n=34 v=0
34080 Off ch=1 n=41 v=0
34080 Off ch=1 n=46 v=0
34080 On ch=1 n=49 v=60
34080 On ch=1 n=42 v=60
34080 On ch=1 n=37 v=60
34080 On ch=1 n=73 v=65
34080 On ch=1 n=70 v=65
34080 On ch=1 n=61 v=65
34081 Off ch=1 n=65 v=0
34081 Off ch=1 n=77 v=0
34171 Off ch=1 n=61 v=0
34171 Off ch=1 n=70 v=0
34171 Off ch=1 n=73 v=0
34176 Off ch=1 n=42 v=0
34176 Off ch=1 n=37 v=0
34176 Off ch=1 n=49 v=0
34176 On ch=1 n=46 v=56
34176 On ch=1 n=41 v=56
34176 On ch=1 n=34 v=56
34176 On ch=1 n=73 v=73
34176 On ch=1 n=82 v=93
34176 On ch=1 n=70 v=93
34224 Off ch=1 n=70 v=0
34224 Off ch=1 n=82 v=0
34224 On ch=1 n=80 v=82
34224 On ch=1 n=68 v=82
34258 Off ch=1 n=68 v=0
34258 Off ch=1 n=80 v=0
34258 Off ch=1 n=73 v=0
34258 On ch=1 n=68 v=77
34263 On ch=1 n=73 v=77
34269 On ch=1 n=80 v=77
34272 Off ch=1 n=68 v=0
34272 Off ch=1 n=34 v=0
34272 Off ch=1 n=41 v=0
34272 Off ch=1 n=46 v=0
34272 On ch=1 n=49 v=57
34272 On ch=1 n=42 v=57
34272 On ch=1 n=37 v=57
34272 On ch=1 n=66 v=77
34275 On ch=1 n=78 v=77
34279 Off ch=1 n=80 v=0
34336 Off ch=1 n=73 v=0
34337 Off ch=1 n=66 v=0
34340 Off ch=1 n=78 v=0
34344 On ch=1 n=77 v=76
34344 On ch=1 n=65 v=76
34368 Off ch=1 n=49 v=0
34368 Off ch=1 n=37 v=0
34368 Off ch=1 n=42 v=0
34368 Off ch=1 n=77 v=0
34368 Off ch=1 n=65 v=0
34368 On ch=1 n=46 v=56
34368 On ch=1 n=41 v=56
34368 On ch=1 n=34 v=56
34368 On ch=1 n=77 v=77
34368 On ch=1 n=73 v=77
34368 On ch=1 n=65 v=77
34464 Off ch=1 n=73 v=0
34464 Off ch=1 n=34 v=0
34464 Off ch=1 n=41 v=0
34464 Off ch=1 n=46 v=0
34464 On ch=1 n=49 v=60
34464 On ch=1 n=42 v=60
34464 On ch=1 n=37 v=60
34464 On ch=1 n=73 v=68
34464 On ch=1 n=70 v=68
34464 On ch=1 n=61 v=68
34465 Off ch=1 n=65 v=0
34465 Off ch=1 n=77 v=0
34555 Off ch=1 n=61 v=0
34555 Off ch=1 n=70 v=0
34555 Off ch=1 n=73 v=0
34560 Off ch=1 n=42 v=0
34560 Off ch=1 n=37 v=0
34560 Off ch=1 n=49 v=0
34560 On ch=1 n=46 v=56
34560 On ch=1 n=41 v=56
34560 On ch=1 n=34 v=56
34560 On ch=1 n=65 v=64
34560 On ch=1 n=70 v=71
34560 On ch=1 n=58 v=71
34656 Off ch=1 n=58 v=0
34656 Off ch=1 n=70 v=0
34656 Off ch=1 n=46 v=0
34656 Off ch=1 n=41 v=0
34656 Off ch=1 n=34 v=0
34656 On ch=1 n=49 v=61
34656 On ch=1 n=42 v=61
34656 On ch=1 n=37 v=61
34656 On ch=1 n=66 v=66
34656 On ch=1 n=70 v=70
34656 On ch=1 n=58 v=70
34657 Off ch=1 n=65 v=0
34728 Off ch=1 n=58 v=0
34728 Off ch=1 n=70 v=0
34728 On ch=1 n=70 v=71
34728 On ch=1 n=58 v=71
34752 Off ch=1 n=58 v=0
34752 Off ch=1 n=70 v=0
34752 Off ch=1 n=49 v=0
34752 Off ch=1 n=37 v=0
34752 Off ch=1 n=42 v=0
34752 On ch=1 n=46 v=58
34752 On ch=1 n=41 v=58
34752 On ch=1 n=34 v=58
34752 On ch=1 n=65 v=67
34752 On ch=1 n=70 v=72
34752 On ch=1 n=58 v=72
34753 Off ch=1 n=66 v=0
34848 Off ch=1 n=46 v=0
34848 Off ch=1 n=34 v=0
34848 Off ch=1 n=41 v=0
34848 On ch=1 n=49 v=65
34848 On ch=1 n=42 v=65
34848 On ch=1 n=37 v=65
34848 On ch=1 n=66 v=70
34848 On ch=1 n=73 v=77
34848 On ch=1 n=61 v=77
34849 Off ch=1 n=58 v=0
34849 Off ch=1 n=70 v=0
34849 Off ch=1 n=65 v=0
34920 On ch=1 n=72 v=73
34920 On ch=1 n=60 v=73
34921 Off ch=1 n=61 v=0
34921 Off ch=1 n=73 v=0
34944 Off ch=1 n=37 v=0
34944 Off ch=1 n=42 v=0
34944 Off ch=1 n=49 v=0
34944 Off ch=1 n=60 v=0
34944 Off ch=1 n=72 v=0
34944 On ch=1 n=46 v=68
34944 On ch=1 n=41 v=68
34944 On ch=1 n=34 v=68
34944 On ch=1 n=65 v=71
34944 On ch=1 n=72 v=76
34944 On ch=1 n=60 v=76
34945 Off ch=1 n=66 v=0
35016 On ch=1 n=70 v=74
35016 On ch=1 n=58 v=74
35017 Off ch=1 n=60 v=0
35017 Off ch=1 n=72 v=0
35040 Off ch=1 n=58 v=0
35040 Off ch=1 n=70 v=0
35040 Off ch=1 n=34 v=0
35040 Off ch=1 n=41 v=0
35040 Off ch=1 n=46 v=0
35040 On ch=1 n=49 v=70
35040 On ch=1 n=42 v=70
35040 On ch=1 n=37 v=70
35040 On ch=1 n=66 v=73
35040 On ch=1 n=70 v=77
35040 On ch=1 n=58 v=77
35041 Off ch=1 n=65 v=0
35112 Off ch=1 n=58 v=0
35112 Off ch=1 n=70 v=0
35112 On ch=1 n=70 v=78
35112 On ch=1 n=58 v=78
35136 Off ch=1 n=58 v=0
35136 Off ch=1 n=70 v=0
35136 Off ch=1 n=49 v=0
35136 Off ch=1 n=37 v=0
35136 Off ch=1 n=42 v=0
35136 On ch=1 n=46 v=71
35136 On ch=1 n=41 v=71
35136 On ch=1 n=34 v=71
35136 On ch=1 n=65 v=80
35136 On ch=1 n=70 v=79
35136 On ch=1 n=58 v=79
35137 Off ch=1 n=66 v=0
35227 Off ch=1 n=65 v=0
35232 On ch=1 n=44 v=79
35232 On ch=1 n=32 v=79
35232 On ch=1 n=72 v=98
35232 On ch=1 n=68 v=98
35232 On ch=1 n=66 v=98
35232 On ch=1 n=60 v=98
35233 Off ch=1 n=58 v=0
35233 Off ch=1 n=70 v=0
35233 Off ch=1 n=41 v=0
35233 Off ch=1 n=46 v=0
35233 Off ch=1 n=34 v=0
35328 On ch=1 n=37 v=75
35328 On ch=1 n=25 v=75
35328 On ch=1 n=73 v=87
35328 On ch=1 n=65 v=87
35328 On ch=1 n=61 v=87
35329 Off ch=1 n=60 v=0
35329 Off ch=1 n=66 v=0
35329 Off ch=1 n=68 v=0
35329 Off ch=1 n=72 v=0
35329 Off ch=1 n=32 v=0
35329 Off ch=1 n=44 v=0
35419 Off ch=1 n=61 v=0
35419 Off ch=1 n=65 v=0
35419 Off ch=1 n=73 v=0
35419 Off ch=1 n=25 v=0
35419 Off ch=1 n=37 v=0
35424 On ch=1 n=56 v=73
35424 On ch=1 n=49 v=73
35424 On ch=1 n=61 v=92
35424 On ch=1 n=73 v=72
35424 On ch=1 n=77 v=87
35424 On ch=1 n=65 v=87
35496 On ch=1 n=63 v=98
35496 On ch=1 n=78 v=88
35496 On ch=1 n=66 v=88
35497 Off ch=1 n=61 v=0
35497 Off ch=1 n=77 v=0
35497 Off ch=1 n=65 v=0
35520 Off ch=1 n=56 v=0
35520 Off ch=1 n=49 v=0
35520 Off ch=1 n=66 v=0
35520 Off ch=1 n=73 v=0
35520 Off ch=1 n=78 v=0
35520 Off ch=1 n=63 v=0
35520 On ch=1 n=56 v=83
35520 On ch=1 n=49 v=83
35520 On ch=1 n=65 v=86
35520 On ch=1 n=73 v=80
35520 On ch=1 n=80 v=89
35520 On ch=1 n=68 v=89
35592 On ch=1 n=66 v=88
35592 On ch=1 n=82 v=92
35592 On ch=1 n=70 v=92
35593 Off ch=1 n=68 v=0
35593 Off ch=1 n=80 v=0
35593 Off ch=1 n=65 v=0
35616 Off ch=1 n=70 v=0
35616 Off ch=1 n=82 v=0
35616 Off ch=1 n=66 v=0
35616 Off ch=1 n=56 v=0
35616 On ch=1 n=68 v=94
35616 On ch=1 n=56 v=94
35616 On ch=1 n=63 v=77
35616 On ch=1 n=80 v=88
35616 On ch=1 n=84 v=94
35616 On ch=1 n=72 v=94
35617 Off ch=1 n=73 v=0
35617 Off ch=1 n=49 v=0
35688 On ch=1 n=65 v=81
35688 On ch=1 n=85 v=95
35688 On ch=1 n=73 v=95
35689 Off ch=1 n=72 v=0
35689 Off ch=1 n=84 v=0
35689 Off ch=1 n=63 v=0
35707 Off ch=1 n=56 v=0
35707 Off ch=1 n=80 v=0
35707 Off ch=1 n=68 v=0
35710 Off ch=1 n=73 v=0
35710 Off ch=1 n=85 v=0
35710 Off ch=1 n=65 v=0
35712 On ch=1 n=44 v=75
35712 On ch=1 n=32 v=75
35712 On ch=1 n=89 v=122
35712 On ch=1 n=84 v=122
35712 On ch=1 n=80 v=122
35712 On ch=1 n=77 v=122
35808 Off ch=1 n=44 v=0
35808 Off ch=1 n=32 v=0
35808 On ch=1 n=72 v=92
35808 On ch=1 n=66 v=92
35808 On ch=1 n=63 v=92
35880 Off ch=1 n=66 v=0
35880 On ch=1 n=70 v=90
35880 On ch=1 n=66 v=90
35880 On ch=1 n=61 v=90
35881 Off ch=1 n=63 v=0
35881 Off ch=1 n=72 v=0
35904 Off ch=1 n=66 v=0
35904 Off ch=1 n=61 v=0
35904 Off ch=1 n=84 v=0
35904 Off ch=1 n=80 v=0
35904 Off ch=1 n=70 v=0
35904 On ch=1 n=70 v=84
35904 On ch=1 n=66 v=84
35904 On ch=1 n=61 v=84
35904 On ch=1 n=87 v=82
35904 On ch=1 n=84 v=82
35904 On ch=1 n=80 v=82
35904 On ch=1 n=75 v=82
35907 Off ch=1 n=89 v=0
35907 Off ch=1 n=77 v=0
35976 Off ch=1 n=66 v=0
35976 On ch=1 n=68 v=83
35976 On ch=1 n=66 v=83
35976 On ch=1 n=60 v=83
35977 Off ch=1 n=70 v=0
35977 Off ch=1 n=61 v=0
36000 Off ch=1 n=60 v=0
36000 Off ch=1 n=66 v=0
36000 Off ch=1 n=68 v=0
36000 On ch=1 n=68 v=80
36000 On ch=1 n=66 v=80
36001 On ch=1 n=60 v=80
36040 Off ch=1 n=75 v=0
36040 Off ch=1 n=80 v=0
36040 Off ch=1 n=84 v=0
36040 Off ch=1 n=87 v=0
36070 Off ch=1 n=66 v=0
36072 On ch=1 n=63 v=77
36072 On ch=1 n=60 v=77
36072 On ch=1 n=57 v=77
36072 On ch=1 n=78 v=72
36072 On ch=1 n=75 v=72
36072 On ch=1 n=72 v=72
36072 On ch=1 n=66 v=72
36073 Off ch=1 n=60 v=0
36073 Off ch=1 n=68 v=0
36092 Off ch=1 n=72 v=0
36093 Off ch=1 n=66 v=0
36094 Off ch=1 n=75 v=0
36094 Off ch=1 n=63 v=0
36094 Off ch=1 n=60 v=0
36094 Off ch=1 n=57 v=0
36096 Off ch=1 n=78 v=0
36096 On ch=1 n=46 v=79
36096 On ch=1 n=34 v=79
36096 On ch=1 n=75 v=78
36096 On ch=1 n=72 v=78
36096 On ch=1 n=77 v=80
36096 On ch=1 n=65 v=80
36187 Off ch=1 n=65 v=0
36187 Off ch=1 n=77 v=0
36188 Off ch=1 n=75 v=0
36191 Off ch=1 n=72 v=0
36192 Off ch=1 n=34 v=0
36192 Off ch=1 n=46 v=0
36192 On ch=1 n=61 v=95
36192 On ch=1 n=58 v=95
36192 On ch=1 n=53 v=95
36192 On ch=1 n=73 v=81
36192 On ch=1 n=70 v=81
36192 On ch=1 n=77 v=84
36192 On ch=1 n=65 v=84
36261 Off ch=1 n=65 v=0
36261 Off ch=1 n=77 v=0
36264 On ch=1 n=79 v=93
36264 On ch=1 n=67 v=93
36283 Off ch=1 n=73 v=0
36284 Off ch=1 n=70 v=0
36288 Off ch=1 n=79 v=0
36288 Off ch=1 n=67 v=0
36288 Off ch=1 n=61 v=0
36288 Off ch=1 n=58 v=0
36288 Off ch=1 n=53 v=0
36288 On ch=1 n=49 v=79
36288 On ch=1 n=37 v=79
36288 On ch=1 n=77 v=88
36288 On ch=1 n=73 v=88
36288 On ch=1 n=81 v=96
36288 On ch=1 n=69 v=96
36360 On ch=1 n=82 v=103
36360 On ch=1 n=70 v=103
36361 Off ch=1 n=69 v=0
36361 Off ch=1 n=81 v=0
36384 Off ch=1 n=70 v=0
36384 Off ch=1 n=82 v=0
36384 Off ch=1 n=77 v=0
36384 Off ch=1 n=37 v=0
36384 Off ch=1 n=49 v=0
36384 On ch=1 n=65 v=91
36384 On ch=1 n=61 v=91
36384 On ch=1 n=58 v=91
36384 On ch=1 n=53 v=91
36384 On ch=1 n=77 v=89
36384 On ch=1 n=84 v=104
36384 On ch=1 n=72 v=104
36385 Off ch=1 n=73 v=0
36456 On ch=1 n=85 v=111
36456 On ch=1 n=73 v=111
36457 Off ch=1 n=72 v=0
36457 Off ch=1 n=84 v=0
36475 Off ch=1 n=77 v=0
36478 Off ch=1 n=73 v=0
36478 Off ch=1 n=85 v=0
36480 Off ch=1 n=58 v=0
36480 Off ch=1 n=53 v=0
36480 Off ch=1 n=61 v=0
36480 Off ch=1 n=65 v=0
36480 On ch=1 n=41 v=93
36480 On ch=1 n=29 v=93
36480 On ch=1 n=70 v=112
36487 On ch=1 n=76 v=112
36494 On ch=1 n=79 v=112
36501 On ch=1 n=85 v=112
36576 Off ch=1 n=29 v=0
36576 Off ch=1 n=41 v=0
36576 On ch=1 n=67 v=110
36576 On ch=1 n=61 v=110
36576 On ch=1 n=58 v=110
36576 On ch=1 n=53 v=110
36672 Off ch=1 n=53 v=0
36672 On ch=1 n=53 v=115
36672 On ch=1 n=84 v=95
36672 On ch=1 n=77 v=95
36672 On ch=1 n=72 v=95
36673 Off ch=1 n=58 v=0
36673 Off ch=1 n=67 v=0
36673 Off ch=1 n=61 v=0
36675 Off ch=1 n=70 v=0
36675 Off ch=1 n=76 v=0
36675 Off ch=1 n=79 v=0
36675 Off ch=1 n=85 v=0
36679 On ch=1 n=57 v=97
36686 On ch=1 n=60 v=97
36693 On ch=1 n=69 v=97
36763 Off ch=1 n=53 v=0
36763 Off ch=1 n=72 v=0
36763 Off ch=1 n=77 v=0
36763 Off ch=1 n=84 v=0
36763 Off ch=1 n=57 v=0
36763 Off ch=1 n=60 v=0
36764 Off ch=1 n=69 v=0
36768 On ch=1 n=53 v=107
36851 Off ch=1 n=53 v=0
36851 On ch=1 n=43 v=94
36855 On ch=1 n=44 v=94
36859 On ch=1 n=46 v=94
36864 Off ch=1 n=43 v=0
36864 Off ch=1 n=46 v=0
36864 On ch=1 n=44 v=97
36864 On ch=1 n=65 v=84
36864 On ch=1 n=68 v=87
36864 On ch=1 n=60 v=87
36864 On ch=1 n=56 v=87
36864 On ch=1 n=54 v=87
36865 Off ch=1 n=44 v=0
36870 Off ch=1 n=44 v=0
36872 On ch=1 n=46 v=97
36879 Off ch=1 n=46 v=0
36881 On ch=1 n=44 v=97
36888 Off ch=1 n=44 v=0
36889 On ch=1 n=46 v=97
36896 Off ch=1 n=46 v=0
36898 On ch=1 n=44 v=97
36904 Off ch=1 n=44 v=0
36906 On ch=1 n=46 v=97
36912 Off ch=1 n=46 v=0
36914 On ch=1 n=44 v=97
36921 Off ch=1 n=44 v=0
36922 On ch=1 n=46 v=97
36928 Off ch=1 n=46 v=0
36930 On ch=1 n=44 v=97
36936 Off ch=1 n=44 v=0
36938 On ch=1 n=46 v=97
36944 Off ch=1 n=46 v=0
36946 On ch=1 n=44 v=97
36952 Off ch=1 n=44 v=0
36953 On ch=1 n=46 v=97
36959 Off ch=1 n=46 v=0
36960 Off ch=1 n=54 v=0
36960 Off ch=1 n=68 v=0
36960 Off ch=1 n=56 v=0
36960 Off ch=1 n=60 v=0
36960 On ch=1 n=63 v=80
36960 On ch=1 n=68 v=94
36960 On ch=1 n=60 v=94
36960 On ch=1 n=56 v=94
36960 On ch=1 n=54 v=94
36961 Off ch=1 n=65 v=0
36961 On ch=1 n=44 v=97
36967 Off ch=1 n=44 v=0
36968 On ch=1 n=46 v=97
36974 Off ch=1 n=46 v=0
36976 On ch=1 n=44 v=97
36982 Off ch=1 n=44 v=0
36984 On ch=1 n=46 v=97
36990 Off ch=1 n=46 v=0
36991 On ch=1 n=44 v=97
36997 Off ch=1 n=44 v=0
36999 On ch=1 n=46 v=97
37005 Off ch=1 n=46 v=0
37007 On ch=1 n=44 v=97
37013 Off ch=1 n=44 v=0
37015 On ch=1 n=46 v=97
37022 Off ch=1 n=46 v=0
37024 On ch=1 n=44 v=97
37030 Off ch=1 n=44 v=0
37032 On ch=1 n=46 v=97
37038 Off ch=1 n=46 v=0
37039 On ch=1 n=44 v=97
37045 Off ch=1 n=44 v=0
37048 On ch=1 n=43 v=99
37052 On ch=1 n=44 v=99
37056 Off ch=1 n=68 v=0
37056 Off ch=1 n=43 v=0
37056 Off ch=1 n=44 v=0
37056 On ch=1 n=49 v=99
37056 On ch=1 n=61 v=94
37056 On ch=1 n=68 v=94
37056 On ch=1 n=53 v=94
37057 Off ch=1 n=54 v=0
37057 Off ch=1 n=56 v=0
37057 Off ch=1 n=60 v=0
37057 Off ch=1 n=63 v=0
37142 Off ch=1 n=49 v=0
37147 Off ch=1 n=53 v=0
37147 Off ch=1 n=61 v=0
37147 Off ch=1 n=68 v=0
37152 On ch=1 n=49 v=100
37235 Off ch=1 n=49 v=0
37235 On ch=1 n=40 v=84
37239 On ch=1 n=41 v=84
37244 On ch=1 n=42 v=84
37248 Off ch=1 n=40 v=0
37248 Off ch=1 n=42 v=0
37248 On ch=1 n=41 v=84
37248 On ch=1 n=61 v=75
37248 On ch=1 n=65 v=74
37248 On ch=1 n=57 v=74
37248 On ch=1 n=51 v=74
37249 Off ch=1 n=41 v=0
37254 Off ch=1 n=41 v=0
37256 On ch=1 n=42 v=84
37262 Off ch=1 n=42 v=0
37264 On ch=1 n=41 v=84
37270 Off ch=1 n=41 v=0
37272 On ch=1 n=42 v=84
37279 Off ch=1 n=42 v=0
37280 On ch=1 n=41 v=83
37286 Off ch=1 n=41 v=0
37288 On ch=1 n=42 v=83
37294 Off ch=1 n=42 v=0
37296 On ch=1 n=41 v=84
37302 Off ch=1 n=41 v=0
37304 On ch=1 n=42 v=84
37310 Off ch=1 n=42 v=0
37311 On ch=1 n=41 v=85
37317 Off ch=1 n=41 v=0
37319 On ch=1 n=42 v=85
37325 Off ch=1 n=42 v=0
37326 On ch=1 n=41 v=86
37332 Off ch=1 n=41 v=0
37334 On ch=1 n=42 v=86
37340 Off ch=1 n=42 v=0
37341 On ch=1 n=41 v=87
37344 Off ch=1 n=51 v=0
37344 Off ch=1 n=57 v=0
37344 Off ch=1 n=65 v=0
37344 On ch=1 n=60 v=69
37344 On ch=1 n=65 v=85
37344 On ch=1 n=57 v=85
37344 On ch=1 n=51 v=85
37345 Off ch=1 n=61 v=0
37347 Off ch=1 n=41 v=0
37348 On ch=1 n=42 v=87
37354 Off ch=1 n=42 v=0
37355 On ch=1 n=41 v=88
37361 Off ch=1 n=41 v=0
37362 On ch=1 n=42 v=88
37368 Off ch=1 n=42 v=0
37370 On ch=1 n=41 v=89
37376 Off ch=1 n=41 v=0
37377 On ch=1 n=42 v=89
37383 Off ch=1 n=42 v=0
37385 On ch=1 n=41 v=90
37391 Off ch=1 n=41 v=0
37392 On ch=1 n=42 v=90
37398 Off ch=1 n=42 v=0
37400 On ch=1 n=41 v=91
37406 Off ch=1 n=41 v=0
37408 On ch=1 n=42 v=91
37414 Off ch=1 n=42 v=0
37416 On ch=1 n=41 v=92
37421 On ch=1 n=42 v=97
37422 Off ch=1 n=41 v=0
37427 Off ch=1 n=42 v=0
37427 On ch=1 n=41 v=97
37431 On ch=1 n=40 v=112
37433 Off ch=1 n=41 v=0
37435 Off ch=1 n=60 v=0
37436 On ch=1 n=41 v=112
37440 Off ch=1 n=40 v=0
37440 Off ch=1 n=41 v=0
37440 On ch=1 n=42 v=112
37440 On ch=1 n=58 v=82
37440 On ch=1 n=49 v=82
37441 Off ch=1 n=51 v=0
37441 Off ch=1 n=57 v=0
37441 Off ch=1 n=65 v=0
37532 Off ch=1 n=42 v=0
37536 On ch=1 n=41 v=82
37584 Off ch=1 n=41 v=0
37584 On ch=1 n=37 v=70
37622 Off ch=1 n=58 v=0
37622 Off ch=1 n=49 v=0
37632 Off ch=1 n=37 v=0
37632 On ch=1 n=46 v=60
37632 On ch=1 n=34 v=60
37632 On ch=1 n=53 v=53
37632 On ch=1 n=58 v=71
37723 Off ch=1 n=46 v=0
37723 Off ch=1 n=34 v=0
37728 Off ch=1 n=58 v=0
37728 On ch=1 n=49 v=56
37728 On ch=1 n=42 v=56
37728 On ch=1 n=37 v=56
37728 On ch=1 n=54 v=53
37728 On ch=1 n=58 v=72
37729 Off ch=1 n=53 v=0
37800 Off ch=1 n=58 v=0
37800 On ch=1 n=58 v=70
37824 Off ch=1 n=58 v=0
37824 Off ch=1 n=49 v=0
37824 Off ch=1 n=42 v=0
37824 Off ch=1 n=37 v=0
37824 On ch=1 n=46 v=59
37824 On ch=1 n=41 v=59
37824 On ch=1 n=34 v=59
37824 On ch=1 n=53 v=59
37824 On ch=1 n=58 v=70
37825 Off ch=1 n=54 v=0
37920 Off ch=1 n=46 v=0
37920 Off ch=1 n=34 v=0
37920 Off ch=1 n=41 v=0
37920 On ch=1 n=49 v=56
37920 On ch=1 n=42 v=56
37920 On ch=1 n=37 v=56
37920 On ch=1 n=54 v=59
37920 On ch=1 n=61 v=74
37921 Off ch=1 n=58 v=0
37921 Off ch=1 n=53 v=0
37992 On ch=1 n=60 v=69
37993 Off ch=1 n=61 v=0
38010 Off ch=1 n=60 v=0
38010 On ch=1 n=61 v=72
38016 Off ch=1 n=42 v=0
38016 Off ch=1 n=61 v=0
38016 Off ch=1 n=49 v=0
38016 Off ch=1 n=37 v=0
38016 On ch=1 n=46 v=56
38016 On ch=1 n=41 v=56
38016 On ch=1 n=34 v=56
38016 On ch=1 n=53 v=58
38016 On ch=1 n=60 v=72
38017 Off ch=1 n=54 v=0
38085 Off ch=1 n=60 v=0
38088 On ch=1 n=58 v=71
38108 Off ch=1 n=53 v=0
38112 Off ch=1 n=41 v=0
38112 Off ch=1 n=58 v=0
38112 Off ch=1 n=34 v=0
38112 Off ch=1 n=46 v=0
38112 On ch=1 n=49 v=58
38112 On ch=1 n=42 v=58
38112 On ch=1 n=37 v=58
38112 On ch=1 n=54 v=59
38112 On ch=1 n=58 v=71
38184 Off ch=1 n=58 v=0
38184 On ch=1 n=58 v=73
38208 Off ch=1 n=58 v=0
38208 Off ch=1 n=37 v=0
38208 Off ch=1 n=42 v=0
38208 Off ch=1 n=49 v=0
38208 On ch=1 n=46 v=71
38208 On ch=1 n=41 v=71
38208 On ch=1 n=34 v=71
38208 On ch=1 n=53 v=59
38208 On ch=1 n=58 v=72
38209 Off ch=1 n=54 v=0
38299 Off ch=1 n=58 v=0
38299 Off ch=1 n=53 v=0
38304 On ch=1 n=45 v=69
38304 On ch=1 n=33 v=69
38304 On ch=1 n=61 v=85
38304 On ch=1 n=55 v=85
38304 On ch=1 n=52 v=85
38305 Off ch=1 n=41 v=0
38305 Off ch=1 n=46 v=0
38305 Off ch=1 n=34 v=0
38376 On ch=1 n=44 v=78
38376 On ch=1 n=32 v=78
38376 On ch=1 n=63 v=95
38376 On ch=1 n=60 v=95
38376 On ch=1 n=54 v=95
38377 Off ch=1 n=52 v=0
38377 Off ch=1 n=55 v=0
38377 Off ch=1 n=61 v=0
38377 Off ch=1 n=45 v=0
38377 Off ch=1 n=33 v=0
38398 Off ch=1 n=54 v=0
38398 Off ch=1 n=60 v=0
38398 Off ch=1 n=63 v=0
38398 Off ch=1 n=32 v=0
38398 Off ch=1 n=44 v=0
38400 On ch=1 n=37 v=82
38400 On ch=1 n=25 v=82
38400 On ch=1 n=65 v=100
38400 On ch=1 n=61 v=100
38400 On ch=1 n=53 v=100
38496 Off ch=1 n=37 v=0
38496 Off ch=1 n=25 v=0
38496 Off ch=1 n=65 v=0
38496 Off ch=1 n=61 v=0
38496 Off ch=1 n=53 v=0
38496 On ch=1 n=56 v=72
38496 On ch=1 n=49 v=72
38496 On ch=1 n=61 v=93
38496 On ch=1 n=73 v=77
38496 On ch=1 n=77 v=96
38496 On ch=1 n=65 v=96
38568 On ch=1 n=63 v=94
38568 On ch=1 n=78 v=88
38568 On ch=1 n=66 v=88
38569 Off ch=1 n=65 v=0
38569 Off ch=1 n=77 v=0
38569 Off ch=1 n=61 v=0
38592 Off ch=1 n=66 v=0
38592 Off ch=1 n=78 v=0
38592 Off ch=1 n=73 v=0
38592 Off ch=1 n=63 v=0
38592 Off ch=1 n=49 v=0
38592 Off ch=1 n=56 v=0
38592 On ch=1 n=56 v=84
38592 On ch=1 n=49 v=84
38592 On ch=1 n=65 v=85
38592 On ch=1 n=73 v=83
38592 On ch=1 n=80 v=88
38592 On ch=1 n=68 v=88
38664 On ch=1 n=66 v=88
38664 On ch=1 n=82 v=93
38664 On ch=1 n=70 v=93
38665 Off ch=1 n=68 v=0
38665 Off ch=1 n=80 v=0
38665 Off ch=1 n=65 v=0
38688 Off ch=1 n=70 v=0
38688 Off ch=1 n=82 v=0
38688 Off ch=1 n=66 v=0
38688 Off ch=1 n=56 v=0
38688 On ch=1 n=68 v=94
38688 On ch=1 n=56 v=94
38688 On ch=1 n=63 v=79
38688 On ch=1 n=80 v=90
38688 On ch=1 n=84 v=95
38688 On ch=1 n=72 v=95
38689 Off ch=1 n=73 v=0
38689 Off ch=1 n=49 v=0
38760 On ch=1 n=65 v=83
38760 On ch=1 n=85 v=94
38760 On ch=1 n=73 v=94
38761 Off ch=1 n=72 v=0
38761 Off ch=1 n=84 v=0
38761 Off ch=1 n=63 v=0
38779 Off ch=1 n=56 v=0
38779 Off ch=1 n=80 v=0
38779 Off ch=1 n=68 v=0
38782 Off ch=1 n=73 v=0
38782 Off ch=1 n=85 v=0
38782 Off ch=1 n=65 v=0
38784 On ch=1 n=44 v=78
38784 On ch=1 n=32 v=78
38784 On ch=1 n=89 v=120
38784 On ch=1 n=84 v=120
38784 On ch=1 n=80 v=120
38784 On ch=1 n=77 v=120
38880 Off ch=1 n=44 v=0
38880 Off ch=1 n=32 v=0
38880 On ch=1 n=72 v=95
38880 On ch=1 n=66 v=95
38880 On ch=1 n=63 v=95
38952 Off ch=1 n=66 v=0
38952 On ch=1 n=70 v=93
38952 On ch=1 n=66 v=93
38952 On ch=1 n=61 v=93
38953 Off ch=1 n=63 v=0
38953 Off ch=1 n=72 v=0
38976 Off ch=1 n=66 v=0
38976 Off ch=1 n=61 v=0
38976 Off ch=1 n=84 v=0
38976 Off ch=1 n=80 v=0
38976 Off ch=1 n=70 v=0
38976 On ch=1 n=70 v=80
38976 On ch=1 n=66 v=80
38976 On ch=1 n=61 v=80
38976 On ch=1 n=87 v=80
38976 On ch=1 n=84 v=80
38976 On ch=1 n=80 v=80
38976 On ch=1 n=75 v=80
38979 Off ch=1 n=89 v=0
38979 Off ch=1 n=77 v=0
39048 Off ch=1 n=66 v=0
39048 On ch=1 n=68 v=79
39048 On ch=1 n=66 v=79
39048 On ch=1 n=60 v=79
39049 Off ch=1 n=70 v=0
39049 Off ch=1 n=61 v=0
39072 Off ch=1 n=60 v=0
39072 Off ch=1 n=66 v=0
39072 Off ch=1 n=68 v=0
39072 On ch=1 n=68 v=85
39072 On ch=1 n=66 v=85
39072 On ch=1 n=60 v=85
39112 Off ch=1 n=75 v=0
39112 Off ch=1 n=80 v=0
39112 Off ch=1 n=84 v=0
39112 Off ch=1 n=87 v=0
39142 Off ch=1 n=66 v=0
39144 Off ch=1 n=60 v=0
39144 On ch=1 n=63 v=79
39144 On ch=1 n=60 v=79
39144 On ch=1 n=57 v=79
39144 On ch=1 n=78 v=73
39144 On ch=1 n=75 v=73
39144 On ch=1 n=72 v=73
39144 On ch=1 n=66 v=73
39145 Off ch=1 n=68 v=0
39166 Off ch=1 n=72 v=0
39166 Off ch=1 n=63 v=0
39166 Off ch=1 n=60 v=0
39166 Off ch=1 n=57 v=0
39167 Off ch=1 n=75 v=0
39168 Off ch=1 n=78 v=0
39168 Off ch=1 n=66 v=0
39168 On ch=1 n=46 v=78
39168 On ch=1 n=34 v=78
39168 On ch=1 n=75 v=79
39168 On ch=1 n=72 v=79
39168 On ch=1 n=77 v=68
39168 On ch=1 n=65 v=68
39258 Off ch=1 n=72 v=0
39259 Off ch=1 n=65 v=0
39259 Off ch=1 n=77 v=0
39259 Off ch=1 n=75 v=0
39264 Off ch=1 n=34 v=0
39264 Off ch=1 n=46 v=0
39264 On ch=1 n=61 v=93
39264 On ch=1 n=58 v=93
39264 On ch=1 n=53 v=93
39264 On ch=1 n=73 v=79
39264 On ch=1 n=70 v=79
39264 On ch=1 n=77 v=81
39264 On ch=1 n=65 v=81
39333 Off ch=1 n=65 v=0
39333 Off ch=1 n=77 v=0
39336 On ch=1 n=79 v=84
39336 On ch=1 n=67 v=84
39355 Off ch=1 n=73 v=0
39356 Off ch=1 n=70 v=0
39360 Off ch=1 n=79 v=0
39360 Off ch=1 n=67 v=0
39360 Off ch=1 n=61 v=0
39360 Off ch=1 n=58 v=0
39360 Off ch=1 n=53 v=0
39360 On ch=1 n=49 v=79
39360 On ch=1 n=37 v=79
39360 On ch=1 n=77 v=89
39360 On ch=1 n=73 v=89
39360 On ch=1 n=81 v=88
39360 On ch=1 n=69 v=88
39432 On ch=1 n=82 v=83
39432 On ch=1 n=70 v=83
39433 Off ch=1 n=69 v=0
39433 Off ch=1 n=81 v=0
39456 Off ch=1 n=70 v=0
39456 Off ch=1 n=82 v=0
39456 Off ch=1 n=77 v=0
39456 Off ch=1 n=37 v=0
39456 Off ch=1 n=49 v=0
39456 On ch=1 n=65 v=96
39456 On ch=1 n=61 v=96
39456 On ch=1 n=58 v=96
39456 On ch=1 n=53 v=96
39456 On ch=1 n=77 v=90
39456 On ch=1 n=84 v=85
39456 On ch=1 n=72 v=85
39457 Off ch=1 n=73 v=0
39528 On ch=1 n=85 v=85
39528 On ch=1 n=73 v=85
39529 Off ch=1 n=72 v=0
39529 Off ch=1 n=84 v=0
39547 Off ch=1 n=77 v=0
39550 Off ch=1 n=73 v=0
39550 Off ch=1 n=85 v=0
39552 Off ch=1 n=58 v=0
39552 Off ch=1 n=53 v=0
39552 Off ch=1 n=61 v=0
39552 Off ch=1 n=65 v=0
39552 On ch=1 n=41 v=91
39552 On ch=1 n=29 v=91
39552 On ch=1 n=70 v=111
39559 On ch=1 n=76 v=111
39566 On ch=1 n=79 v=111
39573 On ch=1 n=85 v=111
39648 Off ch=1 n=29 v=0
39648 Off ch=1 n=41 v=0
39648 On ch=1 n=67 v=111
39648 On ch=1 n=61 v=111
39648 On ch=1 n=58 v=111
39648 On ch=1 n=53 v=111
39744 Off ch=1 n=53 v=0
39744 On ch=1 n=53 v=117
39744 On ch=1 n=84 v=94
39744 On ch=1 n=77 v=94
39744 On ch=1 n=72 v=94
39745 Off ch=1 n=58 v=0
39745 Off ch=1 n=67 v=0
39745 Off ch=1 n=61 v=0
39747 Off ch=1 n=70 v=0
39747 Off ch=1 n=76 v=0
39747 Off ch=1 n=79 v=0
39747 Off ch=1 n=85 v=0
39751 On ch=1 n=57 v=97
39758 On ch=1 n=60 v=97
39765 On ch=1 n=69 v=97
39835 Off ch=1 n=53 v=0
39835 Off ch=1 n=72 v=0
39835 Off ch=1 n=77 v=0
39835 Off ch=1 n=84 v=0
39835 Off ch=1 n=57 v=0
39835 Off ch=1 n=60 v=0
39836 Off ch=1 n=69 v=0
39840 On ch=1 n=53 v=109
39924 Off ch=1 n=53 v=0
39924 On ch=1 n=43 v=95
39928 On ch=1 n=44 v=95
39932 On ch=1 n=46 v=95
39936 Off ch=1 n=43 v=0
39936 Off ch=1 n=46 v=0
39936 On ch=1 n=44 v=97
39936 On ch=1 n=65 v=86
39936 On ch=1 n=68 v=89
39936 On ch=1 n=60 v=89
39936 On ch=1 n=56 v=89
39936 On ch=1 n=54 v=89
39937 Off ch=1 n=44 v=0
39943 Off ch=1 n=44 v=0
39945 On ch=1 n=46 v=97
39952 Off ch=1 n=46 v=0
39954 On ch=1 n=44 v=97
39961 Off ch=1 n=44 v=0
39963 On ch=1 n=46 v=97
39970 Off ch=1 n=46 v=0
39971 On ch=1 n=44 v=97
39978 Off ch=1 n=44 v=0
39980 On ch=1 n=46 v=97
39987 Off ch=1 n=46 v=0
39988 On ch=1 n=44 v=97
39995 Off ch=1 n=44 v=0
39997 On ch=1 n=46 v=97
40003 Off ch=1 n=46 v=0
40005 On ch=1 n=44 v=97
40011 Off ch=1 n=44 v=0
40013 On ch=1 n=46 v=97
40020 Off ch=1 n=46 v=0
40021 On ch=1 n=44 v=97
40028 Off ch=1 n=44 v=0
40029 On ch=1 n=46 v=97
40032 Off ch=1 n=54 v=0
40032 Off ch=1 n=68 v=0
40032 Off ch=1 n=56 v=0
40032 Off ch=1 n=60 v=0
40032 On ch=1 n=68 v=96
40032 On ch=1 n=63 v=78
40032 On ch=1 n=60 v=96
40032 On ch=1 n=56 v=96
40032 On ch=1 n=54 v=96
40033 Off ch=1 n=65 v=0
40035 Off ch=1 n=46 v=0
40037 On ch=1 n=44 v=97
40043 Off ch=1 n=44 v=0
40045 On ch=1 n=46 v=97
40051 Off ch=1 n=46 v=0
40053 On ch=1 n=44 v=97
40059 Off ch=1 n=44 v=0
40061 On ch=1 n=46 v=97
40068 Off ch=1 n=46 v=0
40069 On ch=1 n=44 v=97
40076 Off ch=1 n=44 v=0
40078 On ch=1 n=46 v=97
40084 Off ch=1 n=46 v=0
40086 On ch=1 n=44 v=97
40093 Off ch=1 n=44 v=0
40095 On ch=1 n=46 v=97
40102 Off ch=1 n=46 v=0
40104 On ch=1 n=44 v=97
40110 Off ch=1 n=44 v=0
40110 On ch=1 n=46 v=97
40115 On ch=1 n=44 v=97
40116 Off ch=1 n=46 v=0
40120 On ch=1 n=43 v=98
40121 Off ch=1 n=44 v=0
40124 On ch=1 n=44 v=98
40128 Off ch=1 n=68 v=0
40128 Off ch=1 n=43 v=0
40128 Off ch=1 n=44 v=0
40128 On ch=1 n=49 v=98
40128 On ch=1 n=61 v=94
40128 On ch=1 n=68 v=95
40128 On ch=1 n=53 v=95
40129 Off ch=1 n=54 v=0
40129 Off ch=1 n=56 v=0
40129 Off ch=1 n=60 v=0
40129 Off ch=1 n=63 v=0
40214 Off ch=1 n=49 v=0
40219 Off ch=1 n=53 v=0
40219 Off ch=1 n=61 v=0
40219 Off ch=1 n=68 v=0
40224 On ch=1 n=49 v=97
40308 Off ch=1 n=49 v=0
40308 On ch=1 n=40 v=83
40312 On ch=1 n=41 v=83
40316 On ch=1 n=42 v=83
40320 Off ch=1 n=40 v=0
40320 Off ch=1 n=42 v=0
40320 On ch=1 n=41 v=83
40320 On ch=1 n=61 v=72
40320 On ch=1 n=65 v=72
40320 On ch=1 n=57 v=72
40320 On ch=1 n=51 v=72
40321 Off ch=1 n=41 v=0
40327 Off ch=1 n=41 v=0
40329 On ch=1 n=42 v=83
40336 Off ch=1 n=42 v=0
40338 On ch=1 n=41 v=84
40345 Off ch=1 n=41 v=0
40347 On ch=1 n=42 v=84
40354 Off ch=1 n=42 v=0
40355 On ch=1 n=41 v=85
40362 Off ch=1 n=41 v=0
40364 On ch=1 n=42 v=86
40371 Off ch=1 n=42 v=0
40372 On ch=1 n=41 v=86
40379 Off ch=1 n=41 v=0
40381 On ch=1 n=42 v=87
40387 Off ch=1 n=42 v=0
40389 On ch=1 n=41 v=87
40395 Off ch=1 n=41 v=0
40397 On ch=1 n=42 v=88
40404 Off ch=1 n=42 v=0
40405 On ch=1 n=41 v=88
40412 Off ch=1 n=41 v=0
40413 On ch=1 n=42 v=89
40416 Off ch=1 n=51 v=0
40416 Off ch=1 n=57 v=0
40416 Off ch=1 n=65 v=0
40416 On ch=1 n=60 v=69
40416 On ch=1 n=65 v=82
40416 On ch=1 n=57 v=82
40416 On ch=1 n=51 v=82
40417 Off ch=1 n=61 v=0
40419 Off ch=1 n=42 v=0
40421 On ch=1 n=41 v=89
40427 Off ch=1 n=41 v=0
40429 On ch=1 n=42 v=90
40435 Off ch=1 n=42 v=0
40437 On ch=1 n=41 v=91
40443 Off ch=1 n=41 v=0
40445 On ch=1 n=42 v=91
40452 Off ch=1 n=42 v=0
40453 On ch=1 n=41 v=92
40460 Off ch=1 n=41 v=0
40462 On ch=1 n=42 v=92
40468 Off ch=1 n=42 v=0
40470 On ch=1 n=41 v=93
40477 Off ch=1 n=41 v=0
40479 On ch=1 n=42 v=93
40486 Off ch=1 n=42 v=0
40488 On ch=1 n=41 v=94
40494 Off ch=1 n=41 v=0
40494 On ch=1 n=42 v=97
40500 Off ch=1 n=42 v=0
40501 On ch=1 n=41 v=97
40504 On ch=1 n=40 v=117
40507 Off ch=1 n=60 v=0
40507 Off ch=1 n=41 v=0
40508 On ch=1 n=41 v=117
40512 Off ch=1 n=40 v=0
40512 Off ch=1 n=41 v=0
40512 On ch=1 n=42 v=117
40512 On ch=1 n=58 v=77
40512 On ch=1 n=49 v=77
40513 Off ch=1 n=51 v=0
40513 Off ch=1 n=57 v=0
40513 Off ch=1 n=65 v=0
40604 Off ch=1 n=42 v=0
40608 On ch=1 n=41 v=83
40656 Off ch=1 n=41 v=0
40656 On ch=1 n=37 v=69
40694 Off ch=1 n=58 v=0
40694 Off ch=1 n=49 v=0
40704 Off ch=1 n=37 v=0
40704 On ch=1 n=46 v=59
40704 On ch=1 n=34 v=59
40704 On ch=1 n=53 v=51
40704 On ch=1 n=58 v=72
40795 Off ch=1 n=46 v=0
40795 Off ch=1 n=34 v=0
40800 Off ch=1 n=58 v=0
40800 On ch=1 n=49 v=59
40800 On ch=1 n=42 v=59
40800 On ch=1 n=37 v=59
40800 On ch=1 n=54 v=52
40800 On ch=1 n=58 v=71
40801 Off ch=1 n=53 v=0
40872 Off ch=1 n=58 v=0
40872 On ch=1 n=58 v=68
40896 Off ch=1 n=58 v=0
40896 Off ch=1 n=49 v=0
40896 Off ch=1 n=42 v=0
40896 Off ch=1 n=37 v=0
40896 On ch=1 n=46 v=56
40896 On ch=1 n=41 v=56
40896 On ch=1 n=34 v=56
40896 On ch=1 n=53 v=57
40896 On ch=1 n=58 v=64
40897 Off ch=1 n=54 v=0
40992 Off ch=1 n=46 v=0
40992 Off ch=1 n=34 v=0
40992 Off ch=1 n=41 v=0
40992 On ch=1 n=49 v=52
40992 On ch=1 n=42 v=52
40992 On ch=1 n=37 v=52
40992 On ch=1 n=54 v=56
40992 On ch=1 n=61 v=61
40993 Off ch=1 n=58 v=0
40993 Off ch=1 n=53 v=0
41064 On ch=1 n=60 v=52
41065 Off ch=1 n=61 v=0
41083 Off ch=1 n=60 v=0
41083 On ch=1 n=61 v=52
41088 Off ch=1 n=42 v=0
41088 Off ch=1 n=61 v=0
41088 Off ch=1 n=49 v=0
41088 Off ch=1 n=37 v=0
41088 On ch=1 n=46 v=50
41088 On ch=1 n=41 v=50
41088 On ch=1 n=34 v=50
41088 On ch=1 n=53 v=56
41088 On ch=1 n=60 v=52
41089 Off ch=1 n=54 v=0
41157 Off ch=1 n=60 v=0
41160 On ch=1 n=58 v=49
41180 Off ch=1 n=53 v=0
41184 Off ch=1 n=41 v=0
41184 Off ch=1 n=58 v=0
41184 Off ch=1 n=34 v=0
41184 Off ch=1 n=46 v=0
41184 On ch=1 n=49 v=47
41184 On ch=1 n=42 v=47
41184 On ch=1 n=37 v=47
41184 On ch=1 n=54 v=59
41184 On ch=1 n=58 v=50
41256 Off ch=1 n=58 v=0
41256 On ch=1 n=58 v=43
41280 Off ch=1 n=58 v=0
41280 Off ch=1 n=37 v=0
41280 Off ch=1 n=42 v=0
41280 Off ch=1 n=49 v=0
41280 On ch=1 n=46 v=62
41280 On ch=1 n=41 v=62
41280 On ch=1 n=34 v=62
41280 On ch=1 n=53 v=58
41280 On ch=1 n=58 v=44
41281 Off ch=1 n=54 v=0
41553 Off ch=1 n=58 v=0
41553 Off ch=1 n=53 v=0
41568 Off ch=1 n=41 v=0
41568 Off ch=1 n=46 v=0
41568 Off ch=1 n=34 v=0
41856 Par ch=1 c=101 v=0
41856 Par ch=1 c=100 v=0
41856 Par ch=1 c=6 v=12
41856 Par ch=1 c=10 v=63
41856 Par ch=1 c=7 v=105
41856 Par ch=1 c=64 v=0
41857 Par ch=1 c=101 v=0
41857 Par ch=1 c=100 v=0
41857 Par ch=1 c=6 v=12
41857 Par ch=1 c=10 v=63
41857 Par ch=1 c=7 v=105
41857 Par ch=1 c=64 v=0
41857 Par ch=1 c=101 v=0
41857 Par ch=1 c=100 v=0
41857 Par ch=1 c=6 v=12
41857 Par ch=1 c=10 v=63
41857 Par ch=1 c=7 v=105
41857 Par ch=1 c=64 v=0